<?xml version="1.0" encoding="utf-8"?>
<!-- Generator: Adobe Illustrator 24.3.0, SVG Export Plug-In . SVG Version: 6.00 Build 0)  -->
<svg version="1.1" id="Layer_1" xmlns="http://www.w3.org/2000/svg" xmlns:xlink="http://www.w3.org/1999/xlink" x="0px" y="0px"
	 viewBox="0 0 72 72" style="enable-background:new 0 0 72 72;" xml:space="preserve">
<path d="M38.41,14.7c-1.29-1.28-3.53-1.28-4.81,0L16.46,31.83c-0.96,0.96-0.96,2.52,0,3.48c0.93,0.93,2.55,0.93,3.48,0l13.6-13.61
	v34.1c0,1.36,1.1,2.46,2.46,2.46c1.35,0,2.46-1.1,2.46-2.46V21.71l13.6,13.6c0.46,0.47,1.08,0.72,1.74,0.72
	c0.66,0,1.28-0.26,1.74-0.72c0.96-0.96,0.96-2.52,0-3.48L38.41,14.7z"/>
</svg>
