<svg width="465" height="401" viewBox="0 0 465 401" fill="none" xmlns="http://www.w3.org/2000/svg">
<rect width="465" height="401" fill="#242424"/>
<rect x="141.547" y="27" width="103.698" height="42.1628" fill="#6CBF49"/>
<rect x="45.8256" y="114.744" width="80.3657" height="32.6762" fill="#B1DA9F"/>
<rect x="59.5" y="179.698" width="63.814" height="26.2093" fill="#ADD9F2"/>
<rect x="59.5" y="234.395" width="63.814" height="26.2093" fill="#ADD9F2"/>
<rect x="59.5" y="289.093" width="63.814" height="26.2093" fill="#ADD9F2"/>
<rect x="59.5" y="343.791" width="63.814" height="26.2093" fill="#ADD9F2"/>
<path d="M35 131.837V131.267H34.4302V131.837H35ZM35 356.326H34.4302V356.895H35V356.326ZM59.3331 356.728C59.5556 356.506 59.5556 356.145 59.3331 355.923L55.7071 352.297C55.4846 352.074 55.1239 352.074 54.9014 352.297C54.6789 352.519 54.6789 352.88 54.9014 353.102L58.1245 356.326L54.9014 359.549C54.6789 359.771 54.6789 360.132 54.9014 360.354C55.1239 360.577 55.4846 360.577 55.7071 360.354L59.3331 356.728ZM45.8256 131.267H35V132.407H45.8256V131.267ZM34.4302 131.837V356.326H35.5698V131.837H34.4302ZM35 356.895H58.9302V355.756H35V356.895Z" fill="#EFEFEF"/>
<path d="M35 131.837V131.267H34.4302V131.837H35ZM35 301.628H34.4302V302.198H35V301.628ZM59.3331 302.031C59.5556 301.808 59.5556 301.448 59.3331 301.225L55.7071 297.599C55.4846 297.377 55.1239 297.377 54.9014 297.599C54.6789 297.822 54.6789 298.182 54.9014 298.405L58.1245 301.628L54.9014 304.851C54.6789 305.073 54.6789 305.434 54.9014 305.657C55.1239 305.879 55.4846 305.879 55.7071 305.657L59.3331 302.031ZM45.8256 131.267H35V132.407H45.8256V131.267ZM34.4302 131.837V301.628H35.5698V131.837H34.4302ZM35 302.198H58.9302V301.058H35V302.198Z" fill="#EFEFEF"/>
<path d="M35 131.837V131.267H34.4302V131.837H35ZM35 246.93H34.4302V247.5H35V246.93ZM59.3331 247.333C59.5556 247.111 59.5556 246.75 59.3331 246.527L55.7071 242.901C55.4846 242.679 55.1239 242.679 54.9014 242.901C54.6789 243.124 54.6789 243.485 54.9014 243.707L58.1245 246.93L54.9014 250.153C54.6789 250.376 54.6789 250.737 54.9014 250.959C55.1239 251.182 55.4846 251.182 55.7071 250.959L59.3331 247.333ZM45.8256 131.267H35V132.407H45.8256V131.267ZM34.4302 131.837V246.93H35.5698V131.837H34.4302ZM35 247.5H58.9302V246.36H35V247.5Z" fill="#EFEFEF"/>
<path d="M35 131.837V131.267H34.4302V131.837H35ZM35 191.093H34.4302V191.663H35V191.093ZM59.3331 191.496C59.5556 191.273 59.5556 190.913 59.3331 190.69L55.7071 187.064C55.4846 186.842 55.1239 186.842 54.9014 187.064C54.6789 187.287 54.6789 187.647 54.9014 187.87L58.1245 191.093L54.9014 194.316C54.6789 194.539 54.6789 194.899 54.9014 195.122C55.1239 195.344 55.4846 195.344 55.7071 195.122L59.3331 191.496ZM45.8256 131.267H35V132.407H45.8256V131.267ZM34.4302 131.837V191.093H35.5698V131.837H34.4302ZM35 191.663H58.9302V190.523H35V191.663Z" fill="#EFEFEF"/>
<rect x="152.372" y="114.744" width="80.3657" height="32.6762" fill="#B1DA9F"/>
<rect x="166.047" y="179.698" width="63.814" height="26.2093" fill="#ADD9F2"/>
<rect x="166.047" y="234.395" width="63.814" height="26.2093" fill="#ADD9F2"/>
<rect x="166.047" y="289.093" width="63.814" height="26.2093" fill="#ADD9F2"/>
<rect x="166.047" y="343.791" width="63.814" height="26.2093" fill="#ADD9F2"/>
<path d="M141.547 131.837V131.267H140.977V131.837H141.547ZM141.547 356.326H140.977V356.895H141.547V356.326ZM165.88 356.728C166.102 356.506 166.102 356.145 165.88 355.923L162.254 352.297C162.031 352.074 161.67 352.074 161.448 352.297C161.225 352.519 161.225 352.88 161.448 353.102L164.671 356.326L161.448 359.549C161.225 359.771 161.225 360.132 161.448 360.354C161.67 360.577 162.031 360.577 162.254 360.354L165.88 356.728ZM152.372 131.267H141.547V132.407H152.372V131.267ZM140.977 131.837V356.326H142.116V131.837H140.977ZM141.547 356.895H165.477V355.756H141.547V356.895Z" fill="#EFEFEF"/>
<path d="M141.547 131.837V131.267H140.977V131.837H141.547ZM141.547 301.628H140.977V302.198H141.547V301.628ZM165.88 302.031C166.102 301.808 166.102 301.448 165.88 301.225L162.254 297.599C162.031 297.377 161.67 297.377 161.448 297.599C161.225 297.822 161.225 298.182 161.448 298.405L164.671 301.628L161.448 304.851C161.225 305.073 161.225 305.434 161.448 305.657C161.67 305.879 162.031 305.879 162.254 305.657L165.88 302.031ZM152.372 131.267H141.547V132.407H152.372V131.267ZM140.977 131.837V301.628H142.116V131.837H140.977ZM141.547 302.198H165.477V301.058H141.547V302.198Z" fill="#EFEFEF"/>
<path d="M141.547 131.837V131.267H140.977V131.837H141.547ZM141.547 246.93H140.977V247.5H141.547V246.93ZM165.88 247.333C166.102 247.111 166.102 246.75 165.88 246.527L162.254 242.901C162.031 242.679 161.67 242.679 161.448 242.901C161.225 243.124 161.225 243.485 161.448 243.707L164.671 246.93L161.448 250.153C161.225 250.376 161.225 250.737 161.448 250.959C161.67 251.182 162.031 251.182 162.254 250.959L165.88 247.333ZM152.372 131.267H141.547V132.407H152.372V131.267ZM140.977 131.837V246.93H142.116V131.837H140.977ZM141.547 247.5H165.477V246.36H141.547V247.5Z" fill="#EFEFEF"/>
<path d="M141.547 131.837V131.267H140.977V131.837H141.547ZM141.547 191.093H140.977V191.663H141.547V191.093ZM165.88 191.496C166.102 191.273 166.102 190.913 165.88 190.69L162.254 187.064C162.031 186.842 161.67 186.842 161.448 187.064C161.225 187.287 161.225 187.647 161.448 187.87L164.671 191.093L161.448 194.316C161.225 194.539 161.225 194.899 161.448 195.122C161.67 195.344 162.031 195.344 162.254 195.122L165.88 191.496ZM152.372 131.267H141.547V132.407H152.372V131.267ZM140.977 131.837V191.093H142.116V131.837H140.977ZM141.547 191.663H165.477V190.523H141.547V191.663Z" fill="#EFEFEF"/>
<rect x="258.919" y="114.744" width="80.3657" height="32.6762" fill="#B1DA9F"/>
<rect x="272.593" y="179.698" width="63.814" height="26.2093" fill="#ADD9F2"/>
<rect x="272.593" y="234.395" width="63.814" height="26.2093" fill="#ADD9F2"/>
<rect x="272.593" y="289.093" width="63.814" height="26.2093" fill="#ADD9F2"/>
<rect x="272.593" y="343.791" width="63.814" height="26.2093" fill="#ADD9F2"/>
<path d="M248.093 131.837V131.267H247.523V131.837H248.093ZM248.093 356.326H247.523V356.895H248.093V356.326ZM272.426 356.728C272.649 356.506 272.649 356.145 272.426 355.923L268.8 352.297C268.578 352.074 268.217 352.074 267.994 352.297C267.772 352.519 267.772 352.88 267.994 353.102L271.217 356.326L267.994 359.549C267.772 359.771 267.772 360.132 267.994 360.354C268.217 360.577 268.578 360.577 268.8 360.354L272.426 356.728ZM258.919 131.267H248.093V132.407H258.919V131.267ZM247.523 131.837V356.326H248.663V131.837H247.523ZM248.093 356.895H272.023V355.756H248.093V356.895Z" fill="#EFEFEF"/>
<path d="M248.093 131.837V131.267H247.523V131.837H248.093ZM248.093 301.628H247.523V302.198H248.093V301.628ZM272.426 302.031C272.649 301.808 272.649 301.448 272.426 301.225L268.8 297.599C268.578 297.377 268.217 297.377 267.994 297.599C267.772 297.822 267.772 298.182 267.994 298.405L271.217 301.628L267.994 304.851C267.772 305.073 267.772 305.434 267.994 305.657C268.217 305.879 268.578 305.879 268.8 305.657L272.426 302.031ZM258.919 131.267H248.093V132.407H258.919V131.267ZM247.523 131.837V301.628H248.663V131.837H247.523ZM248.093 302.198H272.023V301.058H248.093V302.198Z" fill="#EFEFEF"/>
<path d="M248.093 131.837V131.267H247.523V131.837H248.093ZM248.093 246.93H247.523V247.5H248.093V246.93ZM272.426 247.333C272.649 247.111 272.649 246.75 272.426 246.527L268.8 242.901C268.578 242.679 268.217 242.679 267.994 242.901C267.772 243.124 267.772 243.485 267.994 243.707L271.217 246.93L267.994 250.153C267.772 250.376 267.772 250.737 267.994 250.959C268.217 251.182 268.578 251.182 268.8 250.959L272.426 247.333ZM258.919 131.267H248.093V132.407H258.919V131.267ZM247.523 131.837V246.93H248.663V131.837H247.523ZM248.093 247.5H272.023V246.36H248.093V247.5Z" fill="#EFEFEF"/>
<path d="M248.093 131.837V131.267H247.523V131.837H248.093ZM248.093 191.093H247.523V191.663H248.093V191.093ZM272.426 191.496C272.649 191.273 272.649 190.913 272.426 190.69L268.8 187.064C268.578 186.842 268.217 186.842 267.994 187.064C267.772 187.287 267.772 187.647 267.994 187.87L271.217 191.093L267.994 194.316C267.772 194.539 267.772 194.899 267.994 195.122C268.217 195.344 268.578 195.344 268.8 195.122L272.426 191.496ZM258.919 131.267H248.093V132.407H258.919V131.267ZM247.523 131.837V191.093H248.663V131.837H247.523ZM248.093 191.663H272.023V190.523H248.093V191.663Z" fill="#EFEFEF"/>
<path d="M79.0389 114.577C79.2615 114.8 79.6222 114.8 79.8447 114.577L83.4707 110.951C83.6932 110.729 83.6932 110.368 83.4707 110.145C83.2482 109.923 82.8874 109.923 82.6649 110.145L79.4418 113.369L76.2187 110.145C75.9962 109.923 75.6355 109.923 75.413 110.145C75.1905 110.368 75.1905 110.729 75.413 110.951L79.0389 114.577ZM79.4418 89.6743V89.1045H78.8721V89.6743H79.4418ZM302.221 89.6743H302.791V89.1045H302.221V89.6743ZM301.818 114.577C302.041 114.8 302.401 114.8 302.624 114.577L306.25 110.951C306.472 110.729 306.472 110.368 306.25 110.145C306.027 109.923 305.666 109.923 305.444 110.145L302.221 113.369L298.998 110.145C298.775 109.923 298.415 109.923 298.192 110.145C297.97 110.368 297.97 110.729 298.192 110.951L301.818 114.577ZM80.0116 114.174V89.6743H78.8721V114.174H80.0116ZM79.4418 90.2441H302.221V89.1045H79.4418V90.2441ZM301.651 89.6743V114.174H302.791V89.6743H301.651Z" fill="#EFEFEF"/>
<path d="M191.283 114.008C191.506 114.23 191.866 114.23 192.089 114.008L195.715 110.382C195.937 110.159 195.937 109.798 195.715 109.576C195.492 109.353 195.132 109.353 194.909 109.576L191.686 112.799L188.463 109.576C188.24 109.353 187.88 109.353 187.657 109.576C187.435 109.798 187.435 110.159 187.657 110.382L191.283 114.008ZM191.116 69.1628L191.116 113.605L192.256 113.605L192.256 69.1628L191.116 69.1628Z" fill="#EFEFEF"/>
<circle opacity="0.1" cx="408.209" cy="93.2093" r="26.2093" fill="#EFEFEF"/>
<path d="M398.381 93.2094C398.381 93.7508 398.436 94.2777 398.519 94.7949L396.617 97.1704L399.027 101.345L402.021 100.886C402.842 101.556 403.775 102.091 404.784 102.474L405.887 105.306H410.709L411.811 102.473C412.82 102.091 413.754 101.557 414.574 100.886L417.569 101.345L419.979 97.1699L418.076 94.7952C418.159 94.2777 418.215 93.7503 418.215 93.2091C418.214 92.669 418.16 92.1421 418.076 91.625L419.98 89.2486L417.569 85.0733L414.575 85.5338C413.755 84.8625 412.821 84.3286 411.813 83.945L410.709 81.1128H405.887L404.784 83.9453C403.775 84.3278 402.841 84.8622 402.021 85.5324L399.027 85.0725L396.617 89.2486L398.519 91.6226C398.435 92.1408 398.38 92.6682 398.381 93.2094ZM408.297 88.1363C411.099 88.1363 413.37 90.4079 413.37 93.2091C413.371 96.0103 411.099 98.2819 408.297 98.2819C405.496 98.2819 403.225 96.0103 403.225 93.2091C403.225 90.4079 405.496 88.1363 408.297 88.1363Z" fill="#EFEFEF"/>
<circle opacity="0.1" cx="408.779" cy="291.488" r="26.2093" fill="#EFEFEF"/>
<path d="M400.74 302.149C400.816 302.98 401.496 303.585 402.328 303.585H415.382C416.214 303.585 416.894 302.955 416.97 302.149L418.431 286.826H399.278L400.74 302.149ZM412.055 291.614C412.055 291.186 412.408 290.808 412.862 290.808C413.29 290.808 413.668 291.161 413.668 291.614V298.797C413.668 299.225 413.315 299.603 412.862 299.603C412.433 299.603 412.055 299.25 412.055 298.797V291.614ZM408.048 291.614C408.048 291.186 408.401 290.808 408.855 290.808C409.283 290.808 409.661 291.161 409.661 291.614V298.797C409.661 299.225 409.308 299.603 408.855 299.603C408.426 299.603 408.048 299.25 408.048 298.797V291.614ZM404.067 291.614C404.067 291.186 404.419 290.808 404.873 290.808C405.301 290.808 405.679 291.161 405.679 291.614V298.797C405.679 299.225 405.327 299.603 404.873 299.603C404.445 299.603 404.067 299.25 404.067 298.797V291.614V291.614Z" fill="#EFEFEF"/>
<path d="M418.431 282.038H412.055V281.231C412.055 280.349 411.35 279.644 410.468 279.644H407.267C406.385 279.644 405.679 280.349 405.679 281.231V282.038H399.278C398.396 282.038 397.691 282.744 397.691 283.626C397.691 284.508 398.396 285.213 399.278 285.213H418.431C419.313 285.213 420.019 284.508 420.019 283.626C420.019 282.744 419.313 282.038 418.431 282.038Z" fill="#EFEFEF"/>
<circle opacity="0.1" cx="408.779" cy="159.302" r="26.2093" fill="#EFEFEF"/>
<path fill-rule="evenodd" clip-rule="evenodd" d="M403.134 169.601L402.711 170.13L397 171.399L396.682 171.082L397.952 165.476L398.48 164.947L403.134 169.601ZM418.47 154.265L413.816 149.612L415.508 147.92C416.46 146.968 418.047 146.968 418.998 147.92L420.268 149.189C421.219 150.035 421.219 151.621 420.268 152.573L418.47 154.265ZM404.826 168.015L400.173 163.255L412.441 150.987L417.095 155.64L404.826 168.015Z" fill="#EFEFEF"/>
<circle opacity="0.1" cx="408.779" cy="225.395" r="26.2093" fill="#EFEFEF"/>
<path d="M400.587 229.93H398.652C398.577 229.93 398.506 229.901 398.453 229.848C398.4 229.795 398.37 229.723 398.37 229.649V215.268C398.372 215.194 398.402 215.123 398.454 215.071C398.507 215.018 398.578 214.988 398.652 214.987H413.033C413.107 214.987 413.179 215.016 413.232 215.069C413.284 215.122 413.314 215.193 413.314 215.268V217.203C413.314 217.427 413.403 217.642 413.561 217.8C413.719 217.958 413.934 218.047 414.158 218.047C414.382 218.047 414.596 217.958 414.755 217.8C414.913 217.642 415.002 217.427 415.002 217.203V215.268C415.002 214.746 414.794 214.245 414.425 213.876C414.056 213.506 413.555 213.299 413.033 213.299H398.652C398.129 213.299 397.629 213.506 397.259 213.876C396.89 214.245 396.683 214.746 396.683 215.268V229.649C396.683 230.171 396.89 230.672 397.259 231.041C397.629 231.411 398.129 231.618 398.652 231.618H400.587C400.811 231.618 401.026 231.529 401.184 231.371C401.342 231.213 401.431 230.998 401.431 230.774C401.431 230.55 401.342 230.336 401.184 230.177C401.026 230.019 400.811 229.93 400.587 229.93Z" fill="#EFEFEF"/>
<path d="M418.906 219.173H404.526C404.003 219.173 403.502 219.38 403.133 219.749C402.764 220.119 402.556 220.62 402.556 221.142V235.523C402.556 236.045 402.764 236.546 403.133 236.915C403.502 237.284 404.003 237.492 404.526 237.492H418.906C419.429 237.492 419.93 237.284 420.299 236.915C420.668 236.546 420.876 236.045 420.876 235.523V221.142C420.876 220.62 420.668 220.119 420.299 219.749C419.93 219.38 419.429 219.173 418.906 219.173V219.173ZM419.188 235.523C419.188 235.597 419.158 235.669 419.105 235.722C419.053 235.774 418.981 235.804 418.906 235.804H404.526C404.451 235.804 404.379 235.774 404.327 235.722C404.274 235.669 404.244 235.597 404.244 235.523V221.142C404.244 221.067 404.274 220.996 404.327 220.943C404.379 220.89 404.451 220.861 404.526 220.861H418.906C418.981 220.861 419.053 220.89 419.105 220.943C419.158 220.996 419.188 221.067 419.188 221.142V235.523Z" fill="#EFEFEF"/>
</svg>
