<svg width="465" height="346" viewBox="0 0 465 346" fill="none" xmlns="http://www.w3.org/2000/svg">
<rect width="465" height="346" fill="#242424"/>
<rect x="17" y="14" width="432" height="99" fill="#2C96CF" fill-opacity="0.15"/>
<circle cx="73" cy="65" r="31" fill="#ADD9F2"/>
<circle cx="72.5" cy="58.5833" r="9.58333" fill="#6FA5C2"/>
<path fill-rule="evenodd" clip-rule="evenodd" d="M54.5839 89.9393C54.6613 80.1105 62.653 72.1666 72.5 72.1666C82.3951 72.1666 90.4167 80.1882 90.4167 90.0833C90.4167 90.2744 90.4137 90.4649 90.4077 90.6546C85.4454 94.0283 79.453 96 73 96C66.1036 96 59.7332 93.748 54.5839 89.9393Z" fill="#6FA5C2"/>
<path d="M134.254 64.3065C132.789 64.3065 131.563 64.0341 130.576 63.4892C129.605 62.9273 128.771 62.1866 128.073 61.2671L129.222 60.3221C129.852 61.1564 130.559 61.8035 131.342 62.2632C132.142 62.723 133.13 62.9528 134.305 62.9528C135.684 62.9528 136.74 62.6293 137.472 61.9823C138.221 61.3182 138.596 60.3987 138.596 59.2238C138.596 58.1341 138.281 57.3338 137.651 56.823C137.021 56.3122 136.135 55.9376 134.994 55.6992L133.411 55.3672C131.708 55.0266 130.474 54.4562 129.707 53.6559C128.941 52.8556 128.558 51.834 128.558 50.591C128.558 49.8078 128.694 49.1267 128.967 48.5477C129.239 47.9518 129.622 47.458 130.116 47.0664C130.627 46.6747 131.231 46.3768 131.929 46.1724C132.645 45.9681 133.428 45.8659 134.279 45.8659C135.607 45.8659 136.731 46.1043 137.651 46.5811C138.57 47.0578 139.328 47.7304 139.924 48.5988L138.774 49.4417C138.281 48.7265 137.659 48.1816 136.91 47.8071C136.178 47.4154 135.275 47.2196 134.203 47.2196C132.925 47.2196 131.912 47.5006 131.163 48.0625C130.431 48.6073 130.065 49.4332 130.065 50.5399C130.065 51.5956 130.397 52.3704 131.061 52.8642C131.725 53.3579 132.61 53.7155 133.717 53.9369L135.301 54.2689C137.072 54.6605 138.315 55.265 139.03 56.0823C139.745 56.8996 140.102 57.9213 140.102 59.1472C140.102 60.7818 139.583 62.0504 138.545 62.9528C137.506 63.8553 136.076 64.3065 134.254 64.3065ZM144.607 47.3729C144.266 47.3729 144.011 47.2877 143.841 47.1174C143.687 46.9472 143.611 46.7258 143.611 46.4534V46.198C143.611 45.9255 143.687 45.7042 143.841 45.5339C144.011 45.3636 144.266 45.2785 144.607 45.2785C144.947 45.2785 145.194 45.3636 145.348 45.5339C145.518 45.7042 145.603 45.9255 145.603 46.198V46.4534C145.603 46.7258 145.518 46.9472 145.348 47.1174C145.194 47.2877 144.947 47.3729 144.607 47.3729ZM143.892 50.923H145.348V64H143.892V50.923ZM152.35 64C151.822 64 151.422 63.8553 151.15 63.5658C150.877 63.2763 150.741 62.8847 150.741 62.3909V52.2001H148.468V50.923H149.949C150.307 50.923 150.545 50.8549 150.664 50.7187C150.8 50.5655 150.869 50.3015 150.869 49.9269V47.2707H152.197V50.923H155.159V52.2001H152.197V62.723H154.955V64H152.35ZM163.232 64.3065C162.363 64.3065 161.572 64.1532 160.856 63.8468C160.158 63.5403 159.554 63.0976 159.043 62.5186C158.549 61.9227 158.166 61.199 157.894 60.3476C157.638 59.4963 157.511 58.5342 157.511 57.4615C157.511 56.3888 157.638 55.4353 157.894 54.6009C158.166 53.7496 158.549 53.0344 159.043 52.4555C159.554 51.8595 160.158 51.4083 160.856 51.1018C161.555 50.7783 162.338 50.6166 163.206 50.6166C164.041 50.6166 164.798 50.7783 165.479 51.1018C166.16 51.4083 166.739 51.8425 167.216 52.4044C167.693 52.9663 168.059 53.6474 168.314 54.4477C168.587 55.2309 168.723 56.0993 168.723 57.0529V57.7425H159.043V58.381C159.043 59.0621 159.137 59.6921 159.324 60.271C159.528 60.8329 159.809 61.3182 160.167 61.7269C160.541 62.1355 160.993 62.459 161.521 62.6974C162.048 62.9188 162.644 63.0294 163.308 63.0294C165.215 63.0294 166.535 62.1525 167.267 60.3987L168.34 61.1139C167.931 62.0844 167.284 62.8592 166.399 63.4381C165.53 64.017 164.475 64.3065 163.232 64.3065ZM163.206 51.8425C162.576 51.8425 162.006 51.9617 161.495 52.2001C160.984 52.4214 160.541 52.7364 160.167 53.1451C159.809 53.5538 159.528 54.0476 159.324 54.6265C159.137 55.1884 159.043 55.8099 159.043 56.491V56.6187H167.14V56.4143C167.14 55.7333 167.046 55.1118 166.859 54.5499C166.671 53.9709 166.399 53.4857 166.041 53.094C165.701 52.7024 165.284 52.3959 164.79 52.1745C164.313 51.9532 163.785 51.8425 163.206 51.8425ZM189.776 64L187.835 58.4576H180.25L178.309 64H176.776L183.085 46.1724H185.051L191.385 64H189.776ZM184.081 47.6283H183.979L180.633 57.1295H187.427L184.081 47.6283ZM202.879 61.9056H202.802C202.462 62.6378 201.959 63.2253 201.295 63.668C200.648 64.0937 199.823 64.3065 198.818 64.3065C197.132 64.3065 195.813 63.7105 194.859 62.5186C193.906 61.3267 193.429 59.641 193.429 57.4615C193.429 55.282 193.906 53.5963 194.859 52.4044C195.813 51.2125 197.132 50.6166 198.818 50.6166C199.823 50.6166 200.657 50.8379 201.321 51.2806C201.985 51.7063 202.479 52.2852 202.802 53.0174H202.879V45.0997H204.335V64H202.879V61.9056ZM199.15 63.0039C199.661 63.0039 200.138 62.9358 200.58 62.7996C201.04 62.6634 201.44 62.4675 201.781 62.2121C202.121 61.9397 202.385 61.6247 202.572 61.2671C202.777 60.8925 202.879 60.4754 202.879 60.0156V54.8308C202.879 54.4051 202.777 54.0135 202.572 53.6559C202.385 53.2983 202.121 52.9919 201.781 52.7364C201.44 52.481 201.04 52.2852 200.58 52.149C200.138 51.9958 199.661 51.9191 199.15 51.9191C197.839 51.9191 196.817 52.3363 196.085 53.1706C195.353 54.005 194.987 55.1288 194.987 56.542V58.381C194.987 59.7943 195.353 60.9181 196.085 61.7524C196.817 62.5867 197.839 63.0039 199.15 63.0039ZM209.091 64V50.923H210.547V52.9919H210.623C210.76 52.6683 210.93 52.3704 211.134 52.0979C211.339 51.8085 211.585 51.5531 211.875 51.3317C212.164 51.1103 212.505 50.9401 212.897 50.8209C213.305 50.6847 213.782 50.6166 214.327 50.6166C215.263 50.6166 216.089 50.8379 216.804 51.2806C217.519 51.7233 218.039 52.4214 218.362 53.375H218.439C218.677 52.6087 219.129 51.9617 219.793 51.4339C220.474 50.889 221.393 50.6166 222.551 50.6166C223.947 50.6166 225.02 51.0507 225.769 51.9191C226.518 52.7705 226.893 53.9965 226.893 55.597V64H225.437V55.8524C225.437 53.2302 224.339 51.9191 222.142 51.9191C221.683 51.9191 221.248 51.9787 220.84 52.0979C220.431 52.2171 220.065 52.4044 219.742 52.6598C219.435 52.8982 219.188 53.2047 219.001 53.5793C218.814 53.9369 218.72 54.354 218.72 54.8308V64H217.264V55.8524C217.264 53.2302 216.174 51.9191 213.995 51.9191C213.552 51.9191 213.118 51.9787 212.692 52.0979C212.284 52.2171 211.917 52.3959 211.594 52.6343C211.27 52.8727 211.015 53.1792 210.828 53.5538C210.64 53.9113 210.547 54.3285 210.547 54.8053V64H209.091ZM232.179 47.3729C231.839 47.3729 231.583 47.2877 231.413 47.1174C231.26 46.9472 231.183 46.7258 231.183 46.4534V46.198C231.183 45.9255 231.26 45.7042 231.413 45.5339C231.583 45.3636 231.839 45.2785 232.179 45.2785C232.52 45.2785 232.767 45.3636 232.92 45.5339C233.09 45.7042 233.175 45.9255 233.175 46.198V46.4534C233.175 46.7258 233.09 46.9472 232.92 47.1174C232.767 47.2877 232.52 47.3729 232.179 47.3729ZM231.464 50.923H232.92V64H231.464V50.923ZM237.675 64V50.923H239.131V52.9919H239.207C239.497 52.3108 239.948 51.7489 240.561 51.3062C241.174 50.8464 242.008 50.6166 243.064 50.6166C244.46 50.6166 245.541 51.0507 246.308 51.9191C247.091 52.7705 247.483 53.9965 247.483 55.597V64H246.027V55.8524C246.027 54.5243 245.737 53.5367 245.158 52.8897C244.596 52.2427 243.771 51.9191 242.681 51.9191C242.221 51.9191 241.778 51.9787 241.353 52.0979C240.927 52.2171 240.544 52.3959 240.203 52.6343C239.88 52.8727 239.616 53.1792 239.412 53.5538C239.224 53.9113 239.131 54.3285 239.131 54.8053V64H237.675Z" fill="#EFEFEF"/>
<path d="M132.025 87.18C130.725 87.18 129.72 86.73 129.01 85.83C128.3 84.92 127.945 83.575 127.945 81.795C127.945 80.025 128.3 78.675 129.01 77.745C129.72 76.815 130.725 76.35 132.025 76.35C132.865 76.35 133.57 76.55 134.14 76.95C134.72 77.35 135.17 77.895 135.49 78.585L134.755 79.02C134.525 78.45 134.175 78 133.705 77.67C133.245 77.33 132.685 77.16 132.025 77.16C131.045 77.16 130.28 77.51 129.73 78.21C129.18 78.91 128.905 79.91 128.905 81.21V82.395C128.905 83.685 129.18 84.67 129.73 85.35C130.28 86.03 131.045 86.37 132.025 86.37C132.725 86.37 133.31 86.195 133.78 85.845C134.25 85.485 134.6 85.005 134.83 84.405L135.565 84.84C135.255 85.56 134.8 86.13 134.2 86.55C133.6 86.97 132.875 87.18 132.025 87.18ZM138.598 87C138.288 87 138.053 86.915 137.893 86.745C137.733 86.575 137.653 86.35 137.653 86.07V75.9H138.508V86.25H139.693V87H138.598ZM142.028 77.235C141.828 77.235 141.678 77.185 141.578 77.085C141.488 76.985 141.443 76.855 141.443 76.695V76.545C141.443 76.385 141.488 76.255 141.578 76.155C141.678 76.055 141.828 76.005 142.028 76.005C142.228 76.005 142.373 76.055 142.463 76.155C142.563 76.255 142.613 76.385 142.613 76.545V76.695C142.613 76.855 142.563 76.985 142.463 77.085C142.373 77.185 142.228 77.235 142.028 77.235ZM141.608 79.32H142.463V87H141.608V79.32ZM148 87.18C147.49 87.18 147.025 87.09 146.605 86.91C146.195 86.73 145.84 86.47 145.54 86.13C145.25 85.78 145.025 85.355 144.865 84.855C144.715 84.355 144.64 83.79 144.64 83.16C144.64 82.53 144.715 81.97 144.865 81.48C145.025 80.98 145.25 80.56 145.54 80.22C145.84 79.87 146.195 79.605 146.605 79.425C147.015 79.235 147.475 79.14 147.985 79.14C148.475 79.14 148.92 79.235 149.32 79.425C149.72 79.605 150.06 79.86 150.34 80.19C150.62 80.52 150.835 80.92 150.985 81.39C151.145 81.85 151.225 82.36 151.225 82.92V83.325H145.54V83.7C145.54 84.1 145.595 84.47 145.705 84.81C145.825 85.14 145.99 85.425 146.2 85.665C146.42 85.905 146.685 86.095 146.995 86.235C147.305 86.365 147.655 86.43 148.045 86.43C149.165 86.43 149.94 85.915 150.37 84.885L151 85.305C150.76 85.875 150.38 86.33 149.86 86.67C149.35 87.01 148.73 87.18 148 87.18ZM147.985 79.86C147.615 79.86 147.28 79.93 146.98 80.07C146.68 80.2 146.42 80.385 146.2 80.625C145.99 80.865 145.825 81.155 145.705 81.495C145.595 81.825 145.54 82.19 145.54 82.59V82.665H150.295V82.545C150.295 82.145 150.24 81.78 150.13 81.45C150.02 81.11 149.86 80.825 149.65 80.595C149.45 80.365 149.205 80.185 148.915 80.055C148.635 79.925 148.325 79.86 147.985 79.86ZM153.4 87V79.32H154.255V80.535H154.3C154.47 80.135 154.735 79.805 155.095 79.545C155.455 79.275 155.945 79.14 156.565 79.14C157.385 79.14 158.02 79.395 158.47 79.905C158.93 80.405 159.16 81.125 159.16 82.065V87H158.305V82.215C158.305 81.435 158.135 80.855 157.795 80.475C157.465 80.095 156.98 79.905 156.34 79.905C156.07 79.905 155.81 79.94 155.56 80.01C155.31 80.08 155.085 80.185 154.885 80.325C154.695 80.465 154.54 80.645 154.42 80.865C154.31 81.075 154.255 81.32 154.255 81.6V87H153.4ZM163.172 87C162.862 87 162.627 86.915 162.467 86.745C162.307 86.575 162.227 86.345 162.227 86.055V80.07H160.892V79.32H161.762C161.972 79.32 162.112 79.28 162.182 79.2C162.262 79.11 162.302 78.955 162.302 78.735V77.175H163.082V79.32H164.822V80.07H163.082V86.25H164.702V87H163.172ZM174.051 87.18C172.751 87.18 171.746 86.73 171.036 85.83C170.326 84.92 169.971 83.575 169.971 81.795C169.971 80.025 170.326 78.675 171.036 77.745C171.746 76.815 172.751 76.35 174.051 76.35C174.891 76.35 175.596 76.55 176.166 76.95C176.746 77.35 177.196 77.895 177.516 78.585L176.781 79.02C176.551 78.45 176.201 78 175.731 77.67C175.271 77.33 174.711 77.16 174.051 77.16C173.071 77.16 172.306 77.51 171.756 78.21C171.206 78.91 170.931 79.91 170.931 81.21V82.395C170.931 83.685 171.206 84.67 171.756 85.35C172.306 86.03 173.071 86.37 174.051 86.37C174.751 86.37 175.336 86.195 175.806 85.845C176.276 85.485 176.626 85.005 176.856 84.405L177.591 84.84C177.281 85.56 176.826 86.13 176.226 86.55C175.626 86.97 174.901 87.18 174.051 87.18ZM182.409 87.18C181.899 87.18 181.439 87.09 181.029 86.91C180.619 86.73 180.269 86.47 179.979 86.13C179.689 85.78 179.464 85.355 179.304 84.855C179.144 84.355 179.064 83.79 179.064 83.16C179.064 82.53 179.144 81.97 179.304 81.48C179.464 80.98 179.689 80.56 179.979 80.22C180.269 79.87 180.619 79.605 181.029 79.425C181.439 79.235 181.899 79.14 182.409 79.14C182.919 79.14 183.379 79.235 183.789 79.425C184.199 79.605 184.549 79.87 184.839 80.22C185.129 80.56 185.354 80.98 185.514 81.48C185.674 81.97 185.754 82.53 185.754 83.16C185.754 83.79 185.674 84.355 185.514 84.855C185.354 85.355 185.129 85.78 184.839 86.13C184.549 86.47 184.199 86.73 183.789 86.91C183.379 87.09 182.919 87.18 182.409 87.18ZM182.409 86.415C183.159 86.415 183.749 86.18 184.179 85.71C184.619 85.24 184.839 84.55 184.839 83.64V82.68C184.839 81.78 184.619 81.095 184.179 80.625C183.749 80.145 183.159 79.905 182.409 79.905C181.659 79.905 181.064 80.14 180.624 80.61C180.194 81.08 179.979 81.77 179.979 82.68V83.64C179.979 84.54 180.194 85.23 180.624 85.71C181.064 86.18 181.659 86.415 182.409 86.415ZM187.926 87V79.32H188.781V80.535H188.826C188.906 80.345 189.006 80.17 189.126 80.01C189.246 79.84 189.391 79.69 189.561 79.56C189.731 79.43 189.931 79.33 190.161 79.26C190.401 79.18 190.681 79.14 191.001 79.14C191.551 79.14 192.036 79.27 192.456 79.53C192.876 79.79 193.181 80.2 193.371 80.76H193.416C193.556 80.31 193.821 79.93 194.211 79.62C194.611 79.3 195.151 79.14 195.831 79.14C196.651 79.14 197.281 79.395 197.721 79.905C198.161 80.405 198.381 81.125 198.381 82.065V87H197.526V82.215C197.526 80.675 196.881 79.905 195.591 79.905C195.321 79.905 195.066 79.94 194.826 80.01C194.586 80.08 194.371 80.19 194.181 80.34C194.001 80.48 193.856 80.66 193.746 80.88C193.636 81.09 193.581 81.335 193.581 81.615V87H192.726V82.215C192.726 80.675 192.086 79.905 190.806 79.905C190.546 79.905 190.291 79.94 190.041 80.01C189.801 80.08 189.586 80.185 189.396 80.325C189.206 80.465 189.056 80.645 188.946 80.865C188.836 81.075 188.781 81.32 188.781 81.6V87H187.926ZM201.066 79.32H201.921V80.55H201.966C202.156 80.12 202.446 79.78 202.836 79.53C203.226 79.27 203.716 79.14 204.306 79.14C205.296 79.14 206.071 79.49 206.631 80.19C207.191 80.89 207.471 81.88 207.471 83.16C207.471 84.44 207.191 85.43 206.631 86.13C206.071 86.83 205.296 87.18 204.306 87.18C203.716 87.18 203.231 87.055 202.851 86.805C202.471 86.545 202.176 86.2 201.966 85.77H201.921V90H201.066V79.32ZM204.111 86.415C204.881 86.415 205.481 86.17 205.911 85.68C206.341 85.19 206.556 84.53 206.556 83.7V82.62C206.556 81.79 206.341 81.13 205.911 80.64C205.481 80.15 204.881 79.905 204.111 79.905C203.811 79.905 203.526 79.95 203.256 80.04C202.996 80.12 202.766 80.235 202.566 80.385C202.366 80.535 202.206 80.715 202.086 80.925C201.976 81.135 201.921 81.365 201.921 81.615V84.66C201.921 84.93 201.976 85.175 202.086 85.395C202.206 85.605 202.366 85.79 202.566 85.95C202.766 86.1 202.996 86.215 203.256 86.295C203.526 86.375 203.811 86.415 204.111 86.415ZM214.959 87C214.629 87 214.389 86.915 214.239 86.745C214.089 86.575 214.004 86.345 213.984 86.055V85.785H213.909C213.739 86.215 213.459 86.555 213.069 86.805C212.679 87.055 212.184 87.18 211.584 87.18C210.774 87.18 210.149 86.985 209.709 86.595C209.269 86.195 209.049 85.635 209.049 84.915C209.049 84.235 209.289 83.695 209.769 83.295C210.259 82.895 211.059 82.695 212.169 82.695H213.939V81.795C213.939 80.525 213.284 79.89 211.974 79.89C211.464 79.89 211.039 80 210.699 80.22C210.359 80.43 210.084 80.735 209.874 81.135L209.334 80.685C209.544 80.235 209.864 79.865 210.294 79.575C210.734 79.285 211.304 79.14 212.004 79.14C212.904 79.14 213.594 79.365 214.074 79.815C214.554 80.265 214.794 80.895 214.794 81.705V86.25H215.829V87H214.959ZM211.704 86.445C212.014 86.445 212.304 86.405 212.574 86.325C212.844 86.245 213.079 86.135 213.279 85.995C213.489 85.845 213.649 85.67 213.759 85.47C213.879 85.26 213.939 85.025 213.939 84.765V83.34H212.139C211.369 83.34 210.809 83.465 210.459 83.715C210.119 83.955 209.949 84.29 209.949 84.72V85.08C209.949 85.53 210.109 85.87 210.429 86.1C210.749 86.33 211.174 86.445 211.704 86.445ZM217.589 87V79.32H218.444V80.535H218.489C218.659 80.135 218.924 79.805 219.284 79.545C219.644 79.275 220.134 79.14 220.754 79.14C221.574 79.14 222.209 79.395 222.659 79.905C223.119 80.405 223.349 81.125 223.349 82.065V87H222.494V82.215C222.494 81.435 222.324 80.855 221.984 80.475C221.654 80.095 221.169 79.905 220.529 79.905C220.259 79.905 219.999 79.94 219.749 80.01C219.499 80.08 219.274 80.185 219.074 80.325C218.884 80.465 218.729 80.645 218.609 80.865C218.499 81.075 218.444 81.32 218.444 81.6V87H217.589ZM230.5 79.32H231.37L227.815 89.16C227.695 89.48 227.55 89.7 227.38 89.82C227.21 89.94 226.93 90 226.54 90H225.67V89.25H226.96L227.695 87.225L224.845 79.32H225.745L228.1 86.085H228.16L230.5 79.32Z" fill="#BDBDBD"/>
<rect x="17" y="123" width="432" height="99" fill="#2C96CF" fill-opacity="0.15"/>
<circle cx="73" cy="173" r="31" fill="#ADD9F2"/>
<circle cx="72.5" cy="166.583" r="9.58333" fill="#6FA5C2"/>
<path fill-rule="evenodd" clip-rule="evenodd" d="M54.5839 197.939C54.6613 188.11 62.653 180.167 72.5 180.167C82.3951 180.167 90.4167 188.188 90.4167 198.083C90.4167 198.274 90.4137 198.465 90.4077 198.655C85.4454 202.028 79.453 204 73 204C66.1036 204 59.7332 201.748 54.5839 197.939Z" fill="#6FA5C2"/>
<path d="M129.529 154.172H135.199C137.497 154.172 139.268 154.913 140.511 156.394C141.771 157.876 142.401 160.106 142.401 163.086C142.401 166.066 141.771 168.297 140.511 169.778C139.268 171.259 137.497 172 135.199 172H129.529V154.172ZM135.224 170.646C136.978 170.646 138.34 170.084 139.311 168.961C140.281 167.82 140.767 166.253 140.767 164.261V161.911C140.767 159.919 140.281 158.361 139.311 157.237C138.34 156.097 136.978 155.526 135.224 155.526H131.061V170.646H135.224ZM155.376 172C154.814 172 154.406 171.855 154.15 171.566C153.895 171.276 153.75 170.885 153.716 170.391V169.931H153.589C153.299 170.663 152.822 171.242 152.158 171.668C151.494 172.094 150.651 172.306 149.63 172.306C148.25 172.306 147.186 171.974 146.437 171.31C145.688 170.629 145.313 169.676 145.313 168.45C145.313 167.292 145.722 166.372 146.539 165.691C147.374 165.01 148.736 164.67 150.626 164.67H153.64V163.137C153.64 160.975 152.524 159.894 150.294 159.894C149.425 159.894 148.702 160.081 148.123 160.455C147.544 160.813 147.076 161.332 146.718 162.013L145.799 161.247C146.156 160.481 146.701 159.851 147.433 159.357C148.182 158.863 149.153 158.617 150.345 158.617C151.877 158.617 153.052 159 153.869 159.766C154.687 160.532 155.095 161.605 155.095 162.984V170.723H156.858V172H155.376ZM149.834 171.055C150.362 171.055 150.856 170.987 151.315 170.851C151.775 170.714 152.175 170.527 152.516 170.289C152.873 170.033 153.146 169.735 153.333 169.395C153.537 169.037 153.64 168.637 153.64 168.194V165.768H150.575C149.264 165.768 148.31 165.981 147.714 166.407C147.135 166.815 146.846 167.386 146.846 168.118V168.731C146.846 169.497 147.118 170.076 147.663 170.468C148.208 170.859 148.932 171.055 149.834 171.055ZM162.152 172C161.624 172 161.224 171.855 160.952 171.566C160.679 171.276 160.543 170.885 160.543 170.391V160.2H158.27V158.923H159.751C160.109 158.923 160.347 158.855 160.467 158.719C160.603 158.565 160.671 158.302 160.671 157.927V155.271H161.999V158.923H164.962V160.2H161.999V170.723H164.757V172H162.152ZM177.45 172C176.888 172 176.48 171.855 176.224 171.566C175.969 171.276 175.824 170.885 175.79 170.391V169.931H175.662C175.373 170.663 174.896 171.242 174.232 171.668C173.568 172.094 172.725 172.306 171.704 172.306C170.324 172.306 169.26 171.974 168.511 171.31C167.762 170.629 167.387 169.676 167.387 168.45C167.387 167.292 167.796 166.372 168.613 165.691C169.447 165.01 170.81 164.67 172.7 164.67H175.714V163.137C175.714 160.975 174.598 159.894 172.368 159.894C171.499 159.894 170.776 160.081 170.197 160.455C169.618 160.813 169.15 161.332 168.792 162.013L167.872 161.247C168.23 160.481 168.775 159.851 169.507 159.357C170.256 158.863 171.227 158.617 172.419 158.617C173.951 158.617 175.126 159 175.943 159.766C176.761 160.532 177.169 161.605 177.169 162.984V170.723H178.932V172H177.45ZM171.908 171.055C172.436 171.055 172.93 170.987 173.389 170.851C173.849 170.714 174.249 170.527 174.59 170.289C174.947 170.033 175.22 169.735 175.407 169.395C175.611 169.037 175.714 168.637 175.714 168.194V165.768H172.649C171.338 165.768 170.384 165.981 169.788 166.407C169.209 166.815 168.92 167.386 168.92 168.118V168.731C168.92 169.497 169.192 170.076 169.737 170.468C170.282 170.859 171.005 171.055 171.908 171.055ZM188.118 172V154.172H195.116C196.666 154.172 197.849 154.624 198.666 155.526C199.484 156.412 199.892 157.62 199.892 159.153C199.892 160.702 199.484 161.928 198.666 162.831C197.849 163.716 196.666 164.159 195.116 164.159H189.651V172H188.118ZM189.651 162.805H195.116C196.138 162.805 196.913 162.524 197.44 161.962C197.985 161.383 198.258 160.651 198.258 159.766V158.54C198.258 157.672 197.985 156.956 197.44 156.394C196.913 155.816 196.138 155.526 195.116 155.526H189.651V162.805ZM203.055 172V158.923H204.511V161.273H204.613C204.868 160.66 205.303 160.115 205.915 159.638C206.528 159.161 207.397 158.923 208.521 158.923H209.389V160.353H208.24C207.15 160.353 206.256 160.592 205.558 161.068C204.86 161.545 204.511 162.209 204.511 163.061V172H203.055ZM212.899 155.373C212.558 155.373 212.303 155.288 212.133 155.117C211.979 154.947 211.903 154.726 211.903 154.453V154.198C211.903 153.926 211.979 153.704 212.133 153.534C212.303 153.364 212.558 153.278 212.899 153.278C213.239 153.278 213.486 153.364 213.64 153.534C213.81 153.704 213.895 153.926 213.895 154.198V154.453C213.895 154.726 213.81 154.947 213.64 155.117C213.486 155.288 213.239 155.373 212.899 155.373ZM212.184 158.923H213.64V172H212.184V158.923ZM216.555 158.923H218.088L222.098 170.442H222.2L226.184 158.923H227.666L222.941 172H221.281L216.555 158.923ZM239.307 172C238.745 172 238.337 171.855 238.081 171.566C237.826 171.276 237.681 170.885 237.647 170.391V169.931H237.519C237.23 170.663 236.753 171.242 236.089 171.668C235.425 172.094 234.582 172.306 233.561 172.306C232.181 172.306 231.117 171.974 230.368 171.31C229.619 170.629 229.244 169.676 229.244 168.45C229.244 167.292 229.653 166.372 230.47 165.691C231.304 165.01 232.667 164.67 234.557 164.67H237.57V163.137C237.57 160.975 236.455 159.894 234.225 159.894C233.356 159.894 232.633 160.081 232.054 160.455C231.475 160.813 231.006 161.332 230.649 162.013L229.729 161.247C230.087 160.481 230.632 159.851 231.364 159.357C232.113 158.863 233.084 158.617 234.276 158.617C235.808 158.617 236.983 159 237.8 159.766C238.618 160.532 239.026 161.605 239.026 162.984V170.723H240.789V172H239.307ZM233.765 171.055C234.293 171.055 234.787 170.987 235.246 170.851C235.706 170.714 236.106 170.527 236.447 170.289C236.804 170.033 237.077 169.735 237.264 169.395C237.468 169.037 237.57 168.637 237.57 168.194V165.768H234.506C233.194 165.768 232.241 165.981 231.645 166.407C231.066 166.815 230.777 167.386 230.777 168.118V168.731C230.777 169.497 231.049 170.076 231.594 170.468C232.139 170.859 232.862 171.055 233.765 171.055ZM248.383 172.306C246.578 172.306 245.182 171.711 244.194 170.519C243.224 169.327 242.739 167.641 242.739 165.462C242.739 163.282 243.224 161.596 244.194 160.404C245.182 159.213 246.578 158.617 248.383 158.617C249.592 158.617 250.571 158.88 251.32 159.408C252.069 159.936 252.64 160.634 253.032 161.503L251.806 162.116C251.499 161.401 251.065 160.856 250.503 160.481C249.958 160.106 249.251 159.919 248.383 159.919C247.055 159.919 246.042 160.345 245.344 161.196C244.646 162.048 244.297 163.163 244.297 164.542V166.381C244.297 167.76 244.646 168.875 245.344 169.727C246.042 170.578 247.055 171.004 248.383 171.004C249.286 171.004 250.043 170.808 250.656 170.416C251.269 170.025 251.763 169.463 252.138 168.731L253.21 169.446C252.785 170.314 252.172 171.012 251.371 171.54C250.588 172.051 249.592 172.306 248.383 172.306ZM264.272 158.923H265.753L259.7 175.678C259.496 176.223 259.249 176.597 258.959 176.802C258.67 177.006 258.193 177.108 257.529 177.108H256.048V175.831H258.244L259.496 172.383L254.643 158.923H256.175L260.185 170.442H260.288L264.272 158.923ZM281.253 172.306C278.971 172.306 277.183 171.532 275.889 169.982C274.595 168.416 273.948 166.117 273.948 163.086C273.948 160.055 274.595 157.765 275.889 156.216C277.183 154.649 278.971 153.866 281.253 153.866C283.517 153.866 285.297 154.649 286.591 156.216C287.885 157.782 288.532 160.072 288.532 163.086C288.532 166.1 287.885 168.39 286.591 169.957C285.297 171.523 283.517 172.306 281.253 172.306ZM281.253 170.927C282.104 170.927 282.87 170.783 283.551 170.493C284.249 170.187 284.845 169.744 285.339 169.165C285.833 168.586 286.216 167.879 286.489 167.045C286.761 166.211 286.897 165.266 286.897 164.21V161.962C286.897 160.907 286.761 159.962 286.489 159.127C286.216 158.293 285.833 157.595 285.339 157.033C284.845 156.454 284.249 156.011 283.551 155.705C282.87 155.398 282.104 155.245 281.253 155.245C280.401 155.245 279.627 155.398 278.928 155.705C278.23 156.011 277.634 156.454 277.141 157.033C276.647 157.595 276.264 158.293 275.991 159.127C275.719 159.962 275.583 160.907 275.583 161.962V164.21C275.583 165.266 275.719 166.211 275.991 167.045C276.264 167.879 276.647 168.586 277.141 169.165C277.634 169.744 278.23 170.187 278.928 170.493C279.627 170.783 280.401 170.927 281.253 170.927ZM293.136 160.2H290.888V158.923H293.136V155.271C293.136 154.607 293.298 154.079 293.621 153.687C293.962 153.296 294.481 153.1 295.179 153.1H297.478V154.377H294.592V158.923H297.478V160.2H294.592V172H293.136V160.2ZM301.018 160.2H298.77V158.923H301.018V155.271C301.018 154.607 301.179 154.079 301.503 153.687C301.844 153.296 302.363 153.1 303.061 153.1H305.36V154.377H302.474V158.923H309.574V172H308.118V160.2H302.474V172H301.018V160.2ZM308.859 155.373C308.501 155.373 308.246 155.288 308.093 155.117C307.939 154.947 307.863 154.726 307.863 154.453V154.198C307.863 153.926 307.939 153.704 308.093 153.534C308.246 153.364 308.501 153.278 308.859 153.278C309.199 153.278 309.446 153.364 309.599 153.534C309.77 153.704 309.855 153.926 309.855 154.198V154.453C309.855 154.726 309.77 154.947 309.599 155.117C309.446 155.288 309.199 155.373 308.859 155.373ZM318.945 172.306C317.14 172.306 315.744 171.711 314.756 170.519C313.786 169.327 313.3 167.641 313.3 165.462C313.3 163.282 313.786 161.596 314.756 160.404C315.744 159.213 317.14 158.617 318.945 158.617C320.154 158.617 321.133 158.88 321.882 159.408C322.631 159.936 323.202 160.634 323.593 161.503L322.367 162.116C322.061 161.401 321.627 160.856 321.065 160.481C320.52 160.106 319.813 159.919 318.945 159.919C317.617 159.919 316.604 160.345 315.906 161.196C315.207 162.048 314.858 163.163 314.858 164.542V166.381C314.858 167.76 315.207 168.875 315.906 169.727C316.604 170.578 317.617 171.004 318.945 171.004C319.847 171.004 320.605 170.808 321.218 170.416C321.831 170.025 322.325 169.463 322.699 168.731L323.772 169.446C323.346 170.314 322.733 171.012 321.933 171.54C321.15 172.051 320.154 172.306 318.945 172.306ZM331.493 172.306C330.624 172.306 329.832 172.153 329.117 171.847C328.419 171.54 327.815 171.098 327.304 170.519C326.81 169.923 326.427 169.199 326.155 168.348C325.899 167.496 325.771 166.534 325.771 165.462C325.771 164.389 325.899 163.435 326.155 162.601C326.427 161.75 326.81 161.034 327.304 160.455C327.815 159.86 328.419 159.408 329.117 159.102C329.815 158.778 330.599 158.617 331.467 158.617C332.301 158.617 333.059 158.778 333.74 159.102C334.421 159.408 335 159.843 335.477 160.404C335.954 160.966 336.32 161.647 336.575 162.448C336.848 163.231 336.984 164.099 336.984 165.053V165.742H327.304V166.381C327.304 167.062 327.398 167.692 327.585 168.271C327.789 168.833 328.07 169.318 328.428 169.727C328.802 170.136 329.254 170.459 329.781 170.697C330.309 170.919 330.905 171.029 331.569 171.029C333.476 171.029 334.796 170.153 335.528 168.399L336.601 169.114C336.192 170.084 335.545 170.859 334.66 171.438C333.791 172.017 332.736 172.306 331.493 172.306ZM331.467 159.843C330.837 159.843 330.267 159.962 329.756 160.2C329.245 160.421 328.802 160.736 328.428 161.145C328.07 161.554 327.789 162.048 327.585 162.626C327.398 163.188 327.304 163.81 327.304 164.491V164.619H335.4V164.414C335.4 163.733 335.307 163.112 335.119 162.55C334.932 161.971 334.66 161.486 334.302 161.094C333.962 160.702 333.544 160.396 333.051 160.175C332.574 159.953 332.046 159.843 331.467 159.843ZM340.687 172V158.923H342.142V161.273H342.245C342.5 160.66 342.934 160.115 343.547 159.638C344.16 159.161 345.029 158.923 346.152 158.923H347.021V160.353H345.871C344.782 160.353 343.888 160.592 343.19 161.068C342.491 161.545 342.142 162.209 342.142 163.061V172H340.687Z" fill="#EFEFEF"/>
<rect x="17" y="232" width="432" height="99" fill="#6CBF49" fill-opacity="0.15"/>
<circle cx="73" cy="281" r="31" fill="#B1DA9F"/>
<circle cx="72.5" cy="274.583" r="9.58333" fill="#6CBF49"/>
<path fill-rule="evenodd" clip-rule="evenodd" d="M54.5839 305.939C54.6613 296.11 62.653 288.167 72.5 288.167C82.3951 288.167 90.4167 296.188 90.4167 306.083C90.4167 306.274 90.4137 306.465 90.4077 306.655C85.4454 310.028 79.453 312 73 312C66.1036 312 59.7332 309.748 54.5839 305.939Z" fill="#6CBF49"/>
<path d="M134.254 279.306C132.789 279.306 131.563 279.034 130.576 278.489C129.605 277.927 128.771 277.187 128.073 276.267L129.222 275.322C129.852 276.156 130.559 276.803 131.342 277.263C132.142 277.723 133.13 277.953 134.305 277.953C135.684 277.953 136.74 277.629 137.472 276.982C138.221 276.318 138.596 275.399 138.596 274.224C138.596 273.134 138.281 272.334 137.651 271.823C137.021 271.312 136.135 270.938 134.994 270.699L133.411 270.367C131.708 270.027 130.474 269.456 129.707 268.656C128.941 267.856 128.558 266.834 128.558 265.591C128.558 264.808 128.694 264.127 128.967 263.548C129.239 262.952 129.622 262.458 130.116 262.066C130.627 261.675 131.231 261.377 131.929 261.172C132.645 260.968 133.428 260.866 134.279 260.866C135.607 260.866 136.731 261.104 137.651 261.581C138.57 262.058 139.328 262.73 139.924 263.599L138.774 264.442C138.281 263.727 137.659 263.182 136.91 262.807C136.178 262.415 135.275 262.22 134.203 262.22C132.925 262.22 131.912 262.501 131.163 263.062C130.431 263.607 130.065 264.433 130.065 265.54C130.065 266.596 130.397 267.37 131.061 267.864C131.725 268.358 132.61 268.716 133.717 268.937L135.301 269.269C137.072 269.661 138.315 270.265 139.03 271.082C139.745 271.9 140.102 272.921 140.102 274.147C140.102 275.782 139.583 277.05 138.545 277.953C137.506 278.855 136.076 279.306 134.254 279.306ZM148.54 279.306C147.672 279.306 146.889 279.153 146.19 278.847C145.492 278.54 144.896 278.098 144.403 277.519C143.909 276.923 143.526 276.199 143.253 275.348C142.981 274.496 142.845 273.534 142.845 272.462C142.845 271.389 142.981 270.435 143.253 269.601C143.526 268.75 143.909 268.034 144.403 267.455C144.896 266.86 145.492 266.408 146.19 266.102C146.889 265.778 147.672 265.617 148.54 265.617C149.409 265.617 150.192 265.778 150.89 266.102C151.588 266.408 152.184 266.86 152.678 267.455C153.172 268.034 153.555 268.75 153.827 269.601C154.1 270.435 154.236 271.389 154.236 272.462C154.236 273.534 154.1 274.496 153.827 275.348C153.555 276.199 153.172 276.923 152.678 277.519C152.184 278.098 151.588 278.54 150.89 278.847C150.192 279.153 149.409 279.306 148.54 279.306ZM148.54 278.004C149.817 278.004 150.822 277.604 151.554 276.803C152.303 276.003 152.678 274.828 152.678 273.279V271.644C152.678 270.112 152.303 268.945 151.554 268.145C150.822 267.328 149.817 266.919 148.54 266.919C147.263 266.919 146.25 267.319 145.501 268.12C144.769 268.92 144.403 270.095 144.403 271.644V273.279C144.403 274.811 144.769 275.986 145.501 276.803C146.25 277.604 147.263 278.004 148.54 278.004ZM159.543 279C159.015 279 158.615 278.855 158.343 278.566C158.07 278.276 157.934 277.893 157.934 277.416V260.1H159.39V277.723H161.408V279H159.543ZM172.842 276.931H172.74C172.62 277.238 172.459 277.536 172.254 277.825C172.05 278.115 171.795 278.37 171.488 278.591C171.182 278.796 170.816 278.966 170.39 279.102C169.981 279.238 169.496 279.306 168.934 279.306C167.538 279.306 166.448 278.881 165.665 278.029C164.882 277.161 164.49 275.927 164.49 274.326V265.923H165.946V274.045C165.946 275.39 166.235 276.386 166.814 277.033C167.393 277.68 168.227 278.004 169.317 278.004C169.777 278.004 170.211 277.944 170.62 277.825C171.045 277.706 171.42 277.527 171.744 277.289C172.084 277.05 172.348 276.752 172.535 276.395C172.74 276.02 172.842 275.586 172.842 275.092V265.923H174.298V279H172.842V276.931ZM181.308 279C180.78 279 180.38 278.855 180.108 278.566C179.835 278.276 179.699 277.885 179.699 277.391V267.2H177.426V265.923H178.907C179.265 265.923 179.503 265.855 179.622 265.719C179.759 265.565 179.827 265.302 179.827 264.927V262.271H181.155V265.923H184.117V267.2H181.155V277.723H183.913V279H181.308ZM188.331 262.373C187.99 262.373 187.735 262.288 187.565 262.117C187.411 261.947 187.335 261.726 187.335 261.453V261.198C187.335 260.926 187.411 260.704 187.565 260.534C187.735 260.364 187.99 260.278 188.331 260.278C188.671 260.278 188.918 260.364 189.071 260.534C189.242 260.704 189.327 260.926 189.327 261.198V261.453C189.327 261.726 189.242 261.947 189.071 262.117C188.918 262.288 188.671 262.373 188.331 262.373ZM187.616 265.923H189.071V279H187.616V265.923ZM198.475 279.306C197.606 279.306 196.823 279.153 196.125 278.847C195.427 278.54 194.831 278.098 194.337 277.519C193.843 276.923 193.46 276.199 193.188 275.348C192.915 274.496 192.779 273.534 192.779 272.462C192.779 271.389 192.915 270.435 193.188 269.601C193.46 268.75 193.843 268.034 194.337 267.455C194.831 266.86 195.427 266.408 196.125 266.102C196.823 265.778 197.606 265.617 198.475 265.617C199.343 265.617 200.126 265.778 200.824 266.102C201.523 266.408 202.119 266.86 202.612 267.455C203.106 268.034 203.489 268.75 203.762 269.601C204.034 270.435 204.17 271.389 204.17 272.462C204.17 273.534 204.034 274.496 203.762 275.348C203.489 276.199 203.106 276.923 202.612 277.519C202.119 278.098 201.523 278.54 200.824 278.847C200.126 279.153 199.343 279.306 198.475 279.306ZM198.475 278.004C199.752 278.004 200.756 277.604 201.489 276.803C202.238 276.003 202.612 274.828 202.612 273.279V271.644C202.612 270.112 202.238 268.945 201.489 268.145C200.756 267.328 199.752 266.919 198.475 266.919C197.198 266.919 196.185 267.319 195.435 268.12C194.703 268.92 194.337 270.095 194.337 271.644V273.279C194.337 274.811 194.703 275.986 195.435 276.803C196.185 277.604 197.198 278.004 198.475 278.004ZM207.869 279V265.923H209.325V267.992H209.401C209.691 267.311 210.142 266.749 210.755 266.306C211.368 265.846 212.202 265.617 213.258 265.617C214.654 265.617 215.735 266.051 216.502 266.919C217.285 267.771 217.676 268.996 217.676 270.597V279H216.221V270.852C216.221 269.524 215.931 268.537 215.352 267.89C214.79 267.243 213.965 266.919 212.875 266.919C212.415 266.919 211.972 266.979 211.547 267.098C211.121 267.217 210.738 267.396 210.397 267.634C210.074 267.873 209.81 268.179 209.606 268.554C209.418 268.911 209.325 269.329 209.325 269.805V279H207.869ZM225.964 279.306C224.823 279.306 223.844 279.094 223.027 278.668C222.226 278.242 221.528 277.621 220.932 276.803L222.005 275.961C222.55 276.676 223.146 277.204 223.793 277.544C224.44 277.885 225.198 278.055 226.066 278.055C227.071 278.055 227.845 277.842 228.39 277.416C228.935 276.991 229.208 276.378 229.208 275.578C229.208 274.879 228.995 274.335 228.569 273.943C228.16 273.534 227.479 273.262 226.526 273.126L225.453 272.947C224.857 272.862 224.312 272.734 223.818 272.564C223.325 272.393 222.899 272.164 222.541 271.874C222.201 271.585 221.928 271.236 221.724 270.827C221.537 270.401 221.443 269.89 221.443 269.294C221.443 268.681 221.554 268.145 221.775 267.685C222.014 267.226 222.329 266.843 222.72 266.536C223.112 266.23 223.58 266 224.125 265.846C224.67 265.693 225.257 265.617 225.887 265.617C226.977 265.617 227.871 265.804 228.569 266.178C229.267 266.553 229.863 267.038 230.357 267.634L229.386 268.528C229.046 268.12 228.586 267.745 228.007 267.404C227.445 267.047 226.713 266.868 225.811 266.868C224.874 266.868 224.142 267.072 223.614 267.481C223.103 267.89 222.848 268.469 222.848 269.218C222.848 269.984 223.078 270.537 223.538 270.878C224.014 271.219 224.721 271.465 225.657 271.619L226.705 271.772C228.033 271.976 229.012 272.376 229.642 272.972C230.289 273.551 230.612 274.369 230.612 275.424C230.612 276.65 230.195 277.604 229.361 278.285C228.544 278.966 227.411 279.306 225.964 279.306ZM240.622 279V261.172H251.042V262.526H242.154V269.269H250.608V270.623H242.154V277.646H251.042V279H240.622ZM255.134 279V265.923H256.59V267.992H256.667C256.956 267.311 257.408 266.749 258.021 266.306C258.634 265.846 259.468 265.617 260.524 265.617C261.92 265.617 263.001 266.051 263.767 266.919C264.551 267.771 264.942 268.996 264.942 270.597V279H263.486V270.852C263.486 269.524 263.197 268.537 262.618 267.89C262.056 267.243 261.23 266.919 260.14 266.919C259.681 266.919 259.238 266.979 258.812 267.098C258.387 267.217 258.004 267.396 257.663 267.634C257.339 267.873 257.076 268.179 256.871 268.554C256.684 268.911 256.59 269.329 256.59 269.805V279H255.134ZM280.253 280.532C280.253 281.861 279.717 282.84 278.644 283.47C277.589 284.1 276.031 284.415 273.97 284.415C271.978 284.415 270.539 284.125 269.654 283.546C268.768 282.967 268.326 282.167 268.326 281.145C268.326 280.396 268.522 279.8 268.913 279.358C269.305 278.915 269.858 278.591 270.573 278.387V278.183C269.756 277.859 269.347 277.263 269.347 276.395C269.347 275.748 269.56 275.254 269.986 274.913C270.412 274.573 270.939 274.317 271.569 274.147V274.045C270.803 273.705 270.207 273.194 269.782 272.513C269.356 271.832 269.143 271.014 269.143 270.061C269.143 269.397 269.254 268.792 269.475 268.247C269.696 267.702 270.011 267.234 270.42 266.843C270.846 266.451 271.348 266.153 271.927 265.949C272.523 265.727 273.179 265.617 273.894 265.617C274.898 265.617 275.775 265.829 276.524 266.255V265.617C276.524 265.225 276.618 264.91 276.805 264.672C276.993 264.416 277.299 264.288 277.725 264.288H279.972V265.565H277.316V266.817C277.759 267.209 278.099 267.685 278.338 268.247C278.576 268.792 278.695 269.397 278.695 270.061C278.695 270.725 278.576 271.329 278.338 271.874C278.116 272.419 277.793 272.896 277.367 273.304C276.959 273.696 276.456 274.002 275.86 274.224C275.281 274.428 274.634 274.53 273.919 274.53C273.681 274.53 273.451 274.513 273.23 274.479C273.008 274.445 272.787 274.411 272.566 274.377C272.004 274.53 271.535 274.743 271.161 275.016C270.803 275.271 270.624 275.62 270.624 276.063C270.624 276.846 271.323 277.238 272.719 277.238H275.758C277.342 277.238 278.483 277.536 279.181 278.132C279.896 278.711 280.253 279.511 280.253 280.532ZM278.849 280.635C278.849 280.005 278.619 279.502 278.159 279.128C277.716 278.77 276.916 278.591 275.758 278.591H271.518C270.956 278.779 270.514 279.06 270.19 279.434C269.867 279.809 269.705 280.277 269.705 280.839C269.705 281.52 269.986 282.082 270.548 282.525C271.11 282.984 271.961 283.214 273.102 283.214H274.737C276.014 283.214 277.018 283.001 277.75 282.576C278.483 282.167 278.849 281.52 278.849 280.635ZM273.919 273.355C274.924 273.355 275.707 273.109 276.269 272.615C276.848 272.104 277.137 271.389 277.137 270.469V269.652C277.137 268.75 276.848 268.051 276.269 267.558C275.707 267.047 274.924 266.791 273.919 266.791C272.898 266.791 272.106 267.047 271.544 267.558C270.982 268.051 270.701 268.75 270.701 269.652V270.469C270.701 271.389 270.982 272.104 271.544 272.615C272.123 273.109 272.915 273.355 273.919 273.355ZM283.76 262.373C283.42 262.373 283.164 262.288 282.994 262.117C282.841 261.947 282.764 261.726 282.764 261.453V261.198C282.764 260.926 282.841 260.704 282.994 260.534C283.164 260.364 283.42 260.278 283.76 260.278C284.101 260.278 284.347 260.364 284.501 260.534C284.671 260.704 284.756 260.926 284.756 261.198V261.453C284.756 261.726 284.671 261.947 284.501 262.117C284.347 262.288 284.101 262.373 283.76 262.373ZM283.045 265.923H284.501V279H283.045V265.923ZM289.256 279V265.923H290.711V267.992H290.788C291.077 267.311 291.529 266.749 292.142 266.306C292.755 265.846 293.589 265.617 294.645 265.617C296.041 265.617 297.122 266.051 297.888 266.919C298.672 267.771 299.063 268.996 299.063 270.597V279H297.607V270.852C297.607 269.524 297.318 268.537 296.739 267.89C296.177 267.243 295.351 266.919 294.262 266.919C293.802 266.919 293.359 266.979 292.933 267.098C292.508 267.217 292.125 267.396 291.784 267.634C291.461 267.873 291.197 268.179 290.992 268.554C290.805 268.911 290.711 269.329 290.711 269.805V279H289.256ZM308.321 279.306C307.453 279.306 306.661 279.153 305.946 278.847C305.248 278.54 304.643 278.098 304.133 277.519C303.639 276.923 303.256 276.199 302.983 275.348C302.728 274.496 302.6 273.534 302.6 272.462C302.6 271.389 302.728 270.435 302.983 269.601C303.256 268.75 303.639 268.034 304.133 267.455C304.643 266.86 305.248 266.408 305.946 266.102C306.644 265.778 307.427 265.617 308.296 265.617C309.13 265.617 309.888 265.778 310.569 266.102C311.25 266.408 311.829 266.843 312.306 267.404C312.782 267.966 313.148 268.647 313.404 269.448C313.676 270.231 313.813 271.099 313.813 272.053V272.742H304.133V273.381C304.133 274.062 304.226 274.692 304.413 275.271C304.618 275.833 304.899 276.318 305.256 276.727C305.631 277.136 306.082 277.459 306.61 277.697C307.138 277.919 307.734 278.029 308.398 278.029C310.305 278.029 311.625 277.153 312.357 275.399L313.429 276.114C313.021 277.084 312.374 277.859 311.488 278.438C310.62 279.017 309.564 279.306 308.321 279.306ZM308.296 266.843C307.666 266.843 307.095 266.962 306.584 267.2C306.074 267.421 305.631 267.736 305.256 268.145C304.899 268.554 304.618 269.048 304.413 269.626C304.226 270.188 304.133 270.81 304.133 271.491V271.619H312.229V271.414C312.229 270.733 312.135 270.112 311.948 269.55C311.761 268.971 311.488 268.486 311.131 268.094C310.79 267.702 310.373 267.396 309.879 267.175C309.402 266.953 308.875 266.843 308.296 266.843ZM322.189 279.306C321.321 279.306 320.529 279.153 319.814 278.847C319.116 278.54 318.511 278.098 318 277.519C317.507 276.923 317.124 276.199 316.851 275.348C316.596 274.496 316.468 273.534 316.468 272.462C316.468 271.389 316.596 270.435 316.851 269.601C317.124 268.75 317.507 268.034 318 267.455C318.511 266.86 319.116 266.408 319.814 266.102C320.512 265.778 321.295 265.617 322.164 265.617C322.998 265.617 323.756 265.778 324.437 266.102C325.118 266.408 325.697 266.843 326.174 267.404C326.65 267.966 327.016 268.647 327.272 269.448C327.544 270.231 327.68 271.099 327.68 272.053V272.742H318V273.381C318 274.062 318.094 274.692 318.281 275.271C318.486 275.833 318.767 276.318 319.124 276.727C319.499 277.136 319.95 277.459 320.478 277.697C321.006 277.919 321.602 278.029 322.266 278.029C324.173 278.029 325.492 277.153 326.225 275.399L327.297 276.114C326.889 277.084 326.242 277.859 325.356 278.438C324.488 279.017 323.432 279.306 322.189 279.306ZM322.164 266.843C321.534 266.843 320.963 266.962 320.452 267.2C319.942 267.421 319.499 267.736 319.124 268.145C318.767 268.554 318.486 269.048 318.281 269.626C318.094 270.188 318 270.81 318 271.491V271.619H326.097V271.414C326.097 270.733 326.003 270.112 325.816 269.55C325.629 268.971 325.356 268.486 324.999 268.094C324.658 267.702 324.241 267.396 323.747 267.175C323.27 266.953 322.743 266.843 322.164 266.843ZM331.383 279V265.923H332.839V268.273H332.941C333.197 267.66 333.631 267.115 334.244 266.638C334.857 266.161 335.725 265.923 336.849 265.923H337.717V267.353H336.568C335.478 267.353 334.584 267.592 333.886 268.068C333.188 268.545 332.839 269.209 332.839 270.061V279H331.383Z" fill="#EFEFEF"/>
<path d="M132.025 195.18C130.725 195.18 129.72 194.73 129.01 193.83C128.3 192.92 127.945 191.575 127.945 189.795C127.945 188.025 128.3 186.675 129.01 185.745C129.72 184.815 130.725 184.35 132.025 184.35C132.865 184.35 133.57 184.55 134.14 184.95C134.72 185.35 135.17 185.895 135.49 186.585L134.755 187.02C134.525 186.45 134.175 186 133.705 185.67C133.245 185.33 132.685 185.16 132.025 185.16C131.045 185.16 130.28 185.51 129.73 186.21C129.18 186.91 128.905 187.91 128.905 189.21V190.395C128.905 191.685 129.18 192.67 129.73 193.35C130.28 194.03 131.045 194.37 132.025 194.37C132.725 194.37 133.31 194.195 133.78 193.845C134.25 193.485 134.6 193.005 134.83 192.405L135.565 192.84C135.255 193.56 134.8 194.13 134.2 194.55C133.6 194.97 132.875 195.18 132.025 195.18ZM138.598 195C138.288 195 138.053 194.915 137.893 194.745C137.733 194.575 137.653 194.35 137.653 194.07V183.9H138.508V194.25H139.693V195H138.598ZM142.028 185.235C141.828 185.235 141.678 185.185 141.578 185.085C141.488 184.985 141.443 184.855 141.443 184.695V184.545C141.443 184.385 141.488 184.255 141.578 184.155C141.678 184.055 141.828 184.005 142.028 184.005C142.228 184.005 142.373 184.055 142.463 184.155C142.563 184.255 142.613 184.385 142.613 184.545V184.695C142.613 184.855 142.563 184.985 142.463 185.085C142.373 185.185 142.228 185.235 142.028 185.235ZM141.608 187.32H142.463V195H141.608V187.32ZM148 195.18C147.49 195.18 147.025 195.09 146.605 194.91C146.195 194.73 145.84 194.47 145.54 194.13C145.25 193.78 145.025 193.355 144.865 192.855C144.715 192.355 144.64 191.79 144.64 191.16C144.64 190.53 144.715 189.97 144.865 189.48C145.025 188.98 145.25 188.56 145.54 188.22C145.84 187.87 146.195 187.605 146.605 187.425C147.015 187.235 147.475 187.14 147.985 187.14C148.475 187.14 148.92 187.235 149.32 187.425C149.72 187.605 150.06 187.86 150.34 188.19C150.62 188.52 150.835 188.92 150.985 189.39C151.145 189.85 151.225 190.36 151.225 190.92V191.325H145.54V191.7C145.54 192.1 145.595 192.47 145.705 192.81C145.825 193.14 145.99 193.425 146.2 193.665C146.42 193.905 146.685 194.095 146.995 194.235C147.305 194.365 147.655 194.43 148.045 194.43C149.165 194.43 149.94 193.915 150.37 192.885L151 193.305C150.76 193.875 150.38 194.33 149.86 194.67C149.35 195.01 148.73 195.18 148 195.18ZM147.985 187.86C147.615 187.86 147.28 187.93 146.98 188.07C146.68 188.2 146.42 188.385 146.2 188.625C145.99 188.865 145.825 189.155 145.705 189.495C145.595 189.825 145.54 190.19 145.54 190.59V190.665H150.295V190.545C150.295 190.145 150.24 189.78 150.13 189.45C150.02 189.11 149.86 188.825 149.65 188.595C149.45 188.365 149.205 188.185 148.915 188.055C148.635 187.925 148.325 187.86 147.985 187.86ZM153.4 195V187.32H154.255V188.535H154.3C154.47 188.135 154.735 187.805 155.095 187.545C155.455 187.275 155.945 187.14 156.565 187.14C157.385 187.14 158.02 187.395 158.47 187.905C158.93 188.405 159.16 189.125 159.16 190.065V195H158.305V190.215C158.305 189.435 158.135 188.855 157.795 188.475C157.465 188.095 156.98 187.905 156.34 187.905C156.07 187.905 155.81 187.94 155.56 188.01C155.31 188.08 155.085 188.185 154.885 188.325C154.695 188.465 154.54 188.645 154.42 188.865C154.31 189.075 154.255 189.32 154.255 189.6V195H153.4ZM163.172 195C162.862 195 162.627 194.915 162.467 194.745C162.307 194.575 162.227 194.345 162.227 194.055V188.07H160.892V187.32H161.762C161.972 187.32 162.112 187.28 162.182 187.2C162.262 187.11 162.302 186.955 162.302 186.735V185.175H163.082V187.32H164.822V188.07H163.082V194.25H164.702V195H163.172ZM174.051 195.18C172.751 195.18 171.746 194.73 171.036 193.83C170.326 192.92 169.971 191.575 169.971 189.795C169.971 188.025 170.326 186.675 171.036 185.745C171.746 184.815 172.751 184.35 174.051 184.35C174.891 184.35 175.596 184.55 176.166 184.95C176.746 185.35 177.196 185.895 177.516 186.585L176.781 187.02C176.551 186.45 176.201 186 175.731 185.67C175.271 185.33 174.711 185.16 174.051 185.16C173.071 185.16 172.306 185.51 171.756 186.21C171.206 186.91 170.931 187.91 170.931 189.21V190.395C170.931 191.685 171.206 192.67 171.756 193.35C172.306 194.03 173.071 194.37 174.051 194.37C174.751 194.37 175.336 194.195 175.806 193.845C176.276 193.485 176.626 193.005 176.856 192.405L177.591 192.84C177.281 193.56 176.826 194.13 176.226 194.55C175.626 194.97 174.901 195.18 174.051 195.18ZM182.409 195.18C181.899 195.18 181.439 195.09 181.029 194.91C180.619 194.73 180.269 194.47 179.979 194.13C179.689 193.78 179.464 193.355 179.304 192.855C179.144 192.355 179.064 191.79 179.064 191.16C179.064 190.53 179.144 189.97 179.304 189.48C179.464 188.98 179.689 188.56 179.979 188.22C180.269 187.87 180.619 187.605 181.029 187.425C181.439 187.235 181.899 187.14 182.409 187.14C182.919 187.14 183.379 187.235 183.789 187.425C184.199 187.605 184.549 187.87 184.839 188.22C185.129 188.56 185.354 188.98 185.514 189.48C185.674 189.97 185.754 190.53 185.754 191.16C185.754 191.79 185.674 192.355 185.514 192.855C185.354 193.355 185.129 193.78 184.839 194.13C184.549 194.47 184.199 194.73 183.789 194.91C183.379 195.09 182.919 195.18 182.409 195.18ZM182.409 194.415C183.159 194.415 183.749 194.18 184.179 193.71C184.619 193.24 184.839 192.55 184.839 191.64V190.68C184.839 189.78 184.619 189.095 184.179 188.625C183.749 188.145 183.159 187.905 182.409 187.905C181.659 187.905 181.064 188.14 180.624 188.61C180.194 189.08 179.979 189.77 179.979 190.68V191.64C179.979 192.54 180.194 193.23 180.624 193.71C181.064 194.18 181.659 194.415 182.409 194.415ZM187.926 195V187.32H188.781V188.535H188.826C188.906 188.345 189.006 188.17 189.126 188.01C189.246 187.84 189.391 187.69 189.561 187.56C189.731 187.43 189.931 187.33 190.161 187.26C190.401 187.18 190.681 187.14 191.001 187.14C191.551 187.14 192.036 187.27 192.456 187.53C192.876 187.79 193.181 188.2 193.371 188.76H193.416C193.556 188.31 193.821 187.93 194.211 187.62C194.611 187.3 195.151 187.14 195.831 187.14C196.651 187.14 197.281 187.395 197.721 187.905C198.161 188.405 198.381 189.125 198.381 190.065V195H197.526V190.215C197.526 188.675 196.881 187.905 195.591 187.905C195.321 187.905 195.066 187.94 194.826 188.01C194.586 188.08 194.371 188.19 194.181 188.34C194.001 188.48 193.856 188.66 193.746 188.88C193.636 189.09 193.581 189.335 193.581 189.615V195H192.726V190.215C192.726 188.675 192.086 187.905 190.806 187.905C190.546 187.905 190.291 187.94 190.041 188.01C189.801 188.08 189.586 188.185 189.396 188.325C189.206 188.465 189.056 188.645 188.946 188.865C188.836 189.075 188.781 189.32 188.781 189.6V195H187.926ZM201.066 187.32H201.921V188.55H201.966C202.156 188.12 202.446 187.78 202.836 187.53C203.226 187.27 203.716 187.14 204.306 187.14C205.296 187.14 206.071 187.49 206.631 188.19C207.191 188.89 207.471 189.88 207.471 191.16C207.471 192.44 207.191 193.43 206.631 194.13C206.071 194.83 205.296 195.18 204.306 195.18C203.716 195.18 203.231 195.055 202.851 194.805C202.471 194.545 202.176 194.2 201.966 193.77H201.921V198H201.066V187.32ZM204.111 194.415C204.881 194.415 205.481 194.17 205.911 193.68C206.341 193.19 206.556 192.53 206.556 191.7V190.62C206.556 189.79 206.341 189.13 205.911 188.64C205.481 188.15 204.881 187.905 204.111 187.905C203.811 187.905 203.526 187.95 203.256 188.04C202.996 188.12 202.766 188.235 202.566 188.385C202.366 188.535 202.206 188.715 202.086 188.925C201.976 189.135 201.921 189.365 201.921 189.615V192.66C201.921 192.93 201.976 193.175 202.086 193.395C202.206 193.605 202.366 193.79 202.566 193.95C202.766 194.1 202.996 194.215 203.256 194.295C203.526 194.375 203.811 194.415 204.111 194.415ZM214.959 195C214.629 195 214.389 194.915 214.239 194.745C214.089 194.575 214.004 194.345 213.984 194.055V193.785H213.909C213.739 194.215 213.459 194.555 213.069 194.805C212.679 195.055 212.184 195.18 211.584 195.18C210.774 195.18 210.149 194.985 209.709 194.595C209.269 194.195 209.049 193.635 209.049 192.915C209.049 192.235 209.289 191.695 209.769 191.295C210.259 190.895 211.059 190.695 212.169 190.695H213.939V189.795C213.939 188.525 213.284 187.89 211.974 187.89C211.464 187.89 211.039 188 210.699 188.22C210.359 188.43 210.084 188.735 209.874 189.135L209.334 188.685C209.544 188.235 209.864 187.865 210.294 187.575C210.734 187.285 211.304 187.14 212.004 187.14C212.904 187.14 213.594 187.365 214.074 187.815C214.554 188.265 214.794 188.895 214.794 189.705V194.25H215.829V195H214.959ZM211.704 194.445C212.014 194.445 212.304 194.405 212.574 194.325C212.844 194.245 213.079 194.135 213.279 193.995C213.489 193.845 213.649 193.67 213.759 193.47C213.879 193.26 213.939 193.025 213.939 192.765V191.34H212.139C211.369 191.34 210.809 191.465 210.459 191.715C210.119 191.955 209.949 192.29 209.949 192.72V193.08C209.949 193.53 210.109 193.87 210.429 194.1C210.749 194.33 211.174 194.445 211.704 194.445ZM217.589 195V187.32H218.444V188.535H218.489C218.659 188.135 218.924 187.805 219.284 187.545C219.644 187.275 220.134 187.14 220.754 187.14C221.574 187.14 222.209 187.395 222.659 187.905C223.119 188.405 223.349 189.125 223.349 190.065V195H222.494V190.215C222.494 189.435 222.324 188.855 221.984 188.475C221.654 188.095 221.169 187.905 220.529 187.905C220.259 187.905 219.999 187.94 219.749 188.01C219.499 188.08 219.274 188.185 219.074 188.325C218.884 188.465 218.729 188.645 218.609 188.865C218.499 189.075 218.444 189.32 218.444 189.6V195H217.589ZM230.5 187.32H231.37L227.815 197.16C227.695 197.48 227.55 197.7 227.38 197.82C227.21 197.94 226.93 198 226.54 198H225.67V197.25H226.96L227.695 195.225L224.845 187.32H225.745L228.1 194.085H228.16L230.5 187.32Z" fill="#BDBDBD"/>
<path d="M132.235 301.18C130.895 301.18 129.845 300.725 129.085 299.815C128.325 298.895 127.945 297.545 127.945 295.765C127.945 293.985 128.325 292.64 129.085 291.73C129.845 290.81 130.895 290.35 132.235 290.35C133.565 290.35 134.61 290.81 135.37 291.73C136.13 292.65 136.51 293.995 136.51 295.765C136.51 297.535 136.13 298.88 135.37 299.8C134.61 300.72 133.565 301.18 132.235 301.18ZM132.235 300.37C132.735 300.37 133.185 300.285 133.585 300.115C133.995 299.935 134.345 299.675 134.635 299.335C134.925 298.995 135.15 298.58 135.31 298.09C135.47 297.6 135.55 297.045 135.55 296.425V295.105C135.55 294.485 135.47 293.93 135.31 293.44C135.15 292.95 134.925 292.54 134.635 292.21C134.345 291.87 133.995 291.61 133.585 291.43C133.185 291.25 132.735 291.16 132.235 291.16C131.735 291.16 131.28 291.25 130.87 291.43C130.46 291.61 130.11 291.87 129.82 292.21C129.53 292.54 129.305 292.95 129.145 293.44C128.985 293.93 128.905 294.485 128.905 295.105V296.425C128.905 297.045 128.985 297.6 129.145 298.09C129.305 298.58 129.53 298.995 129.82 299.335C130.11 299.675 130.46 299.935 130.87 300.115C131.28 300.285 131.735 300.37 132.235 300.37ZM138.854 301V293.32H139.709V294.535H139.754C139.924 294.135 140.189 293.805 140.549 293.545C140.909 293.275 141.399 293.14 142.019 293.14C142.839 293.14 143.474 293.395 143.924 293.905C144.384 294.405 144.614 295.125 144.614 296.065V301H143.759V296.215C143.759 295.435 143.589 294.855 143.249 294.475C142.919 294.095 142.434 293.905 141.794 293.905C141.524 293.905 141.264 293.94 141.014 294.01C140.764 294.08 140.539 294.185 140.339 294.325C140.149 294.465 139.994 294.645 139.874 294.865C139.764 295.075 139.709 295.32 139.709 295.6V301H138.854ZM150.051 301.18C149.541 301.18 149.076 301.09 148.656 300.91C148.246 300.73 147.891 300.47 147.591 300.13C147.301 299.78 147.076 299.355 146.916 298.855C146.766 298.355 146.691 297.79 146.691 297.16C146.691 296.53 146.766 295.97 146.916 295.48C147.076 294.98 147.301 294.56 147.591 294.22C147.891 293.87 148.246 293.605 148.656 293.425C149.066 293.235 149.526 293.14 150.036 293.14C150.526 293.14 150.971 293.235 151.371 293.425C151.771 293.605 152.111 293.86 152.391 294.19C152.671 294.52 152.886 294.92 153.036 295.39C153.196 295.85 153.276 296.36 153.276 296.92V297.325H147.591V297.7C147.591 298.1 147.646 298.47 147.756 298.81C147.876 299.14 148.041 299.425 148.251 299.665C148.471 299.905 148.736 300.095 149.046 300.235C149.356 300.365 149.706 300.43 150.096 300.43C151.216 300.43 151.991 299.915 152.421 298.885L153.051 299.305C152.811 299.875 152.431 300.33 151.911 300.67C151.401 301.01 150.781 301.18 150.051 301.18ZM150.036 293.86C149.666 293.86 149.331 293.93 149.031 294.07C148.731 294.2 148.471 294.385 148.251 294.625C148.041 294.865 147.876 295.155 147.756 295.495C147.646 295.825 147.591 296.19 147.591 296.59V296.665H152.346V296.545C152.346 296.145 152.291 295.78 152.181 295.45C152.071 295.11 151.911 294.825 151.701 294.595C151.501 294.365 151.256 294.185 150.966 294.055C150.686 293.925 150.376 293.86 150.036 293.86ZM157.682 291.325V301H156.782V291.325H153.272V290.53H161.192V291.325H157.682ZM162.218 301V293.32H163.073V294.7H163.133C163.283 294.34 163.538 294.02 163.898 293.74C164.258 293.46 164.768 293.32 165.428 293.32H165.938V294.16H165.263C164.623 294.16 164.098 294.3 163.688 294.58C163.278 294.86 163.073 295.25 163.073 295.75V301H162.218ZM172.38 299.785H172.32C172.25 299.965 172.155 300.14 172.035 300.31C171.915 300.48 171.765 300.63 171.585 300.76C171.405 300.88 171.19 300.98 170.94 301.06C170.7 301.14 170.415 301.18 170.085 301.18C169.265 301.18 168.625 300.93 168.165 300.43C167.705 299.92 167.475 299.195 167.475 298.255V293.32H168.33V298.09C168.33 298.88 168.5 299.465 168.84 299.845C169.18 300.225 169.67 300.415 170.31 300.415C170.58 300.415 170.835 300.38 171.075 300.31C171.325 300.24 171.545 300.135 171.735 299.995C171.935 299.855 172.09 299.68 172.2 299.47C172.32 299.25 172.38 298.995 172.38 298.705V293.32H173.235V301H172.38V299.785ZM178.207 301.18C177.537 301.18 176.962 301.055 176.482 300.805C176.012 300.555 175.602 300.19 175.252 299.71L175.882 299.215C176.202 299.635 176.552 299.945 176.932 300.145C177.312 300.345 177.757 300.445 178.267 300.445C178.857 300.445 179.312 300.32 179.632 300.07C179.952 299.82 180.112 299.46 180.112 298.99C180.112 298.58 179.987 298.26 179.737 298.03C179.497 297.79 179.097 297.63 178.537 297.55L177.907 297.445C177.557 297.395 177.237 297.32 176.947 297.22C176.657 297.12 176.407 296.985 176.197 296.815C175.997 296.645 175.837 296.44 175.717 296.2C175.607 295.95 175.552 295.65 175.552 295.3C175.552 294.94 175.617 294.625 175.747 294.355C175.887 294.085 176.072 293.86 176.302 293.68C176.532 293.5 176.807 293.365 177.127 293.275C177.447 293.185 177.792 293.14 178.162 293.14C178.802 293.14 179.327 293.25 179.737 293.47C180.147 293.69 180.497 293.975 180.787 294.325L180.217 294.85C180.017 294.61 179.747 294.39 179.407 294.19C179.077 293.98 178.647 293.875 178.117 293.875C177.567 293.875 177.137 293.995 176.827 294.235C176.527 294.475 176.377 294.815 176.377 295.255C176.377 295.705 176.512 296.03 176.782 296.23C177.062 296.43 177.477 296.575 178.027 296.665L178.642 296.755C179.422 296.875 179.997 297.11 180.367 297.46C180.747 297.8 180.937 298.28 180.937 298.9C180.937 299.62 180.692 300.18 180.202 300.58C179.722 300.98 179.057 301.18 178.207 301.18ZM184.442 301C184.132 301 183.897 300.915 183.737 300.745C183.577 300.575 183.497 300.345 183.497 300.055V294.07H182.162V293.32H183.032C183.242 293.32 183.382 293.28 183.452 293.2C183.532 293.11 183.572 292.955 183.572 292.735V291.175H184.352V293.32H186.092V294.07H184.352V300.25H185.972V301H184.442Z" fill="#BDBDBD"/>
</svg>
