<svg width="465" height="465" viewBox="0 0 465 465" fill="none" xmlns="http://www.w3.org/2000/svg">
<circle cx="232.5" cy="232.5" r="232.5" fill="#242424"/>
<circle cx="272.5" cy="185.5" r="149.5" fill="#EFEFEF" fill-opacity="0.1"/>
<circle cx="288.5" cy="322.5" r="105.5" fill="#EFEFEF" fill-opacity="0.1"/>
<circle cx="84" cy="281" r="49" fill="#EFEFEF" fill-opacity="0.1"/>
<circle cx="276" cy="259" r="12" fill="#B1DA9F"/>
<circle cx="61" cy="266" r="12" fill="#B1DA9F"/>
<circle cx="106" cy="290" r="12" fill="#ADD9F2"/>
<circle cx="220" cy="290" r="12" fill="#ADD9F2"/>
<circle cx="313" cy="308" r="12" fill="#B1DA9F"/>
<circle cx="272" cy="387" r="12" fill="#ADD9F2"/>
<circle cx="181" cy="134" r="12" fill="#B1DA9F"/>
<circle cx="331" cy="103" r="12" fill="#B1DA9F"/>
<circle cx="260" cy="183" r="21" fill="#6CBF49"/>
<circle cx="61" cy="166" r="12" fill="#ADD9F2"/>
<circle cx="121" cy="86" r="12" fill="#ADD9F2"/>
<path d="M192.876 141.516C192.608 141.584 192.447 141.857 192.516 142.124L193.633 146.483C193.702 146.751 193.974 146.912 194.242 146.843C194.509 146.775 194.671 146.502 194.602 146.235L193.609 142.36L197.483 141.367C197.751 141.298 197.912 141.026 197.843 140.758C197.775 140.491 197.502 140.329 197.235 140.398L192.876 141.516ZM242.255 170.57L193.255 141.57L192.745 142.43L241.745 171.43L242.255 170.57Z" fill="#EFEFEF"/>
<path d="M303.945 296.497C304.219 296.527 304.466 296.33 304.497 296.055L304.994 291.583C305.024 291.308 304.827 291.061 304.552 291.031C304.278 291 304.03 291.198 304 291.472L303.558 295.448L299.583 295.006C299.308 294.976 299.061 295.173 299.031 295.448C299 295.722 299.198 295.97 299.472 296L303.945 296.497ZM283.61 271.312L303.61 296.312L304.39 295.688L284.39 270.688L283.61 271.312Z" fill="#EFEFEF"/>
<path d="M71.5363 258.813C71.433 259.069 71.5569 259.36 71.813 259.464L75.9862 261.147C76.2423 261.25 76.5337 261.126 76.637 260.87C76.7403 260.614 76.6164 260.323 76.3603 260.22L72.6507 258.723L74.147 255.014C74.2503 254.758 74.1265 254.466 73.8704 254.363C73.6143 254.26 73.3229 254.384 73.2196 254.64L71.5363 258.813ZM238.804 187.54L71.8044 258.54L72.1956 259.46L239.196 188.46L238.804 187.54Z" fill="#EFEFEF"/>
<path d="M117.639 289.654C117.448 289.854 117.455 290.17 117.654 290.361L120.906 293.472C121.106 293.663 121.422 293.656 121.613 293.456C121.804 293.257 121.797 292.94 121.597 292.749L118.707 289.984L121.472 287.094C121.663 286.894 121.656 286.578 121.456 286.387C121.257 286.196 120.94 286.203 120.749 286.403L117.639 289.654ZM207.989 287.5L117.989 289.5L118.011 290.5L208.011 288.5L207.989 287.5Z" fill="#EFEFEF"/>
<path d="M75.6389 262.654C75.4479 262.854 75.4547 263.17 75.6541 263.361L78.9038 266.474C79.1032 266.665 79.4197 266.658 79.6107 266.459C79.8018 266.259 79.795 265.943 79.5955 265.752L76.707 262.985L79.4739 260.096C79.6649 259.897 79.6581 259.58 79.4587 259.389C79.2593 259.198 78.9428 259.205 78.7518 259.404L75.6389 262.654ZM261.989 258.5L75.9893 262.5L76.0108 263.5L262.011 259.5L261.989 258.5Z" fill="#EFEFEF"/>
<path d="M72.6674 170.503C72.464 170.69 72.4504 171.006 72.6371 171.209L75.6796 174.525C75.8663 174.728 76.1826 174.742 76.3861 174.555C76.5895 174.369 76.6031 174.052 76.4164 173.849L73.7119 170.902L76.6591 168.197C76.8626 168.011 76.8761 167.694 76.6894 167.491C76.5027 167.287 76.1864 167.274 75.983 167.46L72.6674 170.503ZM239.021 177.5L73.0269 170.372L72.984 171.371L238.979 178.5L239.021 177.5Z" fill="#EFEFEF"/>
<path d="M216.842 278.474C217.104 278.562 217.387 278.42 217.474 278.158L218.897 273.889C218.985 273.627 218.843 273.344 218.581 273.257C218.319 273.169 218.036 273.311 217.949 273.573L216.684 277.368L212.889 276.103C212.627 276.015 212.344 276.157 212.257 276.419C212.169 276.681 212.311 276.964 212.573 277.051L216.842 278.474ZM126.553 98.2236L216.553 278.224L217.447 277.776L127.447 97.7764L126.553 98.2236Z" fill="#EFEFEF"/>
<path d="M319.336 95.3703C319.54 95.1848 319.556 94.8686 319.37 94.664L316.347 91.3312C316.161 91.1267 315.845 91.1113 315.64 91.2968C315.436 91.4824 315.421 91.7986 315.606 92.0031L318.294 94.9656L315.331 97.6533C315.127 97.8388 315.111 98.155 315.297 98.3596C315.482 98.5641 315.799 98.5795 316.003 98.3939L319.336 95.3703ZM133.976 86.4994L318.976 95.4994L319.024 94.5006L134.024 85.5006L133.976 86.4994Z" fill="#EFEFEF"/>
<path d="M319.422 103.268C319.57 103.035 319.501 102.726 319.268 102.578L315.472 100.162C315.239 100.014 314.93 100.083 314.782 100.316C314.633 100.549 314.702 100.858 314.935 101.006L318.31 103.153L316.162 106.528C316.014 106.761 316.083 107.07 316.316 107.218C316.549 107.367 316.858 107.298 317.006 107.065L319.422 103.268ZM193.108 131.488L319.108 103.488L318.892 102.512L192.892 130.512L193.108 131.488Z" fill="#EFEFEF"/>
<path d="M274.586 375.28C274.74 375.509 275.051 375.569 275.28 375.414L279.009 372.896C279.238 372.741 279.298 372.431 279.144 372.202C278.989 371.973 278.678 371.913 278.449 372.067L275.135 374.306L272.896 370.991C272.741 370.762 272.431 370.702 272.202 370.856C271.973 371.011 271.913 371.322 272.067 371.551L274.586 375.28ZM324.509 116.905L274.509 374.905L275.491 375.095L325.491 117.095L324.509 116.905Z" fill="#EFEFEF"/>
</svg>
