<svg width="306" height="281" viewBox="0 0 306 281" fill="none" xmlns="http://www.w3.org/2000/svg">
<circle opacity="0.6" cx="140.5" cy="140.5" r="140.5" fill="#2DB06D"/>
<path d="M53.68 119.16V108.72C53.68 107.4 55.04 107.92 55.04 107.16C55.04 106.98 54.92 106.82 54.62 106.82C54.18 106.82 53.54 106.88 52.9 106.88C52.26 106.88 51.62 106.82 51.18 106.82C50.88 106.82 50.76 106.98 50.76 107.16C50.76 107.92 52.12 107.4 52.12 108.72V112.94C52.12 113.24 52.02 113.36 51.58 113.36H44.42C43.98 113.36 43.88 113.24 43.88 112.94V108.72C43.88 107.4 45.24 107.92 45.24 107.16C45.24 106.98 45.12 106.82 44.82 106.82C44.38 106.82 43.72 106.88 43.08 106.88C42.44 106.88 41.82 106.82 41.38 106.82C41.08 106.82 40.96 106.98 40.96 107.16C40.96 107.92 42.32 107.4 42.32 108.72V119.16C42.32 120.48 40.96 119.96 40.96 120.72C40.96 120.9 41.08 121.06 41.38 121.06C41.82 121.06 42.44 121 43.08 121C43.72 121 44.38 121.06 44.82 121.06C45.12 121.06 45.24 120.9 45.24 120.72C45.24 119.96 43.88 120.48 43.88 119.16V114.7C43.88 114.4 43.98 114.28 44.42 114.28H51.58C52.02 114.28 52.12 114.4 52.12 114.7V119.16C52.12 120.48 50.76 119.96 50.76 120.72C50.76 120.9 50.88 121.06 51.18 121.06C51.62 121.06 52.26 121 52.9 121C53.54 121 54.18 121.06 54.62 121.06C54.92 121.06 55.04 120.9 55.04 120.72C55.04 119.96 53.68 120.48 53.68 119.16ZM61.4827 121.34C64.4627 121.34 66.7027 119.1 66.7027 116.08C66.7027 112.98 64.5627 110.88 61.6627 110.88C58.6827 110.88 56.4427 113.12 56.4427 116.16C56.4427 119.24 58.5827 121.34 61.4827 121.34ZM61.8627 120.4C59.5827 120.4 57.9427 118.14 57.9427 115.48C57.9427 113.46 59.2427 111.82 61.2827 111.82C63.5627 111.82 65.2027 114.08 65.2027 116.76C65.2027 118.76 63.9027 120.4 61.8627 120.4ZM83.7084 111.16C83.1884 111.16 82.7084 111.22 82.1284 111.22C81.6084 111.22 81.0684 111.16 80.6884 111.16C80.4084 111.16 80.1884 111.26 80.1884 111.52C80.1884 112.16 81.4684 111.88 81.4684 112.8C81.4684 112.98 81.4084 113.26 81.1684 113.86L78.9084 119.4L76.8684 113.84C76.6684 113.32 76.5884 113.02 76.5884 112.82C76.5884 112.08 77.9684 112.16 77.9684 111.52C77.9684 111.26 77.7684 111.16 77.4884 111.16C77.0884 111.16 76.4084 111.22 75.7084 111.22C74.9484 111.22 74.5884 111.16 74.0884 111.16C73.8484 111.16 73.6484 111.26 73.6484 111.48C73.6484 112.08 74.6084 111.88 75.0484 113.06L75.2884 113.68L72.8884 119.38L70.5684 113.84C70.3884 113.42 70.2884 112.92 70.2884 112.8C70.2884 111.88 71.4684 112.16 71.4684 111.52C71.4684 111.26 71.2484 111.16 71.0084 111.16C70.6084 111.16 70.0884 111.22 69.4084 111.22C68.6284 111.22 68.1084 111.16 67.5884 111.16C67.3484 111.16 67.1484 111.26 67.1484 111.48C67.1484 112.08 68.2084 111.9 68.7084 113.06L71.8684 120.52C72.0284 120.88 72.1484 121.08 72.6284 121.08C73.2484 121.08 73.2884 120.8 73.4084 120.54L75.7884 115.02L77.8884 120.52C78.0284 120.88 78.1884 121.08 78.6684 121.08C79.1284 121.08 79.2684 120.92 79.4284 120.54L82.6084 113.08C83.1084 111.9 84.1684 112.08 84.1684 111.48C84.1684 111.26 83.9284 111.16 83.7084 111.16ZM94.0333 121.34C95.6333 121.34 97.1933 120.52 97.8133 119.48C97.9133 119.3 97.9933 119.12 97.9933 118.96C97.9933 118.68 97.8333 118.54 97.6333 118.54C97.4733 118.54 97.3333 118.64 97.1733 118.86C96.4933 119.78 95.5733 120.2 94.5733 120.2C92.4733 120.2 90.8733 118.3 90.8733 115.8C90.8733 113.4 92.1533 111.8 93.8733 111.8C95.3533 111.8 95.8933 112.74 96.1733 114.26C96.2333 114.64 96.3533 114.82 96.5733 114.82C96.7733 114.82 96.8933 114.68 97.0533 114.46C97.5733 113.7 97.7333 113.12 97.7333 112.76C97.7333 112.02 96.1133 110.88 94.2133 110.88C91.4933 110.88 89.3533 113.08 89.3533 116.24C89.3533 119.56 91.5533 121.34 94.0333 121.34ZM108.937 120.08C107.937 119.9 107.497 119.76 107.277 118.2L106.777 114.8C106.497 112.94 106.077 111.02 103.457 111.02C102.017 111.02 100.537 111.88 99.917 112.84C99.757 113.08 99.717 113.2 99.717 113.34C99.717 113.56 99.897 113.7 100.077 113.7C100.197 113.7 100.317 113.64 100.477 113.48C101.237 112.74 102.077 112.22 102.977 112.22C104.357 112.22 105.137 112.9 105.477 115.3L105.517 115.58C104.737 115.34 103.957 115.16 103.097 115.16C100.597 115.16 99.077 116.54 99.077 118.28C99.077 120 100.417 121.22 102.437 121.22C103.997 121.22 105.297 120.54 106.077 119.56C106.357 120.68 107.017 121.16 107.817 121.16C108.537 121.16 109.237 120.68 109.237 120.36C109.237 120.22 109.157 120.12 108.937 120.08ZM102.817 120.2C101.477 120.2 100.597 119.34 100.597 118.16C100.597 116.92 101.497 116.08 103.297 116.08C104.057 116.08 104.877 116.24 105.657 116.54L105.917 118.48C105.317 119.4 104.097 120.2 102.817 120.2ZM119.383 118.74L118.863 115C118.663 113.54 118.203 111.02 115.703 111.02C114.202 111.02 113.203 111.9 112.543 112.94V111.7C112.543 111.3 112.443 111.08 112.183 111.08C112.023 111.08 111.823 111.14 110.903 111.6C109.983 112.06 109.683 112.28 109.683 112.56C109.683 113.3 111.143 112.58 111.143 113.8V118.94C111.143 120.6 109.843 119.98 109.843 120.7C109.843 120.86 109.963 121.06 110.243 121.06C110.663 121.06 111.243 121 111.843 121C112.463 121 113.083 121.06 113.503 121.06C113.743 121.06 113.863 120.86 113.863 120.7C113.863 119.98 112.543 120.6 112.543 118.94V115.4C112.543 113.34 113.943 112.28 115.243 112.28C116.963 112.28 117.303 114.18 117.443 115.1L117.963 118.74C117.983 118.88 118.003 119.1 118.003 119.22C118.003 120.52 116.603 119.98 116.603 120.68C116.603 120.92 116.803 121.06 117.103 121.06C117.663 121.06 117.983 121 118.743 121C119.463 121 119.863 121.06 120.403 121.06C120.663 121.06 120.883 120.96 120.883 120.7C120.883 119.94 119.643 120.66 119.383 118.74ZM141.892 111.16C141.372 111.16 140.892 111.22 140.312 111.22C139.792 111.22 139.252 111.16 138.872 111.16C138.592 111.16 138.372 111.26 138.372 111.52C138.372 112.16 139.652 111.88 139.652 112.8C139.652 112.98 139.592 113.26 139.352 113.86L137.092 119.4L135.052 113.84C134.852 113.32 134.772 113.02 134.772 112.82C134.772 112.08 136.152 112.16 136.152 111.52C136.152 111.26 135.952 111.16 135.672 111.16C135.272 111.16 134.592 111.22 133.892 111.22C133.132 111.22 132.772 111.16 132.272 111.16C132.032 111.16 131.832 111.26 131.832 111.48C131.832 112.08 132.792 111.88 133.232 113.06L133.472 113.68L131.072 119.38L128.752 113.84C128.572 113.42 128.472 112.92 128.472 112.8C128.472 111.88 129.652 112.16 129.652 111.52C129.652 111.26 129.432 111.16 129.192 111.16C128.792 111.16 128.272 111.22 127.592 111.22C126.812 111.22 126.292 111.16 125.772 111.16C125.532 111.16 125.332 111.26 125.332 111.48C125.332 112.08 126.392 111.9 126.892 113.06L130.052 120.52C130.212 120.88 130.332 121.08 130.812 121.08C131.432 121.08 131.472 120.8 131.592 120.54L133.972 115.02L136.072 120.52C136.212 120.88 136.372 121.08 136.852 121.08C137.312 121.08 137.452 120.92 137.612 120.54L140.792 113.08C141.292 111.9 142.352 112.08 142.352 111.48C142.352 111.26 142.112 111.16 141.892 111.16ZM151.451 118.6C151.291 118.6 151.131 118.7 150.991 118.88C150.371 119.62 149.311 120.2 148.071 120.2C146.371 120.2 145.011 118.96 144.491 117.18L151.031 115.24C151.311 115.16 151.411 115.02 151.411 114.66C151.411 112.7 149.791 110.88 147.491 110.88C144.951 110.88 142.751 113.06 142.751 116.14C142.751 119.52 145.051 121.34 147.651 121.34C149.171 121.34 150.871 120.56 151.631 119.5C151.771 119.3 151.831 119.14 151.831 119.02C151.831 118.76 151.631 118.6 151.451 118.6ZM147.271 111.9C148.791 111.9 149.771 113.2 149.771 114.2C149.771 114.54 149.691 114.64 149.331 114.74L144.291 116.28C144.271 116.04 144.251 115.78 144.251 115.52C144.251 113.36 145.571 111.9 147.271 111.9ZM161.344 106.78C162.064 106.78 162.504 107.36 162.684 108.68C162.724 108.98 162.864 109.16 163.104 109.16C163.304 109.16 163.464 108.96 163.564 108.74C163.824 108.16 164.024 107.74 164.024 107.26C164.024 106.36 162.664 105.84 161.544 105.84C160.144 105.84 158.884 106.74 158.884 108.46C158.884 109.48 159.324 110.22 159.444 111.24H158.084C157.884 111.24 157.784 111.32 157.784 111.46C157.784 111.6 157.824 111.78 157.844 111.88C157.884 112.08 157.984 112.16 158.164 112.16H159.484V118.94C159.484 120.6 158.184 119.98 158.184 120.7C158.184 120.86 158.304 121.06 158.584 121.06C159.004 121.06 159.604 121 160.264 121C160.964 121 161.684 121.06 162.204 121.06C162.444 121.06 162.564 120.86 162.564 120.7C162.564 119.92 160.884 120.6 160.884 118.94V112.16H163.144C163.324 112.16 163.424 112.08 163.464 111.88C163.484 111.78 163.524 111.6 163.524 111.46C163.524 111.32 163.424 111.24 163.224 111.24H160.844C160.664 110 160.124 109.06 160.124 108.16C160.124 107.26 160.704 106.78 161.344 106.78ZM174.132 120.08C173.132 119.9 172.692 119.76 172.472 118.2L171.972 114.8C171.692 112.94 171.272 111.02 168.652 111.02C167.212 111.02 165.732 111.88 165.112 112.84C164.952 113.08 164.912 113.2 164.912 113.34C164.912 113.56 165.092 113.7 165.272 113.7C165.392 113.7 165.512 113.64 165.672 113.48C166.432 112.74 167.272 112.22 168.172 112.22C169.552 112.22 170.332 112.9 170.672 115.3L170.712 115.58C169.932 115.34 169.152 115.16 168.292 115.16C165.792 115.16 164.272 116.54 164.272 118.28C164.272 120 165.612 121.22 167.632 121.22C169.192 121.22 170.492 120.54 171.272 119.56C171.552 120.68 172.212 121.16 173.012 121.16C173.732 121.16 174.432 120.68 174.432 120.36C174.432 120.22 174.352 120.12 174.132 120.08ZM168.012 120.2C166.672 120.2 165.792 119.34 165.792 118.16C165.792 116.92 166.692 116.08 168.492 116.08C169.252 116.08 170.072 116.24 170.852 116.54L171.112 118.48C170.512 119.4 169.292 120.2 168.012 120.2ZM179.678 121.34C181.278 121.34 182.838 120.52 183.458 119.48C183.558 119.3 183.638 119.12 183.638 118.96C183.638 118.68 183.478 118.54 183.278 118.54C183.118 118.54 182.978 118.64 182.818 118.86C182.138 119.78 181.218 120.2 180.218 120.2C178.118 120.2 176.518 118.3 176.518 115.8C176.518 113.4 177.798 111.8 179.518 111.8C180.998 111.8 181.538 112.74 181.818 114.26C181.878 114.64 181.998 114.82 182.218 114.82C182.418 114.82 182.538 114.68 182.698 114.46C183.218 113.7 183.378 113.12 183.378 112.76C183.378 112.02 181.758 110.88 179.858 110.88C177.138 110.88 174.998 113.08 174.998 116.24C174.998 119.56 177.198 121.34 179.678 121.34ZM186.362 108.68C187.242 108.68 187.942 107.92 187.942 107.24C187.942 106.64 187.482 106.3 186.962 106.3C186.082 106.3 185.422 107.08 185.422 107.76C185.422 108.38 185.922 108.68 186.362 108.68ZM185.282 121.06C185.702 121.06 186.282 121 186.882 121C187.502 121 188.122 121.06 188.542 121.06C188.782 121.06 188.902 120.86 188.902 120.7C188.902 119.98 187.582 120.6 187.582 118.94V111.7C187.582 111.3 187.482 111.08 187.222 111.08C187.062 111.08 186.862 111.14 185.942 111.6C185.022 112.06 184.722 112.28 184.722 112.56C184.722 113.3 186.182 112.58 186.182 113.8V118.94C186.182 120.6 184.882 119.98 184.882 120.7C184.882 120.86 185.002 121.06 185.282 121.06ZM190.433 121.06C190.853 121.06 191.433 121 192.033 121C192.653 121 193.273 121.06 193.693 121.06C193.933 121.06 194.053 120.86 194.053 120.7C194.053 119.98 192.733 120.6 192.733 118.94V106.54C192.733 106.14 192.633 105.92 192.373 105.92C192.213 105.92 192.013 105.98 191.093 106.44C190.173 106.9 189.873 107.12 189.873 107.4C189.873 108.14 191.333 107.42 191.333 108.64V118.94C191.333 120.6 190.033 119.98 190.033 120.7C190.033 120.86 190.153 121.06 190.433 121.06ZM196.869 108.68C197.749 108.68 198.449 107.92 198.449 107.24C198.449 106.64 197.989 106.3 197.469 106.3C196.589 106.3 195.929 107.08 195.929 107.76C195.929 108.38 196.429 108.68 196.869 108.68ZM195.789 121.06C196.209 121.06 196.789 121 197.389 121C198.009 121 198.629 121.06 199.049 121.06C199.289 121.06 199.409 120.86 199.409 120.7C199.409 119.98 198.089 120.6 198.089 118.94V111.7C198.089 111.3 197.989 111.08 197.729 111.08C197.569 111.08 197.369 111.14 196.449 111.6C195.529 112.06 195.229 112.28 195.229 112.56C195.229 113.3 196.689 112.58 196.689 113.8V118.94C196.689 120.6 195.389 119.98 195.389 120.7C195.389 120.86 195.509 121.06 195.789 121.06ZM207.121 119C206.961 119 206.801 119.12 206.681 119.24C206.301 119.58 205.781 120.14 204.861 120.14C203.981 120.14 203.401 119.68 203.401 118.22V112.16H206.921C207.101 112.16 207.201 112.08 207.241 111.88C207.261 111.78 207.301 111.6 207.301 111.46C207.301 111.32 207.201 111.24 207.001 111.24H203.401V107.92C203.401 107.6 203.261 107.46 203.081 107.46C202.801 107.46 202.701 107.68 202.621 108.12C202.221 110.08 201.721 110.84 200.541 111.28C200.261 111.38 200.081 111.52 200.081 111.76C200.081 112.02 200.281 112.16 200.601 112.16H202.001V116.08C202.001 117.46 201.961 119 201.961 119.42C201.961 120.4 202.961 121.22 204.461 121.22C205.421 121.22 206.401 120.88 207.121 120.12C207.381 119.84 207.501 119.62 207.501 119.4C207.501 119.18 207.341 119 207.121 119ZM218.078 120.08C217.078 119.9 216.638 119.76 216.418 118.2L215.918 114.8C215.638 112.94 215.218 111.02 212.598 111.02C211.158 111.02 209.678 111.88 209.058 112.84C208.898 113.08 208.858 113.2 208.858 113.34C208.858 113.56 209.038 113.7 209.218 113.7C209.338 113.7 209.458 113.64 209.618 113.48C210.378 112.74 211.218 112.22 212.118 112.22C213.498 112.22 214.278 112.9 214.618 115.3L214.658 115.58C213.878 115.34 213.098 115.16 212.238 115.16C209.738 115.16 208.218 116.54 208.218 118.28C208.218 120 209.558 121.22 211.578 121.22C213.138 121.22 214.438 120.54 215.218 119.56C215.498 120.68 216.158 121.16 216.958 121.16C217.678 121.16 218.378 120.68 218.378 120.36C218.378 120.22 218.298 120.12 218.078 120.08ZM211.958 120.2C210.618 120.2 209.738 119.34 209.738 118.16C209.738 116.92 210.638 116.08 212.438 116.08C213.198 116.08 214.018 116.24 214.798 116.54L215.058 118.48C214.458 119.4 213.238 120.2 211.958 120.2ZM225.265 119C225.105 119 224.945 119.12 224.825 119.24C224.445 119.58 223.925 120.14 223.005 120.14C222.125 120.14 221.545 119.68 221.545 118.22V112.16H225.065C225.245 112.16 225.345 112.08 225.385 111.88C225.405 111.78 225.445 111.6 225.445 111.46C225.445 111.32 225.345 111.24 225.145 111.24H221.545V107.92C221.545 107.6 221.405 107.46 221.225 107.46C220.945 107.46 220.845 107.68 220.765 108.12C220.365 110.08 219.865 110.84 218.685 111.28C218.405 111.38 218.225 111.52 218.225 111.76C218.225 112.02 218.425 112.16 218.745 112.16H220.145V116.08C220.145 117.46 220.105 119 220.105 119.42C220.105 120.4 221.105 121.22 222.605 121.22C223.565 121.22 224.545 120.88 225.265 120.12C225.525 119.84 225.645 119.62 225.645 119.4C225.645 119.18 225.485 119 225.265 119ZM235.065 118.6C234.905 118.6 234.745 118.7 234.605 118.88C233.985 119.62 232.925 120.2 231.685 120.2C229.985 120.2 228.625 118.96 228.105 117.18L234.645 115.24C234.925 115.16 235.025 115.02 235.025 114.66C235.025 112.7 233.405 110.88 231.105 110.88C228.565 110.88 226.365 113.06 226.365 116.14C226.365 119.52 228.665 121.34 231.265 121.34C232.785 121.34 234.485 120.56 235.245 119.5C235.385 119.3 235.445 119.14 235.445 119.02C235.445 118.76 235.245 118.6 235.065 118.6ZM230.885 111.9C232.405 111.9 233.385 113.2 233.385 114.2C233.385 114.54 233.305 114.64 232.945 114.74L227.905 116.28C227.885 116.04 227.865 115.78 227.865 115.52C227.865 113.36 229.185 111.9 230.885 111.9ZM46.9 136.96C45.3 136.96 44.06 137.74 43.34 138.86V137.7C43.34 137.36 43.26 137.08 42.98 137.08C42.78 137.08 42.62 137.14 41.72 137.6C40.8 138.06 40.5 138.26 40.5 138.56C40.5 139.3 41.94 138.58 41.94 139.8V148.5C41.94 150.16 40.66 149.54 40.66 150.26C40.66 150.42 40.78 150.62 41.06 150.62C41.46 150.62 42.04 150.56 42.64 150.56C43.32 150.56 44.02 150.62 44.48 150.62C44.72 150.62 44.84 150.42 44.84 150.26C44.84 149.5 43.34 150.16 43.34 148.5V146.14C44 146.72 45.06 147.24 46.54 147.24C49.12 147.24 51.34 145.28 51.34 142C51.34 139.06 49.5 136.96 46.9 136.96ZM46.56 146.34C44.74 146.34 43.34 145.18 43.34 143.14V141.44C43.34 139.24 44.9 138.1 46.46 138.1C48.5 138.1 49.86 140 49.86 142.46C49.86 145.02 48.4 146.34 46.56 146.34ZM59.0903 137C57.6903 137 56.2703 138.1 55.5503 139.84V137.7C55.5503 137.3 55.4503 137.08 55.1903 137.08C55.0303 137.08 54.8303 137.14 53.9103 137.6C52.9903 138.06 52.6903 138.28 52.6903 138.56C52.6903 139.3 54.1503 138.58 54.1503 139.8V144.94C54.1503 146.6 52.8503 145.98 52.8503 146.7C52.8503 146.86 52.9703 147.06 53.2503 147.06C53.6703 147.06 54.2503 147 54.8503 147C55.5503 147 56.2903 147.06 56.7703 147.06C57.0103 147.06 57.1303 146.86 57.1303 146.7C57.1303 145.92 55.5503 146.6 55.5503 144.94V143.02C55.5503 140.08 57.3503 138.38 58.3503 138.38C58.7303 138.38 58.9703 138.64 59.1903 139.22C59.3103 139.54 59.3903 139.76 59.6503 139.76C59.9103 139.76 60.0303 139.56 60.1103 139.24C60.3103 138.42 60.3703 138 60.3703 137.76C60.3703 137.34 59.8503 137 59.0903 137ZM66.1311 147.34C69.1111 147.34 71.3511 145.1 71.3511 142.08C71.3511 138.98 69.2111 136.88 66.3111 136.88C63.3311 136.88 61.0911 139.12 61.0911 142.16C61.0911 145.24 63.2311 147.34 66.1311 147.34ZM66.5111 146.4C64.2311 146.4 62.5911 144.14 62.5911 141.48C62.5911 139.46 63.8911 137.82 65.9311 137.82C68.2111 137.82 69.8511 140.08 69.8511 142.76C69.8511 144.76 68.5511 146.4 66.5111 146.4ZM77.4903 147.34C79.0903 147.34 80.6503 146.52 81.2703 145.48C81.3703 145.3 81.4503 145.12 81.4503 144.96C81.4503 144.68 81.2903 144.54 81.0903 144.54C80.9303 144.54 80.7903 144.64 80.6303 144.86C79.9503 145.78 79.0303 146.2 78.0303 146.2C75.9303 146.2 74.3303 144.3 74.3303 141.8C74.3303 139.4 75.6103 137.8 77.3303 137.8C78.8103 137.8 79.3503 138.74 79.6303 140.26C79.6903 140.64 79.8103 140.82 80.0303 140.82C80.2303 140.82 80.3503 140.68 80.5103 140.46C81.0303 139.7 81.1903 139.12 81.1903 138.76C81.1903 138.02 79.5703 136.88 77.6703 136.88C74.9503 136.88 72.8103 139.08 72.8103 142.24C72.8103 145.56 75.0103 147.34 77.4903 147.34ZM91.3341 144.6C91.1741 144.6 91.0141 144.7 90.8741 144.88C90.2541 145.62 89.1941 146.2 87.9541 146.2C86.2541 146.2 84.8941 144.96 84.3741 143.18L90.9141 141.24C91.1941 141.16 91.2941 141.02 91.2941 140.66C91.2941 138.7 89.6741 136.88 87.3741 136.88C84.8341 136.88 82.6341 139.06 82.6341 142.14C82.6341 145.52 84.9341 147.34 87.5341 147.34C89.0541 147.34 90.7541 146.56 91.5141 145.5C91.6541 145.3 91.7141 145.14 91.7141 145.02C91.7141 144.76 91.5141 144.6 91.3341 144.6ZM87.1541 137.9C88.6741 137.9 89.6541 139.2 89.6541 140.2C89.6541 140.54 89.5741 140.64 89.2141 140.74L84.1741 142.28C84.1541 142.04 84.1341 141.78 84.1341 141.52C84.1341 139.36 85.4541 137.9 87.1541 137.9ZM94.5266 147.26C94.9466 147.26 94.9866 146.76 95.3466 146.76C95.6266 146.76 96.5866 147.22 97.9266 147.22C100.147 147.22 101.647 146.06 101.647 144.34C101.647 142.24 99.6466 141.66 97.6066 141.16C95.5266 140.64 94.6266 140.4 94.6266 139.32C94.6266 138.52 95.3066 137.92 96.4466 137.92C97.7666 137.92 99.1066 138.7 100.107 139.64C100.287 139.8 100.507 140 100.687 140C100.867 140 101.027 139.86 101.027 139.64C101.027 139.44 100.807 139.04 100.607 138.7L99.9866 137.64C99.7666 137.28 99.6066 136.98 99.3066 136.98C98.9466 136.98 98.9466 137.38 98.6266 137.38C98.3266 137.38 97.4666 137.02 96.3666 137.02C94.3866 137.02 93.1466 138.2 93.1466 139.64C93.1466 141.58 95.3466 142.14 97.2066 142.6C99.1066 143.04 100.167 143.3 100.167 144.52C100.167 145.52 99.2866 146.32 97.8866 146.32C96.4666 146.32 95.1066 145.5 93.7866 144.2C93.6066 144.02 93.3866 143.82 93.2066 143.82C92.9866 143.82 92.8466 143.96 92.8466 144.2C92.8466 144.42 93.0066 144.68 93.3866 145.46L93.9866 146.7C94.1066 146.94 94.2466 147.26 94.5266 147.26ZM104.585 147.26C105.005 147.26 105.045 146.76 105.405 146.76C105.685 146.76 106.645 147.22 107.985 147.22C110.205 147.22 111.705 146.06 111.705 144.34C111.705 142.24 109.705 141.66 107.665 141.16C105.585 140.64 104.685 140.4 104.685 139.32C104.685 138.52 105.365 137.92 106.505 137.92C107.825 137.92 109.165 138.7 110.165 139.64C110.345 139.8 110.565 140 110.745 140C110.925 140 111.085 139.86 111.085 139.64C111.085 139.44 110.865 139.04 110.665 138.7L110.045 137.64C109.825 137.28 109.665 136.98 109.365 136.98C109.005 136.98 109.005 137.38 108.685 137.38C108.385 137.38 107.525 137.02 106.425 137.02C104.445 137.02 103.205 138.2 103.205 139.64C103.205 141.58 105.405 142.14 107.265 142.6C109.165 143.04 110.225 143.3 110.225 144.52C110.225 145.52 109.345 146.32 107.945 146.32C106.525 146.32 105.165 145.5 103.845 144.2C103.665 144.02 103.445 143.82 103.265 143.82C103.045 143.82 102.905 143.96 102.905 144.2C102.905 144.42 103.065 144.68 103.445 145.46L104.045 146.7C104.165 146.94 104.305 147.26 104.585 147.26ZM119.604 134.68C120.484 134.68 121.184 133.92 121.184 133.24C121.184 132.64 120.724 132.3 120.204 132.3C119.324 132.3 118.664 133.08 118.664 133.76C118.664 134.38 119.164 134.68 119.604 134.68ZM118.524 147.06C118.944 147.06 119.524 147 120.124 147C120.744 147 121.364 147.06 121.784 147.06C122.024 147.06 122.144 146.86 122.144 146.7C122.144 145.98 120.824 146.6 120.824 144.94V137.7C120.824 137.3 120.724 137.08 120.464 137.08C120.304 137.08 120.104 137.14 119.184 137.6C118.264 138.06 117.964 138.28 117.964 138.56C117.964 139.3 119.424 138.58 119.424 139.8V144.94C119.424 146.6 118.124 145.98 118.124 146.7C118.124 146.86 118.244 147.06 118.524 147.06ZM138.595 144.74L138.055 141C137.795 139.22 137.275 137.02 134.915 137.02C133.395 137.02 132.435 137.88 131.875 138.98C131.515 137.92 130.755 137.02 129.275 137.02C127.815 137.02 126.815 137.9 126.175 138.94V137.7C126.175 137.34 126.095 137.08 125.815 137.08C125.635 137.08 125.455 137.12 124.515 137.6C123.615 138.06 123.315 138.28 123.315 138.56C123.315 139.3 124.775 138.58 124.775 139.8V144.94C124.775 146.6 123.475 145.98 123.475 146.7C123.475 146.86 123.615 147.06 123.875 147.06C124.315 147.06 124.875 147 125.475 147C126.115 147 126.715 147.06 127.135 147.06C127.375 147.06 127.495 146.86 127.495 146.7C127.495 145.98 126.175 146.6 126.175 144.94V141.36C126.175 139.3 127.555 138.28 128.835 138.28C130.535 138.28 130.775 140 130.775 141.1V144.94C130.775 146.6 129.475 145.98 129.475 146.7C129.475 146.86 129.615 147.06 129.895 147.06C130.315 147.06 130.855 147 131.475 147C132.095 147 132.695 147.06 133.115 147.06C133.355 147.06 133.495 146.86 133.495 146.7C133.495 145.98 132.175 146.6 132.175 144.94V141.18C132.175 139.22 133.335 138.28 134.595 138.28C136.255 138.28 136.495 140.02 136.655 141.1L137.195 144.74C137.215 144.88 137.235 145.08 137.235 145.22C137.235 146.52 135.835 145.98 135.835 146.68C135.835 146.92 136.055 147.06 136.335 147.06C136.915 147.06 137.175 147 137.955 147C138.695 147 139.055 147.06 139.615 147.06C139.875 147.06 140.115 146.96 140.115 146.72C140.115 145.94 138.875 146.66 138.595 144.74ZM146.978 136.96C145.378 136.96 144.138 137.74 143.418 138.86V137.7C143.418 137.36 143.338 137.08 143.058 137.08C142.858 137.08 142.698 137.14 141.798 137.6C140.878 138.06 140.578 138.26 140.578 138.56C140.578 139.3 142.018 138.58 142.018 139.8V148.5C142.018 150.16 140.738 149.54 140.738 150.26C140.738 150.42 140.858 150.62 141.138 150.62C141.538 150.62 142.118 150.56 142.718 150.56C143.398 150.56 144.098 150.62 144.558 150.62C144.798 150.62 144.918 150.42 144.918 150.26C144.918 149.5 143.418 150.16 143.418 148.5V146.14C144.078 146.72 145.138 147.24 146.618 147.24C149.198 147.24 151.418 145.28 151.418 142C151.418 139.06 149.578 136.96 146.978 136.96ZM146.638 146.34C144.818 146.34 143.418 145.18 143.418 143.14V141.44C143.418 139.24 144.978 138.1 146.538 138.1C148.578 138.1 149.938 140 149.938 142.46C149.938 145.02 148.478 146.34 146.638 146.34ZM159.168 137C157.768 137 156.348 138.1 155.628 139.84V137.7C155.628 137.3 155.528 137.08 155.268 137.08C155.108 137.08 154.908 137.14 153.988 137.6C153.068 138.06 152.768 138.28 152.768 138.56C152.768 139.3 154.228 138.58 154.228 139.8V144.94C154.228 146.6 152.928 145.98 152.928 146.7C152.928 146.86 153.048 147.06 153.328 147.06C153.748 147.06 154.328 147 154.928 147C155.628 147 156.368 147.06 156.848 147.06C157.088 147.06 157.208 146.86 157.208 146.7C157.208 145.92 155.628 146.6 155.628 144.94V143.02C155.628 140.08 157.428 138.38 158.428 138.38C158.808 138.38 159.048 138.64 159.268 139.22C159.388 139.54 159.468 139.76 159.728 139.76C159.988 139.76 160.108 139.56 160.188 139.24C160.388 138.42 160.448 138 160.448 137.76C160.448 137.34 159.928 137 159.168 137ZM166.209 147.34C169.189 147.34 171.429 145.1 171.429 142.08C171.429 138.98 169.289 136.88 166.389 136.88C163.409 136.88 161.169 139.12 161.169 142.16C161.169 145.24 163.309 147.34 166.209 147.34ZM166.589 146.4C164.309 146.4 162.669 144.14 162.669 141.48C162.669 139.46 163.969 137.82 166.009 137.82C168.289 137.82 169.929 140.08 169.929 142.76C169.929 144.76 168.629 146.4 166.589 146.4ZM182.257 137.16C181.737 137.16 181.257 137.22 180.697 137.22C180.177 137.22 179.637 137.16 179.237 137.16C178.977 137.16 178.797 137.26 178.797 137.52C178.797 138.16 180.077 137.9 180.077 138.72C180.077 139 179.937 139.34 179.737 139.86L177.497 145.56L175.197 139.86C174.977 139.34 174.897 138.92 174.897 138.8C174.897 137.88 176.117 138.16 176.117 137.52C176.117 137.26 175.937 137.16 175.677 137.16C175.277 137.16 174.717 137.22 174.057 137.22C173.277 137.22 172.777 137.16 172.257 137.16C172.017 137.16 171.837 137.26 171.837 137.48C171.837 138.08 172.877 137.9 173.297 138.92L176.497 146.54C176.677 146.98 176.857 147.08 177.257 147.08C177.637 147.08 177.837 147 178.017 146.56L181.217 138.88C181.617 137.9 182.677 138.08 182.677 137.48C182.677 137.26 182.497 137.16 182.257 137.16ZM191.744 144.6C191.584 144.6 191.424 144.7 191.284 144.88C190.664 145.62 189.604 146.2 188.364 146.2C186.664 146.2 185.304 144.96 184.784 143.18L191.324 141.24C191.604 141.16 191.704 141.02 191.704 140.66C191.704 138.7 190.084 136.88 187.784 136.88C185.244 136.88 183.044 139.06 183.044 142.14C183.044 145.52 185.344 147.34 187.944 147.34C189.464 147.34 191.164 146.56 191.924 145.5C192.064 145.3 192.124 145.14 192.124 145.02C192.124 144.76 191.924 144.6 191.744 144.6ZM187.564 137.9C189.084 137.9 190.064 139.2 190.064 140.2C190.064 140.54 189.984 140.64 189.624 140.74L184.584 142.28C184.564 142.04 184.544 141.78 184.544 141.52C184.544 139.36 185.864 137.9 187.564 137.9ZM208.537 144.74L207.997 141C207.737 139.22 207.217 137.02 204.857 137.02C203.337 137.02 202.377 137.88 201.817 138.98C201.457 137.92 200.697 137.02 199.217 137.02C197.757 137.02 196.757 137.9 196.117 138.94V137.7C196.117 137.34 196.037 137.08 195.757 137.08C195.577 137.08 195.397 137.12 194.457 137.6C193.557 138.06 193.257 138.28 193.257 138.56C193.257 139.3 194.717 138.58 194.717 139.8V144.94C194.717 146.6 193.417 145.98 193.417 146.7C193.417 146.86 193.557 147.06 193.817 147.06C194.257 147.06 194.817 147 195.417 147C196.057 147 196.657 147.06 197.077 147.06C197.317 147.06 197.437 146.86 197.437 146.7C197.437 145.98 196.117 146.6 196.117 144.94V141.36C196.117 139.3 197.497 138.28 198.777 138.28C200.477 138.28 200.717 140 200.717 141.1V144.94C200.717 146.6 199.417 145.98 199.417 146.7C199.417 146.86 199.557 147.06 199.837 147.06C200.257 147.06 200.797 147 201.417 147C202.037 147 202.637 147.06 203.057 147.06C203.297 147.06 203.437 146.86 203.437 146.7C203.437 145.98 202.117 146.6 202.117 144.94V141.18C202.117 139.22 203.277 138.28 204.537 138.28C206.197 138.28 206.437 140.02 206.597 141.1L207.137 144.74C207.157 144.88 207.177 145.08 207.177 145.22C207.177 146.52 205.777 145.98 205.777 146.68C205.777 146.92 205.997 147.06 206.277 147.06C206.857 147.06 207.117 147 207.897 147C208.637 147 208.997 147.06 209.557 147.06C209.817 147.06 210.057 146.96 210.057 146.72C210.057 145.94 208.817 146.66 208.537 144.74ZM219.44 144.6C219.28 144.6 219.12 144.7 218.98 144.88C218.36 145.62 217.3 146.2 216.06 146.2C214.36 146.2 213 144.96 212.48 143.18L219.02 141.24C219.3 141.16 219.4 141.02 219.4 140.66C219.4 138.7 217.78 136.88 215.48 136.88C212.94 136.88 210.74 139.06 210.74 142.14C210.74 145.52 213.04 147.34 215.64 147.34C217.16 147.34 218.86 146.56 219.62 145.5C219.76 145.3 219.82 145.14 219.82 145.02C219.82 144.76 219.62 144.6 219.44 144.6ZM215.26 137.9C216.78 137.9 217.76 139.2 217.76 140.2C217.76 140.54 217.68 140.64 217.32 140.74L212.28 142.28C212.26 142.04 212.24 141.78 212.24 141.52C212.24 139.36 213.56 137.9 215.26 137.9ZM230.652 144.74L230.132 141C229.932 139.54 229.472 137.02 226.972 137.02C225.472 137.02 224.472 137.9 223.812 138.94V137.7C223.812 137.3 223.712 137.08 223.452 137.08C223.292 137.08 223.092 137.14 222.172 137.6C221.252 138.06 220.952 138.28 220.952 138.56C220.952 139.3 222.412 138.58 222.412 139.8V144.94C222.412 146.6 221.112 145.98 221.112 146.7C221.112 146.86 221.232 147.06 221.512 147.06C221.932 147.06 222.512 147 223.112 147C223.732 147 224.352 147.06 224.772 147.06C225.012 147.06 225.132 146.86 225.132 146.7C225.132 145.98 223.812 146.6 223.812 144.94V141.4C223.812 139.34 225.212 138.28 226.512 138.28C228.232 138.28 228.572 140.18 228.712 141.1L229.232 144.74C229.252 144.88 229.272 145.1 229.272 145.22C229.272 146.52 227.872 145.98 227.872 146.68C227.872 146.92 228.072 147.06 228.372 147.06C228.932 147.06 229.252 147 230.012 147C230.732 147 231.132 147.06 231.672 147.06C231.932 147.06 232.152 146.96 232.152 146.7C232.152 145.94 230.912 146.66 230.652 144.74ZM239.308 145C239.148 145 238.988 145.12 238.868 145.24C238.488 145.58 237.968 146.14 237.048 146.14C236.168 146.14 235.588 145.68 235.588 144.22V138.16H239.108C239.288 138.16 239.388 138.08 239.428 137.88C239.448 137.78 239.488 137.6 239.488 137.46C239.488 137.32 239.388 137.24 239.188 137.24H235.588V133.92C235.588 133.6 235.448 133.46 235.268 133.46C234.988 133.46 234.888 133.68 234.808 134.12C234.408 136.08 233.908 136.84 232.728 137.28C232.448 137.38 232.268 137.52 232.268 137.76C232.268 138.02 232.468 138.16 232.788 138.16H234.188V142.08C234.188 143.46 234.148 145 234.148 145.42C234.148 146.4 235.148 147.22 236.648 147.22C237.608 147.22 238.588 146.88 239.308 146.12C239.568 145.84 239.688 145.62 239.688 145.4C239.688 145.18 239.528 145 239.308 145ZM42.26 160.68C43.14 160.68 43.84 159.92 43.84 159.24C43.84 158.64 43.38 158.3 42.86 158.3C41.98 158.3 41.32 159.08 41.32 159.76C41.32 160.38 41.82 160.68 42.26 160.68ZM41.18 173.06C41.6 173.06 42.18 173 42.78 173C43.4 173 44.02 173.06 44.44 173.06C44.68 173.06 44.8 172.86 44.8 172.7C44.8 171.98 43.48 172.6 43.48 170.94V163.7C43.48 163.3 43.38 163.08 43.12 163.08C42.96 163.08 42.76 163.14 41.84 163.6C40.92 164.06 40.62 164.28 40.62 164.56C40.62 165.3 42.08 164.58 42.08 165.8V170.94C42.08 172.6 40.78 171.98 40.78 172.7C40.78 172.86 40.9 173.06 41.18 173.06ZM55.6716 170.74L55.1516 167C54.9516 165.54 54.4916 163.02 51.9916 163.02C50.4916 163.02 49.4916 163.9 48.8316 164.94V163.7C48.8316 163.3 48.7316 163.08 48.4716 163.08C48.3116 163.08 48.1116 163.14 47.1916 163.6C46.2716 164.06 45.9716 164.28 45.9716 164.56C45.9716 165.3 47.4316 164.58 47.4316 165.8V170.94C47.4316 172.6 46.1316 171.98 46.1316 172.7C46.1316 172.86 46.2516 173.06 46.5316 173.06C46.9516 173.06 47.5316 173 48.1316 173C48.7516 173 49.3716 173.06 49.7916 173.06C50.0316 173.06 50.1516 172.86 50.1516 172.7C50.1516 171.98 48.8316 172.6 48.8316 170.94V167.4C48.8316 165.34 50.2316 164.28 51.5316 164.28C53.2516 164.28 53.5916 166.18 53.7316 167.1L54.2516 170.74C54.2716 170.88 54.2916 171.1 54.2916 171.22C54.2916 172.52 52.8916 171.98 52.8916 172.68C52.8916 172.92 53.0916 173.06 53.3916 173.06C53.9516 173.06 54.2716 173 55.0316 173C55.7516 173 56.1516 173.06 56.6916 173.06C56.9516 173.06 57.1716 172.96 57.1716 172.7C57.1716 171.94 55.9316 172.66 55.6716 170.74ZM69.328 171C69.168 171 69.008 171.12 68.888 171.24C68.508 171.58 67.988 172.14 67.068 172.14C66.188 172.14 65.608 171.68 65.608 170.22V164.16H69.128C69.308 164.16 69.408 164.08 69.448 163.88C69.468 163.78 69.508 163.6 69.508 163.46C69.508 163.32 69.408 163.24 69.208 163.24H65.608V159.92C65.608 159.6 65.468 159.46 65.288 159.46C65.008 159.46 64.908 159.68 64.828 160.12C64.428 162.08 63.928 162.84 62.748 163.28C62.468 163.38 62.288 163.52 62.288 163.76C62.288 164.02 62.488 164.16 62.808 164.16H64.208V168.08C64.208 169.46 64.168 171 64.168 171.42C64.168 172.4 65.168 173.22 66.668 173.22C67.628 173.22 68.608 172.88 69.328 172.12C69.588 171.84 69.708 171.62 69.708 171.4C69.708 171.18 69.548 171 69.328 171ZM79.9247 170.74L79.4047 167C79.2047 165.54 78.7647 163.02 76.2447 163.02C74.7447 163.02 73.7447 163.9 73.0847 164.94V158.32C73.0847 158.12 73.0047 157.92 72.7847 157.92C72.5647 157.92 72.3647 157.98 71.4447 158.44C70.5247 158.9 70.2247 159.12 70.2247 159.4C70.2247 160.14 71.6847 159.42 71.6847 160.64V170.94C71.6847 172.6 70.3847 171.98 70.3847 172.7C70.3847 172.86 70.5047 173.06 70.7847 173.06C71.2047 173.06 71.7847 173 72.3847 173C73.0047 173 73.6247 173.06 74.0447 173.06C74.2847 173.06 74.4047 172.86 74.4047 172.7C74.4047 171.98 73.0847 172.6 73.0847 170.94V167.4C73.0847 165.34 74.4847 164.28 75.7847 164.28C77.5047 164.28 77.8447 166.18 77.9847 167.1L78.5047 170.74C78.5247 170.9 78.5447 171.1 78.5447 171.22C78.5447 172.52 77.1447 171.98 77.1447 172.68C77.1447 172.92 77.3447 173.06 77.6447 173.06C78.2047 173.06 78.5247 173 79.2847 173C80.0047 173 80.4047 173.06 80.9447 173.06C81.2047 173.06 81.4247 172.96 81.4247 172.72C81.4247 171.94 80.1847 172.66 79.9247 170.74ZM90.8458 170.6C90.6858 170.6 90.5258 170.7 90.3858 170.88C89.7658 171.62 88.7058 172.2 87.4658 172.2C85.7658 172.2 84.4058 170.96 83.8858 169.18L90.4258 167.24C90.7058 167.16 90.8058 167.02 90.8058 166.66C90.8058 164.7 89.1858 162.88 86.8858 162.88C84.3458 162.88 82.1458 165.06 82.1458 168.14C82.1458 171.52 84.4458 173.34 87.0458 173.34C88.5658 173.34 90.2658 172.56 91.0258 171.5C91.1658 171.3 91.2258 171.14 91.2258 171.02C91.2258 170.76 91.0258 170.6 90.8458 170.6ZM86.6658 163.9C88.1858 163.9 89.1658 165.2 89.1658 166.2C89.1658 166.54 89.0858 166.64 88.7258 166.74L83.6858 168.28C83.6658 168.04 83.6458 167.78 83.6458 167.52C83.6458 165.36 84.9658 163.9 86.6658 163.9ZM106.858 170.74L106.338 167C106.138 165.54 105.698 163.02 103.178 163.02C101.678 163.02 100.678 163.9 100.018 164.94V158.32C100.018 158.12 99.9383 157.92 99.7183 157.92C99.4983 157.92 99.2983 157.98 98.3783 158.44C97.4583 158.9 97.1583 159.12 97.1583 159.4C97.1583 160.14 98.6183 159.42 98.6183 160.64V170.94C98.6183 172.6 97.3183 171.98 97.3183 172.7C97.3183 172.86 97.4383 173.06 97.7183 173.06C98.1383 173.06 98.7183 173 99.3183 173C99.9383 173 100.558 173.06 100.978 173.06C101.218 173.06 101.338 172.86 101.338 172.7C101.338 171.98 100.018 172.6 100.018 170.94V167.4C100.018 165.34 101.418 164.28 102.718 164.28C104.438 164.28 104.778 166.18 104.918 167.1L105.438 170.74C105.458 170.9 105.478 171.1 105.478 171.22C105.478 172.52 104.078 171.98 104.078 172.68C104.078 172.92 104.278 173.06 104.578 173.06C105.138 173.06 105.458 173 106.218 173C106.938 173 107.338 173.06 107.878 173.06C108.138 173.06 108.358 172.96 108.358 172.72C108.358 171.94 107.118 172.66 106.858 170.74ZM114.119 173.34C117.099 173.34 119.339 171.1 119.339 168.08C119.339 164.98 117.199 162.88 114.299 162.88C111.319 162.88 109.079 165.12 109.079 168.16C109.079 171.24 111.219 173.34 114.119 173.34ZM114.499 172.4C112.219 172.4 110.579 170.14 110.579 167.48C110.579 165.46 111.879 163.82 113.919 163.82C116.199 163.82 117.839 166.08 117.839 168.76C117.839 170.76 116.539 172.4 114.499 172.4ZM122.359 173.26C122.779 173.26 122.819 172.76 123.179 172.76C123.459 172.76 124.419 173.22 125.759 173.22C127.979 173.22 129.479 172.06 129.479 170.34C129.479 168.24 127.479 167.66 125.439 167.16C123.359 166.64 122.459 166.4 122.459 165.32C122.459 164.52 123.139 163.92 124.279 163.92C125.599 163.92 126.939 164.7 127.939 165.64C128.119 165.8 128.339 166 128.519 166C128.699 166 128.859 165.86 128.859 165.64C128.859 165.44 128.639 165.04 128.439 164.7L127.819 163.64C127.599 163.28 127.439 162.98 127.139 162.98C126.779 162.98 126.779 163.38 126.459 163.38C126.159 163.38 125.299 163.02 124.199 163.02C122.219 163.02 120.979 164.2 120.979 165.64C120.979 167.58 123.179 168.14 125.039 168.6C126.939 169.04 127.999 169.3 127.999 170.52C127.999 171.52 127.119 172.32 125.719 172.32C124.299 172.32 122.939 171.5 121.619 170.2C121.439 170.02 121.219 169.82 121.039 169.82C120.819 169.82 120.679 169.96 120.679 170.2C120.679 170.42 120.839 170.68 121.219 171.46L121.819 172.7C121.939 172.94 122.079 173.26 122.359 173.26ZM137.017 162.96C135.417 162.96 134.177 163.74 133.457 164.86V163.7C133.457 163.36 133.377 163.08 133.097 163.08C132.897 163.08 132.737 163.14 131.837 163.6C130.917 164.06 130.617 164.26 130.617 164.56C130.617 165.3 132.057 164.58 132.057 165.8V174.5C132.057 176.16 130.777 175.54 130.777 176.26C130.777 176.42 130.897 176.62 131.177 176.62C131.577 176.62 132.157 176.56 132.757 176.56C133.437 176.56 134.137 176.62 134.597 176.62C134.837 176.62 134.957 176.42 134.957 176.26C134.957 175.5 133.457 176.16 133.457 174.5V172.14C134.117 172.72 135.177 173.24 136.657 173.24C139.237 173.24 141.457 171.28 141.457 168C141.457 165.06 139.617 162.96 137.017 162.96ZM136.677 172.34C134.857 172.34 133.457 171.18 133.457 169.14V167.44C133.457 165.24 135.017 164.1 136.577 164.1C138.617 164.1 139.977 166 139.977 168.46C139.977 171.02 138.517 172.34 136.677 172.34ZM144.448 160.68C145.328 160.68 146.028 159.92 146.028 159.24C146.028 158.64 145.568 158.3 145.048 158.3C144.168 158.3 143.507 159.08 143.507 159.76C143.507 160.38 144.008 160.68 144.448 160.68ZM143.368 173.06C143.788 173.06 144.368 173 144.968 173C145.588 173 146.208 173.06 146.628 173.06C146.868 173.06 146.988 172.86 146.988 172.7C146.988 171.98 145.668 172.6 145.668 170.94V163.7C145.668 163.3 145.568 163.08 145.308 163.08C145.148 163.08 144.948 163.14 144.028 163.6C143.108 164.06 142.808 164.28 142.808 164.56C142.808 165.3 144.268 164.58 144.268 165.8V170.94C144.268 172.6 142.968 171.98 142.968 172.7C142.968 172.86 143.088 173.06 143.368 173.06ZM154.699 171C154.539 171 154.379 171.12 154.259 171.24C153.879 171.58 153.359 172.14 152.439 172.14C151.559 172.14 150.979 171.68 150.979 170.22V164.16H154.499C154.679 164.16 154.779 164.08 154.819 163.88C154.839 163.78 154.879 163.6 154.879 163.46C154.879 163.32 154.779 163.24 154.579 163.24H150.979V159.92C150.979 159.6 150.839 159.46 150.659 159.46C150.379 159.46 150.279 159.68 150.199 160.12C149.799 162.08 149.299 162.84 148.119 163.28C147.839 163.38 147.659 163.52 147.659 163.76C147.659 164.02 147.859 164.16 148.179 164.16H149.579V168.08C149.579 169.46 149.539 171 149.539 171.42C149.539 172.4 150.539 173.22 152.039 173.22C152.999 173.22 153.979 172.88 154.699 172.12C154.959 171.84 155.079 171.62 155.079 171.4C155.079 171.18 154.919 171 154.699 171ZM165.656 172.08C164.656 171.9 164.216 171.76 163.996 170.2L163.496 166.8C163.216 164.94 162.796 163.02 160.176 163.02C158.736 163.02 157.256 163.88 156.636 164.84C156.476 165.08 156.436 165.2 156.436 165.34C156.436 165.56 156.616 165.7 156.796 165.7C156.916 165.7 157.036 165.64 157.196 165.48C157.956 164.74 158.796 164.22 159.696 164.22C161.076 164.22 161.856 164.9 162.196 167.3L162.236 167.58C161.456 167.34 160.676 167.16 159.816 167.16C157.316 167.16 155.796 168.54 155.796 170.28C155.796 172 157.136 173.22 159.156 173.22C160.716 173.22 162.016 172.54 162.796 171.56C163.076 172.68 163.736 173.16 164.536 173.16C165.256 173.16 165.956 172.68 165.956 172.36C165.956 172.22 165.876 172.12 165.656 172.08ZM159.536 172.2C158.196 172.2 157.316 171.34 157.316 170.16C157.316 168.92 158.216 168.08 160.016 168.08C160.776 168.08 161.596 168.24 162.376 168.54L162.636 170.48C162.036 171.4 160.816 172.2 159.536 172.2ZM166.761 173.06C167.181 173.06 167.761 173 168.361 173C168.981 173 169.601 173.06 170.021 173.06C170.261 173.06 170.381 172.86 170.381 172.7C170.381 171.98 169.061 172.6 169.061 170.94V158.54C169.061 158.14 168.961 157.92 168.701 157.92C168.541 157.92 168.341 157.98 167.421 158.44C166.501 158.9 166.201 159.12 166.201 159.4C166.201 160.14 167.661 159.42 167.661 160.64V170.94C167.661 172.6 166.361 171.98 166.361 172.7C166.361 172.86 166.481 173.06 166.761 173.06ZM174.718 169.68C174.938 169.68 175.078 169.54 175.098 169.36C175.138 169.06 175.158 168.64 175.238 167.6C175.278 166.92 175.678 166.3 176.558 165.3C177.538 164.22 178.278 163.32 178.278 161.68C178.278 159.88 176.918 158.52 175.058 158.52C173.078 158.52 171.597 159.7 171.597 160.52C171.597 160.86 171.698 161.46 172.238 162.14C172.398 162.34 172.498 162.48 172.698 162.48C172.898 162.48 173.018 162.3 173.078 161.94C173.338 160.4 173.998 159.48 175.198 159.48C176.378 159.48 177.018 160.34 177.018 161.44C177.018 162.44 176.618 162.96 175.598 164.1C174.638 165.18 174.198 166.1 174.198 167.14C174.198 167.76 174.258 168.92 174.338 169.36C174.378 169.54 174.498 169.68 174.718 169.68ZM174.838 171.2C175.478 171.2 175.958 171.52 175.958 172.16C175.958 172.72 175.398 173.16 174.678 173.16C174.038 173.16 173.558 172.84 173.558 172.22C173.558 171.62 174.118 171.2 174.838 171.2Z" fill="white"/>
</svg>
