<svg width="306" height="281" viewBox="0 0 306 281" fill="none" xmlns="http://www.w3.org/2000/svg">
<circle opacity="0.6" cx="140.5" cy="140.5" r="140.5" fill="#2D9CDB"/>
<path d="M62.68 106.16V95.72C62.68 94.4 64.04 94.92 64.04 94.16C64.04 93.98 63.92 93.82 63.62 93.82C63.18 93.82 62.54 93.88 61.9 93.88C61.26 93.88 60.62 93.82 60.18 93.82C59.88 93.82 59.76 93.98 59.76 94.16C59.76 94.92 61.12 94.4 61.12 95.72V99.94C61.12 100.24 61.02 100.36 60.58 100.36H53.42C52.98 100.36 52.88 100.24 52.88 99.94V95.72C52.88 94.4 54.24 94.92 54.24 94.16C54.24 93.98 54.12 93.82 53.82 93.82C53.38 93.82 52.72 93.88 52.08 93.88C51.44 93.88 50.82 93.82 50.38 93.82C50.08 93.82 49.96 93.98 49.96 94.16C49.96 94.92 51.32 94.4 51.32 95.72V106.16C51.32 107.48 49.96 106.96 49.96 107.72C49.96 107.9 50.08 108.06 50.38 108.06C50.82 108.06 51.44 108 52.08 108C52.72 108 53.38 108.06 53.82 108.06C54.12 108.06 54.24 107.9 54.24 107.72C54.24 106.96 52.88 107.48 52.88 106.16V101.7C52.88 101.4 52.98 101.28 53.42 101.28H60.58C61.02 101.28 61.12 101.4 61.12 101.7V106.16C61.12 107.48 59.76 106.96 59.76 107.72C59.76 107.9 59.88 108.06 60.18 108.06C60.62 108.06 61.26 108 61.9 108C62.54 108 63.18 108.06 63.62 108.06C63.92 108.06 64.04 107.9 64.04 107.72C64.04 106.96 62.68 107.48 62.68 106.16ZM70.4827 108.34C73.4627 108.34 75.7027 106.1 75.7027 103.08C75.7027 99.98 73.5627 97.88 70.6627 97.88C67.6827 97.88 65.4427 100.12 65.4427 103.16C65.4427 106.24 67.5827 108.34 70.4827 108.34ZM70.8627 107.4C68.5827 107.4 66.9427 105.14 66.9427 102.48C66.9427 100.46 68.2427 98.82 70.2827 98.82C72.5627 98.82 74.2027 101.08 74.2027 103.76C74.2027 105.76 72.9027 107.4 70.8627 107.4ZM92.7084 98.16C92.1884 98.16 91.7084 98.22 91.1284 98.22C90.6084 98.22 90.0684 98.16 89.6884 98.16C89.4084 98.16 89.1884 98.26 89.1884 98.52C89.1884 99.16 90.4684 98.88 90.4684 99.8C90.4684 99.98 90.4084 100.26 90.1684 100.86L87.9084 106.4L85.8684 100.84C85.6684 100.32 85.5884 100.02 85.5884 99.82C85.5884 99.08 86.9684 99.16 86.9684 98.52C86.9684 98.26 86.7684 98.16 86.4884 98.16C86.0884 98.16 85.4084 98.22 84.7084 98.22C83.9484 98.22 83.5884 98.16 83.0884 98.16C82.8484 98.16 82.6484 98.26 82.6484 98.48C82.6484 99.08 83.6084 98.88 84.0484 100.06L84.2884 100.68L81.8884 106.38L79.5684 100.84C79.3884 100.42 79.2884 99.92 79.2884 99.8C79.2884 98.88 80.4684 99.16 80.4684 98.52C80.4684 98.26 80.2484 98.16 80.0084 98.16C79.6084 98.16 79.0884 98.22 78.4084 98.22C77.6284 98.22 77.1084 98.16 76.5884 98.16C76.3484 98.16 76.1484 98.26 76.1484 98.48C76.1484 99.08 77.2084 98.9 77.7084 100.06L80.8684 107.52C81.0284 107.88 81.1484 108.08 81.6284 108.08C82.2484 108.08 82.2884 107.8 82.4084 107.54L84.7884 102.02L86.8884 107.52C87.0284 107.88 87.1884 108.08 87.6684 108.08C88.1284 108.08 88.2684 107.92 88.4284 107.54L91.6084 100.08C92.1084 98.9 93.1684 99.08 93.1684 98.48C93.1684 98.26 92.9284 98.16 92.7084 98.16ZM103.033 108.34C104.633 108.34 106.193 107.52 106.813 106.48C106.913 106.3 106.993 106.12 106.993 105.96C106.993 105.68 106.833 105.54 106.633 105.54C106.473 105.54 106.333 105.64 106.173 105.86C105.493 106.78 104.573 107.2 103.573 107.2C101.473 107.2 99.8733 105.3 99.8733 102.8C99.8733 100.4 101.153 98.8 102.873 98.8C104.353 98.8 104.893 99.74 105.173 101.26C105.233 101.64 105.353 101.82 105.573 101.82C105.773 101.82 105.893 101.68 106.053 101.46C106.573 100.7 106.733 100.12 106.733 99.76C106.733 99.02 105.113 97.88 103.213 97.88C100.493 97.88 98.3533 100.08 98.3533 103.24C98.3533 106.56 100.553 108.34 103.033 108.34ZM117.937 107.08C116.937 106.9 116.497 106.76 116.277 105.2L115.777 101.8C115.497 99.94 115.077 98.02 112.457 98.02C111.017 98.02 109.537 98.88 108.917 99.84C108.757 100.08 108.717 100.2 108.717 100.34C108.717 100.56 108.897 100.7 109.077 100.7C109.197 100.7 109.317 100.64 109.477 100.48C110.237 99.74 111.077 99.22 111.977 99.22C113.357 99.22 114.137 99.9 114.477 102.3L114.517 102.58C113.737 102.34 112.957 102.16 112.097 102.16C109.597 102.16 108.077 103.54 108.077 105.28C108.077 107 109.417 108.22 111.437 108.22C112.997 108.22 114.297 107.54 115.077 106.56C115.357 107.68 116.017 108.16 116.817 108.16C117.537 108.16 118.237 107.68 118.237 107.36C118.237 107.22 118.157 107.12 117.937 107.08ZM111.817 107.2C110.477 107.2 109.597 106.34 109.597 105.16C109.597 103.92 110.497 103.08 112.297 103.08C113.057 103.08 113.877 103.24 114.657 103.54L114.917 105.48C114.317 106.4 113.097 107.2 111.817 107.2ZM128.383 105.74L127.863 102C127.663 100.54 127.203 98.02 124.703 98.02C123.202 98.02 122.203 98.9 121.543 99.94V98.7C121.543 98.3 121.443 98.08 121.183 98.08C121.023 98.08 120.823 98.14 119.903 98.6C118.983 99.06 118.683 99.28 118.683 99.56C118.683 100.3 120.143 99.58 120.143 100.8V105.94C120.143 107.6 118.843 106.98 118.843 107.7C118.843 107.86 118.963 108.06 119.243 108.06C119.663 108.06 120.243 108 120.843 108C121.463 108 122.083 108.06 122.503 108.06C122.743 108.06 122.863 107.86 122.863 107.7C122.863 106.98 121.543 107.6 121.543 105.94V102.4C121.543 100.34 122.943 99.28 124.243 99.28C125.963 99.28 126.303 101.18 126.443 102.1L126.963 105.74C126.983 105.88 127.003 106.1 127.003 106.22C127.003 107.52 125.603 106.98 125.603 107.68C125.603 107.92 125.803 108.06 126.103 108.06C126.663 108.06 126.983 108 127.743 108C128.463 108 128.863 108.06 129.403 108.06C129.663 108.06 129.883 107.96 129.883 107.7C129.883 106.94 128.643 107.66 128.383 105.74ZM150.892 98.16C150.372 98.16 149.892 98.22 149.312 98.22C148.792 98.22 148.252 98.16 147.872 98.16C147.592 98.16 147.372 98.26 147.372 98.52C147.372 99.16 148.652 98.88 148.652 99.8C148.652 99.98 148.592 100.26 148.352 100.86L146.092 106.4L144.052 100.84C143.852 100.32 143.772 100.02 143.772 99.82C143.772 99.08 145.152 99.16 145.152 98.52C145.152 98.26 144.952 98.16 144.672 98.16C144.272 98.16 143.592 98.22 142.892 98.22C142.132 98.22 141.772 98.16 141.272 98.16C141.032 98.16 140.832 98.26 140.832 98.48C140.832 99.08 141.792 98.88 142.232 100.06L142.472 100.68L140.072 106.38L137.752 100.84C137.572 100.42 137.472 99.92 137.472 99.8C137.472 98.88 138.652 99.16 138.652 98.52C138.652 98.26 138.432 98.16 138.192 98.16C137.792 98.16 137.272 98.22 136.592 98.22C135.812 98.22 135.292 98.16 134.772 98.16C134.532 98.16 134.332 98.26 134.332 98.48C134.332 99.08 135.392 98.9 135.892 100.06L139.052 107.52C139.212 107.88 139.332 108.08 139.812 108.08C140.432 108.08 140.472 107.8 140.592 107.54L142.972 102.02L145.072 107.52C145.212 107.88 145.372 108.08 145.852 108.08C146.312 108.08 146.452 107.92 146.612 107.54L149.792 100.08C150.292 98.9 151.352 99.08 151.352 98.48C151.352 98.26 151.112 98.16 150.892 98.16ZM160.451 105.6C160.291 105.6 160.131 105.7 159.991 105.88C159.371 106.62 158.311 107.2 157.071 107.2C155.371 107.2 154.011 105.96 153.491 104.18L160.031 102.24C160.311 102.16 160.411 102.02 160.411 101.66C160.411 99.7 158.791 97.88 156.491 97.88C153.951 97.88 151.751 100.06 151.751 103.14C151.751 106.52 154.051 108.34 156.651 108.34C158.171 108.34 159.871 107.56 160.631 106.5C160.771 106.3 160.831 106.14 160.831 106.02C160.831 105.76 160.631 105.6 160.451 105.6ZM156.271 98.9C157.791 98.9 158.771 100.2 158.771 101.2C158.771 101.54 158.691 101.64 158.331 101.74L153.291 103.28C153.271 103.04 153.251 102.78 153.251 102.52C153.251 100.36 154.571 98.9 156.271 98.9ZM171.764 108.34C173.364 108.34 174.924 107.52 175.544 106.48C175.644 106.3 175.724 106.12 175.724 105.96C175.724 105.68 175.564 105.54 175.364 105.54C175.204 105.54 175.064 105.64 174.904 105.86C174.224 106.78 173.304 107.2 172.304 107.2C170.204 107.2 168.604 105.3 168.604 102.8C168.604 100.4 169.884 98.8 171.604 98.8C173.084 98.8 173.624 99.74 173.904 101.26C173.964 101.64 174.084 101.82 174.304 101.82C174.504 101.82 174.624 101.68 174.784 101.46C175.304 100.7 175.464 100.12 175.464 99.76C175.464 99.02 173.844 97.88 171.944 97.88C169.224 97.88 167.084 100.08 167.084 103.24C167.084 106.56 169.284 108.34 171.764 108.34ZM183.208 98C181.808 98 180.388 99.1 179.668 100.84V98.7C179.668 98.3 179.568 98.08 179.308 98.08C179.148 98.08 178.948 98.14 178.028 98.6C177.108 99.06 176.808 99.28 176.808 99.56C176.808 100.3 178.268 99.58 178.268 100.8V105.94C178.268 107.6 176.968 106.98 176.968 107.7C176.968 107.86 177.088 108.06 177.368 108.06C177.788 108.06 178.368 108 178.968 108C179.668 108 180.408 108.06 180.888 108.06C181.128 108.06 181.248 107.86 181.248 107.7C181.248 106.92 179.668 107.6 179.668 105.94V104.02C179.668 101.08 181.467 99.38 182.468 99.38C182.848 99.38 183.088 99.64 183.308 100.22C183.428 100.54 183.508 100.76 183.768 100.76C184.028 100.76 184.148 100.56 184.228 100.24C184.428 99.42 184.488 99 184.488 98.76C184.488 98.34 183.968 98 183.208 98ZM193.908 105.6C193.748 105.6 193.588 105.7 193.448 105.88C192.828 106.62 191.768 107.2 190.528 107.2C188.828 107.2 187.468 105.96 186.948 104.18L193.488 102.24C193.768 102.16 193.868 102.02 193.868 101.66C193.868 99.7 192.248 97.88 189.948 97.88C187.408 97.88 185.208 100.06 185.208 103.14C185.208 106.52 187.508 108.34 190.108 108.34C191.628 108.34 193.328 107.56 194.088 106.5C194.228 106.3 194.288 106.14 194.288 106.02C194.288 105.76 194.088 105.6 193.908 105.6ZM189.728 98.9C191.248 98.9 192.228 100.2 192.228 101.2C192.228 101.54 192.148 101.64 191.788 101.74L186.748 103.28C186.728 103.04 186.708 102.78 186.708 102.52C186.708 100.36 188.028 98.9 189.728 98.9ZM205.281 107.08C204.281 106.9 203.841 106.76 203.621 105.2L203.121 101.8C202.841 99.94 202.421 98.02 199.801 98.02C198.361 98.02 196.881 98.88 196.261 99.84C196.101 100.08 196.061 100.2 196.061 100.34C196.061 100.56 196.241 100.7 196.421 100.7C196.541 100.7 196.661 100.64 196.821 100.48C197.581 99.74 198.421 99.22 199.321 99.22C200.701 99.22 201.481 99.9 201.821 102.3L201.861 102.58C201.081 102.34 200.301 102.16 199.441 102.16C196.941 102.16 195.421 103.54 195.421 105.28C195.421 107 196.761 108.22 198.781 108.22C200.341 108.22 201.641 107.54 202.421 106.56C202.701 107.68 203.361 108.16 204.161 108.16C204.881 108.16 205.581 107.68 205.581 107.36C205.581 107.22 205.501 107.12 205.281 107.08ZM199.161 107.2C197.821 107.2 196.941 106.34 196.941 105.16C196.941 103.92 197.841 103.08 199.641 103.08C200.401 103.08 201.221 103.24 202.001 103.54L202.261 105.48C201.661 106.4 200.441 107.2 199.161 107.2ZM212.469 106C212.309 106 212.149 106.12 212.029 106.24C211.649 106.58 211.129 107.14 210.209 107.14C209.329 107.14 208.749 106.68 208.749 105.22V99.16H212.269C212.449 99.16 212.549 99.08 212.589 98.88C212.609 98.78 212.649 98.6 212.649 98.46C212.649 98.32 212.549 98.24 212.349 98.24H208.749V94.92C208.749 94.6 208.609 94.46 208.429 94.46C208.149 94.46 208.049 94.68 207.969 95.12C207.569 97.08 207.069 97.84 205.889 98.28C205.609 98.38 205.429 98.52 205.429 98.76C205.429 99.02 205.629 99.16 205.949 99.16H207.349V103.08C207.349 104.46 207.309 106 207.309 106.42C207.309 107.4 208.309 108.22 209.809 108.22C210.769 108.22 211.749 107.88 212.469 107.12C212.729 106.84 212.849 106.62 212.849 106.4C212.849 106.18 212.689 106 212.469 106ZM222.268 105.6C222.108 105.6 221.948 105.7 221.808 105.88C221.188 106.62 220.128 107.2 218.888 107.2C217.188 107.2 215.828 105.96 215.308 104.18L221.848 102.24C222.128 102.16 222.228 102.02 222.228 101.66C222.228 99.7 220.608 97.88 218.308 97.88C215.768 97.88 213.568 100.06 213.568 103.14C213.568 106.52 215.868 108.34 218.468 108.34C219.988 108.34 221.688 107.56 222.448 106.5C222.588 106.3 222.648 106.14 222.648 106.02C222.648 105.76 222.448 105.6 222.268 105.6ZM218.088 98.9C219.608 98.9 220.588 100.2 220.588 101.2C220.588 101.54 220.508 101.64 220.148 101.74L215.108 103.28C215.088 103.04 215.068 102.78 215.068 102.52C215.068 100.36 216.388 98.9 218.088 98.9ZM238.64 107.08C237.64 106.9 237.2 106.76 236.98 105.2L236.48 101.8C236.2 99.94 235.78 98.02 233.16 98.02C231.72 98.02 230.24 98.88 229.62 99.84C229.46 100.08 229.42 100.2 229.42 100.34C229.42 100.56 229.6 100.7 229.78 100.7C229.9 100.7 230.02 100.64 230.18 100.48C230.94 99.74 231.78 99.22 232.68 99.22C234.06 99.22 234.84 99.9 235.18 102.3L235.22 102.58C234.44 102.34 233.66 102.16 232.8 102.16C230.3 102.16 228.78 103.54 228.78 105.28C228.78 107 230.12 108.22 232.14 108.22C233.7 108.22 235 107.54 235.78 106.56C236.06 107.68 236.72 108.16 237.52 108.16C238.24 108.16 238.94 107.68 238.94 107.36C238.94 107.22 238.86 107.12 238.64 107.08ZM232.52 107.2C231.18 107.2 230.3 106.34 230.3 105.16C230.3 103.92 231.2 103.08 233 103.08C233.76 103.08 234.58 103.24 235.36 103.54L235.62 105.48C235.02 106.4 233.8 107.2 232.52 107.2ZM54.42 134.34C56.02 134.34 57.58 133.52 58.2 132.48C58.3 132.3 58.38 132.12 58.38 131.96C58.38 131.68 58.22 131.54 58.02 131.54C57.86 131.54 57.72 131.64 57.56 131.86C56.88 132.78 55.96 133.2 54.96 133.2C52.86 133.2 51.26 131.3 51.26 128.8C51.26 126.4 52.54 124.8 54.26 124.8C55.74 124.8 56.28 125.74 56.56 127.26C56.62 127.64 56.74 127.82 56.96 127.82C57.16 127.82 57.28 127.68 57.44 127.46C57.96 126.7 58.12 126.12 58.12 125.76C58.12 125.02 56.5 123.88 54.6 123.88C51.88 123.88 49.74 126.08 49.74 129.24C49.74 132.56 51.94 134.34 54.42 134.34ZM64.6038 134.34C67.5838 134.34 69.8238 132.1 69.8238 129.08C69.8238 125.98 67.6838 123.88 64.7838 123.88C61.8038 123.88 59.5638 126.12 59.5638 129.16C59.5638 132.24 61.7038 134.34 64.6038 134.34ZM64.9838 133.4C62.7038 133.4 61.0638 131.14 61.0638 128.48C61.0638 126.46 62.3638 124.82 64.4038 124.82C66.6838 124.82 68.3238 127.08 68.3238 129.76C68.3238 131.76 67.0238 133.4 64.9838 133.4ZM80.863 131.74L80.343 128C80.143 126.54 79.683 124.02 77.183 124.02C75.683 124.02 74.683 124.9 74.023 125.94V124.7C74.023 124.3 73.923 124.08 73.663 124.08C73.503 124.08 73.303 124.14 72.383 124.6C71.463 125.06 71.163 125.28 71.163 125.56C71.163 126.3 72.623 125.58 72.623 126.8V131.94C72.623 133.6 71.323 132.98 71.323 133.7C71.323 133.86 71.443 134.06 71.723 134.06C72.143 134.06 72.723 134 73.323 134C73.943 134 74.563 134.06 74.983 134.06C75.223 134.06 75.343 133.86 75.343 133.7C75.343 132.98 74.023 133.6 74.023 131.94V128.4C74.023 126.34 75.423 125.28 76.723 125.28C78.443 125.28 78.783 127.18 78.923 128.1L79.443 131.74C79.463 131.88 79.483 132.1 79.483 132.22C79.483 133.52 78.083 132.98 78.083 133.68C78.083 133.92 78.283 134.06 78.583 134.06C79.143 134.06 79.463 134 80.223 134C80.943 134 81.343 134.06 81.883 134.06C82.143 134.06 82.363 133.96 82.363 133.7C82.363 132.94 81.123 133.66 80.863 131.74ZM84.6594 134.26C85.0794 134.26 85.1194 133.76 85.4794 133.76C85.7594 133.76 86.7194 134.22 88.0594 134.22C90.2794 134.22 91.7794 133.06 91.7794 131.34C91.7794 129.24 89.7794 128.66 87.7394 128.16C85.6594 127.64 84.7594 127.4 84.7594 126.32C84.7594 125.52 85.4394 124.92 86.5794 124.92C87.8994 124.92 89.2394 125.7 90.2394 126.64C90.4194 126.8 90.6394 127 90.8194 127C90.9994 127 91.1594 126.86 91.1594 126.64C91.1594 126.44 90.9394 126.04 90.7394 125.7L90.1194 124.64C89.8994 124.28 89.7394 123.98 89.4394 123.98C89.0794 123.98 89.0794 124.38 88.7594 124.38C88.4594 124.38 87.5994 124.02 86.4994 124.02C84.5194 124.02 83.2794 125.2 83.2794 126.64C83.2794 128.58 85.4794 129.14 87.3394 129.6C89.2394 130.04 90.2994 130.3 90.2994 131.52C90.2994 132.52 89.4194 133.32 88.0194 133.32C86.5994 133.32 85.2394 132.5 83.9194 131.2C83.7394 131.02 83.5194 130.82 83.3394 130.82C83.1194 130.82 82.9794 130.96 82.9794 131.2C82.9794 131.42 83.1394 131.68 83.5194 132.46L84.1194 133.7C84.2394 133.94 84.3794 134.26 84.6594 134.26ZM99.578 132C99.418 132 99.258 132.12 99.138 132.24C98.758 132.58 98.238 133.14 97.318 133.14C96.438 133.14 95.858 132.68 95.858 131.22V125.16H99.378C99.558 125.16 99.658 125.08 99.698 124.88C99.718 124.78 99.758 124.6 99.758 124.46C99.758 124.32 99.658 124.24 99.458 124.24H95.858V120.92C95.858 120.6 95.718 120.46 95.538 120.46C95.258 120.46 95.158 120.68 95.078 121.12C94.678 123.08 94.178 123.84 92.998 124.28C92.718 124.38 92.538 124.52 92.538 124.76C92.538 125.02 92.738 125.16 93.058 125.16H94.458V129.08C94.458 130.46 94.418 132 94.418 132.42C94.418 133.4 95.418 134.22 96.918 134.22C97.878 134.22 98.858 133.88 99.578 133.12C99.838 132.84 99.958 132.62 99.958 132.4C99.958 132.18 99.798 132 99.578 132ZM110.535 133.08C109.535 132.9 109.095 132.76 108.875 131.2L108.375 127.8C108.095 125.94 107.675 124.02 105.055 124.02C103.615 124.02 102.135 124.88 101.515 125.84C101.355 126.08 101.315 126.2 101.315 126.34C101.315 126.56 101.495 126.7 101.675 126.7C101.795 126.7 101.915 126.64 102.075 126.48C102.835 125.74 103.675 125.22 104.575 125.22C105.955 125.22 106.735 125.9 107.075 128.3L107.115 128.58C106.335 128.34 105.555 128.16 104.695 128.16C102.195 128.16 100.675 129.54 100.675 131.28C100.675 133 102.015 134.22 104.035 134.22C105.595 134.22 106.895 133.54 107.675 132.56C107.955 133.68 108.615 134.16 109.415 134.16C110.135 134.16 110.835 133.68 110.835 133.36C110.835 133.22 110.755 133.12 110.535 133.08ZM104.415 133.2C103.075 133.2 102.195 132.34 102.195 131.16C102.195 129.92 103.095 129.08 104.895 129.08C105.655 129.08 106.475 129.24 107.255 129.54L107.515 131.48C106.915 132.4 105.695 133.2 104.415 133.2ZM120.98 131.74L120.46 128C120.26 126.54 119.8 124.02 117.3 124.02C115.8 124.02 114.8 124.9 114.14 125.94V124.7C114.14 124.3 114.04 124.08 113.78 124.08C113.62 124.08 113.42 124.14 112.5 124.6C111.58 125.06 111.28 125.28 111.28 125.56C111.28 126.3 112.74 125.58 112.74 126.8V131.94C112.74 133.6 111.44 132.98 111.44 133.7C111.44 133.86 111.56 134.06 111.84 134.06C112.26 134.06 112.84 134 113.44 134C114.06 134 114.68 134.06 115.1 134.06C115.34 134.06 115.46 133.86 115.46 133.7C115.46 132.98 114.14 133.6 114.14 131.94V128.4C114.14 126.34 115.54 125.28 116.84 125.28C118.56 125.28 118.9 127.18 119.04 128.1L119.56 131.74C119.58 131.88 119.6 132.1 119.6 132.22C119.6 133.52 118.2 132.98 118.2 133.68C118.2 133.92 118.4 134.06 118.7 134.06C119.26 134.06 119.58 134 120.34 134C121.06 134 121.46 134.06 122 134.06C122.26 134.06 122.48 133.96 122.48 133.7C122.48 132.94 121.24 133.66 120.98 131.74ZM129.637 132C129.477 132 129.317 132.12 129.197 132.24C128.817 132.58 128.297 133.14 127.377 133.14C126.497 133.14 125.917 132.68 125.917 131.22V125.16H129.437C129.617 125.16 129.717 125.08 129.757 124.88C129.777 124.78 129.817 124.6 129.817 124.46C129.817 124.32 129.717 124.24 129.517 124.24H125.917V120.92C125.917 120.6 125.777 120.46 125.597 120.46C125.317 120.46 125.217 120.68 125.137 121.12C124.737 123.08 124.237 123.84 123.057 124.28C122.777 124.38 122.597 124.52 122.597 124.76C122.597 125.02 122.797 125.16 123.117 125.16H124.517V129.08C124.517 130.46 124.477 132 124.477 132.42C124.477 133.4 125.477 134.22 126.977 134.22C127.937 134.22 128.917 133.88 129.637 133.12C129.897 132.84 130.017 132.62 130.017 132.4C130.017 132.18 129.857 132 129.637 132ZM139.113 119.78C139.833 119.78 140.273 120.36 140.453 121.68C140.493 121.98 140.633 122.16 140.873 122.16C141.073 122.16 141.233 121.96 141.333 121.74C141.593 121.16 141.793 120.74 141.793 120.26C141.793 119.36 140.433 118.84 139.313 118.84C137.913 118.84 136.653 119.74 136.653 121.46C136.653 122.48 137.093 123.22 137.213 124.24H135.853C135.653 124.24 135.553 124.32 135.553 124.46C135.553 124.6 135.593 124.78 135.613 124.88C135.653 125.08 135.753 125.16 135.933 125.16H137.253V131.94C137.253 133.6 135.953 132.98 135.953 133.7C135.953 133.86 136.073 134.06 136.353 134.06C136.773 134.06 137.373 134 138.033 134C138.733 134 139.453 134.06 139.973 134.06C140.213 134.06 140.333 133.86 140.333 133.7C140.333 132.92 138.653 133.6 138.653 131.94V125.16H140.913C141.093 125.16 141.193 125.08 141.233 124.88C141.253 124.78 141.293 124.6 141.293 124.46C141.293 124.32 141.193 124.24 140.993 124.24H138.613C138.433 123 137.893 122.06 137.893 121.16C137.893 120.26 138.473 119.78 139.113 119.78ZM150.686 131.6C150.526 131.6 150.366 131.7 150.226 131.88C149.606 132.62 148.546 133.2 147.306 133.2C145.606 133.2 144.246 131.96 143.726 130.18L150.266 128.24C150.546 128.16 150.646 128.02 150.646 127.66C150.646 125.7 149.026 123.88 146.726 123.88C144.186 123.88 141.986 126.06 141.986 129.14C141.986 132.52 144.286 134.34 146.886 134.34C148.406 134.34 150.106 133.56 150.866 132.5C151.006 132.3 151.066 132.14 151.066 132.02C151.066 131.76 150.866 131.6 150.686 131.6ZM146.506 124.9C148.026 124.9 149.006 126.2 149.006 127.2C149.006 127.54 148.926 127.64 148.566 127.74L143.526 129.28C143.506 129.04 143.486 128.78 143.486 128.52C143.486 126.36 144.806 124.9 146.506 124.9ZM160.998 131.6C160.838 131.6 160.678 131.7 160.538 131.88C159.918 132.62 158.858 133.2 157.618 133.2C155.918 133.2 154.558 131.96 154.038 130.18L160.578 128.24C160.858 128.16 160.958 128.02 160.958 127.66C160.958 125.7 159.338 123.88 157.038 123.88C154.498 123.88 152.298 126.06 152.298 129.14C152.298 132.52 154.598 134.34 157.198 134.34C158.718 134.34 160.418 133.56 161.178 132.5C161.318 132.3 161.378 132.14 161.378 132.02C161.378 131.76 161.178 131.6 160.998 131.6ZM156.818 124.9C158.338 124.9 159.318 126.2 159.318 127.2C159.318 127.54 159.238 127.64 158.878 127.74L153.838 129.28C153.818 129.04 153.798 128.78 153.798 128.52C153.798 126.36 155.118 124.9 156.818 124.9ZM172.111 131.5V119.54C172.111 119.2 172.031 118.92 171.751 118.92C171.631 118.92 171.231 119.04 170.371 119.44C169.391 119.9 169.071 120.1 169.071 120.38C169.071 121.16 170.711 120.42 170.711 121.64V125.22C169.991 124.5 168.911 123.96 167.491 123.96C164.731 123.96 162.611 126.14 162.611 129.24C162.611 132.38 164.751 134.24 167.151 134.24C168.731 134.24 169.971 133.52 170.711 132.44V133.58C170.711 133.78 170.711 134.2 171.071 134.2C171.211 134.2 171.431 134.14 172.311 133.82C173.311 133.46 173.631 133.26 173.631 132.96C173.631 132.24 172.111 132.7 172.111 131.5ZM167.631 133.1C165.911 133.1 164.091 131.52 164.091 128.74C164.091 126.62 165.251 124.86 167.331 124.86C168.831 124.86 170.711 126.16 170.711 128.52V129.98C170.711 132.14 169.051 133.1 167.631 133.1ZM180.639 123.96C178.999 123.96 177.739 124.72 176.999 125.86V119.32C176.999 119.12 176.879 118.92 176.679 118.92C176.439 118.92 176.239 118.98 175.299 119.44C174.339 119.9 174.039 120.12 174.039 120.4C174.039 121.14 175.599 120.42 175.599 121.64V133.76C175.599 134.02 175.739 134.2 175.979 134.2C176.319 134.2 176.779 133.64 177.339 133.64C177.919 133.64 178.799 134.24 180.239 134.24C182.879 134.24 185.159 132.22 185.159 128.94C185.159 126 183.319 123.96 180.639 123.96ZM180.299 133.34C178.419 133.34 176.999 132.18 176.999 130.14V128.44C176.999 126.24 178.579 125.1 180.199 125.1C182.299 125.1 183.679 127.04 183.679 129.5C183.679 132.08 182.179 133.34 180.299 133.34ZM196.375 133.08C195.375 132.9 194.935 132.76 194.715 131.2L194.215 127.8C193.935 125.94 193.515 124.02 190.895 124.02C189.455 124.02 187.975 124.88 187.355 125.84C187.195 126.08 187.155 126.2 187.155 126.34C187.155 126.56 187.335 126.7 187.515 126.7C187.635 126.7 187.755 126.64 187.915 126.48C188.675 125.74 189.515 125.22 190.415 125.22C191.795 125.22 192.575 125.9 192.915 128.3L192.955 128.58C192.175 128.34 191.395 128.16 190.535 128.16C188.035 128.16 186.515 129.54 186.515 131.28C186.515 133 187.855 134.22 189.875 134.22C191.435 134.22 192.735 133.54 193.515 132.56C193.795 133.68 194.455 134.16 195.255 134.16C195.975 134.16 196.675 133.68 196.675 133.36C196.675 133.22 196.595 133.12 196.375 133.08ZM190.255 133.2C188.915 133.2 188.035 132.34 188.035 131.16C188.035 129.92 188.935 129.08 190.735 129.08C191.495 129.08 192.315 129.24 193.095 129.54L193.355 131.48C192.755 132.4 191.535 133.2 190.255 133.2ZM201.92 134.34C203.52 134.34 205.08 133.52 205.7 132.48C205.8 132.3 205.88 132.12 205.88 131.96C205.88 131.68 205.72 131.54 205.52 131.54C205.36 131.54 205.22 131.64 205.06 131.86C204.38 132.78 203.46 133.2 202.46 133.2C200.36 133.2 198.76 131.3 198.76 128.8C198.76 126.4 200.04 124.8 201.76 124.8C203.24 124.8 203.78 125.74 204.06 127.26C204.12 127.64 204.24 127.82 204.46 127.82C204.66 127.82 204.78 127.68 204.94 127.46C205.46 126.7 205.62 126.12 205.62 125.76C205.62 125.02 204 123.88 202.1 123.88C199.38 123.88 197.24 126.08 197.24 129.24C197.24 132.56 199.44 134.34 201.92 134.34ZM216.464 132.72L212.984 127.56L215.284 125.62C216.104 124.92 217.144 125.08 217.144 124.5C217.144 124.28 216.964 124.16 216.724 124.16C216.204 124.16 215.484 124.22 214.924 124.22C214.404 124.22 213.784 124.16 213.384 124.16C213.124 124.16 212.944 124.26 212.944 124.52C212.944 125.08 213.844 124.82 213.844 125.34C213.844 125.64 213.564 125.86 213.244 126.14L209.624 129.28V119.32C209.624 119.12 209.544 118.92 209.324 118.92C209.104 118.92 208.904 118.98 207.984 119.44C207.064 119.9 206.764 120.12 206.764 120.4C206.764 121.14 208.224 120.42 208.224 121.64V131.94C208.224 133.6 206.924 132.98 206.924 133.7C206.924 133.86 207.044 134.06 207.324 134.06C207.744 134.06 208.324 134 208.924 134C209.544 134 210.164 134.06 210.584 134.06C210.824 134.06 210.944 133.86 210.944 133.7C210.944 132.98 209.624 133.6 209.624 131.94V130.38L211.984 128.4L214.364 132.08C214.504 132.3 214.604 132.48 214.604 132.66C214.604 133.38 213.564 133.08 213.564 133.7C213.564 133.96 213.744 134.06 214.004 134.06C214.404 134.06 214.884 134 215.584 134C216.364 134 216.864 134.06 217.384 134.06C217.624 134.06 217.804 133.96 217.804 133.74C217.804 133.22 216.904 133.38 216.464 132.72ZM49.98 160.06C50.4 160.06 50.98 160 51.58 160C52.2 160 52.82 160.06 53.24 160.06C53.48 160.06 53.6 159.86 53.6 159.7C53.6 158.98 52.28 159.6 52.28 157.94V145.54C52.28 145.14 52.18 144.92 51.92 144.92C51.76 144.92 51.56 144.98 50.64 145.44C49.72 145.9 49.42 146.12 49.42 146.4C49.42 147.14 50.88 146.42 50.88 147.64V157.94C50.88 159.6 49.58 158.98 49.58 159.7C49.58 159.86 49.7 160.06 49.98 160.06ZM59.9163 160.34C62.8963 160.34 65.1363 158.1 65.1363 155.08C65.1363 151.98 62.9963 149.88 60.0963 149.88C57.1163 149.88 54.8763 152.12 54.8763 155.16C54.8763 158.24 57.0163 160.34 59.9163 160.34ZM60.2963 159.4C58.0163 159.4 56.3763 157.14 56.3763 154.48C56.3763 152.46 57.6763 150.82 59.7163 150.82C61.9963 150.82 63.6363 153.08 63.6363 155.76C63.6363 157.76 62.3363 159.4 60.2963 159.4ZM71.6155 160.34C74.5955 160.34 76.8355 158.1 76.8355 155.08C76.8355 151.98 74.6955 149.88 71.7955 149.88C68.8155 149.88 66.5755 152.12 66.5755 155.16C66.5755 158.24 68.7155 160.34 71.6155 160.34ZM71.9955 159.4C69.7155 159.4 68.0755 157.14 68.0755 154.48C68.0755 152.46 69.3755 150.82 71.4155 150.82C73.6955 150.82 75.3355 153.08 75.3355 155.76C75.3355 157.76 74.0355 159.4 71.9955 159.4ZM84.4547 149.96C82.8547 149.96 81.6147 150.74 80.8947 151.86V150.7C80.8947 150.36 80.8147 150.08 80.5347 150.08C80.3347 150.08 80.1747 150.14 79.2747 150.6C78.3547 151.06 78.0547 151.26 78.0547 151.56C78.0547 152.3 79.4947 151.58 79.4947 152.8V161.5C79.4947 163.16 78.2147 162.54 78.2147 163.26C78.2147 163.42 78.3347 163.62 78.6147 163.62C79.0147 163.62 79.5947 163.56 80.1947 163.56C80.8747 163.56 81.5747 163.62 82.0347 163.62C82.2747 163.62 82.3947 163.42 82.3947 163.26C82.3947 162.5 80.8947 163.16 80.8947 161.5V159.14C81.5547 159.72 82.6147 160.24 84.0947 160.24C86.6747 160.24 88.8947 158.28 88.8947 155C88.8947 152.06 87.0547 149.96 84.4547 149.96ZM84.1147 159.34C82.2947 159.34 80.8947 158.18 80.8947 156.14V154.44C80.8947 152.24 82.4547 151.1 84.0147 151.1C86.0547 151.1 87.4147 153 87.4147 155.46C87.4147 158.02 85.9547 159.34 84.1147 159.34ZM98.625 145.78C99.345 145.78 99.785 146.36 99.965 147.68C100.005 147.98 100.145 148.16 100.385 148.16C100.585 148.16 100.745 147.96 100.845 147.74C101.105 147.16 101.305 146.74 101.305 146.26C101.305 145.36 99.945 144.84 98.825 144.84C97.425 144.84 96.165 145.74 96.165 147.46C96.165 148.48 96.605 149.22 96.725 150.24H95.365C95.165 150.24 95.065 150.32 95.065 150.46C95.065 150.6 95.105 150.78 95.125 150.88C95.165 151.08 95.265 151.16 95.445 151.16H96.765V157.94C96.765 159.6 95.465 158.98 95.465 159.7C95.465 159.86 95.585 160.06 95.865 160.06C96.285 160.06 96.885 160 97.545 160C98.245 160 98.965 160.06 99.485 160.06C99.725 160.06 99.845 159.86 99.845 159.7C99.845 158.92 98.165 159.6 98.165 157.94V151.16H100.425C100.605 151.16 100.705 151.08 100.745 150.88C100.765 150.78 100.805 150.6 100.805 150.46C100.805 150.32 100.705 150.24 100.505 150.24H98.125C97.945 149 97.405 148.06 97.405 147.16C97.405 146.26 97.985 145.78 98.625 145.78ZM106.537 160.34C109.517 160.34 111.757 158.1 111.757 155.08C111.757 151.98 109.617 149.88 106.717 149.88C103.737 149.88 101.497 152.12 101.497 155.16C101.497 158.24 103.637 160.34 106.537 160.34ZM106.917 159.4C104.637 159.4 102.997 157.14 102.997 154.48C102.997 152.46 104.297 150.82 106.337 150.82C108.617 150.82 110.257 153.08 110.257 155.76C110.257 157.76 108.957 159.4 106.917 159.4ZM119.497 150C118.097 150 116.677 151.1 115.957 152.84V150.7C115.957 150.3 115.857 150.08 115.597 150.08C115.437 150.08 115.237 150.14 114.317 150.6C113.397 151.06 113.097 151.28 113.097 151.56C113.097 152.3 114.557 151.58 114.557 152.8V157.94C114.557 159.6 113.257 158.98 113.257 159.7C113.257 159.86 113.377 160.06 113.657 160.06C114.077 160.06 114.657 160 115.257 160C115.957 160 116.697 160.06 117.177 160.06C117.417 160.06 117.537 159.86 117.537 159.7C117.537 158.92 115.957 159.6 115.957 157.94V156.02C115.957 153.08 117.757 151.38 118.757 151.38C119.137 151.38 119.377 151.64 119.597 152.22C119.717 152.54 119.797 152.76 120.057 152.76C120.317 152.76 120.437 152.56 120.517 152.24C120.717 151.42 120.777 151 120.777 150.76C120.777 150.34 120.257 150 119.497 150ZM141.365 157.74L140.825 154C140.565 152.22 140.045 150.02 137.685 150.02C136.165 150.02 135.205 150.88 134.645 151.98C134.285 150.92 133.525 150.02 132.045 150.02C130.585 150.02 129.585 150.9 128.945 151.94V150.7C128.945 150.34 128.865 150.08 128.585 150.08C128.405 150.08 128.225 150.12 127.285 150.6C126.385 151.06 126.085 151.28 126.085 151.56C126.085 152.3 127.545 151.58 127.545 152.8V157.94C127.545 159.6 126.245 158.98 126.245 159.7C126.245 159.86 126.385 160.06 126.645 160.06C127.085 160.06 127.645 160 128.245 160C128.885 160 129.485 160.06 129.905 160.06C130.145 160.06 130.265 159.86 130.265 159.7C130.265 158.98 128.945 159.6 128.945 157.94V154.36C128.945 152.3 130.325 151.28 131.605 151.28C133.305 151.28 133.545 153 133.545 154.1V157.94C133.545 159.6 132.245 158.98 132.245 159.7C132.245 159.86 132.385 160.06 132.665 160.06C133.085 160.06 133.625 160 134.245 160C134.865 160 135.465 160.06 135.885 160.06C136.125 160.06 136.265 159.86 136.265 159.7C136.265 158.98 134.945 159.6 134.945 157.94V154.18C134.945 152.22 136.105 151.28 137.365 151.28C139.025 151.28 139.265 153.02 139.425 154.1L139.965 157.74C139.985 157.88 140.005 158.08 140.005 158.22C140.005 159.52 138.605 158.98 138.605 159.68C138.605 159.92 138.825 160.06 139.105 160.06C139.685 160.06 139.945 160 140.725 160C141.465 160 141.825 160.06 142.385 160.06C142.645 160.06 142.885 159.96 142.885 159.72C142.885 158.94 141.645 159.66 141.365 157.74ZM153.328 159.08C152.328 158.9 151.888 158.76 151.668 157.2L151.168 153.8C150.888 151.94 150.468 150.02 147.848 150.02C146.408 150.02 144.928 150.88 144.308 151.84C144.148 152.08 144.108 152.2 144.108 152.34C144.108 152.56 144.288 152.7 144.468 152.7C144.588 152.7 144.708 152.64 144.868 152.48C145.628 151.74 146.468 151.22 147.368 151.22C148.748 151.22 149.528 151.9 149.868 154.3L149.908 154.58C149.128 154.34 148.348 154.16 147.488 154.16C144.988 154.16 143.468 155.54 143.468 157.28C143.468 159 144.808 160.22 146.828 160.22C148.388 160.22 149.688 159.54 150.468 158.56C150.748 159.68 151.408 160.16 152.208 160.16C152.928 160.16 153.628 159.68 153.628 159.36C153.628 159.22 153.548 159.12 153.328 159.08ZM147.208 159.2C145.868 159.2 144.988 158.34 144.988 157.16C144.988 155.92 145.888 155.08 147.688 155.08C148.448 155.08 149.268 155.24 150.048 155.54L150.308 157.48C149.708 158.4 148.488 159.2 147.208 159.2ZM163.573 158.72L160.093 153.56L162.393 151.62C163.213 150.92 164.253 151.08 164.253 150.5C164.253 150.28 164.073 150.16 163.833 150.16C163.313 150.16 162.593 150.22 162.033 150.22C161.513 150.22 160.893 150.16 160.493 150.16C160.233 150.16 160.053 150.26 160.053 150.52C160.053 151.08 160.953 150.82 160.953 151.34C160.953 151.64 160.673 151.86 160.353 152.14L156.733 155.28V145.32C156.733 145.12 156.653 144.92 156.433 144.92C156.213 144.92 156.013 144.98 155.093 145.44C154.173 145.9 153.873 146.12 153.873 146.4C153.873 147.14 155.333 146.42 155.333 147.64V157.94C155.333 159.6 154.033 158.98 154.033 159.7C154.033 159.86 154.153 160.06 154.433 160.06C154.853 160.06 155.433 160 156.033 160C156.653 160 157.273 160.06 157.693 160.06C157.933 160.06 158.053 159.86 158.053 159.7C158.053 158.98 156.733 159.6 156.733 157.94V156.38L159.093 154.4L161.473 158.08C161.613 158.3 161.713 158.48 161.713 158.66C161.713 159.38 160.673 159.08 160.673 159.7C160.673 159.96 160.853 160.06 161.113 160.06C161.513 160.06 161.993 160 162.693 160C163.473 160 163.973 160.06 164.493 160.06C164.733 160.06 164.913 159.96 164.913 159.74C164.913 159.22 164.013 159.38 163.573 158.72ZM167.022 147.68C167.902 147.68 168.602 146.92 168.602 146.24C168.602 145.64 168.142 145.3 167.622 145.3C166.742 145.3 166.082 146.08 166.082 146.76C166.082 147.38 166.582 147.68 167.022 147.68ZM165.942 160.06C166.362 160.06 166.942 160 167.542 160C168.162 160 168.782 160.06 169.202 160.06C169.442 160.06 169.562 159.86 169.562 159.7C169.562 158.98 168.242 159.6 168.242 157.94V150.7C168.242 150.3 168.142 150.08 167.882 150.08C167.722 150.08 167.522 150.14 166.602 150.6C165.682 151.06 165.382 151.28 165.382 151.56C165.382 152.3 166.842 151.58 166.842 152.8V157.94C166.842 159.6 165.542 158.98 165.542 159.7C165.542 159.86 165.662 160.06 165.942 160.06ZM180.433 157.74L179.913 154C179.713 152.54 179.253 150.02 176.753 150.02C175.253 150.02 174.253 150.9 173.593 151.94V150.7C173.593 150.3 173.493 150.08 173.233 150.08C173.073 150.08 172.873 150.14 171.953 150.6C171.033 151.06 170.733 151.28 170.733 151.56C170.733 152.3 172.193 151.58 172.193 152.8V157.94C172.193 159.6 170.893 158.98 170.893 159.7C170.893 159.86 171.013 160.06 171.293 160.06C171.713 160.06 172.293 160 172.893 160C173.513 160 174.133 160.06 174.553 160.06C174.793 160.06 174.913 159.86 174.913 159.7C174.913 158.98 173.593 159.6 173.593 157.94V154.4C173.593 152.34 174.993 151.28 176.293 151.28C178.013 151.28 178.353 153.18 178.493 154.1L179.013 157.74C179.033 157.88 179.053 158.1 179.053 158.22C179.053 159.52 177.653 158.98 177.653 159.68C177.653 159.92 177.853 160.06 178.153 160.06C178.713 160.06 179.033 160 179.793 160C180.513 160 180.913 160.06 181.453 160.06C181.713 160.06 181.933 159.96 181.933 159.7C181.933 158.94 180.693 159.66 180.433 157.74ZM189.75 158.3C189.23 158.24 187.15 158.04 185.35 157.8C184.63 157.7 184.35 157.56 184.35 157.22C184.35 156.8 184.77 156.56 185.19 156.3C185.79 156.5 186.47 156.6 187.21 156.6C190.07 156.6 191.65 155 191.65 153.14C191.65 151.66 190.67 150.62 189.17 150.16C189.47 148.94 190.53 148.84 191.59 148.84C191.97 148.84 192.13 148.68 192.13 148.46C192.13 148.24 191.93 148.08 191.71 147.96C191.23 147.7 190.79 147.54 190.23 147.54C189.69 147.54 188.65 148.26 188.35 149.98C188.05 149.94 187.71 149.92 187.37 149.92C184.53 149.92 182.93 151.5 182.93 153.4C182.93 154.5 183.47 155.36 184.37 155.92C183.71 156.34 182.97 156.94 182.97 157.66C182.97 158.24 183.33 158.8 184.17 159.04C183.13 159.54 182.49 160.34 182.49 161.2C182.49 162.74 184.65 163.76 187.63 163.76C190.67 163.76 192.79 162.46 192.79 160.68C192.79 159.36 191.73 158.5 189.75 158.3ZM187.19 150.82C188.87 150.82 190.09 151.84 190.09 153.34C190.09 154.82 188.95 155.7 187.37 155.7C185.69 155.7 184.47 154.7 184.47 153.18C184.47 151.72 185.61 150.82 187.19 150.82ZM187.71 162.86C185.33 162.86 184.05 162.22 184.05 161.02C184.05 160.16 184.67 159.54 185.37 159.22C186.59 159.36 187.79 159.5 189.17 159.64C190.65 159.8 191.37 160.26 191.37 161.04C191.37 161.94 189.91 162.86 187.71 162.86ZM51.26 173.68C52.14 173.68 52.84 172.92 52.84 172.24C52.84 171.64 52.38 171.3 51.86 171.3C50.98 171.3 50.32 172.08 50.32 172.76C50.32 173.38 50.82 173.68 51.26 173.68ZM50.18 186.06C50.6 186.06 51.18 186 51.78 186C52.4 186 53.02 186.06 53.44 186.06C53.68 186.06 53.8 185.86 53.8 185.7C53.8 184.98 52.48 185.6 52.48 183.94V176.7C52.48 176.3 52.38 176.08 52.12 176.08C51.96 176.08 51.76 176.14 50.84 176.6C49.92 177.06 49.62 177.28 49.62 177.56C49.62 178.3 51.08 177.58 51.08 178.8V183.94C51.08 185.6 49.78 184.98 49.78 185.7C49.78 185.86 49.9 186.06 50.18 186.06ZM64.6716 183.74L64.1516 180C63.9516 178.54 63.4916 176.02 60.9916 176.02C59.4916 176.02 58.4916 176.9 57.8316 177.94V176.7C57.8316 176.3 57.7316 176.08 57.4716 176.08C57.3116 176.08 57.1116 176.14 56.1916 176.6C55.2716 177.06 54.9716 177.28 54.9716 177.56C54.9716 178.3 56.4316 177.58 56.4316 178.8V183.94C56.4316 185.6 55.1316 184.98 55.1316 185.7C55.1316 185.86 55.2516 186.06 55.5316 186.06C55.9516 186.06 56.5316 186 57.1316 186C57.7516 186 58.3716 186.06 58.7916 186.06C59.0316 186.06 59.1516 185.86 59.1516 185.7C59.1516 184.98 57.8316 185.6 57.8316 183.94V180.4C57.8316 178.34 59.2316 177.28 60.5316 177.28C62.2516 177.28 62.5916 179.18 62.7316 180.1L63.2516 183.74C63.2716 183.88 63.2916 184.1 63.2916 184.22C63.2916 185.52 61.8916 184.98 61.8916 185.68C61.8916 185.92 62.0916 186.06 62.3916 186.06C62.9516 186.06 63.2716 186 64.0316 186C64.7516 186 65.1516 186.06 65.6916 186.06C65.9516 186.06 66.1716 185.96 66.1716 185.7C66.1716 184.94 64.9316 185.66 64.6716 183.74ZM70.168 171.78C70.888 171.78 71.328 172.36 71.508 173.68C71.548 173.98 71.688 174.16 71.928 174.16C72.128 174.16 72.288 173.96 72.388 173.74C72.648 173.16 72.848 172.74 72.848 172.26C72.848 171.36 71.488 170.84 70.368 170.84C68.968 170.84 67.708 171.74 67.708 173.46C67.708 174.48 68.148 175.22 68.268 176.24H66.908C66.708 176.24 66.608 176.32 66.608 176.46C66.608 176.6 66.648 176.78 66.668 176.88C66.708 177.08 66.808 177.16 66.988 177.16H68.308V183.94C68.308 185.6 67.008 184.98 67.008 185.7C67.008 185.86 67.128 186.06 67.408 186.06C67.828 186.06 68.428 186 69.088 186C69.788 186 70.508 186.06 71.028 186.06C71.268 186.06 71.388 185.86 71.388 185.7C71.388 184.92 69.708 185.6 69.708 183.94V177.16H71.968C72.148 177.16 72.248 177.08 72.288 176.88C72.308 176.78 72.348 176.6 72.348 176.46C72.348 176.32 72.248 176.24 72.048 176.24H69.668C69.488 175 68.948 174.06 68.948 173.16C68.948 172.26 69.528 171.78 70.168 171.78ZM78.0803 186.34C81.0603 186.34 83.3003 184.1 83.3003 181.08C83.3003 177.98 81.1603 175.88 78.2603 175.88C75.2803 175.88 73.0403 178.12 73.0403 181.16C73.0403 184.24 75.1803 186.34 78.0803 186.34ZM78.4603 185.4C76.1803 185.4 74.5403 183.14 74.5403 180.48C74.5403 178.46 75.8403 176.82 77.8803 176.82C80.1603 176.82 81.8003 179.08 81.8003 181.76C81.8003 183.76 80.5003 185.4 78.4603 185.4ZM91.0395 176C89.6395 176 88.2195 177.1 87.4995 178.84V176.7C87.4995 176.3 87.3995 176.08 87.1395 176.08C86.9795 176.08 86.7795 176.14 85.8595 176.6C84.9395 177.06 84.6395 177.28 84.6395 177.56C84.6395 178.3 86.0995 177.58 86.0995 178.8V183.94C86.0995 185.6 84.7995 184.98 84.7995 185.7C84.7995 185.86 84.9195 186.06 85.1995 186.06C85.6195 186.06 86.1995 186 86.7995 186C87.4995 186 88.2395 186.06 88.7195 186.06C88.9595 186.06 89.0795 185.86 89.0795 185.7C89.0795 184.92 87.4995 185.6 87.4995 183.94V182.02C87.4995 179.08 89.2995 177.38 90.2995 177.38C90.6795 177.38 90.9195 177.64 91.1395 178.22C91.2595 178.54 91.3395 178.76 91.5995 178.76C91.8595 178.76 91.9795 178.56 92.0595 178.24C92.2595 177.42 92.3195 177 92.3195 176.76C92.3195 176.34 91.7995 176 91.0395 176ZM108.435 183.74L107.895 180C107.635 178.22 107.115 176.02 104.755 176.02C103.235 176.02 102.275 176.88 101.715 177.98C101.355 176.92 100.595 176.02 99.1152 176.02C97.6552 176.02 96.6552 176.9 96.0152 177.94V176.7C96.0152 176.34 95.9352 176.08 95.6552 176.08C95.4752 176.08 95.2952 176.12 94.3552 176.6C93.4552 177.06 93.1552 177.28 93.1552 177.56C93.1552 178.3 94.6152 177.58 94.6152 178.8V183.94C94.6152 185.6 93.3152 184.98 93.3152 185.7C93.3152 185.86 93.4552 186.06 93.7152 186.06C94.1552 186.06 94.7152 186 95.3152 186C95.9552 186 96.5552 186.06 96.9752 186.06C97.2152 186.06 97.3352 185.86 97.3352 185.7C97.3352 184.98 96.0152 185.6 96.0152 183.94V180.36C96.0152 178.3 97.3952 177.28 98.6752 177.28C100.375 177.28 100.615 179 100.615 180.1V183.94C100.615 185.6 99.3152 184.98 99.3152 185.7C99.3152 185.86 99.4552 186.06 99.7352 186.06C100.155 186.06 100.695 186 101.315 186C101.935 186 102.535 186.06 102.955 186.06C103.195 186.06 103.335 185.86 103.335 185.7C103.335 184.98 102.015 185.6 102.015 183.94V180.18C102.015 178.22 103.175 177.28 104.435 177.28C106.095 177.28 106.335 179.02 106.495 180.1L107.035 183.74C107.055 183.88 107.075 184.08 107.075 184.22C107.075 185.52 105.675 184.98 105.675 185.68C105.675 185.92 105.895 186.06 106.175 186.06C106.755 186.06 107.015 186 107.795 186C108.535 186 108.895 186.06 109.455 186.06C109.715 186.06 109.955 185.96 109.955 185.72C109.955 184.94 108.715 185.66 108.435 183.74ZM119.338 183.6C119.178 183.6 119.018 183.7 118.878 183.88C118.258 184.62 117.198 185.2 115.958 185.2C114.258 185.2 112.898 183.96 112.378 182.18L118.918 180.24C119.198 180.16 119.298 180.02 119.298 179.66C119.298 177.7 117.678 175.88 115.378 175.88C112.838 175.88 110.638 178.06 110.638 181.14C110.638 184.52 112.938 186.34 115.538 186.34C117.058 186.34 118.758 185.56 119.518 184.5C119.658 184.3 119.718 184.14 119.718 184.02C119.718 183.76 119.518 183.6 119.338 183.6ZM115.158 176.9C116.678 176.9 117.658 178.2 117.658 179.2C117.658 179.54 117.578 179.64 117.218 179.74L112.178 181.28C112.158 181.04 112.138 180.78 112.138 180.52C112.138 178.36 113.458 176.9 115.158 176.9ZM130.45 183.5V171.54C130.45 171.2 130.37 170.92 130.09 170.92C129.97 170.92 129.57 171.04 128.71 171.44C127.73 171.9 127.41 172.1 127.41 172.38C127.41 173.16 129.05 172.42 129.05 173.64V177.22C128.33 176.5 127.25 175.96 125.83 175.96C123.07 175.96 120.95 178.14 120.95 181.24C120.95 184.38 123.09 186.24 125.49 186.24C127.07 186.24 128.31 185.52 129.05 184.44V185.58C129.05 185.78 129.05 186.2 129.41 186.2C129.55 186.2 129.77 186.14 130.65 185.82C131.65 185.46 131.97 185.26 131.97 184.96C131.97 184.24 130.45 184.7 130.45 183.5ZM125.97 185.1C124.25 185.1 122.43 183.52 122.43 180.74C122.43 178.62 123.59 176.86 125.67 176.86C127.17 176.86 129.05 178.16 129.05 180.52V181.98C129.05 184.14 127.39 185.1 125.97 185.1ZM147.599 183.5V171.54C147.599 171.2 147.519 170.92 147.239 170.92C147.119 170.92 146.719 171.04 145.859 171.44C144.879 171.9 144.559 172.1 144.559 172.38C144.559 173.16 146.199 172.42 146.199 173.64V177.22C145.479 176.5 144.399 175.96 142.979 175.96C140.219 175.96 138.099 178.14 138.099 181.24C138.099 184.38 140.239 186.24 142.639 186.24C144.219 186.24 145.459 185.52 146.199 184.44V185.58C146.199 185.78 146.199 186.2 146.559 186.2C146.699 186.2 146.919 186.14 147.799 185.82C148.799 185.46 149.119 185.26 149.119 184.96C149.119 184.24 147.599 184.7 147.599 183.5ZM143.119 185.1C141.399 185.1 139.579 183.52 139.579 180.74C139.579 178.62 140.739 176.86 142.819 176.86C144.319 176.86 146.199 178.16 146.199 180.52V181.98C146.199 184.14 144.539 185.1 143.119 185.1ZM158.947 183.6C158.787 183.6 158.627 183.7 158.487 183.88C157.867 184.62 156.807 185.2 155.567 185.2C153.867 185.2 152.507 183.96 151.987 182.18L158.527 180.24C158.807 180.16 158.907 180.02 158.907 179.66C158.907 177.7 157.287 175.88 154.987 175.88C152.447 175.88 150.247 178.06 150.247 181.14C150.247 184.52 152.547 186.34 155.147 186.34C156.667 186.34 158.367 185.56 159.127 184.5C159.267 184.3 159.327 184.14 159.327 184.02C159.327 183.76 159.127 183.6 158.947 183.6ZM154.767 176.9C156.287 176.9 157.267 178.2 157.267 179.2C157.267 179.54 157.187 179.64 156.827 179.74L151.787 181.28C151.767 181.04 151.747 180.78 151.747 180.52C151.747 178.36 153.067 176.9 154.767 176.9ZM165.26 186.34C166.86 186.34 168.42 185.52 169.04 184.48C169.14 184.3 169.22 184.12 169.22 183.96C169.22 183.68 169.06 183.54 168.86 183.54C168.7 183.54 168.56 183.64 168.4 183.86C167.72 184.78 166.8 185.2 165.8 185.2C163.7 185.2 162.1 183.3 162.1 180.8C162.1 178.4 163.38 176.8 165.1 176.8C166.58 176.8 167.12 177.74 167.4 179.26C167.46 179.64 167.58 179.82 167.8 179.82C168 179.82 168.12 179.68 168.28 179.46C168.8 178.7 168.96 178.12 168.96 177.76C168.96 177.02 167.34 175.88 165.44 175.88C162.72 175.88 160.58 178.08 160.58 181.24C160.58 184.56 162.78 186.34 165.26 186.34ZM171.944 173.68C172.824 173.68 173.524 172.92 173.524 172.24C173.524 171.64 173.064 171.3 172.544 171.3C171.664 171.3 171.004 172.08 171.004 172.76C171.004 173.38 171.504 173.68 171.944 173.68ZM170.864 186.06C171.284 186.06 171.864 186 172.464 186C173.084 186 173.704 186.06 174.124 186.06C174.364 186.06 174.484 185.86 174.484 185.7C174.484 184.98 173.164 185.6 173.164 183.94V176.7C173.164 176.3 173.064 176.08 172.804 176.08C172.644 176.08 172.444 176.14 171.524 176.6C170.604 177.06 170.304 177.28 170.304 177.56C170.304 178.3 171.764 177.58 171.764 178.8V183.94C171.764 185.6 170.464 184.98 170.464 185.7C170.464 185.86 170.584 186.06 170.864 186.06ZM177.335 186.26C177.755 186.26 177.795 185.76 178.155 185.76C178.435 185.76 179.395 186.22 180.735 186.22C182.955 186.22 184.455 185.06 184.455 183.34C184.455 181.24 182.455 180.66 180.415 180.16C178.335 179.64 177.435 179.4 177.435 178.32C177.435 177.52 178.115 176.92 179.255 176.92C180.575 176.92 181.915 177.7 182.915 178.64C183.095 178.8 183.315 179 183.495 179C183.675 179 183.835 178.86 183.835 178.64C183.835 178.44 183.615 178.04 183.415 177.7L182.795 176.64C182.575 176.28 182.415 175.98 182.115 175.98C181.755 175.98 181.755 176.38 181.435 176.38C181.135 176.38 180.275 176.02 179.175 176.02C177.195 176.02 175.955 177.2 175.955 178.64C175.955 180.58 178.155 181.14 180.015 181.6C181.915 182.04 182.975 182.3 182.975 183.52C182.975 184.52 182.095 185.32 180.695 185.32C179.275 185.32 177.915 184.5 176.595 183.2C176.415 183.02 176.195 182.82 176.015 182.82C175.795 182.82 175.655 182.96 175.655 183.2C175.655 183.42 175.815 183.68 176.195 184.46L176.795 185.7C176.915 185.94 177.055 186.26 177.335 186.26ZM187.354 173.68C188.234 173.68 188.934 172.92 188.934 172.24C188.934 171.64 188.474 171.3 187.954 171.3C187.074 171.3 186.414 172.08 186.414 172.76C186.414 173.38 186.914 173.68 187.354 173.68ZM186.274 186.06C186.694 186.06 187.274 186 187.874 186C188.494 186 189.114 186.06 189.534 186.06C189.774 186.06 189.894 185.86 189.894 185.7C189.894 184.98 188.574 185.6 188.574 183.94V176.7C188.574 176.3 188.474 176.08 188.214 176.08C188.054 176.08 187.854 176.14 186.934 176.6C186.014 177.06 185.714 177.28 185.714 177.56C185.714 178.3 187.174 177.58 187.174 178.8V183.94C187.174 185.6 185.874 184.98 185.874 185.7C185.874 185.86 185.994 186.06 186.274 186.06ZM196.205 186.34C199.185 186.34 201.425 184.1 201.425 181.08C201.425 177.98 199.285 175.88 196.385 175.88C193.405 175.88 191.165 178.12 191.165 181.16C191.165 184.24 193.305 186.34 196.205 186.34ZM196.585 185.4C194.305 185.4 192.665 183.14 192.665 180.48C192.665 178.46 193.965 176.82 196.005 176.82C198.285 176.82 199.925 179.08 199.925 181.76C199.925 183.76 198.625 185.4 196.585 185.4ZM212.465 183.74L211.945 180C211.745 178.54 211.285 176.02 208.785 176.02C207.285 176.02 206.285 176.9 205.625 177.94V176.7C205.625 176.3 205.525 176.08 205.265 176.08C205.105 176.08 204.905 176.14 203.985 176.6C203.065 177.06 202.765 177.28 202.765 177.56C202.765 178.3 204.225 177.58 204.225 178.8V183.94C204.225 185.6 202.925 184.98 202.925 185.7C202.925 185.86 203.045 186.06 203.325 186.06C203.745 186.06 204.325 186 204.925 186C205.545 186 206.165 186.06 206.585 186.06C206.825 186.06 206.945 185.86 206.945 185.7C206.945 184.98 205.625 185.6 205.625 183.94V180.4C205.625 178.34 207.025 177.28 208.325 177.28C210.045 177.28 210.385 179.18 210.525 180.1L211.045 183.74C211.065 183.88 211.085 184.1 211.085 184.22C211.085 185.52 209.685 184.98 209.685 185.68C209.685 185.92 209.885 186.06 210.185 186.06C210.745 186.06 211.065 186 211.825 186C212.545 186 212.945 186.06 213.485 186.06C213.745 186.06 213.965 185.96 213.965 185.7C213.965 184.94 212.725 185.66 212.465 183.74ZM216.261 186.26C216.681 186.26 216.721 185.76 217.081 185.76C217.361 185.76 218.321 186.22 219.661 186.22C221.881 186.22 223.381 185.06 223.381 183.34C223.381 181.24 221.381 180.66 219.341 180.16C217.261 179.64 216.361 179.4 216.361 178.32C216.361 177.52 217.041 176.92 218.181 176.92C219.501 176.92 220.841 177.7 221.841 178.64C222.021 178.8 222.241 179 222.421 179C222.601 179 222.761 178.86 222.761 178.64C222.761 178.44 222.541 178.04 222.341 177.7L221.721 176.64C221.501 176.28 221.341 175.98 221.041 175.98C220.681 175.98 220.681 176.38 220.361 176.38C220.061 176.38 219.201 176.02 218.101 176.02C216.121 176.02 214.881 177.2 214.881 178.64C214.881 180.58 217.081 181.14 218.941 181.6C220.841 182.04 221.901 182.3 221.901 183.52C221.901 184.52 221.021 185.32 219.621 185.32C218.201 185.32 216.841 184.5 215.521 183.2C215.341 183.02 215.121 182.82 214.941 182.82C214.721 182.82 214.581 182.96 214.581 183.2C214.581 183.42 214.741 183.68 215.121 184.46L215.721 185.7C215.841 185.94 215.981 186.26 216.261 186.26ZM227.233 182.68C227.453 182.68 227.593 182.54 227.613 182.36C227.653 182.06 227.673 181.64 227.753 180.6C227.793 179.92 228.193 179.3 229.073 178.3C230.053 177.22 230.793 176.32 230.793 174.68C230.793 172.88 229.433 171.52 227.573 171.52C225.593 171.52 224.113 172.7 224.113 173.52C224.113 173.86 224.213 174.46 224.753 175.14C224.913 175.34 225.013 175.48 225.213 175.48C225.413 175.48 225.533 175.3 225.593 174.94C225.853 173.4 226.513 172.48 227.713 172.48C228.893 172.48 229.533 173.34 229.533 174.44C229.533 175.44 229.133 175.96 228.113 177.1C227.153 178.18 226.713 179.1 226.713 180.14C226.713 180.76 226.773 181.92 226.853 182.36C226.893 182.54 227.013 182.68 227.233 182.68ZM227.353 184.2C227.993 184.2 228.473 184.52 228.473 185.16C228.473 185.72 227.913 186.16 227.193 186.16C226.553 186.16 226.073 185.84 226.073 185.22C226.073 184.62 226.633 184.2 227.353 184.2Z" fill="white"/>
</svg>
