<svg width="306" height="281" viewBox="0 0 306 281" fill="none" xmlns="http://www.w3.org/2000/svg">
<circle opacity="0.6" cx="140.5" cy="140.5" r="140.5" fill="#FFBD16"/>
<path d="M53.68 118.16V107.72C53.68 106.4 55.04 106.92 55.04 106.16C55.04 105.98 54.92 105.82 54.62 105.82C54.18 105.82 53.54 105.88 52.9 105.88C52.26 105.88 51.62 105.82 51.18 105.82C50.88 105.82 50.76 105.98 50.76 106.16C50.76 106.92 52.12 106.4 52.12 107.72V111.94C52.12 112.24 52.02 112.36 51.58 112.36H44.42C43.98 112.36 43.88 112.24 43.88 111.94V107.72C43.88 106.4 45.24 106.92 45.24 106.16C45.24 105.98 45.12 105.82 44.82 105.82C44.38 105.82 43.72 105.88 43.08 105.88C42.44 105.88 41.82 105.82 41.38 105.82C41.08 105.82 40.96 105.98 40.96 106.16C40.96 106.92 42.32 106.4 42.32 107.72V118.16C42.32 119.48 40.96 118.96 40.96 119.72C40.96 119.9 41.08 120.06 41.38 120.06C41.82 120.06 42.44 120 43.08 120C43.72 120 44.38 120.06 44.82 120.06C45.12 120.06 45.24 119.9 45.24 119.72C45.24 118.96 43.88 119.48 43.88 118.16V113.7C43.88 113.4 43.98 113.28 44.42 113.28H51.58C52.02 113.28 52.12 113.4 52.12 113.7V118.16C52.12 119.48 50.76 118.96 50.76 119.72C50.76 119.9 50.88 120.06 51.18 120.06C51.62 120.06 52.26 120 52.9 120C53.54 120 54.18 120.06 54.62 120.06C54.92 120.06 55.04 119.9 55.04 119.72C55.04 118.96 53.68 119.48 53.68 118.16ZM61.4827 120.34C64.4627 120.34 66.7027 118.1 66.7027 115.08C66.7027 111.98 64.5627 109.88 61.6627 109.88C58.6827 109.88 56.4427 112.12 56.4427 115.16C56.4427 118.24 58.5827 120.34 61.4827 120.34ZM61.8627 119.4C59.5827 119.4 57.9427 117.14 57.9427 114.48C57.9427 112.46 59.2427 110.82 61.2827 110.82C63.5627 110.82 65.2027 113.08 65.2027 115.76C65.2027 117.76 63.9027 119.4 61.8627 119.4ZM83.7084 110.16C83.1884 110.16 82.7084 110.22 82.1284 110.22C81.6084 110.22 81.0684 110.16 80.6884 110.16C80.4084 110.16 80.1884 110.26 80.1884 110.52C80.1884 111.16 81.4684 110.88 81.4684 111.8C81.4684 111.98 81.4084 112.26 81.1684 112.86L78.9084 118.4L76.8684 112.84C76.6684 112.32 76.5884 112.02 76.5884 111.82C76.5884 111.08 77.9684 111.16 77.9684 110.52C77.9684 110.26 77.7684 110.16 77.4884 110.16C77.0884 110.16 76.4084 110.22 75.7084 110.22C74.9484 110.22 74.5884 110.16 74.0884 110.16C73.8484 110.16 73.6484 110.26 73.6484 110.48C73.6484 111.08 74.6084 110.88 75.0484 112.06L75.2884 112.68L72.8884 118.38L70.5684 112.84C70.3884 112.42 70.2884 111.92 70.2884 111.8C70.2884 110.88 71.4684 111.16 71.4684 110.52C71.4684 110.26 71.2484 110.16 71.0084 110.16C70.6084 110.16 70.0884 110.22 69.4084 110.22C68.6284 110.22 68.1084 110.16 67.5884 110.16C67.3484 110.16 67.1484 110.26 67.1484 110.48C67.1484 111.08 68.2084 110.9 68.7084 112.06L71.8684 119.52C72.0284 119.88 72.1484 120.08 72.6284 120.08C73.2484 120.08 73.2884 119.8 73.4084 119.54L75.7884 114.02L77.8884 119.52C78.0284 119.88 78.1884 120.08 78.6684 120.08C79.1284 120.08 79.2684 119.92 79.4284 119.54L82.6084 112.08C83.1084 110.9 84.1684 111.08 84.1684 110.48C84.1684 110.26 83.9284 110.16 83.7084 110.16ZM94.0333 120.34C95.6333 120.34 97.1933 119.52 97.8133 118.48C97.9133 118.3 97.9933 118.12 97.9933 117.96C97.9933 117.68 97.8333 117.54 97.6333 117.54C97.4733 117.54 97.3333 117.64 97.1733 117.86C96.4933 118.78 95.5733 119.2 94.5733 119.2C92.4733 119.2 90.8733 117.3 90.8733 114.8C90.8733 112.4 92.1533 110.8 93.8733 110.8C95.3533 110.8 95.8933 111.74 96.1733 113.26C96.2333 113.64 96.3533 113.82 96.5733 113.82C96.7733 113.82 96.8933 113.68 97.0533 113.46C97.5733 112.7 97.7333 112.12 97.7333 111.76C97.7333 111.02 96.1133 109.88 94.2133 109.88C91.4933 109.88 89.3533 112.08 89.3533 115.24C89.3533 118.56 91.5533 120.34 94.0333 120.34ZM108.937 119.08C107.937 118.9 107.497 118.76 107.277 117.2L106.777 113.8C106.497 111.94 106.077 110.02 103.457 110.02C102.017 110.02 100.537 110.88 99.917 111.84C99.757 112.08 99.717 112.2 99.717 112.34C99.717 112.56 99.897 112.7 100.077 112.7C100.197 112.7 100.317 112.64 100.477 112.48C101.237 111.74 102.077 111.22 102.977 111.22C104.357 111.22 105.137 111.9 105.477 114.3L105.517 114.58C104.737 114.34 103.957 114.16 103.097 114.16C100.597 114.16 99.077 115.54 99.077 117.28C99.077 119 100.417 120.22 102.437 120.22C103.997 120.22 105.297 119.54 106.077 118.56C106.357 119.68 107.017 120.16 107.817 120.16C108.537 120.16 109.237 119.68 109.237 119.36C109.237 119.22 109.157 119.12 108.937 119.08ZM102.817 119.2C101.477 119.2 100.597 118.34 100.597 117.16C100.597 115.92 101.497 115.08 103.297 115.08C104.057 115.08 104.877 115.24 105.657 115.54L105.917 117.48C105.317 118.4 104.097 119.2 102.817 119.2ZM119.383 117.74L118.863 114C118.663 112.54 118.203 110.02 115.703 110.02C114.202 110.02 113.203 110.9 112.543 111.94V110.7C112.543 110.3 112.443 110.08 112.183 110.08C112.023 110.08 111.823 110.14 110.903 110.6C109.983 111.06 109.683 111.28 109.683 111.56C109.683 112.3 111.143 111.58 111.143 112.8V117.94C111.143 119.6 109.843 118.98 109.843 119.7C109.843 119.86 109.963 120.06 110.243 120.06C110.663 120.06 111.243 120 111.843 120C112.463 120 113.083 120.06 113.503 120.06C113.743 120.06 113.863 119.86 113.863 119.7C113.863 118.98 112.543 119.6 112.543 117.94V114.4C112.543 112.34 113.943 111.28 115.243 111.28C116.963 111.28 117.303 113.18 117.443 114.1L117.963 117.74C117.983 117.88 118.003 118.1 118.003 118.22C118.003 119.52 116.603 118.98 116.603 119.68C116.603 119.92 116.803 120.06 117.103 120.06C117.663 120.06 117.983 120 118.743 120C119.463 120 119.863 120.06 120.403 120.06C120.663 120.06 120.883 119.96 120.883 119.7C120.883 118.94 119.643 119.66 119.383 117.74ZM141.892 110.16C141.372 110.16 140.892 110.22 140.312 110.22C139.792 110.22 139.252 110.16 138.872 110.16C138.592 110.16 138.372 110.26 138.372 110.52C138.372 111.16 139.652 110.88 139.652 111.8C139.652 111.98 139.592 112.26 139.352 112.86L137.092 118.4L135.052 112.84C134.852 112.32 134.772 112.02 134.772 111.82C134.772 111.08 136.152 111.16 136.152 110.52C136.152 110.26 135.952 110.16 135.672 110.16C135.272 110.16 134.592 110.22 133.892 110.22C133.132 110.22 132.772 110.16 132.272 110.16C132.032 110.16 131.832 110.26 131.832 110.48C131.832 111.08 132.792 110.88 133.232 112.06L133.472 112.68L131.072 118.38L128.752 112.84C128.572 112.42 128.472 111.92 128.472 111.8C128.472 110.88 129.652 111.16 129.652 110.52C129.652 110.26 129.432 110.16 129.192 110.16C128.792 110.16 128.272 110.22 127.592 110.22C126.812 110.22 126.292 110.16 125.772 110.16C125.532 110.16 125.332 110.26 125.332 110.48C125.332 111.08 126.392 110.9 126.892 112.06L130.052 119.52C130.212 119.88 130.332 120.08 130.812 120.08C131.432 120.08 131.472 119.8 131.592 119.54L133.972 114.02L136.072 119.52C136.212 119.88 136.372 120.08 136.852 120.08C137.312 120.08 137.452 119.92 137.612 119.54L140.792 112.08C141.292 110.9 142.352 111.08 142.352 110.48C142.352 110.26 142.112 110.16 141.892 110.16ZM151.451 117.6C151.291 117.6 151.131 117.7 150.991 117.88C150.371 118.62 149.311 119.2 148.071 119.2C146.371 119.2 145.011 117.96 144.491 116.18L151.031 114.24C151.311 114.16 151.411 114.02 151.411 113.66C151.411 111.7 149.791 109.88 147.491 109.88C144.951 109.88 142.751 112.06 142.751 115.14C142.751 118.52 145.051 120.34 147.651 120.34C149.171 120.34 150.871 119.56 151.631 118.5C151.771 118.3 151.831 118.14 151.831 118.02C151.831 117.76 151.631 117.6 151.451 117.6ZM147.271 110.9C148.791 110.9 149.771 112.2 149.771 113.2C149.771 113.54 149.691 113.64 149.331 113.74L144.291 115.28C144.271 115.04 144.251 114.78 144.251 114.52C144.251 112.36 145.571 110.9 147.271 110.9ZM50.48 145.08C49.48 144.9 49.04 144.76 48.82 143.2L48.32 139.8C48.04 137.94 47.62 136.02 45 136.02C43.56 136.02 42.08 136.88 41.46 137.84C41.3 138.08 41.26 138.2 41.26 138.34C41.26 138.56 41.44 138.7 41.62 138.7C41.74 138.7 41.86 138.64 42.02 138.48C42.78 137.74 43.62 137.22 44.52 137.22C45.9 137.22 46.68 137.9 47.02 140.3L47.06 140.58C46.28 140.34 45.5 140.16 44.64 140.16C42.14 140.16 40.62 141.54 40.62 143.28C40.62 145 41.96 146.22 43.98 146.22C45.54 146.22 46.84 145.54 47.62 144.56C47.9 145.68 48.56 146.16 49.36 146.16C50.08 146.16 50.78 145.68 50.78 145.36C50.78 145.22 50.7 145.12 50.48 145.08ZM44.36 145.2C43.02 145.2 42.14 144.34 42.14 143.16C42.14 141.92 43.04 141.08 44.84 141.08C45.6 141.08 46.42 141.24 47.2 141.54L47.46 143.48C46.86 144.4 45.64 145.2 44.36 145.2ZM60.3311 143.6V136.7C60.3311 136.38 60.2911 136.08 59.9711 136.08C59.8311 136.08 59.5111 136.14 58.6511 136.46C57.4711 136.9 57.1511 137.1 57.1511 137.38C57.1511 138.12 58.9311 137.58 58.9311 138.78V141.88C58.9311 143.92 57.4311 145.04 55.9311 145.04C54.0711 145.04 53.6711 143.86 53.6711 142.24V136.7C53.6711 136.44 53.6511 136.08 53.2911 136.08C53.1511 136.08 52.9111 136.12 51.9911 136.48C50.9511 136.88 50.6511 137.08 50.6511 137.38C50.6511 138.08 52.2711 137.58 52.2711 138.78V142.34C52.2711 144.68 53.2711 146.24 55.5911 146.24C57.2911 146.24 58.2911 145.38 58.9311 144.34V145.54C58.9311 145.8 58.9511 146.16 59.2911 146.16C59.4711 146.16 59.7711 146.1 60.5711 145.9C61.6911 145.62 61.9911 145.42 61.9911 145.08C61.9911 144.46 60.3311 144.78 60.3311 143.6ZM69.5428 144C69.3828 144 69.2228 144.12 69.1028 144.24C68.7228 144.58 68.2028 145.14 67.2828 145.14C66.4028 145.14 65.8228 144.68 65.8228 143.22V137.16H69.3428C69.5228 137.16 69.6228 137.08 69.6628 136.88C69.6828 136.78 69.7228 136.6 69.7228 136.46C69.7228 136.32 69.6228 136.24 69.4228 136.24H65.8228V132.92C65.8228 132.6 65.6828 132.46 65.5028 132.46C65.2228 132.46 65.1228 132.68 65.0428 133.12C64.6428 135.08 64.1428 135.84 62.9628 136.28C62.6828 136.38 62.5028 136.52 62.5028 136.76C62.5028 137.02 62.7028 137.16 63.0228 137.16H64.4228V141.08C64.4228 142.46 64.3828 144 64.3828 144.42C64.3828 145.4 65.3828 146.22 66.8828 146.22C67.8428 146.22 68.8228 145.88 69.5428 145.12C69.8028 144.84 69.9228 144.62 69.9228 144.4C69.9228 144.18 69.7628 144 69.5428 144ZM75.6819 146.34C78.6619 146.34 80.9019 144.1 80.9019 141.08C80.9019 137.98 78.7619 135.88 75.8619 135.88C72.8819 135.88 70.6419 138.12 70.6419 141.16C70.6419 144.24 72.7819 146.34 75.6819 146.34ZM76.0619 145.4C73.7819 145.4 72.1419 143.14 72.1419 140.48C72.1419 138.46 73.4419 136.82 75.4819 136.82C77.7619 136.82 79.4019 139.08 79.4019 141.76C79.4019 143.76 78.1019 145.4 76.0619 145.4ZM97.5211 143.74L96.9811 140C96.7211 138.22 96.2011 136.02 93.8411 136.02C92.3211 136.02 91.3611 136.88 90.8011 137.98C90.4411 136.92 89.6811 136.02 88.2011 136.02C86.7411 136.02 85.7411 136.9 85.1011 137.94V136.7C85.1011 136.34 85.0211 136.08 84.7411 136.08C84.5611 136.08 84.3811 136.12 83.4411 136.6C82.5411 137.06 82.2411 137.28 82.2411 137.56C82.2411 138.3 83.7011 137.58 83.7011 138.8V143.94C83.7011 145.6 82.4011 144.98 82.4011 145.7C82.4011 145.86 82.5411 146.06 82.8011 146.06C83.2411 146.06 83.8011 146 84.4011 146C85.0411 146 85.6411 146.06 86.0611 146.06C86.3011 146.06 86.4211 145.86 86.4211 145.7C86.4211 144.98 85.1011 145.6 85.1011 143.94V140.36C85.1011 138.3 86.4811 137.28 87.7611 137.28C89.4611 137.28 89.7011 139 89.7011 140.1V143.94C89.7011 145.6 88.4011 144.98 88.4011 145.7C88.4011 145.86 88.5411 146.06 88.8211 146.06C89.2411 146.06 89.7811 146 90.4011 146C91.0211 146 91.6211 146.06 92.0411 146.06C92.2811 146.06 92.4211 145.86 92.4211 145.7C92.4211 144.98 91.1011 145.6 91.1011 143.94V140.18C91.1011 138.22 92.2611 137.28 93.5211 137.28C95.1811 137.28 95.4211 139.02 95.5811 140.1L96.1211 143.74C96.1411 143.88 96.1611 144.08 96.1611 144.22C96.1611 145.52 94.7611 144.98 94.7611 145.68C94.7611 145.92 94.9811 146.06 95.2611 146.06C95.8411 146.06 96.1011 146 96.8811 146C97.6211 146 97.9811 146.06 98.5411 146.06C98.8011 146.06 99.0411 145.96 99.0411 145.72C99.0411 144.94 97.8011 145.66 97.5211 143.74ZM109.484 145.08C108.484 144.9 108.044 144.76 107.824 143.2L107.324 139.8C107.044 137.94 106.624 136.02 104.004 136.02C102.564 136.02 101.084 136.88 100.464 137.84C100.304 138.08 100.264 138.2 100.264 138.34C100.264 138.56 100.444 138.7 100.624 138.7C100.744 138.7 100.864 138.64 101.024 138.48C101.784 137.74 102.624 137.22 103.524 137.22C104.904 137.22 105.684 137.9 106.024 140.3L106.064 140.58C105.284 140.34 104.504 140.16 103.644 140.16C101.144 140.16 99.6239 141.54 99.6239 143.28C99.6239 145 100.964 146.22 102.984 146.22C104.544 146.22 105.844 145.54 106.624 144.56C106.904 145.68 107.564 146.16 108.364 146.16C109.084 146.16 109.784 145.68 109.784 145.36C109.784 145.22 109.704 145.12 109.484 145.08ZM103.364 145.2C102.024 145.2 101.144 144.34 101.144 143.16C101.144 141.92 102.044 141.08 103.844 141.08C104.604 141.08 105.424 141.24 106.204 141.54L106.464 143.48C105.864 144.4 104.644 145.2 103.364 145.2ZM116.672 144C116.512 144 116.352 144.12 116.232 144.24C115.852 144.58 115.332 145.14 114.412 145.14C113.532 145.14 112.952 144.68 112.952 143.22V137.16H116.472C116.652 137.16 116.752 137.08 116.792 136.88C116.812 136.78 116.852 136.6 116.852 136.46C116.852 136.32 116.752 136.24 116.552 136.24H112.952V132.92C112.952 132.6 112.812 132.46 112.632 132.46C112.352 132.46 112.252 132.68 112.172 133.12C111.772 135.08 111.272 135.84 110.092 136.28C109.812 136.38 109.632 136.52 109.632 136.76C109.632 137.02 109.832 137.16 110.152 137.16H111.552V141.08C111.552 142.46 111.512 144 111.512 144.42C111.512 145.4 112.512 146.22 114.012 146.22C114.972 146.22 115.952 145.88 116.672 145.12C116.932 144.84 117.052 144.62 117.052 144.4C117.052 144.18 116.892 144 116.672 144ZM126.471 143.6C126.311 143.6 126.151 143.7 126.011 143.88C125.391 144.62 124.331 145.2 123.091 145.2C121.391 145.2 120.031 143.96 119.511 142.18L126.051 140.24C126.331 140.16 126.431 140.02 126.431 139.66C126.431 137.7 124.811 135.88 122.511 135.88C119.971 135.88 117.771 138.06 117.771 141.14C117.771 144.52 120.071 146.34 122.671 146.34C124.191 146.34 125.891 145.56 126.651 144.5C126.791 144.3 126.851 144.14 126.851 144.02C126.851 143.76 126.651 143.6 126.471 143.6ZM122.291 136.9C123.811 136.9 124.791 138.2 124.791 139.2C124.791 139.54 124.711 139.64 124.351 139.74L119.311 141.28C119.291 141.04 119.271 140.78 119.271 140.52C119.271 138.36 120.591 136.9 122.291 136.9ZM139.383 136C137.983 136 136.563 137.1 135.843 138.84V136.7C135.843 136.3 135.743 136.08 135.483 136.08C135.323 136.08 135.123 136.14 134.203 136.6C133.283 137.06 132.983 137.28 132.983 137.56C132.983 138.3 134.443 137.58 134.443 138.8V143.94C134.443 145.6 133.143 144.98 133.143 145.7C133.143 145.86 133.263 146.06 133.543 146.06C133.963 146.06 134.543 146 135.143 146C135.843 146 136.583 146.06 137.063 146.06C137.303 146.06 137.423 145.86 137.423 145.7C137.423 144.92 135.843 145.6 135.843 143.94V142.02C135.843 139.08 137.643 137.38 138.643 137.38C139.023 137.38 139.263 137.64 139.483 138.22C139.603 138.54 139.683 138.76 139.943 138.76C140.203 138.76 140.323 138.56 140.403 138.24C140.603 137.42 140.663 137 140.663 136.76C140.663 136.34 140.143 136 139.383 136ZM150.084 143.6C149.924 143.6 149.764 143.7 149.624 143.88C149.004 144.62 147.944 145.2 146.704 145.2C145.004 145.2 143.644 143.96 143.124 142.18L149.664 140.24C149.944 140.16 150.044 140.02 150.044 139.66C150.044 137.7 148.424 135.88 146.124 135.88C143.584 135.88 141.384 138.06 141.384 141.14C141.384 144.52 143.684 146.34 146.284 146.34C147.804 146.34 149.504 145.56 150.264 144.5C150.404 144.3 150.464 144.14 150.464 144.02C150.464 143.76 150.264 143.6 150.084 143.6ZM145.904 136.9C147.424 136.9 148.404 138.2 148.404 139.2C148.404 139.54 148.324 139.64 147.964 139.74L142.924 141.28C142.904 141.04 142.884 140.78 142.884 140.52C142.884 138.36 144.204 136.9 145.904 136.9ZM157.877 135.96C156.277 135.96 155.037 136.74 154.317 137.86V136.7C154.317 136.36 154.237 136.08 153.957 136.08C153.757 136.08 153.597 136.14 152.697 136.6C151.777 137.06 151.477 137.26 151.477 137.56C151.477 138.3 152.917 137.58 152.917 138.8V147.5C152.917 149.16 151.637 148.54 151.637 149.26C151.637 149.42 151.757 149.62 152.037 149.62C152.437 149.62 153.017 149.56 153.617 149.56C154.297 149.56 154.997 149.62 155.457 149.62C155.697 149.62 155.817 149.42 155.817 149.26C155.817 148.5 154.317 149.16 154.317 147.5V145.14C154.977 145.72 156.037 146.24 157.517 146.24C160.097 146.24 162.317 144.28 162.317 141C162.317 138.06 160.477 135.96 157.877 135.96ZM157.537 145.34C155.717 145.34 154.317 144.18 154.317 142.14V140.44C154.317 138.24 155.877 137.1 157.437 137.1C159.477 137.1 160.837 139 160.837 141.46C160.837 144.02 159.377 145.34 157.537 145.34ZM168.807 146.34C171.787 146.34 174.027 144.1 174.027 141.08C174.027 137.98 171.887 135.88 168.987 135.88C166.007 135.88 163.767 138.12 163.767 141.16C163.767 144.24 165.907 146.34 168.807 146.34ZM169.187 145.4C166.907 145.4 165.267 143.14 165.267 140.48C165.267 138.46 166.567 136.82 168.607 136.82C170.887 136.82 172.527 139.08 172.527 141.76C172.527 143.76 171.227 145.4 169.187 145.4ZM181.766 136C180.366 136 178.946 137.1 178.226 138.84V136.7C178.226 136.3 178.126 136.08 177.866 136.08C177.706 136.08 177.506 136.14 176.586 136.6C175.666 137.06 175.366 137.28 175.366 137.56C175.366 138.3 176.826 137.58 176.826 138.8V143.94C176.826 145.6 175.526 144.98 175.526 145.7C175.526 145.86 175.646 146.06 175.926 146.06C176.346 146.06 176.926 146 177.526 146C178.226 146 178.966 146.06 179.446 146.06C179.686 146.06 179.806 145.86 179.806 145.7C179.806 144.92 178.226 145.6 178.226 143.94V142.02C178.226 139.08 180.026 137.38 181.026 137.38C181.406 137.38 181.646 137.64 181.866 138.22C181.986 138.54 182.066 138.76 182.326 138.76C182.586 138.76 182.706 138.56 182.786 138.24C182.986 137.42 183.046 137 183.046 136.76C183.046 136.34 182.526 136 181.766 136ZM190.422 144C190.262 144 190.102 144.12 189.982 144.24C189.602 144.58 189.082 145.14 188.162 145.14C187.282 145.14 186.702 144.68 186.702 143.22V137.16H190.222C190.402 137.16 190.502 137.08 190.542 136.88C190.562 136.78 190.602 136.6 190.602 136.46C190.602 136.32 190.502 136.24 190.302 136.24H186.702V132.92C186.702 132.6 186.562 132.46 186.382 132.46C186.102 132.46 186.002 132.68 185.922 133.12C185.522 135.08 185.022 135.84 183.842 136.28C183.562 136.38 183.382 136.52 183.382 136.76C183.382 137.02 183.582 137.16 183.902 137.16H185.302V141.08C185.302 142.46 185.262 144 185.262 144.42C185.262 145.4 186.262 146.22 187.762 146.22C188.722 146.22 189.702 145.88 190.422 145.12C190.682 144.84 190.802 144.62 190.802 144.4C190.802 144.18 190.642 144 190.422 144ZM193.158 133.68C194.038 133.68 194.738 132.92 194.738 132.24C194.738 131.64 194.278 131.3 193.758 131.3C192.878 131.3 192.218 132.08 192.218 132.76C192.218 133.38 192.718 133.68 193.158 133.68ZM192.078 146.06C192.498 146.06 193.078 146 193.678 146C194.298 146 194.918 146.06 195.338 146.06C195.578 146.06 195.698 145.86 195.698 145.7C195.698 144.98 194.378 145.6 194.378 143.94V136.7C194.378 136.3 194.278 136.08 194.018 136.08C193.858 136.08 193.658 136.14 192.738 136.6C191.818 137.06 191.518 137.28 191.518 137.56C191.518 138.3 192.978 137.58 192.978 138.8V143.94C192.978 145.6 191.678 144.98 191.678 145.7C191.678 145.86 191.798 146.06 192.078 146.06ZM206.57 143.74L206.05 140C205.85 138.54 205.39 136.02 202.89 136.02C201.39 136.02 200.39 136.9 199.73 137.94V136.7C199.73 136.3 199.63 136.08 199.37 136.08C199.21 136.08 199.01 136.14 198.09 136.6C197.17 137.06 196.87 137.28 196.87 137.56C196.87 138.3 198.33 137.58 198.33 138.8V143.94C198.33 145.6 197.03 144.98 197.03 145.7C197.03 145.86 197.15 146.06 197.43 146.06C197.85 146.06 198.43 146 199.03 146C199.65 146 200.27 146.06 200.69 146.06C200.93 146.06 201.05 145.86 201.05 145.7C201.05 144.98 199.73 145.6 199.73 143.94V140.4C199.73 138.34 201.13 137.28 202.43 137.28C204.15 137.28 204.49 139.18 204.63 140.1L205.15 143.74C205.17 143.88 205.19 144.1 205.19 144.22C205.19 145.52 203.79 144.98 203.79 145.68C203.79 145.92 203.99 146.06 204.29 146.06C204.85 146.06 205.17 146 205.93 146C206.65 146 207.05 146.06 207.59 146.06C207.85 146.06 208.07 145.96 208.07 145.7C208.07 144.94 206.83 145.66 206.57 143.74ZM215.886 144.3C215.366 144.24 213.286 144.04 211.486 143.8C210.766 143.7 210.486 143.56 210.486 143.22C210.486 142.8 210.906 142.56 211.326 142.3C211.926 142.5 212.606 142.6 213.346 142.6C216.206 142.6 217.786 141 217.786 139.14C217.786 137.66 216.806 136.62 215.306 136.16C215.606 134.94 216.666 134.84 217.726 134.84C218.106 134.84 218.266 134.68 218.266 134.46C218.266 134.24 218.066 134.08 217.846 133.96C217.366 133.7 216.926 133.54 216.366 133.54C215.826 133.54 214.786 134.26 214.486 135.98C214.186 135.94 213.846 135.92 213.506 135.92C210.666 135.92 209.066 137.5 209.066 139.4C209.066 140.5 209.606 141.36 210.506 141.92C209.846 142.34 209.106 142.94 209.106 143.66C209.106 144.24 209.466 144.8 210.306 145.04C209.266 145.54 208.626 146.34 208.626 147.2C208.626 148.74 210.786 149.76 213.766 149.76C216.806 149.76 218.926 148.46 218.926 146.68C218.926 145.36 217.866 144.5 215.886 144.3ZM213.326 136.82C215.006 136.82 216.226 137.84 216.226 139.34C216.226 140.82 215.086 141.7 213.506 141.7C211.826 141.7 210.606 140.7 210.606 139.18C210.606 137.72 211.746 136.82 213.326 136.82ZM213.846 148.86C211.466 148.86 210.186 148.22 210.186 147.02C210.186 146.16 210.806 145.54 211.506 145.22C212.726 145.36 213.926 145.5 215.306 145.64C216.786 145.8 217.506 146.26 217.506 147.04C217.506 147.94 216.046 148.86 213.846 148.86ZM50.48 171.08C49.48 170.9 49.04 170.76 48.82 169.2L48.32 165.8C48.04 163.94 47.62 162.02 45 162.02C43.56 162.02 42.08 162.88 41.46 163.84C41.3 164.08 41.26 164.2 41.26 164.34C41.26 164.56 41.44 164.7 41.62 164.7C41.74 164.7 41.86 164.64 42.02 164.48C42.78 163.74 43.62 163.22 44.52 163.22C45.9 163.22 46.68 163.9 47.02 166.3L47.06 166.58C46.28 166.34 45.5 166.16 44.64 166.16C42.14 166.16 40.62 167.54 40.62 169.28C40.62 171 41.96 172.22 43.98 172.22C45.54 172.22 46.84 171.54 47.62 170.56C47.9 171.68 48.56 172.16 49.36 172.16C50.08 172.16 50.78 171.68 50.78 171.36C50.78 171.22 50.7 171.12 50.48 171.08ZM44.36 171.2C43.02 171.2 42.14 170.34 42.14 169.16C42.14 167.92 43.04 167.08 44.84 167.08C45.6 167.08 46.42 167.24 47.2 167.54L47.46 169.48C46.86 170.4 45.64 171.2 44.36 171.2ZM60.9255 169.74L60.4055 166C60.2055 164.54 59.7455 162.02 57.2455 162.02C55.7455 162.02 54.7455 162.9 54.0855 163.94V162.7C54.0855 162.3 53.9855 162.08 53.7255 162.08C53.5655 162.08 53.3655 162.14 52.4455 162.6C51.5255 163.06 51.2255 163.28 51.2255 163.56C51.2255 164.3 52.6855 163.58 52.6855 164.8V169.94C52.6855 171.6 51.3855 170.98 51.3855 171.7C51.3855 171.86 51.5055 172.06 51.7855 172.06C52.2055 172.06 52.7855 172 53.3855 172C54.0055 172 54.6255 172.06 55.0455 172.06C55.2855 172.06 55.4055 171.86 55.4055 171.7C55.4055 170.98 54.0855 171.6 54.0855 169.94V166.4C54.0855 164.34 55.4855 163.28 56.7855 163.28C58.5055 163.28 58.8455 165.18 58.9855 166.1L59.5055 169.74C59.5255 169.88 59.5455 170.1 59.5455 170.22C59.5455 171.52 58.1455 170.98 58.1455 171.68C58.1455 171.92 58.3455 172.06 58.6455 172.06C59.2055 172.06 59.5255 172 60.2855 172C61.0055 172 61.4055 172.06 61.9455 172.06C62.2055 172.06 62.4255 171.96 62.4255 171.7C62.4255 170.94 61.1855 171.66 60.9255 169.74ZM72.6419 169.5V157.54C72.6419 157.2 72.5619 156.92 72.2819 156.92C72.1619 156.92 71.7619 157.04 70.9019 157.44C69.9219 157.9 69.6019 158.1 69.6019 158.38C69.6019 159.16 71.2419 158.42 71.2419 159.64V163.22C70.5219 162.5 69.4419 161.96 68.0219 161.96C65.2619 161.96 63.1419 164.14 63.1419 167.24C63.1419 170.38 65.2819 172.24 67.6819 172.24C69.2619 172.24 70.5019 171.52 71.2419 170.44V171.58C71.2419 171.78 71.2419 172.2 71.6019 172.2C71.7419 172.2 71.9619 172.14 72.8419 171.82C73.8419 171.46 74.1619 171.26 74.1619 170.96C74.1619 170.24 72.6419 170.7 72.6419 169.5ZM68.1619 171.1C66.4419 171.1 64.6219 169.52 64.6219 166.74C64.6219 164.62 65.7819 162.86 67.8619 162.86C69.3619 162.86 71.2419 164.16 71.2419 166.52V167.98C71.2419 170.14 69.5819 171.1 68.1619 171.1ZM89.7903 169.5V157.54C89.7903 157.2 89.7103 156.92 89.4303 156.92C89.3103 156.92 88.9103 157.04 88.0503 157.44C87.0703 157.9 86.7503 158.1 86.7503 158.38C86.7503 159.16 88.3903 158.42 88.3903 159.64V163.22C87.6703 162.5 86.5903 161.96 85.1703 161.96C82.4103 161.96 80.2903 164.14 80.2903 167.24C80.2903 170.38 82.4303 172.24 84.8303 172.24C86.4103 172.24 87.6503 171.52 88.3903 170.44V171.58C88.3903 171.78 88.3903 172.2 88.7503 172.2C88.8903 172.2 89.1103 172.14 89.9903 171.82C90.9903 171.46 91.3103 171.26 91.3103 170.96C91.3103 170.24 89.7903 170.7 89.7903 169.5ZM85.3103 171.1C83.5903 171.1 81.7703 169.52 81.7703 166.74C81.7703 164.62 82.9303 162.86 85.0103 162.86C86.5103 162.86 88.3903 164.16 88.3903 166.52V167.98C88.3903 170.14 86.7303 171.1 85.3103 171.1ZM97.4788 172.34C100.459 172.34 102.699 170.1 102.699 167.08C102.699 163.98 100.559 161.88 97.6588 161.88C94.6788 161.88 92.4388 164.12 92.4388 167.16C92.4388 170.24 94.5788 172.34 97.4788 172.34ZM97.8588 171.4C95.5788 171.4 93.9388 169.14 93.9388 166.48C93.9388 164.46 95.2388 162.82 97.2788 162.82C99.5588 162.82 101.199 165.08 101.199 167.76C101.199 169.76 99.8988 171.4 97.8588 171.4ZM108.838 172.34C110.438 172.34 111.998 171.52 112.618 170.48C112.718 170.3 112.798 170.12 112.798 169.96C112.798 169.68 112.638 169.54 112.438 169.54C112.278 169.54 112.138 169.64 111.978 169.86C111.298 170.78 110.378 171.2 109.378 171.2C107.278 171.2 105.678 169.3 105.678 166.8C105.678 164.4 106.958 162.8 108.678 162.8C110.158 162.8 110.698 163.74 110.978 165.26C111.038 165.64 111.158 165.82 111.378 165.82C111.578 165.82 111.698 165.68 111.858 165.46C112.378 164.7 112.538 164.12 112.538 163.76C112.538 163.02 110.918 161.88 109.018 161.88C106.298 161.88 104.158 164.08 104.158 167.24C104.158 170.56 106.358 172.34 108.838 172.34ZM123.222 169.6V162.7C123.222 162.38 123.182 162.08 122.862 162.08C122.722 162.08 122.402 162.14 121.542 162.46C120.362 162.9 120.042 163.1 120.042 163.38C120.042 164.12 121.822 163.58 121.822 164.78V167.88C121.822 169.92 120.322 171.04 118.822 171.04C116.962 171.04 116.562 169.86 116.562 168.24V162.7C116.562 162.44 116.542 162.08 116.182 162.08C116.042 162.08 115.802 162.12 114.882 162.48C113.842 162.88 113.542 163.08 113.542 163.38C113.542 164.08 115.162 163.58 115.162 164.78V168.34C115.162 170.68 116.162 172.24 118.482 172.24C120.182 172.24 121.182 171.38 121.822 170.34V171.54C121.822 171.8 121.842 172.16 122.182 172.16C122.362 172.16 122.662 172.1 123.462 171.9C124.582 171.62 124.882 171.42 124.882 171.08C124.882 170.46 123.222 170.78 123.222 169.6ZM141.173 169.74L140.633 166C140.373 164.22 139.853 162.02 137.493 162.02C135.973 162.02 135.013 162.88 134.453 163.98C134.093 162.92 133.333 162.02 131.853 162.02C130.393 162.02 129.393 162.9 128.753 163.94V162.7C128.753 162.34 128.673 162.08 128.393 162.08C128.213 162.08 128.033 162.12 127.093 162.6C126.193 163.06 125.893 163.28 125.893 163.56C125.893 164.3 127.353 163.58 127.353 164.8V169.94C127.353 171.6 126.053 170.98 126.053 171.7C126.053 171.86 126.193 172.06 126.453 172.06C126.893 172.06 127.453 172 128.053 172C128.693 172 129.293 172.06 129.713 172.06C129.953 172.06 130.073 171.86 130.073 171.7C130.073 170.98 128.753 171.6 128.753 169.94V166.36C128.753 164.3 130.133 163.28 131.413 163.28C133.113 163.28 133.353 165 133.353 166.1V169.94C133.353 171.6 132.053 170.98 132.053 171.7C132.053 171.86 132.193 172.06 132.473 172.06C132.893 172.06 133.433 172 134.053 172C134.673 172 135.273 172.06 135.693 172.06C135.933 172.06 136.073 171.86 136.073 171.7C136.073 170.98 134.753 171.6 134.753 169.94V166.18C134.753 164.22 135.913 163.28 137.173 163.28C138.833 163.28 139.073 165.02 139.233 166.1L139.773 169.74C139.793 169.88 139.813 170.08 139.813 170.22C139.813 171.52 138.413 170.98 138.413 171.68C138.413 171.92 138.633 172.06 138.913 172.06C139.493 172.06 139.753 172 140.533 172C141.273 172 141.633 172.06 142.193 172.06C142.453 172.06 142.693 171.96 142.693 171.72C142.693 170.94 141.453 171.66 141.173 169.74ZM152.076 169.6C151.916 169.6 151.756 169.7 151.616 169.88C150.996 170.62 149.936 171.2 148.696 171.2C146.996 171.2 145.636 169.96 145.116 168.18L151.656 166.24C151.936 166.16 152.036 166.02 152.036 165.66C152.036 163.7 150.416 161.88 148.116 161.88C145.576 161.88 143.376 164.06 143.376 167.14C143.376 170.52 145.676 172.34 148.276 172.34C149.796 172.34 151.496 171.56 152.256 170.5C152.396 170.3 152.456 170.14 152.456 170.02C152.456 169.76 152.256 169.6 152.076 169.6ZM147.896 162.9C149.416 162.9 150.396 164.2 150.396 165.2C150.396 165.54 150.316 165.64 149.956 165.74L144.916 167.28C144.896 167.04 144.876 166.78 144.876 166.52C144.876 164.36 146.196 162.9 147.896 162.9ZM163.289 169.74L162.769 166C162.569 164.54 162.109 162.02 159.609 162.02C158.109 162.02 157.109 162.9 156.449 163.94V162.7C156.449 162.3 156.349 162.08 156.089 162.08C155.929 162.08 155.729 162.14 154.809 162.6C153.889 163.06 153.589 163.28 153.589 163.56C153.589 164.3 155.049 163.58 155.049 164.8V169.94C155.049 171.6 153.749 170.98 153.749 171.7C153.749 171.86 153.869 172.06 154.149 172.06C154.569 172.06 155.149 172 155.749 172C156.369 172 156.989 172.06 157.409 172.06C157.649 172.06 157.769 171.86 157.769 171.7C157.769 170.98 156.449 171.6 156.449 169.94V166.4C156.449 164.34 157.849 163.28 159.149 163.28C160.869 163.28 161.209 165.18 161.349 166.1L161.869 169.74C161.889 169.88 161.909 170.1 161.909 170.22C161.909 171.52 160.509 170.98 160.509 171.68C160.509 171.92 160.709 172.06 161.009 172.06C161.569 172.06 161.889 172 162.649 172C163.369 172 163.769 172.06 164.309 172.06C164.569 172.06 164.789 171.96 164.789 171.7C164.789 170.94 163.549 171.66 163.289 169.74ZM171.945 170C171.785 170 171.625 170.12 171.505 170.24C171.125 170.58 170.605 171.14 169.685 171.14C168.805 171.14 168.225 170.68 168.225 169.22V163.16H171.745C171.925 163.16 172.025 163.08 172.065 162.88C172.085 162.78 172.125 162.6 172.125 162.46C172.125 162.32 172.025 162.24 171.825 162.24H168.225V158.92C168.225 158.6 168.085 158.46 167.905 158.46C167.625 158.46 167.525 158.68 167.445 159.12C167.045 161.08 166.545 161.84 165.365 162.28C165.085 162.38 164.905 162.52 164.905 162.76C164.905 163.02 165.105 163.16 165.425 163.16H166.825V167.08C166.825 168.46 166.785 170 166.785 170.42C166.785 171.4 167.785 172.22 169.285 172.22C170.245 172.22 171.225 171.88 171.945 171.12C172.205 170.84 172.325 170.62 172.325 170.4C172.325 170.18 172.165 170 171.945 170ZM182.902 171.08C181.902 170.9 181.462 170.76 181.242 169.2L180.742 165.8C180.462 163.94 180.042 162.02 177.422 162.02C175.982 162.02 174.502 162.88 173.882 163.84C173.722 164.08 173.682 164.2 173.682 164.34C173.682 164.56 173.862 164.7 174.042 164.7C174.162 164.7 174.282 164.64 174.442 164.48C175.202 163.74 176.042 163.22 176.942 163.22C178.322 163.22 179.102 163.9 179.442 166.3L179.482 166.58C178.702 166.34 177.922 166.16 177.062 166.16C174.562 166.16 173.042 167.54 173.042 169.28C173.042 171 174.382 172.22 176.402 172.22C177.962 172.22 179.262 171.54 180.042 170.56C180.322 171.68 180.982 172.16 181.782 172.16C182.502 172.16 183.202 171.68 183.202 171.36C183.202 171.22 183.122 171.12 182.902 171.08ZM176.782 171.2C175.442 171.2 174.562 170.34 174.562 169.16C174.562 167.92 175.462 167.08 177.262 167.08C178.022 167.08 178.842 167.24 179.622 167.54L179.882 169.48C179.282 170.4 178.062 171.2 176.782 171.2ZM190.09 170C189.93 170 189.77 170.12 189.65 170.24C189.27 170.58 188.75 171.14 187.83 171.14C186.95 171.14 186.37 170.68 186.37 169.22V163.16H189.89C190.07 163.16 190.17 163.08 190.21 162.88C190.23 162.78 190.27 162.6 190.27 162.46C190.27 162.32 190.17 162.24 189.97 162.24H186.37V158.92C186.37 158.6 186.23 158.46 186.05 158.46C185.77 158.46 185.67 158.68 185.59 159.12C185.19 161.08 184.69 161.84 183.51 162.28C183.23 162.38 183.05 162.52 183.05 162.76C183.05 163.02 183.25 163.16 183.57 163.16H184.97V167.08C184.97 168.46 184.93 170 184.93 170.42C184.93 171.4 185.93 172.22 187.43 172.22C188.39 172.22 189.37 171.88 190.09 171.12C190.35 170.84 190.47 170.62 190.47 170.4C190.47 170.18 190.31 170 190.09 170ZM192.826 159.68C193.706 159.68 194.406 158.92 194.406 158.24C194.406 157.64 193.946 157.3 193.426 157.3C192.546 157.3 191.886 158.08 191.886 158.76C191.886 159.38 192.386 159.68 192.826 159.68ZM191.746 172.06C192.166 172.06 192.746 172 193.346 172C193.966 172 194.586 172.06 195.006 172.06C195.246 172.06 195.366 171.86 195.366 171.7C195.366 170.98 194.046 171.6 194.046 169.94V162.7C194.046 162.3 193.946 162.08 193.686 162.08C193.526 162.08 193.326 162.14 192.406 162.6C191.486 163.06 191.186 163.28 191.186 163.56C191.186 164.3 192.646 163.58 192.646 164.8V169.94C192.646 171.6 191.346 170.98 191.346 171.7C191.346 171.86 191.466 172.06 191.746 172.06ZM201.678 172.34C204.658 172.34 206.898 170.1 206.898 167.08C206.898 163.98 204.758 161.88 201.858 161.88C198.878 161.88 196.638 164.12 196.638 167.16C196.638 170.24 198.778 172.34 201.678 172.34ZM202.058 171.4C199.778 171.4 198.138 169.14 198.138 166.48C198.138 164.46 199.438 162.82 201.478 162.82C203.758 162.82 205.398 165.08 205.398 167.76C205.398 169.76 204.098 171.4 202.058 171.4ZM217.937 169.74L217.417 166C217.217 164.54 216.757 162.02 214.257 162.02C212.757 162.02 211.757 162.9 211.097 163.94V162.7C211.097 162.3 210.997 162.08 210.737 162.08C210.577 162.08 210.377 162.14 209.457 162.6C208.537 163.06 208.237 163.28 208.237 163.56C208.237 164.3 209.697 163.58 209.697 164.8V169.94C209.697 171.6 208.397 170.98 208.397 171.7C208.397 171.86 208.517 172.06 208.797 172.06C209.217 172.06 209.797 172 210.397 172C211.017 172 211.637 172.06 212.057 172.06C212.297 172.06 212.417 171.86 212.417 171.7C212.417 170.98 211.097 171.6 211.097 169.94V166.4C211.097 164.34 212.497 163.28 213.797 163.28C215.517 163.28 215.857 165.18 215.997 166.1L216.517 169.74C216.537 169.88 216.557 170.1 216.557 170.22C216.557 171.52 215.157 170.98 215.157 171.68C215.157 171.92 215.357 172.06 215.657 172.06C216.217 172.06 216.537 172 217.297 172C218.017 172 218.417 172.06 218.957 172.06C219.217 172.06 219.437 171.96 219.437 171.7C219.437 170.94 218.197 171.66 217.937 169.74ZM222.569 168.68C222.789 168.68 222.929 168.54 222.949 168.36C222.989 168.06 223.009 167.64 223.089 166.6C223.129 165.92 223.529 165.3 224.409 164.3C225.389 163.22 226.129 162.32 226.129 160.68C226.129 158.88 224.769 157.52 222.909 157.52C220.929 157.52 219.449 158.7 219.449 159.52C219.449 159.86 219.549 160.46 220.089 161.14C220.249 161.34 220.349 161.48 220.549 161.48C220.749 161.48 220.869 161.3 220.929 160.94C221.189 159.4 221.849 158.48 223.049 158.48C224.229 158.48 224.869 159.34 224.869 160.44C224.869 161.44 224.469 161.96 223.449 163.1C222.489 164.18 222.049 165.1 222.049 166.14C222.049 166.76 222.109 167.92 222.189 168.36C222.229 168.54 222.349 168.68 222.569 168.68ZM222.689 170.2C223.329 170.2 223.809 170.52 223.809 171.16C223.809 171.72 223.249 172.16 222.529 172.16C221.889 172.16 221.409 171.84 221.409 171.22C221.409 170.62 221.969 170.2 222.689 170.2Z" fill="white"/>
</svg>
