<svg width="465" height="47" viewBox="0 0 465 47" fill="none" xmlns="http://www.w3.org/2000/svg">
<path d="M3.03 21.12C2.41667 21.12 1.89667 21.0167 1.47 20.81C1.04333 20.5967 0.68 20.3233 0.38 19.99L1.38 18.98C1.85333 19.5133 2.43667 19.78 3.13 19.78C3.50333 19.78 3.78 19.7033 3.96 19.55C4.14 19.3967 4.23 19.1933 4.23 18.94C4.23 18.7467 4.17667 18.5867 4.07 18.46C3.96333 18.3267 3.74667 18.2367 3.42 18.19L2.73 18.1C1.99 18.0067 1.44667 17.7833 1.1 17.43C0.76 17.0767 0.59 16.6067 0.59 16.02C0.59 15.7067 0.65 15.42 0.77 15.16C0.89 14.9 1.06 14.6767 1.28 14.49C1.50667 14.3033 1.78 14.16 2.1 14.06C2.42667 13.9533 2.79667 13.9 3.21 13.9C3.73667 13.9 4.2 13.9833 4.6 14.15C5 14.3167 5.34333 14.56 5.63 14.88L4.62 15.9C4.45333 15.7067 4.25 15.55 4.01 15.43C3.77667 15.3033 3.48 15.24 3.12 15.24C2.78 15.24 2.52667 15.3 2.36 15.42C2.19333 15.54 2.11 15.7067 2.11 15.92C2.11 16.16 2.17333 16.3333 2.3 16.44C2.43333 16.5467 2.64667 16.6233 2.94 16.67L3.63 16.78C4.35 16.8933 4.88333 17.1167 5.23 17.45C5.57667 17.7767 5.75 18.2433 5.75 18.85C5.75 19.1833 5.69 19.49 5.57 19.77C5.45 20.05 5.27333 20.29 5.04 20.49C4.81333 20.69 4.53 20.8467 4.19 20.96C3.85 21.0667 3.46333 21.12 3.03 21.12ZM9.06023 21.12C8.67357 21.12 8.3269 21.0567 8.02023 20.93C7.72023 20.8033 7.46357 20.62 7.25023 20.38C7.04357 20.14 6.88357 19.85 6.77023 19.51C6.6569 19.17 6.60023 18.79 6.60023 18.37C6.60023 17.95 6.6569 17.57 6.77023 17.23C6.88357 16.89 7.04357 16.6033 7.25023 16.37C7.46357 16.13 7.72023 15.9467 8.02023 15.82C8.3269 15.6933 8.67357 15.63 9.06023 15.63C9.4469 15.63 9.79023 15.6933 10.0902 15.82C10.3969 15.9467 10.6536 16.13 10.8602 16.37C11.0736 16.6033 11.2369 16.89 11.3502 17.23C11.4636 17.57 11.5202 17.95 11.5202 18.37C11.5202 18.79 11.4636 19.17 11.3502 19.51C11.2369 19.85 11.0736 20.14 10.8602 20.38C10.6536 20.62 10.3969 20.8033 10.0902 20.93C9.79023 21.0567 9.4469 21.12 9.06023 21.12ZM9.06023 19.95C9.35357 19.95 9.58023 19.86 9.74023 19.68C9.90023 19.5 9.98023 19.2433 9.98023 18.91V17.84C9.98023 17.5067 9.90023 17.25 9.74023 17.07C9.58023 16.89 9.35357 16.8 9.06023 16.8C8.7669 16.8 8.54023 16.89 8.38023 17.07C8.22023 17.25 8.14023 17.5067 8.14023 17.84V18.91C8.14023 19.2433 8.22023 19.5 8.38023 19.68C8.54023 19.86 8.7669 19.95 9.06023 19.95ZM15.6748 20.12H15.6248C15.5781 20.2533 15.5148 20.38 15.4348 20.5C15.3614 20.62 15.2648 20.7267 15.1448 20.82C15.0248 20.9133 14.8814 20.9867 14.7148 21.04C14.5548 21.0933 14.3681 21.12 14.1548 21.12C13.6148 21.12 13.2048 20.9433 12.9248 20.59C12.6514 20.23 12.5148 19.7167 12.5148 19.05V15.75H13.9948V18.92C13.9948 19.24 14.0514 19.4867 14.1648 19.66C14.2781 19.8333 14.4714 19.92 14.7448 19.92C14.8581 19.92 14.9714 19.9033 15.0848 19.87C15.1981 19.8367 15.2981 19.79 15.3848 19.73C15.4714 19.6633 15.5414 19.5833 15.5948 19.49C15.6481 19.3967 15.6748 19.2867 15.6748 19.16V15.75H17.1548V21H15.6748V20.12ZM18.5318 21V15.75H20.0118V16.89H20.0618C20.0885 16.7433 20.1351 16.6033 20.2018 16.47C20.2685 16.33 20.3551 16.2067 20.4618 16.1C20.5751 15.9933 20.7085 15.91 20.8618 15.85C21.0151 15.7833 21.1951 15.75 21.4018 15.75H21.6618V17.13H21.2918C20.8585 17.13 20.5351 17.1867 20.3218 17.3C20.1151 17.4133 20.0118 17.6233 20.0118 17.93V21H18.5318ZM24.6459 21.12C24.2526 21.12 23.9026 21.0567 23.5959 20.93C23.2893 20.7967 23.0326 20.6133 22.8259 20.38C22.6193 20.14 22.4626 19.85 22.3559 19.51C22.2493 19.17 22.1959 18.79 22.1959 18.37C22.1959 17.95 22.2493 17.5733 22.3559 17.24C22.4626 16.9 22.6193 16.61 22.8259 16.37C23.0326 16.13 23.2893 15.9467 23.5959 15.82C23.9026 15.6933 24.2526 15.63 24.6459 15.63C25.1793 15.63 25.6226 15.75 25.9759 15.99C26.3359 16.23 26.5926 16.5667 26.7459 17L25.5459 17.52C25.4993 17.32 25.4026 17.15 25.2559 17.01C25.1093 16.87 24.9059 16.8 24.6459 16.8C24.3459 16.8 24.1193 16.9 23.9659 17.1C23.8126 17.2933 23.7359 17.5567 23.7359 17.89V18.87C23.7359 19.2033 23.8126 19.4667 23.9659 19.66C24.1193 19.8533 24.3459 19.95 24.6459 19.95C24.9126 19.95 25.1226 19.88 25.2759 19.74C25.4359 19.5933 25.5526 19.4033 25.6259 19.17L26.7759 19.67C26.6026 20.17 26.3326 20.5367 25.9659 20.77C25.6059 21.0033 25.1659 21.12 24.6459 21.12ZM29.8331 21.12C29.4331 21.12 29.0765 21.0567 28.7631 20.93C28.4498 20.7967 28.1831 20.6133 27.9631 20.38C27.7498 20.14 27.5865 19.85 27.4731 19.51C27.3665 19.17 27.3131 18.79 27.3131 18.37C27.3131 17.9567 27.3665 17.5833 27.4731 17.25C27.5798 16.91 27.7365 16.62 27.9431 16.38C28.1565 16.14 28.4165 15.9567 28.7231 15.83C29.0298 15.6967 29.3798 15.63 29.7731 15.63C30.2065 15.63 30.5765 15.7033 30.8831 15.85C31.1965 15.9967 31.4498 16.1933 31.6431 16.44C31.8431 16.6867 31.9865 16.9733 32.0731 17.3C32.1665 17.62 32.2131 17.9567 32.2131 18.31V18.75H28.8431V18.83C28.8431 19.1767 28.9365 19.4533 29.1231 19.66C29.3098 19.86 29.6031 19.96 30.0031 19.96C30.3098 19.96 30.5598 19.9 30.7531 19.78C30.9465 19.6533 31.1265 19.5033 31.2931 19.33L32.0331 20.25C31.7998 20.5233 31.4931 20.7367 31.1131 20.89C30.7398 21.0433 30.3131 21.12 29.8331 21.12ZM29.8031 16.72C29.5031 16.72 29.2665 16.82 29.0931 17.02C28.9265 17.2133 28.8431 17.4733 28.8431 17.8V17.88H30.6831V17.79C30.6831 17.47 30.6098 17.2133 30.4631 17.02C30.3231 16.82 30.1031 16.72 29.8031 16.72ZM34.2184 21.11C33.9184 21.11 33.695 21.0367 33.5484 20.89C33.4084 20.7367 33.3384 20.5433 33.3384 20.31V20.11C33.3384 19.8767 33.4084 19.6867 33.5484 19.54C33.695 19.3867 33.9184 19.31 34.2184 19.31C34.5184 19.31 34.7384 19.3867 34.8784 19.54C35.025 19.6867 35.0984 19.8767 35.0984 20.11V20.31C35.0984 20.5433 35.025 20.7367 34.8784 20.89C34.7384 21.0367 34.5184 21.11 34.2184 21.11ZM34.2184 17.44C33.9184 17.44 33.695 17.3667 33.5484 17.22C33.4084 17.0667 33.3384 16.8733 33.3384 16.64V16.44C33.3384 16.2067 33.4084 16.0167 33.5484 15.87C33.695 15.7167 33.9184 15.64 34.2184 15.64C34.5184 15.64 34.7384 15.7167 34.8784 15.87C35.025 16.0167 35.0984 16.2067 35.0984 16.44V16.64C35.0984 16.8733 35.025 17.0667 34.8784 17.22C34.7384 17.3667 34.5184 17.44 34.2184 17.44ZM40.8524 16.74L40.0124 15.19H39.9824V21H39.1624V14.02H40.1324L42.6824 18.28L43.5224 19.83H43.5524V14.02H44.3724V21H43.4024L40.8524 16.74ZM49.9027 21C49.6027 21 49.3861 20.92 49.2527 20.76C49.1261 20.6 49.0461 20.4 49.0127 20.16H48.9627C48.8494 20.48 48.6627 20.72 48.4027 20.88C48.1427 21.04 47.8327 21.12 47.4727 21.12C46.9261 21.12 46.4994 20.98 46.1927 20.7C45.8927 20.42 45.7427 20.04 45.7427 19.56C45.7427 19.0733 45.9194 18.7 46.2727 18.44C46.6327 18.18 47.1894 18.05 47.9427 18.05H48.9627V17.54C48.9627 17.1733 48.8627 16.8933 48.6627 16.7C48.4627 16.5067 48.1561 16.41 47.7427 16.41C47.4294 16.41 47.1661 16.48 46.9527 16.62C46.7461 16.76 46.5727 16.9467 46.4327 17.18L45.9527 16.73C46.0927 16.45 46.3161 16.2133 46.6227 16.02C46.9294 15.82 47.3161 15.72 47.7827 15.72C48.4094 15.72 48.8961 15.8733 49.2427 16.18C49.5894 16.4867 49.7627 16.9133 49.7627 17.46V20.3H50.3527V21H49.9027ZM47.6027 20.44C47.8027 20.44 47.9861 20.4167 48.1527 20.37C48.3194 20.3233 48.4627 20.2567 48.5827 20.17C48.7027 20.0833 48.7961 19.9833 48.8627 19.87C48.9294 19.7567 48.9627 19.6333 48.9627 19.5V18.65H47.9027C47.4427 18.65 47.1061 18.7167 46.8927 18.85C46.6861 18.9833 46.5827 19.1767 46.5827 19.43V19.64C46.5827 19.8933 46.6727 20.09 46.8527 20.23C47.0394 20.37 47.2894 20.44 47.6027 20.44ZM52.6345 21C52.3545 21 52.1412 20.9233 51.9945 20.77C51.8545 20.61 51.7845 20.4033 51.7845 20.15V16.54H50.9345V15.84H51.4145C51.5879 15.84 51.7045 15.8067 51.7645 15.74C51.8312 15.6667 51.8645 15.5433 51.8645 15.37V14.41H52.5845V15.84H53.7145V16.54H52.5845V20.3H53.6345V21H52.6345ZM55.4004 14.63C55.2271 14.63 55.1004 14.59 55.0204 14.51C54.9471 14.4233 54.9104 14.3133 54.9104 14.18V14.05C54.9104 13.9167 54.9471 13.81 55.0204 13.73C55.1004 13.6433 55.2271 13.6 55.4004 13.6C55.5737 13.6 55.6971 13.6433 55.7704 13.73C55.8504 13.81 55.8904 13.9167 55.8904 14.05V14.18C55.8904 14.3133 55.8504 14.4233 55.7704 14.51C55.6971 14.59 55.5737 14.63 55.4004 14.63ZM55.0004 15.84H55.8004V21H55.0004V15.84ZM59.4504 21.12C59.1037 21.12 58.7871 21.0567 58.5004 20.93C58.2137 20.8033 57.9671 20.6233 57.7604 20.39C57.5604 20.15 57.4037 19.8667 57.2904 19.54C57.1771 19.2067 57.1204 18.8333 57.1204 18.42C57.1204 18.0133 57.1771 17.6433 57.2904 17.31C57.4037 16.9767 57.5604 16.6933 57.7604 16.46C57.9671 16.22 58.2137 16.0367 58.5004 15.91C58.7871 15.7833 59.1037 15.72 59.4504 15.72C59.7971 15.72 60.1104 15.7833 60.3904 15.91C60.6771 16.0367 60.9237 16.22 61.1304 16.46C61.3371 16.6933 61.4971 16.9767 61.6104 17.31C61.7237 17.6433 61.7804 18.0133 61.7804 18.42C61.7804 18.8333 61.7237 19.2067 61.6104 19.54C61.4971 19.8667 61.3371 20.15 61.1304 20.39C60.9237 20.6233 60.6771 20.8033 60.3904 20.93C60.1104 21.0567 59.7971 21.12 59.4504 21.12ZM59.4504 20.41C59.8837 20.41 60.2371 20.2767 60.5104 20.01C60.7837 19.7433 60.9204 19.3367 60.9204 18.79V18.05C60.9204 17.5033 60.7837 17.0967 60.5104 16.83C60.2371 16.5633 59.8837 16.43 59.4504 16.43C59.0171 16.43 58.6637 16.5633 58.3904 16.83C58.1171 17.0967 57.9804 17.5033 57.9804 18.05V18.79C57.9804 19.3367 58.1171 19.7433 58.3904 20.01C58.6637 20.2767 59.0171 20.41 59.4504 20.41ZM63.0961 21V15.84H63.8961V16.68H63.9361C64.0628 16.3867 64.2394 16.1533 64.4661 15.98C64.6994 15.8067 65.0094 15.72 65.3961 15.72C65.9294 15.72 66.3494 15.8933 66.6561 16.24C66.9694 16.58 67.1261 17.0633 67.1261 17.69V21H66.3261V17.83C66.3261 16.9033 65.9361 16.44 65.1561 16.44C64.9961 16.44 64.8394 16.46 64.6861 16.5C64.5394 16.54 64.4061 16.6 64.2861 16.68C64.1661 16.76 64.0694 16.8633 63.9961 16.99C63.9294 17.11 63.8961 17.2533 63.8961 17.42V21H63.0961ZM72.5297 21C72.2297 21 72.013 20.92 71.8797 20.76C71.753 20.6 71.673 20.4 71.6397 20.16H71.5897C71.4764 20.48 71.2897 20.72 71.0297 20.88C70.7697 21.04 70.4597 21.12 70.0997 21.12C69.553 21.12 69.1264 20.98 68.8197 20.7C68.5197 20.42 68.3697 20.04 68.3697 19.56C68.3697 19.0733 68.5464 18.7 68.8997 18.44C69.2597 18.18 69.8164 18.05 70.5697 18.05H71.5897V17.54C71.5897 17.1733 71.4897 16.8933 71.2897 16.7C71.0897 16.5067 70.783 16.41 70.3697 16.41C70.0564 16.41 69.793 16.48 69.5797 16.62C69.373 16.76 69.1997 16.9467 69.0597 17.18L68.5797 16.73C68.7197 16.45 68.943 16.2133 69.2497 16.02C69.5564 15.82 69.943 15.72 70.4097 15.72C71.0364 15.72 71.523 15.8733 71.8697 16.18C72.2164 16.4867 72.3897 16.9133 72.3897 17.46V20.3H72.9797V21H72.5297ZM70.2297 20.44C70.4297 20.44 70.613 20.4167 70.7797 20.37C70.9464 20.3233 71.0897 20.2567 71.2097 20.17C71.3297 20.0833 71.423 19.9833 71.4897 19.87C71.5564 19.7567 71.5897 19.6333 71.5897 19.5V18.65H70.5297C70.0697 18.65 69.733 18.7167 69.5197 18.85C69.313 18.9833 69.2097 19.1767 69.2097 19.43V19.64C69.2097 19.8933 69.2997 20.09 69.4797 20.23C69.6664 20.37 69.9164 20.44 70.2297 20.44ZM74.9715 21C74.6915 21 74.4782 20.9233 74.3315 20.77C74.1915 20.61 74.1215 20.41 74.1215 20.17V13.6H74.9215V20.3H75.6815V21H74.9715ZM81.7494 21.12C80.8627 21.12 80.1727 20.82 79.6794 20.22C79.186 19.6133 78.9394 18.7233 78.9394 17.55C78.9394 16.3767 79.186 15.4767 79.6794 14.85C80.1727 14.2167 80.8627 13.9 81.7494 13.9C82.336 13.9 82.826 14.0333 83.2194 14.3C83.6194 14.5667 83.9294 14.9433 84.1494 15.43L83.4694 15.84C83.3294 15.48 83.116 15.1933 82.8294 14.98C82.5427 14.76 82.1827 14.65 81.7494 14.65C81.4494 14.65 81.1794 14.7067 80.9394 14.82C80.706 14.9333 80.506 15.0967 80.3394 15.31C80.1794 15.5167 80.056 15.7667 79.9694 16.06C79.8827 16.3467 79.8394 16.67 79.8394 17.03V18.07C79.8394 18.79 80.006 19.3533 80.3394 19.76C80.6727 20.1667 81.1427 20.37 81.7494 20.37C82.196 20.37 82.5694 20.2567 82.8694 20.03C83.1694 19.7967 83.3894 19.49 83.5294 19.11L84.1994 19.53C83.9794 20.0233 83.6627 20.4133 83.2494 20.7C82.836 20.98 82.336 21.12 81.7494 21.12ZM89.1703 21C88.8703 21 88.6536 20.92 88.5203 20.76C88.3936 20.6 88.3136 20.4 88.2803 20.16H88.2303C88.117 20.48 87.9303 20.72 87.6703 20.88C87.4103 21.04 87.1003 21.12 86.7403 21.12C86.1936 21.12 85.767 20.98 85.4603 20.7C85.1603 20.42 85.0103 20.04 85.0103 19.56C85.0103 19.0733 85.187 18.7 85.5403 18.44C85.9003 18.18 86.457 18.05 87.2103 18.05H88.2303V17.54C88.2303 17.1733 88.1303 16.8933 87.9303 16.7C87.7303 16.5067 87.4236 16.41 87.0103 16.41C86.697 16.41 86.4336 16.48 86.2203 16.62C86.0136 16.76 85.8403 16.9467 85.7003 17.18L85.2203 16.73C85.3603 16.45 85.5836 16.2133 85.8903 16.02C86.197 15.82 86.5836 15.72 87.0503 15.72C87.677 15.72 88.1636 15.8733 88.5103 16.18C88.857 16.4867 89.0303 16.9133 89.0303 17.46V20.3H89.6203V21H89.1703ZM86.8703 20.44C87.0703 20.44 87.2536 20.4167 87.4203 20.37C87.587 20.3233 87.7303 20.2567 87.8503 20.17C87.9703 20.0833 88.0636 19.9833 88.1303 19.87C88.197 19.7567 88.2303 19.6333 88.2303 19.5V18.65H87.1703C86.7103 18.65 86.3736 18.7167 86.1603 18.85C85.9536 18.9833 85.8503 19.1767 85.8503 19.43V19.64C85.8503 19.8933 85.9403 20.09 86.1203 20.23C86.307 20.37 86.557 20.44 86.8703 20.44ZM90.7621 21V15.84H91.5621V16.68H91.6021C91.7288 16.3867 91.9054 16.1533 92.1321 15.98C92.3654 15.8067 92.6754 15.72 93.0621 15.72C93.5954 15.72 94.0154 15.8933 94.3221 16.24C94.6354 16.58 94.7921 17.0633 94.7921 17.69V21H93.9921V17.83C93.9921 16.9033 93.6021 16.44 92.8221 16.44C92.6621 16.44 92.5054 16.46 92.3521 16.5C92.2054 16.54 92.0721 16.6 91.9521 16.68C91.8321 16.76 91.7354 16.8633 91.6621 16.99C91.5954 17.11 91.5621 17.2533 91.5621 17.42V21H90.7621ZM98.3657 21.12C98.0057 21.12 97.6824 21.0567 97.3957 20.93C97.109 20.8033 96.8657 20.6233 96.6657 20.39C96.4724 20.1567 96.3224 19.8733 96.2157 19.54C96.1157 19.2067 96.0657 18.8333 96.0657 18.42C96.0657 18.0067 96.1157 17.6333 96.2157 17.3C96.3224 16.9667 96.4724 16.6833 96.6657 16.45C96.8657 16.2167 97.109 16.0367 97.3957 15.91C97.6824 15.7833 98.0057 15.72 98.3657 15.72C98.879 15.72 99.289 15.8333 99.5957 16.06C99.909 16.28 100.142 16.57 100.296 16.93L99.6257 17.27C99.5324 17.0033 99.379 16.7967 99.1657 16.65C98.9524 16.5033 98.6857 16.43 98.3657 16.43C98.1257 16.43 97.9157 16.47 97.7357 16.55C97.5557 16.6233 97.4057 16.73 97.2857 16.87C97.1657 17.0033 97.0757 17.1667 97.0157 17.36C96.9557 17.5467 96.9257 17.7533 96.9257 17.98V18.86C96.9257 19.3133 97.0457 19.6867 97.2857 19.98C97.5324 20.2667 97.8924 20.41 98.3657 20.41C99.0124 20.41 99.479 20.11 99.7657 19.51L100.346 19.9C100.179 20.2733 99.929 20.57 99.5957 20.79C99.269 21.01 98.859 21.12 98.3657 21.12ZM103.356 21.12C103.003 21.12 102.683 21.0567 102.396 20.93C102.116 20.8033 101.873 20.6233 101.666 20.39C101.466 20.15 101.31 19.8667 101.196 19.54C101.09 19.2067 101.036 18.8333 101.036 18.42C101.036 18.0133 101.09 17.6433 101.196 17.31C101.31 16.9767 101.466 16.6933 101.666 16.46C101.873 16.22 102.116 16.0367 102.396 15.91C102.683 15.7833 103.003 15.72 103.356 15.72C103.703 15.72 104.013 15.7833 104.286 15.91C104.56 16.0367 104.793 16.2133 104.986 16.44C105.18 16.66 105.326 16.9233 105.426 17.23C105.533 17.5367 105.586 17.8733 105.586 18.24V18.62H101.876V18.86C101.876 19.08 101.91 19.2867 101.976 19.48C102.05 19.6667 102.15 19.83 102.276 19.97C102.41 20.11 102.57 20.22 102.756 20.3C102.95 20.38 103.166 20.42 103.406 20.42C103.733 20.42 104.016 20.3433 104.256 20.19C104.503 20.0367 104.693 19.8167 104.826 19.53L105.396 19.94C105.23 20.2933 104.97 20.58 104.616 20.8C104.263 21.0133 103.843 21.12 103.356 21.12ZM103.356 16.39C103.136 16.39 102.936 16.43 102.756 16.51C102.576 16.5833 102.42 16.69 102.286 16.83C102.16 16.97 102.06 17.1367 101.986 17.33C101.913 17.5167 101.876 17.7233 101.876 17.95V18.02H104.726V17.91C104.726 17.45 104.6 17.0833 104.346 16.81C104.1 16.53 103.77 16.39 103.356 16.39ZM106.905 21V15.84H107.705V16.79H107.755C107.848 16.5433 108.015 16.3233 108.255 16.13C108.495 15.9367 108.825 15.84 109.245 15.84H109.555V16.64H109.085C108.651 16.64 108.311 16.7233 108.065 16.89C107.825 17.05 107.705 17.2533 107.705 17.5V21H106.905ZM112.69 21V20.3H113.67V14.72H112.69V14.02H115.49V14.72H114.51V20.3H115.49V21H112.69ZM116.944 21V15.84H117.744V16.68H117.784C117.91 16.3867 118.087 16.1533 118.314 15.98C118.547 15.8067 118.857 15.72 119.244 15.72C119.777 15.72 120.197 15.8933 120.504 16.24C120.817 16.58 120.974 17.0633 120.974 17.69V21H120.174V17.83C120.174 16.9033 119.784 16.44 119.004 16.44C118.844 16.44 118.687 16.46 118.534 16.5C118.387 16.54 118.254 16.6 118.134 16.68C118.014 16.76 117.917 16.8633 117.844 16.99C117.777 17.11 117.744 17.2533 117.744 17.42V21H116.944ZM124.177 21.12C123.697 21.12 123.294 21.03 122.967 20.85C122.647 20.6633 122.371 20.4167 122.137 20.11L122.707 19.65C122.907 19.9033 123.131 20.1 123.377 20.24C123.624 20.3733 123.911 20.44 124.237 20.44C124.577 20.44 124.841 20.3667 125.027 20.22C125.221 20.0733 125.317 19.8667 125.317 19.6C125.317 19.4 125.251 19.23 125.117 19.09C124.991 18.9433 124.757 18.8433 124.417 18.79L124.007 18.73C123.767 18.6967 123.547 18.6467 123.347 18.58C123.147 18.5067 122.971 18.4133 122.817 18.3C122.671 18.18 122.554 18.0333 122.467 17.86C122.387 17.6867 122.347 17.48 122.347 17.24C122.347 16.9867 122.394 16.7667 122.487 16.58C122.581 16.3867 122.707 16.2267 122.867 16.1C123.034 15.9733 123.231 15.88 123.457 15.82C123.684 15.7533 123.927 15.72 124.187 15.72C124.607 15.72 124.957 15.7933 125.237 15.94C125.524 16.0867 125.774 16.29 125.987 16.55L125.457 17.03C125.344 16.87 125.177 16.7267 124.957 16.6C124.737 16.4667 124.461 16.4 124.127 16.4C123.794 16.4 123.541 16.4733 123.367 16.62C123.201 16.76 123.117 16.9533 123.117 17.2C123.117 17.4533 123.201 17.6367 123.367 17.75C123.541 17.8633 123.787 17.9467 124.107 18L124.507 18.06C125.081 18.1467 125.487 18.3133 125.727 18.56C125.967 18.8 126.087 19.1167 126.087 19.51C126.087 20.01 125.917 20.4033 125.577 20.69C125.237 20.9767 124.771 21.12 124.177 21.12ZM128.572 21C128.292 21 128.079 20.9233 127.932 20.77C127.792 20.61 127.722 20.4033 127.722 20.15V16.54H126.872V15.84H127.352C127.525 15.84 127.642 15.8067 127.702 15.74C127.769 15.6667 127.802 15.5433 127.802 15.37V14.41H128.522V15.84H129.652V16.54H128.522V20.3H129.572V21H128.572ZM131.338 14.63C131.165 14.63 131.038 14.59 130.958 14.51C130.885 14.4233 130.848 14.3133 130.848 14.18V14.05C130.848 13.9167 130.885 13.81 130.958 13.73C131.038 13.6433 131.165 13.6 131.338 13.6C131.511 13.6 131.635 13.6433 131.708 13.73C131.788 13.81 131.828 13.9167 131.828 14.05V14.18C131.828 14.3133 131.788 14.4233 131.708 14.51C131.635 14.59 131.511 14.63 131.338 14.63ZM130.938 15.84H131.738V21H130.938V15.84ZM134.578 21C134.298 21 134.085 20.9233 133.938 20.77C133.798 20.61 133.728 20.4033 133.728 20.15V16.54H132.878V15.84H133.358C133.531 15.84 133.648 15.8067 133.708 15.74C133.775 15.6667 133.808 15.5433 133.808 15.37V14.41H134.528V15.84H135.658V16.54H134.528V20.3H135.578V21H134.578ZM140.124 20.16H140.084C140.03 20.28 139.964 20.4 139.884 20.52C139.81 20.6333 139.717 20.7367 139.604 20.83C139.49 20.9167 139.354 20.9867 139.194 21.04C139.034 21.0933 138.847 21.12 138.634 21.12C138.1 21.12 137.677 20.95 137.364 20.61C137.05 20.2633 136.894 19.7767 136.894 19.15V15.84H137.694V19.01C137.694 19.9367 138.087 20.4 138.874 20.4C139.034 20.4 139.187 20.38 139.334 20.34C139.487 20.3 139.62 20.24 139.734 20.16C139.854 20.08 139.947 19.98 140.014 19.86C140.087 19.7333 140.124 19.5833 140.124 19.41V15.84H140.924V21H140.124V20.16ZM143.767 21C143.487 21 143.274 20.9233 143.127 20.77C142.987 20.61 142.917 20.4033 142.917 20.15V16.54H142.067V15.84H142.547C142.721 15.84 142.837 15.8067 142.897 15.74C142.964 15.6667 142.997 15.5433 142.997 15.37V14.41H143.717V15.84H144.847V16.54H143.717V20.3H144.767V21H143.767ZM148.034 21.12C147.681 21.12 147.361 21.0567 147.074 20.93C146.794 20.8033 146.551 20.6233 146.344 20.39C146.144 20.15 145.987 19.8667 145.874 19.54C145.767 19.2067 145.714 18.8333 145.714 18.42C145.714 18.0133 145.767 17.6433 145.874 17.31C145.987 16.9767 146.144 16.6933 146.344 16.46C146.551 16.22 146.794 16.0367 147.074 15.91C147.361 15.7833 147.681 15.72 148.034 15.72C148.381 15.72 148.691 15.7833 148.964 15.91C149.237 16.0367 149.471 16.2133 149.664 16.44C149.857 16.66 150.004 16.9233 150.104 17.23C150.211 17.5367 150.264 17.8733 150.264 18.24V18.62H146.554V18.86C146.554 19.08 146.587 19.2867 146.654 19.48C146.727 19.6667 146.827 19.83 146.954 19.97C147.087 20.11 147.247 20.22 147.434 20.3C147.627 20.38 147.844 20.42 148.084 20.42C148.411 20.42 148.694 20.3433 148.934 20.19C149.181 20.0367 149.371 19.8167 149.504 19.53L150.074 19.94C149.907 20.2933 149.647 20.58 149.294 20.8C148.941 21.0133 148.521 21.12 148.034 21.12ZM148.034 16.39C147.814 16.39 147.614 16.43 147.434 16.51C147.254 16.5833 147.097 16.69 146.964 16.83C146.837 16.97 146.737 17.1367 146.664 17.33C146.591 17.5167 146.554 17.7233 146.554 17.95V18.02H149.404V17.91C149.404 17.45 149.277 17.0833 149.024 16.81C148.777 16.53 148.447 16.39 148.034 16.39ZM151.897 19.83C152.11 19.83 152.264 19.8867 152.357 20C152.457 20.1067 152.507 20.2467 152.507 20.42V20.56C152.507 20.8333 152.427 21.1333 152.267 21.46C152.107 21.7933 151.884 22.0833 151.597 22.33H150.927C151.127 22.1167 151.287 21.9133 151.407 21.72C151.534 21.5333 151.624 21.3233 151.677 21.09C151.544 21.0567 151.444 20.9933 151.377 20.9C151.317 20.8067 151.287 20.6933 151.287 20.56V20.42C151.287 20.2467 151.334 20.1067 151.427 20C151.527 19.8867 151.684 19.83 151.897 19.83ZM156.555 14.02H158.895C159.328 14.02 159.722 14.0933 160.075 14.24C160.428 14.3867 160.728 14.6067 160.975 14.9C161.228 15.1867 161.422 15.55 161.555 15.99C161.688 16.4233 161.755 16.93 161.755 17.51C161.755 18.09 161.688 18.6 161.555 19.04C161.422 19.4733 161.228 19.8367 160.975 20.13C160.728 20.4167 160.428 20.6333 160.075 20.78C159.722 20.9267 159.328 21 158.895 21H156.555V14.02ZM158.895 20.26C159.182 20.26 159.445 20.2133 159.685 20.12C159.925 20.02 160.132 19.8767 160.305 19.69C160.478 19.5033 160.612 19.2767 160.705 19.01C160.805 18.7367 160.855 18.4267 160.855 18.08V16.94C160.855 16.5933 160.805 16.2867 160.705 16.02C160.612 15.7467 160.478 15.5167 160.305 15.33C160.132 15.1433 159.925 15.0033 159.685 14.91C159.445 14.81 159.182 14.76 158.895 14.76H157.395V20.26H158.895ZM163.584 14.63C163.411 14.63 163.284 14.59 163.204 14.51C163.131 14.4233 163.094 14.3133 163.094 14.18V14.05C163.094 13.9167 163.131 13.81 163.204 13.73C163.284 13.6433 163.411 13.6 163.584 13.6C163.757 13.6 163.881 13.6433 163.954 13.73C164.034 13.81 164.074 13.9167 164.074 14.05V14.18C164.074 14.3133 164.034 14.4233 163.954 14.51C163.881 14.59 163.757 14.63 163.584 14.63ZM163.184 15.84H163.984V21H163.184V15.84ZM166.824 21L165.014 15.84H165.814L166.714 18.4L167.274 20.16H167.324L167.884 18.4L168.804 15.84H169.574L167.754 21H166.824ZM171.006 14.63C170.833 14.63 170.706 14.59 170.626 14.51C170.553 14.4233 170.516 14.3133 170.516 14.18V14.05C170.516 13.9167 170.553 13.81 170.626 13.73C170.706 13.6433 170.833 13.6 171.006 13.6C171.179 13.6 171.303 13.6433 171.376 13.73C171.456 13.81 171.496 13.9167 171.496 14.05V14.18C171.496 14.3133 171.456 14.4233 171.376 14.51C171.303 14.59 171.179 14.63 171.006 14.63ZM170.606 15.84H171.406V21H170.606V15.84ZM174.656 21.12C174.176 21.12 173.773 21.03 173.446 20.85C173.126 20.6633 172.849 20.4167 172.616 20.11L173.186 19.65C173.386 19.9033 173.609 20.1 173.856 20.24C174.103 20.3733 174.389 20.44 174.716 20.44C175.056 20.44 175.319 20.3667 175.506 20.22C175.699 20.0733 175.796 19.8667 175.796 19.6C175.796 19.4 175.729 19.23 175.596 19.09C175.469 18.9433 175.236 18.8433 174.896 18.79L174.486 18.73C174.246 18.6967 174.026 18.6467 173.826 18.58C173.626 18.5067 173.449 18.4133 173.296 18.3C173.149 18.18 173.033 18.0333 172.946 17.86C172.866 17.6867 172.826 17.48 172.826 17.24C172.826 16.9867 172.873 16.7667 172.966 16.58C173.059 16.3867 173.186 16.2267 173.346 16.1C173.513 15.9733 173.709 15.88 173.936 15.82C174.163 15.7533 174.406 15.72 174.666 15.72C175.086 15.72 175.436 15.7933 175.716 15.94C176.003 16.0867 176.253 16.29 176.466 16.55L175.936 17.03C175.823 16.87 175.656 16.7267 175.436 16.6C175.216 16.4667 174.939 16.4 174.606 16.4C174.273 16.4 174.019 16.4733 173.846 16.62C173.679 16.76 173.596 16.9533 173.596 17.2C173.596 17.4533 173.679 17.6367 173.846 17.75C174.019 17.8633 174.266 17.9467 174.586 18L174.986 18.06C175.559 18.1467 175.966 18.3133 176.206 18.56C176.446 18.8 176.566 19.1167 176.566 19.51C176.566 20.01 176.396 20.4033 176.056 20.69C175.716 20.9767 175.249 21.12 174.656 21.12ZM178.379 14.63C178.206 14.63 178.079 14.59 177.999 14.51C177.926 14.4233 177.889 14.3133 177.889 14.18V14.05C177.889 13.9167 177.926 13.81 177.999 13.73C178.079 13.6433 178.206 13.6 178.379 13.6C178.552 13.6 178.676 13.6433 178.749 13.73C178.829 13.81 178.869 13.9167 178.869 14.05V14.18C178.869 14.3133 178.829 14.4233 178.749 14.51C178.676 14.59 178.552 14.63 178.379 14.63ZM177.979 15.84H178.779V21H177.979V15.84ZM182.429 21.12C182.082 21.12 181.766 21.0567 181.479 20.93C181.192 20.8033 180.946 20.6233 180.739 20.39C180.539 20.15 180.382 19.8667 180.269 19.54C180.156 19.2067 180.099 18.8333 180.099 18.42C180.099 18.0133 180.156 17.6433 180.269 17.31C180.382 16.9767 180.539 16.6933 180.739 16.46C180.946 16.22 181.192 16.0367 181.479 15.91C181.766 15.7833 182.082 15.72 182.429 15.72C182.776 15.72 183.089 15.7833 183.369 15.91C183.656 16.0367 183.902 16.22 184.109 16.46C184.316 16.6933 184.476 16.9767 184.589 17.31C184.702 17.6433 184.759 18.0133 184.759 18.42C184.759 18.8333 184.702 19.2067 184.589 19.54C184.476 19.8667 184.316 20.15 184.109 20.39C183.902 20.6233 183.656 20.8033 183.369 20.93C183.089 21.0567 182.776 21.12 182.429 21.12ZM182.429 20.41C182.862 20.41 183.216 20.2767 183.489 20.01C183.762 19.7433 183.899 19.3367 183.899 18.79V18.05C183.899 17.5033 183.762 17.0967 183.489 16.83C183.216 16.5633 182.862 16.43 182.429 16.43C181.996 16.43 181.642 16.5633 181.369 16.83C181.096 17.0967 180.959 17.5033 180.959 18.05V18.79C180.959 19.3367 181.096 19.7433 181.369 20.01C181.642 20.2767 181.996 20.41 182.429 20.41ZM186.075 21V15.84H186.875V16.68H186.915C187.041 16.3867 187.218 16.1533 187.445 15.98C187.678 15.8067 187.988 15.72 188.375 15.72C188.908 15.72 189.328 15.8933 189.635 16.24C189.948 16.58 190.105 17.0633 190.105 17.69V21H189.305V17.83C189.305 16.9033 188.915 16.44 188.135 16.44C187.975 16.44 187.818 16.46 187.665 16.5C187.518 16.54 187.385 16.6 187.265 16.68C187.145 16.76 187.048 16.8633 186.975 16.99C186.908 17.11 186.875 17.2533 186.875 17.42V21H186.075ZM196.071 21.12C195.725 21.12 195.408 21.0567 195.121 20.93C194.835 20.8033 194.588 20.6233 194.381 20.39C194.181 20.15 194.025 19.8667 193.911 19.54C193.798 19.2067 193.741 18.8333 193.741 18.42C193.741 18.0133 193.798 17.6433 193.911 17.31C194.025 16.9767 194.181 16.6933 194.381 16.46C194.588 16.22 194.835 16.0367 195.121 15.91C195.408 15.7833 195.725 15.72 196.071 15.72C196.418 15.72 196.731 15.7833 197.011 15.91C197.298 16.0367 197.545 16.22 197.751 16.46C197.958 16.6933 198.118 16.9767 198.231 17.31C198.345 17.6433 198.401 18.0133 198.401 18.42C198.401 18.8333 198.345 19.2067 198.231 19.54C198.118 19.8667 197.958 20.15 197.751 20.39C197.545 20.6233 197.298 20.8033 197.011 20.93C196.731 21.0567 196.418 21.12 196.071 21.12ZM196.071 20.41C196.505 20.41 196.858 20.2767 197.131 20.01C197.405 19.7433 197.541 19.3367 197.541 18.79V18.05C197.541 17.5033 197.405 17.0967 197.131 16.83C196.858 16.5633 196.505 16.43 196.071 16.43C195.638 16.43 195.285 16.5633 195.011 16.83C194.738 17.0967 194.601 17.5033 194.601 18.05V18.79C194.601 19.3367 194.738 19.7433 195.011 20.01C195.285 20.2767 195.638 20.41 196.071 20.41ZM199.939 16.54H199.099V15.84H199.939V14.8C199.939 14.44 200.032 14.15 200.219 13.93C200.405 13.71 200.689 13.6 201.069 13.6H201.849V14.3H200.739V15.84H201.849V16.54H200.739V21H199.939V16.54ZM207.804 21.12C206.917 21.12 206.227 20.82 205.734 20.22C205.241 19.6133 204.994 18.7233 204.994 17.55C204.994 16.3767 205.241 15.4767 205.734 14.85C206.227 14.2167 206.917 13.9 207.804 13.9C208.391 13.9 208.881 14.0333 209.274 14.3C209.674 14.5667 209.984 14.9433 210.204 15.43L209.524 15.84C209.384 15.48 209.171 15.1933 208.884 14.98C208.597 14.76 208.237 14.65 207.804 14.65C207.504 14.65 207.234 14.7067 206.994 14.82C206.761 14.9333 206.561 15.0967 206.394 15.31C206.234 15.5167 206.111 15.7667 206.024 16.06C205.937 16.3467 205.894 16.67 205.894 17.03V18.07C205.894 18.79 206.061 19.3533 206.394 19.76C206.727 20.1667 207.197 20.37 207.804 20.37C208.251 20.37 208.624 20.2567 208.924 20.03C209.224 19.7967 209.444 19.49 209.584 19.11L210.254 19.53C210.034 20.0233 209.717 20.4133 209.304 20.7C208.891 20.98 208.391 21.12 207.804 21.12ZM215.225 21C214.925 21 214.708 20.92 214.575 20.76C214.448 20.6 214.368 20.4 214.335 20.16H214.285C214.172 20.48 213.985 20.72 213.725 20.88C213.465 21.04 213.155 21.12 212.795 21.12C212.248 21.12 211.822 20.98 211.515 20.7C211.215 20.42 211.065 20.04 211.065 19.56C211.065 19.0733 211.242 18.7 211.595 18.44C211.955 18.18 212.512 18.05 213.265 18.05H214.285V17.54C214.285 17.1733 214.185 16.8933 213.985 16.7C213.785 16.5067 213.478 16.41 213.065 16.41C212.752 16.41 212.488 16.48 212.275 16.62C212.068 16.76 211.895 16.9467 211.755 17.18L211.275 16.73C211.415 16.45 211.638 16.2133 211.945 16.02C212.252 15.82 212.638 15.72 213.105 15.72C213.732 15.72 214.218 15.8733 214.565 16.18C214.912 16.4867 215.085 16.9133 215.085 17.46V20.3H215.675V21H215.225ZM212.925 20.44C213.125 20.44 213.308 20.4167 213.475 20.37C213.642 20.3233 213.785 20.2567 213.905 20.17C214.025 20.0833 214.118 19.9833 214.185 19.87C214.252 19.7567 214.285 19.6333 214.285 19.5V18.65H213.225C212.765 18.65 212.428 18.7167 212.215 18.85C212.008 18.9833 211.905 19.1767 211.905 19.43V19.64C211.905 19.8933 211.995 20.09 212.175 20.23C212.362 20.37 212.612 20.44 212.925 20.44ZM216.817 21V15.84H217.617V16.68H217.657C217.783 16.3867 217.96 16.1533 218.187 15.98C218.42 15.8067 218.73 15.72 219.117 15.72C219.65 15.72 220.07 15.8933 220.377 16.24C220.69 16.58 220.847 17.0633 220.847 17.69V21H220.047V17.83C220.047 16.9033 219.657 16.44 218.877 16.44C218.717 16.44 218.56 16.46 218.407 16.5C218.26 16.54 218.127 16.6 218.007 16.68C217.887 16.76 217.79 16.8633 217.717 16.99C217.65 17.11 217.617 17.2533 217.617 17.42V21H216.817ZM224.42 21.12C224.06 21.12 223.737 21.0567 223.45 20.93C223.164 20.8033 222.92 20.6233 222.72 20.39C222.527 20.1567 222.377 19.8733 222.27 19.54C222.17 19.2067 222.12 18.8333 222.12 18.42C222.12 18.0067 222.17 17.6333 222.27 17.3C222.377 16.9667 222.527 16.6833 222.72 16.45C222.92 16.2167 223.164 16.0367 223.45 15.91C223.737 15.7833 224.06 15.72 224.42 15.72C224.934 15.72 225.344 15.8333 225.65 16.06C225.964 16.28 226.197 16.57 226.35 16.93L225.68 17.27C225.587 17.0033 225.434 16.7967 225.22 16.65C225.007 16.5033 224.74 16.43 224.42 16.43C224.18 16.43 223.97 16.47 223.79 16.55C223.61 16.6233 223.46 16.73 223.34 16.87C223.22 17.0033 223.13 17.1667 223.07 17.36C223.01 17.5467 222.98 17.7533 222.98 17.98V18.86C222.98 19.3133 223.1 19.6867 223.34 19.98C223.587 20.2667 223.947 20.41 224.42 20.41C225.067 20.41 225.534 20.11 225.82 19.51L226.4 19.9C226.234 20.2733 225.984 20.57 225.65 20.79C225.324 21.01 224.914 21.12 224.42 21.12ZM229.411 21.12C229.058 21.12 228.738 21.0567 228.451 20.93C228.171 20.8033 227.928 20.6233 227.721 20.39C227.521 20.15 227.364 19.8667 227.251 19.54C227.144 19.2067 227.091 18.8333 227.091 18.42C227.091 18.0133 227.144 17.6433 227.251 17.31C227.364 16.9767 227.521 16.6933 227.721 16.46C227.928 16.22 228.171 16.0367 228.451 15.91C228.738 15.7833 229.058 15.72 229.411 15.72C229.758 15.72 230.068 15.7833 230.341 15.91C230.614 16.0367 230.848 16.2133 231.041 16.44C231.234 16.66 231.381 16.9233 231.481 17.23C231.588 17.5367 231.641 17.8733 231.641 18.24V18.62H227.931V18.86C227.931 19.08 227.964 19.2867 228.031 19.48C228.104 19.6667 228.204 19.83 228.331 19.97C228.464 20.11 228.624 20.22 228.811 20.3C229.004 20.38 229.221 20.42 229.461 20.42C229.788 20.42 230.071 20.3433 230.311 20.19C230.558 20.0367 230.748 19.8167 230.881 19.53L231.451 19.94C231.284 20.2933 231.024 20.58 230.671 20.8C230.318 21.0133 229.898 21.12 229.411 21.12ZM229.411 16.39C229.191 16.39 228.991 16.43 228.811 16.51C228.631 16.5833 228.474 16.69 228.341 16.83C228.214 16.97 228.114 17.1367 228.041 17.33C227.968 17.5167 227.931 17.7233 227.931 17.95V18.02H230.781V17.91C230.781 17.45 230.654 17.0833 230.401 16.81C230.154 16.53 229.824 16.39 229.411 16.39ZM232.959 21V15.84H233.759V16.79H233.809C233.903 16.5433 234.069 16.3233 234.309 16.13C234.549 15.9367 234.879 15.84 235.299 15.84H235.609V16.64H235.139C234.706 16.64 234.366 16.7233 234.119 16.89C233.879 17.05 233.759 17.2533 233.759 17.5V21H232.959ZM241.425 14.76V21H240.585V14.76H238.365V14.02H243.645V14.76H241.425ZM244.268 21V15.84H245.068V16.79H245.118C245.211 16.5433 245.378 16.3233 245.618 16.13C245.858 15.9367 246.188 15.84 246.608 15.84H246.918V16.64H246.448C246.015 16.64 245.675 16.7233 245.428 16.89C245.188 17.05 245.068 17.2533 245.068 17.5V21H244.268ZM249.831 21.12C249.478 21.12 249.158 21.0567 248.871 20.93C248.591 20.8033 248.348 20.6233 248.141 20.39C247.941 20.15 247.784 19.8667 247.671 19.54C247.564 19.2067 247.511 18.8333 247.511 18.42C247.511 18.0133 247.564 17.6433 247.671 17.31C247.784 16.9767 247.941 16.6933 248.141 16.46C248.348 16.22 248.591 16.0367 248.871 15.91C249.158 15.7833 249.478 15.72 249.831 15.72C250.178 15.72 250.488 15.7833 250.761 15.91C251.034 16.0367 251.268 16.2133 251.461 16.44C251.654 16.66 251.801 16.9233 251.901 17.23C252.008 17.5367 252.061 17.8733 252.061 18.24V18.62H248.351V18.86C248.351 19.08 248.384 19.2867 248.451 19.48C248.524 19.6667 248.624 19.83 248.751 19.97C248.884 20.11 249.044 20.22 249.231 20.3C249.424 20.38 249.641 20.42 249.881 20.42C250.208 20.42 250.491 20.3433 250.731 20.19C250.978 20.0367 251.168 19.8167 251.301 19.53L251.871 19.94C251.704 20.2933 251.444 20.58 251.091 20.8C250.738 21.0133 250.318 21.12 249.831 21.12ZM249.831 16.39C249.611 16.39 249.411 16.43 249.231 16.51C249.051 16.5833 248.894 16.69 248.761 16.83C248.634 16.97 248.534 17.1367 248.461 17.33C248.388 17.5167 248.351 17.7233 248.351 17.95V18.02H251.201V17.91C251.201 17.45 251.074 17.0833 250.821 16.81C250.574 16.53 250.244 16.39 249.831 16.39ZM257.129 21C256.829 21 256.613 20.92 256.479 20.76C256.353 20.6 256.273 20.4 256.239 20.16H256.189C256.076 20.48 255.889 20.72 255.629 20.88C255.369 21.04 255.059 21.12 254.699 21.12C254.153 21.12 253.726 20.98 253.419 20.7C253.119 20.42 252.969 20.04 252.969 19.56C252.969 19.0733 253.146 18.7 253.499 18.44C253.859 18.18 254.416 18.05 255.169 18.05H256.189V17.54C256.189 17.1733 256.089 16.8933 255.889 16.7C255.689 16.5067 255.383 16.41 254.969 16.41C254.656 16.41 254.393 16.48 254.179 16.62C253.973 16.76 253.799 16.9467 253.659 17.18L253.179 16.73C253.319 16.45 253.543 16.2133 253.849 16.02C254.156 15.82 254.543 15.72 255.009 15.72C255.636 15.72 256.123 15.8733 256.469 16.18C256.816 16.4867 256.989 16.9133 256.989 17.46V20.3H257.579V21H257.129ZM254.829 20.44C255.029 20.44 255.213 20.4167 255.379 20.37C255.546 20.3233 255.689 20.2567 255.809 20.17C255.929 20.0833 256.023 19.9833 256.089 19.87C256.156 19.7567 256.189 19.6333 256.189 19.5V18.65H255.129C254.669 18.65 254.333 18.7167 254.119 18.85C253.913 18.9833 253.809 19.1767 253.809 19.43V19.64C253.809 19.8933 253.899 20.09 254.079 20.23C254.266 20.37 254.516 20.44 254.829 20.44ZM259.861 21C259.581 21 259.368 20.9233 259.221 20.77C259.081 20.61 259.011 20.4033 259.011 20.15V16.54H258.161V15.84H258.641C258.814 15.84 258.931 15.8067 258.991 15.74C259.058 15.6667 259.091 15.5433 259.091 15.37V14.41H259.811V15.84H260.941V16.54H259.811V20.3H260.861V21H259.861ZM262.227 21V15.84H263.027V16.68H263.067C263.127 16.5467 263.194 16.4233 263.267 16.31C263.347 16.19 263.44 16.0867 263.547 16C263.66 15.9133 263.79 15.8467 263.937 15.8C264.084 15.7467 264.257 15.72 264.457 15.72C264.797 15.72 265.11 15.8033 265.397 15.97C265.684 16.13 265.897 16.3967 266.037 16.77H266.057C266.15 16.49 266.324 16.2467 266.577 16.04C266.837 15.8267 267.187 15.72 267.627 15.72C268.154 15.72 268.564 15.8933 268.857 16.24C269.157 16.58 269.307 17.0633 269.307 17.69V21H268.507V17.83C268.507 17.37 268.417 17.0233 268.237 16.79C268.057 16.5567 267.77 16.44 267.377 16.44C267.217 16.44 267.064 16.46 266.917 16.5C266.777 16.54 266.65 16.6 266.537 16.68C266.424 16.76 266.334 16.8633 266.267 16.99C266.2 17.11 266.167 17.2533 266.167 17.42V21H265.367V17.83C265.367 17.37 265.277 17.0233 265.097 16.79C264.917 16.5567 264.637 16.44 264.257 16.44C264.097 16.44 263.944 16.46 263.797 16.5C263.65 16.54 263.52 16.6 263.407 16.68C263.294 16.76 263.2 16.8633 263.127 16.99C263.06 17.11 263.027 17.2533 263.027 17.42V21H262.227ZM272.897 21.12C272.544 21.12 272.224 21.0567 271.937 20.93C271.657 20.8033 271.414 20.6233 271.207 20.39C271.007 20.15 270.851 19.8667 270.737 19.54C270.631 19.2067 270.577 18.8333 270.577 18.42C270.577 18.0133 270.631 17.6433 270.737 17.31C270.851 16.9767 271.007 16.6933 271.207 16.46C271.414 16.22 271.657 16.0367 271.937 15.91C272.224 15.7833 272.544 15.72 272.897 15.72C273.244 15.72 273.554 15.7833 273.827 15.91C274.101 16.0367 274.334 16.2133 274.527 16.44C274.721 16.66 274.867 16.9233 274.967 17.23C275.074 17.5367 275.127 17.8733 275.127 18.24V18.62H271.417V18.86C271.417 19.08 271.451 19.2867 271.517 19.48C271.591 19.6667 271.691 19.83 271.817 19.97C271.951 20.11 272.111 20.22 272.297 20.3C272.491 20.38 272.707 20.42 272.947 20.42C273.274 20.42 273.557 20.3433 273.797 20.19C274.044 20.0367 274.234 19.8167 274.367 19.53L274.937 19.94C274.771 20.2933 274.511 20.58 274.157 20.8C273.804 21.0133 273.384 21.12 272.897 21.12ZM272.897 16.39C272.677 16.39 272.477 16.43 272.297 16.51C272.117 16.5833 271.961 16.69 271.827 16.83C271.701 16.97 271.601 17.1367 271.527 17.33C271.454 17.5167 271.417 17.7233 271.417 17.95V18.02H274.267V17.91C274.267 17.45 274.141 17.0833 273.887 16.81C273.641 16.53 273.311 16.39 272.897 16.39ZM276.446 21V15.84H277.246V16.68H277.286C277.412 16.3867 277.589 16.1533 277.816 15.98C278.049 15.8067 278.359 15.72 278.746 15.72C279.279 15.72 279.699 15.8933 280.006 16.24C280.319 16.58 280.476 17.0633 280.476 17.69V21H279.676V17.83C279.676 16.9033 279.286 16.44 278.506 16.44C278.346 16.44 278.189 16.46 278.036 16.5C277.889 16.54 277.756 16.6 277.636 16.68C277.516 16.76 277.419 16.8633 277.346 16.99C277.279 17.11 277.246 17.2533 277.246 17.42V21H276.446ZM283.269 21C282.989 21 282.776 20.9233 282.629 20.77C282.489 20.61 282.419 20.4033 282.419 20.15V16.54H281.569V15.84H282.049C282.223 15.84 282.339 15.8067 282.399 15.74C282.466 15.6667 282.499 15.5433 282.499 15.37V14.41H283.219V15.84H284.349V16.54H283.219V20.3H284.269V21H283.269ZM292.038 20.18C291.965 20.2667 291.872 20.3667 291.758 20.48C291.645 20.5867 291.505 20.6867 291.338 20.78C291.178 20.8733 290.985 20.9533 290.758 21.02C290.538 21.0867 290.288 21.12 290.008 21.12C289.662 21.12 289.355 21.07 289.088 20.97C288.822 20.87 288.598 20.7333 288.418 20.56C288.238 20.38 288.102 20.1733 288.008 19.94C287.915 19.7067 287.868 19.4567 287.868 19.19C287.868 18.93 287.908 18.7 287.988 18.5C288.068 18.3 288.175 18.1233 288.308 17.97C288.448 17.81 288.602 17.67 288.768 17.55C288.942 17.43 289.118 17.32 289.298 17.22C289.058 16.9667 288.865 16.71 288.718 16.45C288.578 16.1833 288.508 15.8933 288.508 15.58C288.508 15.3467 288.552 15.1267 288.638 14.92C288.725 14.7133 288.845 14.5367 288.998 14.39C289.158 14.2367 289.348 14.1167 289.568 14.03C289.795 13.9433 290.045 13.9 290.318 13.9C290.565 13.9 290.792 13.9367 290.998 14.01C291.205 14.0833 291.382 14.1867 291.528 14.32C291.675 14.4467 291.788 14.6033 291.868 14.79C291.955 14.9767 291.998 15.18 291.998 15.4C291.998 15.6333 291.955 15.8433 291.868 16.03C291.788 16.21 291.675 16.3767 291.528 16.53C291.382 16.6833 291.212 16.8267 291.018 16.96C290.825 17.0867 290.618 17.21 290.398 17.33L291.968 19.02C292.068 18.7667 292.145 18.4967 292.198 18.21C292.252 17.9233 292.285 17.63 292.298 17.33H293.658V18.01H292.948C292.902 18.3033 292.838 18.58 292.758 18.84C292.678 19.0933 292.582 19.33 292.468 19.55L293.828 21H292.788L292.038 20.18ZM290.278 14.57C289.992 14.57 289.755 14.66 289.568 14.84C289.388 15.02 289.298 15.2433 289.298 15.51V15.63C289.298 15.83 289.358 16.0333 289.478 16.24C289.605 16.44 289.768 16.6533 289.968 16.88C290.128 16.7933 290.282 16.7033 290.428 16.61C290.582 16.51 290.715 16.4033 290.828 16.29C290.948 16.1767 291.045 16.06 291.118 15.94C291.192 15.8133 291.228 15.68 291.228 15.54V15.42C291.228 15.1467 291.132 14.9367 290.938 14.79C290.752 14.6433 290.532 14.57 290.278 14.57ZM290.078 20.42C290.418 20.42 290.712 20.3567 290.958 20.23C291.205 20.0967 291.415 19.92 291.588 19.7L289.718 17.68C289.585 17.7533 289.455 17.83 289.328 17.91C289.208 17.99 289.102 18.0867 289.008 18.2C288.915 18.3067 288.838 18.4333 288.778 18.58C288.725 18.72 288.698 18.8867 288.698 19.08V19.23C288.698 19.5967 288.822 19.8867 289.068 20.1C289.322 20.3133 289.658 20.42 290.078 20.42ZM297.385 14.02H299.725C300.158 14.02 300.552 14.0933 300.905 14.24C301.258 14.3867 301.558 14.6067 301.805 14.9C302.058 15.1867 302.252 15.55 302.385 15.99C302.518 16.4233 302.585 16.93 302.585 17.51C302.585 18.09 302.518 18.6 302.385 19.04C302.252 19.4733 302.058 19.8367 301.805 20.13C301.558 20.4167 301.258 20.6333 300.905 20.78C300.552 20.9267 300.158 21 299.725 21H297.385V14.02ZM299.725 20.26C300.012 20.26 300.275 20.2133 300.515 20.12C300.755 20.02 300.962 19.8767 301.135 19.69C301.308 19.5033 301.442 19.2767 301.535 19.01C301.635 18.7367 301.685 18.4267 301.685 18.08V16.94C301.685 16.5933 301.635 16.2867 301.535 16.02C301.442 15.7467 301.308 15.5167 301.135 15.33C300.962 15.1433 300.755 15.0033 300.515 14.91C300.275 14.81 300.012 14.76 299.725 14.76H298.225V20.26H299.725ZM304.414 14.63C304.241 14.63 304.114 14.59 304.034 14.51C303.961 14.4233 303.924 14.3133 303.924 14.18V14.05C303.924 13.9167 303.961 13.81 304.034 13.73C304.114 13.6433 304.241 13.6 304.414 13.6C304.587 13.6 304.711 13.6433 304.784 13.73C304.864 13.81 304.904 13.9167 304.904 14.05V14.18C304.904 14.3133 304.864 14.4233 304.784 14.51C304.711 14.59 304.587 14.63 304.414 14.63ZM304.014 15.84H304.814V21H304.014V15.84ZM310.264 21C309.964 21 309.747 20.92 309.614 20.76C309.487 20.6 309.407 20.4 309.374 20.16H309.324C309.211 20.48 309.024 20.72 308.764 20.88C308.504 21.04 308.194 21.12 307.834 21.12C307.287 21.12 306.861 20.98 306.554 20.7C306.254 20.42 306.104 20.04 306.104 19.56C306.104 19.0733 306.281 18.7 306.634 18.44C306.994 18.18 307.551 18.05 308.304 18.05H309.324V17.54C309.324 17.1733 309.224 16.8933 309.024 16.7C308.824 16.5067 308.517 16.41 308.104 16.41C307.791 16.41 307.527 16.48 307.314 16.62C307.107 16.76 306.934 16.9467 306.794 17.18L306.314 16.73C306.454 16.45 306.677 16.2133 306.984 16.02C307.291 15.82 307.677 15.72 308.144 15.72C308.771 15.72 309.257 15.8733 309.604 16.18C309.951 16.4867 310.124 16.9133 310.124 17.46V20.3H310.714V21H310.264ZM307.964 20.44C308.164 20.44 308.347 20.4167 308.514 20.37C308.681 20.3233 308.824 20.2567 308.944 20.17C309.064 20.0833 309.157 19.9833 309.224 19.87C309.291 19.7567 309.324 19.6333 309.324 19.5V18.65H308.264C307.804 18.65 307.467 18.7167 307.254 18.85C307.047 18.9833 306.944 19.1767 306.944 19.43V19.64C306.944 19.8933 307.034 20.09 307.214 20.23C307.401 20.37 307.651 20.44 307.964 20.44ZM316.206 21.57C316.206 22.1033 315.996 22.4933 315.576 22.74C315.163 22.9933 314.539 23.12 313.706 23.12C312.899 23.12 312.319 23.01 311.966 22.79C311.613 22.57 311.436 22.2567 311.436 21.85C311.436 21.57 311.509 21.35 311.656 21.19C311.803 21.0367 312.003 20.9233 312.256 20.85V20.74C311.949 20.5933 311.796 20.3533 311.796 20.02C311.796 19.76 311.879 19.5633 312.046 19.43C312.213 19.29 312.426 19.1867 312.686 19.12V19.08C312.379 18.9333 312.139 18.7233 311.966 18.45C311.799 18.1767 311.716 17.86 311.716 17.5C311.716 17.24 311.763 17 311.856 16.78C311.949 16.56 312.079 16.3733 312.246 16.22C312.419 16.06 312.623 15.9367 312.856 15.85C313.096 15.7633 313.363 15.72 313.656 15.72C314.023 15.72 314.349 15.7867 314.636 15.92V15.83C314.636 15.63 314.683 15.4667 314.776 15.34C314.869 15.2067 315.023 15.14 315.236 15.14H316.006V15.84H315.026V16.17C315.213 16.33 315.356 16.5233 315.456 16.75C315.563 16.97 315.616 17.22 315.616 17.5C315.616 17.76 315.569 18 315.476 18.22C315.383 18.44 315.249 18.63 315.076 18.79C314.909 18.9433 314.706 19.0633 314.466 19.15C314.226 19.2367 313.959 19.28 313.666 19.28C313.499 19.28 313.333 19.2633 313.166 19.23C312.993 19.2767 312.836 19.3467 312.696 19.44C312.556 19.5267 312.486 19.65 312.486 19.81C312.486 19.9633 312.559 20.0667 312.706 20.12C312.853 20.1733 313.043 20.2 313.276 20.2H314.376C315.016 20.2 315.479 20.3233 315.766 20.57C316.059 20.81 316.206 21.1433 316.206 21.57ZM315.456 21.63C315.456 21.4233 315.376 21.2567 315.216 21.13C315.063 21.01 314.786 20.95 314.386 20.95H312.666C312.346 21.0967 312.186 21.33 312.186 21.65C312.186 21.8767 312.269 22.07 312.436 22.23C312.609 22.39 312.899 22.47 313.306 22.47H314.046C314.493 22.47 314.839 22.4 315.086 22.26C315.333 22.12 315.456 21.91 315.456 21.63ZM313.666 18.64C314.006 18.64 314.276 18.56 314.476 18.4C314.676 18.2333 314.776 17.98 314.776 17.64V17.36C314.776 17.02 314.676 16.77 314.476 16.61C314.276 16.4433 314.006 16.36 313.666 16.36C313.326 16.36 313.056 16.4433 312.856 16.61C312.656 16.77 312.556 17.02 312.556 17.36V17.64C312.556 17.98 312.656 18.2333 312.856 18.4C313.056 18.56 313.326 18.64 313.666 18.64ZM317.139 21V15.84H317.939V16.68H317.979C318.106 16.3867 318.282 16.1533 318.509 15.98C318.742 15.8067 319.052 15.72 319.439 15.72C319.972 15.72 320.392 15.8933 320.699 16.24C321.012 16.58 321.169 17.0633 321.169 17.69V21H320.369V17.83C320.369 16.9033 319.979 16.44 319.199 16.44C319.039 16.44 318.882 16.46 318.729 16.5C318.582 16.54 318.449 16.6 318.329 16.68C318.209 16.76 318.112 16.8633 318.039 16.99C317.972 17.11 317.939 17.2533 317.939 17.42V21H317.139ZM324.773 21.12C324.426 21.12 324.109 21.0567 323.823 20.93C323.536 20.8033 323.289 20.6233 323.083 20.39C322.883 20.15 322.726 19.8667 322.613 19.54C322.499 19.2067 322.443 18.8333 322.443 18.42C322.443 18.0133 322.499 17.6433 322.613 17.31C322.726 16.9767 322.883 16.6933 323.083 16.46C323.289 16.22 323.536 16.0367 323.823 15.91C324.109 15.7833 324.426 15.72 324.773 15.72C325.119 15.72 325.433 15.7833 325.713 15.91C325.999 16.0367 326.246 16.22 326.453 16.46C326.659 16.6933 326.819 16.9767 326.933 17.31C327.046 17.6433 327.103 18.0133 327.103 18.42C327.103 18.8333 327.046 19.2067 326.933 19.54C326.819 19.8667 326.659 20.15 326.453 20.39C326.246 20.6233 325.999 20.8033 325.713 20.93C325.433 21.0567 325.119 21.12 324.773 21.12ZM324.773 20.41C325.206 20.41 325.559 20.2767 325.833 20.01C326.106 19.7433 326.243 19.3367 326.243 18.79V18.05C326.243 17.5033 326.106 17.0967 325.833 16.83C325.559 16.5633 325.206 16.43 324.773 16.43C324.339 16.43 323.986 16.5633 323.713 16.83C323.439 17.0967 323.303 17.5033 323.303 18.05V18.79C323.303 19.3367 323.439 19.7433 323.713 20.01C323.986 20.2767 324.339 20.41 324.773 20.41ZM329.968 21.12C329.488 21.12 329.085 21.03 328.758 20.85C328.438 20.6633 328.162 20.4167 327.928 20.11L328.498 19.65C328.698 19.9033 328.922 20.1 329.168 20.24C329.415 20.3733 329.702 20.44 330.028 20.44C330.368 20.44 330.632 20.3667 330.818 20.22C331.012 20.0733 331.108 19.8667 331.108 19.6C331.108 19.4 331.042 19.23 330.908 19.09C330.782 18.9433 330.548 18.8433 330.208 18.79L329.798 18.73C329.558 18.6967 329.338 18.6467 329.138 18.58C328.938 18.5067 328.762 18.4133 328.608 18.3C328.462 18.18 328.345 18.0333 328.258 17.86C328.178 17.6867 328.138 17.48 328.138 17.24C328.138 16.9867 328.185 16.7667 328.278 16.58C328.372 16.3867 328.498 16.2267 328.658 16.1C328.825 15.9733 329.022 15.88 329.248 15.82C329.475 15.7533 329.718 15.72 329.978 15.72C330.398 15.72 330.748 15.7933 331.028 15.94C331.315 16.0867 331.565 16.29 331.778 16.55L331.248 17.03C331.135 16.87 330.968 16.7267 330.748 16.6C330.528 16.4667 330.252 16.4 329.918 16.4C329.585 16.4 329.332 16.4733 329.158 16.62C328.992 16.76 328.908 16.9533 328.908 17.2C328.908 17.4533 328.992 17.6367 329.158 17.75C329.332 17.8633 329.578 17.9467 329.898 18L330.298 18.06C330.872 18.1467 331.278 18.3133 331.518 18.56C331.758 18.8 331.878 19.1167 331.878 19.51C331.878 20.01 331.708 20.4033 331.368 20.69C331.028 20.9767 330.562 21.12 329.968 21.12ZM333.691 14.63C333.518 14.63 333.391 14.59 333.311 14.51C333.238 14.4233 333.201 14.3133 333.201 14.18V14.05C333.201 13.9167 333.238 13.81 333.311 13.73C333.391 13.6433 333.518 13.6 333.691 13.6C333.865 13.6 333.988 13.6433 334.061 13.73C334.141 13.81 334.181 13.9167 334.181 14.05V14.18C334.181 14.3133 334.141 14.4233 334.061 14.51C333.988 14.59 333.865 14.63 333.691 14.63ZM333.291 15.84H334.091V21H333.291V15.84ZM337.341 21.12C336.861 21.12 336.458 21.03 336.131 20.85C335.811 20.6633 335.535 20.4167 335.301 20.11L335.871 19.65C336.071 19.9033 336.295 20.1 336.541 20.24C336.788 20.3733 337.075 20.44 337.401 20.44C337.741 20.44 338.005 20.3667 338.191 20.22C338.385 20.0733 338.481 19.8667 338.481 19.6C338.481 19.4 338.415 19.23 338.281 19.09C338.155 18.9433 337.921 18.8433 337.581 18.79L337.171 18.73C336.931 18.6967 336.711 18.6467 336.511 18.58C336.311 18.5067 336.135 18.4133 335.981 18.3C335.835 18.18 335.718 18.0333 335.631 17.86C335.551 17.6867 335.511 17.48 335.511 17.24C335.511 16.9867 335.558 16.7667 335.651 16.58C335.745 16.3867 335.871 16.2267 336.031 16.1C336.198 15.9733 336.395 15.88 336.621 15.82C336.848 15.7533 337.091 15.72 337.351 15.72C337.771 15.72 338.121 15.7933 338.401 15.94C338.688 16.0867 338.938 16.29 339.151 16.55L338.621 17.03C338.508 16.87 338.341 16.7267 338.121 16.6C337.901 16.4667 337.625 16.4 337.291 16.4C336.958 16.4 336.705 16.4733 336.531 16.62C336.365 16.76 336.281 16.9533 336.281 17.2C336.281 17.4533 336.365 17.6367 336.531 17.75C336.705 17.8633 336.951 17.9467 337.271 18L337.671 18.06C338.245 18.1467 338.651 18.3133 338.891 18.56C339.131 18.8 339.251 19.1167 339.251 19.51C339.251 20.01 339.081 20.4033 338.741 20.69C338.401 20.9767 337.935 21.12 337.341 21.12ZM341.126 19.83C341.339 19.83 341.492 19.8867 341.586 20C341.686 20.1067 341.736 20.2467 341.736 20.42V20.56C341.736 20.8333 341.656 21.1333 341.496 21.46C341.336 21.7933 341.112 22.0833 340.826 22.33H340.156C340.356 22.1167 340.516 21.9133 340.636 21.72C340.762 21.5333 340.852 21.3233 340.906 21.09C340.772 21.0567 340.672 20.9933 340.606 20.9C340.546 20.8067 340.516 20.6933 340.516 20.56V20.42C340.516 20.2467 340.562 20.1067 340.656 20C340.756 19.8867 340.912 19.83 341.126 19.83ZM350.304 19.98H350.274C350.187 20.3067 349.974 20.58 349.634 20.8C349.3 21.0133 348.867 21.12 348.334 21.12C347.907 21.12 347.514 21.0433 347.154 20.89C346.8 20.73 346.497 20.5 346.244 20.2C345.99 19.8933 345.79 19.5167 345.644 19.07C345.504 18.6167 345.434 18.0967 345.434 17.51C345.434 16.93 345.504 16.4167 345.644 15.97C345.784 15.5167 345.984 15.14 346.244 14.84C346.504 14.5333 346.817 14.3 347.184 14.14C347.55 13.98 347.957 13.9 348.404 13.9C349.03 13.9 349.554 14.04 349.974 14.32C350.394 14.6 350.717 14.97 350.944 15.43L350.254 15.85C350.094 15.4767 349.854 15.1833 349.534 14.97C349.22 14.7567 348.844 14.65 348.404 14.65C348.097 14.65 347.817 14.7067 347.564 14.82C347.31 14.9267 347.09 15.08 346.904 15.28C346.724 15.48 346.584 15.72 346.484 16C346.384 16.28 346.334 16.5933 346.334 16.94V18.07C346.334 18.4167 346.384 18.7333 346.484 19.02C346.584 19.3 346.724 19.54 346.904 19.74C347.09 19.94 347.317 20.0967 347.584 20.21C347.85 20.3167 348.15 20.37 348.484 20.37C348.724 20.37 348.95 20.34 349.164 20.28C349.384 20.2133 349.574 20.1167 349.734 19.99C349.9 19.8633 350.03 19.7067 350.124 19.52C350.217 19.3267 350.264 19.1 350.264 18.84V18.15H348.724V17.41H351.084V21H350.304V19.98ZM354.597 21.12C354.243 21.12 353.923 21.0567 353.637 20.93C353.357 20.8033 353.113 20.6233 352.907 20.39C352.707 20.15 352.55 19.8667 352.437 19.54C352.33 19.2067 352.277 18.8333 352.277 18.42C352.277 18.0133 352.33 17.6433 352.437 17.31C352.55 16.9767 352.707 16.6933 352.907 16.46C353.113 16.22 353.357 16.0367 353.637 15.91C353.923 15.7833 354.243 15.72 354.597 15.72C354.943 15.72 355.253 15.7833 355.527 15.91C355.8 16.0367 356.033 16.2133 356.227 16.44C356.42 16.66 356.567 16.9233 356.667 17.23C356.773 17.5367 356.827 17.8733 356.827 18.24V18.62H353.117V18.86C353.117 19.08 353.15 19.2867 353.217 19.48C353.29 19.6667 353.39 19.83 353.517 19.97C353.65 20.11 353.81 20.22 353.997 20.3C354.19 20.38 354.407 20.42 354.647 20.42C354.973 20.42 355.257 20.3433 355.497 20.19C355.743 20.0367 355.933 19.8167 356.067 19.53L356.637 19.94C356.47 20.2933 356.21 20.58 355.857 20.8C355.503 21.0133 355.083 21.12 354.597 21.12ZM354.597 16.39C354.377 16.39 354.177 16.43 353.997 16.51C353.817 16.5833 353.66 16.69 353.527 16.83C353.4 16.97 353.3 17.1367 353.227 17.33C353.153 17.5167 353.117 17.7233 353.117 17.95V18.02H355.967V17.91C355.967 17.45 355.84 17.0833 355.587 16.81C355.34 16.53 355.01 16.39 354.597 16.39ZM358.145 21V15.84H358.945V16.68H358.985C359.112 16.3867 359.288 16.1533 359.515 15.98C359.748 15.8067 360.058 15.72 360.445 15.72C360.978 15.72 361.398 15.8933 361.705 16.24C362.018 16.58 362.175 17.0633 362.175 17.69V21H361.375V17.83C361.375 16.9033 360.985 16.44 360.205 16.44C360.045 16.44 359.888 16.46 359.735 16.5C359.588 16.54 359.455 16.6 359.335 16.68C359.215 16.76 359.118 16.8633 359.045 16.99C358.978 17.11 358.945 17.2533 358.945 17.42V21H358.145ZM365.769 21.12C365.415 21.12 365.095 21.0567 364.809 20.93C364.529 20.8033 364.285 20.6233 364.079 20.39C363.879 20.15 363.722 19.8667 363.609 19.54C363.502 19.2067 363.449 18.8333 363.449 18.42C363.449 18.0133 363.502 17.6433 363.609 17.31C363.722 16.9767 363.879 16.6933 364.079 16.46C364.285 16.22 364.529 16.0367 364.809 15.91C365.095 15.7833 365.415 15.72 365.769 15.72C366.115 15.72 366.425 15.7833 366.699 15.91C366.972 16.0367 367.205 16.2133 367.399 16.44C367.592 16.66 367.739 16.9233 367.839 17.23C367.945 17.5367 367.999 17.8733 367.999 18.24V18.62H364.289V18.86C364.289 19.08 364.322 19.2867 364.389 19.48C364.462 19.6667 364.562 19.83 364.689 19.97C364.822 20.11 364.982 20.22 365.169 20.3C365.362 20.38 365.579 20.42 365.819 20.42C366.145 20.42 366.429 20.3433 366.669 20.19C366.915 20.0367 367.105 19.8167 367.239 19.53L367.809 19.94C367.642 20.2933 367.382 20.58 367.029 20.8C366.675 21.0133 366.255 21.12 365.769 21.12ZM365.769 16.39C365.549 16.39 365.349 16.43 365.169 16.51C364.989 16.5833 364.832 16.69 364.699 16.83C364.572 16.97 364.472 17.1367 364.399 17.33C364.325 17.5167 364.289 17.7233 364.289 17.95V18.02H367.139V17.91C367.139 17.45 367.012 17.0833 366.759 16.81C366.512 16.53 366.182 16.39 365.769 16.39ZM369.317 21V15.84H370.117V16.79H370.167C370.26 16.5433 370.427 16.3233 370.667 16.13C370.907 15.9367 371.237 15.84 371.657 15.84H371.967V16.64H371.497C371.063 16.64 370.723 16.7233 370.477 16.89C370.237 17.05 370.117 17.2533 370.117 17.5V21H369.317ZM373.389 14.63C373.215 14.63 373.089 14.59 373.009 14.51C372.935 14.4233 372.899 14.3133 372.899 14.18V14.05C372.899 13.9167 372.935 13.81 373.009 13.73C373.089 13.6433 373.215 13.6 373.389 13.6C373.562 13.6 373.685 13.6433 373.759 13.73C373.839 13.81 373.879 13.9167 373.879 14.05V14.18C373.879 14.3133 373.839 14.4233 373.759 14.51C373.685 14.59 373.562 14.63 373.389 14.63ZM372.989 15.84H373.789V21H372.989V15.84ZM377.409 21.12C377.049 21.12 376.725 21.0567 376.439 20.93C376.152 20.8033 375.909 20.6233 375.709 20.39C375.515 20.1567 375.365 19.8733 375.259 19.54C375.159 19.2067 375.109 18.8333 375.109 18.42C375.109 18.0067 375.159 17.6333 375.259 17.3C375.365 16.9667 375.515 16.6833 375.709 16.45C375.909 16.2167 376.152 16.0367 376.439 15.91C376.725 15.7833 377.049 15.72 377.409 15.72C377.922 15.72 378.332 15.8333 378.639 16.06C378.952 16.28 379.185 16.57 379.339 16.93L378.669 17.27C378.575 17.0033 378.422 16.7967 378.209 16.65C377.995 16.5033 377.729 16.43 377.409 16.43C377.169 16.43 376.959 16.47 376.779 16.55C376.599 16.6233 376.449 16.73 376.329 16.87C376.209 17.0033 376.119 17.1667 376.059 17.36C375.999 17.5467 375.969 17.7533 375.969 17.98V18.86C375.969 19.3133 376.089 19.6867 376.329 19.98C376.575 20.2667 376.935 20.41 377.409 20.41C378.055 20.41 378.522 20.11 378.809 19.51L379.389 19.9C379.222 20.2733 378.972 20.57 378.639 20.79C378.312 21.01 377.902 21.12 377.409 21.12ZM382.961 21V14.02H385.741C386.368 14.02 386.848 14.2 387.181 14.56C387.521 14.9133 387.691 15.4 387.691 16.02C387.691 16.64 387.521 17.13 387.181 17.49C386.848 17.8433 386.368 18.02 385.741 18.02H383.801V21H382.961ZM383.801 17.28H385.741C386.075 17.28 386.331 17.1933 386.511 17.02C386.698 16.8467 386.791 16.6 386.791 16.28V15.76C386.791 15.44 386.698 15.1933 386.511 15.02C386.331 14.8467 386.075 14.76 385.741 14.76H383.801V17.28ZM388.848 21V15.84H389.648V16.79H389.698C389.791 16.5433 389.958 16.3233 390.198 16.13C390.438 15.9367 390.768 15.84 391.188 15.84H391.498V16.64H391.028C390.595 16.64 390.255 16.7233 390.008 16.89C389.768 17.05 389.648 17.2533 389.648 17.5V21H388.848ZM394.421 21.12C394.074 21.12 393.758 21.0567 393.471 20.93C393.184 20.8033 392.938 20.6233 392.731 20.39C392.531 20.15 392.374 19.8667 392.261 19.54C392.148 19.2067 392.091 18.8333 392.091 18.42C392.091 18.0133 392.148 17.6433 392.261 17.31C392.374 16.9767 392.531 16.6933 392.731 16.46C392.938 16.22 393.184 16.0367 393.471 15.91C393.758 15.7833 394.074 15.72 394.421 15.72C394.768 15.72 395.081 15.7833 395.361 15.91C395.648 16.0367 395.894 16.22 396.101 16.46C396.308 16.6933 396.468 16.9767 396.581 17.31C396.694 17.6433 396.751 18.0133 396.751 18.42C396.751 18.8333 396.694 19.2067 396.581 19.54C396.468 19.8667 396.308 20.15 396.101 20.39C395.894 20.6233 395.648 20.8033 395.361 20.93C395.081 21.0567 394.768 21.12 394.421 21.12ZM394.421 20.41C394.854 20.41 395.208 20.2767 395.481 20.01C395.754 19.7433 395.891 19.3367 395.891 18.79V18.05C395.891 17.5033 395.754 17.0967 395.481 16.83C395.208 16.5633 394.854 16.43 394.421 16.43C393.988 16.43 393.634 16.5633 393.361 16.83C393.088 17.0967 392.951 17.5033 392.951 18.05V18.79C392.951 19.3367 393.088 19.7433 393.361 20.01C393.634 20.2767 393.988 20.41 394.421 20.41ZM399.207 21C398.927 21 398.713 20.9233 398.567 20.77C398.427 20.61 398.357 20.4033 398.357 20.15V16.54H397.507V15.84H397.987C398.16 15.84 398.277 15.8067 398.337 15.74C398.403 15.6667 398.437 15.5433 398.437 15.37V14.41H399.157V15.84H400.287V16.54H399.157V20.3H400.207V21H399.207ZM403.484 21.12C403.137 21.12 402.82 21.0567 402.534 20.93C402.247 20.8033 402 20.6233 401.794 20.39C401.594 20.15 401.437 19.8667 401.324 19.54C401.21 19.2067 401.154 18.8333 401.154 18.42C401.154 18.0133 401.21 17.6433 401.324 17.31C401.437 16.9767 401.594 16.6933 401.794 16.46C402 16.22 402.247 16.0367 402.534 15.91C402.82 15.7833 403.137 15.72 403.484 15.72C403.83 15.72 404.144 15.7833 404.424 15.91C404.71 16.0367 404.957 16.22 405.164 16.46C405.37 16.6933 405.53 16.9767 405.644 17.31C405.757 17.6433 405.814 18.0133 405.814 18.42C405.814 18.8333 405.757 19.2067 405.644 19.54C405.53 19.8667 405.37 20.15 405.164 20.39C404.957 20.6233 404.71 20.8033 404.424 20.93C404.144 21.0567 403.83 21.12 403.484 21.12ZM403.484 20.41C403.917 20.41 404.27 20.2767 404.544 20.01C404.817 19.7433 404.954 19.3367 404.954 18.79V18.05C404.954 17.5033 404.817 17.0967 404.544 16.83C404.27 16.5633 403.917 16.43 403.484 16.43C403.05 16.43 402.697 16.5633 402.424 16.83C402.15 17.0967 402.014 17.5033 402.014 18.05V18.79C402.014 19.3367 402.15 19.7433 402.424 20.01C402.697 20.2767 403.05 20.41 403.484 20.41ZM409.049 21.12C408.689 21.12 408.366 21.0567 408.079 20.93C407.793 20.8033 407.549 20.6233 407.349 20.39C407.156 20.1567 407.006 19.8733 406.899 19.54C406.799 19.2067 406.749 18.8333 406.749 18.42C406.749 18.0067 406.799 17.6333 406.899 17.3C407.006 16.9667 407.156 16.6833 407.349 16.45C407.549 16.2167 407.793 16.0367 408.079 15.91C408.366 15.7833 408.689 15.72 409.049 15.72C409.563 15.72 409.973 15.8333 410.279 16.06C410.593 16.28 410.826 16.57 410.979 16.93L410.309 17.27C410.216 17.0033 410.063 16.7967 409.849 16.65C409.636 16.5033 409.369 16.43 409.049 16.43C408.809 16.43 408.599 16.47 408.419 16.55C408.239 16.6233 408.089 16.73 407.969 16.87C407.849 17.0033 407.759 17.1667 407.699 17.36C407.639 17.5467 407.609 17.7533 407.609 17.98V18.86C407.609 19.3133 407.729 19.6867 407.969 19.98C408.216 20.2667 408.576 20.41 409.049 20.41C409.696 20.41 410.163 20.11 410.449 19.51L411.029 19.9C410.863 20.2733 410.613 20.57 410.279 20.79C409.953 21.01 409.543 21.12 409.049 21.12ZM414.05 21.12C413.703 21.12 413.387 21.0567 413.1 20.93C412.813 20.8033 412.567 20.6233 412.36 20.39C412.16 20.15 412.003 19.8667 411.89 19.54C411.777 19.2067 411.72 18.8333 411.72 18.42C411.72 18.0133 411.777 17.6433 411.89 17.31C412.003 16.9767 412.16 16.6933 412.36 16.46C412.567 16.22 412.813 16.0367 413.1 15.91C413.387 15.7833 413.703 15.72 414.05 15.72C414.397 15.72 414.71 15.7833 414.99 15.91C415.277 16.0367 415.523 16.22 415.73 16.46C415.937 16.6933 416.097 16.9767 416.21 17.31C416.323 17.6433 416.38 18.0133 416.38 18.42C416.38 18.8333 416.323 19.2067 416.21 19.54C416.097 19.8667 415.937 20.15 415.73 20.39C415.523 20.6233 415.277 20.8033 414.99 20.93C414.71 21.0567 414.397 21.12 414.05 21.12ZM414.05 20.41C414.483 20.41 414.837 20.2767 415.11 20.01C415.383 19.7433 415.52 19.3367 415.52 18.79V18.05C415.52 17.5033 415.383 17.0967 415.11 16.83C414.837 16.5633 414.483 16.43 414.05 16.43C413.617 16.43 413.263 16.5633 412.99 16.83C412.717 17.0967 412.58 17.5033 412.58 18.05V18.79C412.58 19.3367 412.717 19.7433 412.99 20.01C413.263 20.2767 413.617 20.41 414.05 20.41ZM418.546 21C418.266 21 418.052 20.9233 417.906 20.77C417.766 20.61 417.696 20.41 417.696 20.17V13.6H418.496V20.3H419.256V21H418.546ZM3.28 26.76V33H2.44V26.76H0.22V26.02H5.5V26.76H3.28ZM7.85836 33.12C7.50503 33.12 7.18503 33.0567 6.89836 32.93C6.61836 32.8033 6.37503 32.6233 6.16836 32.39C5.96836 32.15 5.81169 31.8667 5.69836 31.54C5.59169 31.2067 5.53836 30.8333 5.53836 30.42C5.53836 30.0133 5.59169 29.6433 5.69836 29.31C5.81169 28.9767 5.96836 28.6933 6.16836 28.46C6.37503 28.22 6.61836 28.0367 6.89836 27.91C7.18503 27.7833 7.50503 27.72 7.85836 27.72C8.20503 27.72 8.51503 27.7833 8.78836 27.91C9.06169 28.0367 9.29503 28.2133 9.48836 28.44C9.68169 28.66 9.82836 28.9233 9.92836 29.23C10.035 29.5367 10.0884 29.8733 10.0884 30.24V30.62H6.37836V30.86C6.37836 31.08 6.41169 31.2867 6.47836 31.48C6.55169 31.6667 6.65169 31.83 6.77836 31.97C6.91169 32.11 7.07169 32.22 7.25836 32.3C7.45169 32.38 7.66836 32.42 7.90836 32.42C8.23503 32.42 8.51836 32.3433 8.75836 32.19C9.00503 32.0367 9.19503 31.8167 9.32836 31.53L9.89836 31.94C9.73169 32.2933 9.47169 32.58 9.11836 32.8C8.76503 33.0133 8.34503 33.12 7.85836 33.12ZM7.85836 28.39C7.63836 28.39 7.43836 28.43 7.25836 28.51C7.07836 28.5833 6.92169 28.69 6.78836 28.83C6.66169 28.97 6.56169 29.1367 6.48836 29.33C6.41503 29.5167 6.37836 29.7233 6.37836 29.95V30.02H9.22836V29.91C9.22836 29.45 9.10169 29.0833 8.84836 28.81C8.60169 28.53 8.27169 28.39 7.85836 28.39ZM11.4066 33V27.84H12.2066V28.68H12.2466C12.3066 28.5467 12.3733 28.4233 12.4466 28.31C12.5266 28.19 12.62 28.0867 12.7266 28C12.84 27.9133 12.97 27.8467 13.1166 27.8C13.2633 27.7467 13.4366 27.72 13.6366 27.72C13.9766 27.72 14.29 27.8033 14.5766 27.97C14.8633 28.13 15.0766 28.3967 15.2166 28.77H15.2366C15.33 28.49 15.5033 28.2467 15.7566 28.04C16.0166 27.8267 16.3666 27.72 16.8066 27.72C17.3333 27.72 17.7433 27.8933 18.0366 28.24C18.3366 28.58 18.4866 29.0633 18.4866 29.69V33H17.6866V29.83C17.6866 29.37 17.5966 29.0233 17.4166 28.79C17.2366 28.5567 16.95 28.44 16.5566 28.44C16.3966 28.44 16.2433 28.46 16.0966 28.5C15.9566 28.54 15.83 28.6 15.7166 28.68C15.6033 28.76 15.5133 28.8633 15.4466 28.99C15.38 29.11 15.3466 29.2533 15.3466 29.42V33H14.5466V29.83C14.5466 29.37 14.4566 29.0233 14.2766 28.79C14.0966 28.5567 13.8166 28.44 13.4366 28.44C13.2766 28.44 13.1233 28.46 12.9766 28.5C12.83 28.54 12.7 28.6 12.5866 28.68C12.4733 28.76 12.38 28.8633 12.3066 28.99C12.24 29.11 12.2066 29.2533 12.2066 29.42V33H11.4066ZM20.1371 27.84H20.9371V28.68H20.9771C21.1104 28.3533 21.3038 28.1133 21.5571 27.96C21.8171 27.8 22.1271 27.72 22.4871 27.72C22.8071 27.72 23.0971 27.7833 23.3571 27.91C23.6171 28.0367 23.8371 28.2167 24.0171 28.45C24.2038 28.6833 24.3438 28.9667 24.4371 29.3C24.5371 29.6333 24.5871 30.0067 24.5871 30.42C24.5871 30.8333 24.5371 31.2067 24.4371 31.54C24.3438 31.8733 24.2038 32.1567 24.0171 32.39C23.8371 32.6233 23.6171 32.8033 23.3571 32.93C23.0971 33.0567 22.8071 33.12 22.4871 33.12C21.7871 33.12 21.2838 32.8 20.9771 32.16H20.9371V35H20.1371V27.84ZM22.2671 32.4C22.7204 32.4 23.0771 32.26 23.3371 31.98C23.5971 31.6933 23.7271 31.32 23.7271 30.86V29.98C23.7271 29.52 23.5971 29.15 23.3371 28.87C23.0771 28.5833 22.7204 28.44 22.2671 28.44C22.0871 28.44 21.9138 28.4667 21.7471 28.52C21.5871 28.5667 21.4471 28.6333 21.3271 28.72C21.2071 28.8067 21.1104 28.9133 21.0371 29.04C20.9704 29.16 20.9371 29.29 20.9371 29.43V31.35C20.9371 31.5167 20.9704 31.6667 21.0371 31.8C21.1104 31.9267 21.2071 32.0367 21.3271 32.13C21.4471 32.2167 21.5871 32.2833 21.7471 32.33C21.9138 32.3767 22.0871 32.4 22.2671 32.4ZM26.7879 33C26.5079 33 26.2946 32.9233 26.1479 32.77C26.0079 32.61 25.9379 32.41 25.9379 32.17V25.6H26.7379V32.3H27.4979V33H26.7879ZM32.4125 33C32.1125 33 31.8958 32.92 31.7625 32.76C31.6358 32.6 31.5558 32.4 31.5225 32.16H31.4725C31.3592 32.48 31.1725 32.72 30.9125 32.88C30.6525 33.04 30.3425 33.12 29.9825 33.12C29.4358 33.12 29.0092 32.98 28.7025 32.7C28.4025 32.42 28.2525 32.04 28.2525 31.56C28.2525 31.0733 28.4292 30.7 28.7825 30.44C29.1425 30.18 29.6992 30.05 30.4525 30.05H31.4725V29.54C31.4725 29.1733 31.3725 28.8933 31.1725 28.7C30.9725 28.5067 30.6658 28.41 30.2525 28.41C29.9392 28.41 29.6758 28.48 29.4625 28.62C29.2558 28.76 29.0825 28.9467 28.9425 29.18L28.4625 28.73C28.6025 28.45 28.8258 28.2133 29.1325 28.02C29.4392 27.82 29.8258 27.72 30.2925 27.72C30.9192 27.72 31.4058 27.8733 31.7525 28.18C32.0992 28.4867 32.2725 28.9133 32.2725 29.46V32.3H32.8625V33H32.4125ZM30.1125 32.44C30.3125 32.44 30.4958 32.4167 30.6625 32.37C30.8292 32.3233 30.9725 32.2567 31.0925 32.17C31.2125 32.0833 31.3058 31.9833 31.3725 31.87C31.4392 31.7567 31.4725 31.6333 31.4725 31.5V30.65H30.4125C29.9525 30.65 29.6158 30.7167 29.4025 30.85C29.1958 30.9833 29.0925 31.1767 29.0925 31.43V31.64C29.0925 31.8933 29.1825 32.09 29.3625 32.23C29.5492 32.37 29.7992 32.44 30.1125 32.44ZM35.1443 33C34.8643 33 34.651 32.9233 34.5043 32.77C34.3643 32.61 34.2943 32.4033 34.2943 32.15V28.54H33.4443V27.84H33.9243C34.0976 27.84 34.2143 27.8067 34.2743 27.74C34.341 27.6667 34.3743 27.5433 34.3743 27.37V26.41H35.0943V27.84H36.2243V28.54H35.0943V32.3H36.1443V33H35.1443ZM39.4111 33.12C39.0578 33.12 38.7378 33.0567 38.4511 32.93C38.1711 32.8033 37.9278 32.6233 37.7211 32.39C37.5211 32.15 37.3644 31.8667 37.2511 31.54C37.1444 31.2067 37.0911 30.8333 37.0911 30.42C37.0911 30.0133 37.1444 29.6433 37.2511 29.31C37.3644 28.9767 37.5211 28.6933 37.7211 28.46C37.9278 28.22 38.1711 28.0367 38.4511 27.91C38.7378 27.7833 39.0578 27.72 39.4111 27.72C39.7578 27.72 40.0678 27.7833 40.3411 27.91C40.6144 28.0367 40.8478 28.2133 41.0411 28.44C41.2344 28.66 41.3811 28.9233 41.4811 29.23C41.5878 29.5367 41.6411 29.8733 41.6411 30.24V30.62H37.9311V30.86C37.9311 31.08 37.9644 31.2867 38.0311 31.48C38.1044 31.6667 38.2044 31.83 38.3311 31.97C38.4644 32.11 38.6244 32.22 38.8111 32.3C39.0044 32.38 39.2211 32.42 39.4611 32.42C39.7878 32.42 40.0711 32.3433 40.3111 32.19C40.5578 32.0367 40.7478 31.8167 40.8811 31.53L41.4511 31.94C41.2844 32.2933 41.0244 32.58 40.6711 32.8C40.3178 33.0133 39.8978 33.12 39.4111 33.12ZM39.4111 28.39C39.1911 28.39 38.9911 28.43 38.8111 28.51C38.6311 28.5833 38.4744 28.69 38.3411 28.83C38.2144 28.97 38.1144 29.1367 38.0411 29.33C37.9678 29.5167 37.9311 29.7233 37.9311 29.95V30.02H40.7811V29.91C40.7811 29.45 40.6544 29.0833 40.4011 28.81C40.1544 28.53 39.8244 28.39 39.4111 28.39ZM43.2741 31.83C43.4874 31.83 43.6407 31.8867 43.7341 32C43.8341 32.1067 43.8841 32.2467 43.8841 32.42V32.56C43.8841 32.8333 43.8041 33.1333 43.6441 33.46C43.4841 33.7933 43.2607 34.0833 42.9741 34.33H42.3041C42.5041 34.1167 42.6641 33.9133 42.7841 33.72C42.9107 33.5333 43.0007 33.3233 43.0541 33.09C42.9207 33.0567 42.8207 32.9933 42.7541 32.9C42.6941 32.8067 42.6641 32.6933 42.6641 32.56V32.42C42.6641 32.2467 42.7107 32.1067 42.8041 32C42.9041 31.8867 43.0607 31.83 43.2741 31.83ZM51.032 32.16H50.992C50.9386 32.28 50.872 32.4 50.792 32.52C50.7186 32.6333 50.6253 32.7367 50.512 32.83C50.3986 32.9167 50.262 32.9867 50.102 33.04C49.942 33.0933 49.7553 33.12 49.542 33.12C49.0086 33.12 48.5853 32.95 48.272 32.61C47.9586 32.2633 47.802 31.7767 47.802 31.15V27.84H48.602V31.01C48.602 31.9367 48.9953 32.4 49.782 32.4C49.942 32.4 50.0953 32.38 50.242 32.34C50.3953 32.3 50.5286 32.24 50.642 32.16C50.762 32.08 50.8553 31.98 50.922 31.86C50.9953 31.7333 51.032 31.5833 51.032 31.41V27.84H51.832V33H51.032V32.16ZM53.5355 27.84H54.3355V28.68H54.3755C54.5089 28.3533 54.7022 28.1133 54.9555 27.96C55.2155 27.8 55.5255 27.72 55.8855 27.72C56.2055 27.72 56.4955 27.7833 56.7555 27.91C57.0155 28.0367 57.2355 28.2167 57.4155 28.45C57.6022 28.6833 57.7422 28.9667 57.8355 29.3C57.9355 29.6333 57.9855 30.0067 57.9855 30.42C57.9855 30.8333 57.9355 31.2067 57.8355 31.54C57.7422 31.8733 57.6022 32.1567 57.4155 32.39C57.2355 32.6233 57.0155 32.8033 56.7555 32.93C56.4955 33.0567 56.2055 33.12 55.8855 33.12C55.1855 33.12 54.6822 32.8 54.3755 32.16H54.3355V35H53.5355V27.84ZM55.6655 32.4C56.1189 32.4 56.4755 32.26 56.7355 31.98C56.9955 31.6933 57.1255 31.32 57.1255 30.86V29.98C57.1255 29.52 56.9955 29.15 56.7355 28.87C56.4755 28.5833 56.1189 28.44 55.6655 28.44C55.4855 28.44 55.3122 28.4667 55.1455 28.52C54.9855 28.5667 54.8455 28.6333 54.7255 28.72C54.6055 28.8067 54.5089 28.9133 54.4355 29.04C54.3689 29.16 54.3355 29.29 54.3355 29.43V31.35C54.3355 31.5167 54.3689 31.6667 54.4355 31.8C54.5089 31.9267 54.6055 32.0367 54.7255 32.13C54.8455 32.2167 54.9855 32.2833 55.1455 32.33C55.3122 32.3767 55.4855 32.4 55.6655 32.4ZM62.6363 32.16H62.5963C62.283 32.8 61.7797 33.12 61.0863 33.12C60.7663 33.12 60.4763 33.0567 60.2163 32.93C59.9563 32.8033 59.733 32.6233 59.5463 32.39C59.3663 32.1567 59.2263 31.8733 59.1263 31.54C59.033 31.2067 58.9863 30.8333 58.9863 30.42C58.9863 30.0067 59.033 29.6333 59.1263 29.3C59.2263 28.9667 59.3663 28.6833 59.5463 28.45C59.733 28.2167 59.9563 28.0367 60.2163 27.91C60.4763 27.7833 60.7663 27.72 61.0863 27.72C61.4463 27.72 61.753 27.8 62.0063 27.96C62.2663 28.1133 62.463 28.3533 62.5963 28.68H62.6363V25.6H63.4363V33H62.6363V32.16ZM61.3063 32.4C61.4863 32.4 61.6563 32.3767 61.8163 32.33C61.983 32.2833 62.1263 32.2167 62.2463 32.13C62.3663 32.0367 62.4597 31.9267 62.5263 31.8C62.5997 31.6667 62.6363 31.5167 62.6363 31.35V29.43C62.6363 29.29 62.5997 29.16 62.5263 29.04C62.4597 28.9133 62.3663 28.8067 62.2463 28.72C62.1263 28.6333 61.983 28.5667 61.8163 28.52C61.6563 28.4667 61.4863 28.44 61.3063 28.44C60.853 28.44 60.4963 28.5833 60.2363 28.87C59.9763 29.15 59.8463 29.52 59.8463 29.98V30.86C59.8463 31.32 59.9763 31.6933 60.2363 31.98C60.4963 32.26 60.853 32.4 61.3063 32.4ZM68.8871 33C68.5871 33 68.3704 32.92 68.2371 32.76C68.1104 32.6 68.0304 32.4 67.9971 32.16H67.9471C67.8338 32.48 67.6471 32.72 67.3871 32.88C67.1271 33.04 66.8171 33.12 66.4571 33.12C65.9104 33.12 65.4838 32.98 65.1771 32.7C64.8771 32.42 64.7271 32.04 64.7271 31.56C64.7271 31.0733 64.9038 30.7 65.2571 30.44C65.6171 30.18 66.1738 30.05 66.9271 30.05H67.9471V29.54C67.9471 29.1733 67.8471 28.8933 67.6471 28.7C67.4471 28.5067 67.1404 28.41 66.7271 28.41C66.4138 28.41 66.1504 28.48 65.9371 28.62C65.7304 28.76 65.5571 28.9467 65.4171 29.18L64.9371 28.73C65.0771 28.45 65.3004 28.2133 65.6071 28.02C65.9138 27.82 66.3004 27.72 66.7671 27.72C67.3938 27.72 67.8804 27.8733 68.2271 28.18C68.5738 28.4867 68.7471 28.9133 68.7471 29.46V32.3H69.3371V33H68.8871ZM66.5871 32.44C66.7871 32.44 66.9704 32.4167 67.1371 32.37C67.3038 32.3233 67.4471 32.2567 67.5671 32.17C67.6871 32.0833 67.7804 31.9833 67.8471 31.87C67.9138 31.7567 67.9471 31.6333 67.9471 31.5V30.65H66.8871C66.4271 30.65 66.0904 30.7167 65.8771 30.85C65.6704 30.9833 65.5671 31.1767 65.5671 31.43V31.64C65.5671 31.8933 65.6571 32.09 65.8371 32.23C66.0238 32.37 66.2738 32.44 66.5871 32.44ZM71.6189 33C71.3389 33 71.1256 32.9233 70.9789 32.77C70.8389 32.61 70.7689 32.4033 70.7689 32.15V28.54H69.9189V27.84H70.3989C70.5722 27.84 70.6889 27.8067 70.7489 27.74C70.8156 27.6667 70.8489 27.5433 70.8489 27.37V26.41H71.5689V27.84H72.6989V28.54H71.5689V32.3H72.6189V33H71.6189ZM75.8857 33.12C75.5324 33.12 75.2124 33.0567 74.9257 32.93C74.6457 32.8033 74.4024 32.6233 74.1957 32.39C73.9957 32.15 73.839 31.8667 73.7257 31.54C73.619 31.2067 73.5657 30.8333 73.5657 30.42C73.5657 30.0133 73.619 29.6433 73.7257 29.31C73.839 28.9767 73.9957 28.6933 74.1957 28.46C74.4024 28.22 74.6457 28.0367 74.9257 27.91C75.2124 27.7833 75.5324 27.72 75.8857 27.72C76.2324 27.72 76.5424 27.7833 76.8157 27.91C77.089 28.0367 77.3224 28.2133 77.5157 28.44C77.709 28.66 77.8557 28.9233 77.9557 29.23C78.0624 29.5367 78.1157 29.8733 78.1157 30.24V30.62H74.4057V30.86C74.4057 31.08 74.439 31.2867 74.5057 31.48C74.579 31.6667 74.679 31.83 74.8057 31.97C74.939 32.11 75.099 32.22 75.2857 32.3C75.479 32.38 75.6957 32.42 75.9357 32.42C76.2624 32.42 76.5457 32.3433 76.7857 32.19C77.0324 32.0367 77.2224 31.8167 77.3557 31.53L77.9257 31.94C77.759 32.2933 77.499 32.58 77.1457 32.8C76.7924 33.0133 76.3724 33.12 75.8857 33.12ZM75.8857 28.39C75.6657 28.39 75.4657 28.43 75.2857 28.51C75.1057 28.5833 74.949 28.69 74.8157 28.83C74.689 28.97 74.589 29.1367 74.5157 29.33C74.4424 29.5167 74.4057 29.7233 74.4057 29.95V30.02H77.2557V29.91C77.2557 29.45 77.129 29.0833 76.8757 28.81C76.629 28.53 76.299 28.39 75.8857 28.39ZM82.734 32.16H82.694C82.3807 32.8 81.8773 33.12 81.184 33.12C80.864 33.12 80.574 33.0567 80.314 32.93C80.054 32.8033 79.8307 32.6233 79.644 32.39C79.464 32.1567 79.324 31.8733 79.224 31.54C79.1307 31.2067 79.084 30.8333 79.084 30.42C79.084 30.0067 79.1307 29.6333 79.224 29.3C79.324 28.9667 79.464 28.6833 79.644 28.45C79.8307 28.2167 80.054 28.0367 80.314 27.91C80.574 27.7833 80.864 27.72 81.184 27.72C81.544 27.72 81.8507 27.8 82.104 27.96C82.364 28.1133 82.5607 28.3533 82.694 28.68H82.734V25.6H83.534V33H82.734V32.16ZM81.404 32.4C81.584 32.4 81.754 32.3767 81.914 32.33C82.0807 32.2833 82.224 32.2167 82.344 32.13C82.464 32.0367 82.5573 31.9267 82.624 31.8C82.6973 31.6667 82.734 31.5167 82.734 31.35V29.43C82.734 29.29 82.6973 29.16 82.624 29.04C82.5573 28.9133 82.464 28.8067 82.344 28.72C82.224 28.6333 82.0807 28.5667 81.914 28.52C81.754 28.4667 81.584 28.44 81.404 28.44C80.9507 28.44 80.594 28.5833 80.334 28.87C80.074 29.15 79.944 29.52 79.944 29.98V30.86C79.944 31.32 80.074 31.6933 80.334 31.98C80.594 32.26 80.9507 32.4 81.404 32.4ZM87.678 33V26.02H91.838V26.76H88.518V29.1H91.548V29.84H88.518V33H87.678ZM94.8701 33.12C94.5167 33.12 94.1967 33.0567 93.9101 32.93C93.6301 32.8033 93.3867 32.6233 93.1801 32.39C92.9801 32.15 92.8234 31.8667 92.7101 31.54C92.6034 31.2067 92.5501 30.8333 92.5501 30.42C92.5501 30.0133 92.6034 29.6433 92.7101 29.31C92.8234 28.9767 92.9801 28.6933 93.1801 28.46C93.3867 28.22 93.6301 28.0367 93.9101 27.91C94.1967 27.7833 94.5167 27.72 94.8701 27.72C95.2167 27.72 95.5267 27.7833 95.8001 27.91C96.0734 28.0367 96.3067 28.2133 96.5001 28.44C96.6934 28.66 96.8401 28.9233 96.9401 29.23C97.0467 29.5367 97.1001 29.8733 97.1001 30.24V30.62H93.3901V30.86C93.3901 31.08 93.4234 31.2867 93.4901 31.48C93.5634 31.6667 93.6634 31.83 93.7901 31.97C93.9234 32.11 94.0834 32.22 94.2701 32.3C94.4634 32.38 94.6801 32.42 94.9201 32.42C95.2467 32.42 95.5301 32.3433 95.7701 32.19C96.0167 32.0367 96.2067 31.8167 96.3401 31.53L96.9101 31.94C96.7434 32.2933 96.4834 32.58 96.1301 32.8C95.7767 33.0133 95.3567 33.12 94.8701 33.12ZM94.8701 28.39C94.6501 28.39 94.4501 28.43 94.2701 28.51C94.0901 28.5833 93.9334 28.69 93.8001 28.83C93.6734 28.97 93.5734 29.1367 93.5001 29.33C93.4267 29.5167 93.3901 29.7233 93.3901 29.95V30.02H96.2401V29.91C96.2401 29.45 96.1134 29.0833 95.8601 28.81C95.6134 28.53 95.2834 28.39 94.8701 28.39ZM98.4184 25.6H99.2184V28.68H99.2584C99.3917 28.3533 99.585 28.1133 99.8384 27.96C100.098 27.8 100.408 27.72 100.768 27.72C101.088 27.72 101.378 27.7833 101.638 27.91C101.898 28.0367 102.118 28.2167 102.298 28.45C102.485 28.6833 102.625 28.9667 102.718 29.3C102.818 29.6333 102.868 30.0067 102.868 30.42C102.868 30.8333 102.818 31.2067 102.718 31.54C102.625 31.8733 102.485 32.1567 102.298 32.39C102.118 32.6233 101.898 32.8033 101.638 32.93C101.378 33.0567 101.088 33.12 100.768 33.12C100.068 33.12 99.565 32.8 99.2584 32.16H99.2184V33H98.4184V25.6ZM100.548 32.4C101.002 32.4 101.358 32.26 101.618 31.98C101.878 31.6933 102.008 31.32 102.008 30.86V29.98C102.008 29.52 101.878 29.15 101.618 28.87C101.358 28.5833 101.002 28.44 100.548 28.44C100.368 28.44 100.195 28.4667 100.028 28.52C99.8684 28.5667 99.7284 28.6333 99.6084 28.72C99.4884 28.8067 99.3917 28.9133 99.3184 29.04C99.2517 29.16 99.2184 29.29 99.2184 29.43V31.35C99.2184 31.5167 99.2517 31.6667 99.3184 31.8C99.3917 31.9267 99.4884 32.0367 99.6084 32.13C99.7284 32.2167 99.8684 32.2833 100.028 32.33C100.195 32.3767 100.368 32.4 100.548 32.4ZM104.219 33V27.84H105.019V28.79H105.069C105.162 28.5433 105.329 28.3233 105.569 28.13C105.809 27.9367 106.139 27.84 106.559 27.84H106.869V28.64H106.399C105.966 28.64 105.626 28.7233 105.379 28.89C105.139 29.05 105.019 29.2533 105.019 29.5V33H104.219ZM111.071 32.16H111.031C110.978 32.28 110.911 32.4 110.831 32.52C110.758 32.6333 110.664 32.7367 110.551 32.83C110.438 32.9167 110.301 32.9867 110.141 33.04C109.981 33.0933 109.794 33.12 109.581 33.12C109.048 33.12 108.624 32.95 108.311 32.61C107.998 32.2633 107.841 31.7767 107.841 31.15V27.84H108.641V31.01C108.641 31.9367 109.034 32.4 109.821 32.4C109.981 32.4 110.134 32.38 110.281 32.34C110.434 32.3 110.568 32.24 110.681 32.16C110.801 32.08 110.894 31.98 110.961 31.86C111.034 31.7333 111.071 31.5833 111.071 31.41V27.84H111.871V33H111.071V32.16ZM117.325 33C117.025 33 116.808 32.92 116.675 32.76C116.548 32.6 116.468 32.4 116.435 32.16H116.385C116.271 32.48 116.085 32.72 115.825 32.88C115.565 33.04 115.255 33.12 114.895 33.12C114.348 33.12 113.921 32.98 113.615 32.7C113.315 32.42 113.165 32.04 113.165 31.56C113.165 31.0733 113.341 30.7 113.695 30.44C114.055 30.18 114.611 30.05 115.365 30.05H116.385V29.54C116.385 29.1733 116.285 28.8933 116.085 28.7C115.885 28.5067 115.578 28.41 115.165 28.41C114.851 28.41 114.588 28.48 114.375 28.62C114.168 28.76 113.995 28.9467 113.855 29.18L113.375 28.73C113.515 28.45 113.738 28.2133 114.045 28.02C114.351 27.82 114.738 27.72 115.205 27.72C115.831 27.72 116.318 27.8733 116.665 28.18C117.011 28.4867 117.185 28.9133 117.185 29.46V32.3H117.775V33H117.325ZM115.025 32.44C115.225 32.44 115.408 32.4167 115.575 32.37C115.741 32.3233 115.885 32.2567 116.005 32.17C116.125 32.0833 116.218 31.9833 116.285 31.87C116.351 31.7567 116.385 31.6333 116.385 31.5V30.65H115.325C114.865 30.65 114.528 30.7167 114.315 30.85C114.108 30.9833 114.005 31.1767 114.005 31.43V31.64C114.005 31.8933 114.095 32.09 114.275 32.23C114.461 32.37 114.711 32.44 115.025 32.44ZM118.916 33V27.84H119.716V28.79H119.766C119.86 28.5433 120.026 28.3233 120.266 28.13C120.506 27.9367 120.836 27.84 121.256 27.84H121.566V28.64H121.096C120.663 28.64 120.323 28.7233 120.076 28.89C119.836 29.05 119.716 29.2533 119.716 29.5V33H118.916ZM125.866 27.84H126.656L124.346 34.2C124.286 34.3533 124.226 34.48 124.166 34.58C124.106 34.6867 124.033 34.77 123.946 34.83C123.859 34.89 123.749 34.9333 123.616 34.96C123.489 34.9867 123.333 35 123.146 35H122.736V34.3H123.546L123.936 33.2L122.006 27.84H122.806L124.046 31.35L124.286 32.19H124.336L124.616 31.35L125.866 27.84ZM134.169 26.76H131.109L130.909 29.42H130.979C131.146 29.1867 131.333 29 131.539 28.86C131.753 28.72 132.043 28.65 132.409 28.65C132.709 28.65 132.986 28.7 133.239 28.8C133.493 28.9 133.713 29.0433 133.899 29.23C134.086 29.41 134.229 29.6333 134.329 29.9C134.436 30.1667 134.489 30.47 134.489 30.81C134.489 31.15 134.436 31.4633 134.329 31.75C134.223 32.03 134.066 32.2733 133.859 32.48C133.659 32.68 133.413 32.8367 133.119 32.95C132.833 33.0633 132.506 33.12 132.139 33.12C131.846 33.12 131.586 33.0867 131.359 33.02C131.139 32.9533 130.943 32.8633 130.769 32.75C130.596 32.6367 130.443 32.51 130.309 32.37C130.183 32.23 130.066 32.0833 129.959 31.93L130.589 31.45C130.676 31.59 130.766 31.7167 130.859 31.83C130.959 31.9433 131.066 32.04 131.179 32.12C131.299 32.2 131.436 32.2633 131.589 32.31C131.743 32.35 131.926 32.37 132.139 32.37C132.619 32.37 132.983 32.2433 133.229 31.99C133.476 31.7367 133.599 31.38 133.599 30.92V30.82C133.599 30.36 133.476 30.0033 133.229 29.75C132.983 29.4967 132.619 29.37 132.139 29.37C131.819 29.37 131.566 29.43 131.379 29.55C131.199 29.6633 131.036 29.8 130.889 29.96L130.179 29.86L130.429 26.02H134.169V26.76ZM136.546 31.83C136.759 31.83 136.912 31.8867 137.006 32C137.106 32.1067 137.156 32.2467 137.156 32.42V32.56C137.156 32.8333 137.076 33.1333 136.916 33.46C136.756 33.7933 136.532 34.0833 136.246 34.33H135.576C135.776 34.1167 135.936 33.9133 136.056 33.72C136.182 33.5333 136.272 33.3233 136.326 33.09C136.192 33.0567 136.092 32.9933 136.026 32.9C135.966 32.8067 135.936 32.6933 135.936 32.56V32.42C135.936 32.2467 135.982 32.1067 136.076 32C136.176 31.8867 136.332 31.83 136.546 31.83ZM145.603 33H141.023V32.14L143.303 30.04C143.63 29.74 143.903 29.4233 144.123 29.09C144.343 28.75 144.453 28.41 144.453 28.07V27.95C144.453 27.5633 144.347 27.25 144.133 27.01C143.92 26.77 143.597 26.65 143.163 26.65C142.95 26.65 142.763 26.68 142.603 26.74C142.443 26.8 142.303 26.8833 142.183 26.99C142.07 27.0967 141.973 27.2233 141.893 27.37C141.82 27.51 141.76 27.6633 141.713 27.83L140.963 27.54C141.03 27.3333 141.12 27.1333 141.233 26.94C141.353 26.74 141.5 26.5633 141.673 26.41C141.853 26.2567 142.067 26.1333 142.313 26.04C142.567 25.9467 142.863 25.9 143.203 25.9C143.543 25.9 143.847 25.95 144.113 26.05C144.38 26.15 144.603 26.29 144.783 26.47C144.963 26.65 145.1 26.8633 145.193 27.11C145.293 27.3567 145.343 27.63 145.343 27.93C145.343 28.2033 145.303 28.4567 145.223 28.69C145.15 28.9233 145.047 29.1467 144.913 29.36C144.78 29.5667 144.617 29.77 144.423 29.97C144.237 30.17 144.033 30.37 143.813 30.57L141.933 32.26H145.603V33ZM149.27 33.12C148.436 33.12 147.826 32.8033 147.44 32.17C147.06 31.5367 146.87 30.65 146.87 29.51C146.87 28.37 147.06 27.4833 147.44 26.85C147.826 26.2167 148.436 25.9 149.27 25.9C150.103 25.9 150.71 26.2167 151.09 26.85C151.476 27.4833 151.67 28.37 151.67 29.51C151.67 30.65 151.476 31.5367 151.09 32.17C150.71 32.8033 150.103 33.12 149.27 33.12ZM149.27 32.39C149.543 32.39 149.776 32.3333 149.97 32.22C150.163 32.1067 150.32 31.9467 150.44 31.74C150.56 31.5333 150.646 31.29 150.7 31.01C150.76 30.73 150.79 30.42 150.79 30.08V28.94C150.79 28.6 150.76 28.29 150.7 28.01C150.646 27.73 150.56 27.4867 150.44 27.28C150.32 27.0733 150.163 26.9133 149.97 26.8C149.776 26.6867 149.543 26.63 149.27 26.63C148.996 26.63 148.763 26.6867 148.57 26.8C148.376 26.9133 148.22 27.0733 148.1 27.28C147.98 27.4867 147.89 27.73 147.83 28.01C147.776 28.29 147.75 28.6 147.75 28.94V30.08C147.75 30.42 147.776 30.73 147.83 31.01C147.89 31.29 147.98 31.5333 148.1 31.74C148.22 31.9467 148.376 32.1067 148.57 32.22C148.763 32.3333 148.996 32.39 149.27 32.39ZM157.596 33H153.016V32.14L155.296 30.04C155.622 29.74 155.896 29.4233 156.116 29.09C156.336 28.75 156.446 28.41 156.446 28.07V27.95C156.446 27.5633 156.339 27.25 156.126 27.01C155.912 26.77 155.589 26.65 155.156 26.65C154.942 26.65 154.756 26.68 154.596 26.74C154.436 26.8 154.296 26.8833 154.176 26.99C154.062 27.0967 153.966 27.2233 153.886 27.37C153.812 27.51 153.752 27.6633 153.706 27.83L152.956 27.54C153.022 27.3333 153.112 27.1333 153.226 26.94C153.346 26.74 153.492 26.5633 153.666 26.41C153.846 26.2567 154.059 26.1333 154.306 26.04C154.559 25.9467 154.856 25.9 155.196 25.9C155.536 25.9 155.839 25.95 156.106 26.05C156.372 26.15 156.596 26.29 156.776 26.47C156.956 26.65 157.092 26.8633 157.186 27.11C157.286 27.3567 157.336 27.63 157.336 27.93C157.336 28.2033 157.296 28.4567 157.216 28.69C157.142 28.9233 157.039 29.1467 156.906 29.36C156.772 29.5667 156.609 29.77 156.416 29.97C156.229 30.17 156.026 30.37 155.806 30.57L153.926 32.26H157.596V33ZM161.262 33.12C160.428 33.12 159.818 32.8033 159.432 32.17C159.052 31.5367 158.862 30.65 158.862 29.51C158.862 28.37 159.052 27.4833 159.432 26.85C159.818 26.2167 160.428 25.9 161.262 25.9C162.095 25.9 162.702 26.2167 163.082 26.85C163.468 27.4833 163.662 28.37 163.662 29.51C163.662 30.65 163.468 31.5367 163.082 32.17C162.702 32.8033 162.095 33.12 161.262 33.12ZM161.262 32.39C161.535 32.39 161.768 32.3333 161.962 32.22C162.155 32.1067 162.312 31.9467 162.432 31.74C162.552 31.5333 162.638 31.29 162.692 31.01C162.752 30.73 162.782 30.42 162.782 30.08V28.94C162.782 28.6 162.752 28.29 162.692 28.01C162.638 27.73 162.552 27.4867 162.432 27.28C162.312 27.0733 162.155 26.9133 161.962 26.8C161.768 26.6867 161.535 26.63 161.262 26.63C160.988 26.63 160.755 26.6867 160.562 26.8C160.368 26.9133 160.212 27.0733 160.092 27.28C159.972 27.4867 159.882 27.73 159.822 28.01C159.768 28.29 159.742 28.6 159.742 28.94V30.08C159.742 30.42 159.768 30.73 159.822 31.01C159.882 31.29 159.972 31.5333 160.092 31.74C160.212 31.9467 160.368 32.1067 160.562 32.22C160.755 32.3333 160.988 32.39 161.262 32.39Z" fill="#BDBDBD"/>
</svg>
