<svg width="465" height="350" viewBox="0 0 465 350" fill="none" xmlns="http://www.w3.org/2000/svg">
<rect x="157" y="93" width="54" height="224" fill="#EFEFEF"/>
<rect x="255" y="118" width="54" height="199" fill="#FFBD16" fill-opacity="0.75"/>
<path d="M104 317L104 5.00001" stroke="#EFEFEF"/>
<path d="M104 317L408 317" stroke="#EFEFEF"/>
<path d="M142.979 72.512V80H141.971V72.512H139.307V71.624H145.643V72.512H142.979ZM146.391 80V73.808H147.351V74.948H147.411C147.523 74.652 147.723 74.388 148.011 74.156C148.299 73.924 148.695 73.808 149.199 73.808H149.571V74.768H149.007C148.487 74.768 148.079 74.868 147.783 75.068C147.495 75.26 147.351 75.504 147.351 75.8V80H146.391ZM153.067 80.144C152.643 80.144 152.259 80.068 151.915 79.916C151.579 79.764 151.287 79.548 151.039 79.268C150.799 78.98 150.611 78.64 150.475 78.248C150.347 77.848 150.283 77.4 150.283 76.904C150.283 76.416 150.347 75.972 150.475 75.572C150.611 75.172 150.799 74.832 151.039 74.552C151.287 74.264 151.579 74.044 151.915 73.892C152.259 73.74 152.643 73.664 153.067 73.664C153.483 73.664 153.855 73.74 154.183 73.892C154.511 74.044 154.791 74.256 155.023 74.528C155.255 74.792 155.431 75.108 155.551 75.476C155.679 75.844 155.743 76.248 155.743 76.688V77.144H151.291V77.432C151.291 77.696 151.331 77.944 151.411 78.176C151.499 78.4 151.619 78.596 151.771 78.764C151.931 78.932 152.123 79.064 152.347 79.16C152.579 79.256 152.839 79.304 153.127 79.304C153.519 79.304 153.859 79.212 154.147 79.028C154.443 78.844 154.671 78.58 154.831 78.236L155.515 78.728C155.315 79.152 155.003 79.496 154.579 79.76C154.155 80.016 153.651 80.144 153.067 80.144ZM153.067 74.468C152.803 74.468 152.563 74.516 152.347 74.612C152.131 74.7 151.943 74.828 151.783 74.996C151.631 75.164 151.511 75.364 151.423 75.596C151.335 75.82 151.291 76.068 151.291 76.34V76.424H154.711V76.292C154.711 75.74 154.559 75.3 154.255 74.972C153.959 74.636 153.563 74.468 153.067 74.468ZM161.825 80C161.465 80 161.205 79.904 161.045 79.712C160.893 79.52 160.797 79.28 160.757 78.992H160.697C160.561 79.376 160.337 79.664 160.025 79.856C159.713 80.048 159.341 80.144 158.909 80.144C158.253 80.144 157.741 79.976 157.373 79.64C157.013 79.304 156.833 78.848 156.833 78.272C156.833 77.688 157.045 77.24 157.469 76.928C157.901 76.616 158.569 76.46 159.473 76.46H160.697V75.848C160.697 75.408 160.577 75.072 160.337 74.84C160.097 74.608 159.729 74.492 159.233 74.492C158.857 74.492 158.541 74.576 158.285 74.744C158.037 74.912 157.829 75.136 157.661 75.416L157.085 74.876C157.253 74.54 157.521 74.256 157.889 74.024C158.257 73.784 158.721 73.664 159.281 73.664C160.033 73.664 160.617 73.848 161.033 74.216C161.449 74.584 161.657 75.096 161.657 75.752V79.16H162.365V80H161.825ZM159.065 79.328C159.305 79.328 159.525 79.3 159.725 79.244C159.925 79.188 160.097 79.108 160.241 79.004C160.385 78.9 160.497 78.78 160.577 78.644C160.657 78.508 160.697 78.36 160.697 78.2V77.18H159.425C158.873 77.18 158.469 77.26 158.213 77.42C157.965 77.58 157.841 77.812 157.841 78.116V78.368C157.841 78.672 157.949 78.908 158.165 79.076C158.389 79.244 158.689 79.328 159.065 79.328ZM165.103 80C164.767 80 164.511 79.908 164.335 79.724C164.167 79.532 164.083 79.284 164.083 78.98V74.648H163.063V73.808H163.639C163.847 73.808 163.987 73.768 164.059 73.688C164.139 73.6 164.179 73.452 164.179 73.244V72.092H165.043V73.808H166.399V74.648H165.043V79.16H166.303V80H165.103ZM168.422 72.356C168.214 72.356 168.062 72.308 167.966 72.212C167.878 72.108 167.834 71.976 167.834 71.816V71.66C167.834 71.5 167.878 71.372 167.966 71.276C168.062 71.172 168.214 71.12 168.422 71.12C168.63 71.12 168.778 71.172 168.866 71.276C168.962 71.372 169.01 71.5 169.01 71.66V71.816C169.01 71.976 168.962 72.108 168.866 72.212C168.778 72.308 168.63 72.356 168.422 72.356ZM167.942 73.808H168.902V80H167.942V73.808ZM170.942 80V73.808H171.902V74.816H171.95C172.102 74.464 172.314 74.184 172.586 73.976C172.866 73.768 173.238 73.664 173.702 73.664C174.342 73.664 174.846 73.872 175.214 74.288C175.59 74.696 175.778 75.276 175.778 76.028V80H174.818V76.196C174.818 75.084 174.35 74.528 173.414 74.528C173.222 74.528 173.034 74.552 172.85 74.6C172.674 74.648 172.514 74.72 172.37 74.816C172.226 74.912 172.11 75.036 172.022 75.188C171.942 75.332 171.902 75.504 171.902 75.704V80H170.942ZM182.982 80.684C182.982 81.324 182.73 81.792 182.226 82.088C181.73 82.392 180.982 82.544 179.982 82.544C179.014 82.544 178.318 82.412 177.894 82.148C177.47 81.884 177.258 81.508 177.258 81.02C177.258 80.684 177.346 80.42 177.522 80.228C177.698 80.044 177.938 79.908 178.242 79.82V79.688C177.874 79.512 177.69 79.224 177.69 78.824C177.69 78.512 177.79 78.276 177.99 78.116C178.19 77.948 178.446 77.824 178.758 77.744V77.696C178.39 77.52 178.102 77.268 177.894 76.94C177.694 76.612 177.594 76.232 177.594 75.8C177.594 75.488 177.65 75.2 177.762 74.936C177.874 74.672 178.03 74.448 178.23 74.264C178.438 74.072 178.682 73.924 178.962 73.82C179.25 73.716 179.57 73.664 179.922 73.664C180.362 73.664 180.754 73.744 181.098 73.904V73.796C181.098 73.556 181.154 73.36 181.266 73.208C181.378 73.048 181.562 72.968 181.818 72.968H182.742V73.808H181.566V74.204C181.79 74.396 181.962 74.628 182.082 74.9C182.21 75.164 182.274 75.464 182.274 75.8C182.274 76.112 182.218 76.4 182.106 76.664C181.994 76.928 181.834 77.156 181.626 77.348C181.426 77.532 181.182 77.676 180.894 77.78C180.606 77.884 180.286 77.936 179.934 77.936C179.734 77.936 179.534 77.916 179.334 77.876C179.126 77.932 178.938 78.016 178.77 78.128C178.602 78.232 178.518 78.38 178.518 78.572C178.518 78.756 178.606 78.88 178.782 78.944C178.958 79.008 179.186 79.04 179.466 79.04H180.786C181.554 79.04 182.11 79.188 182.454 79.484C182.806 79.772 182.982 80.172 182.982 80.684ZM182.082 80.756C182.082 80.508 181.986 80.308 181.794 80.156C181.61 80.012 181.278 79.94 180.798 79.94H178.734C178.35 80.116 178.158 80.396 178.158 80.78C178.158 81.052 178.258 81.284 178.458 81.476C178.666 81.668 179.014 81.764 179.502 81.764H180.39C180.926 81.764 181.342 81.68 181.638 81.512C181.934 81.344 182.082 81.092 182.082 80.756ZM179.934 77.168C180.342 77.168 180.666 77.072 180.906 76.88C181.146 76.68 181.266 76.376 181.266 75.968V75.632C181.266 75.224 181.146 74.924 180.906 74.732C180.666 74.532 180.342 74.432 179.934 74.432C179.526 74.432 179.202 74.532 178.962 74.732C178.722 74.924 178.602 75.224 178.602 75.632V75.968C178.602 76.376 178.722 76.68 178.962 76.88C179.202 77.072 179.526 77.168 179.934 77.168ZM186.938 73.808H187.898V74.816H187.946C188.106 74.424 188.338 74.136 188.642 73.952C188.954 73.76 189.326 73.664 189.758 73.664C190.142 73.664 190.49 73.74 190.802 73.892C191.114 74.044 191.378 74.26 191.594 74.54C191.818 74.82 191.986 75.16 192.098 75.56C192.218 75.96 192.278 76.408 192.278 76.904C192.278 77.4 192.218 77.848 192.098 78.248C191.986 78.648 191.818 78.988 191.594 79.268C191.378 79.548 191.114 79.764 190.802 79.916C190.49 80.068 190.142 80.144 189.758 80.144C188.918 80.144 188.314 79.76 187.946 78.992H187.898V82.4H186.938V73.808ZM189.494 79.28C190.038 79.28 190.466 79.112 190.778 78.776C191.09 78.432 191.246 77.984 191.246 77.432V76.376C191.246 75.824 191.09 75.38 190.778 75.044C190.466 74.7 190.038 74.528 189.494 74.528C189.278 74.528 189.07 74.56 188.87 74.624C188.678 74.68 188.51 74.76 188.366 74.864C188.222 74.968 188.106 75.096 188.018 75.248C187.938 75.392 187.898 75.548 187.898 75.716V78.02C187.898 78.22 187.938 78.4 188.018 78.56C188.106 78.712 188.222 78.844 188.366 78.956C188.51 79.06 188.678 79.14 188.87 79.196C189.07 79.252 189.278 79.28 189.494 79.28ZM198.399 80C198.039 80 197.779 79.904 197.619 79.712C197.467 79.52 197.371 79.28 197.331 78.992H197.271C197.135 79.376 196.911 79.664 196.599 79.856C196.287 80.048 195.915 80.144 195.483 80.144C194.827 80.144 194.315 79.976 193.947 79.64C193.587 79.304 193.407 78.848 193.407 78.272C193.407 77.688 193.619 77.24 194.043 76.928C194.475 76.616 195.143 76.46 196.047 76.46H197.271V75.848C197.271 75.408 197.151 75.072 196.911 74.84C196.671 74.608 196.303 74.492 195.807 74.492C195.431 74.492 195.115 74.576 194.859 74.744C194.611 74.912 194.403 75.136 194.235 75.416L193.659 74.876C193.827 74.54 194.095 74.256 194.463 74.024C194.831 73.784 195.295 73.664 195.855 73.664C196.607 73.664 197.191 73.848 197.607 74.216C198.023 74.584 198.231 75.096 198.231 75.752V79.16H198.939V80H198.399ZM195.639 79.328C195.879 79.328 196.099 79.3 196.299 79.244C196.499 79.188 196.671 79.108 196.815 79.004C196.959 78.9 197.071 78.78 197.151 78.644C197.231 78.508 197.271 78.36 197.271 78.2V77.18H195.999C195.447 77.18 195.043 77.26 194.787 77.42C194.539 77.58 194.415 77.812 194.415 78.116V78.368C194.415 78.672 194.523 78.908 194.739 79.076C194.963 79.244 195.263 79.328 195.639 79.328ZM201.677 80C201.341 80 201.085 79.908 200.909 79.724C200.741 79.532 200.657 79.284 200.657 78.98V74.648H199.637V73.808H200.213C200.421 73.808 200.561 73.768 200.633 73.688C200.713 73.6 200.753 73.452 200.753 73.244V72.092H201.617V73.808H202.973V74.648H201.617V79.16H202.877V80H201.677ZM204.996 72.356C204.788 72.356 204.636 72.308 204.54 72.212C204.452 72.108 204.408 71.976 204.408 71.816V71.66C204.408 71.5 204.452 71.372 204.54 71.276C204.636 71.172 204.788 71.12 204.996 71.12C205.204 71.12 205.352 71.172 205.44 71.276C205.536 71.372 205.584 71.5 205.584 71.66V71.816C205.584 71.976 205.536 72.108 205.44 72.212C205.352 72.308 205.204 72.356 204.996 72.356ZM204.516 73.808H205.476V80H204.516V73.808ZM209.844 80.144C209.42 80.144 209.036 80.068 208.692 79.916C208.356 79.764 208.064 79.548 207.816 79.268C207.576 78.98 207.388 78.64 207.252 78.248C207.124 77.848 207.06 77.4 207.06 76.904C207.06 76.416 207.124 75.972 207.252 75.572C207.388 75.172 207.576 74.832 207.816 74.552C208.064 74.264 208.356 74.044 208.692 73.892C209.036 73.74 209.42 73.664 209.844 73.664C210.26 73.664 210.632 73.74 210.96 73.892C211.288 74.044 211.568 74.256 211.8 74.528C212.032 74.792 212.208 75.108 212.328 75.476C212.456 75.844 212.52 76.248 212.52 76.688V77.144H208.068V77.432C208.068 77.696 208.108 77.944 208.188 78.176C208.276 78.4 208.396 78.596 208.548 78.764C208.708 78.932 208.9 79.064 209.124 79.16C209.356 79.256 209.616 79.304 209.904 79.304C210.296 79.304 210.636 79.212 210.924 79.028C211.22 78.844 211.448 78.58 211.608 78.236L212.292 78.728C212.092 79.152 211.78 79.496 211.356 79.76C210.932 80.016 210.428 80.144 209.844 80.144ZM209.844 74.468C209.58 74.468 209.34 74.516 209.124 74.612C208.908 74.7 208.72 74.828 208.56 74.996C208.408 75.164 208.288 75.364 208.2 75.596C208.112 75.82 208.068 76.068 208.068 76.34V76.424H211.488V76.292C211.488 75.74 211.336 75.3 211.032 74.972C210.736 74.636 210.34 74.468 209.844 74.468ZM214.102 80V73.808H215.062V74.816H215.11C215.262 74.464 215.474 74.184 215.746 73.976C216.026 73.768 216.398 73.664 216.862 73.664C217.502 73.664 218.006 73.872 218.374 74.288C218.75 74.696 218.938 75.276 218.938 76.028V80H217.978V76.196C217.978 75.084 217.51 74.528 216.574 74.528C216.382 74.528 216.194 74.552 216.01 74.6C215.834 74.648 215.674 74.72 215.53 74.816C215.386 74.912 215.27 75.036 215.182 75.188C215.102 75.332 215.062 75.504 215.062 75.704V80H214.102ZM222.29 80C221.954 80 221.698 79.908 221.522 79.724C221.354 79.532 221.27 79.284 221.27 78.98V74.648H220.25V73.808H220.826C221.034 73.808 221.174 73.768 221.246 73.688C221.326 73.6 221.366 73.452 221.366 73.244V72.092H222.23V73.808H223.586V74.648H222.23V79.16H223.49V80H222.29ZM226.989 80.144C226.413 80.144 225.929 80.036 225.537 79.82C225.153 79.596 224.821 79.3 224.541 78.932L225.225 78.38C225.465 78.684 225.733 78.92 226.029 79.088C226.325 79.248 226.669 79.328 227.061 79.328C227.469 79.328 227.785 79.24 228.009 79.064C228.241 78.888 228.357 78.64 228.357 78.32C228.357 78.08 228.277 77.876 228.117 77.708C227.965 77.532 227.685 77.412 227.277 77.348L226.785 77.276C226.497 77.236 226.233 77.176 225.993 77.096C225.753 77.008 225.541 76.896 225.357 76.76C225.181 76.616 225.041 76.44 224.937 76.232C224.841 76.024 224.793 75.776 224.793 75.488C224.793 75.184 224.849 74.92 224.961 74.696C225.073 74.464 225.225 74.272 225.417 74.12C225.617 73.968 225.853 73.856 226.125 73.784C226.397 73.704 226.689 73.664 227.001 73.664C227.505 73.664 227.925 73.752 228.261 73.928C228.605 74.104 228.905 74.348 229.161 74.66L228.525 75.236C228.389 75.044 228.189 74.872 227.925 74.72C227.661 74.56 227.329 74.48 226.929 74.48C226.529 74.48 226.225 74.568 226.017 74.744C225.817 74.912 225.717 75.144 225.717 75.44C225.717 75.744 225.817 75.964 226.017 76.1C226.225 76.236 226.521 76.336 226.905 76.4L227.385 76.472C228.073 76.576 228.561 76.776 228.849 77.072C229.137 77.36 229.281 77.74 229.281 78.212C229.281 78.812 229.077 79.284 228.669 79.628C228.261 79.972 227.701 80.144 226.989 80.144Z" fill="#EFEFEF"/>
<path d="M85.824 204.975L93 204.975L93 206.331L85.824 206.331L85.824 208.827L84.624 208.827L84.624 202.479L85.824 202.479L85.824 204.975ZM85.644 200.593C85.644 200.865 85.58 201.065 85.452 201.193C85.324 201.313 85.16 201.373 84.96 201.373L84.756 201.373C84.556 201.373 84.392 201.313 84.264 201.193C84.136 201.065 84.072 200.865 84.072 200.593C84.072 200.321 84.136 200.125 84.264 200.005C84.392 199.885 84.556 199.825 84.756 199.825L84.96 199.825C85.16 199.825 85.324 199.885 85.452 200.005C85.58 200.125 85.644 200.321 85.644 200.593ZM86.76 201.253L86.76 199.945L93 199.945L93 201.253L86.76 201.253ZM93 198.078L86.76 198.078L86.76 196.77L87.792 196.77L87.792 196.71C87.632 196.646 87.48 196.57 87.336 196.482C87.192 196.386 87.068 196.274 86.964 196.146C86.852 196.01 86.768 195.854 86.712 195.678C86.648 195.494 86.616 195.282 86.616 195.042C86.616 194.618 86.72 194.242 86.928 193.914C87.136 193.586 87.456 193.346 87.888 193.194L87.888 193.158C87.536 193.046 87.236 192.83 86.988 192.51C86.74 192.19 86.616 191.778 86.616 191.274C86.616 190.65 86.828 190.166 87.252 189.822C87.668 189.478 88.264 189.306 89.04 189.306L93 189.306L93 190.614L89.196 190.614C88.716 190.614 88.356 190.706 88.116 190.89C87.868 191.074 87.744 191.366 87.744 191.766C87.744 191.934 87.768 192.094 87.816 192.246C87.856 192.398 87.92 192.534 88.008 192.654C88.096 192.766 88.208 192.858 88.344 192.93C88.48 193.002 88.636 193.038 88.812 193.038L93 193.038L93 194.346L89.196 194.346C88.228 194.346 87.744 194.726 87.744 195.486C87.744 195.646 87.768 195.806 87.816 195.966C87.856 196.118 87.92 196.254 88.008 196.374C88.096 196.494 88.208 196.59 88.344 196.662C88.48 196.734 88.636 196.77 88.812 196.77L93 196.77L93 198.078ZM93.144 185.048C93.144 185.496 93.068 185.896 92.916 186.248C92.764 186.6 92.548 186.9 92.268 187.148C91.98 187.396 91.636 187.588 91.236 187.724C90.828 187.852 90.376 187.916 89.88 187.916C89.384 187.916 88.936 187.852 88.536 187.724C88.128 187.588 87.784 187.396 87.504 187.148C87.216 186.9 86.996 186.6 86.844 186.248C86.692 185.896 86.616 185.496 86.616 185.048C86.616 184.592 86.696 184.192 86.856 183.848C87.016 183.496 87.24 183.204 87.528 182.972C87.808 182.74 88.136 182.568 88.512 182.456C88.888 182.336 89.292 182.276 89.724 182.276L90.216 182.276L90.216 186.56L90.42 186.56C90.9 186.56 91.296 186.42 91.608 186.14C91.912 185.852 92.064 185.444 92.064 184.916C92.064 184.532 91.98 184.208 91.812 183.944C91.644 183.68 91.416 183.456 91.128 183.272L91.884 182.504C92.268 182.736 92.576 183.072 92.808 183.512C93.032 183.952 93.144 184.464 93.144 185.048ZM87.636 185.048C87.636 185.272 87.676 185.48 87.756 185.672C87.836 185.856 87.948 186.016 88.092 186.152C88.236 186.28 88.408 186.38 88.608 186.452C88.808 186.524 89.028 186.56 89.268 186.56L89.352 186.56L89.352 183.656L89.232 183.656C88.752 183.656 88.368 183.78 88.08 184.028C87.784 184.276 87.636 184.616 87.636 185.048ZM93.144 176.012C93.144 176.604 93.04 177.1 92.832 177.5C92.624 177.9 92.336 178.248 91.968 178.544L91.2 177.704C91.48 177.472 91.7 177.216 91.86 176.936C92.012 176.648 92.088 176.316 92.088 175.94C92.088 175.556 92.016 175.272 91.872 175.088C91.72 174.896 91.512 174.8 91.248 174.8C91.048 174.8 90.88 174.868 90.744 175.004C90.6 175.132 90.508 175.36 90.468 175.688L90.396 176.264C90.316 176.904 90.132 177.408 89.844 177.776C89.548 178.136 89.112 178.316 88.536 178.316C88.232 178.316 87.964 178.26 87.732 178.148C87.492 178.036 87.292 177.88 87.132 177.68C86.964 177.472 86.836 177.228 86.748 176.948C86.66 176.66 86.616 176.344 86.616 176C86.616 175.44 86.704 174.984 86.88 174.632C87.056 174.272 87.3 173.952 87.612 173.672L88.38 174.476C88.188 174.636 88.024 174.848 87.888 175.112C87.744 175.368 87.672 175.664 87.672 176C87.672 176.36 87.744 176.628 87.888 176.804C88.032 176.972 88.22 177.056 88.452 177.056C88.692 177.056 88.872 176.98 88.992 176.828C89.112 176.676 89.2 176.432 89.256 176.096L89.328 175.52C89.432 174.832 89.636 174.332 89.94 174.02C90.236 173.7 90.636 173.54 91.14 173.54C91.444 173.54 91.72 173.6 91.968 173.72C92.208 173.832 92.416 173.996 92.592 174.212C92.768 174.428 92.904 174.688 93 174.992C93.096 175.296 93.144 175.636 93.144 176.012ZM86.76 172.062L86.76 170.754L87.792 170.754L87.792 170.694C87.416 170.558 87.128 170.338 86.928 170.034C86.72 169.722 86.616 169.358 86.616 168.942C86.616 168.15 86.904 167.538 87.48 167.106C88.048 166.674 88.848 166.458 89.88 166.458C90.912 166.458 91.716 166.674 92.292 167.106C92.86 167.538 93.144 168.15 93.144 168.942C93.144 169.358 93.04 169.722 92.832 170.034C92.624 170.338 92.336 170.558 91.968 170.694L91.968 170.754L95.4 170.754L95.4 172.062L86.76 172.062ZM92.016 169.338C92.016 168.882 91.872 168.518 91.584 168.246C91.288 167.974 90.9 167.838 90.42 167.838L89.34 167.838C88.86 167.838 88.476 167.974 88.188 168.246C87.892 168.518 87.744 168.882 87.744 169.338C87.744 169.738 87.844 170.074 88.044 170.346C88.236 170.618 88.492 170.754 88.812 170.754L90.948 170.754C91.268 170.754 91.528 170.618 91.728 170.346C91.92 170.074 92.016 169.738 92.016 169.338ZM93.144 162.512C93.144 162.96 93.068 163.36 92.916 163.712C92.764 164.064 92.548 164.364 92.268 164.612C91.98 164.86 91.636 165.052 91.236 165.188C90.828 165.316 90.376 165.38 89.88 165.38C89.384 165.38 88.936 165.316 88.536 165.188C88.128 165.052 87.784 164.86 87.504 164.612C87.216 164.364 86.996 164.064 86.844 163.712C86.692 163.36 86.616 162.96 86.616 162.512C86.616 162.056 86.696 161.656 86.856 161.312C87.016 160.96 87.24 160.668 87.528 160.436C87.808 160.204 88.136 160.032 88.512 159.92C88.888 159.8 89.292 159.74 89.724 159.74L90.216 159.74L90.216 164.024L90.42 164.024C90.9 164.024 91.296 163.884 91.608 163.604C91.912 163.316 92.064 162.908 92.064 162.38C92.064 161.996 91.98 161.672 91.812 161.408C91.644 161.144 91.416 160.92 91.128 160.736L91.884 159.968C92.268 160.2 92.576 160.536 92.808 160.976C93.032 161.416 93.144 161.928 93.144 162.512ZM87.636 162.512C87.636 162.736 87.676 162.944 87.756 163.136C87.836 163.32 87.948 163.48 88.092 163.616C88.236 163.744 88.408 163.844 88.608 163.916C88.808 163.988 89.028 164.024 89.268 164.024L89.352 164.024L89.352 161.12L89.232 161.12C88.752 161.12 88.368 161.244 88.08 161.492C87.784 161.74 87.636 162.08 87.636 162.512ZM93 158.293L86.76 158.293L86.76 156.985L87.792 156.985L87.792 156.925C87.456 156.789 87.176 156.585 86.952 156.313C86.728 156.033 86.616 155.653 86.616 155.173C86.616 154.533 86.828 154.037 87.252 153.685C87.668 153.325 88.264 153.145 89.04 153.145L93 153.145L93 154.453L89.208 154.453C88.232 154.453 87.744 154.845 87.744 155.629C87.744 155.797 87.768 155.965 87.816 156.133C87.856 156.293 87.92 156.437 88.008 156.565C88.096 156.693 88.208 156.797 88.344 156.877C88.48 156.949 88.64 156.985 88.824 156.985L93 156.985L93 158.293ZM93 149.604C93 150.06 92.884 150.404 92.652 150.636C92.412 150.868 92.076 150.984 91.644 150.984L87.828 150.984L87.828 151.956L86.76 151.956L86.76 151.428C86.76 151.212 86.712 151.064 86.616 150.984C86.52 150.896 86.364 150.852 86.148 150.852L85.056 150.852L85.056 149.676L86.76 149.676L86.76 148.368L87.828 148.368L87.828 149.676L91.932 149.676L91.932 148.464L93 148.464L93 149.604Z" fill="#EFEFEF"/>
<path d="M228.586 336L227.83 333.732H224.698L223.966 336H222.586L225.442 327.624H227.146L230.002 336H228.586ZM226.294 328.872H226.234L225.022 332.568H227.494L226.294 328.872ZM233.616 336.144C233.168 336.144 232.768 336.068 232.416 335.916C232.064 335.764 231.768 335.548 231.528 335.268C231.288 334.98 231.104 334.636 230.976 334.236C230.848 333.828 230.784 333.376 230.784 332.88C230.784 332.384 230.848 331.936 230.976 331.536C231.104 331.128 231.288 330.784 231.528 330.504C231.768 330.216 232.064 329.996 232.416 329.844C232.768 329.692 233.168 329.616 233.616 329.616C234.24 329.616 234.752 329.756 235.152 330.036C235.552 330.316 235.844 330.688 236.028 331.152L234.948 331.656C234.86 331.368 234.704 331.14 234.48 330.972C234.264 330.796 233.976 330.708 233.616 330.708C233.136 330.708 232.772 330.86 232.524 331.164C232.284 331.46 232.164 331.848 232.164 332.328V333.444C232.164 333.924 232.284 334.316 232.524 334.62C232.772 334.916 233.136 335.064 233.616 335.064C234 335.064 234.304 334.972 234.528 334.788C234.76 334.596 234.944 334.344 235.08 334.032L236.076 334.56C235.868 335.072 235.556 335.464 235.14 335.736C234.724 336.008 234.216 336.144 233.616 336.144ZM239.049 336C238.593 336 238.249 335.884 238.017 335.652C237.785 335.412 237.669 335.076 237.669 334.644V330.828H236.697V329.76H237.225C237.441 329.76 237.589 329.712 237.669 329.616C237.757 329.52 237.801 329.364 237.801 329.148V328.056H238.977V329.76H240.285V330.828H238.977V334.932H240.189V336H239.049ZM242.364 328.644C242.092 328.644 241.892 328.58 241.764 328.452C241.644 328.324 241.584 328.16 241.584 327.96V327.756C241.584 327.556 241.644 327.392 241.764 327.264C241.892 327.136 242.092 327.072 242.364 327.072C242.636 327.072 242.832 327.136 242.952 327.264C243.072 327.392 243.132 327.556 243.132 327.756V327.96C243.132 328.16 243.072 328.324 242.952 328.452C242.832 328.58 242.636 328.644 242.364 328.644ZM241.704 329.76H243.012V336H241.704V329.76ZM247.327 336.144C246.895 336.144 246.499 336.068 246.139 335.916C245.787 335.764 245.487 335.548 245.239 335.268C244.991 334.98 244.799 334.636 244.663 334.236C244.527 333.828 244.459 333.376 244.459 332.88C244.459 332.384 244.527 331.936 244.663 331.536C244.799 331.128 244.991 330.784 245.239 330.504C245.487 330.216 245.787 329.996 246.139 329.844C246.499 329.692 246.895 329.616 247.327 329.616C247.759 329.616 248.151 329.692 248.503 329.844C248.863 329.996 249.167 330.216 249.415 330.504C249.663 330.784 249.855 331.128 249.991 331.536C250.127 331.936 250.195 332.384 250.195 332.88C250.195 333.376 250.127 333.828 249.991 334.236C249.855 334.636 249.663 334.98 249.415 335.268C249.167 335.548 248.863 335.764 248.503 335.916C248.151 336.068 247.759 336.144 247.327 336.144ZM247.327 335.064C247.775 335.064 248.135 334.928 248.407 334.656C248.679 334.376 248.815 333.96 248.815 333.408V332.352C248.815 331.8 248.679 331.388 248.407 331.116C248.135 330.836 247.775 330.696 247.327 330.696C246.879 330.696 246.519 330.836 246.247 331.116C245.975 331.388 245.839 331.8 245.839 332.352V333.408C245.839 333.96 245.975 334.376 246.247 334.656C246.519 334.928 246.879 335.064 247.327 335.064ZM251.653 336V329.76H252.961V330.792H253.021C253.157 330.456 253.361 330.176 253.633 329.952C253.913 329.728 254.293 329.616 254.773 329.616C255.413 329.616 255.909 329.828 256.261 330.252C256.621 330.668 256.801 331.264 256.801 332.04V336H255.493V332.208C255.493 331.232 255.101 330.744 254.317 330.744C254.149 330.744 253.981 330.768 253.813 330.816C253.653 330.856 253.509 330.92 253.381 331.008C253.253 331.096 253.149 331.208 253.069 331.344C252.997 331.48 252.961 331.64 252.961 331.824V336H251.653Z" fill="#EFEFEF"/>
<path d="M252.493 100.512V108H251.485V100.512H248.821V99.624H255.157V100.512H252.493ZM260.1 108C259.74 108 259.48 107.904 259.32 107.712C259.168 107.52 259.072 107.28 259.032 106.992H258.972C258.836 107.376 258.612 107.664 258.3 107.856C257.988 108.048 257.616 108.144 257.184 108.144C256.528 108.144 256.016 107.976 255.648 107.64C255.288 107.304 255.108 106.848 255.108 106.272C255.108 105.688 255.32 105.24 255.744 104.928C256.176 104.616 256.844 104.46 257.748 104.46H258.972V103.848C258.972 103.408 258.852 103.072 258.612 102.84C258.372 102.608 258.004 102.492 257.508 102.492C257.132 102.492 256.816 102.576 256.56 102.744C256.312 102.912 256.104 103.136 255.936 103.416L255.36 102.876C255.528 102.54 255.796 102.256 256.164 102.024C256.532 101.784 256.996 101.664 257.556 101.664C258.308 101.664 258.892 101.848 259.308 102.216C259.724 102.584 259.932 103.096 259.932 103.752V107.16H260.64V108H260.1ZM257.34 107.328C257.58 107.328 257.8 107.3 258 107.244C258.2 107.188 258.372 107.108 258.516 107.004C258.66 106.9 258.772 106.78 258.852 106.644C258.932 106.508 258.972 106.36 258.972 106.2V105.18H257.7C257.148 105.18 256.744 105.26 256.488 105.42C256.24 105.58 256.116 105.812 256.116 106.116V106.368C256.116 106.672 256.224 106.908 256.44 107.076C256.664 107.244 256.964 107.328 257.34 107.328ZM262.01 99.12H262.97V104.748H263.018L263.966 103.692L265.718 101.808H266.882L264.59 104.256L267.11 108H265.946L263.894 104.844L262.97 105.792V108H262.01V99.12ZM268.818 100.356C268.61 100.356 268.458 100.308 268.362 100.212C268.274 100.108 268.23 99.976 268.23 99.816V99.66C268.23 99.5 268.274 99.372 268.362 99.276C268.458 99.172 268.61 99.12 268.818 99.12C269.026 99.12 269.174 99.172 269.262 99.276C269.358 99.372 269.406 99.5 269.406 99.66V99.816C269.406 99.976 269.358 100.108 269.262 100.212C269.174 100.308 269.026 100.356 268.818 100.356ZM268.338 101.808H269.298V108H268.338V101.808ZM271.338 108V101.808H272.298V102.816H272.346C272.498 102.464 272.71 102.184 272.982 101.976C273.262 101.768 273.634 101.664 274.098 101.664C274.738 101.664 275.242 101.872 275.61 102.288C275.986 102.696 276.174 103.276 276.174 104.028V108H275.214V104.196C275.214 103.084 274.746 102.528 273.81 102.528C273.618 102.528 273.43 102.552 273.246 102.6C273.07 102.648 272.91 102.72 272.766 102.816C272.622 102.912 272.506 103.036 272.418 103.188C272.338 103.332 272.298 103.504 272.298 103.704V108H271.338ZM283.379 108.684C283.379 109.324 283.127 109.792 282.623 110.088C282.127 110.392 281.379 110.544 280.379 110.544C279.411 110.544 278.715 110.412 278.291 110.148C277.867 109.884 277.655 109.508 277.655 109.02C277.655 108.684 277.743 108.42 277.919 108.228C278.095 108.044 278.335 107.908 278.639 107.82V107.688C278.271 107.512 278.087 107.224 278.087 106.824C278.087 106.512 278.187 106.276 278.387 106.116C278.587 105.948 278.843 105.824 279.155 105.744V105.696C278.787 105.52 278.499 105.268 278.291 104.94C278.091 104.612 277.991 104.232 277.991 103.8C277.991 103.488 278.047 103.2 278.159 102.936C278.271 102.672 278.427 102.448 278.627 102.264C278.835 102.072 279.079 101.924 279.359 101.82C279.647 101.716 279.967 101.664 280.319 101.664C280.759 101.664 281.151 101.744 281.495 101.904V101.796C281.495 101.556 281.551 101.36 281.663 101.208C281.775 101.048 281.959 100.968 282.215 100.968H283.139V101.808H281.963V102.204C282.187 102.396 282.359 102.628 282.479 102.9C282.607 103.164 282.671 103.464 282.671 103.8C282.671 104.112 282.615 104.4 282.503 104.664C282.391 104.928 282.231 105.156 282.023 105.348C281.823 105.532 281.579 105.676 281.291 105.78C281.003 105.884 280.683 105.936 280.331 105.936C280.131 105.936 279.931 105.916 279.731 105.876C279.523 105.932 279.335 106.016 279.167 106.128C278.999 106.232 278.915 106.38 278.915 106.572C278.915 106.756 279.003 106.88 279.179 106.944C279.355 107.008 279.583 107.04 279.863 107.04H281.183C281.951 107.04 282.507 107.188 282.851 107.484C283.203 107.772 283.379 108.172 283.379 108.684ZM282.479 108.756C282.479 108.508 282.383 108.308 282.191 108.156C282.007 108.012 281.675 107.94 281.195 107.94H279.131C278.747 108.116 278.555 108.396 278.555 108.78C278.555 109.052 278.655 109.284 278.855 109.476C279.063 109.668 279.411 109.764 279.899 109.764H280.787C281.323 109.764 281.739 109.68 282.035 109.512C282.331 109.344 282.479 109.092 282.479 108.756ZM280.331 105.168C280.739 105.168 281.063 105.072 281.303 104.88C281.543 104.68 281.663 104.376 281.663 103.968V103.632C281.663 103.224 281.543 102.924 281.303 102.732C281.063 102.532 280.739 102.432 280.331 102.432C279.923 102.432 279.599 102.532 279.359 102.732C279.119 102.924 278.999 103.224 278.999 103.632V103.968C278.999 104.376 279.119 104.68 279.359 104.88C279.599 105.072 279.923 105.168 280.331 105.168ZM287.334 108V101.808H288.294V102.816H288.342C288.494 102.464 288.706 102.184 288.978 101.976C289.258 101.768 289.63 101.664 290.094 101.664C290.734 101.664 291.238 101.872 291.606 102.288C291.982 102.696 292.17 103.276 292.17 104.028V108H291.21V104.196C291.21 103.084 290.742 102.528 289.806 102.528C289.614 102.528 289.426 102.552 289.242 102.6C289.066 102.648 288.906 102.72 288.762 102.816C288.618 102.912 288.502 103.036 288.414 103.188C288.334 103.332 288.294 103.504 288.294 103.704V108H287.334ZM296.495 108.144C296.079 108.144 295.699 108.068 295.355 107.916C295.011 107.764 294.715 107.548 294.467 107.268C294.227 106.98 294.039 106.64 293.903 106.248C293.767 105.848 293.699 105.4 293.699 104.904C293.699 104.416 293.767 103.972 293.903 103.572C294.039 103.172 294.227 102.832 294.467 102.552C294.715 102.264 295.011 102.044 295.355 101.892C295.699 101.74 296.079 101.664 296.495 101.664C296.911 101.664 297.287 101.74 297.623 101.892C297.967 102.044 298.263 102.264 298.511 102.552C298.759 102.832 298.951 103.172 299.087 103.572C299.223 103.972 299.291 104.416 299.291 104.904C299.291 105.4 299.223 105.848 299.087 106.248C298.951 106.64 298.759 106.98 298.511 107.268C298.263 107.548 297.967 107.764 297.623 107.916C297.287 108.068 296.911 108.144 296.495 108.144ZM296.495 107.292C297.015 107.292 297.439 107.132 297.767 106.812C298.095 106.492 298.259 106.004 298.259 105.348V104.46C298.259 103.804 298.095 103.316 297.767 102.996C297.439 102.676 297.015 102.516 296.495 102.516C295.975 102.516 295.551 102.676 295.223 102.996C294.895 103.316 294.731 103.804 294.731 104.46V105.348C294.731 106.004 294.895 106.492 295.223 106.812C295.551 107.132 295.975 107.292 296.495 107.292ZM302.238 108C301.902 108 301.646 107.908 301.47 107.724C301.302 107.532 301.218 107.284 301.218 106.98V102.648H300.198V101.808H300.774C300.982 101.808 301.122 101.768 301.194 101.688C301.274 101.6 301.314 101.452 301.314 101.244V100.092H302.178V101.808H303.534V102.648H302.178V107.16H303.438V108H302.238ZM307.358 108.144C306.934 108.144 306.55 108.068 306.206 107.916C305.87 107.764 305.578 107.548 305.33 107.268C305.09 106.98 304.902 106.64 304.766 106.248C304.638 105.848 304.574 105.4 304.574 104.904C304.574 104.416 304.638 103.972 304.766 103.572C304.902 103.172 305.09 102.832 305.33 102.552C305.578 102.264 305.87 102.044 306.206 101.892C306.55 101.74 306.934 101.664 307.358 101.664C307.774 101.664 308.146 101.74 308.474 101.892C308.802 102.044 309.082 102.256 309.314 102.528C309.546 102.792 309.722 103.108 309.842 103.476C309.97 103.844 310.034 104.248 310.034 104.688V105.144H305.582V105.432C305.582 105.696 305.622 105.944 305.702 106.176C305.79 106.4 305.91 106.596 306.062 106.764C306.222 106.932 306.414 107.064 306.638 107.16C306.87 107.256 307.13 107.304 307.418 107.304C307.81 107.304 308.15 107.212 308.438 107.028C308.734 106.844 308.962 106.58 309.122 106.236L309.806 106.728C309.606 107.152 309.294 107.496 308.87 107.76C308.446 108.016 307.942 108.144 307.358 108.144ZM307.358 102.468C307.094 102.468 306.854 102.516 306.638 102.612C306.422 102.7 306.234 102.828 306.074 102.996C305.922 103.164 305.802 103.364 305.714 103.596C305.626 103.82 305.582 104.068 305.582 104.34V104.424H309.002V104.292C309.002 103.74 308.85 103.3 308.546 102.972C308.25 102.636 307.854 102.468 307.358 102.468ZM313.476 108.144C312.9 108.144 312.416 108.036 312.024 107.82C311.64 107.596 311.308 107.3 311.028 106.932L311.712 106.38C311.952 106.684 312.22 106.92 312.516 107.088C312.812 107.248 313.156 107.328 313.548 107.328C313.956 107.328 314.272 107.24 314.496 107.064C314.728 106.888 314.844 106.64 314.844 106.32C314.844 106.08 314.764 105.876 314.604 105.708C314.452 105.532 314.172 105.412 313.764 105.348L313.272 105.276C312.984 105.236 312.72 105.176 312.48 105.096C312.24 105.008 312.028 104.896 311.844 104.76C311.668 104.616 311.528 104.44 311.424 104.232C311.328 104.024 311.28 103.776 311.28 103.488C311.28 103.184 311.336 102.92 311.448 102.696C311.56 102.464 311.712 102.272 311.904 102.12C312.104 101.968 312.34 101.856 312.612 101.784C312.884 101.704 313.176 101.664 313.488 101.664C313.992 101.664 314.412 101.752 314.748 101.928C315.092 102.104 315.392 102.348 315.648 102.66L315.012 103.236C314.876 103.044 314.676 102.872 314.412 102.72C314.148 102.56 313.816 102.48 313.416 102.48C313.016 102.48 312.712 102.568 312.504 102.744C312.304 102.912 312.204 103.144 312.204 103.44C312.204 103.744 312.304 103.964 312.504 104.1C312.712 104.236 313.008 104.336 313.392 104.4L313.872 104.472C314.56 104.576 315.048 104.776 315.336 105.072C315.624 105.36 315.768 105.74 315.768 106.212C315.768 106.812 315.564 107.284 315.156 107.628C314.748 107.972 314.188 108.144 313.476 108.144Z" fill="#EFEFEF"/>
</svg>
