<svg width="388" height="219" viewBox="0 0 388 219" fill="none" xmlns="http://www.w3.org/2000/svg">
<rect x="1.00012" y="1" width="18.3809" height="18.3809" fill="#8EF4F4" fill-opacity="0.75" stroke="white" stroke-width="0.382936"/>
<rect x="1" y="19.0938" width="18.3809" height="18.3809" fill="#8EF4F4" fill-opacity="0.75" stroke="white" stroke-width="0.382936"/>
<rect x="1" y="37.1875" width="18.3809" height="18.3809" fill="#8EF4F4" fill-opacity="0.75" stroke="white" stroke-width="0.382936"/>
<rect x="1" y="55.2812" width="18.3809" height="18.3809" fill="#8EF4F4" fill-opacity="0.75" stroke="white" stroke-width="0.382936"/>
<rect x="1" y="73.375" width="18.3809" height="18.3809" fill="#8EF4F4" fill-opacity="0.75" stroke="white" stroke-width="0.382936"/>
<rect x="1" y="91.4688" width="18.3809" height="18.3809" fill="#8EF4F4" fill-opacity="0.75" stroke="white" stroke-width="0.382936"/>
<rect x="1" y="109.562" width="18.3809" height="18.3809" fill="#8EF4F4" fill-opacity="0.75" stroke="white" stroke-width="0.382936"/>
<rect x="1" y="127.656" width="18.3809" height="18.3809" fill="#8EF4F4" fill-opacity="0.75" stroke="white" stroke-width="0.382936"/>
<rect x="1" y="145.75" width="18.3809" height="18.3809" fill="#8EF4F4" fill-opacity="0.75" stroke="white" stroke-width="0.382936"/>
<rect x="1" y="163.844" width="18.3809" height="18.3809" fill="#8EF4F4" fill-opacity="0.75" stroke="white" stroke-width="0.382936"/>
<rect x="1" y="181.938" width="18.3809" height="18.3809" fill="#8EF4F4" fill-opacity="0.75" stroke="white" stroke-width="0.382936"/>
<rect x="1" y="200.031" width="18.3809" height="18.3809" fill="#8EF4F4" fill-opacity="0.75" stroke="white" stroke-width="0.382936"/>
<rect x="19.3809" y="1" width="18.3809" height="18.3809" fill="#8EF4F4" fill-opacity="0.75" stroke="white" stroke-width="0.382936"/>
<rect x="19.3809" y="19.0938" width="18.3809" height="18.3809" fill="#8EF4F4" fill-opacity="0.75" stroke="white" stroke-width="0.382936"/>
<rect x="19.3809" y="37.1875" width="18.3809" height="18.3809" fill="#8EF4F4" fill-opacity="0.75" stroke="white" stroke-width="0.382936"/>
<rect x="19.3809" y="55.2812" width="18.3809" height="18.3809" fill="#8EF4F4" fill-opacity="0.75" stroke="white" stroke-width="0.382936"/>
<rect x="19.3809" y="73.375" width="18.3809" height="18.3809" fill="#8EF4F4" fill-opacity="0.75" stroke="white" stroke-width="0.382936"/>
<rect x="19.3809" y="91.4688" width="18.3809" height="18.3809" fill="#8EF4F4" fill-opacity="0.75" stroke="white" stroke-width="0.382936"/>
<rect x="19.3809" y="109.562" width="18.3809" height="18.3809" fill="#8EF4F4" fill-opacity="0.75" stroke="white" stroke-width="0.382936"/>
<rect x="19.3809" y="127.656" width="18.3809" height="18.3809" fill="#8EF4F4" fill-opacity="0.75" stroke="white" stroke-width="0.382936"/>
<rect x="19.3809" y="145.75" width="18.3809" height="18.3809" fill="#8EF4F4" fill-opacity="0.75" stroke="white" stroke-width="0.382936"/>
<rect x="19.3809" y="163.844" width="18.3809" height="18.3809" fill="#8EF4F4" fill-opacity="0.75" stroke="white" stroke-width="0.382936"/>
<rect x="19.3809" y="181.938" width="18.3809" height="18.3809" fill="#8EF4F4" fill-opacity="0.75" stroke="white" stroke-width="0.36692"/>
<rect x="19.3809" y="200.031" width="18.3809" height="18.3809" fill="#8EF4F4" fill-opacity="0.75" stroke="white" stroke-width="0.36692"/>
<rect x="37.7617" y="1" width="18.3809" height="18.3809" fill="#8EF4F4" fill-opacity="0.75" stroke="white" stroke-width="0.382936"/>
<rect x="37.7617" y="19.0938" width="18.3809" height="18.3809" fill="#8EF4F4" fill-opacity="0.75" stroke="white" stroke-width="0.382936"/>
<rect x="37.7617" y="37.1875" width="18.3809" height="18.3809" fill="#8EF4F4" fill-opacity="0.75" stroke="white" stroke-width="0.382936"/>
<rect x="37.7617" y="55.2812" width="18.3809" height="18.3809" fill="#8EF4F4" fill-opacity="0.75" stroke="white" stroke-width="0.382936"/>
<rect x="37.7617" y="73.375" width="18.3809" height="18.3809" fill="#8EF4F4" fill-opacity="0.75" stroke="white" stroke-width="0.382936"/>
<rect x="37.7617" y="91.4688" width="18.3809" height="18.3809" fill="#8EF4F4" fill-opacity="0.75" stroke="white" stroke-width="0.382936"/>
<rect x="37.7617" y="109.562" width="18.3809" height="18.3809" fill="#8EF4F4" fill-opacity="0.75" stroke="white" stroke-width="0.382936"/>
<rect x="37.7617" y="127.656" width="18.3809" height="18.3809" fill="#8EF4F4" fill-opacity="0.75" stroke="white" stroke-width="0.382936"/>
<rect x="37.7617" y="145.75" width="18.3809" height="18.3809" fill="#8EF4F4" fill-opacity="0.75" stroke="white" stroke-width="0.382936"/>
<rect x="37.7617" y="163.844" width="18.3809" height="18.3809" fill="#8EF4F4" fill-opacity="0.75" stroke="white" stroke-width="0.382936"/>
<rect x="37.7617" y="181.938" width="18.3809" height="18.3809" fill="#8EF4F4" fill-opacity="0.75" stroke="white" stroke-width="0.36692"/>
<rect x="37.7617" y="200.031" width="18.3809" height="18.3809" fill="#8EF4F4" fill-opacity="0.75" stroke="white" stroke-width="0.36692"/>
<rect x="56.1428" y="1" width="18.3809" height="18.3809" fill="#8EF4F4" fill-opacity="0.75" stroke="white" stroke-width="0.382936"/>
<rect x="56.1428" y="19.0938" width="18.3809" height="18.3809" fill="#8EF4F4" fill-opacity="0.75" stroke="white" stroke-width="0.382936"/>
<rect x="56.1428" y="37.1875" width="18.3809" height="18.3809" fill="#8EF4F4" fill-opacity="0.75" stroke="white" stroke-width="0.382936"/>
<rect x="56.1428" y="55.2812" width="18.3809" height="18.3809" fill="#8EF4F4" fill-opacity="0.75" stroke="white" stroke-width="0.382936"/>
<rect x="56.1428" y="73.375" width="18.3809" height="18.3809" fill="#8EF4F4" fill-opacity="0.75" stroke="white" stroke-width="0.382936"/>
<rect x="56.1428" y="91.4688" width="18.3809" height="18.3809" fill="#8EF4F4" fill-opacity="0.75" stroke="white" stroke-width="0.382936"/>
<rect x="56.1428" y="109.562" width="18.3809" height="18.3809" fill="#8EF4F4" fill-opacity="0.75" stroke="white" stroke-width="0.382936"/>
<rect x="56.1428" y="127.656" width="18.3809" height="18.3809" fill="#8EF4F4" fill-opacity="0.75" stroke="white" stroke-width="0.382936"/>
<rect x="56.1428" y="145.75" width="18.3809" height="18.3809" fill="#8EF4F4" fill-opacity="0.75" stroke="white" stroke-width="0.382936"/>
<rect x="56.1428" y="163.844" width="18.3809" height="18.3809" fill="#8EF4F4" fill-opacity="0.75" stroke="white" stroke-width="0.382936"/>
<rect x="56.1428" y="181.938" width="18.3809" height="18.3809" fill="#8EF4F4" fill-opacity="0.75" stroke="white" stroke-width="0.382936"/>
<rect x="56.1428" y="200.031" width="18.3809" height="18.3809" fill="#8EF4F4" fill-opacity="0.75" stroke="white" stroke-width="0.382936"/>
<rect x="74.5242" y="1" width="18.3809" height="18.3809" fill="#8EF4F4" fill-opacity="0.75" stroke="white" stroke-width="0.382936"/>
<rect x="74.5242" y="19.0938" width="18.3809" height="18.3809" fill="#8EF4F4" fill-opacity="0.75" stroke="white" stroke-width="0.382936"/>
<rect x="74.5242" y="37.1875" width="18.3809" height="18.3809" fill="#8EF4F4" fill-opacity="0.75" stroke="white" stroke-width="0.382936"/>
<rect x="74.5242" y="55.2812" width="18.3809" height="18.3809" fill="#8EF4F4" fill-opacity="0.75" stroke="white" stroke-width="0.382936"/>
<rect x="74.5242" y="73.375" width="18.3809" height="18.3809" fill="#8EF4F4" fill-opacity="0.75" stroke="white" stroke-width="0.382936"/>
<rect x="74.5242" y="91.4688" width="18.3809" height="18.3809" fill="#8EF4F4" fill-opacity="0.75" stroke="white" stroke-width="0.382936"/>
<rect x="74.5242" y="109.562" width="18.3809" height="18.3809" fill="#8EF4F4" fill-opacity="0.75" stroke="white" stroke-width="0.382936"/>
<rect x="74.5242" y="127.656" width="18.3809" height="18.3809" fill="#8EF4F4" fill-opacity="0.75" stroke="white" stroke-width="0.382936"/>
<rect x="74.5242" y="145.75" width="18.3809" height="18.3809" fill="#8EF4F4" fill-opacity="0.75" stroke="white" stroke-width="0.382936"/>
<rect x="74.5242" y="163.844" width="18.3809" height="18.3809" fill="#8EF4F4" fill-opacity="0.75" stroke="white" stroke-width="0.382936"/>
<rect x="74.5242" y="181.938" width="18.3809" height="18.3809" fill="#8EF4F4" fill-opacity="0.75" stroke="white" stroke-width="0.382936"/>
<rect x="74.5242" y="200.031" width="18.3809" height="18.3809" fill="#8EF4F4" fill-opacity="0.75" stroke="white" stroke-width="0.36692"/>
<rect x="92.9049" y="1" width="18.3809" height="18.3809" fill="#8EF4F4" fill-opacity="0.75" stroke="white" stroke-width="0.382936"/>
<rect x="92.9049" y="19.0938" width="18.3809" height="18.3809" fill="#8EF4F4" fill-opacity="0.75" stroke="white" stroke-width="0.382936"/>
<rect x="92.9049" y="37.1875" width="18.3809" height="18.3809" fill="#8EF4F4" fill-opacity="0.75" stroke="white" stroke-width="0.382936"/>
<rect x="92.9049" y="55.2812" width="18.3809" height="18.3809" fill="#8EF4F4" fill-opacity="0.75" stroke="white" stroke-width="0.382936"/>
<rect x="92.9049" y="73.375" width="18.3809" height="18.3809" fill="#8EF4F4" fill-opacity="0.75" stroke="white" stroke-width="0.382936"/>
<rect x="92.9049" y="91.4688" width="18.3809" height="18.3809" fill="#8EF4F4" fill-opacity="0.75" stroke="white" stroke-width="0.382936"/>
<rect x="92.9049" y="109.562" width="18.3809" height="18.3809" fill="#8EF4F4" fill-opacity="0.75" stroke="white" stroke-width="0.382936"/>
<rect x="92.9049" y="127.656" width="18.3809" height="18.3809" fill="#8EF4F4" fill-opacity="0.75" stroke="white" stroke-width="0.382936"/>
<rect x="92.9049" y="145.75" width="18.3809" height="18.3809" fill="#8EF4F4" fill-opacity="0.75" stroke="white" stroke-width="0.382936"/>
<rect x="92.9049" y="163.844" width="18.3809" height="18.3809" fill="#8EF4F4" fill-opacity="0.75" stroke="white" stroke-width="0.382936"/>
<rect x="92.9049" y="181.938" width="18.3809" height="18.3809" fill="#8EF4F4" fill-opacity="0.75" stroke="white" stroke-width="0.382936"/>
<rect x="92.9049" y="200.031" width="18.3809" height="18.3809" fill="#8EF4F4" fill-opacity="0.75" stroke="white" stroke-width="0.36692"/>
<rect x="111.286" y="1" width="18.3809" height="18.3809" fill="#8EF4F4" fill-opacity="0.75" stroke="white" stroke-width="0.382936"/>
<rect x="111.286" y="19.0938" width="18.3809" height="18.3809" fill="#8EF4F4" fill-opacity="0.75" stroke="white" stroke-width="0.382936"/>
<rect x="111.286" y="37.1875" width="18.3809" height="18.3809" fill="#8EF4F4" fill-opacity="0.75" stroke="white" stroke-width="0.382936"/>
<rect x="111.286" y="55.2812" width="18.3809" height="18.3809" fill="#8EF4F4" fill-opacity="0.75" stroke="white" stroke-width="0.382936"/>
<rect x="111.286" y="73.375" width="18.3809" height="18.3809" fill="#8EF4F4" fill-opacity="0.75" stroke="white" stroke-width="0.382936"/>
<rect x="111.286" y="91.4688" width="18.3809" height="18.3809" fill="#8EF4F4" fill-opacity="0.75" stroke="white" stroke-width="0.382936"/>
<rect x="111.286" y="109.562" width="18.3809" height="18.3809" fill="#8EF4F4" fill-opacity="0.75" stroke="white" stroke-width="0.382936"/>
<rect x="111.286" y="127.656" width="18.3809" height="18.3809" fill="#8EF4F4" fill-opacity="0.75" stroke="white" stroke-width="0.382936"/>
<rect x="111.286" y="145.75" width="18.3809" height="18.3809" fill="#8EF4F4" fill-opacity="0.75" stroke="white" stroke-width="0.382936"/>
<rect x="111.286" y="163.844" width="18.3809" height="18.3809" fill="#8EF4F4" fill-opacity="0.75" stroke="white" stroke-width="0.382936"/>
<rect x="111.286" y="181.938" width="18.3809" height="18.3809" fill="#8EF4F4" fill-opacity="0.75" stroke="white" stroke-width="0.382936"/>
<rect x="111.286" y="200.031" width="18.3809" height="18.3809" fill="#8EF4F4" fill-opacity="0.75" stroke="white" stroke-width="0.382936"/>
<rect x="129.667" y="1" width="18.3809" height="18.3809" fill="#8EF4F4" fill-opacity="0.75" stroke="white" stroke-width="0.382936"/>
<rect x="129.667" y="19.0938" width="18.3809" height="18.3809" fill="#8EF4F4" fill-opacity="0.75" stroke="white" stroke-width="0.382936"/>
<rect x="129.667" y="37.1875" width="18.3809" height="18.3809" fill="#8EF4F4" fill-opacity="0.75" stroke="white" stroke-width="0.382936"/>
<rect x="129.667" y="55.2812" width="18.3809" height="18.3809" fill="#8EF4F4" fill-opacity="0.75" stroke="white" stroke-width="0.382936"/>
<rect x="129.667" y="73.375" width="18.3809" height="18.3809" fill="#8EF4F4" fill-opacity="0.75" stroke="white" stroke-width="0.382936"/>
<rect x="129.667" y="91.4688" width="18.3809" height="18.3809" fill="#8EF4F4" fill-opacity="0.75" stroke="white" stroke-width="0.382936"/>
<rect x="129.667" y="109.562" width="18.3809" height="18.3809" fill="#8EF4F4" fill-opacity="0.75" stroke="white" stroke-width="0.382936"/>
<rect x="129.667" y="127.656" width="18.3809" height="18.3809" fill="#8EF4F4" fill-opacity="0.75" stroke="white" stroke-width="0.382936"/>
<rect x="129.667" y="145.75" width="18.3809" height="18.3809" fill="#8EF4F4" fill-opacity="0.75" stroke="white" stroke-width="0.382936"/>
<rect x="129.667" y="163.844" width="18.3809" height="18.3809" fill="#8EF4F4" fill-opacity="0.75" stroke="white" stroke-width="0.382936"/>
<rect x="129.667" y="181.938" width="18.3809" height="18.3809" fill="#8EF4F4" fill-opacity="0.75" stroke="white" stroke-width="0.382936"/>
<rect x="129.667" y="200.031" width="18.3809" height="18.3809" fill="#8EF4F4" fill-opacity="0.75" stroke="white" stroke-width="0.382936"/>
<rect x="148.048" y="1" width="18.3809" height="18.3809" fill="#8EF4F4" fill-opacity="0.75" stroke="white" stroke-width="0.382936"/>
<rect x="148.048" y="19.0938" width="18.3809" height="18.3809" fill="#8EF4F4" fill-opacity="0.75" stroke="white" stroke-width="0.382936"/>
<rect x="148.048" y="37.1875" width="18.3809" height="18.3809" fill="#8EF4F4" fill-opacity="0.75" stroke="white" stroke-width="0.382936"/>
<rect x="148.048" y="55.2812" width="18.3809" height="18.3809" fill="#8EF4F4" fill-opacity="0.75" stroke="white" stroke-width="0.382936"/>
<rect x="148.048" y="73.375" width="18.3809" height="18.3809" fill="#8EF4F4" fill-opacity="0.75" stroke="white" stroke-width="0.382936"/>
<rect x="148.048" y="91.4688" width="18.3809" height="18.3809" fill="#8EF4F4" fill-opacity="0.75" stroke="white" stroke-width="0.382936"/>
<rect x="148.048" y="109.562" width="18.3809" height="18.3809" fill="#8EF4F4" fill-opacity="0.75" stroke="white" stroke-width="0.382936"/>
<rect x="148.048" y="127.656" width="18.3809" height="18.3809" fill="#8EF4F4" fill-opacity="0.75" stroke="white" stroke-width="0.382936"/>
<rect x="148.048" y="145.75" width="18.3809" height="18.3809" fill="#8EF4F4" fill-opacity="0.75" stroke="white" stroke-width="0.382936"/>
<rect x="148.048" y="163.844" width="18.3809" height="18.3809" fill="#8EF4F4" fill-opacity="0.75" stroke="white" stroke-width="0.382936"/>
<rect x="148.048" y="181.938" width="18.3809" height="18.3809" fill="#8EF4F4" fill-opacity="0.75" stroke="white" stroke-width="0.382936"/>
<rect x="148.048" y="200.031" width="18.3809" height="18.3809" fill="#8EF4F4" fill-opacity="0.75" stroke="white" stroke-width="0.382936"/>
<rect x="166.428" y="1" width="18.3809" height="18.3809" fill="#8EF4F4" fill-opacity="0.75" stroke="white" stroke-width="0.382936"/>
<rect x="166.428" y="19.0938" width="18.3809" height="18.3809" fill="#8EF4F4" fill-opacity="0.75" stroke="white" stroke-width="0.382936"/>
<rect x="166.428" y="37.1875" width="18.3809" height="18.3809" fill="#8EF4F4" fill-opacity="0.75" stroke="white" stroke-width="0.382936"/>
<rect x="166.428" y="55.2812" width="18.3809" height="18.3809" fill="#8EF4F4" fill-opacity="0.75" stroke="white" stroke-width="0.382936"/>
<rect x="166.428" y="73.375" width="18.3809" height="18.3809" fill="#8EF4F4" fill-opacity="0.75" stroke="white" stroke-width="0.382936"/>
<rect x="166.428" y="91.4688" width="18.3809" height="18.3809" fill="#8EF4F4" fill-opacity="0.75" stroke="white" stroke-width="0.382936"/>
<rect x="166.428" y="109.562" width="18.3809" height="18.3809" fill="#8EF4F4" fill-opacity="0.75" stroke="white" stroke-width="0.382936"/>
<rect x="166.428" y="127.656" width="18.3809" height="18.3809" fill="#8EF4F4" fill-opacity="0.75" stroke="white" stroke-width="0.382936"/>
<rect x="166.428" y="145.75" width="18.3809" height="18.3809" fill="#8EF4F4" fill-opacity="0.75" stroke="white" stroke-width="0.382936"/>
<rect x="166.428" y="163.844" width="18.3809" height="18.3809" fill="#8EF4F4" fill-opacity="0.75" stroke="white" stroke-width="0.382936"/>
<rect x="166.428" y="181.938" width="18.3809" height="18.3809" fill="#8EF4F4" fill-opacity="0.75" stroke="white" stroke-width="0.382936"/>
<rect x="166.428" y="200.031" width="18.3809" height="18.3809" fill="#8EF4F4" fill-opacity="0.75" stroke="white" stroke-width="0.382936"/>
<rect x="184.809" y="1" width="18.3809" height="18.3809" fill="#8EF4F4" fill-opacity="0.75" stroke="white" stroke-width="0.382936"/>
<rect x="184.809" y="19.0938" width="18.3809" height="18.3809" fill="#8EF4F4" fill-opacity="0.75" stroke="white" stroke-width="0.382936"/>
<rect x="184.809" y="37.1875" width="18.3809" height="18.3809" fill="#8EF4F4" fill-opacity="0.75" stroke="white" stroke-width="0.382936"/>
<rect x="184.809" y="55.2812" width="18.3809" height="18.3809" fill="#8EF4F4" fill-opacity="0.75" stroke="white" stroke-width="0.382936"/>
<rect x="184.809" y="73.375" width="18.3809" height="18.3809" fill="#8EF4F4" fill-opacity="0.75" stroke="white" stroke-width="0.382936"/>
<rect x="184.809" y="91.4688" width="18.3809" height="18.3809" fill="#8EF4F4" fill-opacity="0.75" stroke="white" stroke-width="0.382936"/>
<rect x="184.809" y="109.562" width="18.3809" height="18.3809" fill="#8EF4F4" fill-opacity="0.75" stroke="white" stroke-width="0.382936"/>
<rect x="184.809" y="127.656" width="18.3809" height="18.3809" fill="#8EF4F4" fill-opacity="0.75" stroke="white" stroke-width="0.382936"/>
<rect x="184.809" y="145.75" width="18.3809" height="18.3809" fill="#8EF4F4" fill-opacity="0.75" stroke="white" stroke-width="0.382936"/>
<rect x="184.809" y="163.844" width="18.3809" height="18.3809" fill="#8EF4F4" fill-opacity="0.75" stroke="white" stroke-width="0.382936"/>
<rect x="184.809" y="181.938" width="18.3809" height="18.3809" fill="#8EF4F4" fill-opacity="0.75" stroke="white" stroke-width="0.382936"/>
<rect x="184.809" y="200.031" width="18.3809" height="18.3809" fill="#8EF4F4" fill-opacity="0.75" stroke="white" stroke-width="0.382936"/>
<rect x="203.191" y="1" width="18.3809" height="18.3809" fill="#8EF4F4" fill-opacity="0.75" stroke="white" stroke-width="0.382936"/>
<rect x="203.191" y="19.0938" width="18.3809" height="18.3809" fill="#8EF4F4" fill-opacity="0.75" stroke="white" stroke-width="0.382936"/>
<rect x="203.191" y="37.1875" width="18.3809" height="18.3809" fill="#8EF4F4" fill-opacity="0.75" stroke="white" stroke-width="0.382936"/>
<rect x="203.191" y="55.2812" width="18.3809" height="18.3809" fill="#8EF4F4" fill-opacity="0.75" stroke="white" stroke-width="0.382936"/>
<rect x="203.191" y="73.375" width="18.3809" height="18.3809" fill="#8EF4F4" fill-opacity="0.75" stroke="white" stroke-width="0.382936"/>
<rect x="203.191" y="91.4688" width="18.3809" height="18.3809" fill="#8EF4F4" fill-opacity="0.75" stroke="white" stroke-width="0.382936"/>
<rect x="203.191" y="109.562" width="18.3809" height="18.3809" fill="#8EF4F4" fill-opacity="0.75" stroke="white" stroke-width="0.36692"/>
<rect x="203.191" y="127.656" width="18.3809" height="18.3809" fill="#8EF4F4" fill-opacity="0.75" stroke="white" stroke-width="0.36692"/>
<rect x="203.191" y="145.75" width="18.3809" height="18.3809" fill="#8EF4F4" fill-opacity="0.75" stroke="white" stroke-width="0.36692"/>
<rect x="203.191" y="163.844" width="18.3809" height="18.3809" fill="#8EF4F4" fill-opacity="0.75" stroke="white" stroke-width="0.382936"/>
<rect x="203.191" y="181.938" width="18.3809" height="18.3809" fill="#8EF4F4" fill-opacity="0.75" stroke="white" stroke-width="0.382936"/>
<rect x="203.191" y="200.031" width="18.3809" height="18.3809" fill="#8EF4F4" fill-opacity="0.75" stroke="white" stroke-width="0.382936"/>
<rect x="221.571" y="1" width="18.3809" height="18.3809" fill="#8EF4F4" fill-opacity="0.75" stroke="white" stroke-width="0.382936"/>
<rect x="221.571" y="19.0938" width="18.3809" height="18.3809" fill="#8EF4F4" fill-opacity="0.75" stroke="white" stroke-width="0.382936"/>
<rect x="221.571" y="37.1875" width="18.3809" height="18.3809" fill="#8EF4F4" fill-opacity="0.75" stroke="white" stroke-width="0.36692"/>
<rect x="221.571" y="55.2812" width="18.3809" height="18.3809" fill="#8EF4F4" fill-opacity="0.75" stroke="white" stroke-width="0.36692"/>
<rect x="221.571" y="73.375" width="18.3809" height="18.3809" fill="#8EF4F4" fill-opacity="0.75" stroke="white" stroke-width="0.36692"/>
<rect x="221.571" y="91.4688" width="18.3809" height="18.3809" fill="#8EF4F4" fill-opacity="0.75" stroke="white" stroke-width="0.36692"/>
<rect x="221.571" y="109.562" width="18.3809" height="18.3809" fill="#8EF4F4" fill-opacity="0.75" stroke="white" stroke-width="0.36692"/>
<rect x="221.571" y="127.656" width="18.3809" height="18.3809" fill="#8EF4F4" fill-opacity="0.75" stroke="white" stroke-width="0.36692"/>
<rect x="221.571" y="145.75" width="18.3809" height="18.3809" fill="#8EF4F4" fill-opacity="0.75" stroke="white" stroke-width="0.36692"/>
<rect x="221.571" y="163.844" width="18.3809" height="18.3809" fill="#8EF4F4" fill-opacity="0.75" stroke="white" stroke-width="0.36692"/>
<rect x="221.571" y="181.938" width="18.3809" height="18.3809" fill="#8EF4F4" fill-opacity="0.75" stroke="white" stroke-width="0.382936"/>
<rect x="221.571" y="200.031" width="18.3809" height="18.3809" fill="#8EF4F4" fill-opacity="0.75" stroke="white" stroke-width="0.382936"/>
<rect x="239.952" y="1" width="18.3809" height="18.3809" fill="#8EF4F4" fill-opacity="0.75" stroke="white" stroke-width="0.382936"/>
<rect x="239.952" y="19.0938" width="18.3809" height="18.3809" fill="#8EF4F4" fill-opacity="0.75" stroke="white" stroke-width="0.382936"/>
<rect x="239.952" y="37.1875" width="18.3809" height="18.3809" fill="#8EF4F4" fill-opacity="0.75" stroke="white" stroke-width="0.36692"/>
<rect x="239.952" y="55.2812" width="18.3809" height="18.3809" fill="#8EF4F4" fill-opacity="0.75" stroke="white" stroke-width="0.36692"/>
<rect x="239.952" y="73.375" width="18.3809" height="18.3809" fill="#8EF4F4" fill-opacity="0.75" stroke="white" stroke-width="0.36692"/>
<rect x="239.952" y="91.4688" width="18.3809" height="18.3809" fill="#8EF4F4" fill-opacity="0.75" stroke="white" stroke-width="0.36692"/>
<rect x="239.952" y="109.562" width="18.3809" height="18.3809" fill="#8EF4F4" fill-opacity="0.75" stroke="white" stroke-width="0.36692"/>
<rect x="239.952" y="127.656" width="18.3809" height="18.3809" fill="#8EF4F4" fill-opacity="0.75" stroke="white" stroke-width="0.36692"/>
<rect x="239.952" y="145.75" width="18.3809" height="18.3809" fill="#8EF4F4" fill-opacity="0.75" stroke="white" stroke-width="0.36692"/>
<rect x="239.952" y="163.844" width="18.3809" height="18.3809" fill="#8EF4F4" fill-opacity="0.75" stroke="white" stroke-width="0.36692"/>
<rect x="239.952" y="181.938" width="18.3809" height="18.3809" fill="#8EF4F4" fill-opacity="0.75" stroke="white" stroke-width="0.36692"/>
<rect x="239.952" y="200.031" width="18.3809" height="18.3809" fill="#8EF4F4" fill-opacity="0.75" stroke="white" stroke-width="0.382936"/>
<rect x="258.333" y="1" width="18.3809" height="18.3809" fill="#8EF4F4" fill-opacity="0.75" stroke="white" stroke-width="0.382936"/>
<rect x="258.333" y="19.0938" width="18.3809" height="18.3809" fill="#8EF4F4" fill-opacity="0.75" stroke="white" stroke-width="0.382936"/>
<rect x="258.333" y="37.1875" width="18.3809" height="18.3809" fill="#8EF4F4" fill-opacity="0.75" stroke="white" stroke-width="0.36692"/>
<rect x="258.333" y="55.2812" width="18.3809" height="18.3809" fill="#8EF4F4" fill-opacity="0.75" stroke="white" stroke-width="0.36692"/>
<rect x="258.333" y="73.375" width="18.3809" height="18.3809" fill="#8EF4F4" fill-opacity="0.75" stroke="white" stroke-width="0.36692"/>
<rect x="258.333" y="91.4688" width="18.3809" height="18.3809" fill="#8EF4F4" fill-opacity="0.75" stroke="white" stroke-width="0.36692"/>
<rect x="258.333" y="109.562" width="18.3809" height="18.3809" fill="#8EF4F4" fill-opacity="0.75" stroke="white" stroke-width="0.36692"/>
<rect x="258.333" y="127.656" width="18.3809" height="18.3809" fill="#8EF4F4" fill-opacity="0.75" stroke="white" stroke-width="0.36692"/>
<rect x="258.333" y="145.75" width="18.3809" height="18.3809" fill="#8EF4F4" fill-opacity="0.75" stroke="white" stroke-width="0.36692"/>
<rect x="258.333" y="163.844" width="18.3809" height="18.3809" fill="#8EF4F4" fill-opacity="0.75" stroke="white" stroke-width="0.36692"/>
<rect x="258.333" y="181.938" width="18.3809" height="18.3809" fill="#8EF4F4" fill-opacity="0.75" stroke="white" stroke-width="0.36692"/>
<rect x="258.333" y="200.031" width="18.3809" height="18.3809" fill="#8EF4F4" fill-opacity="0.75" stroke="white" stroke-width="0.36692"/>
<rect x="276.714" y="1" width="18.3809" height="18.3809" fill="#8EF4F4" fill-opacity="0.75" stroke="white" stroke-width="0.382936"/>
<rect x="276.714" y="19.0938" width="18.3809" height="18.3809" fill="#8EF4F4" fill-opacity="0.75" stroke="white" stroke-width="0.382936"/>
<rect x="276.714" y="37.1875" width="18.3809" height="18.3809" fill="#8EF4F4" fill-opacity="0.75" stroke="white" stroke-width="0.36692"/>
<rect x="276.714" y="55.2812" width="18.3809" height="18.3809" fill="#8EF4F4" fill-opacity="0.75" stroke="white" stroke-width="0.36692"/>
<rect x="276.714" y="73.375" width="18.3809" height="18.3809" fill="#8EF4F4" fill-opacity="0.75" stroke="white" stroke-width="0.36692"/>
<rect x="276.714" y="91.4688" width="18.3809" height="18.3809" fill="#8EF4F4" fill-opacity="0.75" stroke="white" stroke-width="0.36692"/>
<rect x="276.714" y="109.562" width="18.3809" height="18.3809" fill="#8EF4F4" fill-opacity="0.75" stroke="white" stroke-width="0.36692"/>
<rect x="276.714" y="127.656" width="18.3809" height="18.3809" fill="#8EF4F4" fill-opacity="0.75" stroke="white" stroke-width="0.36692"/>
<rect x="276.714" y="145.75" width="18.3809" height="18.3809" fill="#8EF4F4" fill-opacity="0.75" stroke="white" stroke-width="0.36692"/>
<rect x="276.714" y="163.844" width="18.3809" height="18.3809" fill="#8EF4F4" fill-opacity="0.75" stroke="white" stroke-width="0.36692"/>
<rect x="276.714" y="181.938" width="18.3809" height="18.3809" fill="#8EF4F4" fill-opacity="0.75" stroke="white" stroke-width="0.36692"/>
<rect x="276.714" y="200.031" width="18.3809" height="18.3809" fill="#8EF4F4" fill-opacity="0.75" stroke="white" stroke-width="0.36692"/>
<rect x="295.095" y="1" width="18.3809" height="18.3809" fill="#8EF4F4" fill-opacity="0.75" stroke="white" stroke-width="0.382936"/>
<rect x="295.095" y="19.0938" width="18.3809" height="18.3809" fill="#8EF4F4" fill-opacity="0.75" stroke="white" stroke-width="0.382936"/>
<rect x="295.095" y="37.1875" width="18.3809" height="18.3809" fill="#8EF4F4" fill-opacity="0.75" stroke="white" stroke-width="0.36692"/>
<rect x="295.095" y="55.2812" width="18.3809" height="18.3809" fill="#8EF4F4" fill-opacity="0.75" stroke="white" stroke-width="0.36692"/>
<rect x="295.095" y="73.375" width="18.3809" height="18.3809" fill="#8EF4F4" fill-opacity="0.75" stroke="white" stroke-width="0.36692"/>
<rect x="295.095" y="91.4688" width="18.3809" height="18.3809" fill="#8EF4F4" fill-opacity="0.75" stroke="white" stroke-width="0.36692"/>
<rect x="295.095" y="109.562" width="18.3809" height="18.3809" fill="#8EF4F4" fill-opacity="0.75" stroke="white" stroke-width="0.36692"/>
<rect x="295.095" y="127.656" width="18.3809" height="18.3809" fill="#8EF4F4" fill-opacity="0.75" stroke="white" stroke-width="0.36692"/>
<rect x="295.095" y="145.75" width="18.3809" height="18.3809" fill="#8EF4F4" fill-opacity="0.75" stroke="white" stroke-width="0.36692"/>
<rect x="295.095" y="163.844" width="18.3809" height="18.3809" fill="#8EF4F4" fill-opacity="0.75" stroke="white" stroke-width="0.36692"/>
<rect x="295.095" y="181.938" width="18.3809" height="18.3809" fill="#8EF4F4" fill-opacity="0.75" stroke="white" stroke-width="0.36692"/>
<rect x="295.095" y="200.031" width="18.3809" height="18.3809" fill="#8EF4F4" fill-opacity="0.75" stroke="white" stroke-width="0.36692"/>
<rect x="313.476" y="1" width="18.3809" height="18.3809" fill="#8EF4F4" fill-opacity="0.75" stroke="white" stroke-width="0.382936"/>
<rect x="313.476" y="19.0938" width="18.3809" height="18.3809" fill="#8EF4F4" fill-opacity="0.75" stroke="white" stroke-width="0.382936"/>
<rect x="313.476" y="37.1875" width="18.3809" height="18.3809" fill="#8EF4F4" fill-opacity="0.75" stroke="white" stroke-width="0.382936"/>
<rect x="313.476" y="55.2812" width="18.3809" height="18.3809" fill="#8EF4F4" fill-opacity="0.75" stroke="white" stroke-width="0.36692"/>
<rect x="313.476" y="73.375" width="18.3809" height="18.3809" fill="#8EF4F4" fill-opacity="0.75" stroke="white" stroke-width="0.36692"/>
<rect x="313.476" y="91.4688" width="18.3809" height="18.3809" fill="#8EF4F4" fill-opacity="0.75" stroke="white" stroke-width="0.36692"/>
<rect x="313.476" y="109.562" width="18.3809" height="18.3809" fill="#8EF4F4" fill-opacity="0.75" stroke="white" stroke-width="0.36692"/>
<rect x="313.476" y="127.656" width="18.3809" height="18.3809" fill="#8EF4F4" fill-opacity="0.75" stroke="white" stroke-width="0.36692"/>
<rect x="313.476" y="145.75" width="18.3809" height="18.3809" fill="#8EF4F4" fill-opacity="0.75" stroke="white" stroke-width="0.36692"/>
<rect x="313.476" y="163.844" width="18.3809" height="18.3809" fill="#8EF4F4" fill-opacity="0.75" stroke="white" stroke-width="0.36692"/>
<rect x="313.476" y="181.938" width="18.3809" height="18.3809" fill="#8EF4F4" fill-opacity="0.75" stroke="white" stroke-width="0.36692"/>
<rect x="313.476" y="200.031" width="18.3809" height="18.3809" fill="#8EF4F4" fill-opacity="0.75" stroke="white" stroke-width="0.36692"/>
<rect x="331.857" y="1" width="18.3809" height="18.3809" fill="#8EF4F4" fill-opacity="0.75" stroke="white" stroke-width="0.382936"/>
<rect x="331.857" y="19.0938" width="18.3809" height="18.3809" fill="#8EF4F4" fill-opacity="0.75" stroke="white" stroke-width="0.382936"/>
<rect x="331.857" y="37.1875" width="18.3809" height="18.3809" fill="#8EF4F4" fill-opacity="0.75" stroke="white" stroke-width="0.382936"/>
<rect x="331.857" y="55.2812" width="18.3809" height="18.3809" fill="#8EF4F4" fill-opacity="0.75" stroke="white" stroke-width="0.382936"/>
<rect x="331.857" y="73.375" width="18.3809" height="18.3809" fill="#8EF4F4" fill-opacity="0.75" stroke="white" stroke-width="0.382936"/>
<rect x="331.857" y="91.4688" width="18.3809" height="18.3809" fill="#8EF4F4" fill-opacity="0.75" stroke="white" stroke-width="0.36692"/>
<rect x="331.857" y="109.562" width="18.3809" height="18.3809" fill="#8EF4F4" fill-opacity="0.75" stroke="white" stroke-width="0.36692"/>
<rect x="331.857" y="127.656" width="18.3809" height="18.3809" fill="#8EF4F4" fill-opacity="0.75" stroke="white" stroke-width="0.36692"/>
<rect x="331.857" y="145.75" width="18.3809" height="18.3809" fill="#8EF4F4" fill-opacity="0.75" stroke="white" stroke-width="0.36692"/>
<rect x="331.857" y="163.844" width="18.3809" height="18.3809" fill="#8EF4F4" fill-opacity="0.75" stroke="white" stroke-width="0.36692"/>
<rect x="331.857" y="181.938" width="18.3809" height="18.3809" fill="#8EF4F4" fill-opacity="0.75" stroke="white" stroke-width="0.36692"/>
<rect x="331.857" y="200.031" width="18.3809" height="18.3809" fill="#8EF4F4" fill-opacity="0.75" stroke="white" stroke-width="0.36692"/>
<rect x="350.238" y="1" width="18.3809" height="18.3809" fill="#8EF4F4" fill-opacity="0.75" stroke="white" stroke-width="0.382936"/>
<rect x="350.238" y="19.0938" width="18.3809" height="18.3809" fill="#8EF4F4" fill-opacity="0.75" stroke="white" stroke-width="0.382936"/>
<rect x="350.238" y="37.1875" width="18.3809" height="18.3809" fill="#8EF4F4" fill-opacity="0.75" stroke="white" stroke-width="0.382936"/>
<rect x="350.238" y="55.2812" width="18.3809" height="18.3809" fill="#8EF4F4" fill-opacity="0.75" stroke="white" stroke-width="0.382936"/>
<rect x="350.238" y="73.375" width="18.3809" height="18.3809" fill="#8EF4F4" fill-opacity="0.75" stroke="white" stroke-width="0.382936"/>
<rect x="350.238" y="91.4688" width="18.3809" height="18.3809" fill="#8EF4F4" fill-opacity="0.75" stroke="white" stroke-width="0.382936"/>
<rect x="350.238" y="109.562" width="18.3809" height="18.3809" fill="#8EF4F4" fill-opacity="0.75" stroke="white" stroke-width="0.382936"/>
<rect x="350.238" y="127.656" width="18.3809" height="18.3809" fill="#8EF4F4" fill-opacity="0.75" stroke="white" stroke-width="0.382936"/>
<rect x="350.238" y="145.75" width="18.3809" height="18.3809" fill="#8EF4F4" fill-opacity="0.75" stroke="white" stroke-width="0.382936"/>
<rect x="350.238" y="163.844" width="18.3809" height="18.3809" fill="#8EF4F4" fill-opacity="0.75" stroke="white" stroke-width="0.382936"/>
<rect x="350.238" y="181.938" width="18.3809" height="18.3809" fill="#8EF4F4" fill-opacity="0.75" stroke="white" stroke-width="0.36692"/>
<rect x="350.238" y="200.031" width="18.3809" height="18.3809" fill="#8EF4F4" fill-opacity="0.75" stroke="white" stroke-width="0.36692"/>
<rect x="368.619" y="1" width="18.3809" height="18.3809" fill="#8EF4F4" fill-opacity="0.75" stroke="white" stroke-width="0.382936"/>
<rect x="368.619" y="19.0938" width="18.3809" height="18.3809" fill="#8EF4F4" fill-opacity="0.75" stroke="white" stroke-width="0.382936"/>
<rect x="368.619" y="37.1875" width="18.3809" height="18.3809" fill="#8EF4F4" fill-opacity="0.75" stroke="white" stroke-width="0.382936"/>
<rect x="368.619" y="55.2812" width="18.3809" height="18.3809" fill="#8EF4F4" fill-opacity="0.75" stroke="white" stroke-width="0.382936"/>
<rect x="368.619" y="73.375" width="18.3809" height="18.3809" fill="#8EF4F4" fill-opacity="0.75" stroke="white" stroke-width="0.382936"/>
<rect x="368.619" y="91.4688" width="18.3809" height="18.3809" fill="#8EF4F4" fill-opacity="0.75" stroke="white" stroke-width="0.382936"/>
<rect x="368.619" y="109.562" width="18.3809" height="18.3809" fill="#8EF4F4" fill-opacity="0.75" stroke="white" stroke-width="0.382936"/>
<rect x="368.619" y="127.656" width="18.3809" height="18.3809" fill="#8EF4F4" fill-opacity="0.75" stroke="white" stroke-width="0.382936"/>
<rect x="368.619" y="145.75" width="18.3809" height="18.3809" fill="#8EF4F4" fill-opacity="0.75" stroke="white" stroke-width="0.382936"/>
<rect x="368.619" y="163.844" width="18.3809" height="18.3809" fill="#8EF4F4" fill-opacity="0.75" stroke="white" stroke-width="0.382936"/>
<rect x="368.619" y="181.938" width="18.3809" height="18.3809" fill="#8EF4F4" fill-opacity="0.75" stroke="white" stroke-width="0.36692"/>
<rect x="368.619" y="200.031" width="18.3809" height="18.3809" fill="#8EF4F4" fill-opacity="0.75" stroke="white" stroke-width="0.36692"/>
<circle cx="92.7268" cy="75.4955" r="10.8001" fill="#412DB6" stroke="white" stroke-width="0.812615"/>
<circle cx="113.48" cy="91.267" r="10.8001" fill="#412DB6" stroke="white" stroke-width="0.812615"/>
<circle cx="258.748" cy="71.3451" r="10.7997" fill="#6F5BDF" stroke="white" stroke-width="0.813505"/>
<circle cx="201.471" cy="139.413" r="10.8001" fill="#412DB6" stroke="white" stroke-width="0.812615"/>
<circle cx="278.671" cy="161.828" r="10.8001" fill="#412DB6" stroke="white" stroke-width="0.812615"/>
<rect x="274.105" y="41.0469" width="87.9914" height="99.6129" fill="#EFEFEF"/>
<path d="M289.193 57.6875H288.176L284.314 51.7754V57.6875H283.297V50.0155H284.314L288.187 55.9539V50.0155H289.193V57.6875ZM294.357 57.1237C293.978 57.5698 293.421 57.7929 292.687 57.7929C292.079 57.7929 291.615 57.6172 291.296 57.266C290.98 56.9112 290.82 56.3878 290.816 55.6957V51.9862H291.791V55.6694C291.791 56.5335 292.142 56.9656 292.845 56.9656C293.59 56.9656 294.085 56.6881 294.331 56.1331V51.9862H295.306V57.6875H294.378L294.357 57.1237ZM299.547 52.8609C299.4 52.8363 299.24 52.824 299.068 52.824C298.428 52.824 297.995 53.0962 297.766 53.6407V57.6875H296.792V51.9862H297.74L297.756 52.6448C298.075 52.1355 298.529 51.8808 299.115 51.8808C299.305 51.8808 299.449 51.9054 299.547 51.9546V52.8609ZM303.768 56.1752C303.768 55.9118 303.668 55.708 303.468 55.564C303.271 55.4165 302.925 55.29 302.43 55.1846C301.938 55.0792 301.546 54.9528 301.255 54.8052C300.967 54.6577 300.752 54.482 300.612 54.2783C300.475 54.0746 300.406 53.8322 300.406 53.5511C300.406 53.0839 300.603 52.6888 300.996 52.3656C301.393 52.0424 301.899 51.8808 302.514 51.8808C303.16 51.8808 303.684 52.0477 304.084 52.3814C304.488 52.7151 304.69 53.1419 304.69 53.6618H303.71C303.71 53.3948 303.596 53.1647 303.368 52.9715C303.143 52.7783 302.858 52.6817 302.514 52.6817C302.159 52.6817 301.882 52.759 301.681 52.9136C301.481 53.0681 301.381 53.2701 301.381 53.5195C301.381 53.7549 301.474 53.9323 301.66 54.0517C301.846 54.1712 302.182 54.2853 302.667 54.3942C303.155 54.5031 303.55 54.6331 303.852 54.7842C304.154 54.9352 304.377 55.1179 304.521 55.3322C304.669 55.5429 304.743 55.8011 304.743 56.1067C304.743 56.6161 304.539 57.0253 304.132 57.3345C303.724 57.6401 303.195 57.7929 302.546 57.7929C302.089 57.7929 301.685 57.7121 301.334 57.5505C300.982 57.3889 300.707 57.1641 300.506 56.876C300.31 56.5845 300.211 56.2701 300.211 55.9328H301.186C301.204 56.2595 301.334 56.5195 301.576 56.7127C301.822 56.9024 302.145 56.9972 302.546 56.9972C302.914 56.9972 303.209 56.9235 303.431 56.7759C303.656 56.6249 303.768 56.4246 303.768 56.1752ZM308.379 57.7929C307.606 57.7929 306.977 57.54 306.492 57.0341C306.007 56.5248 305.765 55.845 305.765 54.9949V54.8158C305.765 54.2502 305.872 53.7461 306.086 53.3035C306.304 52.8574 306.606 52.5096 306.993 52.2602C307.383 52.0073 307.804 51.8808 308.257 51.8808C308.999 51.8808 309.575 52.1249 309.986 52.6132C310.397 53.1015 310.602 53.8006 310.602 54.7104V55.1161H306.74C306.754 55.6782 306.917 56.1331 307.23 56.4808C307.546 56.8251 307.946 56.9972 308.431 56.9972C308.776 56.9972 309.067 56.927 309.306 56.7865C309.545 56.6459 309.754 56.4598 309.933 56.2279L310.528 56.6916C310.051 57.4258 309.334 57.7929 308.379 57.7929ZM308.257 52.6817C307.864 52.6817 307.534 52.8258 307.267 53.1138C307 53.3983 306.835 53.7988 306.771 54.3152H309.627V54.2414C309.599 53.7461 309.466 53.3632 309.227 53.0927C308.988 52.8187 308.665 52.6817 308.257 52.6817ZM317.515 57.6875H316.535V51.1905L314.57 51.9124V51.0272L317.363 49.9786H317.515V57.6875Z" fill="#707779"/>
<rect x="282.758" y="65.4702" width="70.6871" height="16.1475" fill="#E8E8E8" stroke="#707779" stroke-width="0.702067"/>
<line y1="-0.175517" x2="73.1926" y2="-0.175517" transform="matrix(0.975361 0.220617 -0.115214 0.993341 282.406 65.8223)" stroke="#707779" stroke-width="0.351033"/>
<line y1="-0.175517" x2="73.1926" y2="-0.175517" transform="matrix(-0.975361 0.220617 0.115214 0.993341 353.796 65.8223)" stroke="#707779" stroke-width="0.351033"/>
<rect x="282.758" y="85.394" width="70.6871" height="16.1475" fill="#E8E8E8" stroke="#707779" stroke-width="0.702067"/>
<line y1="-0.175517" x2="73.1926" y2="-0.175517" transform="matrix(0.975361 0.220617 -0.115214 0.993341 282.406 85.7441)" stroke="#707779" stroke-width="0.351033"/>
<line y1="-0.175517" x2="73.1926" y2="-0.175517" transform="matrix(-0.975361 0.220617 0.115214 0.993341 353.796 85.7441)" stroke="#707779" stroke-width="0.351033"/>
<rect x="282.758" y="105.316" width="70.6871" height="16.1475" fill="#E8E8E8" stroke="#707779" stroke-width="0.702067"/>
<line y1="-0.175517" x2="73.1926" y2="-0.175517" transform="matrix(0.975361 0.220617 -0.115214 0.993341 282.406 105.666)" stroke="#707779" stroke-width="0.351033"/>
<line y1="-0.175517" x2="73.1926" y2="-0.175517" transform="matrix(-0.975361 0.220617 0.115214 0.993341 353.796 105.666)" stroke="#707779" stroke-width="0.351033"/>
<path d="M260.668 69.9512L283.399 86.6777L263.788 98.0003L260.668 69.9512Z" fill="black"/>
<rect x="268.712" y="88.6387" width="4.75425" height="15.4513" transform="rotate(-30 268.712 88.6387)" fill="black"/>
</svg>
