<svg width="691" height="88" viewBox="0 0 691 88" fill="none" xmlns="http://www.w3.org/2000/svg">
<path d="M2.386 80V70.228H3.226V79.258H7.538V80H2.386ZM11.6176 80.168C11.1416 80.168 10.7122 80.084 10.3296 79.916C9.94691 79.748 9.62024 79.5053 9.34958 79.188C9.07891 78.8613 8.86891 78.4647 8.71958 77.998C8.57024 77.5313 8.49558 77.004 8.49558 76.416C8.49558 75.828 8.57024 75.3053 8.71958 74.848C8.86891 74.3813 9.07891 73.9893 9.34958 73.672C9.62024 73.3453 9.94691 73.098 10.3296 72.93C10.7122 72.7527 11.1416 72.664 11.6176 72.664C12.0936 72.664 12.5229 72.7527 12.9056 72.93C13.2882 73.098 13.6149 73.3453 13.8856 73.672C14.1562 73.9893 14.3662 74.3813 14.5156 74.848C14.6649 75.3053 14.7396 75.828 14.7396 76.416C14.7396 77.004 14.6649 77.5313 14.5156 77.998C14.3662 78.4647 14.1562 78.8613 13.8856 79.188C13.6149 79.5053 13.2882 79.748 12.9056 79.916C12.5229 80.084 12.0936 80.168 11.6176 80.168ZM11.6176 79.454C12.3176 79.454 12.8682 79.2347 13.2696 78.796C13.6802 78.3573 13.8856 77.7133 13.8856 76.864V75.968C13.8856 75.128 13.6802 74.4887 13.2696 74.05C12.8682 73.602 12.3176 73.378 11.6176 73.378C10.9176 73.378 10.3622 73.5973 9.95158 74.036C9.55024 74.4747 9.34958 75.1187 9.34958 75.968V76.864C9.34958 77.704 9.55024 78.348 9.95158 78.796C10.3622 79.2347 10.9176 79.454 11.6176 79.454ZM15.8858 72.832H16.6698L18.3918 79.286H18.4198L20.3238 72.832H21.0658L22.9838 79.286H23.0118L24.7198 72.832H25.4898L23.4738 80H22.4938L20.6878 73.966H20.6598L18.8678 80H17.9018L15.8858 72.832ZM33.6558 70.97V80H32.8158V70.97H29.5398V70.228H36.9318V70.97H33.6558ZM37.8899 80V72.832H38.6879V74.12H38.7439C38.8839 73.784 39.1219 73.4853 39.4579 73.224C39.7939 72.9627 40.2699 72.832 40.8859 72.832H41.3619V73.616H40.7319C40.1346 73.616 39.6446 73.7467 39.2619 74.008C38.8792 74.2693 38.6879 74.6333 38.6879 75.1V80H37.8899ZM47.7945 80C47.4865 80 47.2625 79.9207 47.1225 79.762C46.9825 79.6033 46.9031 79.3887 46.8845 79.118V78.866H46.8145C46.6558 79.2673 46.3945 79.5847 46.0305 79.818C45.6665 80.0513 45.2045 80.168 44.6445 80.168C43.8885 80.168 43.3051 79.986 42.8945 79.622C42.4838 79.2487 42.2785 78.726 42.2785 78.054C42.2785 77.4193 42.5025 76.9153 42.9505 76.542C43.4078 76.1687 44.1545 75.982 45.1905 75.982H46.8425V75.142C46.8425 73.9567 46.2311 73.364 45.0085 73.364C44.5325 73.364 44.1358 73.4667 43.8185 73.672C43.5011 73.868 43.2445 74.1527 43.0485 74.526L42.5445 74.106C42.7405 73.686 43.0391 73.3407 43.4405 73.07C43.8511 72.7993 44.3831 72.664 45.0365 72.664C45.8765 72.664 46.5205 72.874 46.9685 73.294C47.4165 73.714 47.6405 74.302 47.6405 75.058V79.3H48.6065V80H47.7945ZM44.7565 79.482C45.0458 79.482 45.3165 79.4447 45.5685 79.37C45.8205 79.2953 46.0398 79.1927 46.2265 79.062C46.4225 78.922 46.5718 78.7587 46.6745 78.572C46.7865 78.376 46.8425 78.1567 46.8425 77.914V76.584H45.1625C44.4438 76.584 43.9211 76.7007 43.5945 76.934C43.2771 77.158 43.1185 77.4707 43.1185 77.872V78.208C43.1185 78.628 43.2678 78.9453 43.5665 79.16C43.8651 79.3747 44.2618 79.482 44.7565 79.482ZM50.5853 73.532H49.3533V72.832H50.5853V70.83C50.5853 70.466 50.6739 70.1767 50.8513 69.962C51.0379 69.7473 51.3226 69.64 51.7053 69.64H52.9653V70.34H51.3833V72.832H52.9653V73.532H51.3833V80H50.5853V73.532ZM54.9056 73.532H53.6736V72.832H54.9056V70.83C54.9056 70.466 54.9942 70.1767 55.1716 69.962C55.3582 69.7473 55.6429 69.64 56.0256 69.64H57.2856V70.34H55.7036V72.832H59.5956V80H58.7976V73.532H55.7036V80H54.9056V73.532ZM59.2036 70.886C59.0076 70.886 58.8676 70.8393 58.7836 70.746C58.6996 70.6527 58.6576 70.5313 58.6576 70.382V70.242C58.6576 70.0927 58.6996 69.9713 58.7836 69.878C58.8676 69.7847 59.0076 69.738 59.2036 69.738C59.3902 69.738 59.5256 69.7847 59.6096 69.878C59.7029 69.9713 59.7496 70.0927 59.7496 70.242V70.382C59.7496 70.5313 59.7029 70.6527 59.6096 70.746C59.5256 70.8393 59.3902 70.886 59.2036 70.886ZM64.7322 80.168C63.7428 80.168 62.9775 79.8413 62.4362 79.188C61.9042 78.5347 61.6382 77.6107 61.6382 76.416C61.6382 75.2213 61.9042 74.2973 62.4362 73.644C62.9775 72.9907 63.7428 72.664 64.7322 72.664C65.3948 72.664 65.9315 72.8087 66.3422 73.098C66.7528 73.3873 67.0655 73.77 67.2802 74.246L66.6082 74.582C66.4402 74.19 66.2022 73.8913 65.8942 73.686C65.5955 73.4807 65.2082 73.378 64.7322 73.378C64.0042 73.378 63.4488 73.6113 63.0662 74.078C62.6835 74.5447 62.4922 75.156 62.4922 75.912V76.92C62.4922 77.676 62.6835 78.2873 63.0662 78.754C63.4488 79.2207 64.0042 79.454 64.7322 79.454C65.2268 79.454 65.6422 79.3467 65.9782 79.132C66.3142 78.9173 66.5848 78.6093 66.7902 78.208L67.3782 78.6C67.1448 79.076 66.8088 79.4587 66.3702 79.748C65.9408 80.028 65.3948 80.168 64.7322 80.168Z" fill="#EFEFEF"/>
<path d="M199.381 71.306H199.325L195.951 77.284L192.577 71.306H192.521V80H191.709V70.228H192.857L195.951 75.73H195.993L199.087 70.228H200.193V80H199.381V71.306ZM205.439 80.168C204.963 80.168 204.529 80.084 204.137 79.916C203.755 79.748 203.423 79.5053 203.143 79.188C202.873 78.8613 202.663 78.4647 202.513 77.998C202.373 77.5313 202.303 77.004 202.303 76.416C202.303 75.828 202.373 75.3053 202.513 74.848C202.663 74.3813 202.873 73.9893 203.143 73.672C203.423 73.3453 203.755 73.098 204.137 72.93C204.52 72.7527 204.949 72.664 205.425 72.664C205.883 72.664 206.298 72.7527 206.671 72.93C207.045 73.098 207.362 73.336 207.623 73.644C207.885 73.952 208.085 74.3253 208.225 74.764C208.375 75.1933 208.449 75.6693 208.449 76.192V76.57H203.143V76.92C203.143 77.2933 203.195 77.6387 203.297 77.956C203.409 78.264 203.563 78.53 203.759 78.754C203.965 78.978 204.212 79.1553 204.501 79.286C204.791 79.4073 205.117 79.468 205.481 79.468C206.527 79.468 207.25 78.9873 207.651 78.026L208.239 78.418C208.015 78.95 207.661 79.3747 207.175 79.692C206.699 80.0093 206.121 80.168 205.439 80.168ZM205.425 73.336C205.08 73.336 204.767 73.4013 204.487 73.532C204.207 73.6533 203.965 73.826 203.759 74.05C203.563 74.274 203.409 74.5447 203.297 74.862C203.195 75.17 203.143 75.5107 203.143 75.884V75.954H207.581V75.842C207.581 75.4687 207.53 75.128 207.427 74.82C207.325 74.5027 207.175 74.2367 206.979 74.022C206.793 73.8073 206.564 73.6393 206.293 73.518C206.032 73.3967 205.743 73.336 205.425 73.336ZM215.113 78.852H215.071C214.884 79.2533 214.609 79.5753 214.245 79.818C213.89 80.0513 213.437 80.168 212.887 80.168C211.963 80.168 211.239 79.8413 210.717 79.188C210.194 78.5347 209.933 77.6107 209.933 76.416C209.933 75.2213 210.194 74.2973 210.717 73.644C211.239 72.9907 211.963 72.664 212.887 72.664C213.437 72.664 213.895 72.7853 214.259 73.028C214.623 73.2613 214.893 73.5787 215.071 73.98H215.113V69.64H215.911V80H215.113V78.852ZM213.069 79.454C213.349 79.454 213.61 79.4167 213.853 79.342C214.105 79.2673 214.324 79.16 214.511 79.02C214.697 78.8707 214.842 78.698 214.945 78.502C215.057 78.2967 215.113 78.068 215.113 77.816V74.974C215.113 74.7407 215.057 74.526 214.945 74.33C214.842 74.134 214.697 73.966 214.511 73.826C214.324 73.686 214.105 73.5787 213.853 73.504C213.61 73.42 213.349 73.378 213.069 73.378C212.35 73.378 211.79 73.6067 211.389 74.064C210.987 74.5213 210.787 75.1373 210.787 75.912V76.92C210.787 77.6947 210.987 78.3107 211.389 78.768C211.79 79.2253 212.35 79.454 213.069 79.454ZM218.91 70.886C218.723 70.886 218.583 70.8393 218.49 70.746C218.406 70.6527 218.364 70.5313 218.364 70.382V70.242C218.364 70.0927 218.406 69.9713 218.49 69.878C218.583 69.7847 218.723 69.738 218.91 69.738C219.096 69.738 219.232 69.7847 219.316 69.878C219.409 69.9713 219.456 70.0927 219.456 70.242V70.382C219.456 70.5313 219.409 70.6527 219.316 70.746C219.232 70.8393 219.096 70.886 218.91 70.886ZM218.518 72.832H219.316V80H218.518V72.832ZM226.402 78.866H226.346C226.281 79.034 226.192 79.1973 226.08 79.356C225.968 79.5147 225.828 79.6547 225.66 79.776C225.492 79.888 225.291 79.9813 225.058 80.056C224.834 80.1307 224.568 80.168 224.26 80.168C223.495 80.168 222.897 79.9347 222.468 79.468C222.039 78.992 221.824 78.3153 221.824 77.438V72.832H222.622V77.284C222.622 78.0213 222.781 78.5673 223.098 78.922C223.415 79.2767 223.873 79.454 224.47 79.454C224.722 79.454 224.96 79.4213 225.184 79.356C225.417 79.2907 225.623 79.1927 225.8 79.062C225.987 78.9313 226.131 78.768 226.234 78.572C226.346 78.3667 226.402 78.1287 226.402 77.858V72.832H227.2V80H226.402V78.866ZM229.811 80V72.832H230.609V73.966H230.651C230.725 73.7887 230.819 73.6253 230.931 73.476C231.043 73.3173 231.178 73.1773 231.337 73.056C231.495 72.9347 231.682 72.8413 231.897 72.776C232.121 72.7013 232.382 72.664 232.681 72.664C233.194 72.664 233.647 72.7853 234.039 73.028C234.431 73.2707 234.715 73.6533 234.893 74.176H234.935C235.065 73.756 235.313 73.4013 235.677 73.112C236.05 72.8133 236.554 72.664 237.189 72.664C237.954 72.664 238.542 72.902 238.953 73.378C239.363 73.8447 239.569 74.5167 239.569 75.394V80H238.771V75.534C238.771 74.0967 238.169 73.378 236.965 73.378C236.713 73.378 236.475 73.4107 236.251 73.476C236.027 73.5413 235.826 73.644 235.649 73.784C235.481 73.9147 235.345 74.0827 235.243 74.288C235.14 74.484 235.089 74.7127 235.089 74.974V80H234.291V75.534C234.291 74.0967 233.693 73.378 232.499 73.378C232.256 73.378 232.018 73.4107 231.785 73.476C231.561 73.5413 231.36 73.6393 231.183 73.77C231.005 73.9007 230.865 74.0687 230.763 74.274C230.66 74.47 230.609 74.6987 230.609 74.96V80H229.811ZM248.477 70.97V80H247.637V70.97H244.361V70.228H251.753V70.97H248.477ZM252.711 80V72.832H253.509V74.12H253.565C253.705 73.784 253.943 73.4853 254.279 73.224C254.615 72.9627 255.091 72.832 255.707 72.832H256.183V73.616H255.553C254.956 73.616 254.466 73.7467 254.083 74.008C253.701 74.2693 253.509 74.6333 253.509 75.1V80H252.711ZM262.616 80C262.308 80 262.084 79.9207 261.944 79.762C261.804 79.6033 261.724 79.3887 261.706 79.118V78.866H261.636C261.477 79.2673 261.216 79.5847 260.852 79.818C260.488 80.0513 260.026 80.168 259.466 80.168C258.71 80.168 258.126 79.986 257.716 79.622C257.305 79.2487 257.1 78.726 257.1 78.054C257.1 77.4193 257.324 76.9153 257.772 76.542C258.229 76.1687 258.976 75.982 260.012 75.982H261.664V75.142C261.664 73.9567 261.052 73.364 259.83 73.364C259.354 73.364 258.957 73.4667 258.64 73.672C258.322 73.868 258.066 74.1527 257.87 74.526L257.366 74.106C257.562 73.686 257.86 73.3407 258.262 73.07C258.672 72.7993 259.204 72.664 259.858 72.664C260.698 72.664 261.342 72.874 261.79 73.294C262.238 73.714 262.462 74.302 262.462 75.058V79.3H263.428V80H262.616ZM259.578 79.482C259.867 79.482 260.138 79.4447 260.39 79.37C260.642 79.2953 260.861 79.1927 261.048 79.062C261.244 78.922 261.393 78.7587 261.496 78.572C261.608 78.376 261.664 78.1567 261.664 77.914V76.584H259.984C259.265 76.584 258.742 76.7007 258.416 76.934C258.098 77.158 257.94 77.4707 257.94 77.872V78.208C257.94 78.628 258.089 78.9453 258.388 79.16C258.686 79.3747 259.083 79.482 259.578 79.482ZM265.407 73.532H264.175V72.832H265.407V70.83C265.407 70.466 265.495 70.1767 265.673 69.962C265.859 69.7473 266.144 69.64 266.527 69.64H267.787V70.34H266.205V72.832H267.787V73.532H266.205V80H265.407V73.532ZM269.727 73.532H268.495V72.832H269.727V70.83C269.727 70.466 269.816 70.1767 269.993 69.962C270.18 69.7473 270.464 69.64 270.847 69.64H272.107V70.34H270.525V72.832H274.417V80H273.619V73.532H270.525V80H269.727V73.532ZM274.025 70.886C273.829 70.886 273.689 70.8393 273.605 70.746C273.521 70.6527 273.479 70.5313 273.479 70.382V70.242C273.479 70.0927 273.521 69.9713 273.605 69.878C273.689 69.7847 273.829 69.738 274.025 69.738C274.212 69.738 274.347 69.7847 274.431 69.878C274.524 69.9713 274.571 70.0927 274.571 70.242V70.382C274.571 70.5313 274.524 70.6527 274.431 70.746C274.347 70.8393 274.212 70.886 274.025 70.886ZM279.553 80.168C278.564 80.168 277.799 79.8413 277.257 79.188C276.725 78.5347 276.459 77.6107 276.459 76.416C276.459 75.2213 276.725 74.2973 277.257 73.644C277.799 72.9907 278.564 72.664 279.553 72.664C280.216 72.664 280.753 72.8087 281.163 73.098C281.574 73.3873 281.887 73.77 282.101 74.246L281.429 74.582C281.261 74.19 281.023 73.8913 280.715 73.686C280.417 73.4807 280.029 73.378 279.553 73.378C278.825 73.378 278.27 73.6113 277.887 74.078C277.505 74.5447 277.313 75.156 277.313 75.912V76.92C277.313 77.676 277.505 78.2873 277.887 78.754C278.27 79.2207 278.825 79.454 279.553 79.454C280.048 79.454 280.463 79.3467 280.799 79.132C281.135 78.9173 281.406 78.6093 281.611 78.208L282.199 78.6C281.966 79.076 281.63 79.4587 281.191 79.748C280.762 80.028 280.216 80.168 279.553 80.168Z" fill="#EFEFEF"/>
<path d="M425.876 75.408H420.514V80H419.674V70.228H420.514V74.666H425.876V70.228H426.716V80H425.876V75.408ZM429.798 70.886C429.612 70.886 429.472 70.8393 429.378 70.746C429.294 70.6527 429.252 70.5313 429.252 70.382V70.242C429.252 70.0927 429.294 69.9713 429.378 69.878C429.472 69.7847 429.612 69.738 429.798 69.738C429.985 69.738 430.12 69.7847 430.204 69.878C430.298 69.9713 430.344 70.0927 430.344 70.242V70.382C430.344 70.5313 430.298 70.6527 430.204 70.746C430.12 70.8393 429.985 70.886 429.798 70.886ZM429.406 72.832H430.204V80H429.406V72.832ZM438.691 80.84C438.691 81.568 438.397 82.1047 437.809 82.45C437.23 82.7953 436.376 82.968 435.247 82.968C434.155 82.968 433.366 82.8093 432.881 82.492C432.395 82.1747 432.153 81.736 432.153 81.176C432.153 80.7653 432.26 80.4387 432.475 80.196C432.689 79.9533 432.993 79.776 433.385 79.664V79.552C432.937 79.3747 432.713 79.048 432.713 78.572C432.713 78.2173 432.829 77.9467 433.063 77.76C433.296 77.5733 433.585 77.4333 433.931 77.34V77.284C433.511 77.0973 433.184 76.8173 432.951 76.444C432.717 76.0707 432.601 75.6227 432.601 75.1C432.601 74.736 432.661 74.4047 432.783 74.106C432.904 73.8073 433.077 73.5507 433.301 73.336C433.534 73.1213 433.809 72.958 434.127 72.846C434.453 72.7247 434.813 72.664 435.205 72.664C435.755 72.664 436.236 72.7807 436.647 73.014V72.664C436.647 72.4493 436.698 72.2767 436.801 72.146C436.903 72.006 437.071 71.936 437.305 71.936H438.537V72.636H437.081V73.322C437.323 73.5367 437.51 73.798 437.641 74.106C437.771 74.4047 437.837 74.736 437.837 75.1C437.837 75.464 437.771 75.7953 437.641 76.094C437.519 76.3927 437.342 76.654 437.109 76.878C436.885 77.0927 436.609 77.2607 436.283 77.382C435.965 77.494 435.611 77.55 435.219 77.55C435.088 77.55 434.962 77.5407 434.841 77.522C434.719 77.5033 434.598 77.4847 434.477 77.466C434.169 77.55 433.912 77.6667 433.707 77.816C433.511 77.956 433.413 78.1473 433.413 78.39C433.413 78.8193 433.795 79.034 434.561 79.034H436.227C437.095 79.034 437.72 79.1973 438.103 79.524C438.495 79.8413 438.691 80.28 438.691 80.84ZM437.921 80.896C437.921 80.5507 437.795 80.2753 437.543 80.07C437.3 79.874 436.861 79.776 436.227 79.776H433.903C433.595 79.8787 433.352 80.0327 433.175 80.238C432.997 80.4433 432.909 80.7 432.909 81.008C432.909 81.3813 433.063 81.6893 433.371 81.932C433.679 82.184 434.145 82.31 434.771 82.31H435.667C436.367 82.31 436.917 82.1933 437.319 81.96C437.72 81.736 437.921 81.3813 437.921 80.896ZM435.219 76.906C435.769 76.906 436.199 76.7707 436.507 76.5C436.824 76.22 436.983 75.828 436.983 75.324V74.876C436.983 74.3813 436.824 73.9987 436.507 73.728C436.199 73.448 435.769 73.308 435.219 73.308C434.659 73.308 434.225 73.448 433.917 73.728C433.609 73.9987 433.455 74.3813 433.455 74.876V75.324C433.455 75.828 433.609 76.22 433.917 76.5C434.234 76.7707 434.668 76.906 435.219 76.906ZM440.221 69.64H441.019V73.966H441.061C441.22 73.5927 441.467 73.2847 441.803 73.042C442.139 72.79 442.596 72.664 443.175 72.664C443.94 72.664 444.533 72.902 444.953 73.378C445.382 73.8447 445.597 74.5167 445.597 75.394V80H444.799V75.534C444.799 74.806 444.64 74.2647 444.323 73.91C444.015 73.5553 443.562 73.378 442.965 73.378C442.713 73.378 442.47 73.4107 442.237 73.476C442.004 73.5413 441.794 73.6393 441.607 73.77C441.43 73.9007 441.285 74.0687 441.173 74.274C441.07 74.47 441.019 74.6987 441.019 74.96V80H440.221V69.64ZM454.512 70.97V80H453.672V70.97H450.396V70.228H457.788V70.97H454.512ZM458.746 80V72.832H459.544V74.12H459.6C459.74 73.784 459.978 73.4853 460.314 73.224C460.65 72.9627 461.126 72.832 461.742 72.832H462.218V73.616H461.588C460.991 73.616 460.501 73.7467 460.118 74.008C459.736 74.2693 459.544 74.6333 459.544 75.1V80H458.746ZM468.651 80C468.343 80 468.119 79.9207 467.979 79.762C467.839 79.6033 467.76 79.3887 467.741 79.118V78.866H467.671C467.512 79.2673 467.251 79.5847 466.887 79.818C466.523 80.0513 466.061 80.168 465.501 80.168C464.745 80.168 464.162 79.986 463.751 79.622C463.34 79.2487 463.135 78.726 463.135 78.054C463.135 77.4193 463.359 76.9153 463.807 76.542C464.264 76.1687 465.011 75.982 466.047 75.982H467.699V75.142C467.699 73.9567 467.088 73.364 465.865 73.364C465.389 73.364 464.992 73.4667 464.675 73.672C464.358 73.868 464.101 74.1527 463.905 74.526L463.401 74.106C463.597 73.686 463.896 73.3407 464.297 73.07C464.708 72.7993 465.24 72.664 465.893 72.664C466.733 72.664 467.377 72.874 467.825 73.294C468.273 73.714 468.497 74.302 468.497 75.058V79.3H469.463V80H468.651ZM465.613 79.482C465.902 79.482 466.173 79.4447 466.425 79.37C466.677 79.2953 466.896 79.1927 467.083 79.062C467.279 78.922 467.428 78.7587 467.531 78.572C467.643 78.376 467.699 78.1567 467.699 77.914V76.584H466.019C465.3 76.584 464.778 76.7007 464.451 76.934C464.134 77.158 463.975 77.4707 463.975 77.872V78.208C463.975 78.628 464.124 78.9453 464.423 79.16C464.722 79.3747 465.118 79.482 465.613 79.482ZM471.442 73.532H470.21V72.832H471.442V70.83C471.442 70.466 471.53 70.1767 471.708 69.962C471.894 69.7473 472.179 69.64 472.562 69.64H473.822V70.34H472.24V72.832H473.822V73.532H472.24V80H471.442V73.532ZM475.762 73.532H474.53V72.832H475.762V70.83C475.762 70.466 475.851 70.1767 476.028 69.962C476.215 69.7473 476.499 69.64 476.882 69.64H478.142V70.34H476.56V72.832H480.452V80H479.654V73.532H476.56V80H475.762V73.532ZM480.06 70.886C479.864 70.886 479.724 70.8393 479.64 70.746C479.556 70.6527 479.514 70.5313 479.514 70.382V70.242C479.514 70.0927 479.556 69.9713 479.64 69.878C479.724 69.7847 479.864 69.738 480.06 69.738C480.247 69.738 480.382 69.7847 480.466 69.878C480.559 69.9713 480.606 70.0927 480.606 70.242V70.382C480.606 70.5313 480.559 70.6527 480.466 70.746C480.382 70.8393 480.247 70.886 480.06 70.886ZM485.589 80.168C484.599 80.168 483.834 79.8413 483.293 79.188C482.761 78.5347 482.495 77.6107 482.495 76.416C482.495 75.2213 482.761 74.2973 483.293 73.644C483.834 72.9907 484.599 72.664 485.589 72.664C486.251 72.664 486.788 72.8087 487.199 73.098C487.609 73.3873 487.922 73.77 488.137 74.246L487.465 74.582C487.297 74.19 487.059 73.8913 486.751 73.686C486.452 73.4807 486.065 73.378 485.589 73.378C484.861 73.378 484.305 73.6113 483.923 74.078C483.54 74.5447 483.349 75.156 483.349 75.912V76.92C483.349 77.676 483.54 78.2873 483.923 78.754C484.305 79.2207 484.861 79.454 485.589 79.454C486.083 79.454 486.499 79.3467 486.835 79.132C487.171 78.9173 487.441 78.6093 487.647 78.208L488.235 78.6C488.001 79.076 487.665 79.4587 487.227 79.748C486.797 80.028 486.251 80.168 485.589 80.168Z" fill="#EFEFEF"/>
<path d="M593.053 80L589.777 70.228H590.687L593.571 79.146H593.627L596.539 70.228H597.421L594.117 80H593.053ZM601.194 80.168C600.718 80.168 600.284 80.084 599.892 79.916C599.509 79.748 599.178 79.5053 598.898 79.188C598.627 78.8613 598.417 78.4647 598.268 77.998C598.128 77.5313 598.058 77.004 598.058 76.416C598.058 75.828 598.128 75.3053 598.268 74.848C598.417 74.3813 598.627 73.9893 598.898 73.672C599.178 73.3453 599.509 73.098 599.892 72.93C600.275 72.7527 600.704 72.664 601.18 72.664C601.637 72.664 602.053 72.7527 602.426 72.93C602.799 73.098 603.117 73.336 603.378 73.644C603.639 73.952 603.84 74.3253 603.98 74.764C604.129 75.1933 604.204 75.6693 604.204 76.192V76.57H598.898V76.92C598.898 77.2933 598.949 77.6387 599.052 77.956C599.164 78.264 599.318 78.53 599.514 78.754C599.719 78.978 599.967 79.1553 600.256 79.286C600.545 79.4073 600.872 79.468 601.236 79.468C602.281 79.468 603.005 78.9873 603.406 78.026L603.994 78.418C603.77 78.95 603.415 79.3747 602.93 79.692C602.454 80.0093 601.875 80.168 601.194 80.168ZM601.18 73.336C600.835 73.336 600.522 73.4013 600.242 73.532C599.962 73.6533 599.719 73.826 599.514 74.05C599.318 74.274 599.164 74.5447 599.052 74.862C598.949 75.17 598.898 75.5107 598.898 75.884V75.954H603.336V75.842C603.336 75.4687 603.285 75.128 603.182 74.82C603.079 74.5027 602.93 74.2367 602.734 74.022C602.547 73.8073 602.319 73.6393 602.048 73.518C601.787 73.3967 601.497 73.336 601.18 73.336ZM606.234 80V72.832H607.032V74.12H607.088C607.228 73.784 607.466 73.4853 607.802 73.224C608.138 72.9627 608.614 72.832 609.23 72.832H609.706V73.616H609.076C608.478 73.616 607.988 73.7467 607.606 74.008C607.223 74.2693 607.032 74.6333 607.032 75.1V80H606.234ZM615.713 72.832H616.525L613.207 82.016C613.095 82.3147 612.96 82.52 612.801 82.632C612.642 82.744 612.381 82.8 612.017 82.8H611.205V82.1H612.409L613.095 80.21L610.435 72.832H611.275L613.473 79.146H613.529L615.713 72.832ZM627.723 75.408H622.361V80H621.521V70.228H622.361V74.666H627.723V70.228H628.563V80H627.723V75.408ZM631.645 70.886C631.459 70.886 631.319 70.8393 631.225 70.746C631.141 70.6527 631.099 70.5313 631.099 70.382V70.242C631.099 70.0927 631.141 69.9713 631.225 69.878C631.319 69.7847 631.459 69.738 631.645 69.738C631.832 69.738 631.967 69.7847 632.051 69.878C632.145 69.9713 632.191 70.0927 632.191 70.242V70.382C632.191 70.5313 632.145 70.6527 632.051 70.746C631.967 70.8393 631.832 70.886 631.645 70.886ZM631.253 72.832H632.051V80H631.253V72.832ZM640.537 80.84C640.537 81.568 640.243 82.1047 639.655 82.45C639.077 82.7953 638.223 82.968 637.093 82.968C636.001 82.968 635.213 82.8093 634.727 82.492C634.242 82.1747 633.999 81.736 633.999 81.176C633.999 80.7653 634.107 80.4387 634.321 80.196C634.536 79.9533 634.839 79.776 635.231 79.664V79.552C634.783 79.3747 634.559 79.048 634.559 78.572C634.559 78.2173 634.676 77.9467 634.909 77.76C635.143 77.5733 635.432 77.4333 635.777 77.34V77.284C635.357 77.0973 635.031 76.8173 634.797 76.444C634.564 76.0707 634.447 75.6227 634.447 75.1C634.447 74.736 634.508 74.4047 634.629 74.106C634.751 73.8073 634.923 73.5507 635.147 73.336C635.381 73.1213 635.656 72.958 635.973 72.846C636.3 72.7247 636.659 72.664 637.051 72.664C637.602 72.664 638.083 72.7807 638.493 73.014V72.664C638.493 72.4493 638.545 72.2767 638.647 72.146C638.75 72.006 638.918 71.936 639.151 71.936H640.383V72.636H638.927V73.322C639.17 73.5367 639.357 73.798 639.487 74.106C639.618 74.4047 639.683 74.736 639.683 75.1C639.683 75.464 639.618 75.7953 639.487 76.094C639.366 76.3927 639.189 76.654 638.955 76.878C638.731 77.0927 638.456 77.2607 638.129 77.382C637.812 77.494 637.457 77.55 637.065 77.55C636.935 77.55 636.809 77.5407 636.687 77.522C636.566 77.5033 636.445 77.4847 636.323 77.466C636.015 77.55 635.759 77.6667 635.553 77.816C635.357 77.956 635.259 78.1473 635.259 78.39C635.259 78.8193 635.642 79.034 636.407 79.034H638.073C638.941 79.034 639.567 79.1973 639.949 79.524C640.341 79.8413 640.537 80.28 640.537 80.84ZM639.767 80.896C639.767 80.5507 639.641 80.2753 639.389 80.07C639.147 79.874 638.708 79.776 638.073 79.776H635.749C635.441 79.8787 635.199 80.0327 635.021 80.238C634.844 80.4433 634.755 80.7 634.755 81.008C634.755 81.3813 634.909 81.6893 635.217 81.932C635.525 82.184 635.992 82.31 636.617 82.31H637.513C638.213 82.31 638.764 82.1933 639.165 81.96C639.567 81.736 639.767 81.3813 639.767 80.896ZM637.065 76.906C637.616 76.906 638.045 76.7707 638.353 76.5C638.671 76.22 638.829 75.828 638.829 75.324V74.876C638.829 74.3813 638.671 73.9987 638.353 73.728C638.045 73.448 637.616 73.308 637.065 73.308C636.505 73.308 636.071 73.448 635.763 73.728C635.455 73.9987 635.301 74.3813 635.301 74.876V75.324C635.301 75.828 635.455 76.22 635.763 76.5C636.081 76.7707 636.515 76.906 637.065 76.906ZM642.068 69.64H642.866V73.966H642.908C643.066 73.5927 643.314 73.2847 643.65 73.042C643.986 72.79 644.443 72.664 645.022 72.664C645.787 72.664 646.38 72.902 646.8 73.378C647.229 73.8447 647.444 74.5167 647.444 75.394V80H646.646V75.534C646.646 74.806 646.487 74.2647 646.17 73.91C645.862 73.5553 645.409 73.378 644.812 73.378C644.56 73.378 644.317 73.4107 644.084 73.476C643.85 73.5413 643.64 73.6393 643.454 73.77C643.276 73.9007 643.132 74.0687 643.02 74.274C642.917 74.47 642.866 74.6987 642.866 74.96V80H642.068V69.64ZM656.359 70.97V80H655.519V70.97H652.243V70.228H659.635V70.97H656.359ZM660.593 80V72.832H661.391V74.12H661.447C661.587 73.784 661.825 73.4853 662.161 73.224C662.497 72.9627 662.973 72.832 663.589 72.832H664.065V73.616H663.435C662.838 73.616 662.348 73.7467 661.965 74.008C661.582 74.2693 661.391 74.6333 661.391 75.1V80H660.593ZM670.498 80C670.19 80 669.966 79.9207 669.826 79.762C669.686 79.6033 669.606 79.3887 669.588 79.118V78.866H669.518C669.359 79.2673 669.098 79.5847 668.734 79.818C668.37 80.0513 667.908 80.168 667.348 80.168C666.592 80.168 666.008 79.986 665.598 79.622C665.187 79.2487 664.982 78.726 664.982 78.054C664.982 77.4193 665.206 76.9153 665.654 76.542C666.111 76.1687 666.858 75.982 667.894 75.982H669.546V75.142C669.546 73.9567 668.934 73.364 667.712 73.364C667.236 73.364 666.839 73.4667 666.522 73.672C666.204 73.868 665.948 74.1527 665.752 74.526L665.248 74.106C665.444 73.686 665.742 73.3407 666.144 73.07C666.554 72.7993 667.086 72.664 667.74 72.664C668.58 72.664 669.224 72.874 669.672 73.294C670.12 73.714 670.344 74.302 670.344 75.058V79.3H671.31V80H670.498ZM667.46 79.482C667.749 79.482 668.02 79.4447 668.272 79.37C668.524 79.2953 668.743 79.1927 668.93 79.062C669.126 78.922 669.275 78.7587 669.378 78.572C669.49 78.376 669.546 78.1567 669.546 77.914V76.584H667.866C667.147 76.584 666.624 76.7007 666.298 76.934C665.98 77.158 665.822 77.4707 665.822 77.872V78.208C665.822 78.628 665.971 78.9453 666.27 79.16C666.568 79.3747 666.965 79.482 667.46 79.482ZM673.288 73.532H672.056V72.832H673.288V70.83C673.288 70.466 673.377 70.1767 673.554 69.962C673.741 69.7473 674.026 69.64 674.408 69.64H675.668V70.34H674.086V72.832H675.668V73.532H674.086V80H673.288V73.532ZM677.609 73.532H676.377V72.832H677.609V70.83C677.609 70.466 677.697 70.1767 677.875 69.962C678.061 69.7473 678.346 69.64 678.729 69.64H679.989V70.34H678.407V72.832H682.299V80H681.501V73.532H678.407V80H677.609V73.532ZM681.907 70.886C681.711 70.886 681.571 70.8393 681.487 70.746C681.403 70.6527 681.361 70.5313 681.361 70.382V70.242C681.361 70.0927 681.403 69.9713 681.487 69.878C681.571 69.7847 681.711 69.738 681.907 69.738C682.093 69.738 682.229 69.7847 682.313 69.878C682.406 69.9713 682.453 70.0927 682.453 70.242V70.382C682.453 70.5313 682.406 70.6527 682.313 70.746C682.229 70.8393 682.093 70.886 681.907 70.886ZM687.435 80.168C686.446 80.168 685.681 79.8413 685.139 79.188C684.607 78.5347 684.341 77.6107 684.341 76.416C684.341 75.2213 684.607 74.2973 685.139 73.644C685.681 72.9907 686.446 72.664 687.435 72.664C688.098 72.664 688.635 72.8087 689.045 73.098C689.456 73.3873 689.769 73.77 689.983 74.246L689.311 74.582C689.143 74.19 688.905 73.8913 688.597 73.686C688.299 73.4807 687.911 73.378 687.435 73.378C686.707 73.378 686.152 73.6113 685.769 74.078C685.387 74.5447 685.195 75.156 685.195 75.912V76.92C685.195 77.676 685.387 78.2873 685.769 78.754C686.152 79.2207 686.707 79.454 687.435 79.454C687.93 79.454 688.345 79.3467 688.681 79.132C689.017 78.9173 689.288 78.6093 689.493 78.208L690.081 78.6C689.848 79.076 689.512 79.4587 689.073 79.748C688.644 80.028 688.098 80.168 687.435 80.168Z" fill="#EFEFEF"/>
<rect x="1" y="5" width="690" height="29" fill="url(#paint0_linear)"/>
<rect x="652" y="1" width="38" height="38" fill="#033C63" stroke="white" stroke-width="0.5"/>
<rect x="435" y="1" width="38" height="38" fill="#087FA5" stroke="white" stroke-width="0.5"/>
<rect x="218" y="1" width="38" height="38" fill="#14CDCF" stroke="white" stroke-width="0.5"/>
<rect x="1" y="1" width="38" height="38" fill="#8EF4F4" stroke="white" stroke-width="0.521825"/>
<path d="M20.0967 48L25.3766 57.1451H14.8168L20.0967 48Z" fill="#EFEFEF"/>
<path d="M237.097 48L242.377 57.1451H231.817L237.097 48Z" fill="#EFEFEF"/>
<path d="M454.097 48L459.377 57.1451H448.817L454.097 48Z" fill="#EFEFEF"/>
<path d="M672.097 48L677.377 57.1451H666.817L672.097 48Z" fill="#EFEFEF"/>
<defs>
<linearGradient id="paint0_linear" x1="0.999998" y1="20.0001" x2="691" y2="20" gradientUnits="userSpaceOnUse">
<stop stop-color="#8EF4F4"/>
<stop offset="0.341667" stop-color="#14CDCF"/>
<stop offset="0.664583" stop-color="#087FA5"/>
<stop offset="1" stop-color="#033C63"/>
</linearGradient>
</defs>
</svg>
