<svg width="417" height="475" viewBox="0 0 417 475" fill="none" xmlns="http://www.w3.org/2000/svg">
<circle cx="131.258" cy="262.888" r="130.508" fill="#EFEFEF" fill-opacity="0.05" stroke="#EFEFEF" stroke-width="1.5"/>
<circle cx="264.742" cy="262.888" r="130.508" fill="#EFEFEF" fill-opacity="0.05" stroke="#EFEFEF" stroke-width="1.5"/>
<circle cx="200.225" cy="131.258" r="130.508" fill="#EFEFEF" fill-opacity="0.05" stroke="#EFEFEF" stroke-width="1.5"/>
<path fill-rule="evenodd" clip-rule="evenodd" d="M135 245.145C140.432 204.452 164.508 169.656 198.356 149.629C232.842 170.033 257.184 205.768 261.999 247.45C243.674 257.171 222.77 262.677 200.581 262.677C176.693 262.677 154.295 256.296 135 245.145Z" fill="#EFEFEF" fill-opacity="0.9"/>
<path d="M303.78 277.34C304.2 277.34 304.28 276.64 304.76 276.64C305.22 276.64 306.5 277.28 308.54 277.28C311.42 277.28 313.4 275.78 313.4 273.36C313.4 270.32 310.7 269.42 308.02 268.6C305.3 267.76 303.68 267.26 303.68 265.64C303.68 264.4 304.7 263.6 306.2 263.6C308.04 263.6 309.56 264.34 311.1 265.92C311.34 266.16 311.56 266.38 311.78 266.38C311.96 266.38 312.1 266.22 312.1 266.06C312.1 265.86 311.98 265.52 311.34 264.44L310.78 263.5C310.42 262.9 310.2 262.54 309.92 262.54C309.48 262.54 309.54 263.1 309.06 263.1C308.62 263.1 307.74 262.6 306.1 262.6C303.78 262.6 302.2 264.08 302.2 265.86C302.2 268.58 304.94 269.34 307.56 270.12C310.2 270.92 311.88 271.54 311.88 273.52C311.88 275.2 310.64 276.28 308.38 276.28C306.04 276.28 304.26 275.08 302.68 273.38C302.54 273.24 302.24 272.92 302 272.92C301.82 272.92 301.64 273.08 301.64 273.3C301.64 273.62 301.82 273.82 302.36 275L303.1 276.6C303.32 277.08 303.5 277.34 303.78 277.34ZM319.709 277.34C322.689 277.34 324.929 275.1 324.929 272.08C324.929 268.98 322.789 266.88 319.889 266.88C316.909 266.88 314.669 269.12 314.669 272.16C314.669 275.24 316.809 277.34 319.709 277.34ZM320.089 276.4C317.809 276.4 316.169 274.14 316.169 271.48C316.169 269.46 317.469 267.82 319.509 267.82C321.789 267.82 323.429 270.08 323.429 272.76C323.429 274.76 322.129 276.4 320.089 276.4ZM331.068 277.34C332.668 277.34 334.228 276.52 334.848 275.48C334.948 275.3 335.028 275.12 335.028 274.96C335.028 274.68 334.868 274.54 334.668 274.54C334.508 274.54 334.368 274.64 334.208 274.86C333.528 275.78 332.608 276.2 331.608 276.2C329.508 276.2 327.908 274.3 327.908 271.8C327.908 269.4 329.188 267.8 330.908 267.8C332.388 267.8 332.928 268.74 333.208 270.26C333.268 270.64 333.388 270.82 333.608 270.82C333.808 270.82 333.928 270.68 334.088 270.46C334.608 269.7 334.768 269.12 334.768 268.76C334.768 268.02 333.148 266.88 331.248 266.88C328.528 266.88 326.388 269.08 326.388 272.24C326.388 275.56 328.588 277.34 331.068 277.34ZM337.752 264.68C338.632 264.68 339.332 263.92 339.332 263.24C339.332 262.64 338.872 262.3 338.352 262.3C337.472 262.3 336.812 263.08 336.812 263.76C336.812 264.38 337.312 264.68 337.752 264.68ZM336.672 277.06C337.092 277.06 337.672 277 338.272 277C338.892 277 339.512 277.06 339.932 277.06C340.172 277.06 340.292 276.86 340.292 276.7C340.292 275.98 338.972 276.6 338.972 274.94V267.7C338.972 267.3 338.872 267.08 338.612 267.08C338.452 267.08 338.252 267.14 337.332 267.6C336.412 268.06 336.112 268.28 336.112 268.56C336.112 269.3 337.572 268.58 337.572 269.8V274.94C337.572 276.6 336.272 275.98 336.272 276.7C336.272 276.86 336.392 277.06 336.672 277.06ZM351.324 276.08C350.324 275.9 349.884 275.76 349.664 274.2L349.164 270.8C348.884 268.94 348.464 267.02 345.844 267.02C344.404 267.02 342.924 267.88 342.304 268.84C342.144 269.08 342.104 269.2 342.104 269.34C342.104 269.56 342.284 269.7 342.464 269.7C342.584 269.7 342.704 269.64 342.864 269.48C343.624 268.74 344.464 268.22 345.364 268.22C346.744 268.22 347.524 268.9 347.864 271.3L347.904 271.58C347.124 271.34 346.344 271.16 345.484 271.16C342.984 271.16 341.464 272.54 341.464 274.28C341.464 276 342.804 277.22 344.824 277.22C346.384 277.22 347.684 276.54 348.464 275.56C348.744 276.68 349.404 277.16 350.204 277.16C350.924 277.16 351.624 276.68 351.624 276.36C351.624 276.22 351.544 276.12 351.324 276.08ZM345.204 276.2C343.864 276.2 342.984 275.34 342.984 274.16C342.984 272.92 343.884 272.08 345.684 272.08C346.444 272.08 347.264 272.24 348.044 272.54L348.304 274.48C347.704 275.4 346.484 276.2 345.204 276.2ZM352.429 277.06C352.849 277.06 353.429 277 354.029 277C354.649 277 355.269 277.06 355.689 277.06C355.929 277.06 356.049 276.86 356.049 276.7C356.049 275.98 354.729 276.6 354.729 274.94V262.54C354.729 262.14 354.629 261.92 354.369 261.92C354.209 261.92 354.009 261.98 353.089 262.44C352.169 262.9 351.869 263.12 351.869 263.4C351.869 264.14 353.329 263.42 353.329 264.64V274.94C353.329 276.6 352.029 275.98 352.029 276.7C352.029 276.86 352.149 277.06 352.429 277.06Z" fill="white"/>
<path d="M141.82 95.24C141.6 95.24 141.46 95.42 141.2 95.7C139.84 97.16 139.02 98.08 137.28 98.08H134.58C133.04 98.08 132.88 97.86 132.88 97.1V92.7C132.88 92.4 132.98 92.28 133.42 92.28H135.76C137.06 92.28 136.92 93.8 137.58 93.8C137.78 93.8 137.94 93.68 137.94 93.3C137.94 92.86 137.88 92.34 137.88 91.82C137.88 91.3 137.94 90.8 137.94 90.34C137.94 89.96 137.78 89.84 137.58 89.84C136.92 89.84 137.06 91.36 135.76 91.36H133.42C132.98 91.36 132.88 91.24 132.88 90.94V86.78C132.88 86.06 133 85.8 134.58 85.8H136.42C138.06 85.8 138.82 86.56 140.2 88.04C140.46 88.32 140.62 88.48 140.84 88.48C141 88.48 141.18 88.36 141.18 88.12C141.18 87.9 141.06 87.58 140.68 86.82L140 85.44C139.64 84.72 139.46 84.48 139.14 84.48C138.74 84.48 138.72 84.88 138.22 84.88H132.08C131.48 84.88 130.72 84.82 130.46 84.82C130.08 84.82 129.96 84.96 129.96 85.18C129.96 85.92 131.32 85.4 131.32 86.72V97.16C131.32 98.48 129.96 97.96 129.96 98.7C129.96 98.92 130.08 99.06 130.46 99.06C130.72 99.06 131.48 99 132.08 99H139.02C139.6 99 139.64 99.4 140.12 99.4C140.42 99.4 140.64 99.08 140.84 98.66L141.62 97.04C142.06 96.14 142.18 95.84 142.18 95.58C142.18 95.38 142 95.24 141.82 95.24ZM152.777 96.74L152.257 93C152.057 91.54 151.597 89.02 149.097 89.02C147.597 89.02 146.597 89.9 145.937 90.94V89.7C145.937 89.3 145.837 89.08 145.577 89.08C145.417 89.08 145.217 89.14 144.297 89.6C143.377 90.06 143.077 90.28 143.077 90.56C143.077 91.3 144.537 90.58 144.537 91.8V96.94C144.537 98.6 143.237 97.98 143.237 98.7C143.237 98.86 143.357 99.06 143.637 99.06C144.057 99.06 144.637 99 145.237 99C145.857 99 146.477 99.06 146.897 99.06C147.137 99.06 147.257 98.86 147.257 98.7C147.257 97.98 145.937 98.6 145.937 96.94L145.937 93.4C145.937 91.34 147.337 90.28 148.637 90.28C150.357 90.28 150.697 92.18 150.837 93.1L151.357 96.74C151.377 96.88 151.397 97.1 151.397 97.22C151.397 98.52 149.997 97.98 149.997 98.68C149.997 98.92 150.197 99.06 150.497 99.06C151.057 99.06 151.377 99 152.137 99C152.857 99 153.257 99.06 153.797 99.06C154.057 99.06 154.277 98.96 154.277 98.7C154.277 97.94 153.037 98.66 152.777 96.74ZM164.089 89.16C163.569 89.16 163.089 89.22 162.529 89.22C162.009 89.22 161.469 89.16 161.069 89.16C160.809 89.16 160.629 89.26 160.629 89.52C160.629 90.16 161.909 89.9 161.909 90.72C161.909 91 161.769 91.34 161.569 91.86L159.329 97.56L157.029 91.86C156.809 91.34 156.729 90.92 156.729 90.8C156.729 89.88 157.949 90.16 157.949 89.52C157.949 89.26 157.769 89.16 157.509 89.16C157.109 89.16 156.549 89.22 155.889 89.22C155.109 89.22 154.609 89.16 154.089 89.16C153.849 89.16 153.669 89.26 153.669 89.48C153.669 90.08 154.709 89.9 155.129 90.92L158.329 98.54C158.509 98.98 158.689 99.08 159.089 99.08C159.469 99.08 159.669 99 159.849 98.56L163.049 90.88C163.449 89.9 164.509 90.08 164.509 89.48C164.509 89.26 164.329 89.16 164.089 89.16ZM166.807 86.68C167.687 86.68 168.387 85.92 168.387 85.24C168.387 84.64 167.927 84.3 167.407 84.3C166.527 84.3 165.867 85.08 165.867 85.76C165.867 86.38 166.367 86.68 166.807 86.68ZM165.727 99.06C166.147 99.06 166.727 99 167.327 99C167.947 99 168.567 99.06 168.987 99.06C169.227 99.06 169.347 98.86 169.347 98.7C169.347 97.98 168.027 98.6 168.027 96.94V89.7C168.027 89.3 167.927 89.08 167.667 89.08C167.507 89.08 167.307 89.14 166.387 89.6C165.467 90.06 165.167 90.28 165.167 90.56C165.167 91.3 166.627 90.58 166.627 91.8V96.94C166.627 98.6 165.327 97.98 165.327 98.7C165.327 98.86 165.447 99.06 165.727 99.06ZM176.918 89C175.518 89 174.098 90.1 173.378 91.84V89.7C173.378 89.3 173.278 89.08 173.018 89.08C172.858 89.08 172.658 89.14 171.738 89.6C170.818 90.06 170.518 90.28 170.518 90.56C170.518 91.3 171.978 90.58 171.978 91.8V96.94C171.978 98.6 170.678 97.98 170.678 98.7C170.678 98.86 170.798 99.06 171.078 99.06C171.498 99.06 172.078 99 172.678 99C173.378 99 174.118 99.06 174.598 99.06C174.838 99.06 174.958 98.86 174.958 98.7C174.958 97.92 173.378 98.6 173.378 96.94V95.02C173.378 92.08 175.178 90.38 176.178 90.38C176.558 90.38 176.798 90.64 177.018 91.22C177.138 91.54 177.218 91.76 177.478 91.76C177.738 91.76 177.858 91.56 177.938 91.24C178.138 90.42 178.198 90 178.198 89.76C178.198 89.34 177.678 89 176.918 89ZM183.959 99.34C186.939 99.34 189.179 97.1 189.179 94.08C189.179 90.98 187.039 88.88 184.139 88.88C181.159 88.88 178.919 91.12 178.919 94.16C178.919 97.24 181.059 99.34 183.959 99.34ZM184.339 98.4C182.059 98.4 180.419 96.14 180.419 93.48C180.419 91.46 181.719 89.82 183.759 89.82C186.039 89.82 187.679 92.08 187.679 94.76C187.679 96.76 186.379 98.4 184.339 98.4ZM200.218 96.74L199.698 93C199.498 91.54 199.038 89.02 196.538 89.02C195.038 89.02 194.038 89.9 193.378 90.94V89.7C193.378 89.3 193.278 89.08 193.018 89.08C192.858 89.08 192.658 89.14 191.738 89.6C190.818 90.06 190.518 90.28 190.518 90.56C190.518 91.3 191.978 90.58 191.978 91.8V96.94C191.978 98.6 190.678 97.98 190.678 98.7C190.678 98.86 190.798 99.06 191.078 99.06C191.498 99.06 192.078 99 192.678 99C193.298 99 193.918 99.06 194.338 99.06C194.578 99.06 194.698 98.86 194.698 98.7C194.698 97.98 193.378 98.6 193.378 96.94V93.4C193.378 91.34 194.778 90.28 196.078 90.28C197.798 90.28 198.138 92.18 198.278 93.1L198.798 96.74C198.818 96.88 198.838 97.1 198.838 97.22C198.838 98.52 197.438 97.98 197.438 98.68C197.438 98.92 197.638 99.06 197.938 99.06C198.498 99.06 198.818 99 199.578 99C200.298 99 200.698 99.06 201.238 99.06C201.498 99.06 201.718 98.96 201.718 98.7C201.718 97.94 200.478 98.66 200.218 96.74ZM217.615 96.74L217.075 93C216.815 91.22 216.295 89.02 213.935 89.02C212.415 89.02 211.455 89.88 210.895 90.98C210.535 89.92 209.775 89.02 208.295 89.02C206.835 89.02 205.835 89.9 205.195 90.94V89.7C205.195 89.34 205.115 89.08 204.835 89.08C204.655 89.08 204.475 89.12 203.535 89.6C202.635 90.06 202.335 90.28 202.335 90.56C202.335 91.3 203.795 90.58 203.795 91.8V96.94C203.795 98.6 202.495 97.98 202.495 98.7C202.495 98.86 202.635 99.06 202.895 99.06C203.335 99.06 203.895 99 204.495 99C205.135 99 205.735 99.06 206.155 99.06C206.395 99.06 206.515 98.86 206.515 98.7C206.515 97.98 205.195 98.6 205.195 96.94V93.36C205.195 91.3 206.575 90.28 207.855 90.28C209.555 90.28 209.795 92 209.795 93.1V96.94C209.795 98.6 208.495 97.98 208.495 98.7C208.495 98.86 208.635 99.06 208.915 99.06C209.335 99.06 209.875 99 210.495 99C211.115 99 211.715 99.06 212.135 99.06C212.375 99.06 212.515 98.86 212.515 98.7C212.515 97.98 211.195 98.6 211.195 96.94V93.18C211.195 91.22 212.355 90.28 213.615 90.28C215.275 90.28 215.515 92.02 215.675 93.1L216.215 96.74C216.235 96.88 216.255 97.08 216.255 97.22C216.255 98.52 214.855 97.98 214.855 98.68C214.855 98.92 215.075 99.06 215.355 99.06C215.935 99.06 216.195 99 216.975 99C217.715 99 218.075 99.06 218.635 99.06C218.895 99.06 219.135 98.96 219.135 98.72C219.135 97.94 217.895 98.66 217.615 96.74ZM228.518 96.6C228.358 96.6 228.198 96.7 228.058 96.88C227.438 97.62 226.378 98.2 225.138 98.2C223.438 98.2 222.078 96.96 221.558 95.18L228.098 93.24C228.378 93.16 228.478 93.02 228.478 92.66C228.478 90.7 226.858 88.88 224.558 88.88C222.018 88.88 219.818 91.06 219.818 94.14C219.818 97.52 222.118 99.34 224.718 99.34C226.238 99.34 227.938 98.56 228.698 97.5C228.838 97.3 228.898 97.14 228.898 97.02C228.898 96.76 228.698 96.6 228.518 96.6ZM224.338 89.9C225.858 89.9 226.838 91.2 226.838 92.2C226.838 92.54 226.758 92.64 226.398 92.74L221.358 94.28C221.338 94.04 221.318 93.78 221.318 93.52C221.318 91.36 222.638 89.9 224.338 89.9ZM239.73 96.74L239.21 93C239.01 91.54 238.55 89.02 236.05 89.02C234.55 89.02 233.55 89.9 232.89 90.94V89.7C232.89 89.3 232.79 89.08 232.53 89.08C232.37 89.08 232.17 89.14 231.25 89.6C230.33 90.06 230.03 90.28 230.03 90.56C230.03 91.3 231.49 90.58 231.49 91.8V96.94C231.49 98.6 230.19 97.98 230.19 98.7C230.19 98.86 230.31 99.06 230.59 99.06C231.01 99.06 231.59 99 232.19 99C232.81 99 233.43 99.06 233.85 99.06C234.09 99.06 234.21 98.86 234.21 98.7C234.21 97.98 232.89 98.6 232.89 96.94V93.4C232.89 91.34 234.29 90.28 235.59 90.28C237.31 90.28 237.65 92.18 237.79 93.1L238.31 96.74C238.33 96.88 238.35 97.1 238.35 97.22C238.35 98.52 236.95 97.98 236.95 98.68C236.95 98.92 237.15 99.06 237.45 99.06C238.01 99.06 238.33 99 239.09 99C239.81 99 240.21 99.06 240.75 99.06C241.01 99.06 241.23 98.96 241.23 98.7C241.23 97.94 239.99 98.66 239.73 96.74ZM248.387 97C248.227 97 248.067 97.12 247.947 97.24C247.567 97.58 247.047 98.14 246.127 98.14C245.247 98.14 244.667 97.68 244.667 96.22V90.16H248.187C248.367 90.16 248.467 90.08 248.507 89.88C248.527 89.78 248.567 89.6 248.567 89.46C248.567 89.32 248.467 89.24 248.267 89.24H244.667V85.92C244.667 85.6 244.527 85.46 244.347 85.46C244.067 85.46 243.967 85.68 243.887 86.12C243.487 88.08 242.987 88.84 241.807 89.28C241.527 89.38 241.347 89.52 241.347 89.76C241.347 90.02 241.547 90.16 241.867 90.16H243.267V94.08C243.267 95.46 243.227 97 243.227 97.42C243.227 98.4 244.227 99.22 245.727 99.22C246.687 99.22 247.667 98.88 248.387 98.12C248.647 97.84 248.767 97.62 248.767 97.4C248.767 97.18 248.607 97 248.387 97ZM259.343 98.08C258.343 97.9 257.903 97.76 257.683 96.2L257.183 92.8C256.903 90.94 256.483 89.02 253.863 89.02C252.423 89.02 250.943 89.88 250.323 90.84C250.163 91.08 250.123 91.2 250.123 91.34C250.123 91.56 250.303 91.7 250.483 91.7C250.603 91.7 250.723 91.64 250.883 91.48C251.643 90.74 252.483 90.22 253.383 90.22C254.763 90.22 255.543 90.9 255.883 93.3L255.923 93.58C255.143 93.34 254.363 93.16 253.503 93.16C251.003 93.16 249.483 94.54 249.483 96.28C249.483 98 250.823 99.22 252.843 99.22C254.403 99.22 255.703 98.54 256.483 97.56C256.763 98.68 257.423 99.16 258.223 99.16C258.943 99.16 259.643 98.68 259.643 98.36C259.643 98.22 259.563 98.12 259.343 98.08ZM253.223 98.2C251.883 98.2 251.003 97.34 251.003 96.16C251.003 94.92 251.903 94.08 253.703 94.08C254.463 94.08 255.283 94.24 256.063 94.54L256.323 96.48C255.723 97.4 254.503 98.2 253.223 98.2ZM260.449 99.06C260.869 99.06 261.449 99 262.049 99C262.669 99 263.289 99.06 263.709 99.06C263.949 99.06 264.069 98.86 264.069 98.7C264.069 97.98 262.749 98.6 262.749 96.94V84.54C262.749 84.14 262.649 83.92 262.389 83.92C262.229 83.92 262.029 83.98 261.109 84.44C260.189 84.9 259.889 85.12 259.889 85.4C259.889 86.14 261.349 85.42 261.349 86.64V96.94C261.349 98.6 260.049 97.98 260.049 98.7C260.049 98.86 260.169 99.06 260.449 99.06Z" fill="white"/>
<path d="M161.422 431.688C163.03 431.208 164.134 429.912 164.134 428.184C164.134 425.376 161.518 423.984 157.846 423.984C156.022 423.984 154.774 424.056 153.622 424.056C152.902 424.056 151.99 423.984 151.678 423.984C151.222 423.984 151.078 424.152 151.078 424.416C151.078 425.304 152.71 424.68 152.71 426.264V438.792C152.71 440.376 151.078 439.752 151.078 440.64C151.078 440.904 151.222 441.072 151.678 441.072C151.99 441.072 152.902 441 153.622 441C154.366 441 156.094 441.072 158.518 441.072C163.126 441.072 165.526 439.008 165.526 436.224C165.526 433.584 163.606 432.192 161.422 431.688ZM154.582 426.408C154.582 425.472 154.966 425.112 156.91 425.112H157.606C160.702 425.112 162.07 426.264 162.07 428.28C162.07 430.2 160.918 431.28 158.134 431.28H155.23C154.702 431.28 154.582 431.136 154.582 430.776V426.408ZM158.278 439.944H156.862C155.014 439.944 154.582 439.632 154.582 438.648V432.888C154.582 432.528 154.702 432.384 155.23 432.384H158.206C161.83 432.384 163.438 433.992 163.438 436.296C163.438 438.672 161.494 439.944 158.278 439.944ZM178.425 438.12V429.84C178.425 429.456 178.377 429.096 177.993 429.096C177.825 429.096 177.441 429.168 176.409 429.552C174.993 430.08 174.609 430.32 174.609 430.656C174.609 431.544 176.745 430.896 176.745 432.336V436.056C176.745 438.504 174.945 439.848 173.145 439.848C170.913 439.848 170.433 438.432 170.433 436.488V429.84C170.433 429.528 170.409 429.096 169.977 429.096C169.809 429.096 169.521 429.144 168.417 429.576C167.169 430.056 166.809 430.296 166.809 430.656C166.809 431.496 168.753 430.896 168.753 432.336V436.608C168.753 439.416 169.953 441.288 172.737 441.288C174.777 441.288 175.977 440.256 176.745 439.008V440.448C176.745 440.76 176.769 441.192 177.177 441.192C177.393 441.192 177.753 441.12 178.713 440.88C180.057 440.544 180.417 440.304 180.417 439.896C180.417 439.152 178.425 439.536 178.425 438.12ZM183.647 441.312C184.151 441.312 184.199 440.712 184.631 440.712C184.967 440.712 186.119 441.264 187.727 441.264C190.391 441.264 192.191 439.872 192.191 437.808C192.191 435.288 189.791 434.592 187.343 433.992C184.847 433.368 183.767 433.08 183.767 431.784C183.767 430.824 184.583 430.104 185.951 430.104C187.535 430.104 189.143 431.04 190.343 432.168C190.559 432.36 190.823 432.6 191.039 432.6C191.255 432.6 191.447 432.432 191.447 432.168C191.447 431.928 191.183 431.448 190.943 431.04L190.199 429.768C189.935 429.336 189.743 428.976 189.383 428.976C188.951 428.976 188.951 429.456 188.567 429.456C188.207 429.456 187.175 429.024 185.855 429.024C183.479 429.024 181.991 430.44 181.991 432.168C181.991 434.496 184.631 435.168 186.863 435.72C189.143 436.248 190.415 436.56 190.415 438.024C190.415 439.224 189.359 440.184 187.679 440.184C185.975 440.184 184.343 439.2 182.759 437.64C182.543 437.424 182.279 437.184 182.063 437.184C181.799 437.184 181.631 437.352 181.631 437.64C181.631 437.904 181.823 438.216 182.279 439.152L182.999 440.64C183.143 440.928 183.311 441.312 183.647 441.312ZM195.669 426.216C196.725 426.216 197.565 425.304 197.565 424.488C197.565 423.768 197.013 423.36 196.389 423.36C195.333 423.36 194.541 424.296 194.541 425.112C194.541 425.856 195.141 426.216 195.669 426.216ZM194.373 441.072C194.877 441.072 195.573 441 196.293 441C197.037 441 197.781 441.072 198.285 441.072C198.573 441.072 198.717 440.832 198.717 440.64C198.717 439.776 197.133 440.52 197.133 438.528V429.84C197.133 429.36 197.013 429.096 196.701 429.096C196.509 429.096 196.269 429.168 195.165 429.72C194.061 430.272 193.701 430.536 193.701 430.872C193.701 431.76 195.453 430.896 195.453 432.36V438.528C195.453 440.52 193.893 439.776 193.893 440.64C193.893 440.832 194.037 441.072 194.373 441.072ZM211.763 438.288L211.139 433.8C210.899 432.048 210.347 429.024 207.347 429.024C205.547 429.024 204.347 430.08 203.555 431.328V429.84C203.555 429.36 203.435 429.096 203.123 429.096C202.931 429.096 202.691 429.168 201.587 429.72C200.483 430.272 200.123 430.536 200.123 430.872C200.123 431.76 201.875 430.896 201.875 432.36V438.528C201.875 440.52 200.315 439.776 200.315 440.64C200.315 440.832 200.459 441.072 200.795 441.072C201.299 441.072 201.995 441 202.715 441C203.459 441 204.203 441.072 204.707 441.072C204.995 441.072 205.139 440.832 205.139 440.64C205.139 439.776 203.555 440.52 203.555 438.528V434.28C203.555 431.808 205.235 430.536 206.795 430.536C208.859 430.536 209.267 432.816 209.435 433.92L210.059 438.288C210.083 438.456 210.107 438.72 210.107 438.864C210.107 440.424 208.427 439.776 208.427 440.616C208.427 440.904 208.667 441.072 209.027 441.072C209.699 441.072 210.083 441 210.995 441C211.859 441 212.339 441.072 212.987 441.072C213.299 441.072 213.563 440.952 213.563 440.64C213.563 439.728 212.075 440.592 211.763 438.288ZM224.863 438.12C224.671 438.12 224.479 438.24 224.311 438.456C223.567 439.344 222.295 440.04 220.807 440.04C218.767 440.04 217.135 438.552 216.511 436.416L224.359 434.088C224.695 433.992 224.815 433.824 224.815 433.392C224.815 431.04 222.871 428.856 220.111 428.856C217.063 428.856 214.423 431.472 214.423 435.168C214.423 439.224 217.183 441.408 220.303 441.408C222.127 441.408 224.167 440.472 225.079 439.2C225.247 438.96 225.319 438.768 225.319 438.624C225.319 438.312 225.079 438.12 224.863 438.12ZM219.847 430.08C221.671 430.08 222.847 431.64 222.847 432.84C222.847 433.248 222.751 433.368 222.319 433.488L216.271 435.336C216.247 435.048 216.223 434.736 216.223 434.424C216.223 431.832 217.807 430.08 219.847 430.08ZM228.694 441.312C229.198 441.312 229.246 440.712 229.678 440.712C230.014 440.712 231.166 441.264 232.774 441.264C235.438 441.264 237.238 439.872 237.238 437.808C237.238 435.288 234.838 434.592 232.39 433.992C229.894 433.368 228.814 433.08 228.814 431.784C228.814 430.824 229.63 430.104 230.998 430.104C232.582 430.104 234.19 431.04 235.39 432.168C235.606 432.36 235.87 432.6 236.086 432.6C236.302 432.6 236.494 432.432 236.494 432.168C236.494 431.928 236.23 431.448 235.99 431.04L235.246 429.768C234.982 429.336 234.79 428.976 234.43 428.976C233.998 428.976 233.998 429.456 233.614 429.456C233.254 429.456 232.222 429.024 230.902 429.024C228.526 429.024 227.038 430.44 227.038 432.168C227.038 434.496 229.678 435.168 231.91 435.72C234.19 436.248 235.462 436.56 235.462 438.024C235.462 439.224 234.406 440.184 232.726 440.184C231.022 440.184 229.39 439.2 227.806 437.64C227.59 437.424 227.326 437.184 227.11 437.184C226.846 437.184 226.678 437.352 226.678 437.64C226.678 437.904 226.87 438.216 227.326 439.152L228.046 440.64C228.19 440.928 228.358 441.312 228.694 441.312ZM240.764 441.312C241.268 441.312 241.316 440.712 241.748 440.712C242.084 440.712 243.236 441.264 244.844 441.264C247.508 441.264 249.308 439.872 249.308 437.808C249.308 435.288 246.908 434.592 244.46 433.992C241.964 433.368 240.884 433.08 240.884 431.784C240.884 430.824 241.7 430.104 243.068 430.104C244.652 430.104 246.26 431.04 247.46 432.168C247.676 432.36 247.94 432.6 248.156 432.6C248.372 432.6 248.564 432.432 248.564 432.168C248.564 431.928 248.3 431.448 248.06 431.04L247.316 429.768C247.052 429.336 246.86 428.976 246.5 428.976C246.068 428.976 246.068 429.456 245.684 429.456C245.324 429.456 244.292 429.024 242.972 429.024C240.596 429.024 239.108 430.44 239.108 432.168C239.108 434.496 241.748 435.168 243.98 435.72C246.26 436.248 247.532 436.56 247.532 438.024C247.532 439.224 246.476 440.184 244.796 440.184C243.092 440.184 241.46 439.2 239.876 437.64C239.66 437.424 239.396 437.184 239.18 437.184C238.916 437.184 238.748 437.352 238.748 437.64C238.748 437.904 238.94 438.216 239.396 439.152L240.116 440.64C240.26 440.928 240.428 441.312 240.764 441.312ZM126.953 469.408C127.457 469.408 127.553 468.568 128.129 468.568C128.681 468.568 130.217 469.336 132.665 469.336C136.121 469.336 138.497 467.536 138.497 464.632C138.497 460.984 135.257 459.904 132.041 458.92C128.777 457.912 126.833 457.312 126.833 455.368C126.833 453.88 128.057 452.92 129.857 452.92C132.065 452.92 133.889 453.808 135.737 455.704C136.025 455.992 136.289 456.256 136.553 456.256C136.769 456.256 136.937 456.064 136.937 455.872C136.937 455.632 136.793 455.224 136.025 453.928L135.353 452.8C134.921 452.08 134.657 451.648 134.321 451.648C133.793 451.648 133.865 452.32 133.289 452.32C132.761 452.32 131.705 451.72 129.737 451.72C126.953 451.72 125.057 453.496 125.057 455.632C125.057 458.896 128.345 459.808 131.489 460.744C134.657 461.704 136.673 462.448 136.673 464.824C136.673 466.84 135.185 468.136 132.473 468.136C129.665 468.136 127.529 466.696 125.633 464.656C125.465 464.488 125.105 464.104 124.817 464.104C124.601 464.104 124.385 464.296 124.385 464.56C124.385 464.944 124.601 465.184 125.249 466.6L126.137 468.52C126.401 469.096 126.617 469.408 126.953 469.408ZM151.108 466.12V457.84C151.108 457.456 151.06 457.096 150.676 457.096C150.508 457.096 150.124 457.168 149.092 457.552C147.676 458.08 147.292 458.32 147.292 458.656C147.292 459.544 149.428 458.896 149.428 460.336V464.056C149.428 466.504 147.628 467.848 145.828 467.848C143.596 467.848 143.116 466.432 143.116 464.488V457.84C143.116 457.528 143.092 457.096 142.66 457.096C142.492 457.096 142.204 457.144 141.1 457.576C139.852 458.056 139.492 458.296 139.492 458.656C139.492 459.496 141.436 458.896 141.436 460.336V464.608C141.436 467.416 142.636 469.288 145.42 469.288C147.46 469.288 148.66 468.256 149.428 467.008V468.448C149.428 468.76 149.452 469.192 149.86 469.192C150.076 469.192 150.436 469.12 151.396 468.88C152.74 468.544 153.1 468.304 153.1 467.896C153.1 467.152 151.108 467.536 151.108 466.12ZM156.33 469.312C156.834 469.312 156.882 468.712 157.314 468.712C157.65 468.712 158.802 469.264 160.41 469.264C163.074 469.264 164.874 467.872 164.874 465.808C164.874 463.288 162.474 462.592 160.026 461.992C157.53 461.368 156.45 461.08 156.45 459.784C156.45 458.824 157.266 458.104 158.634 458.104C160.218 458.104 161.826 459.04 163.026 460.168C163.242 460.36 163.506 460.6 163.722 460.6C163.938 460.6 164.13 460.432 164.13 460.168C164.13 459.928 163.866 459.448 163.626 459.04L162.882 457.768C162.618 457.336 162.426 456.976 162.066 456.976C161.634 456.976 161.634 457.456 161.25 457.456C160.89 457.456 159.858 457.024 158.538 457.024C156.162 457.024 154.674 458.44 154.674 460.168C154.674 462.496 157.314 463.168 159.546 463.72C161.826 464.248 163.098 464.56 163.098 466.024C163.098 467.224 162.042 468.184 160.362 468.184C158.658 468.184 157.026 467.2 155.442 465.64C155.226 465.424 154.962 465.184 154.746 465.184C154.482 465.184 154.314 465.352 154.314 465.64C154.314 465.904 154.506 466.216 154.962 467.152L155.682 468.64C155.826 468.928 155.994 469.312 156.33 469.312ZM174.233 466.6C174.041 466.6 173.849 466.744 173.705 466.888C173.249 467.296 172.625 467.968 171.521 467.968C170.465 467.968 169.769 467.416 169.769 465.664V458.392H173.993C174.209 458.392 174.329 458.296 174.377 458.056C174.401 457.936 174.449 457.72 174.449 457.552C174.449 457.384 174.329 457.288 174.089 457.288H169.769V453.304C169.769 452.92 169.601 452.752 169.385 452.752C169.049 452.752 168.929 453.016 168.833 453.544C168.353 455.896 167.753 456.808 166.337 457.336C166.001 457.456 165.785 457.624 165.785 457.912C165.785 458.224 166.025 458.392 166.409 458.392H168.089V463.096C168.089 464.752 168.041 466.6 168.041 467.104C168.041 468.28 169.241 469.264 171.041 469.264C172.193 469.264 173.369 468.856 174.233 467.944C174.545 467.608 174.689 467.344 174.689 467.08C174.689 466.816 174.497 466.6 174.233 466.6ZM187.381 467.896C186.181 467.68 185.653 467.512 185.389 465.64L184.789 461.56C184.453 459.328 183.949 457.024 180.805 457.024C179.077 457.024 177.301 458.056 176.557 459.208C176.365 459.496 176.317 459.64 176.317 459.808C176.317 460.072 176.533 460.24 176.749 460.24C176.893 460.24 177.037 460.168 177.229 459.976C178.141 459.088 179.149 458.464 180.229 458.464C181.885 458.464 182.821 459.28 183.229 462.16L183.277 462.496C182.341 462.208 181.405 461.992 180.373 461.992C177.373 461.992 175.549 463.648 175.549 465.736C175.549 467.8 177.157 469.264 179.581 469.264C181.453 469.264 183.013 468.448 183.949 467.272C184.285 468.616 185.077 469.192 186.037 469.192C186.901 469.192 187.741 468.616 187.741 468.232C187.741 468.064 187.645 467.944 187.381 467.896ZM180.037 468.04C178.429 468.04 177.373 467.008 177.373 465.592C177.373 464.104 178.453 463.096 180.613 463.096C181.525 463.096 182.509 463.288 183.445 463.648L183.757 465.976C183.037 467.08 181.573 468.04 180.037 468.04ZM190.243 454.216C191.299 454.216 192.139 453.304 192.139 452.488C192.139 451.768 191.587 451.36 190.963 451.36C189.907 451.36 189.115 452.296 189.115 453.112C189.115 453.856 189.715 454.216 190.243 454.216ZM188.947 469.072C189.451 469.072 190.147 469 190.867 469C191.611 469 192.355 469.072 192.859 469.072C193.147 469.072 193.291 468.832 193.291 468.64C193.291 467.776 191.707 468.52 191.707 466.528V457.84C191.707 457.36 191.587 457.096 191.275 457.096C191.083 457.096 190.843 457.168 189.739 457.72C188.635 458.272 188.275 458.536 188.275 458.872C188.275 459.76 190.027 458.896 190.027 460.36V466.528C190.027 468.52 188.467 467.776 188.467 468.64C188.467 468.832 188.611 469.072 188.947 469.072ZM206.337 466.288L205.713 461.8C205.473 460.048 204.921 457.024 201.921 457.024C200.121 457.024 198.921 458.08 198.129 459.328V457.84C198.129 457.36 198.009 457.096 197.697 457.096C197.505 457.096 197.265 457.168 196.161 457.72C195.057 458.272 194.697 458.536 194.697 458.872C194.697 459.76 196.449 458.896 196.449 460.36V466.528C196.449 468.52 194.889 467.776 194.889 468.64C194.889 468.832 195.033 469.072 195.369 469.072C195.873 469.072 196.569 469 197.289 469C198.033 469 198.777 469.072 199.281 469.072C199.569 469.072 199.713 468.832 199.713 468.64C199.713 467.776 198.129 468.52 198.129 466.528V462.28C198.129 459.808 199.809 458.536 201.369 458.536C203.433 458.536 203.841 460.816 204.009 461.92L204.633 466.288C204.657 466.456 204.681 466.72 204.681 466.864C204.681 468.424 203.001 467.776 203.001 468.616C203.001 468.904 203.241 469.072 203.601 469.072C204.273 469.072 204.657 469 205.569 469C206.433 469 206.913 469.072 207.561 469.072C207.873 469.072 208.137 468.952 208.137 468.64C208.137 467.728 206.649 468.592 206.337 466.288ZM220.709 467.896C219.509 467.68 218.981 467.512 218.717 465.64L218.117 461.56C217.781 459.328 217.277 457.024 214.133 457.024C212.405 457.024 210.629 458.056 209.885 459.208C209.693 459.496 209.645 459.64 209.645 459.808C209.645 460.072 209.861 460.24 210.077 460.24C210.221 460.24 210.365 460.168 210.557 459.976C211.469 459.088 212.477 458.464 213.557 458.464C215.213 458.464 216.149 459.28 216.557 462.16L216.605 462.496C215.669 462.208 214.733 461.992 213.701 461.992C210.701 461.992 208.877 463.648 208.877 465.736C208.877 467.8 210.485 469.264 212.909 469.264C214.781 469.264 216.341 468.448 217.277 467.272C217.613 468.616 218.405 469.192 219.365 469.192C220.229 469.192 221.069 468.616 221.069 468.232C221.069 468.064 220.973 467.944 220.709 467.896ZM213.365 468.04C211.757 468.04 210.701 467.008 210.701 465.592C210.701 464.104 211.781 463.096 213.941 463.096C214.853 463.096 215.837 463.288 216.773 463.648L217.085 465.976C216.365 467.08 214.901 468.04 213.365 468.04ZM228.779 456.952C226.811 456.952 225.299 457.864 224.411 459.232V451.384C224.411 451.144 224.267 450.904 224.027 450.904C223.739 450.904 223.499 450.976 222.371 451.528C221.219 452.08 220.859 452.344 220.859 452.68C220.859 453.568 222.731 452.704 222.731 454.168V468.712C222.731 469.024 222.899 469.24 223.187 469.24C223.595 469.24 224.147 468.568 224.819 468.568C225.515 468.568 226.571 469.288 228.299 469.288C231.467 469.288 234.203 466.864 234.203 462.928C234.203 459.4 231.995 456.952 228.779 456.952ZM228.371 468.208C226.115 468.208 224.411 466.816 224.411 464.368V462.328C224.411 459.688 226.307 458.32 228.251 458.32C230.771 458.32 232.427 460.648 232.427 463.6C232.427 466.696 230.627 468.208 228.371 468.208ZM237.798 454.216C238.854 454.216 239.694 453.304 239.694 452.488C239.694 451.768 239.142 451.36 238.518 451.36C237.462 451.36 236.67 452.296 236.67 453.112C236.67 453.856 237.27 454.216 237.798 454.216ZM236.502 469.072C237.006 469.072 237.702 469 238.422 469C239.166 469 239.91 469.072 240.414 469.072C240.702 469.072 240.846 468.832 240.846 468.64C240.846 467.776 239.262 468.52 239.262 466.528V457.84C239.262 457.36 239.142 457.096 238.83 457.096C238.638 457.096 238.398 457.168 237.294 457.72C236.19 458.272 235.83 458.536 235.83 458.872C235.83 459.76 237.582 458.896 237.582 460.36V466.528C237.582 468.52 236.022 467.776 236.022 468.64C236.022 468.832 236.166 469.072 236.502 469.072ZM242.684 469.072C243.188 469.072 243.884 469 244.604 469C245.348 469 246.092 469.072 246.596 469.072C246.884 469.072 247.028 468.832 247.028 468.64C247.028 467.776 245.444 468.52 245.444 466.528V451.648C245.444 451.168 245.324 450.904 245.012 450.904C244.82 450.904 244.58 450.976 243.476 451.528C242.372 452.08 242.012 452.344 242.012 452.68C242.012 453.568 243.764 452.704 243.764 454.168V466.528C243.764 468.52 242.204 467.776 242.204 468.64C242.204 468.832 242.348 469.072 242.684 469.072ZM250.407 454.216C251.463 454.216 252.303 453.304 252.303 452.488C252.303 451.768 251.751 451.36 251.127 451.36C250.071 451.36 249.279 452.296 249.279 453.112C249.279 453.856 249.879 454.216 250.407 454.216ZM249.111 469.072C249.615 469.072 250.311 469 251.031 469C251.775 469 252.519 469.072 253.023 469.072C253.311 469.072 253.455 468.832 253.455 468.64C253.455 467.776 251.871 468.52 251.871 466.528V457.84C251.871 457.36 251.751 457.096 251.439 457.096C251.247 457.096 251.007 457.168 249.903 457.72C248.799 458.272 248.439 458.536 248.439 458.872C248.439 459.76 250.191 458.896 250.191 460.36V466.528C250.191 468.52 248.631 467.776 248.631 468.64C248.631 468.832 248.775 469.072 249.111 469.072ZM262.709 466.6C262.517 466.6 262.325 466.744 262.181 466.888C261.725 467.296 261.101 467.968 259.997 467.968C258.941 467.968 258.245 467.416 258.245 465.664V458.392H262.469C262.685 458.392 262.805 458.296 262.853 458.056C262.877 457.936 262.925 457.72 262.925 457.552C262.925 457.384 262.805 457.288 262.565 457.288H258.245V453.304C258.245 452.92 258.077 452.752 257.861 452.752C257.525 452.752 257.405 453.016 257.309 453.544C256.829 455.896 256.229 456.808 254.813 457.336C254.477 457.456 254.261 457.624 254.261 457.912C254.261 458.224 254.501 458.392 254.885 458.392H256.565V463.096C256.565 464.752 256.517 466.6 256.517 467.104C256.517 468.28 257.717 469.264 259.517 469.264C260.669 469.264 261.845 468.856 262.709 467.944C263.021 467.608 263.165 467.344 263.165 467.08C263.165 466.816 262.973 466.6 262.709 466.6ZM275.833 457.192C275.209 457.192 274.633 457.264 273.961 457.264C273.337 457.264 272.689 457.192 272.209 457.192C271.897 457.192 271.681 457.312 271.681 457.624C271.681 458.392 273.217 458.08 273.217 459.064C273.217 459.4 273.049 459.808 272.809 460.432L270.145 467.008L267.361 460.432C267.097 459.808 267.001 459.304 267.001 459.16C267.001 458.056 268.465 458.392 268.465 457.624C268.465 457.312 268.249 457.192 267.937 457.192C267.457 457.192 266.785 457.264 265.993 457.264C265.057 457.264 264.457 457.192 263.833 457.192C263.545 457.192 263.329 457.312 263.329 457.576C263.329 458.296 264.577 458.08 265.081 459.304L269.257 468.928L269.041 469.48C268.345 471.184 267.529 472.12 266.713 472.12C266.137 472.12 265.585 471.592 264.961 470.56C264.769 470.248 264.649 470.104 264.385 470.104C264.097 470.104 263.953 470.368 263.953 470.68C263.953 471.208 264.313 472.624 264.625 473.056C264.841 473.344 265.489 473.56 266.161 473.56C267.817 473.56 269.065 472.312 269.953 470.2L274.585 459.256C275.065 458.08 276.337 458.296 276.337 457.576C276.337 457.312 276.121 457.192 275.833 457.192Z" fill="white"/>
<path d="M39.6 264.82L38.92 263.44C38.56 262.72 38.38 262.48 38.06 262.48C37.66 262.48 37.64 262.88 37.14 262.88H31.08C30.48 262.88 29.72 262.82 29.46 262.82C29.08 262.82 28.96 262.96 28.96 263.18C28.96 263.92 30.32 263.4 30.32 264.72V275.16C30.32 276.48 28.96 275.96 28.96 276.72C28.96 276.9 29.08 277.06 29.38 277.06C29.82 277.06 30.44 277 31.08 277C31.8 277 32.62 277.06 33.12 277.06C33.42 277.06 33.54 276.9 33.54 276.72C33.54 275.96 31.88 276.48 31.88 275.16L31.88 270.8C31.88 270.5 31.98 270.38 32.42 270.38H35.4C36.7 270.38 36.56 271.9 37.22 271.9C37.42 271.9 37.58 271.78 37.58 271.4C37.58 270.96 37.52 270.44 37.52 269.92C37.52 269.4 37.58 268.9 37.58 268.44C37.58 268.06 37.42 267.94 37.22 267.94C36.56 267.94 36.7 269.46 35.4 269.46H32.42C31.98 269.46 31.88 269.34 31.88 269.04V264.78C31.88 264.06 32 263.8 33.58 263.8H35.36C37 263.8 37.74 264.56 39.12 266.04C39.38 266.32 39.54 266.48 39.76 266.48C39.92 266.48 40.1 266.36 40.1 266.12C40.1 265.9 39.98 265.58 39.6 264.82ZM42.4475 264.68C43.3275 264.68 44.0275 263.92 44.0275 263.24C44.0275 262.64 43.5675 262.3 43.0475 262.3C42.1675 262.3 41.5075 263.08 41.5075 263.76C41.5075 264.38 42.0075 264.68 42.4475 264.68ZM41.3675 277.06C41.7875 277.06 42.3675 277 42.9675 277C43.5875 277 44.2075 277.06 44.6275 277.06C44.8675 277.06 44.9875 276.86 44.9875 276.7C44.9875 275.98 43.6675 276.6 43.6675 274.94V267.7C43.6675 267.3 43.5675 267.08 43.3075 267.08C43.1475 267.08 42.9475 267.14 42.0275 267.6C41.1075 268.06 40.8075 268.28 40.8075 268.56C40.8075 269.3 42.2675 268.58 42.2675 269.8V274.94C42.2675 276.6 40.9675 275.98 40.9675 276.7C40.9675 276.86 41.0875 277.06 41.3675 277.06ZM55.8591 274.74L55.3391 271C55.1391 269.54 54.6791 267.02 52.1791 267.02C50.6791 267.02 49.6791 267.9 49.0191 268.94V267.7C49.0191 267.3 48.9191 267.08 48.6591 267.08C48.4991 267.08 48.2991 267.14 47.3791 267.6C46.4591 268.06 46.1591 268.28 46.1591 268.56C46.1591 269.3 47.6191 268.58 47.6191 269.8L47.6191 274.94C47.6191 276.6 46.3191 275.98 46.3191 276.7C46.3191 276.86 46.4391 277.06 46.7191 277.06C47.1391 277.06 47.7191 277 48.3191 277C48.9391 277 49.5591 277.06 49.9791 277.06C50.2191 277.06 50.3391 276.86 50.3391 276.7C50.3391 275.98 49.0191 276.6 49.0191 274.94V271.4C49.0191 269.34 50.4191 268.28 51.7191 268.28C53.4391 268.28 53.7791 270.18 53.9191 271.1L54.4391 274.74C54.4591 274.88 54.4791 275.1 54.4791 275.22C54.4791 276.52 53.0791 275.98 53.0791 276.68C53.0791 276.92 53.2791 277.06 53.5791 277.06C54.1391 277.06 54.4591 277 55.2191 277C55.9391 277 56.3391 277.06 56.8791 277.06C57.1391 277.06 57.3591 276.96 57.3591 276.7C57.3591 275.94 56.1191 276.66 55.8591 274.74ZM67.8355 276.08C66.8355 275.9 66.3955 275.76 66.1755 274.2L65.6755 270.8C65.3955 268.94 64.9755 267.02 62.3555 267.02C60.9155 267.02 59.4355 267.88 58.8155 268.84C58.6555 269.08 58.6155 269.2 58.6155 269.34C58.6155 269.56 58.7955 269.7 58.9755 269.7C59.0955 269.7 59.2155 269.64 59.3755 269.48C60.1355 268.74 60.9755 268.22 61.8755 268.22C63.2555 268.22 64.0355 268.9 64.3755 271.3L64.4155 271.58C63.6355 271.34 62.8555 271.16 61.9955 271.16C59.4955 271.16 57.9755 272.54 57.9755 274.28C57.9755 276 59.3155 277.22 61.3355 277.22C62.8955 277.22 64.1955 276.54 64.9755 275.56C65.2555 276.68 65.9155 277.16 66.7155 277.16C67.4355 277.16 68.1355 276.68 68.1355 276.36C68.1355 276.22 68.0555 276.12 67.8355 276.08ZM61.7155 276.2C60.3755 276.2 59.4955 275.34 59.4955 274.16C59.4955 272.92 60.3955 272.08 62.1955 272.08C62.9555 272.08 63.7755 272.24 64.5555 272.54L64.8155 274.48C64.2155 275.4 62.9955 276.2 61.7155 276.2ZM78.2809 274.74L77.7609 271C77.5609 269.54 77.1009 267.02 74.6009 267.02C73.1009 267.02 72.1009 267.9 71.4409 268.94V267.7C71.4409 267.3 71.3409 267.08 71.0809 267.08C70.9209 267.08 70.7209 267.14 69.8009 267.6C68.8809 268.06 68.5809 268.28 68.5809 268.56C68.5809 269.3 70.0409 268.58 70.0409 269.8V274.94C70.0409 276.6 68.7409 275.98 68.7409 276.7C68.7409 276.86 68.8609 277.06 69.1409 277.06C69.5609 277.06 70.1409 277 70.7409 277C71.3609 277 71.9809 277.06 72.4009 277.06C72.6409 277.06 72.7609 276.86 72.7609 276.7C72.7609 275.98 71.4409 276.6 71.4409 274.94V271.4C71.4409 269.34 72.8409 268.28 74.1409 268.28C75.8609 268.28 76.2009 270.18 76.3409 271.1L76.8609 274.74C76.8809 274.88 76.9009 275.1 76.9009 275.22C76.9009 276.52 75.5009 275.98 75.5009 276.68C75.5009 276.92 75.7009 277.06 76.0009 277.06C76.5609 277.06 76.8809 277 77.6409 277C78.3609 277 78.7609 277.06 79.3009 277.06C79.5609 277.06 79.7809 276.96 79.7809 276.7C79.7809 275.94 78.5409 276.66 78.2809 274.74ZM85.1973 277.34C86.7973 277.34 88.3573 276.52 88.9773 275.48C89.0773 275.3 89.1573 275.12 89.1573 274.96C89.1573 274.68 88.9973 274.54 88.7973 274.54C88.6373 274.54 88.4973 274.64 88.3373 274.86C87.6573 275.78 86.7373 276.2 85.7373 276.2C83.6373 276.2 82.0373 274.3 82.0373 271.8C82.0373 269.4 83.3173 267.8 85.0373 267.8C86.5173 267.8 87.0573 268.74 87.3373 270.26C87.3973 270.64 87.5173 270.82 87.7373 270.82C87.9373 270.82 88.0573 270.68 88.2173 270.46C88.7373 269.7 88.8973 269.12 88.8973 268.76C88.8973 268.02 87.2773 266.88 85.3773 266.88C82.6573 266.88 80.5173 269.08 80.5173 272.24C80.5173 275.56 82.7173 277.34 85.1973 277.34ZM91.8811 264.68C92.7611 264.68 93.4611 263.92 93.4611 263.24C93.4611 262.64 93.0011 262.3 92.4811 262.3C91.6011 262.3 90.9411 263.08 90.9411 263.76C90.9411 264.38 91.4411 264.68 91.8811 264.68ZM90.8011 277.06C91.2211 277.06 91.8011 277 92.4011 277C93.0211 277 93.6411 277.06 94.0611 277.06C94.3011 277.06 94.4211 276.86 94.4211 276.7C94.4211 275.98 93.1011 276.6 93.1011 274.94V267.7C93.1011 267.3 93.0011 267.08 92.7411 267.08C92.5811 267.08 92.3811 267.14 91.4611 267.6C90.5411 268.06 90.2411 268.28 90.2411 268.56C90.2411 269.3 91.7011 268.58 91.7011 269.8V274.94C91.7011 276.6 90.4011 275.98 90.4011 276.7C90.4011 276.86 90.5211 277.06 90.8011 277.06ZM105.453 276.08C104.453 275.9 104.013 275.76 103.793 274.2L103.293 270.8C103.013 268.94 102.593 267.02 99.9727 267.02C98.5327 267.02 97.0527 267.88 96.4327 268.84C96.2727 269.08 96.2327 269.2 96.2327 269.34C96.2327 269.56 96.4127 269.7 96.5927 269.7C96.7127 269.7 96.8327 269.64 96.9927 269.48C97.7527 268.74 98.5927 268.22 99.4927 268.22C100.873 268.22 101.653 268.9 101.993 271.3L102.033 271.58C101.253 271.34 100.473 271.16 99.6127 271.16C97.1127 271.16 95.5927 272.54 95.5927 274.28C95.5927 276 96.9327 277.22 98.9527 277.22C100.513 277.22 101.813 276.54 102.593 275.56C102.873 276.68 103.533 277.16 104.333 277.16C105.053 277.16 105.753 276.68 105.753 276.36C105.753 276.22 105.673 276.12 105.453 276.08ZM99.3327 276.2C97.9927 276.2 97.1127 275.34 97.1127 274.16C97.1127 272.92 98.0127 272.08 99.8127 272.08C100.573 272.08 101.393 272.24 102.173 272.54L102.433 274.48C101.833 275.4 100.613 276.2 99.3327 276.2ZM106.558 277.06C106.978 277.06 107.558 277 108.158 277C108.778 277 109.398 277.06 109.818 277.06C110.058 277.06 110.178 276.86 110.178 276.7C110.178 275.98 108.858 276.6 108.858 274.94V262.54C108.858 262.14 108.758 261.92 108.498 261.92C108.338 261.92 108.138 261.98 107.218 262.44C106.298 262.9 105.998 263.12 105.998 263.4C105.998 264.14 107.458 263.42 107.458 264.64V274.94C107.458 276.6 106.158 275.98 106.158 276.7C106.158 276.86 106.278 277.06 106.558 277.06Z" fill="white"/>
<path d="M197.707 212.293C197.317 211.902 196.683 211.902 196.293 212.293L189.929 218.657C189.538 219.047 189.538 219.681 189.929 220.071C190.319 220.462 190.953 220.462 191.343 220.071L197 214.414L202.657 220.071C203.047 220.462 203.681 220.462 204.071 220.071C204.462 219.681 204.462 219.047 204.071 218.657L197.707 212.293ZM196 410C196 410.552 196.448 411 197 411C197.552 411 198 410.552 198 410L196 410ZM196 213L196 410L198 410L198 213L196 213Z" fill="#E98A40"/>
</svg>
