<svg width="940" height="151" viewBox="0 0 940 151" fill="none" xmlns="http://www.w3.org/2000/svg">
<path d="M158.538 98.916C158.918 98.916 159.452 98.8643 160.003 98.8643C160.555 98.8643 161.124 98.916 161.503 98.916C161.761 98.916 161.865 98.7781 161.865 98.623C161.865 97.9681 160.693 98.4162 160.693 97.2787V88.2823C160.693 87.1448 161.865 87.5929 161.865 86.938C161.865 86.7829 161.761 86.645 161.503 86.645C161.124 86.645 160.555 86.6967 160.003 86.6967C159.452 86.6967 158.918 86.645 158.538 86.645C158.28 86.645 158.176 86.7829 158.176 86.938C158.176 87.5929 159.348 87.1448 159.348 88.2823V97.2787C159.348 98.4162 158.176 97.9681 158.176 98.623C158.176 98.7781 158.28 98.916 158.538 98.916ZM171.578 96.9168L171.129 93.6939C170.957 92.4358 170.561 90.2642 168.406 90.2642C167.114 90.2642 166.252 91.0225 165.683 91.9187V90.8502C165.683 90.5055 165.597 90.3159 165.373 90.3159C165.235 90.3159 165.063 90.3676 164.27 90.764C163.477 91.1604 163.219 91.35 163.219 91.5913C163.219 92.229 164.477 91.6085 164.477 92.6598V97.0891C164.477 98.5196 163.357 97.9853 163.357 98.6057C163.357 98.7436 163.46 98.916 163.701 98.916C164.063 98.916 164.563 98.8643 165.08 98.8643C165.614 98.8643 166.149 98.916 166.511 98.916C166.717 98.916 166.821 98.7436 166.821 98.6057C166.821 97.9853 165.683 98.5196 165.683 97.0891V94.0386C165.683 92.2634 166.89 91.35 168.01 91.35C169.492 91.35 169.785 92.9873 169.906 93.7801L170.354 96.9168C170.371 97.0374 170.388 97.227 170.388 97.3304C170.388 98.4506 169.182 97.9853 169.182 98.5885C169.182 98.7953 169.354 98.916 169.613 98.916C170.095 98.916 170.371 98.8643 171.026 98.8643C171.646 98.8643 171.991 98.916 172.457 98.916C172.681 98.916 172.87 98.8298 172.87 98.6057C172.87 97.9508 171.802 98.5713 171.578 96.9168ZM179.606 97.3993C179.158 97.3476 177.365 97.1753 175.814 96.9685C175.194 96.8823 174.952 96.7616 174.952 96.4687C174.952 96.1067 175.314 95.8999 175.676 95.6759C176.193 95.8482 176.779 95.9344 177.417 95.9344C179.881 95.9344 181.243 94.5556 181.243 92.9528C181.243 91.6775 180.399 90.7813 179.106 90.3849C179.364 89.3336 180.278 89.2474 181.191 89.2474C181.519 89.2474 181.657 89.1095 181.657 88.9199C181.657 88.7304 181.484 88.5925 181.295 88.4891C180.881 88.265 180.502 88.1271 180.019 88.1271C179.554 88.1271 178.658 88.7476 178.399 90.2298C178.141 90.1953 177.848 90.1781 177.555 90.1781C175.108 90.1781 173.729 91.5396 173.729 93.1769C173.729 94.1248 174.194 94.8658 174.97 95.3484C174.401 95.7103 173.763 96.2274 173.763 96.8478C173.763 97.3476 174.073 97.8302 174.797 98.037C173.901 98.4679 173.35 99.1572 173.35 99.8983C173.35 101.225 175.211 102.104 177.779 102.104C180.399 102.104 182.225 100.984 182.225 99.4502C182.225 98.3128 181.312 97.5717 179.606 97.3993ZM177.4 90.9536C178.847 90.9536 179.899 91.8326 179.899 93.1252C179.899 94.4005 178.916 95.1588 177.555 95.1588C176.107 95.1588 175.056 94.2971 175.056 92.9873C175.056 91.7292 176.038 90.9536 177.4 90.9536ZM177.848 101.329C175.797 101.329 174.694 100.777 174.694 99.7432C174.694 99.0021 175.228 98.4679 175.831 98.1921C176.883 98.3128 177.917 98.4334 179.106 98.554C180.381 98.6919 181.002 99.0883 181.002 99.7605C181.002 100.536 179.744 101.329 177.848 101.329ZM188.274 90.247C187.068 90.247 185.844 91.1949 185.224 92.6943V90.8502C185.224 90.5055 185.137 90.3159 184.913 90.3159C184.776 90.3159 184.603 90.3676 183.81 90.764C183.018 91.1604 182.759 91.35 182.759 91.5913C182.759 92.229 184.017 91.6085 184.017 92.6598V97.0891C184.017 98.5196 182.897 97.9853 182.897 98.6057C182.897 98.7436 183 98.916 183.242 98.916C183.604 98.916 184.103 98.8643 184.62 98.8643C185.224 98.8643 185.861 98.916 186.275 98.916C186.482 98.916 186.585 98.7436 186.585 98.6057C186.585 97.9336 185.224 98.5196 185.224 97.0891V95.4346C185.224 92.9011 186.775 91.4362 187.636 91.4362C187.964 91.4362 188.171 91.6602 188.36 92.16C188.464 92.4358 188.533 92.6254 188.757 92.6254C188.981 92.6254 189.084 92.453 189.153 92.1773C189.325 91.4706 189.377 91.1087 189.377 90.9019C189.377 90.54 188.929 90.247 188.274 90.247ZM197.495 96.7961C197.357 96.7961 197.22 96.8823 197.099 97.0374C196.565 97.6751 195.651 98.1749 194.583 98.1749C193.118 98.1749 191.946 97.1063 191.498 95.5725L197.133 93.9007C197.375 93.8318 197.461 93.7111 197.461 93.4009C197.461 91.7119 196.065 90.1436 194.083 90.1436C191.894 90.1436 189.998 92.0221 189.998 94.6763C189.998 97.5889 191.98 99.1572 194.221 99.1572C195.531 99.1572 196.996 98.4851 197.65 97.5717C197.771 97.3993 197.823 97.2614 197.823 97.158C197.823 96.934 197.65 96.7961 197.495 96.7961ZM193.893 91.0225C195.203 91.0225 196.048 92.1428 196.048 93.0045C196.048 93.2975 195.979 93.3837 195.668 93.4698L191.325 94.7969C191.308 94.5901 191.291 94.366 191.291 94.142C191.291 92.2807 192.428 91.0225 193.893 91.0225ZM207.071 96.7099V86.4037C207.071 86.1107 207.002 85.8694 206.761 85.8694C206.658 85.8694 206.313 85.9728 205.572 86.3175C204.727 86.7139 204.452 86.8863 204.452 87.1275C204.452 87.7997 205.865 87.162 205.865 88.2133V91.2983C205.244 90.6779 204.314 90.2125 203.09 90.2125C200.712 90.2125 198.885 92.0911 198.885 94.7624C198.885 97.4683 200.729 99.0711 202.797 99.0711C204.159 99.0711 205.227 98.4506 205.865 97.52V98.5023C205.865 98.6747 205.865 99.0366 206.175 99.0366C206.296 99.0366 206.485 98.9849 207.244 98.7091C208.105 98.3989 208.381 98.2266 208.381 97.9681C208.381 97.3476 207.071 97.744 207.071 96.7099ZM203.211 98.0887C201.729 98.0887 200.16 96.7272 200.16 94.3316C200.16 92.5047 201.16 90.9881 202.952 90.9881C204.245 90.9881 205.865 92.1083 205.865 94.142V95.4001C205.865 97.2614 204.434 98.0887 203.211 98.0887ZM210.681 88.2478C211.439 88.2478 212.042 87.5929 212.042 87.0069C212.042 86.4899 211.646 86.1969 211.198 86.1969C210.439 86.1969 209.871 86.869 209.871 87.455C209.871 87.9893 210.301 88.2478 210.681 88.2478ZM209.75 98.916C210.112 98.916 210.612 98.8643 211.129 98.8643C211.663 98.8643 212.197 98.916 212.559 98.916C212.766 98.916 212.869 98.7436 212.869 98.6057C212.869 97.9853 211.732 98.5196 211.732 97.0891V90.8502C211.732 90.5055 211.646 90.3159 211.422 90.3159C211.284 90.3159 211.111 90.3676 210.319 90.764C209.526 91.1604 209.267 91.35 209.267 91.5913C209.267 92.229 210.525 91.6085 210.525 92.6598V97.0891C210.525 98.5196 209.405 97.9853 209.405 98.6057C209.405 98.7436 209.509 98.916 209.75 98.916ZM221.462 96.7961C221.324 96.7961 221.186 96.8823 221.066 97.0374C220.531 97.6751 219.618 98.1749 218.549 98.1749C217.085 98.1749 215.913 97.1063 215.464 95.5725L221.1 93.9007C221.341 93.8318 221.428 93.7111 221.428 93.4009C221.428 91.7119 220.032 90.1436 218.05 90.1436C215.861 90.1436 213.965 92.0221 213.965 94.6763C213.965 97.5889 215.947 99.1572 218.188 99.1572C219.497 99.1572 220.962 98.4851 221.617 97.5717C221.738 97.3993 221.79 97.2614 221.79 97.158C221.79 96.934 221.617 96.7961 221.462 96.7961ZM217.86 91.0225C219.17 91.0225 220.014 92.1428 220.014 93.0045C220.014 93.2975 219.945 93.3837 219.635 93.4698L215.292 94.7969C215.275 94.5901 215.258 94.366 215.258 94.142C215.258 92.2807 216.395 91.0225 217.86 91.0225ZM231.124 96.9168L230.676 93.6939C230.504 92.4358 230.107 90.2642 227.953 90.2642C226.66 90.2642 225.799 91.0225 225.23 91.9187V90.8502C225.23 90.5055 225.144 90.3159 224.92 90.3159C224.782 90.3159 224.61 90.3676 223.817 90.764C223.024 91.1604 222.765 91.35 222.765 91.5913C222.765 92.229 224.024 91.6085 224.024 92.6598V97.0891C224.024 98.5196 222.903 97.9853 222.903 98.6057C222.903 98.7436 223.007 98.916 223.248 98.916C223.61 98.916 224.11 98.8643 224.627 98.8643C225.161 98.8643 225.695 98.916 226.057 98.916C226.264 98.916 226.367 98.7436 226.367 98.6057C226.367 97.9853 225.23 98.5196 225.23 97.0891V94.0386C225.23 92.2634 226.436 91.35 227.557 91.35C229.039 91.35 229.332 92.9873 229.452 93.7801L229.901 96.9168C229.918 97.0374 229.935 97.227 229.935 97.3304C229.935 98.4506 228.729 97.9853 228.729 98.5885C228.729 98.7953 228.901 98.916 229.159 98.916C229.642 98.916 229.918 98.8643 230.573 98.8643C231.193 98.8643 231.538 98.916 232.003 98.916C232.227 98.916 232.417 98.8298 232.417 98.6057C232.417 97.9508 231.348 98.5713 231.124 96.9168ZM238.584 97.1408C238.446 97.1408 238.308 97.2442 238.204 97.3476C237.877 97.6406 237.429 98.1232 236.636 98.1232C235.878 98.1232 235.378 97.7268 235.378 96.4687V91.2466H238.411C238.566 91.2466 238.653 91.1777 238.687 91.0053C238.704 90.9191 238.739 90.764 238.739 90.6434C238.739 90.5227 238.653 90.4538 238.48 90.4538H235.378V87.5929C235.378 87.3171 235.257 87.1965 235.102 87.1965C234.861 87.1965 234.775 87.3861 234.706 87.7652C234.361 89.4542 233.93 90.1091 232.913 90.4883C232.672 90.5744 232.517 90.6951 232.517 90.9019C232.517 91.126 232.689 91.2466 232.965 91.2466H234.172V94.6246C234.172 95.8137 234.137 97.1408 234.137 97.5027C234.137 98.3472 234.999 99.0538 236.291 99.0538C237.119 99.0538 237.963 98.7609 238.584 98.1059C238.808 97.8647 238.911 97.6751 238.911 97.4855C238.911 97.2959 238.773 97.1408 238.584 97.1408ZM240.976 99.0883C241.338 99.0883 241.373 98.6574 241.683 98.6574C241.924 98.6574 242.752 99.0538 243.906 99.0538C245.819 99.0538 247.112 98.0542 247.112 96.5721C247.112 94.7624 245.388 94.2626 243.631 93.8318C241.838 93.3837 241.063 93.1769 241.063 92.2462C241.063 91.5568 241.649 91.0398 242.631 91.0398C243.768 91.0398 244.923 91.7119 245.785 92.5219C245.94 92.6598 246.13 92.8322 246.285 92.8322C246.44 92.8322 246.578 92.7115 246.578 92.5219C246.578 92.3496 246.388 92.0049 246.216 91.7119L245.681 90.7985C245.492 90.4883 245.354 90.2298 245.095 90.2298C244.785 90.2298 244.785 90.5744 244.51 90.5744C244.251 90.5744 243.51 90.2642 242.562 90.2642C240.856 90.2642 239.787 91.2811 239.787 92.5219C239.787 94.1937 241.683 94.6763 243.286 95.0727C244.923 95.4518 245.837 95.6759 245.837 96.7272C245.837 97.5889 245.078 98.2783 243.872 98.2783C242.648 98.2783 241.476 97.5717 240.339 96.4514C240.184 96.2963 239.994 96.124 239.839 96.124C239.649 96.124 239.529 96.2446 239.529 96.4514C239.529 96.641 239.667 96.8651 239.994 97.5372L240.511 98.6057C240.615 98.8126 240.735 99.0883 240.976 99.0883ZM173.546 120.157C173.908 120.157 173.977 119.554 174.39 119.554C174.787 119.554 175.89 120.106 177.648 120.106C180.13 120.106 181.836 118.813 181.836 116.728C181.836 114.108 179.509 113.332 177.2 112.626C174.856 111.902 173.46 111.471 173.46 110.075C173.46 109.007 174.339 108.317 175.631 108.317C177.217 108.317 178.527 108.955 179.854 110.316C180.061 110.523 180.25 110.713 180.44 110.713C180.595 110.713 180.715 110.575 180.715 110.437C180.715 110.265 180.612 109.972 180.061 109.041L179.578 108.231C179.268 107.714 179.078 107.404 178.837 107.404C178.458 107.404 178.509 107.886 178.096 107.886C177.717 107.886 176.958 107.455 175.545 107.455C173.546 107.455 172.184 108.731 172.184 110.265C172.184 112.609 174.546 113.263 176.803 113.936C179.078 114.625 180.526 115.159 180.526 116.865C180.526 118.313 179.457 119.244 177.51 119.244C175.493 119.244 173.96 118.21 172.598 116.745C172.477 116.624 172.219 116.348 172.012 116.348C171.857 116.348 171.702 116.486 171.702 116.676C171.702 116.952 171.857 117.124 172.322 118.141L172.96 119.52C173.15 119.933 173.305 120.157 173.546 120.157ZM190.892 117.796V111.85C190.892 111.574 190.857 111.316 190.582 111.316C190.461 111.316 190.185 111.368 189.444 111.643C188.427 112.023 188.152 112.195 188.152 112.436C188.152 113.074 189.685 112.609 189.685 113.643V116.314C189.685 118.072 188.393 119.037 187.1 119.037C185.497 119.037 185.153 118.02 185.153 116.624V111.85C185.153 111.626 185.135 111.316 184.825 111.316C184.705 111.316 184.498 111.35 183.705 111.661C182.809 112.005 182.55 112.178 182.55 112.436C182.55 113.039 183.946 112.609 183.946 113.643V116.71C183.946 118.727 184.808 120.071 186.807 120.071C188.272 120.071 189.134 119.33 189.685 118.434V119.468C189.685 119.692 189.703 120.002 189.996 120.002C190.151 120.002 190.409 119.95 191.099 119.778C192.064 119.537 192.322 119.364 192.322 119.071C192.322 118.537 190.892 118.813 190.892 117.796ZM198.709 111.247C197.503 111.247 196.279 112.195 195.659 113.694V111.85C195.659 111.506 195.572 111.316 195.348 111.316C195.211 111.316 195.038 111.368 194.245 111.764C193.453 112.16 193.194 112.35 193.194 112.591C193.194 113.229 194.452 112.609 194.452 113.66V118.089C194.452 119.52 193.332 118.985 193.332 119.606C193.332 119.744 193.435 119.916 193.677 119.916C194.039 119.916 194.538 119.864 195.055 119.864C195.659 119.864 196.296 119.916 196.71 119.916C196.917 119.916 197.02 119.744 197.02 119.606C197.02 118.934 195.659 119.52 195.659 118.089V116.435C195.659 113.901 197.21 112.436 198.071 112.436C198.399 112.436 198.606 112.66 198.795 113.16C198.899 113.436 198.968 113.625 199.192 113.625C199.416 113.625 199.519 113.453 199.588 113.177C199.76 112.471 199.812 112.109 199.812 111.902C199.812 111.54 199.364 111.247 198.709 111.247ZM205.944 111.213C204.565 111.213 203.497 111.885 202.876 112.85V111.85C202.876 111.557 202.807 111.316 202.566 111.316C202.394 111.316 202.256 111.368 201.48 111.764C200.687 112.16 200.429 112.333 200.429 112.591C200.429 113.229 201.67 112.609 201.67 113.66V121.157C201.67 122.587 200.567 122.053 200.567 122.673C200.567 122.811 200.67 122.984 200.911 122.984C201.256 122.984 201.756 122.932 202.273 122.932C202.859 122.932 203.462 122.984 203.859 122.984C204.065 122.984 204.169 122.811 204.169 122.673C204.169 122.019 202.876 122.587 202.876 121.157V119.123C203.445 119.623 204.358 120.071 205.634 120.071C207.857 120.071 209.77 118.382 209.77 115.556C209.77 113.022 208.184 111.213 205.944 111.213ZM205.651 119.296C204.083 119.296 202.876 118.296 202.876 116.538V115.073C202.876 113.177 204.22 112.195 205.565 112.195C207.323 112.195 208.495 113.832 208.495 115.952C208.495 118.158 207.236 119.296 205.651 119.296ZM211.244 119.916C211.606 119.916 212.105 119.864 212.623 119.864C213.157 119.864 213.691 119.916 214.053 119.916C214.26 119.916 214.363 119.744 214.363 119.606C214.363 118.985 213.226 119.52 213.226 118.089V107.404C213.226 107.059 213.14 106.869 212.916 106.869C212.778 106.869 212.605 106.921 211.813 107.318C211.02 107.714 210.761 107.903 210.761 108.145C210.761 108.782 212.019 108.162 212.019 109.213V118.089C212.019 119.52 210.899 118.985 210.899 119.606C210.899 119.744 211.002 119.916 211.244 119.916ZM223.425 117.796V111.85C223.425 111.574 223.391 111.316 223.115 111.316C222.994 111.316 222.719 111.368 221.978 111.643C220.961 112.023 220.685 112.195 220.685 112.436C220.685 113.074 222.219 112.609 222.219 113.643V116.314C222.219 118.072 220.926 119.037 219.634 119.037C218.031 119.037 217.686 118.02 217.686 116.624V111.85C217.686 111.626 217.669 111.316 217.359 111.316C217.238 111.316 217.031 111.35 216.239 111.661C215.342 112.005 215.084 112.178 215.084 112.436C215.084 113.039 216.48 112.609 216.48 113.643V116.71C216.48 118.727 217.342 120.071 219.341 120.071C220.806 120.071 221.667 119.33 222.219 118.434V119.468C222.219 119.692 222.236 120.002 222.529 120.002C222.684 120.002 222.943 119.95 223.632 119.778C224.597 119.537 224.856 119.364 224.856 119.071C224.856 118.537 223.425 118.813 223.425 117.796ZM227.175 120.088C227.537 120.088 227.572 119.657 227.882 119.657C228.123 119.657 228.95 120.054 230.105 120.054C232.018 120.054 233.311 119.054 233.311 117.572C233.311 115.762 231.587 115.263 229.829 114.832C228.037 114.384 227.262 114.177 227.262 113.246C227.262 112.557 227.847 112.04 228.83 112.04C229.967 112.04 231.122 112.712 231.984 113.522C232.139 113.66 232.328 113.832 232.484 113.832C232.639 113.832 232.777 113.712 232.777 113.522C232.777 113.35 232.587 113.005 232.415 112.712L231.88 111.798C231.691 111.488 231.553 111.23 231.294 111.23C230.984 111.23 230.984 111.574 230.708 111.574C230.45 111.574 229.709 111.264 228.761 111.264C227.055 111.264 225.986 112.281 225.986 113.522C225.986 115.194 227.882 115.676 229.485 116.073C231.122 116.452 232.035 116.676 232.035 117.727C232.035 118.589 231.277 119.278 230.071 119.278C228.847 119.278 227.675 118.572 226.538 117.451C226.383 117.296 226.193 117.124 226.038 117.124C225.848 117.124 225.728 117.245 225.728 117.451C225.728 117.641 225.866 117.865 226.193 118.537L226.71 119.606C226.813 119.813 226.934 120.088 227.175 120.088Z" fill="white"/>
<path d="M295.23 88.3684L294.644 87.1792C294.334 86.5588 294.178 86.352 293.903 86.352C293.558 86.352 293.541 86.6967 293.11 86.6967H287.888C287.371 86.6967 286.716 86.645 286.492 86.645C286.164 86.645 286.061 86.7656 286.061 86.9552C286.061 87.5929 287.233 87.1448 287.233 88.2823V97.2787C287.233 98.4162 286.061 97.9681 286.061 98.623C286.061 98.7781 286.164 98.916 286.423 98.916C286.802 98.916 287.336 98.8643 287.888 98.8643C288.508 98.8643 289.215 98.916 289.646 98.916C289.904 98.916 290.008 98.7781 290.008 98.623C290.008 97.9681 288.577 98.4162 288.577 97.2787V93.5216C288.577 93.263 288.663 93.1596 289.043 93.1596H291.611C292.731 93.1596 292.61 94.4695 293.179 94.4695C293.351 94.4695 293.489 94.366 293.489 94.0386C293.489 93.6594 293.437 93.2113 293.437 92.7632C293.437 92.3151 293.489 91.8843 293.489 91.4879C293.489 91.1604 293.351 91.057 293.179 91.057C292.61 91.057 292.731 92.3668 291.611 92.3668H289.043C288.663 92.3668 288.577 92.2634 288.577 92.0049V88.334C288.577 87.7135 288.681 87.4895 290.042 87.4895H291.576C292.989 87.4895 293.627 88.1444 294.816 89.4197C295.04 89.661 295.178 89.7989 295.368 89.7989C295.506 89.7989 295.661 89.6955 295.661 89.4887C295.661 89.2991 295.557 89.0233 295.23 88.3684ZM300.06 99.1572C302.628 99.1572 304.558 97.227 304.558 94.6246C304.558 91.9532 302.714 90.1436 300.215 90.1436C297.647 90.1436 295.717 92.0739 295.717 94.6935C295.717 97.3476 297.561 99.1572 300.06 99.1572ZM300.387 98.3472C298.423 98.3472 297.009 96.3997 297.009 94.1075C297.009 92.3668 298.13 90.9536 299.888 90.9536C301.852 90.9536 303.266 92.9011 303.266 95.2105C303.266 96.934 302.145 98.3472 300.387 98.3472ZM311.227 90.247C310.021 90.247 308.797 91.1949 308.177 92.6943V90.8502C308.177 90.5055 308.091 90.3159 307.867 90.3159C307.729 90.3159 307.556 90.3676 306.764 90.764C305.971 91.1604 305.712 91.35 305.712 91.5913C305.712 92.229 306.97 91.6085 306.97 92.6598V97.0891C306.97 98.5196 305.85 97.9853 305.85 98.6057C305.85 98.7436 305.954 98.916 306.195 98.916C306.557 98.916 307.057 98.8643 307.574 98.8643C308.177 98.8643 308.814 98.916 309.228 98.916C309.435 98.916 309.538 98.7436 309.538 98.6057C309.538 97.9336 308.177 98.5196 308.177 97.0891V95.4346C308.177 92.9011 309.728 91.4362 310.59 91.4362C310.917 91.4362 311.124 91.6602 311.313 92.16C311.417 92.4358 311.486 92.6254 311.71 92.6254C311.934 92.6254 312.037 92.453 312.106 92.1773C312.279 91.4706 312.33 91.1087 312.33 90.9019C312.33 90.54 311.882 90.247 311.227 90.247ZM319.171 97.3993C318.723 97.3476 316.93 97.1753 315.379 96.9685C314.759 96.8823 314.517 96.7616 314.517 96.4687C314.517 96.1067 314.879 95.8999 315.241 95.6759C315.758 95.8482 316.344 95.9344 316.982 95.9344C319.446 95.9344 320.808 94.5556 320.808 92.9528C320.808 91.6775 319.963 90.7813 318.671 90.3849C318.929 89.3336 319.843 89.2474 320.756 89.2474C321.084 89.2474 321.222 89.1095 321.222 88.9199C321.222 88.7304 321.049 88.5925 320.86 88.4891C320.446 88.265 320.067 88.1271 319.584 88.1271C319.119 88.1271 318.223 88.7476 317.964 90.2298C317.706 90.1953 317.413 90.1781 317.12 90.1781C314.672 90.1781 313.294 91.5396 313.294 93.1769C313.294 94.1248 313.759 94.8658 314.535 95.3484C313.966 95.7103 313.328 96.2274 313.328 96.8478C313.328 97.3476 313.638 97.8302 314.362 98.037C313.466 98.4679 312.915 99.1572 312.915 99.8983C312.915 101.225 314.776 102.104 317.344 102.104C319.963 102.104 321.79 100.984 321.79 99.4502C321.79 98.3128 320.877 97.5717 319.171 97.3993ZM316.965 90.9536C318.412 90.9536 319.464 91.8326 319.464 93.1252C319.464 94.4005 318.481 95.1588 317.12 95.1588C315.672 95.1588 314.621 94.2971 314.621 92.9873C314.621 91.7292 315.603 90.9536 316.965 90.9536ZM317.413 101.329C315.362 101.329 314.259 100.777 314.259 99.7432C314.259 99.0021 314.793 98.4679 315.396 98.1921C316.448 98.3128 317.482 98.4334 318.671 98.554C319.946 98.6919 320.567 99.0883 320.567 99.7605C320.567 100.536 319.309 101.329 317.413 101.329ZM326.669 99.1572C329.237 99.1572 331.167 97.227 331.167 94.6246C331.167 91.9532 329.323 90.1436 326.824 90.1436C324.256 90.1436 322.326 92.0739 322.326 94.6935C322.326 97.3476 324.17 99.1572 326.669 99.1572ZM326.997 98.3472C325.032 98.3472 323.619 96.3997 323.619 94.1075C323.619 92.3668 324.739 90.9536 326.497 90.9536C328.462 90.9536 329.875 92.9011 329.875 95.2105C329.875 96.934 328.755 98.3472 326.997 98.3472ZM337.957 97.1408C337.819 97.1408 337.681 97.2442 337.578 97.3476C337.251 97.6406 336.802 98.1232 336.01 98.1232C335.251 98.1232 334.752 97.7268 334.752 96.4687V91.2466H337.785C337.94 91.2466 338.026 91.1777 338.061 91.0053C338.078 90.9191 338.112 90.764 338.112 90.6434C338.112 90.5227 338.026 90.4538 337.854 90.4538H334.752V87.5929C334.752 87.3171 334.631 87.1965 334.476 87.1965C334.234 87.1965 334.148 87.3861 334.079 87.7652C333.735 89.4542 333.304 90.1091 332.287 90.4883C332.046 90.5744 331.891 90.6951 331.891 90.9019C331.891 91.126 332.063 91.2466 332.339 91.2466H333.545V94.6246C333.545 95.8137 333.511 97.1408 333.511 97.5027C333.511 98.3472 334.372 99.0538 335.665 99.0538C336.492 99.0538 337.337 98.7609 337.957 98.1059C338.181 97.8647 338.285 97.6751 338.285 97.4855C338.285 97.2959 338.147 97.1408 337.957 97.1408ZM344.538 97.1408C344.4 97.1408 344.262 97.2442 344.159 97.3476C343.831 97.6406 343.383 98.1232 342.59 98.1232C341.832 98.1232 341.332 97.7268 341.332 96.4687V91.2466H344.366C344.521 91.2466 344.607 91.1777 344.641 91.0053C344.659 90.9191 344.693 90.764 344.693 90.6434C344.693 90.5227 344.607 90.4538 344.434 90.4538H341.332V87.5929C341.332 87.3171 341.212 87.1965 341.057 87.1965C340.815 87.1965 340.729 87.3861 340.66 87.7652C340.315 89.4542 339.885 90.1091 338.868 90.4883C338.626 90.5744 338.471 90.6951 338.471 90.9019C338.471 91.126 338.644 91.2466 338.919 91.2466H340.126V94.6246C340.126 95.8137 340.091 97.1408 340.091 97.5027C340.091 98.3472 340.953 99.0538 342.246 99.0538C343.073 99.0538 343.917 98.7609 344.538 98.1059C344.762 97.8647 344.865 97.6751 344.865 97.4855C344.865 97.2959 344.727 97.1408 344.538 97.1408ZM352.982 96.7961C352.844 96.7961 352.706 96.8823 352.586 97.0374C352.051 97.6751 351.138 98.1749 350.069 98.1749C348.604 98.1749 347.432 97.1063 346.984 95.5725L352.62 93.9007C352.861 93.8318 352.948 93.7111 352.948 93.4009C352.948 91.7119 351.552 90.1436 349.57 90.1436C347.381 90.1436 345.485 92.0221 345.485 94.6763C345.485 97.5889 347.467 99.1572 349.707 99.1572C351.017 99.1572 352.482 98.4851 353.137 97.5717C353.258 97.3993 353.309 97.2614 353.309 97.158C353.309 96.934 353.137 96.7961 352.982 96.7961ZM349.38 91.0225C350.69 91.0225 351.534 92.1428 351.534 93.0045C351.534 93.2975 351.465 93.3837 351.155 93.4698L346.812 94.7969C346.795 94.5901 346.778 94.366 346.778 94.142C346.778 92.2807 347.915 91.0225 349.38 91.0225ZM362.644 96.9168L362.196 93.6939C362.024 92.4358 361.627 90.2642 359.473 90.2642C358.18 90.2642 357.319 91.0225 356.75 91.9187V90.8502C356.75 90.5055 356.664 90.3159 356.44 90.3159C356.302 90.3159 356.129 90.3676 355.337 90.764C354.544 91.1604 354.285 91.35 354.285 91.5913C354.285 92.229 355.543 91.6085 355.543 92.6598V97.0891C355.543 98.5196 354.423 97.9853 354.423 98.6057C354.423 98.7436 354.527 98.916 354.768 98.916C355.13 98.916 355.63 98.8643 356.147 98.8643C356.681 98.8643 357.215 98.916 357.577 98.916C357.784 98.916 357.887 98.7436 357.887 98.6057C357.887 97.9853 356.75 98.5196 356.75 97.0891V94.0386C356.75 92.2634 357.956 91.35 359.077 91.35C360.559 91.35 360.852 92.9873 360.972 93.7801L361.42 96.9168C361.438 97.0374 361.455 97.227 361.455 97.3304C361.455 98.4506 360.249 97.9853 360.249 98.5885C360.249 98.7953 360.421 98.916 360.679 98.916C361.162 98.916 361.438 98.8643 362.093 98.8643C362.713 98.8643 363.058 98.916 363.523 98.916C363.747 98.916 363.937 98.8298 363.937 98.6057C363.937 97.9508 362.868 98.5713 362.644 96.9168ZM280.616 119.916C280.996 119.916 281.53 119.864 282.081 119.864C282.633 119.864 283.202 119.916 283.581 119.916C283.839 119.916 283.943 119.778 283.943 119.623C283.943 118.968 282.771 119.416 282.771 118.279V109.282C282.771 108.145 283.943 108.593 283.943 107.938C283.943 107.783 283.839 107.645 283.581 107.645C283.202 107.645 282.633 107.697 282.081 107.697C281.53 107.697 280.996 107.645 280.616 107.645C280.358 107.645 280.254 107.783 280.254 107.938C280.254 108.593 281.426 108.145 281.426 109.282V118.279C281.426 119.416 280.254 118.968 280.254 119.623C280.254 119.778 280.358 119.916 280.616 119.916ZM293.655 117.917L293.207 114.694C293.035 113.436 292.639 111.264 290.484 111.264C289.192 111.264 288.33 112.023 287.761 112.919V111.85C287.761 111.506 287.675 111.316 287.451 111.316C287.313 111.316 287.141 111.368 286.348 111.764C285.555 112.16 285.297 112.35 285.297 112.591C285.297 113.229 286.555 112.609 286.555 113.66V118.089C286.555 119.52 285.435 118.985 285.435 119.606C285.435 119.744 285.538 119.916 285.779 119.916C286.141 119.916 286.641 119.864 287.158 119.864C287.692 119.864 288.227 119.916 288.589 119.916C288.795 119.916 288.899 119.744 288.899 119.606C288.899 118.985 287.761 119.52 287.761 118.089V115.039C287.761 113.263 288.968 112.35 290.088 112.35C291.57 112.35 291.863 113.987 291.984 114.78L292.432 117.917C292.449 118.037 292.466 118.227 292.466 118.33C292.466 119.451 291.26 118.985 291.26 119.589C291.26 119.795 291.432 119.916 291.691 119.916C292.173 119.916 292.449 119.864 293.104 119.864C293.724 119.864 294.069 119.916 294.534 119.916C294.759 119.916 294.948 119.83 294.948 119.606C294.948 118.951 293.88 119.571 293.655 117.917ZM301.684 118.399C301.236 118.348 299.443 118.175 297.892 117.968C297.272 117.882 297.03 117.762 297.03 117.469C297.03 117.107 297.392 116.9 297.754 116.676C298.271 116.848 298.857 116.934 299.495 116.934C301.959 116.934 303.321 115.556 303.321 113.953C303.321 112.677 302.476 111.781 301.184 111.385C301.442 110.334 302.356 110.247 303.269 110.247C303.597 110.247 303.735 110.11 303.735 109.92C303.735 109.73 303.562 109.592 303.373 109.489C302.959 109.265 302.58 109.127 302.097 109.127C301.632 109.127 300.736 109.748 300.477 111.23C300.219 111.195 299.926 111.178 299.633 111.178C297.185 111.178 295.807 112.54 295.807 114.177C295.807 115.125 296.272 115.866 297.048 116.348C296.479 116.71 295.841 117.227 295.841 117.848C295.841 118.348 296.151 118.83 296.875 119.037C295.979 119.468 295.428 120.157 295.428 120.898C295.428 122.225 297.289 123.104 299.857 123.104C302.476 123.104 304.303 121.984 304.303 120.45C304.303 119.313 303.39 118.572 301.684 118.399ZM299.478 111.954C300.925 111.954 301.977 112.833 301.977 114.125C301.977 115.401 300.994 116.159 299.633 116.159C298.185 116.159 297.134 115.297 297.134 113.987C297.134 112.729 298.116 111.954 299.478 111.954ZM299.926 122.329C297.875 122.329 296.772 121.777 296.772 120.743C296.772 120.002 297.306 119.468 297.909 119.192C298.961 119.313 299.995 119.433 301.184 119.554C302.459 119.692 303.08 120.088 303.08 120.76C303.08 121.536 301.822 122.329 299.926 122.329ZM310.352 111.247C309.146 111.247 307.922 112.195 307.302 113.694V111.85C307.302 111.506 307.215 111.316 306.991 111.316C306.854 111.316 306.681 111.368 305.888 111.764C305.096 112.16 304.837 112.35 304.837 112.591C304.837 113.229 306.095 112.609 306.095 113.66V118.089C306.095 119.52 304.975 118.985 304.975 119.606C304.975 119.744 305.078 119.916 305.32 119.916C305.682 119.916 306.181 119.864 306.698 119.864C307.302 119.864 307.939 119.916 308.353 119.916C308.56 119.916 308.663 119.744 308.663 119.606C308.663 118.934 307.302 119.52 307.302 118.089V116.435C307.302 113.901 308.853 112.436 309.714 112.436C310.042 112.436 310.249 112.66 310.438 113.16C310.542 113.436 310.611 113.625 310.835 113.625C311.059 113.625 311.162 113.453 311.231 113.177C311.403 112.471 311.455 112.109 311.455 111.902C311.455 111.54 311.007 111.247 310.352 111.247ZM319.573 117.796C319.435 117.796 319.298 117.882 319.177 118.037C318.643 118.675 317.729 119.175 316.661 119.175C315.196 119.175 314.024 118.106 313.576 116.572L319.211 114.901C319.453 114.832 319.539 114.711 319.539 114.401C319.539 112.712 318.143 111.144 316.161 111.144C313.972 111.144 312.076 113.022 312.076 115.676C312.076 118.589 314.058 120.157 316.299 120.157C317.609 120.157 319.073 119.485 319.728 118.572C319.849 118.399 319.901 118.261 319.901 118.158C319.901 117.934 319.728 117.796 319.573 117.796ZM315.971 112.023C317.281 112.023 318.126 113.143 318.126 114.005C318.126 114.298 318.057 114.384 317.746 114.47L313.403 115.797C313.386 115.59 313.369 115.366 313.369 115.142C313.369 113.281 314.506 112.023 315.971 112.023ZM329.149 117.71V107.404C329.149 107.111 329.08 106.869 328.839 106.869C328.736 106.869 328.391 106.973 327.65 107.318C326.805 107.714 326.53 107.886 326.53 108.128C326.53 108.8 327.943 108.162 327.943 109.213V112.298C327.322 111.678 326.392 111.213 325.168 111.213C322.79 111.213 320.963 113.091 320.963 115.762C320.963 118.468 322.807 120.071 324.875 120.071C326.237 120.071 327.305 119.451 327.943 118.52V119.502C327.943 119.675 327.943 120.037 328.253 120.037C328.374 120.037 328.563 119.985 329.322 119.709C330.183 119.399 330.459 119.227 330.459 118.968C330.459 118.348 329.149 118.744 329.149 117.71ZM325.289 119.089C323.806 119.089 322.238 117.727 322.238 115.332C322.238 113.505 323.238 111.988 325.03 111.988C326.323 111.988 327.943 113.108 327.943 115.142V116.4C327.943 118.261 326.512 119.089 325.289 119.089ZM332.758 109.248C333.517 109.248 334.12 108.593 334.12 108.007C334.12 107.49 333.724 107.197 333.276 107.197C332.517 107.197 331.948 107.869 331.948 108.455C331.948 108.989 332.379 109.248 332.758 109.248ZM331.828 119.916C332.19 119.916 332.69 119.864 333.207 119.864C333.741 119.864 334.275 119.916 334.637 119.916C334.844 119.916 334.947 119.744 334.947 119.606C334.947 118.985 333.81 119.52 333.81 118.089V111.85C333.81 111.506 333.724 111.316 333.5 111.316C333.362 111.316 333.189 111.368 332.397 111.764C331.604 112.16 331.345 112.35 331.345 112.591C331.345 113.229 332.603 112.609 332.603 113.66V118.089C332.603 119.52 331.483 118.985 331.483 119.606C331.483 119.744 331.587 119.916 331.828 119.916ZM343.54 117.796C343.402 117.796 343.264 117.882 343.144 118.037C342.609 118.675 341.696 119.175 340.627 119.175C339.162 119.175 337.991 118.106 337.542 116.572L343.178 114.901C343.419 114.832 343.506 114.711 343.506 114.401C343.506 112.712 342.11 111.144 340.128 111.144C337.939 111.144 336.043 113.022 336.043 115.676C336.043 118.589 338.025 120.157 340.265 120.157C341.575 120.157 343.04 119.485 343.695 118.572C343.816 118.399 343.867 118.261 343.867 118.158C343.867 117.934 343.695 117.796 343.54 117.796ZM339.938 112.023C341.248 112.023 342.092 113.143 342.092 114.005C342.092 114.298 342.023 114.384 341.713 114.47L337.37 115.797C337.353 115.59 337.336 115.366 337.336 115.142C337.336 113.281 338.473 112.023 339.938 112.023ZM353.202 117.917L352.754 114.694C352.582 113.436 352.185 111.264 350.031 111.264C348.738 111.264 347.877 112.023 347.308 112.919V111.85C347.308 111.506 347.222 111.316 346.998 111.316C346.86 111.316 346.687 111.368 345.895 111.764C345.102 112.16 344.843 112.35 344.843 112.591C344.843 113.229 346.102 112.609 346.102 113.66V118.089C346.102 119.52 344.981 118.985 344.981 119.606C344.981 119.744 345.085 119.916 345.326 119.916C345.688 119.916 346.188 119.864 346.705 119.864C347.239 119.864 347.773 119.916 348.135 119.916C348.342 119.916 348.445 119.744 348.445 119.606C348.445 118.985 347.308 119.52 347.308 118.089V115.039C347.308 113.263 348.514 112.35 349.635 112.35C351.117 112.35 351.41 113.987 351.53 114.78L351.978 117.917C351.996 118.037 352.013 118.227 352.013 118.33C352.013 119.451 350.807 118.985 350.807 119.589C350.807 119.795 350.979 119.916 351.237 119.916C351.72 119.916 351.996 119.864 352.651 119.864C353.271 119.864 353.616 119.916 354.081 119.916C354.305 119.916 354.495 119.83 354.495 119.606C354.495 118.951 353.426 119.571 353.202 117.917ZM360.662 118.141C360.524 118.141 360.386 118.244 360.282 118.348C359.955 118.641 359.507 119.123 358.714 119.123C357.956 119.123 357.456 118.727 357.456 117.469V112.247H360.489C360.644 112.247 360.731 112.178 360.765 112.005C360.782 111.919 360.817 111.764 360.817 111.643C360.817 111.523 360.731 111.454 360.558 111.454H357.456V108.593C357.456 108.317 357.335 108.196 357.18 108.196C356.939 108.196 356.853 108.386 356.784 108.765C356.439 110.454 356.008 111.109 354.991 111.488C354.75 111.574 354.595 111.695 354.595 111.902C354.595 112.126 354.767 112.247 355.043 112.247H356.25V115.625C356.25 116.814 356.215 118.141 356.215 118.503C356.215 119.347 357.077 120.054 358.369 120.054C359.197 120.054 360.041 119.761 360.662 119.106C360.886 118.865 360.989 118.675 360.989 118.485C360.989 118.296 360.851 118.141 360.662 118.141ZM363.054 120.088C363.416 120.088 363.451 119.657 363.761 119.657C364.002 119.657 364.83 120.054 365.984 120.054C367.897 120.054 369.19 119.054 369.19 117.572C369.19 115.762 367.466 115.263 365.708 114.832C363.916 114.384 363.141 114.177 363.141 113.246C363.141 112.557 363.727 112.04 364.709 112.04C365.846 112.04 367.001 112.712 367.863 113.522C368.018 113.66 368.207 113.832 368.363 113.832C368.518 113.832 368.656 113.712 368.656 113.522C368.656 113.35 368.466 113.005 368.294 112.712L367.759 111.798C367.57 111.488 367.432 111.23 367.173 111.23C366.863 111.23 366.863 111.574 366.587 111.574C366.329 111.574 365.588 111.264 364.64 111.264C362.934 111.264 361.865 112.281 361.865 113.522C361.865 115.194 363.761 115.676 365.364 116.073C367.001 116.452 367.915 116.676 367.915 117.727C367.915 118.589 367.156 119.278 365.95 119.278C364.726 119.278 363.554 118.572 362.417 117.451C362.262 117.296 362.072 117.124 361.917 117.124C361.727 117.124 361.607 117.245 361.607 117.451C361.607 117.641 361.745 117.865 362.072 118.537L362.589 119.606C362.692 119.813 362.813 120.088 363.054 120.088Z" fill="white"/>
<path d="M513.269 86.1734C513.045 86.1734 512.683 86.2251 512.166 86.2251C511.667 86.2251 511.115 86.1734 510.736 86.1734C510.46 86.1734 510.288 86.2768 510.288 86.5009C510.288 87.0007 511.356 86.9318 511.356 87.466C511.356 87.6901 511.287 87.9141 511.081 88.5346L508.237 96.8933L505.307 88.5346C505.1 87.9486 505.049 87.6728 505.049 87.466C505.049 86.9318 506.031 87.0007 506.031 86.5009C506.031 86.2768 505.893 86.1734 505.617 86.1734C505.238 86.1734 504.497 86.2251 503.997 86.2251C503.428 86.2251 502.963 86.1734 502.739 86.1734C502.567 86.1734 502.429 86.2768 502.429 86.4492C502.429 87.0352 503.273 86.7422 503.687 87.8797L504.083 88.9654L501.36 96.9106L498.379 88.5346C498.189 88.0003 498.12 87.6901 498.12 87.466C498.12 86.9318 499.137 87.0007 499.137 86.5009C499.137 86.2768 498.965 86.1734 498.689 86.1734C498.31 86.1734 497.586 86.2251 497.069 86.2251C496.535 86.2251 496.052 86.1734 495.828 86.1734C495.656 86.1734 495.501 86.2768 495.501 86.4492C495.501 87.0352 496.345 86.7249 496.759 87.8797L500.481 98.1342C500.585 98.4444 500.705 98.5478 501.205 98.5478C501.671 98.5478 501.808 98.4444 501.912 98.1342L504.583 90.3787L507.375 98.1342C507.496 98.4444 507.651 98.5478 508.099 98.5478C508.495 98.5478 508.685 98.4444 508.788 98.1342L512.356 87.8107C512.735 86.7077 513.562 87.0524 513.562 86.4492C513.562 86.2768 513.425 86.1734 513.269 86.1734ZM518.754 89.7582C517.548 89.7582 516.324 90.7061 515.704 92.2055V90.3614C515.704 90.0167 515.617 89.8272 515.393 89.8272C515.255 89.8272 515.083 89.8789 514.29 90.2753C513.497 90.6717 513.239 90.8612 513.239 91.1025C513.239 91.7402 514.497 91.1197 514.497 92.1711V96.6003C514.497 98.0308 513.377 97.4965 513.377 98.117C513.377 98.2548 513.48 98.4272 513.722 98.4272C514.083 98.4272 514.583 98.3755 515.1 98.3755C515.704 98.3755 516.341 98.4272 516.755 98.4272C516.962 98.4272 517.065 98.2548 517.065 98.117C517.065 97.4448 515.704 98.0308 515.704 96.6003V94.9458C515.704 92.4123 517.255 90.9474 518.116 90.9474C518.444 90.9474 518.651 91.1715 518.84 91.6713C518.944 91.947 519.013 92.1366 519.237 92.1366C519.461 92.1366 519.564 91.9642 519.633 91.6885C519.805 90.9819 519.857 90.6199 519.857 90.4131C519.857 90.0512 519.409 89.7582 518.754 89.7582ZM524.821 98.6685C527.389 98.6685 529.319 96.7382 529.319 94.1358C529.319 91.4644 527.475 89.6548 524.976 89.6548C522.408 89.6548 520.478 91.5851 520.478 94.2047C520.478 96.8588 522.322 98.6685 524.821 98.6685ZM525.149 97.8585C523.184 97.8585 521.771 95.911 521.771 93.6188C521.771 91.8781 522.891 90.4648 524.649 90.4648C526.614 90.4648 528.027 92.4123 528.027 94.7218C528.027 96.4452 526.907 97.8585 525.149 97.8585ZM538.832 96.428L538.384 93.2051C538.212 91.947 537.815 89.7755 535.661 89.7755C534.369 89.7755 533.507 90.5338 532.938 91.43V90.3614C532.938 90.0167 532.852 89.8272 532.628 89.8272C532.49 89.8272 532.318 89.8789 531.525 90.2753C530.732 90.6717 530.474 90.8612 530.474 91.1025C530.474 91.7402 531.732 91.1197 531.732 92.1711V96.6003C531.732 98.0308 530.611 97.4965 530.611 98.117C530.611 98.2548 530.715 98.4272 530.956 98.4272C531.318 98.4272 531.818 98.3755 532.335 98.3755C532.869 98.3755 533.403 98.4272 533.765 98.4272C533.972 98.4272 534.076 98.2548 534.076 98.117C534.076 97.4965 532.938 98.0308 532.938 96.6003V93.5498C532.938 91.7747 534.144 90.8612 535.265 90.8612C536.747 90.8612 537.04 92.4985 537.161 93.2913L537.609 96.428C537.626 96.5486 537.643 96.7382 537.643 96.8416C537.643 97.9619 536.437 97.4965 536.437 98.0997C536.437 98.3066 536.609 98.4272 536.868 98.4272C537.35 98.4272 537.626 98.3755 538.281 98.3755C538.901 98.3755 539.246 98.4272 539.711 98.4272C539.935 98.4272 540.125 98.341 540.125 98.117C540.125 97.4621 539.056 98.0825 538.832 96.428ZM546.86 96.9106C546.412 96.8588 544.62 96.6865 543.069 96.4797C542.448 96.3935 542.207 96.2729 542.207 95.9799C542.207 95.618 542.569 95.4111 542.931 95.1871C543.448 95.3594 544.034 95.4456 544.672 95.4456C547.136 95.4456 548.498 94.0669 548.498 92.464C548.498 91.1887 547.653 90.2925 546.361 89.8961C546.619 88.8448 547.533 88.7586 548.446 88.7586C548.773 88.7586 548.911 88.6207 548.911 88.4312C548.911 88.2416 548.739 88.1037 548.549 88.0003C548.136 87.7763 547.757 87.6384 547.274 87.6384C546.809 87.6384 545.913 88.2588 545.654 89.741C545.396 89.7065 545.103 89.6893 544.81 89.6893C542.362 89.6893 540.983 91.0508 540.983 92.6881C540.983 93.636 541.449 94.3771 542.224 94.8596C541.656 95.2216 541.018 95.7386 541.018 96.359C541.018 96.8588 541.328 97.3414 542.052 97.5482C541.156 97.9791 540.604 98.6685 540.604 99.4096C540.604 100.737 542.466 101.616 545.034 101.616C547.653 101.616 549.48 100.495 549.48 98.9615C549.48 97.824 548.567 97.0829 546.86 96.9106ZM544.654 90.4648C546.102 90.4648 547.153 91.3438 547.153 92.6364C547.153 93.9117 546.171 94.6701 544.81 94.6701C543.362 94.6701 542.311 93.8083 542.311 92.4985C542.311 91.2404 543.293 90.4648 544.654 90.4648ZM545.103 100.84C543.052 100.84 541.949 100.289 541.949 99.2544C541.949 98.5134 542.483 97.9791 543.086 97.7033C544.137 97.824 545.171 97.9446 546.361 98.0653C547.636 98.2031 548.256 98.5995 548.256 99.2717C548.256 100.047 546.998 100.84 545.103 100.84ZM560.785 98.6857C564.215 98.6857 567.042 96.1695 567.042 92.533C567.042 88.862 564.422 85.8977 560.768 85.8977C557.114 85.8977 554.529 88.8965 554.529 92.5157C554.529 96.0833 557.218 98.6857 560.785 98.6857ZM560.768 97.7378C557.976 97.7378 556.011 95.3767 556.011 92.3089C556.011 89.2412 557.993 86.8111 560.785 86.8111C563.577 86.8111 565.559 89.2412 565.559 92.3089C565.559 95.3767 563.646 97.7378 560.768 97.7378ZM573.824 89.7582C572.617 89.7582 571.394 90.7061 570.773 92.2055V90.3614C570.773 90.0167 570.687 89.8272 570.463 89.8272C570.325 89.8272 570.153 89.8789 569.36 90.2753C568.567 90.6717 568.309 90.8612 568.309 91.1025C568.309 91.7402 569.567 91.1197 569.567 92.1711V96.6003C569.567 98.0308 568.447 97.4965 568.447 98.117C568.447 98.2548 568.55 98.4272 568.791 98.4272C569.153 98.4272 569.653 98.3755 570.17 98.3755C570.773 98.3755 571.411 98.4272 571.825 98.4272C572.031 98.4272 572.135 98.2548 572.135 98.117C572.135 97.4448 570.773 98.0308 570.773 96.6003V94.9458C570.773 92.4123 572.324 90.9474 573.186 90.9474C573.514 90.9474 573.72 91.1715 573.91 91.6713C574.013 91.947 574.082 92.1366 574.306 92.1366C574.53 92.1366 574.634 91.9642 574.703 91.6885C574.875 90.9819 574.927 90.6199 574.927 90.4131C574.927 90.0512 574.479 89.7582 573.824 89.7582ZM583.734 96.2212V85.9149C583.734 85.6219 583.665 85.3807 583.424 85.3807C583.321 85.3807 582.976 85.4841 582.235 85.8287C581.39 86.2251 581.115 86.3975 581.115 86.6388C581.115 87.3109 582.528 86.6732 582.528 87.7245V90.8095C581.907 90.1891 580.977 89.7238 579.753 89.7238C577.375 89.7238 575.548 91.6023 575.548 94.2737C575.548 96.9795 577.392 98.5823 579.46 98.5823C580.822 98.5823 581.89 97.9619 582.528 97.0312V98.0136C582.528 98.1859 582.528 98.5478 582.838 98.5478C582.959 98.5478 583.148 98.4961 583.907 98.2204C584.768 97.9102 585.044 97.7378 585.044 97.4793C585.044 96.8588 583.734 97.2552 583.734 96.2212ZM579.874 97.5999C578.392 97.5999 576.823 96.2384 576.823 93.8428C576.823 92.0159 577.823 90.4993 579.615 90.4993C580.908 90.4993 582.528 91.6196 582.528 93.6532V94.9113C582.528 96.7727 581.097 97.5999 579.874 97.5999ZM593.514 96.3073C593.376 96.3073 593.238 96.3935 593.117 96.5486C592.583 97.1863 591.669 97.6861 590.601 97.6861C589.136 97.6861 587.964 96.6176 587.516 95.0837L593.152 93.4119C593.393 93.343 593.479 93.2224 593.479 92.9121C593.479 91.2232 592.083 89.6548 590.101 89.6548C587.912 89.6548 586.017 91.5334 586.017 94.1875C586.017 97.1001 587.998 98.6685 590.239 98.6685C591.549 98.6685 593.014 97.9963 593.669 97.0829C593.789 96.9106 593.841 96.7727 593.841 96.6693C593.841 96.4452 593.669 96.3073 593.514 96.3073ZM589.912 90.5338C591.221 90.5338 592.066 91.654 592.066 92.5157C592.066 92.8087 591.997 92.8949 591.687 92.9811L587.344 94.3081C587.326 94.1013 587.309 93.8773 587.309 93.6532C587.309 91.7919 588.447 90.5338 589.912 90.5338ZM600.332 89.7582C599.126 89.7582 597.902 90.7061 597.281 92.2055V90.3614C597.281 90.0167 597.195 89.8272 596.971 89.8272C596.833 89.8272 596.661 89.8789 595.868 90.2753C595.075 90.6717 594.817 90.8612 594.817 91.1025C594.817 91.7402 596.075 91.1197 596.075 92.1711V96.6003C596.075 98.0308 594.955 97.4965 594.955 98.117C594.955 98.2548 595.058 98.4272 595.299 98.4272C595.661 98.4272 596.161 98.3755 596.678 98.3755C597.281 98.3755 597.919 98.4272 598.333 98.4272C598.54 98.4272 598.643 98.2548 598.643 98.117C598.643 97.4448 597.281 98.0308 597.281 96.6003V94.9458C597.281 92.4123 598.833 90.9474 599.694 90.9474C600.022 90.9474 600.229 91.1715 600.418 91.6713C600.522 91.947 600.59 92.1366 600.814 92.1366C601.039 92.1366 601.142 91.9642 601.211 91.6885C601.383 90.9819 601.435 90.6199 601.435 90.4131C601.435 90.0512 600.987 89.7582 600.332 89.7582ZM603.603 98.5995C603.965 98.5995 603.999 98.1687 604.309 98.1687C604.551 98.1687 605.378 98.5651 606.533 98.5651C608.446 98.5651 609.738 97.5655 609.738 96.0833C609.738 94.2737 608.015 93.7739 606.257 93.343C604.464 92.8949 603.689 92.6881 603.689 91.7574C603.689 91.068 604.275 90.551 605.257 90.551C606.395 90.551 607.549 91.2232 608.411 92.0332C608.566 92.1711 608.756 92.3434 608.911 92.3434C609.066 92.3434 609.204 92.2228 609.204 92.0332C609.204 91.8608 609.014 91.5161 608.842 91.2232L608.308 90.3097C608.118 89.9995 607.98 89.741 607.722 89.741C607.412 89.741 607.412 90.0857 607.136 90.0857C606.877 90.0857 606.136 89.7755 605.188 89.7755C603.482 89.7755 602.414 90.7923 602.414 92.0332C602.414 93.7049 604.309 94.1875 605.912 94.5839C607.549 94.9631 608.463 95.1871 608.463 96.2384C608.463 97.1001 607.705 97.7895 606.498 97.7895C605.274 97.7895 604.103 97.0829 602.965 95.9627C602.81 95.8075 602.62 95.6352 602.465 95.6352C602.276 95.6352 602.155 95.7558 602.155 95.9627C602.155 96.1522 602.293 96.3763 602.62 97.0484L603.137 98.117C603.241 98.3238 603.361 98.5995 603.603 98.5995ZM612.322 96.7037C611.685 96.7037 611.185 97.1001 611.185 97.6172C611.185 98.048 611.46 98.2376 611.736 98.3755C611.943 98.4789 612.15 98.5995 612.15 98.8064C612.15 99.2717 611.598 99.737 611.34 99.9266C611.185 100.047 611.099 100.151 611.099 100.306C611.099 100.478 611.236 100.599 611.426 100.599C612.029 100.599 613.442 99.2717 613.442 97.8067C613.442 97.1001 613.081 96.7037 612.322 96.7037ZM526.599 107.156C526.22 107.156 525.807 107.208 525.307 107.208C524.721 107.208 524.29 107.156 523.876 107.156C523.618 107.156 523.463 107.277 523.463 107.449C523.463 108.173 524.842 107.673 524.842 108.793V116.997L517.724 107.518C517.5 107.225 517.276 107.173 517.069 107.173C516.948 107.173 516.81 107.191 516.483 107.191C516.069 107.191 515.811 107.156 515.569 107.156C515.276 107.156 515.156 107.294 515.156 107.466C515.156 108.104 516.345 107.656 516.345 108.793V117.79C516.345 118.927 515.156 118.479 515.156 119.117C515.156 119.289 515.294 119.427 515.552 119.427C515.931 119.427 516.466 119.375 516.845 119.375C517.258 119.375 517.913 119.427 518.292 119.427C518.585 119.427 518.689 119.289 518.689 119.134C518.689 118.41 517.31 118.91 517.31 117.79V109.121L524.876 119.186C525.014 119.358 525.169 119.496 525.427 119.496C525.652 119.496 525.807 119.358 525.807 119.1V108.793C525.807 107.656 526.996 108.104 526.996 107.449C526.996 107.277 526.858 107.156 526.599 107.156ZM532.387 119.668C534.955 119.668 536.885 117.738 536.885 115.136C536.885 112.464 535.041 110.655 532.542 110.655C529.974 110.655 528.044 112.585 528.044 115.205C528.044 117.859 529.888 119.668 532.387 119.668ZM532.714 118.858C530.749 118.858 529.336 116.911 529.336 114.619C529.336 112.878 530.456 111.465 532.214 111.465C534.179 111.465 535.592 113.412 535.592 115.722C535.592 117.445 534.472 118.858 532.714 118.858ZM538.952 115.429H542.503C542.796 115.429 542.899 115.36 542.899 114.998V114.808C542.899 114.464 542.796 114.377 542.503 114.377H538.952C538.659 114.377 538.556 114.464 538.556 114.808V114.998C538.556 115.36 538.659 115.429 538.952 115.429ZM545.933 119.6C546.295 119.6 546.329 119.169 546.639 119.169C546.881 119.169 547.708 119.565 548.863 119.565C550.776 119.565 552.068 118.565 552.068 117.083C552.068 115.274 550.345 114.774 548.587 114.343C546.794 113.895 546.019 113.688 546.019 112.757C546.019 112.068 546.605 111.551 547.587 111.551C548.725 111.551 549.879 112.223 550.741 113.033C550.896 113.171 551.086 113.343 551.241 113.343C551.396 113.343 551.534 113.223 551.534 113.033C551.534 112.861 551.344 112.516 551.172 112.223L550.638 111.31C550.448 111 550.31 110.741 550.052 110.741C549.742 110.741 549.742 111.086 549.466 111.086C549.207 111.086 548.466 110.775 547.518 110.775C545.812 110.775 544.744 111.792 544.744 113.033C544.744 114.705 546.639 115.187 548.242 115.584C549.879 115.963 550.793 116.187 550.793 117.238C550.793 118.1 550.035 118.79 548.828 118.79C547.604 118.79 546.432 118.083 545.295 116.963C545.14 116.808 544.95 116.635 544.795 116.635C544.606 116.635 544.485 116.756 544.485 116.963C544.485 117.152 544.623 117.376 544.95 118.048L545.467 119.117C545.571 119.324 545.691 119.6 545.933 119.6ZM561.339 117.428L560.891 114.205C560.719 112.947 560.34 110.775 558.168 110.775C556.875 110.775 556.014 111.534 555.445 112.43V106.725C555.445 106.553 555.376 106.381 555.186 106.381C554.997 106.381 554.824 106.432 554.032 106.829C553.239 107.225 552.98 107.415 552.98 107.656C552.98 108.294 554.239 107.673 554.239 108.725V117.6C554.239 119.031 553.118 118.497 553.118 119.117C553.118 119.255 553.222 119.427 553.463 119.427C553.825 119.427 554.325 119.375 554.842 119.375C555.376 119.375 555.91 119.427 556.272 119.427C556.479 119.427 556.582 119.255 556.582 119.117C556.582 118.497 555.445 119.031 555.445 117.6V114.55C555.445 112.775 556.651 111.861 557.772 111.861C559.254 111.861 559.547 113.499 559.667 114.291L560.115 117.428C560.133 117.566 560.15 117.738 560.15 117.842C560.15 118.962 558.944 118.497 558.944 119.1C558.944 119.307 559.116 119.427 559.374 119.427C559.857 119.427 560.133 119.375 560.788 119.375C561.408 119.375 561.753 119.427 562.218 119.427C562.442 119.427 562.632 119.341 562.632 119.134C562.632 118.462 561.563 119.083 561.339 117.428ZM567.596 119.668C570.164 119.668 572.094 117.738 572.094 115.136C572.094 112.464 570.25 110.655 567.751 110.655C565.183 110.655 563.253 112.585 563.253 115.205C563.253 117.859 565.097 119.668 567.596 119.668ZM567.924 118.858C565.959 118.858 564.546 116.911 564.546 114.619C564.546 112.878 565.666 111.465 567.424 111.465C569.389 111.465 570.802 113.412 570.802 115.722C570.802 117.445 569.682 118.858 567.924 118.858ZM586.749 110.896C586.301 110.896 585.887 110.948 585.387 110.948C584.939 110.948 584.474 110.896 584.146 110.896C583.905 110.896 583.715 110.982 583.715 111.206C583.715 111.758 584.819 111.517 584.819 112.309C584.819 112.464 584.767 112.706 584.56 113.223L582.612 117.997L580.855 113.206C580.682 112.757 580.613 112.499 580.613 112.327C580.613 111.689 581.802 111.758 581.802 111.206C581.802 110.982 581.63 110.896 581.389 110.896C581.044 110.896 580.458 110.948 579.855 110.948C579.2 110.948 578.89 110.896 578.459 110.896C578.252 110.896 578.08 110.982 578.08 111.172C578.08 111.689 578.907 111.517 579.286 112.533L579.493 113.068L577.425 117.979L575.426 113.206C575.271 112.844 575.184 112.413 575.184 112.309C575.184 111.517 576.201 111.758 576.201 111.206C576.201 110.982 576.012 110.896 575.805 110.896C575.46 110.896 575.012 110.948 574.426 110.948C573.754 110.948 573.306 110.896 572.858 110.896C572.651 110.896 572.479 110.982 572.479 111.172C572.479 111.689 573.392 111.534 573.823 112.533L576.546 118.962C576.684 119.272 576.787 119.444 577.201 119.444C577.735 119.444 577.77 119.203 577.873 118.979L579.924 114.222L581.734 118.962C581.854 119.272 581.992 119.444 582.406 119.444C582.802 119.444 582.923 119.307 583.061 118.979L585.801 112.551C586.232 111.534 587.145 111.689 587.145 111.172C587.145 110.982 586.938 110.896 586.749 110.896ZM588.969 119.6C589.33 119.6 589.365 119.169 589.675 119.169C589.916 119.169 590.744 119.565 591.898 119.565C593.811 119.565 595.104 118.565 595.104 117.083C595.104 115.274 593.381 114.774 591.623 114.343C589.83 113.895 589.055 113.688 589.055 112.757C589.055 112.068 589.641 111.551 590.623 111.551C591.761 111.551 592.915 112.223 593.777 113.033C593.932 113.171 594.122 113.343 594.277 113.343C594.432 113.343 594.57 113.223 594.57 113.033C594.57 112.861 594.38 112.516 594.208 112.223L593.674 111.31C593.484 111 593.346 110.741 593.088 110.741C592.777 110.741 592.777 111.086 592.502 111.086C592.243 111.086 591.502 110.775 590.554 110.775C588.848 110.775 587.779 111.792 587.779 113.033C587.779 114.705 589.675 115.187 591.278 115.584C592.915 115.963 593.829 116.187 593.829 117.238C593.829 118.1 593.07 118.79 591.864 118.79C590.64 118.79 589.468 118.083 588.331 116.963C588.176 116.808 587.986 116.635 587.831 116.635C587.641 116.635 587.521 116.756 587.521 116.963C587.521 117.152 587.659 117.376 587.986 118.048L588.503 119.117C588.607 119.324 588.727 119.6 588.969 119.6Z" fill="white"/>
<path d="M198.302 66.597C198.512 66.597 198.713 66.5166 198.863 66.373C199.013 66.2295 199.098 66.0344 199.101 65.83V59.582C199.101 59.3757 199.017 59.1779 198.867 59.032C198.717 58.8861 198.514 58.8042 198.302 58.8042C198.089 58.8042 197.886 58.8861 197.736 59.032C197.586 59.1779 197.502 59.3757 197.502 59.582V65.83C197.505 66.0344 197.59 66.2295 197.74 66.373C197.89 66.5166 198.091 66.597 198.302 66.597V66.597Z" fill="white"/>
<path d="M202.147 66.597C202.357 66.597 202.559 66.5166 202.708 66.373C202.858 66.2295 202.943 66.0344 202.946 65.83V59.582C202.946 59.3757 202.862 59.1779 202.712 59.032C202.562 58.8861 202.359 58.8042 202.147 58.8042C201.935 58.8042 201.731 58.8861 201.581 59.032C201.431 59.1779 201.347 59.3757 201.347 59.582V65.83C201.35 66.0344 201.436 66.2295 201.585 66.373C201.735 66.5166 201.937 66.597 202.147 66.597V66.597Z" fill="white"/>
<path d="M205.991 66.597C206.201 66.597 206.403 66.5166 206.553 66.373C206.702 66.2295 206.788 66.0344 206.791 65.83V59.582C206.791 59.3757 206.707 59.1779 206.557 59.032C206.407 58.8861 206.203 58.8042 205.991 58.8042C205.779 58.8042 205.576 58.8861 205.426 59.032C205.276 59.1779 205.192 59.3757 205.192 59.582V65.83C205.195 66.0344 205.28 66.2295 205.43 66.373C205.58 66.5166 205.781 66.597 205.991 66.597V66.597Z" fill="white"/>
<path d="M211.76 53.316H206.643L205.984 51.1706C205.839 50.7044 205.544 50.2957 205.142 50.0041C204.741 49.7125 204.254 49.5534 203.753 49.5498H200.544C200.043 49.5534 199.556 49.7125 199.155 50.0041C198.754 50.2957 198.458 50.7044 198.313 51.1706L197.654 53.316H192.534C192.322 53.316 192.118 53.3979 191.968 53.5438C191.818 53.6897 191.734 53.8875 191.734 54.0938C191.734 54.3001 191.818 54.4979 191.968 54.6438C192.118 54.7897 192.322 54.8716 192.534 54.8716H193.486V69.8458C193.49 70.4126 193.724 70.955 194.137 71.3547C194.55 71.7545 195.108 71.9794 195.691 71.9803H208.628C209.213 71.9794 209.773 71.753 210.187 71.3509C210.6 70.9488 210.833 70.4036 210.834 69.8349V54.8463H211.76C211.972 54.8463 212.175 54.7643 212.325 54.6185C212.475 54.4726 212.559 54.2748 212.559 54.0685C212.559 53.9676 212.538 53.8679 212.497 53.7751C212.456 53.6824 212.397 53.5985 212.322 53.5283C212.248 53.4582 212.16 53.4033 212.063 53.3668C211.966 53.3304 211.863 53.3131 211.76 53.316ZM199.86 51.6156C199.905 51.472 199.995 51.3457 200.118 51.2542C200.241 51.1628 200.39 51.1108 200.544 51.1055H203.776C203.934 51.1042 204.088 51.1539 204.213 51.2469C204.339 51.3398 204.43 51.4708 204.471 51.6192L204.984 53.316H199.306L199.86 51.6156ZM209.235 70.005H209.179C209.137 70.1212 209.06 70.2224 208.958 70.2948C208.855 70.3672 208.733 70.4075 208.606 70.4102H195.691C195.529 70.4073 195.374 70.3429 195.26 70.2307C195.146 70.1185 195.082 69.9674 195.081 69.8096V54.8463H209.235V70.005Z" fill="white"/>
<path d="M320.379 66.597C320.59 66.597 320.791 66.5166 320.941 66.373C321.091 66.2295 321.176 66.0344 321.179 65.83V59.582C321.179 59.3757 321.095 59.1779 320.945 59.032C320.795 58.8861 320.591 58.8042 320.379 58.8042C320.167 58.8042 319.964 58.8861 319.814 59.032C319.664 59.1779 319.58 59.3757 319.58 59.582V65.83C319.583 66.0344 319.668 66.2295 319.818 66.373C319.968 66.5166 320.169 66.597 320.379 66.597V66.597Z" fill="white"/>
<path d="M324.225 66.597C324.435 66.597 324.636 66.5166 324.786 66.373C324.936 66.2295 325.021 66.0344 325.024 65.83V59.582C325.024 59.3757 324.94 59.1779 324.79 59.032C324.64 58.8861 324.437 58.8042 324.225 58.8042C324.013 58.8042 323.809 58.8861 323.659 59.032C323.509 59.1779 323.425 59.3757 323.425 59.582V65.83C323.428 66.0344 323.514 66.2295 323.663 66.373C323.813 66.5166 324.014 66.597 324.225 66.597V66.597Z" fill="white"/>
<path d="M328.069 66.597C328.279 66.597 328.481 66.5166 328.631 66.373C328.78 66.2295 328.866 66.0344 328.869 65.83V59.582C328.869 59.3757 328.785 59.1779 328.635 59.032C328.485 58.8861 328.281 58.8042 328.069 58.8042C327.857 58.8042 327.654 58.8861 327.504 59.032C327.354 59.1779 327.27 59.3757 327.27 59.582V65.83C327.273 66.0344 327.358 66.2295 327.508 66.373C327.657 66.5166 327.859 66.597 328.069 66.597V66.597Z" fill="white"/>
<path d="M333.838 53.316H328.721L328.062 51.1706C327.917 50.7044 327.621 50.2957 327.22 50.0041C326.819 49.7125 326.332 49.5534 325.831 49.5498H322.622C322.121 49.5534 321.634 49.7125 321.233 50.0041C320.832 50.2957 320.536 50.7044 320.391 51.1706L319.732 53.316H314.612C314.4 53.316 314.196 53.3979 314.046 53.5438C313.896 53.6897 313.812 53.8875 313.812 54.0938C313.812 54.3001 313.896 54.4979 314.046 54.6438C314.196 54.7897 314.4 54.8716 314.612 54.8716H315.564V69.8458C315.568 70.4126 315.802 70.955 316.215 71.3547C316.628 71.7545 317.186 71.9794 317.769 71.9803H330.706C331.291 71.9794 331.851 71.753 332.265 71.3509C332.678 70.9488 332.911 70.4036 332.912 69.8349V54.8463H333.838C334.05 54.8463 334.253 54.7643 334.403 54.6185C334.553 54.4726 334.637 54.2748 334.637 54.0685C334.637 53.9676 334.616 53.8679 334.575 53.7751C334.534 53.6824 334.475 53.5985 334.4 53.5283C334.326 53.4582 334.238 53.4033 334.141 53.3668C334.044 53.3304 333.941 53.3131 333.838 53.316ZM321.938 51.6156C321.983 51.472 322.073 51.3457 322.196 51.2542C322.319 51.1628 322.467 51.1108 322.622 51.1055H325.853C326.011 51.1042 326.165 51.1539 326.291 51.2469C326.417 51.3398 326.508 51.4708 326.549 51.6192L327.062 53.316H321.384L321.938 51.6156ZM331.313 70.005H331.257C331.215 70.1212 331.138 70.2224 331.036 70.2948C330.933 70.3672 330.811 70.4075 330.684 70.4102H317.769C317.607 70.4073 317.452 70.3429 317.338 70.2307C317.224 70.1185 317.16 69.9674 317.159 69.8096V54.8463H331.313V70.005Z" fill="white"/>
<path d="M550.891 66.597C551.101 66.597 551.303 66.5166 551.453 66.373C551.602 66.2295 551.688 66.0344 551.691 65.83V59.582C551.691 59.3757 551.607 59.1779 551.457 59.032C551.307 58.8861 551.103 58.8042 550.891 58.8042C550.679 58.8042 550.476 58.8861 550.326 59.032C550.176 59.1779 550.092 59.3757 550.092 59.582V65.83C550.095 66.0344 550.18 66.2295 550.33 66.373C550.479 66.5166 550.681 66.597 550.891 66.597V66.597Z" fill="white"/>
<path d="M554.736 66.597C554.947 66.597 555.148 66.5166 555.298 66.373C555.448 66.2295 555.533 66.0344 555.536 65.83V59.582C555.536 59.3757 555.452 59.1779 555.302 59.032C555.152 58.8861 554.949 58.8042 554.736 58.8042C554.524 58.8042 554.321 58.8861 554.171 59.032C554.021 59.1779 553.937 59.3757 553.937 59.582V65.83C553.94 66.0344 554.025 66.2295 554.175 66.373C554.325 66.5166 554.526 66.597 554.736 66.597V66.597Z" fill="white"/>
<path d="M558.581 66.597C558.791 66.597 558.993 66.5166 559.143 66.373C559.292 66.2295 559.378 66.0344 559.381 65.83V59.582C559.381 59.3757 559.296 59.1779 559.146 59.032C558.997 58.8861 558.793 58.8042 558.581 58.8042C558.369 58.8042 558.166 58.8861 558.016 59.032C557.866 59.1779 557.782 59.3757 557.782 59.582V65.83C557.785 66.0344 557.87 66.2295 558.02 66.373C558.169 66.5166 558.371 66.597 558.581 66.597V66.597Z" fill="white"/>
<path d="M564.349 53.316H559.232L558.574 51.1706C558.428 50.7044 558.133 50.2957 557.732 50.0041C557.33 49.7125 556.844 49.5534 556.343 49.5498H553.134C552.633 49.5534 552.146 49.7125 551.745 50.0041C551.343 50.2957 551.048 50.7044 550.902 51.1706L550.244 53.316H545.123C544.911 53.316 544.708 53.3979 544.558 53.5438C544.408 53.6897 544.324 53.8875 544.324 54.0938C544.324 54.3001 544.408 54.4979 544.558 54.6438C544.708 54.7897 544.911 54.8716 545.123 54.8716H546.075V69.8458C546.079 70.4126 546.313 70.955 546.726 71.3547C547.139 71.7545 547.698 71.9794 548.281 71.9803H561.218C561.803 71.9794 562.363 71.753 562.776 71.3509C563.19 70.9488 563.422 70.4036 563.423 69.8349V54.8463H564.349C564.561 54.8463 564.765 54.7643 564.915 54.6185C565.065 54.4726 565.149 54.2748 565.149 54.0685C565.149 53.9676 565.127 53.8679 565.087 53.7751C565.046 53.6824 564.987 53.5985 564.912 53.5283C564.838 53.4582 564.75 53.4033 564.653 53.3668C564.556 53.3304 564.453 53.3131 564.349 53.316ZM552.449 51.6156C552.495 51.472 552.585 51.3457 552.708 51.2542C552.83 51.1628 552.979 51.1108 553.134 51.1055H556.365C556.523 51.1042 556.677 51.1539 556.803 51.2469C556.929 51.3398 557.02 51.4708 557.061 51.6192L557.574 53.316H551.895L552.449 51.6156ZM561.824 70.005H561.769C561.727 70.1212 561.65 70.2224 561.547 70.2948C561.445 70.3672 561.322 70.4075 561.196 70.4102H548.281C548.119 70.4073 547.964 70.3429 547.85 70.2307C547.736 70.1185 547.672 69.9674 547.671 69.8096V54.8463H561.824V70.005Z" fill="white"/>
<line x1="202.685" y1="0.179526" x2="202.685" y2="42.9068" stroke="white" stroke-width="0.359053" stroke-linecap="round" stroke-linejoin="round" stroke-dasharray="0.36 2.15"/>
<line x1="324.763" y1="0.179526" x2="324.763" y2="42.9068" stroke="white" stroke-width="0.359053" stroke-linecap="round" stroke-linejoin="round" stroke-dasharray="0.36 2.15"/>
<line x1="555.275" y1="0.179526" x2="555.275" y2="42.9068" stroke="white" stroke-width="0.359053" stroke-linecap="round" stroke-linejoin="round" stroke-dasharray="0.36 2.15"/>
</svg>
