<svg width="307" height="287" viewBox="0 0 307 287" fill="none" xmlns="http://www.w3.org/2000/svg">
<rect x="73.4667" y="34.4667" width="160.067" height="32.6713" rx="5.13406" fill="#75B2F6" fill-opacity="0.15" stroke="#75B2F6" stroke-width="0.933466"/>
<path d="M93.6272 56V46.228H97.5192C98.3965 46.228 99.0685 46.48 99.5352 46.984C100.011 47.4787 100.249 48.16 100.249 49.028C100.249 49.896 100.011 50.582 99.5352 51.086C99.0685 51.5807 98.3965 51.828 97.5192 51.828H94.8032V56H93.6272ZM94.8032 50.792H97.5192C97.9859 50.792 98.3452 50.6707 98.5972 50.428C98.8585 50.1853 98.9892 49.84 98.9892 49.392V48.664C98.9892 48.216 98.8585 47.8707 98.5972 47.628C98.3452 47.3853 97.9859 47.264 97.5192 47.264H94.8032V50.792ZM101.869 56V48.776H102.989V50.106H103.059C103.189 49.7607 103.423 49.4527 103.759 49.182C104.095 48.9113 104.557 48.776 105.145 48.776H105.579V49.896H104.921C104.314 49.896 103.838 50.0127 103.493 50.246C103.157 50.47 102.989 50.7547 102.989 51.1V56H101.869ZM109.657 56.168C109.162 56.168 108.714 56.0793 108.313 55.902C107.921 55.7247 107.58 55.4727 107.291 55.146C107.011 54.81 106.792 54.4133 106.633 53.956C106.484 53.4893 106.409 52.9667 106.409 52.388C106.409 51.8187 106.484 51.3007 106.633 50.834C106.792 50.3673 107.011 49.9707 107.291 49.644C107.58 49.308 107.921 49.0513 108.313 48.874C108.714 48.6967 109.162 48.608 109.657 48.608C110.142 48.608 110.576 48.6967 110.959 48.874C111.342 49.0513 111.668 49.2987 111.939 49.616C112.21 49.924 112.415 50.2927 112.555 50.722C112.704 51.1513 112.779 51.6227 112.779 52.136V52.668H107.585V53.004C107.585 53.312 107.632 53.6013 107.725 53.872C107.828 54.1333 107.968 54.362 108.145 54.558C108.332 54.754 108.556 54.908 108.817 55.02C109.088 55.132 109.391 55.188 109.727 55.188C110.184 55.188 110.581 55.0807 110.917 54.866C111.262 54.6513 111.528 54.3433 111.715 53.942L112.513 54.516C112.28 55.0107 111.916 55.412 111.421 55.72C110.926 56.0187 110.338 56.168 109.657 56.168ZM109.657 49.546C109.349 49.546 109.069 49.602 108.817 49.714C108.565 49.8167 108.346 49.966 108.159 50.162C107.982 50.358 107.842 50.5913 107.739 50.862C107.636 51.1233 107.585 51.4127 107.585 51.73V51.828H111.575V51.674C111.575 51.03 111.398 50.5167 111.043 50.134C110.698 49.742 110.236 49.546 109.657 49.546ZM114.625 48.776H115.745V49.952H115.801C115.987 49.4947 116.258 49.1587 116.613 48.944C116.977 48.72 117.411 48.608 117.915 48.608C118.363 48.608 118.769 48.6967 119.133 48.874C119.497 49.0513 119.805 49.3033 120.057 49.63C120.318 49.9567 120.514 50.3533 120.645 50.82C120.785 51.2867 120.855 51.8093 120.855 52.388C120.855 52.9667 120.785 53.4893 120.645 53.956C120.514 54.4227 120.318 54.8193 120.057 55.146C119.805 55.4727 119.497 55.7247 119.133 55.902C118.769 56.0793 118.363 56.168 117.915 56.168C116.935 56.168 116.23 55.72 115.801 54.824H115.745V58.8H114.625V48.776ZM117.607 55.16C118.241 55.16 118.741 54.964 119.105 54.572C119.469 54.1707 119.651 53.648 119.651 53.004V51.772C119.651 51.128 119.469 50.61 119.105 50.218C118.741 49.8167 118.241 49.616 117.607 49.616C117.355 49.616 117.112 49.6533 116.879 49.728C116.655 49.7933 116.459 49.8867 116.291 50.008C116.123 50.1293 115.987 50.2787 115.885 50.456C115.791 50.624 115.745 50.806 115.745 51.002V53.69C115.745 53.9233 115.791 54.1333 115.885 54.32C115.987 54.4973 116.123 54.6513 116.291 54.782C116.459 54.9033 116.655 54.9967 116.879 55.062C117.112 55.1273 117.355 55.16 117.607 55.16ZM122.746 48.776H123.866V49.952H123.922C124.108 49.4947 124.379 49.1587 124.734 48.944C125.098 48.72 125.532 48.608 126.036 48.608C126.484 48.608 126.89 48.6967 127.254 48.874C127.618 49.0513 127.926 49.3033 128.178 49.63C128.439 49.9567 128.635 50.3533 128.766 50.82C128.906 51.2867 128.976 51.8093 128.976 52.388C128.976 52.9667 128.906 53.4893 128.766 53.956C128.635 54.4227 128.439 54.8193 128.178 55.146C127.926 55.4727 127.618 55.7247 127.254 55.902C126.89 56.0793 126.484 56.168 126.036 56.168C125.056 56.168 124.351 55.72 123.922 54.824H123.866V58.8H122.746V48.776ZM125.728 55.16C126.362 55.16 126.862 54.964 127.226 54.572C127.59 54.1707 127.772 53.648 127.772 53.004V51.772C127.772 51.128 127.59 50.61 127.226 50.218C126.862 49.8167 126.362 49.616 125.728 49.616C125.476 49.616 125.233 49.6533 125 49.728C124.776 49.7933 124.58 49.8867 124.412 50.008C124.244 50.1293 124.108 50.2787 124.006 50.456C123.912 50.624 123.866 50.806 123.866 51.002V53.69C123.866 53.9233 123.912 54.1333 124.006 54.32C124.108 54.4973 124.244 54.6513 124.412 54.782C124.58 54.9033 124.776 54.9967 125 55.062C125.233 55.1273 125.476 55.16 125.728 55.16ZM133.583 56.168C133.088 56.168 132.64 56.0793 132.239 55.902C131.847 55.7247 131.506 55.4727 131.217 55.146C130.937 54.81 130.717 54.4133 130.559 53.956C130.409 53.4893 130.335 52.9667 130.335 52.388C130.335 51.8187 130.409 51.3007 130.559 50.834C130.717 50.3673 130.937 49.9707 131.217 49.644C131.506 49.308 131.847 49.0513 132.239 48.874C132.64 48.6967 133.088 48.608 133.583 48.608C134.068 48.608 134.502 48.6967 134.885 48.874C135.267 49.0513 135.594 49.2987 135.865 49.616C136.135 49.924 136.341 50.2927 136.481 50.722C136.63 51.1513 136.705 51.6227 136.705 52.136V52.668H131.511V53.004C131.511 53.312 131.557 53.6013 131.651 53.872C131.753 54.1333 131.893 54.362 132.071 54.558C132.257 54.754 132.481 54.908 132.743 55.02C133.013 55.132 133.317 55.188 133.653 55.188C134.11 55.188 134.507 55.0807 134.843 54.866C135.188 54.6513 135.454 54.3433 135.641 53.942L136.439 54.516C136.205 55.0107 135.841 55.412 135.347 55.72C134.852 56.0187 134.264 56.168 133.583 56.168ZM133.583 49.546C133.275 49.546 132.995 49.602 132.743 49.714C132.491 49.8167 132.271 49.966 132.085 50.162C131.907 50.358 131.767 50.5913 131.665 50.862C131.562 51.1233 131.511 51.4127 131.511 51.73V51.828H135.501V51.674C135.501 51.03 135.323 50.5167 134.969 50.134C134.623 49.742 134.161 49.546 133.583 49.546ZM143.17 54.824H143.114C142.676 55.72 141.971 56.168 141 56.168C140.552 56.168 140.146 56.0793 139.782 55.902C139.418 55.7247 139.106 55.4727 138.844 55.146C138.592 54.8193 138.396 54.4227 138.256 53.956C138.126 53.4893 138.06 52.9667 138.06 52.388C138.06 51.8093 138.126 51.2867 138.256 50.82C138.396 50.3533 138.592 49.9567 138.844 49.63C139.106 49.3033 139.418 49.0513 139.782 48.874C140.146 48.6967 140.552 48.608 141 48.608C141.504 48.608 141.934 48.72 142.288 48.944C142.652 49.1587 142.928 49.4947 143.114 49.952H143.17V45.64H144.29V56H143.17V54.824ZM141.308 55.16C141.56 55.16 141.798 55.1273 142.022 55.062C142.256 54.9967 142.456 54.9033 142.624 54.782C142.792 54.6513 142.923 54.4973 143.016 54.32C143.119 54.1333 143.17 53.9233 143.17 53.69V51.002C143.17 50.806 143.119 50.624 143.016 50.456C142.923 50.2787 142.792 50.1293 142.624 50.008C142.456 49.8867 142.256 49.7933 142.022 49.728C141.798 49.6533 141.56 49.616 141.308 49.616C140.674 49.616 140.174 49.8167 139.81 50.218C139.446 50.61 139.264 51.128 139.264 51.772V53.004C139.264 53.648 139.446 54.1707 139.81 54.572C140.174 54.964 140.674 55.16 141.308 55.16ZM149.63 56V55.02H151.002V47.208H149.63V46.228H153.55V47.208H152.178V55.02H153.55V56H149.63ZM155.586 56V48.776H156.706V49.952H156.762C156.939 49.5413 157.186 49.2147 157.504 48.972C157.83 48.7293 158.264 48.608 158.806 48.608C159.552 48.608 160.14 48.8507 160.57 49.336C161.008 49.812 161.228 50.4887 161.228 51.366V56H160.108V51.562C160.108 50.2647 159.562 49.616 158.47 49.616C158.246 49.616 158.026 49.644 157.812 49.7C157.606 49.756 157.42 49.84 157.252 49.952C157.084 50.064 156.948 50.2087 156.846 50.386C156.752 50.554 156.706 50.7547 156.706 50.988V56H155.586ZM169.633 56.798C169.633 57.5447 169.339 58.0907 168.751 58.436C168.172 58.7907 167.299 58.968 166.133 58.968C165.003 58.968 164.191 58.814 163.697 58.506C163.202 58.198 162.955 57.7593 162.955 57.19C162.955 56.798 163.057 56.49 163.263 56.266C163.468 56.0513 163.748 55.8927 164.103 55.79V55.636C163.673 55.4307 163.459 55.0947 163.459 54.628C163.459 54.264 163.575 53.9887 163.809 53.802C164.042 53.606 164.341 53.4613 164.705 53.368V53.312C164.275 53.1067 163.939 52.8127 163.697 52.43C163.463 52.0473 163.347 51.604 163.347 51.1C163.347 50.736 163.412 50.4 163.543 50.092C163.673 49.784 163.855 49.5227 164.089 49.308C164.331 49.084 164.616 48.9113 164.943 48.79C165.279 48.6687 165.652 48.608 166.063 48.608C166.576 48.608 167.033 48.7013 167.435 48.888V48.762C167.435 48.482 167.5 48.2533 167.631 48.076C167.761 47.8893 167.976 47.796 168.275 47.796H169.353V48.776H167.981V49.238C168.242 49.462 168.443 49.7327 168.583 50.05C168.732 50.358 168.807 50.708 168.807 51.1C168.807 51.464 168.741 51.8 168.611 52.108C168.48 52.416 168.293 52.682 168.051 52.906C167.817 53.1207 167.533 53.2887 167.197 53.41C166.861 53.5313 166.487 53.592 166.077 53.592C165.843 53.592 165.61 53.5687 165.377 53.522C165.134 53.5873 164.915 53.6853 164.719 53.816C164.523 53.9373 164.425 54.11 164.425 54.334C164.425 54.5487 164.527 54.6933 164.733 54.768C164.938 54.8427 165.204 54.88 165.531 54.88H167.071C167.967 54.88 168.615 55.0527 169.017 55.398C169.427 55.734 169.633 56.2007 169.633 56.798ZM168.583 56.882C168.583 56.5927 168.471 56.3593 168.247 56.182C168.032 56.014 167.645 55.93 167.085 55.93H164.677C164.229 56.1353 164.005 56.462 164.005 56.91C164.005 57.2273 164.121 57.498 164.355 57.722C164.597 57.946 165.003 58.058 165.573 58.058H166.609C167.234 58.058 167.719 57.96 168.065 57.764C168.41 57.568 168.583 57.274 168.583 56.882ZM166.077 52.696C166.553 52.696 166.931 52.584 167.211 52.36C167.491 52.1267 167.631 51.772 167.631 51.296V50.904C167.631 50.428 167.491 50.078 167.211 49.854C166.931 49.6207 166.553 49.504 166.077 49.504C165.601 49.504 165.223 49.6207 164.943 49.854C164.663 50.078 164.523 50.428 164.523 50.904V51.296C164.523 51.772 164.663 52.1267 164.943 52.36C165.223 52.584 165.601 52.696 166.077 52.696ZM170.939 56V48.776H172.059V50.106H172.129C172.26 49.7607 172.493 49.4527 172.829 49.182C173.165 48.9113 173.627 48.776 174.215 48.776H174.649V49.896H173.991C173.384 49.896 172.908 50.0127 172.563 50.246C172.227 50.47 172.059 50.7547 172.059 51.1V56H170.939ZM178.727 56.168C178.233 56.168 177.785 56.0793 177.383 55.902C176.991 55.7247 176.651 55.4727 176.361 55.146C176.081 54.81 175.862 54.4133 175.703 53.956C175.554 53.4893 175.479 52.9667 175.479 52.388C175.479 51.8187 175.554 51.3007 175.703 50.834C175.862 50.3673 176.081 49.9707 176.361 49.644C176.651 49.308 176.991 49.0513 177.383 48.874C177.785 48.6967 178.233 48.608 178.727 48.608C179.213 48.608 179.647 48.6967 180.029 48.874C180.412 49.0513 180.739 49.2987 181.009 49.616C181.28 49.924 181.485 50.2927 181.625 50.722C181.775 51.1513 181.849 51.6227 181.849 52.136V52.668H176.655V53.004C176.655 53.312 176.702 53.6013 176.795 53.872C176.898 54.1333 177.038 54.362 177.215 54.558C177.402 54.754 177.626 54.908 177.887 55.02C178.158 55.132 178.461 55.188 178.797 55.188C179.255 55.188 179.651 55.0807 179.987 54.866C180.333 54.6513 180.599 54.3433 180.785 53.942L181.583 54.516C181.35 55.0107 180.986 55.412 180.491 55.72C179.997 56.0187 179.409 56.168 178.727 56.168ZM178.727 49.546C178.419 49.546 178.139 49.602 177.887 49.714C177.635 49.8167 177.416 49.966 177.229 50.162C177.052 50.358 176.912 50.5913 176.809 50.862C176.707 51.1233 176.655 51.4127 176.655 51.73V51.828H180.645V51.674C180.645 51.03 180.468 50.5167 180.113 50.134C179.768 49.742 179.306 49.546 178.727 49.546ZM188.315 54.824H188.259C187.82 55.72 187.116 56.168 186.145 56.168C185.697 56.168 185.291 56.0793 184.927 55.902C184.563 55.7247 184.25 55.4727 183.989 55.146C183.737 54.8193 183.541 54.4227 183.401 53.956C183.27 53.4893 183.205 52.9667 183.205 52.388C183.205 51.8093 183.27 51.2867 183.401 50.82C183.541 50.3533 183.737 49.9567 183.989 49.63C184.25 49.3033 184.563 49.0513 184.927 48.874C185.291 48.6967 185.697 48.608 186.145 48.608C186.649 48.608 187.078 48.72 187.433 48.944C187.797 49.1587 188.072 49.4947 188.259 49.952H188.315V45.64H189.435V56H188.315V54.824ZM186.453 55.16C186.705 55.16 186.943 55.1273 187.167 55.062C187.4 54.9967 187.601 54.9033 187.769 54.782C187.937 54.6513 188.068 54.4973 188.161 54.32C188.264 54.1333 188.315 53.9233 188.315 53.69V51.002C188.315 50.806 188.264 50.624 188.161 50.456C188.068 50.2787 187.937 50.1293 187.769 50.008C187.601 49.8867 187.4 49.7933 187.167 49.728C186.943 49.6533 186.705 49.616 186.453 49.616C185.818 49.616 185.319 49.8167 184.955 50.218C184.591 50.61 184.409 51.128 184.409 51.772V53.004C184.409 53.648 184.591 54.1707 184.955 54.572C185.319 54.964 185.818 55.16 186.453 55.16ZM192.376 47.082C192.133 47.082 191.956 47.026 191.844 46.914C191.741 46.7927 191.69 46.6387 191.69 46.452V46.27C191.69 46.0833 191.741 45.934 191.844 45.822C191.956 45.7007 192.133 45.64 192.376 45.64C192.619 45.64 192.791 45.7007 192.894 45.822C193.006 45.934 193.062 46.0833 193.062 46.27V46.452C193.062 46.6387 193.006 46.7927 192.894 46.914C192.791 47.026 192.619 47.082 192.376 47.082ZM191.816 48.776H192.936V56H191.816V48.776ZM198.032 56.168C197.537 56.168 197.089 56.0793 196.688 55.902C196.296 55.7247 195.955 55.4727 195.666 55.146C195.386 54.81 195.167 54.4133 195.008 53.956C194.859 53.4893 194.784 52.9667 194.784 52.388C194.784 51.8187 194.859 51.3007 195.008 50.834C195.167 50.3673 195.386 49.9707 195.666 49.644C195.955 49.308 196.296 49.0513 196.688 48.874C197.089 48.6967 197.537 48.608 198.032 48.608C198.517 48.608 198.951 48.6967 199.334 48.874C199.717 49.0513 200.043 49.2987 200.314 49.616C200.585 49.924 200.79 50.2927 200.93 50.722C201.079 51.1513 201.154 51.6227 201.154 52.136V52.668H195.96V53.004C195.96 53.312 196.007 53.6013 196.1 53.872C196.203 54.1333 196.343 54.362 196.52 54.558C196.707 54.754 196.931 54.908 197.192 55.02C197.463 55.132 197.766 55.188 198.102 55.188C198.559 55.188 198.956 55.0807 199.292 54.866C199.637 54.6513 199.903 54.3433 200.09 53.942L200.888 54.516C200.655 55.0107 200.291 55.412 199.796 55.72C199.301 56.0187 198.713 56.168 198.032 56.168ZM198.032 49.546C197.724 49.546 197.444 49.602 197.192 49.714C196.94 49.8167 196.721 49.966 196.534 50.162C196.357 50.358 196.217 50.5913 196.114 50.862C196.011 51.1233 195.96 51.4127 195.96 51.73V51.828H199.95V51.674C199.95 51.03 199.773 50.5167 199.418 50.134C199.073 49.742 198.611 49.546 198.032 49.546ZM203 56V48.776H204.12V49.952H204.176C204.353 49.5413 204.6 49.2147 204.918 48.972C205.244 48.7293 205.678 48.608 206.22 48.608C206.966 48.608 207.554 48.8507 207.984 49.336C208.422 49.812 208.642 50.4887 208.642 51.366V56H207.522V51.562C207.522 50.2647 206.976 49.616 205.884 49.616C205.66 49.616 205.44 49.644 205.226 49.7C205.02 49.756 204.834 49.84 204.666 49.952C204.498 50.064 204.362 50.2087 204.26 50.386C204.166 50.554 204.12 50.7547 204.12 50.988V56H203ZM212.553 56C212.161 56 211.862 55.8927 211.657 55.678C211.461 55.454 211.363 55.1647 211.363 54.81V49.756H210.173V48.776H210.845C211.087 48.776 211.251 48.7293 211.335 48.636C211.428 48.5333 211.475 48.3607 211.475 48.118V46.774H212.483V48.776H214.065V49.756H212.483V55.02H213.953V56H212.553Z" fill="#EFEFEF"/>
<rect x="73.4667" y="76.4667" width="160.067" height="32.6713" rx="5.13406" fill="#75B2F6" fill-opacity="0.15" stroke="#75B2F6" stroke-width="0.933466"/>
<path d="M93.6272 98V88.228H97.5192C98.3965 88.228 99.0685 88.48 99.5352 88.984C100.011 89.4787 100.249 90.16 100.249 91.028C100.249 91.896 100.011 92.582 99.5352 93.086C99.0685 93.5807 98.3965 93.828 97.5192 93.828H94.8032V98H93.6272ZM94.8032 92.792H97.5192C97.9859 92.792 98.3452 92.6707 98.5972 92.428C98.8585 92.1853 98.9892 91.84 98.9892 91.392V90.664C98.9892 90.216 98.8585 89.8707 98.5972 89.628C98.3452 89.3853 97.9859 89.264 97.5192 89.264H94.8032V92.792ZM101.869 98V90.776H102.989V92.106H103.059C103.189 91.7607 103.423 91.4527 103.759 91.182C104.095 90.9113 104.557 90.776 105.145 90.776H105.579V91.896H104.921C104.314 91.896 103.838 92.0127 103.493 92.246C103.157 92.47 102.989 92.7547 102.989 93.1V98H101.869ZM109.657 98.168C109.162 98.168 108.714 98.0793 108.313 97.902C107.921 97.7247 107.58 97.4727 107.291 97.146C107.011 96.81 106.792 96.4133 106.633 95.956C106.484 95.4893 106.409 94.9667 106.409 94.388C106.409 93.8187 106.484 93.3007 106.633 92.834C106.792 92.3673 107.011 91.9707 107.291 91.644C107.58 91.308 107.921 91.0513 108.313 90.874C108.714 90.6967 109.162 90.608 109.657 90.608C110.142 90.608 110.576 90.6967 110.959 90.874C111.342 91.0513 111.668 91.2987 111.939 91.616C112.21 91.924 112.415 92.2927 112.555 92.722C112.704 93.1513 112.779 93.6227 112.779 94.136V94.668H107.585V95.004C107.585 95.312 107.632 95.6013 107.725 95.872C107.828 96.1333 107.968 96.362 108.145 96.558C108.332 96.754 108.556 96.908 108.817 97.02C109.088 97.132 109.391 97.188 109.727 97.188C110.184 97.188 110.581 97.0807 110.917 96.866C111.262 96.6513 111.528 96.3433 111.715 95.942L112.513 96.516C112.28 97.0107 111.916 97.412 111.421 97.72C110.926 98.0187 110.338 98.168 109.657 98.168ZM109.657 91.546C109.349 91.546 109.069 91.602 108.817 91.714C108.565 91.8167 108.346 91.966 108.159 92.162C107.982 92.358 107.842 92.5913 107.739 92.862C107.636 93.1233 107.585 93.4127 107.585 93.73V93.828H111.575V93.674C111.575 93.03 111.398 92.5167 111.043 92.134C110.698 91.742 110.236 91.546 109.657 91.546ZM114.625 90.776H115.745V91.952H115.801C115.987 91.4947 116.258 91.1587 116.613 90.944C116.977 90.72 117.411 90.608 117.915 90.608C118.363 90.608 118.769 90.6967 119.133 90.874C119.497 91.0513 119.805 91.3033 120.057 91.63C120.318 91.9567 120.514 92.3533 120.645 92.82C120.785 93.2867 120.855 93.8093 120.855 94.388C120.855 94.9667 120.785 95.4893 120.645 95.956C120.514 96.4227 120.318 96.8193 120.057 97.146C119.805 97.4727 119.497 97.7247 119.133 97.902C118.769 98.0793 118.363 98.168 117.915 98.168C116.935 98.168 116.23 97.72 115.801 96.824H115.745V100.8H114.625V90.776ZM117.607 97.16C118.241 97.16 118.741 96.964 119.105 96.572C119.469 96.1707 119.651 95.648 119.651 95.004V93.772C119.651 93.128 119.469 92.61 119.105 92.218C118.741 91.8167 118.241 91.616 117.607 91.616C117.355 91.616 117.112 91.6533 116.879 91.728C116.655 91.7933 116.459 91.8867 116.291 92.008C116.123 92.1293 115.987 92.2787 115.885 92.456C115.791 92.624 115.745 92.806 115.745 93.002V95.69C115.745 95.9233 115.791 96.1333 115.885 96.32C115.987 96.4973 116.123 96.6513 116.291 96.782C116.459 96.9033 116.655 96.9967 116.879 97.062C117.112 97.1273 117.355 97.16 117.607 97.16ZM122.746 90.776H123.866V91.952H123.922C124.108 91.4947 124.379 91.1587 124.734 90.944C125.098 90.72 125.532 90.608 126.036 90.608C126.484 90.608 126.89 90.6967 127.254 90.874C127.618 91.0513 127.926 91.3033 128.178 91.63C128.439 91.9567 128.635 92.3533 128.766 92.82C128.906 93.2867 128.976 93.8093 128.976 94.388C128.976 94.9667 128.906 95.4893 128.766 95.956C128.635 96.4227 128.439 96.8193 128.178 97.146C127.926 97.4727 127.618 97.7247 127.254 97.902C126.89 98.0793 126.484 98.168 126.036 98.168C125.056 98.168 124.351 97.72 123.922 96.824H123.866V100.8H122.746V90.776ZM125.728 97.16C126.362 97.16 126.862 96.964 127.226 96.572C127.59 96.1707 127.772 95.648 127.772 95.004V93.772C127.772 93.128 127.59 92.61 127.226 92.218C126.862 91.8167 126.362 91.616 125.728 91.616C125.476 91.616 125.233 91.6533 125 91.728C124.776 91.7933 124.58 91.8867 124.412 92.008C124.244 92.1293 124.108 92.2787 124.006 92.456C123.912 92.624 123.866 92.806 123.866 93.002V95.69C123.866 95.9233 123.912 96.1333 124.006 96.32C124.108 96.4973 124.244 96.6513 124.412 96.782C124.58 96.9033 124.776 96.9967 125 97.062C125.233 97.1273 125.476 97.16 125.728 97.16ZM133.583 98.168C133.088 98.168 132.64 98.0793 132.239 97.902C131.847 97.7247 131.506 97.4727 131.217 97.146C130.937 96.81 130.717 96.4133 130.559 95.956C130.409 95.4893 130.335 94.9667 130.335 94.388C130.335 93.8187 130.409 93.3007 130.559 92.834C130.717 92.3673 130.937 91.9707 131.217 91.644C131.506 91.308 131.847 91.0513 132.239 90.874C132.64 90.6967 133.088 90.608 133.583 90.608C134.068 90.608 134.502 90.6967 134.885 90.874C135.267 91.0513 135.594 91.2987 135.865 91.616C136.135 91.924 136.341 92.2927 136.481 92.722C136.63 93.1513 136.705 93.6227 136.705 94.136V94.668H131.511V95.004C131.511 95.312 131.557 95.6013 131.651 95.872C131.753 96.1333 131.893 96.362 132.071 96.558C132.257 96.754 132.481 96.908 132.743 97.02C133.013 97.132 133.317 97.188 133.653 97.188C134.11 97.188 134.507 97.0807 134.843 96.866C135.188 96.6513 135.454 96.3433 135.641 95.942L136.439 96.516C136.205 97.0107 135.841 97.412 135.347 97.72C134.852 98.0187 134.264 98.168 133.583 98.168ZM133.583 91.546C133.275 91.546 132.995 91.602 132.743 91.714C132.491 91.8167 132.271 91.966 132.085 92.162C131.907 92.358 131.767 92.5913 131.665 92.862C131.562 93.1233 131.511 93.4127 131.511 93.73V93.828H135.501V93.674C135.501 93.03 135.323 92.5167 134.969 92.134C134.623 91.742 134.161 91.546 133.583 91.546ZM143.17 96.824H143.114C142.676 97.72 141.971 98.168 141 98.168C140.552 98.168 140.146 98.0793 139.782 97.902C139.418 97.7247 139.106 97.4727 138.844 97.146C138.592 96.8193 138.396 96.4227 138.256 95.956C138.126 95.4893 138.06 94.9667 138.06 94.388C138.06 93.8093 138.126 93.2867 138.256 92.82C138.396 92.3533 138.592 91.9567 138.844 91.63C139.106 91.3033 139.418 91.0513 139.782 90.874C140.146 90.6967 140.552 90.608 141 90.608C141.504 90.608 141.934 90.72 142.288 90.944C142.652 91.1587 142.928 91.4947 143.114 91.952H143.17V87.64H144.29V98H143.17V96.824ZM141.308 97.16C141.56 97.16 141.798 97.1273 142.022 97.062C142.256 96.9967 142.456 96.9033 142.624 96.782C142.792 96.6513 142.923 96.4973 143.016 96.32C143.119 96.1333 143.17 95.9233 143.17 95.69V93.002C143.17 92.806 143.119 92.624 143.016 92.456C142.923 92.2787 142.792 92.1293 142.624 92.008C142.456 91.8867 142.256 91.7933 142.022 91.728C141.798 91.6533 141.56 91.616 141.308 91.616C140.674 91.616 140.174 91.8167 139.81 92.218C139.446 92.61 139.264 93.128 139.264 93.772V95.004C139.264 95.648 139.446 96.1707 139.81 96.572C140.174 96.964 140.674 97.16 141.308 97.16ZM149.63 98V97.02H151.002V89.208H149.63V88.228H153.55V89.208H152.178V97.02H153.55V98H149.63ZM155.586 98V90.776H156.706V91.952H156.762C156.939 91.5413 157.186 91.2147 157.504 90.972C157.83 90.7293 158.264 90.608 158.806 90.608C159.552 90.608 160.14 90.8507 160.57 91.336C161.008 91.812 161.228 92.4887 161.228 93.366V98H160.108V93.562C160.108 92.2647 159.562 91.616 158.47 91.616C158.246 91.616 158.026 91.644 157.812 91.7C157.606 91.756 157.42 91.84 157.252 91.952C157.084 92.064 156.948 92.2087 156.846 92.386C156.752 92.554 156.706 92.7547 156.706 92.988V98H155.586ZM169.633 98.798C169.633 99.5447 169.339 100.091 168.751 100.436C168.172 100.791 167.299 100.968 166.133 100.968C165.003 100.968 164.191 100.814 163.697 100.506C163.202 100.198 162.955 99.7593 162.955 99.19C162.955 98.798 163.057 98.49 163.263 98.266C163.468 98.0513 163.748 97.8927 164.103 97.79V97.636C163.673 97.4307 163.459 97.0947 163.459 96.628C163.459 96.264 163.575 95.9887 163.809 95.802C164.042 95.606 164.341 95.4613 164.705 95.368V95.312C164.275 95.1067 163.939 94.8127 163.697 94.43C163.463 94.0473 163.347 93.604 163.347 93.1C163.347 92.736 163.412 92.4 163.543 92.092C163.673 91.784 163.855 91.5227 164.089 91.308C164.331 91.084 164.616 90.9113 164.943 90.79C165.279 90.6687 165.652 90.608 166.063 90.608C166.576 90.608 167.033 90.7013 167.435 90.888V90.762C167.435 90.482 167.5 90.2533 167.631 90.076C167.761 89.8893 167.976 89.796 168.275 89.796H169.353V90.776H167.981V91.238C168.242 91.462 168.443 91.7327 168.583 92.05C168.732 92.358 168.807 92.708 168.807 93.1C168.807 93.464 168.741 93.8 168.611 94.108C168.48 94.416 168.293 94.682 168.051 94.906C167.817 95.1207 167.533 95.2887 167.197 95.41C166.861 95.5313 166.487 95.592 166.077 95.592C165.843 95.592 165.61 95.5687 165.377 95.522C165.134 95.5873 164.915 95.6853 164.719 95.816C164.523 95.9373 164.425 96.11 164.425 96.334C164.425 96.5487 164.527 96.6933 164.733 96.768C164.938 96.8427 165.204 96.88 165.531 96.88H167.071C167.967 96.88 168.615 97.0527 169.017 97.398C169.427 97.734 169.633 98.2007 169.633 98.798ZM168.583 98.882C168.583 98.5927 168.471 98.3593 168.247 98.182C168.032 98.014 167.645 97.93 167.085 97.93H164.677C164.229 98.1353 164.005 98.462 164.005 98.91C164.005 99.2273 164.121 99.498 164.355 99.722C164.597 99.946 165.003 100.058 165.573 100.058H166.609C167.234 100.058 167.719 99.96 168.065 99.764C168.41 99.568 168.583 99.274 168.583 98.882ZM166.077 94.696C166.553 94.696 166.931 94.584 167.211 94.36C167.491 94.1267 167.631 93.772 167.631 93.296V92.904C167.631 92.428 167.491 92.078 167.211 91.854C166.931 91.6207 166.553 91.504 166.077 91.504C165.601 91.504 165.223 91.6207 164.943 91.854C164.663 92.078 164.523 92.428 164.523 92.904V93.296C164.523 93.772 164.663 94.1267 164.943 94.36C165.223 94.584 165.601 94.696 166.077 94.696ZM170.939 98V90.776H172.059V92.106H172.129C172.26 91.7607 172.493 91.4527 172.829 91.182C173.165 90.9113 173.627 90.776 174.215 90.776H174.649V91.896H173.991C173.384 91.896 172.908 92.0127 172.563 92.246C172.227 92.47 172.059 92.7547 172.059 93.1V98H170.939ZM178.727 98.168C178.233 98.168 177.785 98.0793 177.383 97.902C176.991 97.7247 176.651 97.4727 176.361 97.146C176.081 96.81 175.862 96.4133 175.703 95.956C175.554 95.4893 175.479 94.9667 175.479 94.388C175.479 93.8187 175.554 93.3007 175.703 92.834C175.862 92.3673 176.081 91.9707 176.361 91.644C176.651 91.308 176.991 91.0513 177.383 90.874C177.785 90.6967 178.233 90.608 178.727 90.608C179.213 90.608 179.647 90.6967 180.029 90.874C180.412 91.0513 180.739 91.2987 181.009 91.616C181.28 91.924 181.485 92.2927 181.625 92.722C181.775 93.1513 181.849 93.6227 181.849 94.136V94.668H176.655V95.004C176.655 95.312 176.702 95.6013 176.795 95.872C176.898 96.1333 177.038 96.362 177.215 96.558C177.402 96.754 177.626 96.908 177.887 97.02C178.158 97.132 178.461 97.188 178.797 97.188C179.255 97.188 179.651 97.0807 179.987 96.866C180.333 96.6513 180.599 96.3433 180.785 95.942L181.583 96.516C181.35 97.0107 180.986 97.412 180.491 97.72C179.997 98.0187 179.409 98.168 178.727 98.168ZM178.727 91.546C178.419 91.546 178.139 91.602 177.887 91.714C177.635 91.8167 177.416 91.966 177.229 92.162C177.052 92.358 176.912 92.5913 176.809 92.862C176.707 93.1233 176.655 93.4127 176.655 93.73V93.828H180.645V93.674C180.645 93.03 180.468 92.5167 180.113 92.134C179.768 91.742 179.306 91.546 178.727 91.546ZM188.315 96.824H188.259C187.82 97.72 187.116 98.168 186.145 98.168C185.697 98.168 185.291 98.0793 184.927 97.902C184.563 97.7247 184.25 97.4727 183.989 97.146C183.737 96.8193 183.541 96.4227 183.401 95.956C183.27 95.4893 183.205 94.9667 183.205 94.388C183.205 93.8093 183.27 93.2867 183.401 92.82C183.541 92.3533 183.737 91.9567 183.989 91.63C184.25 91.3033 184.563 91.0513 184.927 90.874C185.291 90.6967 185.697 90.608 186.145 90.608C186.649 90.608 187.078 90.72 187.433 90.944C187.797 91.1587 188.072 91.4947 188.259 91.952H188.315V87.64H189.435V98H188.315V96.824ZM186.453 97.16C186.705 97.16 186.943 97.1273 187.167 97.062C187.4 96.9967 187.601 96.9033 187.769 96.782C187.937 96.6513 188.068 96.4973 188.161 96.32C188.264 96.1333 188.315 95.9233 188.315 95.69V93.002C188.315 92.806 188.264 92.624 188.161 92.456C188.068 92.2787 187.937 92.1293 187.769 92.008C187.601 91.8867 187.4 91.7933 187.167 91.728C186.943 91.6533 186.705 91.616 186.453 91.616C185.818 91.616 185.319 91.8167 184.955 92.218C184.591 92.61 184.409 93.128 184.409 93.772V95.004C184.409 95.648 184.591 96.1707 184.955 96.572C185.319 96.964 185.818 97.16 186.453 97.16ZM192.376 89.082C192.133 89.082 191.956 89.026 191.844 88.914C191.741 88.7927 191.69 88.6387 191.69 88.452V88.27C191.69 88.0833 191.741 87.934 191.844 87.822C191.956 87.7007 192.133 87.64 192.376 87.64C192.619 87.64 192.791 87.7007 192.894 87.822C193.006 87.934 193.062 88.0833 193.062 88.27V88.452C193.062 88.6387 193.006 88.7927 192.894 88.914C192.791 89.026 192.619 89.082 192.376 89.082ZM191.816 90.776H192.936V98H191.816V90.776ZM198.032 98.168C197.537 98.168 197.089 98.0793 196.688 97.902C196.296 97.7247 195.955 97.4727 195.666 97.146C195.386 96.81 195.167 96.4133 195.008 95.956C194.859 95.4893 194.784 94.9667 194.784 94.388C194.784 93.8187 194.859 93.3007 195.008 92.834C195.167 92.3673 195.386 91.9707 195.666 91.644C195.955 91.308 196.296 91.0513 196.688 90.874C197.089 90.6967 197.537 90.608 198.032 90.608C198.517 90.608 198.951 90.6967 199.334 90.874C199.717 91.0513 200.043 91.2987 200.314 91.616C200.585 91.924 200.79 92.2927 200.93 92.722C201.079 93.1513 201.154 93.6227 201.154 94.136V94.668H195.96V95.004C195.96 95.312 196.007 95.6013 196.1 95.872C196.203 96.1333 196.343 96.362 196.52 96.558C196.707 96.754 196.931 96.908 197.192 97.02C197.463 97.132 197.766 97.188 198.102 97.188C198.559 97.188 198.956 97.0807 199.292 96.866C199.637 96.6513 199.903 96.3433 200.09 95.942L200.888 96.516C200.655 97.0107 200.291 97.412 199.796 97.72C199.301 98.0187 198.713 98.168 198.032 98.168ZM198.032 91.546C197.724 91.546 197.444 91.602 197.192 91.714C196.94 91.8167 196.721 91.966 196.534 92.162C196.357 92.358 196.217 92.5913 196.114 92.862C196.011 93.1233 195.96 93.4127 195.96 93.73V93.828H199.95V93.674C199.95 93.03 199.773 92.5167 199.418 92.134C199.073 91.742 198.611 91.546 198.032 91.546ZM203 98V90.776H204.12V91.952H204.176C204.353 91.5413 204.6 91.2147 204.918 90.972C205.244 90.7293 205.678 90.608 206.22 90.608C206.966 90.608 207.554 90.8507 207.984 91.336C208.422 91.812 208.642 92.4887 208.642 93.366V98H207.522V93.562C207.522 92.2647 206.976 91.616 205.884 91.616C205.66 91.616 205.44 91.644 205.226 91.7C205.02 91.756 204.834 91.84 204.666 91.952C204.498 92.064 204.362 92.2087 204.26 92.386C204.166 92.554 204.12 92.7547 204.12 92.988V98H203ZM212.553 98C212.161 98 211.862 97.8927 211.657 97.678C211.461 97.454 211.363 97.1647 211.363 96.81V91.756H210.173V90.776H210.845C211.087 90.776 211.251 90.7293 211.335 90.636C211.428 90.5333 211.475 90.3607 211.475 90.118V88.774H212.483V90.776H214.065V91.756H212.483V97.02H213.953V98H212.553Z" fill="#EFEFEF"/>
<rect x="74.4667" y="230.467" width="156.563" height="32.6713" rx="5.13406" fill="#FFBF60" fill-opacity="0.15" stroke="#FFBF60" stroke-width="0.933466"/>
<path d="M127.35 243.768H127.28L126.454 245.406L124.116 249.662L121.778 245.406L120.952 243.768H120.882V252H119.734V242.228H121.302L124.102 247.492H124.172L126.986 242.228H128.498V252H127.35V243.768ZM133.699 252.168C133.205 252.168 132.757 252.079 132.355 251.902C131.963 251.725 131.623 251.473 131.333 251.146C131.053 250.81 130.834 250.413 130.675 249.956C130.526 249.489 130.451 248.967 130.451 248.388C130.451 247.819 130.526 247.301 130.675 246.834C130.834 246.367 131.053 245.971 131.333 245.644C131.623 245.308 131.963 245.051 132.355 244.874C132.757 244.697 133.205 244.608 133.699 244.608C134.185 244.608 134.619 244.697 135.001 244.874C135.384 245.051 135.711 245.299 135.981 245.616C136.252 245.924 136.457 246.293 136.597 246.722C136.747 247.151 136.821 247.623 136.821 248.136V248.668H131.627V249.004C131.627 249.312 131.674 249.601 131.767 249.872C131.87 250.133 132.01 250.362 132.187 250.558C132.374 250.754 132.598 250.908 132.859 251.02C133.13 251.132 133.433 251.188 133.769 251.188C134.227 251.188 134.623 251.081 134.959 250.866C135.305 250.651 135.571 250.343 135.757 249.942L136.555 250.516C136.322 251.011 135.958 251.412 135.463 251.72C134.969 252.019 134.381 252.168 133.699 252.168ZM133.699 245.546C133.391 245.546 133.111 245.602 132.859 245.714C132.607 245.817 132.388 245.966 132.201 246.162C132.024 246.358 131.884 246.591 131.781 246.862C131.679 247.123 131.627 247.413 131.627 247.73V247.828H135.617V247.674C135.617 247.03 135.44 246.517 135.085 246.134C134.74 245.742 134.278 245.546 133.699 245.546ZM138.667 252V244.776H139.787V245.952H139.843C140.02 245.541 140.268 245.215 140.585 244.972C140.912 244.729 141.346 244.608 141.887 244.608C142.634 244.608 143.222 244.851 143.651 245.336C144.09 245.812 144.309 246.489 144.309 247.366V252H143.189V247.562C143.189 246.265 142.643 245.616 141.551 245.616C141.327 245.616 141.108 245.644 140.893 245.7C140.688 245.756 140.501 245.84 140.333 245.952C140.165 246.064 140.03 246.209 139.927 246.386C139.834 246.554 139.787 246.755 139.787 246.988V252H138.667ZM151.076 250.824H151.02C150.945 250.992 150.852 251.16 150.74 251.328C150.637 251.487 150.507 251.631 150.348 251.762C150.189 251.883 149.998 251.981 149.774 252.056C149.55 252.131 149.289 252.168 148.99 252.168C148.243 252.168 147.651 251.93 147.212 251.454C146.773 250.969 146.554 250.287 146.554 249.41V244.776H147.674V249.214C147.674 250.511 148.225 251.16 149.326 251.16C149.55 251.16 149.765 251.132 149.97 251.076C150.185 251.02 150.371 250.936 150.53 250.824C150.698 250.712 150.829 250.572 150.922 250.404C151.025 250.227 151.076 250.017 151.076 249.774V244.776H152.196V252H151.076V250.824ZM157.54 252V251.02H158.912V243.208H157.54V242.228H161.46V243.208H160.088V251.02H161.46V252H157.54ZM165.091 252C164.699 252 164.4 251.893 164.195 251.678C163.999 251.454 163.901 251.165 163.901 250.81V245.756H162.711V244.776H163.383C163.626 244.776 163.789 244.729 163.873 244.636C163.966 244.533 164.013 244.361 164.013 244.118V242.774H165.021V244.776H166.603V245.756H165.021V251.02H166.491V252H165.091ZM171.065 252.168C170.57 252.168 170.122 252.079 169.721 251.902C169.329 251.725 168.988 251.473 168.699 251.146C168.419 250.81 168.199 250.413 168.041 249.956C167.891 249.489 167.817 248.967 167.817 248.388C167.817 247.819 167.891 247.301 168.041 246.834C168.199 246.367 168.419 245.971 168.699 245.644C168.988 245.308 169.329 245.051 169.721 244.874C170.122 244.697 170.57 244.608 171.065 244.608C171.55 244.608 171.984 244.697 172.367 244.874C172.749 245.051 173.076 245.299 173.347 245.616C173.617 245.924 173.823 246.293 173.963 246.722C174.112 247.151 174.187 247.623 174.187 248.136V248.668H168.993V249.004C168.993 249.312 169.039 249.601 169.133 249.872C169.235 250.133 169.375 250.362 169.553 250.558C169.739 250.754 169.963 250.908 170.225 251.02C170.495 251.132 170.799 251.188 171.135 251.188C171.592 251.188 171.989 251.081 172.325 250.866C172.67 250.651 172.936 250.343 173.123 249.942L173.921 250.516C173.687 251.011 173.323 251.412 172.829 251.72C172.334 252.019 171.746 252.168 171.065 252.168ZM171.065 245.546C170.757 245.546 170.477 245.602 170.225 245.714C169.973 245.817 169.753 245.966 169.567 246.162C169.389 246.358 169.249 246.591 169.147 246.862C169.044 247.123 168.993 247.413 168.993 247.73V247.828H172.983V247.674C172.983 247.03 172.805 246.517 172.451 246.134C172.105 245.742 171.643 245.546 171.065 245.546ZM176.032 252V244.776H177.152V245.952H177.208C177.292 245.765 177.385 245.593 177.488 245.434C177.6 245.266 177.731 245.121 177.88 245C178.039 244.879 178.221 244.785 178.426 244.72C178.631 244.645 178.874 244.608 179.154 244.608C179.63 244.608 180.069 244.725 180.47 244.958C180.871 245.182 181.17 245.555 181.366 246.078H181.394C181.525 245.686 181.767 245.345 182.122 245.056C182.486 244.757 182.976 244.608 183.592 244.608C184.329 244.608 184.903 244.851 185.314 245.336C185.734 245.812 185.944 246.489 185.944 247.366V252H184.824V247.562C184.824 246.918 184.698 246.433 184.446 246.106C184.194 245.779 183.793 245.616 183.242 245.616C183.018 245.616 182.803 245.644 182.598 245.7C182.402 245.756 182.225 245.84 182.066 245.952C181.907 246.064 181.781 246.209 181.688 246.386C181.595 246.554 181.548 246.755 181.548 246.988V252H180.428V247.562C180.428 246.918 180.302 246.433 180.05 246.106C179.798 245.779 179.406 245.616 178.874 245.616C178.65 245.616 178.435 245.644 178.23 245.7C178.025 245.756 177.843 245.84 177.684 245.952C177.525 246.064 177.395 246.209 177.292 246.386C177.199 246.554 177.152 246.755 177.152 246.988V252H176.032Z" fill="#EFEFEF"/>
<rect x="73.4667" y="118.467" width="159.623" height="32.6713" rx="5.13406" fill="#9EDE80" fill-opacity="0.15" stroke="#9EDE80" stroke-width="0.933466"/>
<path d="M121.176 140V139.02H122.548V131.208H121.176V130.228H125.096V131.208H123.724V139.02H125.096V140H121.176ZM127.131 140V132.776H128.251V133.952H128.307C128.484 133.541 128.732 133.215 129.049 132.972C129.376 132.729 129.81 132.608 130.351 132.608C131.098 132.608 131.686 132.851 132.115 133.336C132.554 133.812 132.773 134.489 132.773 135.366V140H131.653V135.562C131.653 134.265 131.107 133.616 130.015 133.616C129.791 133.616 129.572 133.644 129.357 133.7C129.152 133.756 128.965 133.84 128.797 133.952C128.629 134.064 128.494 134.209 128.391 134.386C128.298 134.554 128.251 134.755 128.251 134.988V140H127.131ZM141.178 140.798C141.178 141.545 140.884 142.091 140.296 142.436C139.718 142.791 138.845 142.968 137.678 142.968C136.549 142.968 135.737 142.814 135.242 142.506C134.748 142.198 134.5 141.759 134.5 141.19C134.5 140.798 134.603 140.49 134.808 140.266C135.014 140.051 135.294 139.893 135.648 139.79V139.636C135.219 139.431 135.004 139.095 135.004 138.628C135.004 138.264 135.121 137.989 135.354 137.802C135.588 137.606 135.886 137.461 136.25 137.368V137.312C135.821 137.107 135.485 136.813 135.242 136.43C135.009 136.047 134.892 135.604 134.892 135.1C134.892 134.736 134.958 134.4 135.088 134.092C135.219 133.784 135.401 133.523 135.634 133.308C135.877 133.084 136.162 132.911 136.488 132.79C136.824 132.669 137.198 132.608 137.608 132.608C138.122 132.608 138.579 132.701 138.98 132.888V132.762C138.98 132.482 139.046 132.253 139.176 132.076C139.307 131.889 139.522 131.796 139.82 131.796H140.898V132.776H139.526V133.238C139.788 133.462 139.988 133.733 140.128 134.05C140.278 134.358 140.352 134.708 140.352 135.1C140.352 135.464 140.287 135.8 140.156 136.108C140.026 136.416 139.839 136.682 139.596 136.906C139.363 137.121 139.078 137.289 138.742 137.41C138.406 137.531 138.033 137.592 137.622 137.592C137.389 137.592 137.156 137.569 136.922 137.522C136.68 137.587 136.46 137.685 136.264 137.816C136.068 137.937 135.97 138.11 135.97 138.334C135.97 138.549 136.073 138.693 136.278 138.768C136.484 138.843 136.75 138.88 137.076 138.88H138.616C139.512 138.88 140.161 139.053 140.562 139.398C140.973 139.734 141.178 140.201 141.178 140.798ZM140.128 140.882C140.128 140.593 140.016 140.359 139.792 140.182C139.578 140.014 139.19 139.93 138.63 139.93H136.222C135.774 140.135 135.55 140.462 135.55 140.91C135.55 141.227 135.667 141.498 135.9 141.722C136.143 141.946 136.549 142.058 137.118 142.058H138.154C138.78 142.058 139.265 141.96 139.61 141.764C139.956 141.568 140.128 141.274 140.128 140.882ZM137.622 136.696C138.098 136.696 138.476 136.584 138.756 136.36C139.036 136.127 139.176 135.772 139.176 135.296V134.904C139.176 134.428 139.036 134.078 138.756 133.854C138.476 133.621 138.098 133.504 137.622 133.504C137.146 133.504 136.768 133.621 136.488 133.854C136.208 134.078 136.068 134.428 136.068 134.904V135.296C136.068 135.772 136.208 136.127 136.488 136.36C136.768 136.584 137.146 136.696 137.622 136.696ZM142.485 140V132.776H143.605V134.106H143.675C143.805 133.761 144.039 133.453 144.375 133.182C144.711 132.911 145.173 132.776 145.761 132.776H146.195V133.896H145.537C144.93 133.896 144.454 134.013 144.109 134.246C143.773 134.47 143.605 134.755 143.605 135.1V140H142.485ZM150.273 140.168C149.778 140.168 149.33 140.079 148.929 139.902C148.537 139.725 148.196 139.473 147.907 139.146C147.627 138.81 147.408 138.413 147.249 137.956C147.1 137.489 147.025 136.967 147.025 136.388C147.025 135.819 147.1 135.301 147.249 134.834C147.408 134.367 147.627 133.971 147.907 133.644C148.196 133.308 148.537 133.051 148.929 132.874C149.33 132.697 149.778 132.608 150.273 132.608C150.758 132.608 151.192 132.697 151.575 132.874C151.958 133.051 152.284 133.299 152.555 133.616C152.826 133.924 153.031 134.293 153.171 134.722C153.32 135.151 153.395 135.623 153.395 136.136V136.668H148.201V137.004C148.201 137.312 148.248 137.601 148.341 137.872C148.444 138.133 148.584 138.362 148.761 138.558C148.948 138.754 149.172 138.908 149.433 139.02C149.704 139.132 150.007 139.188 150.343 139.188C150.8 139.188 151.197 139.081 151.533 138.866C151.878 138.651 152.144 138.343 152.331 137.942L153.129 138.516C152.896 139.011 152.532 139.412 152.037 139.72C151.542 140.019 150.954 140.168 150.273 140.168ZM150.273 133.546C149.965 133.546 149.685 133.602 149.433 133.714C149.181 133.817 148.962 133.966 148.775 134.162C148.598 134.358 148.458 134.591 148.355 134.862C148.252 135.123 148.201 135.413 148.201 135.73V135.828H152.191V135.674C152.191 135.03 152.014 134.517 151.659 134.134C151.314 133.742 150.852 133.546 150.273 133.546ZM159.861 138.824H159.805C159.366 139.72 158.661 140.168 157.691 140.168C157.243 140.168 156.837 140.079 156.473 139.902C156.109 139.725 155.796 139.473 155.535 139.146C155.283 138.819 155.087 138.423 154.947 137.956C154.816 137.489 154.751 136.967 154.751 136.388C154.751 135.809 154.816 135.287 154.947 134.82C155.087 134.353 155.283 133.957 155.535 133.63C155.796 133.303 156.109 133.051 156.473 132.874C156.837 132.697 157.243 132.608 157.691 132.608C158.195 132.608 158.624 132.72 158.979 132.944C159.343 133.159 159.618 133.495 159.805 133.952H159.861V129.64H160.981V140H159.861V138.824ZM157.999 139.16C158.251 139.16 158.489 139.127 158.713 139.062C158.946 138.997 159.147 138.903 159.315 138.782C159.483 138.651 159.613 138.497 159.707 138.32C159.809 138.133 159.861 137.923 159.861 137.69V135.002C159.861 134.806 159.809 134.624 159.707 134.456C159.613 134.279 159.483 134.129 159.315 134.008C159.147 133.887 158.946 133.793 158.713 133.728C158.489 133.653 158.251 133.616 157.999 133.616C157.364 133.616 156.865 133.817 156.501 134.218C156.137 134.61 155.955 135.128 155.955 135.772V137.004C155.955 137.648 156.137 138.171 156.501 138.572C156.865 138.964 157.364 139.16 157.999 139.16ZM163.922 131.082C163.679 131.082 163.502 131.026 163.39 130.914C163.287 130.793 163.236 130.639 163.236 130.452V130.27C163.236 130.083 163.287 129.934 163.39 129.822C163.502 129.701 163.679 129.64 163.922 129.64C164.164 129.64 164.337 129.701 164.44 129.822C164.552 129.934 164.608 130.083 164.608 130.27V130.452C164.608 130.639 164.552 130.793 164.44 130.914C164.337 131.026 164.164 131.082 163.922 131.082ZM163.362 132.776H164.482V140H163.362V132.776ZM169.578 140.168C169.083 140.168 168.635 140.079 168.234 139.902C167.842 139.725 167.501 139.473 167.212 139.146C166.932 138.81 166.712 138.413 166.554 137.956C166.404 137.489 166.33 136.967 166.33 136.388C166.33 135.819 166.404 135.301 166.554 134.834C166.712 134.367 166.932 133.971 167.212 133.644C167.501 133.308 167.842 133.051 168.234 132.874C168.635 132.697 169.083 132.608 169.578 132.608C170.063 132.608 170.497 132.697 170.88 132.874C171.262 133.051 171.589 133.299 171.86 133.616C172.13 133.924 172.336 134.293 172.476 134.722C172.625 135.151 172.7 135.623 172.7 136.136V136.668H167.506V137.004C167.506 137.312 167.552 137.601 167.646 137.872C167.748 138.133 167.888 138.362 168.066 138.558C168.252 138.754 168.476 138.908 168.738 139.02C169.008 139.132 169.312 139.188 169.648 139.188C170.105 139.188 170.502 139.081 170.838 138.866C171.183 138.651 171.449 138.343 171.636 137.942L172.434 138.516C172.2 139.011 171.836 139.412 171.342 139.72C170.847 140.019 170.259 140.168 169.578 140.168ZM169.578 133.546C169.27 133.546 168.99 133.602 168.738 133.714C168.486 133.817 168.266 133.966 168.08 134.162C167.902 134.358 167.762 134.591 167.66 134.862C167.557 135.123 167.506 135.413 167.506 135.73V135.828H171.496V135.674C171.496 135.03 171.318 134.517 170.964 134.134C170.618 133.742 170.156 133.546 169.578 133.546ZM174.545 140V132.776H175.665V133.952H175.721C175.899 133.541 176.146 133.215 176.463 132.972C176.79 132.729 177.224 132.608 177.765 132.608C178.512 132.608 179.1 132.851 179.529 133.336C179.968 133.812 180.187 134.489 180.187 135.366V140H179.067V135.562C179.067 134.265 178.521 133.616 177.429 133.616C177.205 133.616 176.986 133.644 176.771 133.7C176.566 133.756 176.379 133.84 176.211 133.952C176.043 134.064 175.908 134.209 175.805 134.386C175.712 134.554 175.665 134.755 175.665 134.988V140H174.545ZM184.098 140C183.706 140 183.408 139.893 183.202 139.678C183.006 139.454 182.908 139.165 182.908 138.81V133.756H181.718V132.776H182.39C182.633 132.776 182.796 132.729 182.88 132.636C182.974 132.533 183.02 132.361 183.02 132.118V130.774H184.028V132.776H185.61V133.756H184.028V139.02H185.498V140H184.098Z" fill="#EFEFEF"/>
<rect x="62.5" y="24.5" width="182" height="136" rx="5.5" stroke="#EFEFEF" stroke-dasharray="4 4"/>
<path d="M152.646 217.354C152.842 217.549 153.158 217.549 153.354 217.354L156.536 214.172C156.731 213.976 156.731 213.66 156.536 213.464C156.34 213.269 156.024 213.269 155.828 213.464L153 216.293L150.172 213.464C149.976 213.269 149.66 213.269 149.464 213.464C149.269 213.66 149.269 213.976 149.464 214.172L152.646 217.354ZM152.5 177L152.5 217L153.5 217L153.5 177L152.5 177Z" fill="#EFEFEF"/>
</svg>
