<svg width="307" height="287" viewBox="0 0 307 287" fill="none" xmlns="http://www.w3.org/2000/svg">
<rect x="21.4667" y="66.4667" width="82.0665" height="32.6713" rx="5.13406" fill="#D7A4ED" fill-opacity="0.15" stroke="#D7A4ED" stroke-width="0.933466"/>
<path d="M40.3097 88.168C39.5163 88.168 38.8397 88.0187 38.2797 87.72C37.7197 87.412 37.2437 86.992 36.8517 86.46L37.7197 85.732C38.065 86.1893 38.4477 86.5393 38.8677 86.782C39.2877 87.0153 39.7823 87.132 40.3517 87.132C41.0517 87.132 41.5837 86.964 41.9477 86.628C42.321 86.292 42.5077 85.844 42.5077 85.284C42.5077 84.8173 42.3677 84.458 42.0877 84.206C41.8077 83.954 41.3457 83.7533 40.7017 83.604L39.9037 83.422C39.0077 83.2167 38.3217 82.9087 37.8457 82.498C37.379 82.078 37.1457 81.49 37.1457 80.734C37.1457 80.3047 37.225 79.922 37.3837 79.586C37.5423 79.25 37.7617 78.97 38.0417 78.746C38.331 78.522 38.6717 78.354 39.0637 78.242C39.465 78.1207 39.9037 78.06 40.3797 78.06C41.117 78.06 41.747 78.1953 42.2697 78.466C42.8017 78.7367 43.2497 79.1333 43.6137 79.656L42.7317 80.3C42.461 79.9267 42.1343 79.6327 41.7517 79.418C41.369 79.2033 40.893 79.096 40.3237 79.096C39.6983 79.096 39.2037 79.2313 38.8397 79.502C38.485 79.7633 38.3077 80.16 38.3077 80.692C38.3077 81.1587 38.457 81.5133 38.7557 81.756C39.0637 81.9893 39.5257 82.176 40.1417 82.316L40.9397 82.498C41.901 82.7127 42.5963 83.0393 43.0257 83.478C43.455 83.9167 43.6697 84.5 43.6697 85.228C43.6697 85.676 43.5903 86.082 43.4317 86.446C43.2823 86.81 43.063 87.118 42.7737 87.37C42.4843 87.622 42.1297 87.818 41.7097 87.958C41.299 88.098 40.8323 88.168 40.3097 88.168ZM50.0404 86.824H49.9844C49.9098 86.992 49.8164 87.16 49.7044 87.328C49.6018 87.4867 49.4711 87.6313 49.3124 87.762C49.1538 87.8833 48.9624 87.9813 48.7384 88.056C48.5144 88.1307 48.2531 88.168 47.9544 88.168C47.2078 88.168 46.6151 87.93 46.1764 87.454C45.7378 86.9687 45.5184 86.2873 45.5184 85.41V80.776H46.6384V85.214C46.6384 86.5113 47.1891 87.16 48.2904 87.16C48.5144 87.16 48.7291 87.132 48.9344 87.076C49.1491 87.02 49.3358 86.936 49.4944 86.824C49.6624 86.712 49.7931 86.572 49.8864 86.404C49.9891 86.2267 50.0404 86.0167 50.0404 85.774V80.776H51.1604V88H50.0404V86.824ZM53.5455 80.776H54.6655V81.952H54.7215C54.9081 81.4947 55.1788 81.1587 55.5335 80.944C55.8975 80.72 56.3315 80.608 56.8355 80.608C57.2835 80.608 57.6895 80.6967 58.0535 80.874C58.4175 81.0513 58.7255 81.3033 58.9775 81.63C59.2388 81.9567 59.4348 82.3533 59.5655 82.82C59.7055 83.2867 59.7755 83.8093 59.7755 84.388C59.7755 84.9667 59.7055 85.4893 59.5655 85.956C59.4348 86.4227 59.2388 86.8193 58.9775 87.146C58.7255 87.4727 58.4175 87.7247 58.0535 87.902C57.6895 88.0793 57.2835 88.168 56.8355 88.168C55.8555 88.168 55.1508 87.72 54.7215 86.824H54.6655V90.8H53.5455V80.776ZM56.5275 87.16C57.1621 87.16 57.6615 86.964 58.0255 86.572C58.3895 86.1707 58.5715 85.648 58.5715 85.004V83.772C58.5715 83.128 58.3895 82.61 58.0255 82.218C57.6615 81.8167 57.1621 81.616 56.5275 81.616C56.2755 81.616 56.0328 81.6533 55.7995 81.728C55.5755 81.7933 55.3795 81.8867 55.2115 82.008C55.0435 82.1293 54.9081 82.2787 54.8055 82.456C54.7121 82.624 54.6655 82.806 54.6655 83.002V85.69C54.6655 85.9233 54.7121 86.1333 54.8055 86.32C54.9081 86.4973 55.0435 86.6513 55.2115 86.782C55.3795 86.9033 55.5755 86.9967 55.7995 87.062C56.0328 87.1273 56.2755 87.16 56.5275 87.16ZM61.6666 80.776H62.7866V81.952H62.8426C63.0292 81.4947 63.2999 81.1587 63.6546 80.944C64.0186 80.72 64.4526 80.608 64.9566 80.608C65.4046 80.608 65.8106 80.6967 66.1746 80.874C66.5386 81.0513 66.8466 81.3033 67.0986 81.63C67.3599 81.9567 67.5559 82.3533 67.6866 82.82C67.8266 83.2867 67.8966 83.8093 67.8966 84.388C67.8966 84.9667 67.8266 85.4893 67.6866 85.956C67.5559 86.4227 67.3599 86.8193 67.0986 87.146C66.8466 87.4727 66.5386 87.7247 66.1746 87.902C65.8106 88.0793 65.4046 88.168 64.9566 88.168C63.9766 88.168 63.2719 87.72 62.8426 86.824H62.7866V90.8H61.6666V80.776ZM64.6486 87.16C65.2832 87.16 65.7826 86.964 66.1466 86.572C66.5106 86.1707 66.6926 85.648 66.6926 85.004V83.772C66.6926 83.128 66.5106 82.61 66.1466 82.218C65.7826 81.8167 65.2832 81.616 64.6486 81.616C64.3966 81.616 64.1539 81.6533 63.9206 81.728C63.6966 81.7933 63.5006 81.8867 63.3326 82.008C63.1646 82.1293 63.0292 82.2787 62.9266 82.456C62.8332 82.624 62.7866 82.806 62.7866 83.002V85.69C62.7866 85.9233 62.8332 86.1333 62.9266 86.32C63.0292 86.4973 63.1646 86.6513 63.3326 86.782C63.5006 86.9033 63.6966 86.9967 63.9206 87.062C64.1539 87.1273 64.3966 87.16 64.6486 87.16ZM70.9777 88C70.5857 88 70.287 87.8927 70.0817 87.678C69.8857 87.454 69.7877 87.174 69.7877 86.838V77.64H70.9077V87.02H71.9717V88H70.9777ZM74.1621 79.082C73.9194 79.082 73.7421 79.026 73.6301 78.914C73.5274 78.7927 73.4761 78.6387 73.4761 78.452V78.27C73.4761 78.0833 73.5274 77.934 73.6301 77.822C73.7421 77.7007 73.9194 77.64 74.1621 77.64C74.4048 77.64 74.5774 77.7007 74.6801 77.822C74.7921 77.934 74.8481 78.0833 74.8481 78.27V78.452C74.8481 78.6387 74.7921 78.7927 74.6801 78.914C74.5774 79.026 74.4048 79.082 74.1621 79.082ZM73.6021 80.776H74.7221V88H73.6021V80.776ZM79.8181 88.168C79.3234 88.168 78.8754 88.0793 78.4741 87.902C78.0821 87.7247 77.7414 87.4727 77.4521 87.146C77.1721 86.81 76.9528 86.4133 76.7941 85.956C76.6448 85.4893 76.5701 84.9667 76.5701 84.388C76.5701 83.8187 76.6448 83.3007 76.7941 82.834C76.9528 82.3673 77.1721 81.9707 77.4521 81.644C77.7414 81.308 78.0821 81.0513 78.4741 80.874C78.8754 80.6967 79.3234 80.608 79.8181 80.608C80.3034 80.608 80.7374 80.6967 81.1201 80.874C81.5028 81.0513 81.8294 81.2987 82.1001 81.616C82.3708 81.924 82.5761 82.2927 82.7161 82.722C82.8654 83.1513 82.9401 83.6227 82.9401 84.136V84.668H77.7461V85.004C77.7461 85.312 77.7928 85.6013 77.8861 85.872C77.9888 86.1333 78.1288 86.362 78.3061 86.558C78.4928 86.754 78.7168 86.908 78.9781 87.02C79.2488 87.132 79.5521 87.188 79.8881 87.188C80.3454 87.188 80.7421 87.0807 81.0781 86.866C81.4234 86.6513 81.6894 86.3433 81.8761 85.942L82.6741 86.516C82.4408 87.0107 82.0768 87.412 81.5821 87.72C81.0874 88.0187 80.4994 88.168 79.8181 88.168ZM79.8181 81.546C79.5101 81.546 79.2301 81.602 78.9781 81.714C78.7261 81.8167 78.5068 81.966 78.3201 82.162C78.1428 82.358 78.0028 82.5913 77.9001 82.862C77.7974 83.1233 77.7461 83.4127 77.7461 83.73V83.828H81.7361V83.674C81.7361 83.03 81.5588 82.5167 81.2041 82.134C80.8588 81.742 80.3968 81.546 79.8181 81.546ZM84.7857 88V80.776H85.9057V82.106H85.9757C86.1064 81.7607 86.3397 81.4527 86.6757 81.182C87.0117 80.9113 87.4737 80.776 88.0617 80.776H88.4957V81.896H87.8377C87.231 81.896 86.755 82.0127 86.4097 82.246C86.0737 82.47 85.9057 82.7547 85.9057 83.1V88H84.7857Z" fill="#EFEFEF"/>
<rect x="156.467" y="188.467" width="82.0665" height="32.6713" rx="5.13406" fill="#D7A4ED" fill-opacity="0.15" stroke="#D7A4ED" stroke-width="0.933466"/>
<path d="M175.31 210.168C174.516 210.168 173.84 210.019 173.28 209.72C172.72 209.412 172.244 208.992 171.852 208.46L172.72 207.732C173.065 208.189 173.448 208.539 173.868 208.782C174.288 209.015 174.782 209.132 175.352 209.132C176.052 209.132 176.584 208.964 176.948 208.628C177.321 208.292 177.508 207.844 177.508 207.284C177.508 206.817 177.368 206.458 177.088 206.206C176.808 205.954 176.346 205.753 175.702 205.604L174.904 205.422C174.008 205.217 173.322 204.909 172.846 204.498C172.379 204.078 172.146 203.49 172.146 202.734C172.146 202.305 172.225 201.922 172.384 201.586C172.542 201.25 172.762 200.97 173.042 200.746C173.331 200.522 173.672 200.354 174.064 200.242C174.465 200.121 174.904 200.06 175.38 200.06C176.117 200.06 176.747 200.195 177.27 200.466C177.802 200.737 178.25 201.133 178.614 201.656L177.732 202.3C177.461 201.927 177.134 201.633 176.752 201.418C176.369 201.203 175.893 201.096 175.324 201.096C174.698 201.096 174.204 201.231 173.84 201.502C173.485 201.763 173.308 202.16 173.308 202.692C173.308 203.159 173.457 203.513 173.756 203.756C174.064 203.989 174.526 204.176 175.142 204.316L175.94 204.498C176.901 204.713 177.596 205.039 178.026 205.478C178.455 205.917 178.67 206.5 178.67 207.228C178.67 207.676 178.59 208.082 178.432 208.446C178.282 208.81 178.063 209.118 177.774 209.37C177.484 209.622 177.13 209.818 176.71 209.958C176.299 210.098 175.832 210.168 175.31 210.168ZM185.04 208.824H184.984C184.91 208.992 184.816 209.16 184.704 209.328C184.602 209.487 184.471 209.631 184.312 209.762C184.154 209.883 183.962 209.981 183.738 210.056C183.514 210.131 183.253 210.168 182.954 210.168C182.208 210.168 181.615 209.93 181.176 209.454C180.738 208.969 180.518 208.287 180.518 207.41V202.776H181.638V207.214C181.638 208.511 182.189 209.16 183.29 209.16C183.514 209.16 183.729 209.132 183.934 209.076C184.149 209.02 184.336 208.936 184.494 208.824C184.662 208.712 184.793 208.572 184.886 208.404C184.989 208.227 185.04 208.017 185.04 207.774V202.776H186.16V210H185.04V208.824ZM188.545 202.776H189.665V203.952H189.721C189.908 203.495 190.179 203.159 190.533 202.944C190.897 202.72 191.331 202.608 191.835 202.608C192.283 202.608 192.689 202.697 193.053 202.874C193.417 203.051 193.725 203.303 193.977 203.63C194.239 203.957 194.435 204.353 194.565 204.82C194.705 205.287 194.775 205.809 194.775 206.388C194.775 206.967 194.705 207.489 194.565 207.956C194.435 208.423 194.239 208.819 193.977 209.146C193.725 209.473 193.417 209.725 193.053 209.902C192.689 210.079 192.283 210.168 191.835 210.168C190.855 210.168 190.151 209.72 189.721 208.824H189.665V212.8H188.545V202.776ZM191.527 209.16C192.162 209.16 192.661 208.964 193.025 208.572C193.389 208.171 193.571 207.648 193.571 207.004V205.772C193.571 205.128 193.389 204.61 193.025 204.218C192.661 203.817 192.162 203.616 191.527 203.616C191.275 203.616 191.033 203.653 190.799 203.728C190.575 203.793 190.379 203.887 190.211 204.008C190.043 204.129 189.908 204.279 189.805 204.456C189.712 204.624 189.665 204.806 189.665 205.002V207.69C189.665 207.923 189.712 208.133 189.805 208.32C189.908 208.497 190.043 208.651 190.211 208.782C190.379 208.903 190.575 208.997 190.799 209.062C191.033 209.127 191.275 209.16 191.527 209.16ZM196.667 202.776H197.787V203.952H197.843C198.029 203.495 198.3 203.159 198.655 202.944C199.019 202.72 199.453 202.608 199.957 202.608C200.405 202.608 200.811 202.697 201.175 202.874C201.539 203.051 201.847 203.303 202.099 203.63C202.36 203.957 202.556 204.353 202.687 204.82C202.827 205.287 202.897 205.809 202.897 206.388C202.897 206.967 202.827 207.489 202.687 207.956C202.556 208.423 202.36 208.819 202.099 209.146C201.847 209.473 201.539 209.725 201.175 209.902C200.811 210.079 200.405 210.168 199.957 210.168C198.977 210.168 198.272 209.72 197.843 208.824H197.787V212.8H196.667V202.776ZM199.649 209.16C200.283 209.16 200.783 208.964 201.147 208.572C201.511 208.171 201.693 207.648 201.693 207.004V205.772C201.693 205.128 201.511 204.61 201.147 204.218C200.783 203.817 200.283 203.616 199.649 203.616C199.397 203.616 199.154 203.653 198.921 203.728C198.697 203.793 198.501 203.887 198.333 204.008C198.165 204.129 198.029 204.279 197.927 204.456C197.833 204.624 197.787 204.806 197.787 205.002V207.69C197.787 207.923 197.833 208.133 197.927 208.32C198.029 208.497 198.165 208.651 198.333 208.782C198.501 208.903 198.697 208.997 198.921 209.062C199.154 209.127 199.397 209.16 199.649 209.16ZM205.978 210C205.586 210 205.287 209.893 205.082 209.678C204.886 209.454 204.788 209.174 204.788 208.838V199.64H205.908V209.02H206.972V210H205.978ZM209.162 201.082C208.919 201.082 208.742 201.026 208.63 200.914C208.527 200.793 208.476 200.639 208.476 200.452V200.27C208.476 200.083 208.527 199.934 208.63 199.822C208.742 199.701 208.919 199.64 209.162 199.64C209.405 199.64 209.577 199.701 209.68 199.822C209.792 199.934 209.848 200.083 209.848 200.27V200.452C209.848 200.639 209.792 200.793 209.68 200.914C209.577 201.026 209.405 201.082 209.162 201.082ZM208.602 202.776H209.722V210H208.602V202.776ZM214.818 210.168C214.323 210.168 213.875 210.079 213.474 209.902C213.082 209.725 212.741 209.473 212.452 209.146C212.172 208.81 211.953 208.413 211.794 207.956C211.645 207.489 211.57 206.967 211.57 206.388C211.57 205.819 211.645 205.301 211.794 204.834C211.953 204.367 212.172 203.971 212.452 203.644C212.741 203.308 213.082 203.051 213.474 202.874C213.875 202.697 214.323 202.608 214.818 202.608C215.303 202.608 215.737 202.697 216.12 202.874C216.503 203.051 216.829 203.299 217.1 203.616C217.371 203.924 217.576 204.293 217.716 204.722C217.865 205.151 217.94 205.623 217.94 206.136V206.668H212.746V207.004C212.746 207.312 212.793 207.601 212.886 207.872C212.989 208.133 213.129 208.362 213.306 208.558C213.493 208.754 213.717 208.908 213.978 209.02C214.249 209.132 214.552 209.188 214.888 209.188C215.345 209.188 215.742 209.081 216.078 208.866C216.423 208.651 216.689 208.343 216.876 207.942L217.674 208.516C217.441 209.011 217.077 209.412 216.582 209.72C216.087 210.019 215.499 210.168 214.818 210.168ZM214.818 203.546C214.51 203.546 214.23 203.602 213.978 203.714C213.726 203.817 213.507 203.966 213.32 204.162C213.143 204.358 213.003 204.591 212.9 204.862C212.797 205.123 212.746 205.413 212.746 205.73V205.828H216.736V205.674C216.736 205.03 216.559 204.517 216.204 204.134C215.859 203.742 215.397 203.546 214.818 203.546ZM219.786 210V202.776H220.906V204.106H220.976C221.106 203.761 221.34 203.453 221.676 203.182C222.012 202.911 222.474 202.776 223.062 202.776H223.496V203.896H222.838C222.231 203.896 221.755 204.013 221.41 204.246C221.074 204.47 220.906 204.755 220.906 205.1V210H219.786Z" fill="#EFEFEF"/>
<rect x="156.467" y="230.467" width="82.0665" height="32.6713" rx="5.13406" fill="#D7A4ED" fill-opacity="0.15" stroke="#D7A4ED" stroke-width="0.933466"/>
<path d="M175.31 252.168C174.516 252.168 173.84 252.019 173.28 251.72C172.72 251.412 172.244 250.992 171.852 250.46L172.72 249.732C173.065 250.189 173.448 250.539 173.868 250.782C174.288 251.015 174.782 251.132 175.352 251.132C176.052 251.132 176.584 250.964 176.948 250.628C177.321 250.292 177.508 249.844 177.508 249.284C177.508 248.817 177.368 248.458 177.088 248.206C176.808 247.954 176.346 247.753 175.702 247.604L174.904 247.422C174.008 247.217 173.322 246.909 172.846 246.498C172.379 246.078 172.146 245.49 172.146 244.734C172.146 244.305 172.225 243.922 172.384 243.586C172.542 243.25 172.762 242.97 173.042 242.746C173.331 242.522 173.672 242.354 174.064 242.242C174.465 242.121 174.904 242.06 175.38 242.06C176.117 242.06 176.747 242.195 177.27 242.466C177.802 242.737 178.25 243.133 178.614 243.656L177.732 244.3C177.461 243.927 177.134 243.633 176.752 243.418C176.369 243.203 175.893 243.096 175.324 243.096C174.698 243.096 174.204 243.231 173.84 243.502C173.485 243.763 173.308 244.16 173.308 244.692C173.308 245.159 173.457 245.513 173.756 245.756C174.064 245.989 174.526 246.176 175.142 246.316L175.94 246.498C176.901 246.713 177.596 247.039 178.026 247.478C178.455 247.917 178.67 248.5 178.67 249.228C178.67 249.676 178.59 250.082 178.432 250.446C178.282 250.81 178.063 251.118 177.774 251.37C177.484 251.622 177.13 251.818 176.71 251.958C176.299 252.098 175.832 252.168 175.31 252.168ZM185.04 250.824H184.984C184.91 250.992 184.816 251.16 184.704 251.328C184.602 251.487 184.471 251.631 184.312 251.762C184.154 251.883 183.962 251.981 183.738 252.056C183.514 252.131 183.253 252.168 182.954 252.168C182.208 252.168 181.615 251.93 181.176 251.454C180.738 250.969 180.518 250.287 180.518 249.41V244.776H181.638V249.214C181.638 250.511 182.189 251.16 183.29 251.16C183.514 251.16 183.729 251.132 183.934 251.076C184.149 251.02 184.336 250.936 184.494 250.824C184.662 250.712 184.793 250.572 184.886 250.404C184.989 250.227 185.04 250.017 185.04 249.774V244.776H186.16V252H185.04V250.824ZM188.545 244.776H189.665V245.952H189.721C189.908 245.495 190.179 245.159 190.533 244.944C190.897 244.72 191.331 244.608 191.835 244.608C192.283 244.608 192.689 244.697 193.053 244.874C193.417 245.051 193.725 245.303 193.977 245.63C194.239 245.957 194.435 246.353 194.565 246.82C194.705 247.287 194.775 247.809 194.775 248.388C194.775 248.967 194.705 249.489 194.565 249.956C194.435 250.423 194.239 250.819 193.977 251.146C193.725 251.473 193.417 251.725 193.053 251.902C192.689 252.079 192.283 252.168 191.835 252.168C190.855 252.168 190.151 251.72 189.721 250.824H189.665V254.8H188.545V244.776ZM191.527 251.16C192.162 251.16 192.661 250.964 193.025 250.572C193.389 250.171 193.571 249.648 193.571 249.004V247.772C193.571 247.128 193.389 246.61 193.025 246.218C192.661 245.817 192.162 245.616 191.527 245.616C191.275 245.616 191.033 245.653 190.799 245.728C190.575 245.793 190.379 245.887 190.211 246.008C190.043 246.129 189.908 246.279 189.805 246.456C189.712 246.624 189.665 246.806 189.665 247.002V249.69C189.665 249.923 189.712 250.133 189.805 250.32C189.908 250.497 190.043 250.651 190.211 250.782C190.379 250.903 190.575 250.997 190.799 251.062C191.033 251.127 191.275 251.16 191.527 251.16ZM196.667 244.776H197.787V245.952H197.843C198.029 245.495 198.3 245.159 198.655 244.944C199.019 244.72 199.453 244.608 199.957 244.608C200.405 244.608 200.811 244.697 201.175 244.874C201.539 245.051 201.847 245.303 202.099 245.63C202.36 245.957 202.556 246.353 202.687 246.82C202.827 247.287 202.897 247.809 202.897 248.388C202.897 248.967 202.827 249.489 202.687 249.956C202.556 250.423 202.36 250.819 202.099 251.146C201.847 251.473 201.539 251.725 201.175 251.902C200.811 252.079 200.405 252.168 199.957 252.168C198.977 252.168 198.272 251.72 197.843 250.824H197.787V254.8H196.667V244.776ZM199.649 251.16C200.283 251.16 200.783 250.964 201.147 250.572C201.511 250.171 201.693 249.648 201.693 249.004V247.772C201.693 247.128 201.511 246.61 201.147 246.218C200.783 245.817 200.283 245.616 199.649 245.616C199.397 245.616 199.154 245.653 198.921 245.728C198.697 245.793 198.501 245.887 198.333 246.008C198.165 246.129 198.029 246.279 197.927 246.456C197.833 246.624 197.787 246.806 197.787 247.002V249.69C197.787 249.923 197.833 250.133 197.927 250.32C198.029 250.497 198.165 250.651 198.333 250.782C198.501 250.903 198.697 250.997 198.921 251.062C199.154 251.127 199.397 251.16 199.649 251.16ZM205.978 252C205.586 252 205.287 251.893 205.082 251.678C204.886 251.454 204.788 251.174 204.788 250.838V241.64H205.908V251.02H206.972V252H205.978ZM209.162 243.082C208.919 243.082 208.742 243.026 208.63 242.914C208.527 242.793 208.476 242.639 208.476 242.452V242.27C208.476 242.083 208.527 241.934 208.63 241.822C208.742 241.701 208.919 241.64 209.162 241.64C209.405 241.64 209.577 241.701 209.68 241.822C209.792 241.934 209.848 242.083 209.848 242.27V242.452C209.848 242.639 209.792 242.793 209.68 242.914C209.577 243.026 209.405 243.082 209.162 243.082ZM208.602 244.776H209.722V252H208.602V244.776ZM214.818 252.168C214.323 252.168 213.875 252.079 213.474 251.902C213.082 251.725 212.741 251.473 212.452 251.146C212.172 250.81 211.953 250.413 211.794 249.956C211.645 249.489 211.57 248.967 211.57 248.388C211.57 247.819 211.645 247.301 211.794 246.834C211.953 246.367 212.172 245.971 212.452 245.644C212.741 245.308 213.082 245.051 213.474 244.874C213.875 244.697 214.323 244.608 214.818 244.608C215.303 244.608 215.737 244.697 216.12 244.874C216.503 245.051 216.829 245.299 217.1 245.616C217.371 245.924 217.576 246.293 217.716 246.722C217.865 247.151 217.94 247.623 217.94 248.136V248.668H212.746V249.004C212.746 249.312 212.793 249.601 212.886 249.872C212.989 250.133 213.129 250.362 213.306 250.558C213.493 250.754 213.717 250.908 213.978 251.02C214.249 251.132 214.552 251.188 214.888 251.188C215.345 251.188 215.742 251.081 216.078 250.866C216.423 250.651 216.689 250.343 216.876 249.942L217.674 250.516C217.441 251.011 217.077 251.412 216.582 251.72C216.087 252.019 215.499 252.168 214.818 252.168ZM214.818 245.546C214.51 245.546 214.23 245.602 213.978 245.714C213.726 245.817 213.507 245.966 213.32 246.162C213.143 246.358 213.003 246.591 212.9 246.862C212.797 247.123 212.746 247.413 212.746 247.73V247.828H216.736V247.674C216.736 247.03 216.559 246.517 216.204 246.134C215.859 245.742 215.397 245.546 214.818 245.546ZM219.786 252V244.776H220.906V246.106H220.976C221.106 245.761 221.34 245.453 221.676 245.182C222.012 244.911 222.474 244.776 223.062 244.776H223.496V245.896H222.838C222.231 245.896 221.755 246.013 221.41 246.246C221.074 246.47 220.906 246.755 220.906 247.1V252H219.786Z" fill="#EFEFEF"/>
<rect x="156.467" y="24.4667" width="82.0665" height="32.6713" rx="5.13406" fill="#9EDE80" fill-opacity="0.15" stroke="#9EDE80" stroke-width="0.933466"/>
<path d="M165.398 46V45.02H166.77V37.208H165.398V36.228H169.318V37.208H167.946V45.02H169.318V46H165.398ZM171.353 46V38.776H172.473V39.952H172.529C172.706 39.5413 172.954 39.2147 173.271 38.972C173.598 38.7293 174.032 38.608 174.573 38.608C175.32 38.608 175.908 38.8507 176.337 39.336C176.776 39.812 176.995 40.4887 176.995 41.366V46H175.875V41.562C175.875 40.2647 175.329 39.616 174.237 39.616C174.013 39.616 173.794 39.644 173.579 39.7C173.374 39.756 173.187 39.84 173.019 39.952C172.851 40.064 172.716 40.2087 172.613 40.386C172.52 40.554 172.473 40.7547 172.473 40.988V46H171.353ZM185.4 46.798C185.4 47.5447 185.106 48.0907 184.518 48.436C183.939 48.7907 183.067 48.968 181.9 48.968C180.771 48.968 179.959 48.814 179.464 48.506C178.969 48.198 178.722 47.7593 178.722 47.19C178.722 46.798 178.825 46.49 179.03 46.266C179.235 46.0513 179.515 45.8927 179.87 45.79V45.636C179.441 45.4307 179.226 45.0947 179.226 44.628C179.226 44.264 179.343 43.9887 179.576 43.802C179.809 43.606 180.108 43.4613 180.472 43.368V43.312C180.043 43.1067 179.707 42.8127 179.464 42.43C179.231 42.0473 179.114 41.604 179.114 41.1C179.114 40.736 179.179 40.4 179.31 40.092C179.441 39.784 179.623 39.5227 179.856 39.308C180.099 39.084 180.383 38.9113 180.71 38.79C181.046 38.6687 181.419 38.608 181.83 38.608C182.343 38.608 182.801 38.7013 183.202 38.888V38.762C183.202 38.482 183.267 38.2533 183.398 38.076C183.529 37.8893 183.743 37.796 184.042 37.796H185.12V38.776H183.748V39.238C184.009 39.462 184.21 39.7327 184.35 40.05C184.499 40.358 184.574 40.708 184.574 41.1C184.574 41.464 184.509 41.8 184.378 42.108C184.247 42.416 184.061 42.682 183.818 42.906C183.585 43.1207 183.3 43.2887 182.964 43.41C182.628 43.5313 182.255 43.592 181.844 43.592C181.611 43.592 181.377 43.5687 181.144 43.522C180.901 43.5873 180.682 43.6853 180.486 43.816C180.29 43.9373 180.192 44.11 180.192 44.334C180.192 44.5487 180.295 44.6933 180.5 44.768C180.705 44.8427 180.971 44.88 181.298 44.88H182.838C183.734 44.88 184.383 45.0527 184.784 45.398C185.195 45.734 185.4 46.2007 185.4 46.798ZM184.35 46.882C184.35 46.5927 184.238 46.3593 184.014 46.182C183.799 46.014 183.412 45.93 182.852 45.93H180.444C179.996 46.1353 179.772 46.462 179.772 46.91C179.772 47.2273 179.889 47.498 180.122 47.722C180.365 47.946 180.771 48.058 181.34 48.058H182.376C183.001 48.058 183.487 47.96 183.832 47.764C184.177 47.568 184.35 47.274 184.35 46.882ZM181.844 42.696C182.32 42.696 182.698 42.584 182.978 42.36C183.258 42.1267 183.398 41.772 183.398 41.296V40.904C183.398 40.428 183.258 40.078 182.978 39.854C182.698 39.6207 182.32 39.504 181.844 39.504C181.368 39.504 180.99 39.6207 180.71 39.854C180.43 40.078 180.29 40.428 180.29 40.904V41.296C180.29 41.772 180.43 42.1267 180.71 42.36C180.99 42.584 181.368 42.696 181.844 42.696ZM186.707 46V38.776H187.827V40.106H187.897C188.027 39.7607 188.261 39.4527 188.597 39.182C188.933 38.9113 189.395 38.776 189.983 38.776H190.417V39.896H189.759C189.152 39.896 188.676 40.0127 188.331 40.246C187.995 40.47 187.827 40.7547 187.827 41.1V46H186.707ZM194.495 46.168C194 46.168 193.552 46.0793 193.151 45.902C192.759 45.7247 192.418 45.4727 192.129 45.146C191.849 44.81 191.63 44.4133 191.471 43.956C191.322 43.4893 191.247 42.9667 191.247 42.388C191.247 41.8187 191.322 41.3007 191.471 40.834C191.63 40.3673 191.849 39.9707 192.129 39.644C192.418 39.308 192.759 39.0513 193.151 38.874C193.552 38.6967 194 38.608 194.495 38.608C194.98 38.608 195.414 38.6967 195.797 38.874C196.18 39.0513 196.506 39.2987 196.777 39.616C197.048 39.924 197.253 40.2927 197.393 40.722C197.542 41.1513 197.617 41.6227 197.617 42.136V42.668H192.423V43.004C192.423 43.312 192.47 43.6013 192.563 43.872C192.666 44.1333 192.806 44.362 192.983 44.558C193.17 44.754 193.394 44.908 193.655 45.02C193.926 45.132 194.229 45.188 194.565 45.188C195.022 45.188 195.419 45.0807 195.755 44.866C196.1 44.6513 196.366 44.3433 196.553 43.942L197.351 44.516C197.118 45.0107 196.754 45.412 196.259 45.72C195.764 46.0187 195.176 46.168 194.495 46.168ZM194.495 39.546C194.187 39.546 193.907 39.602 193.655 39.714C193.403 39.8167 193.184 39.966 192.997 40.162C192.82 40.358 192.68 40.5913 192.577 40.862C192.474 41.1233 192.423 41.4127 192.423 41.73V41.828H196.413V41.674C196.413 41.03 196.236 40.5167 195.881 40.134C195.536 39.742 195.074 39.546 194.495 39.546ZM204.082 44.824H204.026C203.588 45.72 202.883 46.168 201.912 46.168C201.464 46.168 201.058 46.0793 200.694 45.902C200.33 45.7247 200.018 45.4727 199.756 45.146C199.504 44.8193 199.308 44.4227 199.168 43.956C199.038 43.4893 198.972 42.9667 198.972 42.388C198.972 41.8093 199.038 41.2867 199.168 40.82C199.308 40.3533 199.504 39.9567 199.756 39.63C200.018 39.3033 200.33 39.0513 200.694 38.874C201.058 38.6967 201.464 38.608 201.912 38.608C202.416 38.608 202.846 38.72 203.2 38.944C203.564 39.1587 203.84 39.4947 204.026 39.952H204.082V35.64H205.202V46H204.082V44.824ZM202.22 45.16C202.472 45.16 202.71 45.1273 202.934 45.062C203.168 44.9967 203.368 44.9033 203.536 44.782C203.704 44.6513 203.835 44.4973 203.928 44.32C204.031 44.1333 204.082 43.9233 204.082 43.69V41.002C204.082 40.806 204.031 40.624 203.928 40.456C203.835 40.2787 203.704 40.1293 203.536 40.008C203.368 39.8867 203.168 39.7933 202.934 39.728C202.71 39.6533 202.472 39.616 202.22 39.616C201.586 39.616 201.086 39.8167 200.722 40.218C200.358 40.61 200.176 41.128 200.176 41.772V43.004C200.176 43.648 200.358 44.1707 200.722 44.572C201.086 44.964 201.586 45.16 202.22 45.16ZM208.144 37.082C207.901 37.082 207.724 37.026 207.612 36.914C207.509 36.7927 207.458 36.6387 207.458 36.452V36.27C207.458 36.0833 207.509 35.934 207.612 35.822C207.724 35.7007 207.901 35.64 208.144 35.64C208.386 35.64 208.559 35.7007 208.662 35.822C208.774 35.934 208.83 36.0833 208.83 36.27V36.452C208.83 36.6387 208.774 36.7927 208.662 36.914C208.559 37.026 208.386 37.082 208.144 37.082ZM207.584 38.776H208.704V46H207.584V38.776ZM213.8 46.168C213.305 46.168 212.857 46.0793 212.456 45.902C212.064 45.7247 211.723 45.4727 211.434 45.146C211.154 44.81 210.934 44.4133 210.776 43.956C210.626 43.4893 210.552 42.9667 210.552 42.388C210.552 41.8187 210.626 41.3007 210.776 40.834C210.934 40.3673 211.154 39.9707 211.434 39.644C211.723 39.308 212.064 39.0513 212.456 38.874C212.857 38.6967 213.305 38.608 213.8 38.608C214.285 38.608 214.719 38.6967 215.102 38.874C215.484 39.0513 215.811 39.2987 216.082 39.616C216.352 39.924 216.558 40.2927 216.698 40.722C216.847 41.1513 216.922 41.6227 216.922 42.136V42.668H211.728V43.004C211.728 43.312 211.774 43.6013 211.868 43.872C211.97 44.1333 212.11 44.362 212.288 44.558C212.474 44.754 212.698 44.908 212.96 45.02C213.23 45.132 213.534 45.188 213.87 45.188C214.327 45.188 214.724 45.0807 215.06 44.866C215.405 44.6513 215.671 44.3433 215.858 43.942L216.656 44.516C216.422 45.0107 216.058 45.412 215.564 45.72C215.069 46.0187 214.481 46.168 213.8 46.168ZM213.8 39.546C213.492 39.546 213.212 39.602 212.96 39.714C212.708 39.8167 212.488 39.966 212.302 40.162C212.124 40.358 211.984 40.5913 211.882 40.862C211.779 41.1233 211.728 41.4127 211.728 41.73V41.828H215.718V41.674C215.718 41.03 215.54 40.5167 215.186 40.134C214.84 39.742 214.378 39.546 213.8 39.546ZM218.767 46V38.776H219.887V39.952H219.943C220.12 39.5413 220.368 39.2147 220.685 38.972C221.012 38.7293 221.446 38.608 221.987 38.608C222.734 38.608 223.322 38.8507 223.751 39.336C224.19 39.812 224.409 40.4887 224.409 41.366V46H223.289V41.562C223.289 40.2647 222.743 39.616 221.651 39.616C221.427 39.616 221.208 39.644 220.993 39.7C220.788 39.756 220.601 39.84 220.433 39.952C220.265 40.064 220.13 40.2087 220.027 40.386C219.934 40.554 219.887 40.7547 219.887 40.988V46H218.767ZM228.32 46C227.928 46 227.63 45.8927 227.424 45.678C227.228 45.454 227.13 45.1647 227.13 44.81V39.756H225.94V38.776H226.612C226.855 38.776 227.018 38.7293 227.102 38.636C227.196 38.5333 227.242 38.3607 227.242 38.118V36.774H228.25V38.776H229.832V39.756H228.25V45.02H229.72V46H228.32Z" fill="#EFEFEF"/>
<rect x="21.4667" y="210.467" width="82.0665" height="32.6713" rx="5.13406" fill="#9EDE80" fill-opacity="0.15" stroke="#9EDE80" stroke-width="0.933466"/>
<path d="M30.3976 232V231.02H31.7696V223.208H30.3976V222.228H34.3176V223.208H32.9456V231.02H34.3176V232H30.3976ZM36.3531 232V224.776H37.4731V225.952H37.5291C37.7064 225.541 37.9538 225.215 38.2711 224.972C38.5978 224.729 39.0318 224.608 39.5731 224.608C40.3198 224.608 40.9078 224.851 41.3371 225.336C41.7758 225.812 41.9951 226.489 41.9951 227.366V232H40.8751V227.562C40.8751 226.265 40.3291 225.616 39.2371 225.616C39.0131 225.616 38.7938 225.644 38.5791 225.7C38.3738 225.756 38.1871 225.84 38.0191 225.952C37.8511 226.064 37.7158 226.209 37.6131 226.386C37.5198 226.554 37.4731 226.755 37.4731 226.988V232H36.3531ZM50.4001 232.798C50.4001 233.545 50.1061 234.091 49.5181 234.436C48.9395 234.791 48.0668 234.968 46.9001 234.968C45.7708 234.968 44.9588 234.814 44.4641 234.506C43.9695 234.198 43.7221 233.759 43.7221 233.19C43.7221 232.798 43.8248 232.49 44.0301 232.266C44.2355 232.051 44.5155 231.893 44.8701 231.79V231.636C44.4408 231.431 44.2261 231.095 44.2261 230.628C44.2261 230.264 44.3428 229.989 44.5761 229.802C44.8095 229.606 45.1081 229.461 45.4721 229.368V229.312C45.0428 229.107 44.7068 228.813 44.4641 228.43C44.2308 228.047 44.1141 227.604 44.1141 227.1C44.1141 226.736 44.1795 226.4 44.3101 226.092C44.4408 225.784 44.6228 225.523 44.8561 225.308C45.0988 225.084 45.3835 224.911 45.7101 224.79C46.0461 224.669 46.4195 224.608 46.8301 224.608C47.3435 224.608 47.8008 224.701 48.2021 224.888V224.762C48.2021 224.482 48.2675 224.253 48.3981 224.076C48.5288 223.889 48.7435 223.796 49.0421 223.796H50.1201V224.776H48.7481V225.238C49.0095 225.462 49.2101 225.733 49.3501 226.05C49.4995 226.358 49.5741 226.708 49.5741 227.1C49.5741 227.464 49.5088 227.8 49.3781 228.108C49.2475 228.416 49.0608 228.682 48.8181 228.906C48.5848 229.121 48.3001 229.289 47.9641 229.41C47.6281 229.531 47.2548 229.592 46.8441 229.592C46.6108 229.592 46.3775 229.569 46.1441 229.522C45.9015 229.587 45.6821 229.685 45.4861 229.816C45.2901 229.937 45.1921 230.11 45.1921 230.334C45.1921 230.549 45.2948 230.693 45.5001 230.768C45.7055 230.843 45.9715 230.88 46.2981 230.88H47.8381C48.7341 230.88 49.3828 231.053 49.7841 231.398C50.1948 231.734 50.4001 232.201 50.4001 232.798ZM49.3501 232.882C49.3501 232.593 49.2381 232.359 49.0141 232.182C48.7995 232.014 48.4121 231.93 47.8521 231.93H45.4441C44.9961 232.135 44.7721 232.462 44.7721 232.91C44.7721 233.227 44.8888 233.498 45.1221 233.722C45.3648 233.946 45.7708 234.058 46.3401 234.058H47.3761C48.0015 234.058 48.4868 233.96 48.8321 233.764C49.1775 233.568 49.3501 233.274 49.3501 232.882ZM46.8441 228.696C47.3201 228.696 47.6981 228.584 47.9781 228.36C48.2581 228.127 48.3981 227.772 48.3981 227.296V226.904C48.3981 226.428 48.2581 226.078 47.9781 225.854C47.6981 225.621 47.3201 225.504 46.8441 225.504C46.3681 225.504 45.9901 225.621 45.7101 225.854C45.4301 226.078 45.2901 226.428 45.2901 226.904V227.296C45.2901 227.772 45.4301 228.127 45.7101 228.36C45.9901 228.584 46.3681 228.696 46.8441 228.696ZM51.7066 232V224.776H52.8266V226.106H52.8966C53.0273 225.761 53.2606 225.453 53.5966 225.182C53.9326 224.911 54.3946 224.776 54.9826 224.776H55.4166V225.896H54.7586C54.1519 225.896 53.6759 226.013 53.3306 226.246C52.9946 226.47 52.8266 226.755 52.8266 227.1V232H51.7066ZM59.4949 232.168C59.0002 232.168 58.5522 232.079 58.1509 231.902C57.7589 231.725 57.4182 231.473 57.1289 231.146C56.8489 230.81 56.6295 230.413 56.4709 229.956C56.3215 229.489 56.2469 228.967 56.2469 228.388C56.2469 227.819 56.3215 227.301 56.4709 226.834C56.6295 226.367 56.8489 225.971 57.1289 225.644C57.4182 225.308 57.7589 225.051 58.1509 224.874C58.5522 224.697 59.0002 224.608 59.4949 224.608C59.9802 224.608 60.4142 224.697 60.7969 224.874C61.1795 225.051 61.5062 225.299 61.7769 225.616C62.0475 225.924 62.2529 226.293 62.3929 226.722C62.5422 227.151 62.6169 227.623 62.6169 228.136V228.668H57.4229V229.004C57.4229 229.312 57.4695 229.601 57.5629 229.872C57.6655 230.133 57.8055 230.362 57.9829 230.558C58.1695 230.754 58.3935 230.908 58.6549 231.02C58.9255 231.132 59.2289 231.188 59.5649 231.188C60.0222 231.188 60.4189 231.081 60.7549 230.866C61.1002 230.651 61.3662 230.343 61.5529 229.942L62.3509 230.516C62.1175 231.011 61.7535 231.412 61.2589 231.72C60.7642 232.019 60.1762 232.168 59.4949 232.168ZM59.4949 225.546C59.1869 225.546 58.9069 225.602 58.6549 225.714C58.4029 225.817 58.1835 225.966 57.9969 226.162C57.8195 226.358 57.6795 226.591 57.5769 226.862C57.4742 227.123 57.4229 227.413 57.4229 227.73V227.828H61.4129V227.674C61.4129 227.03 61.2355 226.517 60.8809 226.134C60.5355 225.742 60.0735 225.546 59.4949 225.546ZM69.0825 230.824H69.0265C68.5878 231.72 67.8831 232.168 66.9125 232.168C66.4645 232.168 66.0585 232.079 65.6945 231.902C65.3305 231.725 65.0178 231.473 64.7565 231.146C64.5045 230.819 64.3085 230.423 64.1685 229.956C64.0378 229.489 63.9725 228.967 63.9725 228.388C63.9725 227.809 64.0378 227.287 64.1685 226.82C64.3085 226.353 64.5045 225.957 64.7565 225.63C65.0178 225.303 65.3305 225.051 65.6945 224.874C66.0585 224.697 66.4645 224.608 66.9125 224.608C67.4165 224.608 67.8458 224.72 68.2005 224.944C68.5645 225.159 68.8398 225.495 69.0265 225.952H69.0825V221.64H70.2025V232H69.0825V230.824ZM67.2205 231.16C67.4725 231.16 67.7105 231.127 67.9345 231.062C68.1678 230.997 68.3685 230.903 68.5365 230.782C68.7045 230.651 68.8351 230.497 68.9285 230.32C69.0311 230.133 69.0825 229.923 69.0825 229.69V227.002C69.0825 226.806 69.0311 226.624 68.9285 226.456C68.8351 226.279 68.7045 226.129 68.5365 226.008C68.3685 225.887 68.1678 225.793 67.9345 225.728C67.7105 225.653 67.4725 225.616 67.2205 225.616C66.5858 225.616 66.0865 225.817 65.7225 226.218C65.3585 226.61 65.1765 227.128 65.1765 227.772V229.004C65.1765 229.648 65.3585 230.171 65.7225 230.572C66.0865 230.964 66.5858 231.16 67.2205 231.16ZM73.1436 223.082C72.9009 223.082 72.7236 223.026 72.6116 222.914C72.5089 222.793 72.4576 222.639 72.4576 222.452V222.27C72.4576 222.083 72.5089 221.934 72.6116 221.822C72.7236 221.701 72.9009 221.64 73.1436 221.64C73.3862 221.64 73.5589 221.701 73.6616 221.822C73.7736 221.934 73.8296 222.083 73.8296 222.27V222.452C73.8296 222.639 73.7736 222.793 73.6616 222.914C73.5589 223.026 73.3862 223.082 73.1436 223.082ZM72.5836 224.776H73.7036V232H72.5836V224.776ZM78.7996 232.168C78.3049 232.168 77.8569 232.079 77.4556 231.902C77.0636 231.725 76.7229 231.473 76.4336 231.146C76.1536 230.81 75.9342 230.413 75.7756 229.956C75.6262 229.489 75.5516 228.967 75.5516 228.388C75.5516 227.819 75.6262 227.301 75.7756 226.834C75.9342 226.367 76.1536 225.971 76.4336 225.644C76.7229 225.308 77.0636 225.051 77.4556 224.874C77.8569 224.697 78.3049 224.608 78.7996 224.608C79.2849 224.608 79.7189 224.697 80.1016 224.874C80.4842 225.051 80.8109 225.299 81.0816 225.616C81.3522 225.924 81.5576 226.293 81.6976 226.722C81.8469 227.151 81.9216 227.623 81.9216 228.136V228.668H76.7276V229.004C76.7276 229.312 76.7742 229.601 76.8676 229.872C76.9702 230.133 77.1102 230.362 77.2876 230.558C77.4742 230.754 77.6982 230.908 77.9596 231.02C78.2302 231.132 78.5336 231.188 78.8696 231.188C79.3269 231.188 79.7236 231.081 80.0596 230.866C80.4049 230.651 80.6709 230.343 80.8576 229.942L81.6556 230.516C81.4222 231.011 81.0582 231.412 80.5636 231.72C80.0689 232.019 79.4809 232.168 78.7996 232.168ZM78.7996 225.546C78.4916 225.546 78.2116 225.602 77.9596 225.714C77.7076 225.817 77.4882 225.966 77.3016 226.162C77.1242 226.358 76.9842 226.591 76.8816 226.862C76.7789 227.123 76.7276 227.413 76.7276 227.73V227.828H80.7176V227.674C80.7176 227.03 80.5402 226.517 80.1856 226.134C79.8402 225.742 79.3782 225.546 78.7996 225.546ZM83.7671 232V224.776H84.8871V225.952H84.9431C85.1205 225.541 85.3678 225.215 85.6851 224.972C86.0118 224.729 86.4458 224.608 86.9871 224.608C87.7338 224.608 88.3218 224.851 88.7511 225.336C89.1898 225.812 89.4091 226.489 89.4091 227.366V232H88.2891V227.562C88.2891 226.265 87.7431 225.616 86.6511 225.616C86.4271 225.616 86.2078 225.644 85.9931 225.7C85.7878 225.756 85.6011 225.84 85.4331 225.952C85.2651 226.064 85.1298 226.209 85.0271 226.386C84.9338 226.554 84.8871 226.755 84.8871 226.988V232H83.7671ZM93.3202 232C92.9282 232 92.6295 231.893 92.4242 231.678C92.2282 231.454 92.1302 231.165 92.1302 230.81V225.756H90.9402V224.776H91.6122C91.8548 224.776 92.0182 224.729 92.1022 224.636C92.1955 224.533 92.2422 224.361 92.2422 224.118V222.774H93.2502V224.776H94.8322V225.756H93.2502V231.02H94.7202V232H93.3202Z" fill="#EFEFEF"/>
<rect x="156.467" y="66.4667" width="82.0665" height="32.6713" rx="5.13406" fill="#9EDE80" fill-opacity="0.15" stroke="#9EDE80" stroke-width="0.933466"/>
<path d="M165.398 88V87.02H166.77V79.208H165.398V78.228H169.318V79.208H167.946V87.02H169.318V88H165.398ZM171.353 88V80.776H172.473V81.952H172.529C172.706 81.5413 172.954 81.2147 173.271 80.972C173.598 80.7293 174.032 80.608 174.573 80.608C175.32 80.608 175.908 80.8507 176.337 81.336C176.776 81.812 176.995 82.4887 176.995 83.366V88H175.875V83.562C175.875 82.2647 175.329 81.616 174.237 81.616C174.013 81.616 173.794 81.644 173.579 81.7C173.374 81.756 173.187 81.84 173.019 81.952C172.851 82.064 172.716 82.2087 172.613 82.386C172.52 82.554 172.473 82.7547 172.473 82.988V88H171.353ZM185.4 88.798C185.4 89.5447 185.106 90.0907 184.518 90.436C183.939 90.7907 183.067 90.968 181.9 90.968C180.771 90.968 179.959 90.814 179.464 90.506C178.969 90.198 178.722 89.7593 178.722 89.19C178.722 88.798 178.825 88.49 179.03 88.266C179.235 88.0513 179.515 87.8927 179.87 87.79V87.636C179.441 87.4307 179.226 87.0947 179.226 86.628C179.226 86.264 179.343 85.9887 179.576 85.802C179.809 85.606 180.108 85.4613 180.472 85.368V85.312C180.043 85.1067 179.707 84.8127 179.464 84.43C179.231 84.0473 179.114 83.604 179.114 83.1C179.114 82.736 179.179 82.4 179.31 82.092C179.441 81.784 179.623 81.5227 179.856 81.308C180.099 81.084 180.383 80.9113 180.71 80.79C181.046 80.6687 181.419 80.608 181.83 80.608C182.343 80.608 182.801 80.7013 183.202 80.888V80.762C183.202 80.482 183.267 80.2533 183.398 80.076C183.529 79.8893 183.743 79.796 184.042 79.796H185.12V80.776H183.748V81.238C184.009 81.462 184.21 81.7327 184.35 82.05C184.499 82.358 184.574 82.708 184.574 83.1C184.574 83.464 184.509 83.8 184.378 84.108C184.247 84.416 184.061 84.682 183.818 84.906C183.585 85.1207 183.3 85.2887 182.964 85.41C182.628 85.5313 182.255 85.592 181.844 85.592C181.611 85.592 181.377 85.5687 181.144 85.522C180.901 85.5873 180.682 85.6853 180.486 85.816C180.29 85.9373 180.192 86.11 180.192 86.334C180.192 86.5487 180.295 86.6933 180.5 86.768C180.705 86.8427 180.971 86.88 181.298 86.88H182.838C183.734 86.88 184.383 87.0527 184.784 87.398C185.195 87.734 185.4 88.2007 185.4 88.798ZM184.35 88.882C184.35 88.5927 184.238 88.3593 184.014 88.182C183.799 88.014 183.412 87.93 182.852 87.93H180.444C179.996 88.1353 179.772 88.462 179.772 88.91C179.772 89.2273 179.889 89.498 180.122 89.722C180.365 89.946 180.771 90.058 181.34 90.058H182.376C183.001 90.058 183.487 89.96 183.832 89.764C184.177 89.568 184.35 89.274 184.35 88.882ZM181.844 84.696C182.32 84.696 182.698 84.584 182.978 84.36C183.258 84.1267 183.398 83.772 183.398 83.296V82.904C183.398 82.428 183.258 82.078 182.978 81.854C182.698 81.6207 182.32 81.504 181.844 81.504C181.368 81.504 180.99 81.6207 180.71 81.854C180.43 82.078 180.29 82.428 180.29 82.904V83.296C180.29 83.772 180.43 84.1267 180.71 84.36C180.99 84.584 181.368 84.696 181.844 84.696ZM186.707 88V80.776H187.827V82.106H187.897C188.027 81.7607 188.261 81.4527 188.597 81.182C188.933 80.9113 189.395 80.776 189.983 80.776H190.417V81.896H189.759C189.152 81.896 188.676 82.0127 188.331 82.246C187.995 82.47 187.827 82.7547 187.827 83.1V88H186.707ZM194.495 88.168C194 88.168 193.552 88.0793 193.151 87.902C192.759 87.7247 192.418 87.4727 192.129 87.146C191.849 86.81 191.63 86.4133 191.471 85.956C191.322 85.4893 191.247 84.9667 191.247 84.388C191.247 83.8187 191.322 83.3007 191.471 82.834C191.63 82.3673 191.849 81.9707 192.129 81.644C192.418 81.308 192.759 81.0513 193.151 80.874C193.552 80.6967 194 80.608 194.495 80.608C194.98 80.608 195.414 80.6967 195.797 80.874C196.18 81.0513 196.506 81.2987 196.777 81.616C197.048 81.924 197.253 82.2927 197.393 82.722C197.542 83.1513 197.617 83.6227 197.617 84.136V84.668H192.423V85.004C192.423 85.312 192.47 85.6013 192.563 85.872C192.666 86.1333 192.806 86.362 192.983 86.558C193.17 86.754 193.394 86.908 193.655 87.02C193.926 87.132 194.229 87.188 194.565 87.188C195.022 87.188 195.419 87.0807 195.755 86.866C196.1 86.6513 196.366 86.3433 196.553 85.942L197.351 86.516C197.118 87.0107 196.754 87.412 196.259 87.72C195.764 88.0187 195.176 88.168 194.495 88.168ZM194.495 81.546C194.187 81.546 193.907 81.602 193.655 81.714C193.403 81.8167 193.184 81.966 192.997 82.162C192.82 82.358 192.68 82.5913 192.577 82.862C192.474 83.1233 192.423 83.4127 192.423 83.73V83.828H196.413V83.674C196.413 83.03 196.236 82.5167 195.881 82.134C195.536 81.742 195.074 81.546 194.495 81.546ZM204.082 86.824H204.026C203.588 87.72 202.883 88.168 201.912 88.168C201.464 88.168 201.058 88.0793 200.694 87.902C200.33 87.7247 200.018 87.4727 199.756 87.146C199.504 86.8193 199.308 86.4227 199.168 85.956C199.038 85.4893 198.972 84.9667 198.972 84.388C198.972 83.8093 199.038 83.2867 199.168 82.82C199.308 82.3533 199.504 81.9567 199.756 81.63C200.018 81.3033 200.33 81.0513 200.694 80.874C201.058 80.6967 201.464 80.608 201.912 80.608C202.416 80.608 202.846 80.72 203.2 80.944C203.564 81.1587 203.84 81.4947 204.026 81.952H204.082V77.64H205.202V88H204.082V86.824ZM202.22 87.16C202.472 87.16 202.71 87.1273 202.934 87.062C203.168 86.9967 203.368 86.9033 203.536 86.782C203.704 86.6513 203.835 86.4973 203.928 86.32C204.031 86.1333 204.082 85.9233 204.082 85.69V83.002C204.082 82.806 204.031 82.624 203.928 82.456C203.835 82.2787 203.704 82.1293 203.536 82.008C203.368 81.8867 203.168 81.7933 202.934 81.728C202.71 81.6533 202.472 81.616 202.22 81.616C201.586 81.616 201.086 81.8167 200.722 82.218C200.358 82.61 200.176 83.128 200.176 83.772V85.004C200.176 85.648 200.358 86.1707 200.722 86.572C201.086 86.964 201.586 87.16 202.22 87.16ZM208.144 79.082C207.901 79.082 207.724 79.026 207.612 78.914C207.509 78.7927 207.458 78.6387 207.458 78.452V78.27C207.458 78.0833 207.509 77.934 207.612 77.822C207.724 77.7007 207.901 77.64 208.144 77.64C208.386 77.64 208.559 77.7007 208.662 77.822C208.774 77.934 208.83 78.0833 208.83 78.27V78.452C208.83 78.6387 208.774 78.7927 208.662 78.914C208.559 79.026 208.386 79.082 208.144 79.082ZM207.584 80.776H208.704V88H207.584V80.776ZM213.8 88.168C213.305 88.168 212.857 88.0793 212.456 87.902C212.064 87.7247 211.723 87.4727 211.434 87.146C211.154 86.81 210.934 86.4133 210.776 85.956C210.626 85.4893 210.552 84.9667 210.552 84.388C210.552 83.8187 210.626 83.3007 210.776 82.834C210.934 82.3673 211.154 81.9707 211.434 81.644C211.723 81.308 212.064 81.0513 212.456 80.874C212.857 80.6967 213.305 80.608 213.8 80.608C214.285 80.608 214.719 80.6967 215.102 80.874C215.484 81.0513 215.811 81.2987 216.082 81.616C216.352 81.924 216.558 82.2927 216.698 82.722C216.847 83.1513 216.922 83.6227 216.922 84.136V84.668H211.728V85.004C211.728 85.312 211.774 85.6013 211.868 85.872C211.97 86.1333 212.11 86.362 212.288 86.558C212.474 86.754 212.698 86.908 212.96 87.02C213.23 87.132 213.534 87.188 213.87 87.188C214.327 87.188 214.724 87.0807 215.06 86.866C215.405 86.6513 215.671 86.3433 215.858 85.942L216.656 86.516C216.422 87.0107 216.058 87.412 215.564 87.72C215.069 88.0187 214.481 88.168 213.8 88.168ZM213.8 81.546C213.492 81.546 213.212 81.602 212.96 81.714C212.708 81.8167 212.488 81.966 212.302 82.162C212.124 82.358 211.984 82.5913 211.882 82.862C211.779 83.1233 211.728 83.4127 211.728 83.73V83.828H215.718V83.674C215.718 83.03 215.54 82.5167 215.186 82.134C214.84 81.742 214.378 81.546 213.8 81.546ZM218.767 88V80.776H219.887V81.952H219.943C220.12 81.5413 220.368 81.2147 220.685 80.972C221.012 80.7293 221.446 80.608 221.987 80.608C222.734 80.608 223.322 80.8507 223.751 81.336C224.19 81.812 224.409 82.4887 224.409 83.366V88H223.289V83.562C223.289 82.2647 222.743 81.616 221.651 81.616C221.427 81.616 221.208 81.644 220.993 81.7C220.788 81.756 220.601 81.84 220.433 81.952C220.265 82.064 220.13 82.2087 220.027 82.386C219.934 82.554 219.887 82.7547 219.887 82.988V88H218.767ZM228.32 88C227.928 88 227.63 87.8927 227.424 87.678C227.228 87.454 227.13 87.1647 227.13 86.81V81.756H225.94V80.776H226.612C226.855 80.776 227.018 80.7293 227.102 80.636C227.196 80.5333 227.242 80.3607 227.242 80.118V78.774H228.25V80.776H229.832V81.756H228.25V87.02H229.72V88H228.32Z" fill="#EFEFEF"/>
<rect x="156.467" y="108.467" width="82.0665" height="32.6713" rx="5.13406" fill="#9EDE80" fill-opacity="0.15" stroke="#9EDE80" stroke-width="0.933466"/>
<path d="M165.398 130V129.02H166.77V121.208H165.398V120.228H169.318V121.208H167.946V129.02H169.318V130H165.398ZM171.353 130V122.776H172.473V123.952H172.529C172.706 123.541 172.954 123.215 173.271 122.972C173.598 122.729 174.032 122.608 174.573 122.608C175.32 122.608 175.908 122.851 176.337 123.336C176.776 123.812 176.995 124.489 176.995 125.366V130H175.875V125.562C175.875 124.265 175.329 123.616 174.237 123.616C174.013 123.616 173.794 123.644 173.579 123.7C173.374 123.756 173.187 123.84 173.019 123.952C172.851 124.064 172.716 124.209 172.613 124.386C172.52 124.554 172.473 124.755 172.473 124.988V130H171.353ZM185.4 130.798C185.4 131.545 185.106 132.091 184.518 132.436C183.939 132.791 183.067 132.968 181.9 132.968C180.771 132.968 179.959 132.814 179.464 132.506C178.969 132.198 178.722 131.759 178.722 131.19C178.722 130.798 178.825 130.49 179.03 130.266C179.235 130.051 179.515 129.893 179.87 129.79V129.636C179.441 129.431 179.226 129.095 179.226 128.628C179.226 128.264 179.343 127.989 179.576 127.802C179.809 127.606 180.108 127.461 180.472 127.368V127.312C180.043 127.107 179.707 126.813 179.464 126.43C179.231 126.047 179.114 125.604 179.114 125.1C179.114 124.736 179.179 124.4 179.31 124.092C179.441 123.784 179.623 123.523 179.856 123.308C180.099 123.084 180.383 122.911 180.71 122.79C181.046 122.669 181.419 122.608 181.83 122.608C182.343 122.608 182.801 122.701 183.202 122.888V122.762C183.202 122.482 183.267 122.253 183.398 122.076C183.529 121.889 183.743 121.796 184.042 121.796H185.12V122.776H183.748V123.238C184.009 123.462 184.21 123.733 184.35 124.05C184.499 124.358 184.574 124.708 184.574 125.1C184.574 125.464 184.509 125.8 184.378 126.108C184.247 126.416 184.061 126.682 183.818 126.906C183.585 127.121 183.3 127.289 182.964 127.41C182.628 127.531 182.255 127.592 181.844 127.592C181.611 127.592 181.377 127.569 181.144 127.522C180.901 127.587 180.682 127.685 180.486 127.816C180.29 127.937 180.192 128.11 180.192 128.334C180.192 128.549 180.295 128.693 180.5 128.768C180.705 128.843 180.971 128.88 181.298 128.88H182.838C183.734 128.88 184.383 129.053 184.784 129.398C185.195 129.734 185.4 130.201 185.4 130.798ZM184.35 130.882C184.35 130.593 184.238 130.359 184.014 130.182C183.799 130.014 183.412 129.93 182.852 129.93H180.444C179.996 130.135 179.772 130.462 179.772 130.91C179.772 131.227 179.889 131.498 180.122 131.722C180.365 131.946 180.771 132.058 181.34 132.058H182.376C183.001 132.058 183.487 131.96 183.832 131.764C184.177 131.568 184.35 131.274 184.35 130.882ZM181.844 126.696C182.32 126.696 182.698 126.584 182.978 126.36C183.258 126.127 183.398 125.772 183.398 125.296V124.904C183.398 124.428 183.258 124.078 182.978 123.854C182.698 123.621 182.32 123.504 181.844 123.504C181.368 123.504 180.99 123.621 180.71 123.854C180.43 124.078 180.29 124.428 180.29 124.904V125.296C180.29 125.772 180.43 126.127 180.71 126.36C180.99 126.584 181.368 126.696 181.844 126.696ZM186.707 130V122.776H187.827V124.106H187.897C188.027 123.761 188.261 123.453 188.597 123.182C188.933 122.911 189.395 122.776 189.983 122.776H190.417V123.896H189.759C189.152 123.896 188.676 124.013 188.331 124.246C187.995 124.47 187.827 124.755 187.827 125.1V130H186.707ZM194.495 130.168C194 130.168 193.552 130.079 193.151 129.902C192.759 129.725 192.418 129.473 192.129 129.146C191.849 128.81 191.63 128.413 191.471 127.956C191.322 127.489 191.247 126.967 191.247 126.388C191.247 125.819 191.322 125.301 191.471 124.834C191.63 124.367 191.849 123.971 192.129 123.644C192.418 123.308 192.759 123.051 193.151 122.874C193.552 122.697 194 122.608 194.495 122.608C194.98 122.608 195.414 122.697 195.797 122.874C196.18 123.051 196.506 123.299 196.777 123.616C197.048 123.924 197.253 124.293 197.393 124.722C197.542 125.151 197.617 125.623 197.617 126.136V126.668H192.423V127.004C192.423 127.312 192.47 127.601 192.563 127.872C192.666 128.133 192.806 128.362 192.983 128.558C193.17 128.754 193.394 128.908 193.655 129.02C193.926 129.132 194.229 129.188 194.565 129.188C195.022 129.188 195.419 129.081 195.755 128.866C196.1 128.651 196.366 128.343 196.553 127.942L197.351 128.516C197.118 129.011 196.754 129.412 196.259 129.72C195.764 130.019 195.176 130.168 194.495 130.168ZM194.495 123.546C194.187 123.546 193.907 123.602 193.655 123.714C193.403 123.817 193.184 123.966 192.997 124.162C192.82 124.358 192.68 124.591 192.577 124.862C192.474 125.123 192.423 125.413 192.423 125.73V125.828H196.413V125.674C196.413 125.03 196.236 124.517 195.881 124.134C195.536 123.742 195.074 123.546 194.495 123.546ZM204.082 128.824H204.026C203.588 129.72 202.883 130.168 201.912 130.168C201.464 130.168 201.058 130.079 200.694 129.902C200.33 129.725 200.018 129.473 199.756 129.146C199.504 128.819 199.308 128.423 199.168 127.956C199.038 127.489 198.972 126.967 198.972 126.388C198.972 125.809 199.038 125.287 199.168 124.82C199.308 124.353 199.504 123.957 199.756 123.63C200.018 123.303 200.33 123.051 200.694 122.874C201.058 122.697 201.464 122.608 201.912 122.608C202.416 122.608 202.846 122.72 203.2 122.944C203.564 123.159 203.84 123.495 204.026 123.952H204.082V119.64H205.202V130H204.082V128.824ZM202.22 129.16C202.472 129.16 202.71 129.127 202.934 129.062C203.168 128.997 203.368 128.903 203.536 128.782C203.704 128.651 203.835 128.497 203.928 128.32C204.031 128.133 204.082 127.923 204.082 127.69V125.002C204.082 124.806 204.031 124.624 203.928 124.456C203.835 124.279 203.704 124.129 203.536 124.008C203.368 123.887 203.168 123.793 202.934 123.728C202.71 123.653 202.472 123.616 202.22 123.616C201.586 123.616 201.086 123.817 200.722 124.218C200.358 124.61 200.176 125.128 200.176 125.772V127.004C200.176 127.648 200.358 128.171 200.722 128.572C201.086 128.964 201.586 129.16 202.22 129.16ZM208.144 121.082C207.901 121.082 207.724 121.026 207.612 120.914C207.509 120.793 207.458 120.639 207.458 120.452V120.27C207.458 120.083 207.509 119.934 207.612 119.822C207.724 119.701 207.901 119.64 208.144 119.64C208.386 119.64 208.559 119.701 208.662 119.822C208.774 119.934 208.83 120.083 208.83 120.27V120.452C208.83 120.639 208.774 120.793 208.662 120.914C208.559 121.026 208.386 121.082 208.144 121.082ZM207.584 122.776H208.704V130H207.584V122.776ZM213.8 130.168C213.305 130.168 212.857 130.079 212.456 129.902C212.064 129.725 211.723 129.473 211.434 129.146C211.154 128.81 210.934 128.413 210.776 127.956C210.626 127.489 210.552 126.967 210.552 126.388C210.552 125.819 210.626 125.301 210.776 124.834C210.934 124.367 211.154 123.971 211.434 123.644C211.723 123.308 212.064 123.051 212.456 122.874C212.857 122.697 213.305 122.608 213.8 122.608C214.285 122.608 214.719 122.697 215.102 122.874C215.484 123.051 215.811 123.299 216.082 123.616C216.352 123.924 216.558 124.293 216.698 124.722C216.847 125.151 216.922 125.623 216.922 126.136V126.668H211.728V127.004C211.728 127.312 211.774 127.601 211.868 127.872C211.97 128.133 212.11 128.362 212.288 128.558C212.474 128.754 212.698 128.908 212.96 129.02C213.23 129.132 213.534 129.188 213.87 129.188C214.327 129.188 214.724 129.081 215.06 128.866C215.405 128.651 215.671 128.343 215.858 127.942L216.656 128.516C216.422 129.011 216.058 129.412 215.564 129.72C215.069 130.019 214.481 130.168 213.8 130.168ZM213.8 123.546C213.492 123.546 213.212 123.602 212.96 123.714C212.708 123.817 212.488 123.966 212.302 124.162C212.124 124.358 211.984 124.591 211.882 124.862C211.779 125.123 211.728 125.413 211.728 125.73V125.828H215.718V125.674C215.718 125.03 215.54 124.517 215.186 124.134C214.84 123.742 214.378 123.546 213.8 123.546ZM218.767 130V122.776H219.887V123.952H219.943C220.12 123.541 220.368 123.215 220.685 122.972C221.012 122.729 221.446 122.608 221.987 122.608C222.734 122.608 223.322 122.851 223.751 123.336C224.19 123.812 224.409 124.489 224.409 125.366V130H223.289V125.562C223.289 124.265 222.743 123.616 221.651 123.616C221.427 123.616 221.208 123.644 220.993 123.7C220.788 123.756 220.601 123.84 220.433 123.952C220.265 124.064 220.13 124.209 220.027 124.386C219.934 124.554 219.887 124.755 219.887 124.988V130H218.767ZM228.32 130C227.928 130 227.63 129.893 227.424 129.678C227.228 129.454 227.13 129.165 227.13 128.81V123.756H225.94V122.776H226.612C226.855 122.776 227.018 122.729 227.102 122.636C227.196 122.533 227.242 122.361 227.242 122.118V120.774H228.25V122.776H229.832V123.756H228.25V129.02H229.72V130H228.32Z" fill="#EFEFEF"/>
<path d="M150.354 83.3536C150.549 83.1583 150.549 82.8417 150.354 82.6464L147.172 79.4645C146.976 79.2692 146.66 79.2692 146.464 79.4645C146.269 79.6597 146.269 79.9763 146.464 80.1716L149.293 83L146.464 85.8284C146.269 86.0237 146.269 86.3403 146.464 86.5355C146.66 86.7308 146.976 86.7308 147.172 86.5355L150.354 83.3536ZM110 83.5H150V82.5H110V83.5Z" fill="#EFEFEF"/>
<path d="M151.498 41.0394C151.52 40.7641 151.315 40.5233 151.039 40.5016L146.553 40.1474C146.278 40.1257 146.037 40.3312 146.016 40.6065C145.994 40.8818 146.199 41.1226 146.475 41.1443L150.462 41.4591L150.147 45.4467C150.126 45.722 150.331 45.9628 150.606 45.9845C150.882 46.0062 151.123 45.8007 151.144 45.5254L151.498 41.0394ZM110.325 76.3803L151.325 41.3803L150.675 40.6197L109.675 75.6197L110.325 76.3803Z" fill="#EFEFEF"/>
<path d="M151.462 205.191C151.568 204.936 151.446 204.644 151.191 204.538L147.033 202.817C146.778 202.712 146.485 202.833 146.38 203.088C146.274 203.343 146.396 203.636 146.651 203.741L150.347 205.271L148.817 208.967C148.712 209.222 148.833 209.515 149.088 209.62C149.343 209.726 149.636 209.604 149.741 209.349L151.462 205.191ZM110.192 222.462L151.192 205.462L150.808 204.538L109.808 221.538L110.192 222.462Z" fill="#EFEFEF"/>
<path d="M151.462 246.809C151.568 247.064 151.446 247.356 151.191 247.462L147.033 249.183C146.778 249.288 146.485 249.167 146.38 248.912C146.274 248.657 146.396 248.364 146.651 248.259L150.347 246.729L148.817 243.033C148.712 242.778 148.833 242.485 149.088 242.38C149.343 242.274 149.636 242.396 149.741 242.651L151.462 246.809ZM110.192 229.538L151.192 246.538L150.808 247.462L109.808 230.462L110.192 229.538Z" fill="#EFEFEF"/>
<path d="M151.498 124.961C151.52 125.236 151.315 125.477 151.039 125.498L146.553 125.853C146.278 125.874 146.037 125.669 146.016 125.394C145.994 125.118 146.199 124.877 146.475 124.856L150.462 124.541L150.147 120.553C150.126 120.278 150.331 120.037 150.606 120.016C150.882 119.994 151.123 120.199 151.144 120.475L151.498 124.961ZM110.325 89.6197L151.325 124.62L150.675 125.38L109.675 90.3803L110.325 89.6197Z" fill="#EFEFEF"/>
</svg>
