<svg width="307" height="287" viewBox="0 0 307 287" fill="none" xmlns="http://www.w3.org/2000/svg">
<rect x="69.4667" y="230.467" width="180.408" height="32.6713" rx="5.13406" fill="#75B2F6" fill-opacity="0.15" stroke="#75B2F6" stroke-width="0.933466"/>
<path d="M99.798 252V242.228H103.69C104.567 242.228 105.239 242.48 105.706 242.984C106.182 243.479 106.42 244.16 106.42 245.028C106.42 245.896 106.182 246.582 105.706 247.086C105.239 247.581 104.567 247.828 103.69 247.828H100.974V252H99.798ZM100.974 246.792H103.69C104.157 246.792 104.516 246.671 104.768 246.428C105.029 246.185 105.16 245.84 105.16 245.392V244.664C105.16 244.216 105.029 243.871 104.768 243.628C104.516 243.385 104.157 243.264 103.69 243.264H100.974V246.792ZM108.039 252V244.776H109.159V246.106H109.229C109.36 245.761 109.593 245.453 109.929 245.182C110.265 244.911 110.727 244.776 111.315 244.776H111.749V245.896H111.091C110.485 245.896 110.009 246.013 109.663 246.246C109.327 246.47 109.159 246.755 109.159 247.1V252H108.039ZM115.828 252.168C115.333 252.168 114.885 252.079 114.484 251.902C114.092 251.725 113.751 251.473 113.462 251.146C113.182 250.81 112.962 250.413 112.804 249.956C112.654 249.489 112.58 248.967 112.58 248.388C112.58 247.819 112.654 247.301 112.804 246.834C112.962 246.367 113.182 245.971 113.462 245.644C113.751 245.308 114.092 245.051 114.484 244.874C114.885 244.697 115.333 244.608 115.828 244.608C116.313 244.608 116.747 244.697 117.13 244.874C117.512 245.051 117.839 245.299 118.11 245.616C118.38 245.924 118.586 246.293 118.726 246.722C118.875 247.151 118.95 247.623 118.95 248.136V248.668H113.756V249.004C113.756 249.312 113.802 249.601 113.896 249.872C113.998 250.133 114.138 250.362 114.316 250.558C114.502 250.754 114.726 250.908 114.988 251.02C115.258 251.132 115.562 251.188 115.898 251.188C116.355 251.188 116.752 251.081 117.088 250.866C117.433 250.651 117.699 250.343 117.886 249.942L118.684 250.516C118.45 251.011 118.086 251.412 117.592 251.72C117.097 252.019 116.509 252.168 115.828 252.168ZM115.828 245.546C115.52 245.546 115.24 245.602 114.988 245.714C114.736 245.817 114.516 245.966 114.33 246.162C114.152 246.358 114.012 246.591 113.91 246.862C113.807 247.123 113.756 247.413 113.756 247.73V247.828H117.746V247.674C117.746 247.03 117.568 246.517 117.214 246.134C116.868 245.742 116.406 245.546 115.828 245.546ZM120.795 244.776H121.915V245.952H121.971C122.158 245.495 122.429 245.159 122.783 244.944C123.147 244.72 123.581 244.608 124.085 244.608C124.533 244.608 124.939 244.697 125.303 244.874C125.667 245.051 125.975 245.303 126.227 245.63C126.489 245.957 126.685 246.353 126.815 246.82C126.955 247.287 127.025 247.809 127.025 248.388C127.025 248.967 126.955 249.489 126.815 249.956C126.685 250.423 126.489 250.819 126.227 251.146C125.975 251.473 125.667 251.725 125.303 251.902C124.939 252.079 124.533 252.168 124.085 252.168C123.105 252.168 122.401 251.72 121.971 250.824H121.915V254.8H120.795V244.776ZM123.777 251.16C124.412 251.16 124.911 250.964 125.275 250.572C125.639 250.171 125.821 249.648 125.821 249.004V247.772C125.821 247.128 125.639 246.61 125.275 246.218C124.911 245.817 124.412 245.616 123.777 245.616C123.525 245.616 123.283 245.653 123.049 245.728C122.825 245.793 122.629 245.887 122.461 246.008C122.293 246.129 122.158 246.279 122.055 246.456C121.962 246.624 121.915 246.806 121.915 247.002V249.69C121.915 249.923 121.962 250.133 122.055 250.32C122.158 250.497 122.293 250.651 122.461 250.782C122.629 250.903 122.825 250.997 123.049 251.062C123.283 251.127 123.525 251.16 123.777 251.16ZM128.916 244.776H130.036V245.952H130.092C130.279 245.495 130.55 245.159 130.904 244.944C131.268 244.72 131.702 244.608 132.206 244.608C132.654 244.608 133.06 244.697 133.424 244.874C133.788 245.051 134.096 245.303 134.348 245.63C134.61 245.957 134.806 246.353 134.936 246.82C135.076 247.287 135.146 247.809 135.146 248.388C135.146 248.967 135.076 249.489 134.936 249.956C134.806 250.423 134.61 250.819 134.348 251.146C134.096 251.473 133.788 251.725 133.424 251.902C133.06 252.079 132.654 252.168 132.206 252.168C131.226 252.168 130.522 251.72 130.092 250.824H130.036V254.8H128.916V244.776ZM131.898 251.16C132.533 251.16 133.032 250.964 133.396 250.572C133.76 250.171 133.942 249.648 133.942 249.004V247.772C133.942 247.128 133.76 246.61 133.396 246.218C133.032 245.817 132.533 245.616 131.898 245.616C131.646 245.616 131.404 245.653 131.17 245.728C130.946 245.793 130.75 245.887 130.582 246.008C130.414 246.129 130.279 246.279 130.176 246.456C130.083 246.624 130.036 246.806 130.036 247.002V249.69C130.036 249.923 130.083 250.133 130.176 250.32C130.279 250.497 130.414 250.651 130.582 250.782C130.75 250.903 130.946 250.997 131.17 251.062C131.404 251.127 131.646 251.16 131.898 251.16ZM139.754 252.168C139.259 252.168 138.811 252.079 138.41 251.902C138.018 251.725 137.677 251.473 137.388 251.146C137.108 250.81 136.888 250.413 136.73 249.956C136.58 249.489 136.506 248.967 136.506 248.388C136.506 247.819 136.58 247.301 136.73 246.834C136.888 246.367 137.108 245.971 137.388 245.644C137.677 245.308 138.018 245.051 138.41 244.874C138.811 244.697 139.259 244.608 139.754 244.608C140.239 244.608 140.673 244.697 141.056 244.874C141.438 245.051 141.765 245.299 142.036 245.616C142.306 245.924 142.512 246.293 142.652 246.722C142.801 247.151 142.876 247.623 142.876 248.136V248.668H137.682V249.004C137.682 249.312 137.728 249.601 137.822 249.872C137.924 250.133 138.064 250.362 138.242 250.558C138.428 250.754 138.652 250.908 138.914 251.02C139.184 251.132 139.488 251.188 139.824 251.188C140.281 251.188 140.678 251.081 141.014 250.866C141.359 250.651 141.625 250.343 141.812 249.942L142.61 250.516C142.376 251.011 142.012 251.412 141.518 251.72C141.023 252.019 140.435 252.168 139.754 252.168ZM139.754 245.546C139.446 245.546 139.166 245.602 138.914 245.714C138.662 245.817 138.442 245.966 138.256 246.162C138.078 246.358 137.938 246.591 137.836 246.862C137.733 247.123 137.682 247.413 137.682 247.73V247.828H141.672V247.674C141.672 247.03 141.494 246.517 141.14 246.134C140.794 245.742 140.332 245.546 139.754 245.546ZM149.341 250.824H149.285C148.846 251.72 148.142 252.168 147.171 252.168C146.723 252.168 146.317 252.079 145.953 251.902C145.589 251.725 145.276 251.473 145.015 251.146C144.763 250.819 144.567 250.423 144.427 249.956C144.296 249.489 144.231 248.967 144.231 248.388C144.231 247.809 144.296 247.287 144.427 246.82C144.567 246.353 144.763 245.957 145.015 245.63C145.276 245.303 145.589 245.051 145.953 244.874C146.317 244.697 146.723 244.608 147.171 244.608C147.675 244.608 148.104 244.72 148.459 244.944C148.823 245.159 149.098 245.495 149.285 245.952H149.341V241.64H150.461V252H149.341V250.824ZM147.479 251.16C147.731 251.16 147.969 251.127 148.193 251.062C148.426 250.997 148.627 250.903 148.795 250.782C148.963 250.651 149.094 250.497 149.187 250.32C149.29 250.133 149.341 249.923 149.341 249.69V247.002C149.341 246.806 149.29 246.624 149.187 246.456C149.094 246.279 148.963 246.129 148.795 246.008C148.627 245.887 148.426 245.793 148.193 245.728C147.969 245.653 147.731 245.616 147.479 245.616C146.844 245.616 146.345 245.817 145.981 246.218C145.617 246.61 145.435 247.128 145.435 247.772V249.004C145.435 249.648 145.617 250.171 145.981 250.572C146.345 250.964 146.844 251.16 147.479 251.16ZM155.801 252V251.02H157.173V243.208H155.801V242.228H159.721V243.208H158.349V251.02H159.721V252H155.801ZM161.756 252V244.776H162.876V245.952H162.932C163.11 245.541 163.357 245.215 163.674 244.972C164.001 244.729 164.435 244.608 164.976 244.608C165.723 244.608 166.311 244.851 166.74 245.336C167.179 245.812 167.398 246.489 167.398 247.366V252H166.278V247.562C166.278 246.265 165.732 245.616 164.64 245.616C164.416 245.616 164.197 245.644 163.982 245.7C163.777 245.756 163.59 245.84 163.422 245.952C163.254 246.064 163.119 246.209 163.016 246.386C162.923 246.554 162.876 246.755 162.876 246.988V252H161.756ZM175.803 252.798C175.803 253.545 175.509 254.091 174.921 254.436C174.343 254.791 173.47 254.968 172.303 254.968C171.174 254.968 170.362 254.814 169.867 254.506C169.373 254.198 169.125 253.759 169.125 253.19C169.125 252.798 169.228 252.49 169.433 252.266C169.639 252.051 169.919 251.893 170.273 251.79V251.636C169.844 251.431 169.629 251.095 169.629 250.628C169.629 250.264 169.746 249.989 169.979 249.802C170.213 249.606 170.511 249.461 170.875 249.368V249.312C170.446 249.107 170.11 248.813 169.867 248.43C169.634 248.047 169.517 247.604 169.517 247.1C169.517 246.736 169.583 246.4 169.713 246.092C169.844 245.784 170.026 245.523 170.259 245.308C170.502 245.084 170.787 244.911 171.113 244.79C171.449 244.669 171.823 244.608 172.233 244.608C172.747 244.608 173.204 244.701 173.605 244.888V244.762C173.605 244.482 173.671 244.253 173.801 244.076C173.932 243.889 174.147 243.796 174.445 243.796H175.523V244.776H174.151V245.238C174.413 245.462 174.613 245.733 174.753 246.05C174.903 246.358 174.977 246.708 174.977 247.1C174.977 247.464 174.912 247.8 174.781 248.108C174.651 248.416 174.464 248.682 174.221 248.906C173.988 249.121 173.703 249.289 173.367 249.41C173.031 249.531 172.658 249.592 172.247 249.592C172.014 249.592 171.781 249.569 171.547 249.522C171.305 249.587 171.085 249.685 170.889 249.816C170.693 249.937 170.595 250.11 170.595 250.334C170.595 250.549 170.698 250.693 170.903 250.768C171.109 250.843 171.375 250.88 171.701 250.88H173.241C174.137 250.88 174.786 251.053 175.187 251.398C175.598 251.734 175.803 252.201 175.803 252.798ZM174.753 252.882C174.753 252.593 174.641 252.359 174.417 252.182C174.203 252.014 173.815 251.93 173.255 251.93H170.847C170.399 252.135 170.175 252.462 170.175 252.91C170.175 253.227 170.292 253.498 170.525 253.722C170.768 253.946 171.174 254.058 171.743 254.058H172.779C173.405 254.058 173.89 253.96 174.235 253.764C174.581 253.568 174.753 253.274 174.753 252.882ZM172.247 248.696C172.723 248.696 173.101 248.584 173.381 248.36C173.661 248.127 173.801 247.772 173.801 247.296V246.904C173.801 246.428 173.661 246.078 173.381 245.854C173.101 245.621 172.723 245.504 172.247 245.504C171.771 245.504 171.393 245.621 171.113 245.854C170.833 246.078 170.693 246.428 170.693 246.904V247.296C170.693 247.772 170.833 248.127 171.113 248.36C171.393 248.584 171.771 248.696 172.247 248.696ZM177.11 252V244.776H178.23V246.106H178.3C178.43 245.761 178.664 245.453 179 245.182C179.336 244.911 179.798 244.776 180.386 244.776H180.82V245.896H180.162C179.555 245.896 179.079 246.013 178.734 246.246C178.398 246.47 178.23 246.755 178.23 247.1V252H177.11ZM184.898 252.168C184.403 252.168 183.955 252.079 183.554 251.902C183.162 251.725 182.821 251.473 182.532 251.146C182.252 250.81 182.033 250.413 181.874 249.956C181.725 249.489 181.65 248.967 181.65 248.388C181.65 247.819 181.725 247.301 181.874 246.834C182.033 246.367 182.252 245.971 182.532 245.644C182.821 245.308 183.162 245.051 183.554 244.874C183.955 244.697 184.403 244.608 184.898 244.608C185.383 244.608 185.817 244.697 186.2 244.874C186.583 245.051 186.909 245.299 187.18 245.616C187.451 245.924 187.656 246.293 187.796 246.722C187.945 247.151 188.02 247.623 188.02 248.136V248.668H182.826V249.004C182.826 249.312 182.873 249.601 182.966 249.872C183.069 250.133 183.209 250.362 183.386 250.558C183.573 250.754 183.797 250.908 184.058 251.02C184.329 251.132 184.632 251.188 184.968 251.188C185.425 251.188 185.822 251.081 186.158 250.866C186.503 250.651 186.769 250.343 186.956 249.942L187.754 250.516C187.521 251.011 187.157 251.412 186.662 251.72C186.167 252.019 185.579 252.168 184.898 252.168ZM184.898 245.546C184.59 245.546 184.31 245.602 184.058 245.714C183.806 245.817 183.587 245.966 183.4 246.162C183.223 246.358 183.083 246.591 182.98 246.862C182.877 247.123 182.826 247.413 182.826 247.73V247.828H186.816V247.674C186.816 247.03 186.639 246.517 186.284 246.134C185.939 245.742 185.477 245.546 184.898 245.546ZM194.486 250.824H194.43C193.991 251.72 193.286 252.168 192.316 252.168C191.868 252.168 191.462 252.079 191.098 251.902C190.734 251.725 190.421 251.473 190.16 251.146C189.908 250.819 189.712 250.423 189.572 249.956C189.441 249.489 189.376 248.967 189.376 248.388C189.376 247.809 189.441 247.287 189.572 246.82C189.712 246.353 189.908 245.957 190.16 245.63C190.421 245.303 190.734 245.051 191.098 244.874C191.462 244.697 191.868 244.608 192.316 244.608C192.82 244.608 193.249 244.72 193.604 244.944C193.968 245.159 194.243 245.495 194.43 245.952H194.486V241.64H195.606V252H194.486V250.824ZM192.624 251.16C192.876 251.16 193.114 251.127 193.338 251.062C193.571 250.997 193.772 250.903 193.94 250.782C194.108 250.651 194.238 250.497 194.332 250.32C194.434 250.133 194.486 249.923 194.486 249.69V247.002C194.486 246.806 194.434 246.624 194.332 246.456C194.238 246.279 194.108 246.129 193.94 246.008C193.772 245.887 193.571 245.793 193.338 245.728C193.114 245.653 192.876 245.616 192.624 245.616C191.989 245.616 191.49 245.817 191.126 246.218C190.762 246.61 190.58 247.128 190.58 247.772V249.004C190.58 249.648 190.762 250.171 191.126 250.572C191.49 250.964 191.989 251.16 192.624 251.16ZM198.547 243.082C198.304 243.082 198.127 243.026 198.015 242.914C197.912 242.793 197.861 242.639 197.861 242.452V242.27C197.861 242.083 197.912 241.934 198.015 241.822C198.127 241.701 198.304 241.64 198.547 241.64C198.789 241.64 198.962 241.701 199.065 241.822C199.177 241.934 199.233 242.083 199.233 242.27V242.452C199.233 242.639 199.177 242.793 199.065 242.914C198.962 243.026 198.789 243.082 198.547 243.082ZM197.987 244.776H199.107V252H197.987V244.776ZM204.203 252.168C203.708 252.168 203.26 252.079 202.859 251.902C202.467 251.725 202.126 251.473 201.837 251.146C201.557 250.81 201.337 250.413 201.179 249.956C201.029 249.489 200.955 248.967 200.955 248.388C200.955 247.819 201.029 247.301 201.179 246.834C201.337 246.367 201.557 245.971 201.837 245.644C202.126 245.308 202.467 245.051 202.859 244.874C203.26 244.697 203.708 244.608 204.203 244.608C204.688 244.608 205.122 244.697 205.505 244.874C205.887 245.051 206.214 245.299 206.485 245.616C206.755 245.924 206.961 246.293 207.101 246.722C207.25 247.151 207.325 247.623 207.325 248.136V248.668H202.131V249.004C202.131 249.312 202.177 249.601 202.271 249.872C202.373 250.133 202.513 250.362 202.691 250.558C202.877 250.754 203.101 250.908 203.363 251.02C203.633 251.132 203.937 251.188 204.273 251.188C204.73 251.188 205.127 251.081 205.463 250.866C205.808 250.651 206.074 250.343 206.261 249.942L207.059 250.516C206.825 251.011 206.461 251.412 205.967 251.72C205.472 252.019 204.884 252.168 204.203 252.168ZM204.203 245.546C203.895 245.546 203.615 245.602 203.363 245.714C203.111 245.817 202.891 245.966 202.705 246.162C202.527 246.358 202.387 246.591 202.285 246.862C202.182 247.123 202.131 247.413 202.131 247.73V247.828H206.121V247.674C206.121 247.03 205.943 246.517 205.589 246.134C205.243 245.742 204.781 245.546 204.203 245.546ZM209.17 252V244.776H210.29V245.952H210.346C210.524 245.541 210.771 245.215 211.088 244.972C211.415 244.729 211.849 244.608 212.39 244.608C213.137 244.608 213.725 244.851 214.154 245.336C214.593 245.812 214.812 246.489 214.812 247.366V252H213.692V247.562C213.692 246.265 213.146 245.616 212.054 245.616C211.83 245.616 211.611 245.644 211.396 245.7C211.191 245.756 211.004 245.84 210.836 245.952C210.668 246.064 210.533 246.209 210.43 246.386C210.337 246.554 210.29 246.755 210.29 246.988V252H209.17ZM218.723 252C218.331 252 218.033 251.893 217.827 251.678C217.631 251.454 217.533 251.165 217.533 250.81V245.756H216.343V244.776H217.015C217.258 244.776 217.421 244.729 217.505 244.636C217.599 244.533 217.645 244.361 217.645 244.118V242.774H218.653V244.776H220.235V245.756H218.653V251.02H220.123V252H218.723Z" fill="#EFEFEF"/>
<rect x="80.4667" y="34.4667" width="159.623" height="32.6713" rx="5.13406" fill="#9EDE80" fill-opacity="0.15" stroke="#9EDE80" stroke-width="0.933466"/>
<path d="M128.176 56V55.02H129.548V47.208H128.176V46.228H132.096V47.208H130.724V55.02H132.096V56H128.176ZM134.131 56V48.776H135.251V49.952H135.307C135.484 49.5413 135.732 49.2147 136.049 48.972C136.376 48.7293 136.81 48.608 137.351 48.608C138.098 48.608 138.686 48.8507 139.115 49.336C139.554 49.812 139.773 50.4887 139.773 51.366V56H138.653V51.562C138.653 50.2647 138.107 49.616 137.015 49.616C136.791 49.616 136.572 49.644 136.357 49.7C136.152 49.756 135.965 49.84 135.797 49.952C135.629 50.064 135.494 50.2087 135.391 50.386C135.298 50.554 135.251 50.7547 135.251 50.988V56H134.131ZM148.178 56.798C148.178 57.5447 147.884 58.0907 147.296 58.436C146.718 58.7907 145.845 58.968 144.678 58.968C143.549 58.968 142.737 58.814 142.242 58.506C141.748 58.198 141.5 57.7593 141.5 57.19C141.5 56.798 141.603 56.49 141.808 56.266C142.014 56.0513 142.294 55.8927 142.648 55.79V55.636C142.219 55.4307 142.004 55.0947 142.004 54.628C142.004 54.264 142.121 53.9887 142.354 53.802C142.588 53.606 142.886 53.4613 143.25 53.368V53.312C142.821 53.1067 142.485 52.8127 142.242 52.43C142.009 52.0473 141.892 51.604 141.892 51.1C141.892 50.736 141.958 50.4 142.088 50.092C142.219 49.784 142.401 49.5227 142.634 49.308C142.877 49.084 143.162 48.9113 143.488 48.79C143.824 48.6687 144.198 48.608 144.608 48.608C145.122 48.608 145.579 48.7013 145.98 48.888V48.762C145.98 48.482 146.046 48.2533 146.176 48.076C146.307 47.8893 146.522 47.796 146.82 47.796H147.898V48.776H146.526V49.238C146.788 49.462 146.988 49.7327 147.128 50.05C147.278 50.358 147.352 50.708 147.352 51.1C147.352 51.464 147.287 51.8 147.156 52.108C147.026 52.416 146.839 52.682 146.596 52.906C146.363 53.1207 146.078 53.2887 145.742 53.41C145.406 53.5313 145.033 53.592 144.622 53.592C144.389 53.592 144.156 53.5687 143.922 53.522C143.68 53.5873 143.46 53.6853 143.264 53.816C143.068 53.9373 142.97 54.11 142.97 54.334C142.97 54.5487 143.073 54.6933 143.278 54.768C143.484 54.8427 143.75 54.88 144.076 54.88H145.616C146.512 54.88 147.161 55.0527 147.562 55.398C147.973 55.734 148.178 56.2007 148.178 56.798ZM147.128 56.882C147.128 56.5927 147.016 56.3593 146.792 56.182C146.578 56.014 146.19 55.93 145.63 55.93H143.222C142.774 56.1353 142.55 56.462 142.55 56.91C142.55 57.2273 142.667 57.498 142.9 57.722C143.143 57.946 143.549 58.058 144.118 58.058H145.154C145.78 58.058 146.265 57.96 146.61 57.764C146.956 57.568 147.128 57.274 147.128 56.882ZM144.622 52.696C145.098 52.696 145.476 52.584 145.756 52.36C146.036 52.1267 146.176 51.772 146.176 51.296V50.904C146.176 50.428 146.036 50.078 145.756 49.854C145.476 49.6207 145.098 49.504 144.622 49.504C144.146 49.504 143.768 49.6207 143.488 49.854C143.208 50.078 143.068 50.428 143.068 50.904V51.296C143.068 51.772 143.208 52.1267 143.488 52.36C143.768 52.584 144.146 52.696 144.622 52.696ZM149.485 56V48.776H150.605V50.106H150.675C150.805 49.7607 151.039 49.4527 151.375 49.182C151.711 48.9113 152.173 48.776 152.761 48.776H153.195V49.896H152.537C151.93 49.896 151.454 50.0127 151.109 50.246C150.773 50.47 150.605 50.7547 150.605 51.1V56H149.485ZM157.273 56.168C156.778 56.168 156.33 56.0793 155.929 55.902C155.537 55.7247 155.196 55.4727 154.907 55.146C154.627 54.81 154.408 54.4133 154.249 53.956C154.1 53.4893 154.025 52.9667 154.025 52.388C154.025 51.8187 154.1 51.3007 154.249 50.834C154.408 50.3673 154.627 49.9707 154.907 49.644C155.196 49.308 155.537 49.0513 155.929 48.874C156.33 48.6967 156.778 48.608 157.273 48.608C157.758 48.608 158.192 48.6967 158.575 48.874C158.958 49.0513 159.284 49.2987 159.555 49.616C159.826 49.924 160.031 50.2927 160.171 50.722C160.32 51.1513 160.395 51.6227 160.395 52.136V52.668H155.201V53.004C155.201 53.312 155.248 53.6013 155.341 53.872C155.444 54.1333 155.584 54.362 155.761 54.558C155.948 54.754 156.172 54.908 156.433 55.02C156.704 55.132 157.007 55.188 157.343 55.188C157.8 55.188 158.197 55.0807 158.533 54.866C158.878 54.6513 159.144 54.3433 159.331 53.942L160.129 54.516C159.896 55.0107 159.532 55.412 159.037 55.72C158.542 56.0187 157.954 56.168 157.273 56.168ZM157.273 49.546C156.965 49.546 156.685 49.602 156.433 49.714C156.181 49.8167 155.962 49.966 155.775 50.162C155.598 50.358 155.458 50.5913 155.355 50.862C155.252 51.1233 155.201 51.4127 155.201 51.73V51.828H159.191V51.674C159.191 51.03 159.014 50.5167 158.659 50.134C158.314 49.742 157.852 49.546 157.273 49.546ZM166.861 54.824H166.805C166.366 55.72 165.661 56.168 164.691 56.168C164.243 56.168 163.837 56.0793 163.473 55.902C163.109 55.7247 162.796 55.4727 162.535 55.146C162.283 54.8193 162.087 54.4227 161.947 53.956C161.816 53.4893 161.751 52.9667 161.751 52.388C161.751 51.8093 161.816 51.2867 161.947 50.82C162.087 50.3533 162.283 49.9567 162.535 49.63C162.796 49.3033 163.109 49.0513 163.473 48.874C163.837 48.6967 164.243 48.608 164.691 48.608C165.195 48.608 165.624 48.72 165.979 48.944C166.343 49.1587 166.618 49.4947 166.805 49.952H166.861V45.64H167.981V56H166.861V54.824ZM164.999 55.16C165.251 55.16 165.489 55.1273 165.713 55.062C165.946 54.9967 166.147 54.9033 166.315 54.782C166.483 54.6513 166.613 54.4973 166.707 54.32C166.809 54.1333 166.861 53.9233 166.861 53.69V51.002C166.861 50.806 166.809 50.624 166.707 50.456C166.613 50.2787 166.483 50.1293 166.315 50.008C166.147 49.8867 165.946 49.7933 165.713 49.728C165.489 49.6533 165.251 49.616 164.999 49.616C164.364 49.616 163.865 49.8167 163.501 50.218C163.137 50.61 162.955 51.128 162.955 51.772V53.004C162.955 53.648 163.137 54.1707 163.501 54.572C163.865 54.964 164.364 55.16 164.999 55.16ZM170.922 47.082C170.679 47.082 170.502 47.026 170.39 46.914C170.287 46.7927 170.236 46.6387 170.236 46.452V46.27C170.236 46.0833 170.287 45.934 170.39 45.822C170.502 45.7007 170.679 45.64 170.922 45.64C171.164 45.64 171.337 45.7007 171.44 45.822C171.552 45.934 171.608 46.0833 171.608 46.27V46.452C171.608 46.6387 171.552 46.7927 171.44 46.914C171.337 47.026 171.164 47.082 170.922 47.082ZM170.362 48.776H171.482V56H170.362V48.776ZM176.578 56.168C176.083 56.168 175.635 56.0793 175.234 55.902C174.842 55.7247 174.501 55.4727 174.212 55.146C173.932 54.81 173.712 54.4133 173.554 53.956C173.404 53.4893 173.33 52.9667 173.33 52.388C173.33 51.8187 173.404 51.3007 173.554 50.834C173.712 50.3673 173.932 49.9707 174.212 49.644C174.501 49.308 174.842 49.0513 175.234 48.874C175.635 48.6967 176.083 48.608 176.578 48.608C177.063 48.608 177.497 48.6967 177.88 48.874C178.262 49.0513 178.589 49.2987 178.86 49.616C179.13 49.924 179.336 50.2927 179.476 50.722C179.625 51.1513 179.7 51.6227 179.7 52.136V52.668H174.506V53.004C174.506 53.312 174.552 53.6013 174.646 53.872C174.748 54.1333 174.888 54.362 175.066 54.558C175.252 54.754 175.476 54.908 175.738 55.02C176.008 55.132 176.312 55.188 176.648 55.188C177.105 55.188 177.502 55.0807 177.838 54.866C178.183 54.6513 178.449 54.3433 178.636 53.942L179.434 54.516C179.2 55.0107 178.836 55.412 178.342 55.72C177.847 56.0187 177.259 56.168 176.578 56.168ZM176.578 49.546C176.27 49.546 175.99 49.602 175.738 49.714C175.486 49.8167 175.266 49.966 175.08 50.162C174.902 50.358 174.762 50.5913 174.66 50.862C174.557 51.1233 174.506 51.4127 174.506 51.73V51.828H178.496V51.674C178.496 51.03 178.318 50.5167 177.964 50.134C177.618 49.742 177.156 49.546 176.578 49.546ZM181.545 56V48.776H182.665V49.952H182.721C182.899 49.5413 183.146 49.2147 183.463 48.972C183.79 48.7293 184.224 48.608 184.765 48.608C185.512 48.608 186.1 48.8507 186.529 49.336C186.968 49.812 187.187 50.4887 187.187 51.366V56H186.067V51.562C186.067 50.2647 185.521 49.616 184.429 49.616C184.205 49.616 183.986 49.644 183.771 49.7C183.566 49.756 183.379 49.84 183.211 49.952C183.043 50.064 182.908 50.2087 182.805 50.386C182.712 50.554 182.665 50.7547 182.665 50.988V56H181.545ZM191.098 56C190.706 56 190.408 55.8927 190.202 55.678C190.006 55.454 189.908 55.1647 189.908 54.81V49.756H188.718V48.776H189.39C189.633 48.776 189.796 48.7293 189.88 48.636C189.974 48.5333 190.02 48.3607 190.02 48.118V46.774H191.028V48.776H192.61V49.756H191.028V55.02H192.498V56H191.098Z" fill="#EFEFEF"/>
<rect x="80.4667" y="76.4667" width="159.623" height="32.6713" rx="5.13406" fill="#9EDE80" fill-opacity="0.15" stroke="#9EDE80" stroke-width="0.933466"/>
<path d="M128.176 98V97.02H129.548V89.208H128.176V88.228H132.096V89.208H130.724V97.02H132.096V98H128.176ZM134.131 98V90.776H135.251V91.952H135.307C135.484 91.5413 135.732 91.2147 136.049 90.972C136.376 90.7293 136.81 90.608 137.351 90.608C138.098 90.608 138.686 90.8507 139.115 91.336C139.554 91.812 139.773 92.4887 139.773 93.366V98H138.653V93.562C138.653 92.2647 138.107 91.616 137.015 91.616C136.791 91.616 136.572 91.644 136.357 91.7C136.152 91.756 135.965 91.84 135.797 91.952C135.629 92.064 135.494 92.2087 135.391 92.386C135.298 92.554 135.251 92.7547 135.251 92.988V98H134.131ZM148.178 98.798C148.178 99.5447 147.884 100.091 147.296 100.436C146.718 100.791 145.845 100.968 144.678 100.968C143.549 100.968 142.737 100.814 142.242 100.506C141.748 100.198 141.5 99.7593 141.5 99.19C141.5 98.798 141.603 98.49 141.808 98.266C142.014 98.0513 142.294 97.8927 142.648 97.79V97.636C142.219 97.4307 142.004 97.0947 142.004 96.628C142.004 96.264 142.121 95.9887 142.354 95.802C142.588 95.606 142.886 95.4613 143.25 95.368V95.312C142.821 95.1067 142.485 94.8127 142.242 94.43C142.009 94.0473 141.892 93.604 141.892 93.1C141.892 92.736 141.958 92.4 142.088 92.092C142.219 91.784 142.401 91.5227 142.634 91.308C142.877 91.084 143.162 90.9113 143.488 90.79C143.824 90.6687 144.198 90.608 144.608 90.608C145.122 90.608 145.579 90.7013 145.98 90.888V90.762C145.98 90.482 146.046 90.2533 146.176 90.076C146.307 89.8893 146.522 89.796 146.82 89.796H147.898V90.776H146.526V91.238C146.788 91.462 146.988 91.7327 147.128 92.05C147.278 92.358 147.352 92.708 147.352 93.1C147.352 93.464 147.287 93.8 147.156 94.108C147.026 94.416 146.839 94.682 146.596 94.906C146.363 95.1207 146.078 95.2887 145.742 95.41C145.406 95.5313 145.033 95.592 144.622 95.592C144.389 95.592 144.156 95.5687 143.922 95.522C143.68 95.5873 143.46 95.6853 143.264 95.816C143.068 95.9373 142.97 96.11 142.97 96.334C142.97 96.5487 143.073 96.6933 143.278 96.768C143.484 96.8427 143.75 96.88 144.076 96.88H145.616C146.512 96.88 147.161 97.0527 147.562 97.398C147.973 97.734 148.178 98.2007 148.178 98.798ZM147.128 98.882C147.128 98.5927 147.016 98.3593 146.792 98.182C146.578 98.014 146.19 97.93 145.63 97.93H143.222C142.774 98.1353 142.55 98.462 142.55 98.91C142.55 99.2273 142.667 99.498 142.9 99.722C143.143 99.946 143.549 100.058 144.118 100.058H145.154C145.78 100.058 146.265 99.96 146.61 99.764C146.956 99.568 147.128 99.274 147.128 98.882ZM144.622 94.696C145.098 94.696 145.476 94.584 145.756 94.36C146.036 94.1267 146.176 93.772 146.176 93.296V92.904C146.176 92.428 146.036 92.078 145.756 91.854C145.476 91.6207 145.098 91.504 144.622 91.504C144.146 91.504 143.768 91.6207 143.488 91.854C143.208 92.078 143.068 92.428 143.068 92.904V93.296C143.068 93.772 143.208 94.1267 143.488 94.36C143.768 94.584 144.146 94.696 144.622 94.696ZM149.485 98V90.776H150.605V92.106H150.675C150.805 91.7607 151.039 91.4527 151.375 91.182C151.711 90.9113 152.173 90.776 152.761 90.776H153.195V91.896H152.537C151.93 91.896 151.454 92.0127 151.109 92.246C150.773 92.47 150.605 92.7547 150.605 93.1V98H149.485ZM157.273 98.168C156.778 98.168 156.33 98.0793 155.929 97.902C155.537 97.7247 155.196 97.4727 154.907 97.146C154.627 96.81 154.408 96.4133 154.249 95.956C154.1 95.4893 154.025 94.9667 154.025 94.388C154.025 93.8187 154.1 93.3007 154.249 92.834C154.408 92.3673 154.627 91.9707 154.907 91.644C155.196 91.308 155.537 91.0513 155.929 90.874C156.33 90.6967 156.778 90.608 157.273 90.608C157.758 90.608 158.192 90.6967 158.575 90.874C158.958 91.0513 159.284 91.2987 159.555 91.616C159.826 91.924 160.031 92.2927 160.171 92.722C160.32 93.1513 160.395 93.6227 160.395 94.136V94.668H155.201V95.004C155.201 95.312 155.248 95.6013 155.341 95.872C155.444 96.1333 155.584 96.362 155.761 96.558C155.948 96.754 156.172 96.908 156.433 97.02C156.704 97.132 157.007 97.188 157.343 97.188C157.8 97.188 158.197 97.0807 158.533 96.866C158.878 96.6513 159.144 96.3433 159.331 95.942L160.129 96.516C159.896 97.0107 159.532 97.412 159.037 97.72C158.542 98.0187 157.954 98.168 157.273 98.168ZM157.273 91.546C156.965 91.546 156.685 91.602 156.433 91.714C156.181 91.8167 155.962 91.966 155.775 92.162C155.598 92.358 155.458 92.5913 155.355 92.862C155.252 93.1233 155.201 93.4127 155.201 93.73V93.828H159.191V93.674C159.191 93.03 159.014 92.5167 158.659 92.134C158.314 91.742 157.852 91.546 157.273 91.546ZM166.861 96.824H166.805C166.366 97.72 165.661 98.168 164.691 98.168C164.243 98.168 163.837 98.0793 163.473 97.902C163.109 97.7247 162.796 97.4727 162.535 97.146C162.283 96.8193 162.087 96.4227 161.947 95.956C161.816 95.4893 161.751 94.9667 161.751 94.388C161.751 93.8093 161.816 93.2867 161.947 92.82C162.087 92.3533 162.283 91.9567 162.535 91.63C162.796 91.3033 163.109 91.0513 163.473 90.874C163.837 90.6967 164.243 90.608 164.691 90.608C165.195 90.608 165.624 90.72 165.979 90.944C166.343 91.1587 166.618 91.4947 166.805 91.952H166.861V87.64H167.981V98H166.861V96.824ZM164.999 97.16C165.251 97.16 165.489 97.1273 165.713 97.062C165.946 96.9967 166.147 96.9033 166.315 96.782C166.483 96.6513 166.613 96.4973 166.707 96.32C166.809 96.1333 166.861 95.9233 166.861 95.69V93.002C166.861 92.806 166.809 92.624 166.707 92.456C166.613 92.2787 166.483 92.1293 166.315 92.008C166.147 91.8867 165.946 91.7933 165.713 91.728C165.489 91.6533 165.251 91.616 164.999 91.616C164.364 91.616 163.865 91.8167 163.501 92.218C163.137 92.61 162.955 93.128 162.955 93.772V95.004C162.955 95.648 163.137 96.1707 163.501 96.572C163.865 96.964 164.364 97.16 164.999 97.16ZM170.922 89.082C170.679 89.082 170.502 89.026 170.39 88.914C170.287 88.7927 170.236 88.6387 170.236 88.452V88.27C170.236 88.0833 170.287 87.934 170.39 87.822C170.502 87.7007 170.679 87.64 170.922 87.64C171.164 87.64 171.337 87.7007 171.44 87.822C171.552 87.934 171.608 88.0833 171.608 88.27V88.452C171.608 88.6387 171.552 88.7927 171.44 88.914C171.337 89.026 171.164 89.082 170.922 89.082ZM170.362 90.776H171.482V98H170.362V90.776ZM176.578 98.168C176.083 98.168 175.635 98.0793 175.234 97.902C174.842 97.7247 174.501 97.4727 174.212 97.146C173.932 96.81 173.712 96.4133 173.554 95.956C173.404 95.4893 173.33 94.9667 173.33 94.388C173.33 93.8187 173.404 93.3007 173.554 92.834C173.712 92.3673 173.932 91.9707 174.212 91.644C174.501 91.308 174.842 91.0513 175.234 90.874C175.635 90.6967 176.083 90.608 176.578 90.608C177.063 90.608 177.497 90.6967 177.88 90.874C178.262 91.0513 178.589 91.2987 178.86 91.616C179.13 91.924 179.336 92.2927 179.476 92.722C179.625 93.1513 179.7 93.6227 179.7 94.136V94.668H174.506V95.004C174.506 95.312 174.552 95.6013 174.646 95.872C174.748 96.1333 174.888 96.362 175.066 96.558C175.252 96.754 175.476 96.908 175.738 97.02C176.008 97.132 176.312 97.188 176.648 97.188C177.105 97.188 177.502 97.0807 177.838 96.866C178.183 96.6513 178.449 96.3433 178.636 95.942L179.434 96.516C179.2 97.0107 178.836 97.412 178.342 97.72C177.847 98.0187 177.259 98.168 176.578 98.168ZM176.578 91.546C176.27 91.546 175.99 91.602 175.738 91.714C175.486 91.8167 175.266 91.966 175.08 92.162C174.902 92.358 174.762 92.5913 174.66 92.862C174.557 93.1233 174.506 93.4127 174.506 93.73V93.828H178.496V93.674C178.496 93.03 178.318 92.5167 177.964 92.134C177.618 91.742 177.156 91.546 176.578 91.546ZM181.545 98V90.776H182.665V91.952H182.721C182.899 91.5413 183.146 91.2147 183.463 90.972C183.79 90.7293 184.224 90.608 184.765 90.608C185.512 90.608 186.1 90.8507 186.529 91.336C186.968 91.812 187.187 92.4887 187.187 93.366V98H186.067V93.562C186.067 92.2647 185.521 91.616 184.429 91.616C184.205 91.616 183.986 91.644 183.771 91.7C183.566 91.756 183.379 91.84 183.211 91.952C183.043 92.064 182.908 92.2087 182.805 92.386C182.712 92.554 182.665 92.7547 182.665 92.988V98H181.545ZM191.098 98C190.706 98 190.408 97.8927 190.202 97.678C190.006 97.454 189.908 97.1647 189.908 96.81V91.756H188.718V90.776H189.39C189.633 90.776 189.796 90.7293 189.88 90.636C189.974 90.5333 190.02 90.3607 190.02 90.118V88.774H191.028V90.776H192.61V91.756H191.028V97.02H192.498V98H191.098Z" fill="#EFEFEF"/>
<rect x="80.4667" y="118.467" width="159.623" height="32.6713" rx="5.13406" fill="#9EDE80" fill-opacity="0.15" stroke="#9EDE80" stroke-width="0.933466"/>
<path d="M128.176 140V139.02H129.548V131.208H128.176V130.228H132.096V131.208H130.724V139.02H132.096V140H128.176ZM134.131 140V132.776H135.251V133.952H135.307C135.484 133.541 135.732 133.215 136.049 132.972C136.376 132.729 136.81 132.608 137.351 132.608C138.098 132.608 138.686 132.851 139.115 133.336C139.554 133.812 139.773 134.489 139.773 135.366V140H138.653V135.562C138.653 134.265 138.107 133.616 137.015 133.616C136.791 133.616 136.572 133.644 136.357 133.7C136.152 133.756 135.965 133.84 135.797 133.952C135.629 134.064 135.494 134.209 135.391 134.386C135.298 134.554 135.251 134.755 135.251 134.988V140H134.131ZM148.178 140.798C148.178 141.545 147.884 142.091 147.296 142.436C146.718 142.791 145.845 142.968 144.678 142.968C143.549 142.968 142.737 142.814 142.242 142.506C141.748 142.198 141.5 141.759 141.5 141.19C141.5 140.798 141.603 140.49 141.808 140.266C142.014 140.051 142.294 139.893 142.648 139.79V139.636C142.219 139.431 142.004 139.095 142.004 138.628C142.004 138.264 142.121 137.989 142.354 137.802C142.588 137.606 142.886 137.461 143.25 137.368V137.312C142.821 137.107 142.485 136.813 142.242 136.43C142.009 136.047 141.892 135.604 141.892 135.1C141.892 134.736 141.958 134.4 142.088 134.092C142.219 133.784 142.401 133.523 142.634 133.308C142.877 133.084 143.162 132.911 143.488 132.79C143.824 132.669 144.198 132.608 144.608 132.608C145.122 132.608 145.579 132.701 145.98 132.888V132.762C145.98 132.482 146.046 132.253 146.176 132.076C146.307 131.889 146.522 131.796 146.82 131.796H147.898V132.776H146.526V133.238C146.788 133.462 146.988 133.733 147.128 134.05C147.278 134.358 147.352 134.708 147.352 135.1C147.352 135.464 147.287 135.8 147.156 136.108C147.026 136.416 146.839 136.682 146.596 136.906C146.363 137.121 146.078 137.289 145.742 137.41C145.406 137.531 145.033 137.592 144.622 137.592C144.389 137.592 144.156 137.569 143.922 137.522C143.68 137.587 143.46 137.685 143.264 137.816C143.068 137.937 142.97 138.11 142.97 138.334C142.97 138.549 143.073 138.693 143.278 138.768C143.484 138.843 143.75 138.88 144.076 138.88H145.616C146.512 138.88 147.161 139.053 147.562 139.398C147.973 139.734 148.178 140.201 148.178 140.798ZM147.128 140.882C147.128 140.593 147.016 140.359 146.792 140.182C146.578 140.014 146.19 139.93 145.63 139.93H143.222C142.774 140.135 142.55 140.462 142.55 140.91C142.55 141.227 142.667 141.498 142.9 141.722C143.143 141.946 143.549 142.058 144.118 142.058H145.154C145.78 142.058 146.265 141.96 146.61 141.764C146.956 141.568 147.128 141.274 147.128 140.882ZM144.622 136.696C145.098 136.696 145.476 136.584 145.756 136.36C146.036 136.127 146.176 135.772 146.176 135.296V134.904C146.176 134.428 146.036 134.078 145.756 133.854C145.476 133.621 145.098 133.504 144.622 133.504C144.146 133.504 143.768 133.621 143.488 133.854C143.208 134.078 143.068 134.428 143.068 134.904V135.296C143.068 135.772 143.208 136.127 143.488 136.36C143.768 136.584 144.146 136.696 144.622 136.696ZM149.485 140V132.776H150.605V134.106H150.675C150.805 133.761 151.039 133.453 151.375 133.182C151.711 132.911 152.173 132.776 152.761 132.776H153.195V133.896H152.537C151.93 133.896 151.454 134.013 151.109 134.246C150.773 134.47 150.605 134.755 150.605 135.1V140H149.485ZM157.273 140.168C156.778 140.168 156.33 140.079 155.929 139.902C155.537 139.725 155.196 139.473 154.907 139.146C154.627 138.81 154.408 138.413 154.249 137.956C154.1 137.489 154.025 136.967 154.025 136.388C154.025 135.819 154.1 135.301 154.249 134.834C154.408 134.367 154.627 133.971 154.907 133.644C155.196 133.308 155.537 133.051 155.929 132.874C156.33 132.697 156.778 132.608 157.273 132.608C157.758 132.608 158.192 132.697 158.575 132.874C158.958 133.051 159.284 133.299 159.555 133.616C159.826 133.924 160.031 134.293 160.171 134.722C160.32 135.151 160.395 135.623 160.395 136.136V136.668H155.201V137.004C155.201 137.312 155.248 137.601 155.341 137.872C155.444 138.133 155.584 138.362 155.761 138.558C155.948 138.754 156.172 138.908 156.433 139.02C156.704 139.132 157.007 139.188 157.343 139.188C157.8 139.188 158.197 139.081 158.533 138.866C158.878 138.651 159.144 138.343 159.331 137.942L160.129 138.516C159.896 139.011 159.532 139.412 159.037 139.72C158.542 140.019 157.954 140.168 157.273 140.168ZM157.273 133.546C156.965 133.546 156.685 133.602 156.433 133.714C156.181 133.817 155.962 133.966 155.775 134.162C155.598 134.358 155.458 134.591 155.355 134.862C155.252 135.123 155.201 135.413 155.201 135.73V135.828H159.191V135.674C159.191 135.03 159.014 134.517 158.659 134.134C158.314 133.742 157.852 133.546 157.273 133.546ZM166.861 138.824H166.805C166.366 139.72 165.661 140.168 164.691 140.168C164.243 140.168 163.837 140.079 163.473 139.902C163.109 139.725 162.796 139.473 162.535 139.146C162.283 138.819 162.087 138.423 161.947 137.956C161.816 137.489 161.751 136.967 161.751 136.388C161.751 135.809 161.816 135.287 161.947 134.82C162.087 134.353 162.283 133.957 162.535 133.63C162.796 133.303 163.109 133.051 163.473 132.874C163.837 132.697 164.243 132.608 164.691 132.608C165.195 132.608 165.624 132.72 165.979 132.944C166.343 133.159 166.618 133.495 166.805 133.952H166.861V129.64H167.981V140H166.861V138.824ZM164.999 139.16C165.251 139.16 165.489 139.127 165.713 139.062C165.946 138.997 166.147 138.903 166.315 138.782C166.483 138.651 166.613 138.497 166.707 138.32C166.809 138.133 166.861 137.923 166.861 137.69V135.002C166.861 134.806 166.809 134.624 166.707 134.456C166.613 134.279 166.483 134.129 166.315 134.008C166.147 133.887 165.946 133.793 165.713 133.728C165.489 133.653 165.251 133.616 164.999 133.616C164.364 133.616 163.865 133.817 163.501 134.218C163.137 134.61 162.955 135.128 162.955 135.772V137.004C162.955 137.648 163.137 138.171 163.501 138.572C163.865 138.964 164.364 139.16 164.999 139.16ZM170.922 131.082C170.679 131.082 170.502 131.026 170.39 130.914C170.287 130.793 170.236 130.639 170.236 130.452V130.27C170.236 130.083 170.287 129.934 170.39 129.822C170.502 129.701 170.679 129.64 170.922 129.64C171.164 129.64 171.337 129.701 171.44 129.822C171.552 129.934 171.608 130.083 171.608 130.27V130.452C171.608 130.639 171.552 130.793 171.44 130.914C171.337 131.026 171.164 131.082 170.922 131.082ZM170.362 132.776H171.482V140H170.362V132.776ZM176.578 140.168C176.083 140.168 175.635 140.079 175.234 139.902C174.842 139.725 174.501 139.473 174.212 139.146C173.932 138.81 173.712 138.413 173.554 137.956C173.404 137.489 173.33 136.967 173.33 136.388C173.33 135.819 173.404 135.301 173.554 134.834C173.712 134.367 173.932 133.971 174.212 133.644C174.501 133.308 174.842 133.051 175.234 132.874C175.635 132.697 176.083 132.608 176.578 132.608C177.063 132.608 177.497 132.697 177.88 132.874C178.262 133.051 178.589 133.299 178.86 133.616C179.13 133.924 179.336 134.293 179.476 134.722C179.625 135.151 179.7 135.623 179.7 136.136V136.668H174.506V137.004C174.506 137.312 174.552 137.601 174.646 137.872C174.748 138.133 174.888 138.362 175.066 138.558C175.252 138.754 175.476 138.908 175.738 139.02C176.008 139.132 176.312 139.188 176.648 139.188C177.105 139.188 177.502 139.081 177.838 138.866C178.183 138.651 178.449 138.343 178.636 137.942L179.434 138.516C179.2 139.011 178.836 139.412 178.342 139.72C177.847 140.019 177.259 140.168 176.578 140.168ZM176.578 133.546C176.27 133.546 175.99 133.602 175.738 133.714C175.486 133.817 175.266 133.966 175.08 134.162C174.902 134.358 174.762 134.591 174.66 134.862C174.557 135.123 174.506 135.413 174.506 135.73V135.828H178.496V135.674C178.496 135.03 178.318 134.517 177.964 134.134C177.618 133.742 177.156 133.546 176.578 133.546ZM181.545 140V132.776H182.665V133.952H182.721C182.899 133.541 183.146 133.215 183.463 132.972C183.79 132.729 184.224 132.608 184.765 132.608C185.512 132.608 186.1 132.851 186.529 133.336C186.968 133.812 187.187 134.489 187.187 135.366V140H186.067V135.562C186.067 134.265 185.521 133.616 184.429 133.616C184.205 133.616 183.986 133.644 183.771 133.7C183.566 133.756 183.379 133.84 183.211 133.952C183.043 134.064 182.908 134.209 182.805 134.386C182.712 134.554 182.665 134.755 182.665 134.988V140H181.545ZM191.098 140C190.706 140 190.408 139.893 190.202 139.678C190.006 139.454 189.908 139.165 189.908 138.81V133.756H188.718V132.776H189.39C189.633 132.776 189.796 132.729 189.88 132.636C189.974 132.533 190.02 132.361 190.02 132.118V130.774H191.028V132.776H192.61V133.756H191.028V139.02H192.498V140H191.098Z" fill="#EFEFEF"/>
<rect x="69.5" y="24.5" width="182" height="136" rx="5.5" stroke="#EFEFEF" stroke-dasharray="4 4"/>
<path d="M159.646 217.354C159.842 217.549 160.158 217.549 160.354 217.354L163.536 214.172C163.731 213.976 163.731 213.66 163.536 213.464C163.34 213.269 163.024 213.269 162.828 213.464L160 216.293L157.172 213.464C156.976 213.269 156.66 213.269 156.464 213.464C156.269 213.66 156.269 213.976 156.464 214.172L159.646 217.354ZM159.5 177L159.5 217L160.5 217L160.5 177L159.5 177Z" fill="#EFEFEF"/>
</svg>
