<svg width="551" height="578" viewBox="0 0 551 578" fill="none" xmlns="http://www.w3.org/2000/svg">
<path d="M173.311 555.792C198.911 527.792 259.311 543.125 288.311 543.792C378.311 519.792 350.311 485.792 384.311 447.792C418.311 409.792 482.311 393.792 521.311 349.792C560.311 305.792 538.311 233.792 440.311 202.792C342.311 171.792 432.311 133.792 368.311 49.7919C304.311 -34.2081 198.311 -2.20809 106.311 73.7919C14.3114 149.792 126.311 205.792 26.3113 356.792C-73.6887 507.792 141.311 590.792 173.311 555.792Z" fill="#EDE7DA"/>
<g style="mix-blend-mode:multiply">
<path d="M416.319 319.516C416.319 319.516 462.566 142.784 548.717 188.28C550.6 189.275 550.871 191.867 549.252 193.248C530.615 209.165 513.934 227.186 497.415 245.243C482.364 261.697 465.917 277.391 454.038 296.431C449.73 303.346 446.45 310.557 443.387 318.081C440.288 325.684 436.334 333.088 434.781 341.269L416.319 319.516Z" fill="#EDE7DA"/>
</g>
<g clip-path="url(#clip0)">
<g style="mix-blend-mode:multiply">
<path d="M266.752 423.21C266.752 423.21 311.561 455.797 368.727 455.447C425.893 455.096 281.249 398.506 273.436 400.731C265.623 402.956 260.843 415.489 266.752 423.21Z" fill="#E98A40"/>
</g>
<g style="mix-blend-mode:multiply">
<path d="M284.743 417.453C284.26 417.485 283.886 417.871 283.849 418.354C283.552 422.173 282.151 438.266 278.942 448.387C275.34 459.737 290.769 470.415 298.81 478.197C307.139 486.257 320.464 464.119 315.004 446.983C311.364 435.562 299.991 419.977 295.077 418.408C291.244 417.18 286.605 417.328 284.743 417.453Z" fill="#A0B788"/>
</g>
<g style="mix-blend-mode:multiply">
<path d="M331.685 414.56C332.158 414.702 332.649 414.454 332.843 414C333.805 411.759 336.709 405.27 339.671 401.46C343.235 396.879 336.722 389.171 333.654 384.132C330.477 378.913 320.223 386.71 320.556 395.595C320.779 401.516 324.442 410.753 326.787 412.364C328.414 413.483 330.536 414.216 331.685 414.56Z" fill="#A0B788"/>
</g>
</g>
<path d="M241.215 480.227C238.995 477.887 238.565 475.457 240.735 472.807C241.965 471.317 243.245 470.247 245.345 471.087C247.925 472.117 249.505 473.657 248.605 476.677C248.355 477.577 248.115 478.487 247.865 479.397C246.635 480.017 245.415 480.647 244.185 481.267C243.195 480.927 242.205 480.577 241.215 480.227Z" fill="#424342"/>
<path fill-rule="evenodd" clip-rule="evenodd" d="M263.376 351.464C380.176 288.4 432.025 325.539 432.025 325.539C432.025 325.539 448.719 336.753 451.517 385.457C456.084 465.017 389.268 517.549 364.788 535.763C340.307 553.977 132.578 601.625 135.377 515.439C138.175 429.252 146.576 414.529 263.376 351.464ZM369.632 328.451C378.93 326.486 388.685 324.954 397.976 325.762C407.653 326.6 416.83 329.989 424.467 338.074C427.722 341.522 430.533 345.664 431.568 350.446C432.862 356.402 431.267 362.667 428.872 368.213C421.578 385.113 408.122 398.275 394.739 409.615C379.195 422.789 363.194 435.299 347.193 447.809L347.192 447.81C332.731 459.115 318.33 469.424 301.896 477.033C277.084 488.519 251.117 497.719 224.771 504.146C224.13 504.302 223.481 504.461 222.826 504.621C203.278 509.402 177.583 515.686 158.654 506.702C137.675 496.742 151.264 469.424 159.972 455.099C160.2 454.714 160.435 454.334 160.669 453.954L160.67 453.954C172.422 434.956 187.515 418.551 204.215 404.557C220.914 390.563 239.232 378.897 258.255 368.961C275.52 359.941 293.91 351.35 312.367 345.731C318.541 343.852 324.675 341.81 330.809 339.769C343.629 335.503 356.449 331.236 369.632 328.451Z" fill="#A8A094"/>
<g style="mix-blend-mode:multiply">
<path d="M241.81 413.96C241.81 413.96 243.384 405.526 233.735 397.04C224.087 388.553 222.855 392.307 220.982 383.656C219.109 375.004 213.63 367.92 203.085 369.498C192.541 371.075 180.042 386.217 187.129 397.173C194.217 408.129 189.284 418.524 191.553 425.341C193.821 432.158 192.21 444.117 200.095 446.788C207.98 449.458 215.148 460.834 222.841 460.238C230.534 459.642 239.591 461.647 239.919 448.615C240.247 435.583 237.711 432.55 238.671 425.115C239.066 422.087 241.81 413.96 241.81 413.96Z" fill="#234A36"/>
</g>
<g style="mix-blend-mode:multiply">
<path d="M202.819 407.63C202.16 405.231 199.406 404.132 197.3 405.44C190.011 409.962 174.801 418.68 167.01 417.818C156.54 416.667 161.986 444.044 167.224 444.089C172.464 444.14 181.317 438.866 185.341 438.096C189.074 437.381 199.509 438.825 201.001 439.037C201.124 439.054 201.245 439.065 201.371 439.069L205.61 439.243C207.99 439.337 209.836 437.18 209.385 434.821L208.461 429.999C208.163 428.441 206.927 427.246 205.368 427.012C200.932 426.344 192.056 425.369 188.593 427.584C186.437 428.959 181.556 428.044 184.998 426.434C186.977 425.505 188.325 422.945 190.406 422.283C194.777 420.886 203.077 418.105 204.058 416.835C204.843 415.826 203.814 411.282 202.819 407.63Z" fill="#A1B788"/>
</g>
<g style="mix-blend-mode:multiply">
<path d="M234.524 207.454C229.904 221.431 241.973 239.352 243.363 241.348C243.455 241.484 243.556 241.599 243.67 241.716C244.731 242.788 250.375 248.174 256.811 248.312C263.84 248.465 285.023 236.457 273.177 214.899C272.776 214.175 272.734 213.301 273.04 212.524C274.057 209.981 276.035 203.891 274.415 198.481C272.299 191.428 242.681 182.779 234.524 207.454ZM262.82 207.854C263.392 206.543 264.358 205.439 265.581 204.7C267.077 203.796 268.999 202.913 269.754 203.794C271.066 205.322 267.523 210.903 266.381 214.06C265.466 216.592 266.715 219.516 267.242 220.576C267.343 220.782 267.22 221.027 266.989 221.058C266.208 221.169 264.704 221.282 264.089 220.849C261.183 218.832 260.319 216.449 261.283 211.543C261.426 210.843 262.242 209.182 262.82 207.854Z" fill="#234A36"/>
</g>
<path d="M161.144 180.245C167.424 187.706 189.85 207.722 200.278 216.798C203.343 221.544 183.646 223.463 178.417 223.972C168.963 224.893 159.881 220.732 155.178 216.985C150.381 213.165 144.668 207.077 142.186 190.501C139.704 173.925 143.888 163.426 145.526 162.426C147.164 161.425 153.294 170.919 161.144 180.245Z" fill="#75B2F6"/>
<g style="mix-blend-mode:multiply">
<path d="M144.074 145.026C148.521 142.357 149.633 163.188 149.633 173.937C144.074 178.384 127.394 162.818 121.834 159.482C116.275 156.146 127.394 153.922 131.842 155.034C136.29 156.146 138.514 148.362 144.074 145.026Z" fill="#B0CEF2"/>
</g>
<path d="M136.961 206.185C130.226 200.088 150.875 206.915 163.879 211.76C164.709 212.069 164.731 213.218 163.913 213.558C149.306 219.632 145.468 213.886 136.961 206.185Z" fill="#B0CEF2"/>
<g style="mix-blend-mode:multiply">
<path d="M233.393 346.418C240.092 347.165 246.697 345.293 251.778 341.284C257.405 336.847 263.576 329.526 261.04 319.8C256.678 303.038 209.808 316.108 209.749 324.254C209.698 331.135 216.292 344.512 233.393 346.418Z" fill="#BE7E40"/>
</g>
<g style="mix-blend-mode:multiply">
<path d="M241.539 312.023C241.539 312.023 245.694 297.829 229.666 284.927C228.06 283.632 225.747 283.665 224.185 285.029C221.489 287.379 217.952 291.329 219.157 295.089C221.033 300.961 226.843 308.141 226.08 314.412C226.08 314.412 215.697 318.326 213.81 322.574C212.083 326.462 212.528 337.301 236.571 334.909C242.411 334.329 248.047 332.347 252.897 329.026C259.851 324.256 264.963 316.053 241.539 312.023Z" fill="#E1C69D"/>
</g>
<path d="M323.594 338.906C322.206 342.088 318.6 343.657 315.359 342.412C309.701 340.24 301.134 336.736 295.524 333.438C286.524 328.149 285.458 329.52 285.329 324.371C285.199 319.222 288.448 313.722 292.645 313.176C296.842 312.629 295.829 309.701 306.68 319.556C311.528 323.96 316.042 326.866 319.552 328.733C323.158 330.652 325.227 335.162 323.594 338.906V338.906Z" fill="#E1C69D"/>
<g style="mix-blend-mode:multiply">
<path d="M336.724 308.826C336.724 308.826 349.466 313.538 349.62 329.628C349.774 345.717 344.679 366.554 315.232 368.406C285.784 370.258 318.215 301.222 336.724 308.826Z" fill="#BE7E40"/>
</g>
<g clip-path="url(#clip1)">
<path d="M128.946 299.576C128.946 299.576 118.818 321.18 137.764 337.678C156.709 354.176 174.956 336.256 181.555 321.346C188.154 306.435 183.723 285.754 164.571 279.75C145.418 273.746 134.543 283.829 128.946 299.576Z" fill="#EB5234"/>
<g style="mix-blend-mode:multiply">
<path d="M118.651 312.151C118.675 312.645 119.076 313.02 119.569 313.049C121.605 313.165 126.825 313.557 130.249 314.652C134.505 316.015 138.352 309.263 141.182 305.711C144.114 302.031 135.76 296.683 129.425 299.278C125.203 301.008 119.495 306.103 118.952 308.226C118.599 309.599 118.603 311.195 118.651 312.151Z" fill="#224A36"/>
</g>
</g>
<path d="M346.044 248.548C337.101 236.82 315.446 236.537 313.008 236.54C312.844 236.539 312.69 236.555 312.53 236.58C311.045 236.842 303.398 238.411 299.633 243.613C295.527 249.289 293.463 273.493 317.998 276.018C318.826 276.102 319.572 276.563 320.04 277.256C321.573 279.529 325.489 284.612 330.88 286.356C337.91 288.634 361.834 269.255 346.044 248.548ZM329.691 271.524C330.452 272.738 330.814 274.155 330.734 275.583C330.636 277.324 330.273 279.4 329.118 279.52C327.113 279.73 324.498 273.648 322.539 270.921C320.966 268.732 317.838 268.096 316.663 267.928C316.437 267.895 316.303 267.65 316.405 267.443C316.752 266.741 317.515 265.443 318.22 265.18C321.531 263.944 323.995 264.586 327.509 268.166C328.013 268.688 328.922 270.297 329.691 271.524Z" fill="#A0B788"/>
<ellipse cx="150.754" cy="379.531" rx="4.01899" ry="10.0475" transform="rotate(14.7343 150.754 379.531)" fill="#E2D5BB"/>
<ellipse cx="125.886" cy="240.047" rx="4.01899" ry="10.0475" transform="rotate(-40.4242 125.886 240.047)" fill="#E2D5BB"/>
<g style="mix-blend-mode:multiply">
<ellipse cx="222.975" cy="250.481" rx="4.01899" ry="10.0475" transform="rotate(58.3901 222.975 250.481)" fill="#E2D5BB"/>
</g>
<g style="mix-blend-mode:multiply">
<ellipse cx="365.497" cy="374.292" rx="4.01899" ry="10.0475" transform="rotate(36.2842 365.497 374.292)" fill="#E2D5BB"/>
</g>
<g style="mix-blend-mode:multiply">
<ellipse cx="372.198" cy="368.511" rx="4.01899" ry="10.0475" transform="rotate(121.877 372.198 368.511)" fill="#E2D5BB"/>
</g>
<g style="mix-blend-mode:multiply">
<ellipse cx="79.7499" cy="139.925" rx="4.01899" ry="10.0475" transform="rotate(96.5139 79.7499 139.925)" fill="#E2D5BB"/>
</g>
<g style="mix-blend-mode:multiply">
<ellipse cx="197.267" cy="481.591" rx="4.01899" ry="10.0475" transform="rotate(-154.483 197.267 481.591)" fill="#E2D5BB"/>
</g>
<g style="mix-blend-mode:multiply">
<ellipse cx="121.966" cy="374.511" rx="4.01899" ry="10.0475" transform="rotate(121.877 121.966 374.511)" fill="#E2D5BB"/>
</g>
<g style="mix-blend-mode:multiply">
<ellipse cx="226.422" cy="171.573" rx="4.01899" ry="10.0475" transform="rotate(26.744 226.422 171.573)" fill="#E2D5BB"/>
</g>
<path d="M401.784 448.369C407.644 448.549 412.974 450.939 418.724 451.409C423.484 451.799 428.164 453.039 432.884 453.889C435.154 454.299 436.654 453.909 436.904 451.079C437.274 446.969 438.104 442.909 438.604 438.809C439.174 434.069 439.714 433.839 443.654 436.299C446.594 438.129 449.714 439.689 452.794 441.279C457.424 443.669 458.274 443.399 458.474 437.749C458.724 430.739 460.044 423.879 460.604 416.929C460.714 415.569 459.814 413.699 461.704 412.959C463.554 412.239 464.284 414.019 465.234 415.059C469.504 419.749 474.154 424.009 479.384 427.619C480.984 428.719 482.984 429.999 482.114 432.089C481.144 434.419 479.384 432.139 478.004 431.989C473.154 431.469 469.044 434.539 468.764 439.419C468.494 444.219 467.184 448.939 467.774 453.799C468.204 457.349 466.994 458.319 463.554 456.819C459.174 454.909 454.584 453.479 450.204 451.589C447.254 450.319 446.294 451.679 445.794 454.199C445.474 455.819 445.354 457.549 444.694 459.019C443.864 460.849 442.204 463.019 440.174 461.959C436.554 460.059 433.584 462.569 429.594 462.059C432.554 466.359 434.994 470.069 438.624 472.789C441.744 475.119 441.334 477.139 438.054 478.649C433.874 480.579 429.684 482.609 425.294 483.919C422.684 484.699 422.454 485.609 423.384 487.719C424.384 489.979 425.024 492.449 426.324 494.509C428.534 498.019 427.274 500.209 424.014 501.579C419.474 503.499 414.884 505.389 410.164 506.789C407.464 507.589 407.324 508.509 408.724 510.499C412.364 515.659 414.854 521.469 417.894 526.969C420.424 531.549 419.884 533.579 415.274 536.389C409.474 539.919 403.764 543.599 397.854 546.919C395.514 548.239 395.584 549.239 397.104 551.009C400.244 554.649 403.334 558.339 406.364 562.069C407.104 562.979 408.494 564.029 406.794 565.369C405.554 566.349 404.434 566.219 403.244 565.199C395.114 558.279 385.424 553.779 376.514 548.059C373.334 546.019 373.614 544.389 377.244 542.599C384.954 538.789 392.594 534.809 400.414 531.239C403.864 529.669 403.994 527.919 402.804 524.669C400.484 518.359 396.804 512.849 393.274 507.279C390.854 503.459 391.774 501.829 395.904 500.779C401.624 499.329 407.254 497.519 412.934 495.889C415.264 495.219 416.214 494.219 414.804 491.659C413.704 489.659 413.334 487.279 412.514 485.109C410.314 479.229 410.284 479.229 416.284 477.189C427.564 473.349 427.464 473.459 418.574 465.279C415.044 462.029 411.944 458.289 408.834 454.609C406.824 452.209 404.164 450.669 401.784 448.369Z" fill="#D87036"/>
<path d="M323.115 186.704C319.255 186.784 315.475 182.664 315.475 178.384C315.465 173.754 318.855 169.994 322.965 170.064C327.005 170.134 330.515 173.934 330.655 178.404C330.795 182.794 327.325 186.614 323.115 186.704Z" fill="#424342"/>
<path d="M358.205 197.864C356.075 197.294 354.985 195.934 355.155 193.884C355.305 192.114 356.245 190.734 358.275 190.794C360.505 190.854 361.555 192.424 361.565 194.354C361.555 196.394 360.145 197.554 358.205 197.864Z" fill="#424342"/>
<path d="M317.706 195.544C317.256 197.604 316.616 199.174 314.206 199.034C312.206 198.914 311.106 197.784 311.116 195.934C311.136 193.884 312.216 192.574 314.516 192.564C316.696 192.554 317.196 194.074 317.706 195.544Z" fill="#424342"/>
<path d="M277.735 156.144C277.775 156.814 276.875 157.384 275.595 157.334C274.075 157.274 273.245 156.414 273.315 154.824C273.375 153.464 274.015 152.744 275.445 152.794C277.105 152.834 277.665 153.834 277.735 156.144Z" fill="#424342"/>
<path d="M97.4083 301.552C93.775 302.583 91.0057 303.612 88.1417 304.135C82.7241 305.113 78.5374 304.187 75.6686 298.323C72.3109 291.476 64.5022 288.922 56.7329 290.705C53.84 291.366 50.9321 291.97 48.0199 292.552C40.4485 294.08 34.8912 290.963 30.4977 285.12C31.0871 284.113 31.756 284.429 32.1584 284.877C38.435 291.955 46.1244 292.125 54.4556 289.649C59.2057 288.24 63.9819 286.631 68.8139 289.738C70.7025 290.954 72.2504 292.489 73.3339 294.265C78.0404 301.996 83.6719 304.271 92.19 301.506C93.5856 301.062 94.8563 300.146 97.4083 301.552Z" fill="#D87036"/>
<path d="M384.191 242.474C377.578 249.784 377.449 251.571 382.774 260.91C384.002 263.07 385.175 265.264 386.339 267.457C388.948 272.377 388.91 277.304 384.962 281.3C376.726 289.626 377.203 297.689 383.734 306.952C388.912 314.283 387.777 319.751 381.69 326.134C378.235 329.762 375.577 333.832 374.473 339.022C372.713 335.776 374.754 330.39 378.628 327.331C385.072 322.256 386.609 314.81 382.621 307.995C381.616 306.273 380.589 304.568 379.553 302.862C375.137 295.647 375.425 290.819 380.651 284.219C387.773 275.235 387.907 273.046 381.929 262.889C380.162 259.884 378.429 256.842 377.582 253.437C376.167 247.825 378.551 243.966 384.191 242.474Z" fill="#D87036"/>
<path d="M351.367 565.184C349.69 566.7 347.617 567.495 345.723 565.921C344.054 564.53 343.235 562.439 344.685 560.226C346.107 558.067 348.141 557.607 350.166 558.991C352.349 560.481 352.505 562.737 351.367 565.184Z" fill="#424342"/>
<path d="M315.772 568.127C314.829 569.183 313.849 569.122 312.799 568.271C311.644 567.328 311.815 566.368 312.678 565.353C313.601 564.258 314.605 564.286 315.642 565.153C316.773 566.078 316.56 567.094 315.772 568.127Z" fill="#424342"/>
<path d="M369.311 395.312C370.321 391.332 372.401 390.782 375.471 393.382C375.791 395.022 374.941 396.282 374.121 397.542L374.181 397.522C372.231 397.482 370.331 397.382 369.311 395.312Z" fill="#424342"/>
<g style="mix-blend-mode:multiply">
<path d="M139.078 535.22C139.078 535.22 76.6127 580.246 139.078 577.689C201.543 575.133 179.554 559.487 216.208 554.381C252.863 549.274 252.544 544.161 252.544 544.161C252.544 544.161 261.468 531.392 245.852 531.072C230.236 530.753 183.2 546.398 183.2 546.398C183.2 546.398 141.942 560.766 139.078 535.22Z" fill="#EDE7DA"/>
</g>
<path d="M77.4321 428.564C83.5721 428.664 87.2721 432.624 87.1221 438.934C86.9821 445.134 82.4521 449.724 76.4921 449.724C70.6821 449.724 65.8321 444.124 66.0221 437.644C66.2021 431.434 69.9621 428.444 77.4321 428.564Z" fill="#424342"/>
<path d="M73.162 401.994C73.082 405.654 69.892 408.804 66.482 408.574C63.422 408.364 59.892 404.434 60.352 401.294C60.822 398.014 62.422 395.124 66.102 394.814C70.002 394.474 73.242 398.044 73.162 401.994Z" fill="#424342"/>
<path d="M106.692 451.274C106.962 448.214 108.262 446.374 111.342 446.474C114.552 446.584 116.082 448.514 116.072 451.554C116.052 454.654 114.182 456.584 111.182 456.474C108.042 456.374 106.822 453.994 106.692 451.274Z" fill="#424342"/>
<path d="M126.192 415.754C126.422 417.634 125.452 418.874 123.502 419.014C121.402 419.164 120.102 418.114 119.982 415.854C119.872 413.864 120.742 412.594 122.702 412.464C124.782 412.324 126.202 413.264 126.192 415.754Z" fill="#424342"/>
<path d="M182.363 141.203C180.539 136.79 181.444 133.545 182.528 130.238C184.933 122.928 184.031 120.799 177.306 117.057C174.847 115.684 172.259 114.46 170.008 112.801C165.822 109.709 165.121 106.436 167.582 100.956C165.988 110.084 172.445 112.836 178.546 116.098C185.424 119.768 186.587 123.011 184.182 130.3C183.141 133.465 182.845 136.732 182.363 141.203Z" fill="#D87036"/>
<path d="M160.855 79.4635C156.932 77.9393 154.287 75.3493 153.904 70.9206C156.217 73.7666 158.53 76.6127 160.855 79.4635Z" fill="#D87036"/>
<path d="M164.21 96.6962C165.623 92.3726 164.274 88.6859 161.556 85.0027C166.709 86.9317 167.783 91.6318 164.21 96.6962Z" fill="#D87036"/>
<path d="M201.787 167.882C200.307 164.432 198.797 162.082 198.387 157.912C197.647 150.502 202.467 147.332 205.607 142.832C209.277 137.552 209.777 132.532 206.417 127.092C205.547 125.682 204.707 124.252 203.907 122.792C199.777 115.262 201.947 107.542 209.497 102.842C209.537 102.932 209.567 103.032 209.607 103.122C209.457 103.172 209.237 103.162 209.147 103.272C202.247 111.582 202.567 119.782 208.917 128.402C212.257 132.942 211.047 137.902 207.927 142.342C206.777 143.972 205.627 145.622 204.267 147.072C198.967 152.702 197.567 158.732 202.127 165.482C202.517 166.072 202.687 166.652 201.787 167.882Z" fill="#E76349"/>
<path d="M211.357 99.8219C214.547 93.8119 215.047 88.4719 208.927 83.7919C213.467 84.7719 215.277 87.9719 215.377 91.8219C215.457 94.9419 214.277 97.9919 211.357 99.8219Z" fill="#E76349"/>
<defs>
<clipPath id="clip0">
<rect width="100" height="100" fill="white" transform="translate(295.654 496.728) rotate(-115.051)"/>
</clipPath>
<clipPath id="clip1">
<rect width="66" height="66" fill="white" transform="translate(111.311 335.128) rotate(-77.1082)"/>
</clipPath>
</defs>
</svg>
