<svg width="307" height="72" viewBox="0 0 307 72" fill="none" xmlns="http://www.w3.org/2000/svg">
<rect width="307" height="72" fill="#444444"/>
<path d="M21.396 20.97V30H20.556V20.97H17.28V20.228H24.672V20.97H21.396ZM26.259 19.64H27.057V23.966H27.099C27.2577 23.5927 27.505 23.2847 27.841 23.042C28.177 22.79 28.6344 22.664 29.213 22.664C29.9784 22.664 30.571 22.902 30.991 23.378C31.4204 23.8447 31.635 24.5167 31.635 25.394V30H30.837V25.534C30.837 24.806 30.6784 24.2647 30.361 23.91C30.053 23.5553 29.6004 23.378 29.003 23.378C28.751 23.378 28.5084 23.4107 28.275 23.476C28.0417 23.5413 27.8317 23.6393 27.645 23.77C27.4677 23.9007 27.323 24.0687 27.211 24.274C27.1084 24.47 27.057 24.6987 27.057 24.96V30H26.259V19.64ZM36.7097 30.168C36.2337 30.168 35.7997 30.084 35.4077 29.916C35.025 29.748 34.6937 29.5053 34.4137 29.188C34.143 28.8613 33.933 28.4647 33.7837 27.998C33.6437 27.5313 33.5737 27.004 33.5737 26.416C33.5737 25.828 33.6437 25.3053 33.7837 24.848C33.933 24.3813 34.143 23.9893 34.4137 23.672C34.6937 23.3453 35.025 23.098 35.4077 22.93C35.7904 22.7527 36.2197 22.664 36.6957 22.664C37.153 22.664 37.5684 22.7527 37.9417 22.93C38.315 23.098 38.6324 23.336 38.8937 23.644C39.155 23.952 39.3557 24.3253 39.4957 24.764C39.645 25.1933 39.7197 25.6693 39.7197 26.192V26.57H34.4137V26.92C34.4137 27.2933 34.465 27.6387 34.5677 27.956C34.6797 28.264 34.8337 28.53 35.0297 28.754C35.235 28.978 35.4824 29.1553 35.7717 29.286C36.061 29.4073 36.3877 29.468 36.7517 29.468C37.797 29.468 38.5204 28.9873 38.9217 28.026L39.5097 28.418C39.2857 28.95 38.931 29.3747 38.4457 29.692C37.9697 30.0093 37.391 30.168 36.7097 30.168ZM36.6957 23.336C36.3504 23.336 36.0377 23.4013 35.7577 23.532C35.4777 23.6533 35.235 23.826 35.0297 24.05C34.8337 24.274 34.6797 24.5447 34.5677 24.862C34.465 25.17 34.4137 25.5107 34.4137 25.884V25.954H38.8517V25.842C38.8517 25.4687 38.8004 25.128 38.6977 24.82C38.595 24.5027 38.4457 24.2367 38.2497 24.022C38.063 23.8073 37.8344 23.6393 37.5637 23.518C37.3024 23.3967 37.013 23.336 36.6957 23.336ZM49.9859 30C49.6779 30 49.4539 29.9207 49.3139 29.762C49.1739 29.6033 49.0945 29.3887 49.0759 29.118V28.866H49.0059C48.8472 29.2673 48.5859 29.5847 48.2219 29.818C47.8579 30.0513 47.3959 30.168 46.8359 30.168C46.0799 30.168 45.4965 29.986 45.0859 29.622C44.6752 29.2487 44.4699 28.726 44.4699 28.054C44.4699 27.4193 44.6939 26.9153 45.1419 26.542C45.5992 26.1687 46.3459 25.982 47.3819 25.982H49.0339V25.142C49.0339 23.9567 48.4225 23.364 47.1999 23.364C46.7239 23.364 46.3272 23.4667 46.0099 23.672C45.6925 23.868 45.4359 24.1527 45.2399 24.526L44.7359 24.106C44.9319 23.686 45.2305 23.3407 45.6319 23.07C46.0425 22.7993 46.5745 22.664 47.2279 22.664C48.0679 22.664 48.7119 22.874 49.1599 23.294C49.6079 23.714 49.8319 24.302 49.8319 25.058V29.3H50.7979V30H49.9859ZM46.9479 29.482C47.2372 29.482 47.5079 29.4447 47.7599 29.37C48.0119 29.2953 48.2312 29.1927 48.4179 29.062C48.6139 28.922 48.7632 28.7587 48.8659 28.572C48.9779 28.376 49.0339 28.1567 49.0339 27.914V26.584H47.3539C46.6352 26.584 46.1125 26.7007 45.7859 26.934C45.4685 27.158 45.3099 27.4707 45.3099 27.872V28.208C45.3099 28.628 45.4592 28.9453 45.7579 29.16C46.0565 29.3747 46.4532 29.482 46.9479 29.482ZM52.4407 22.832H53.2387V23.98H53.2807C53.458 23.5787 53.7287 23.2613 54.0927 23.028C54.4567 22.7853 54.914 22.664 55.4647 22.664C56.3887 22.664 57.112 22.9907 57.6347 23.644C58.1573 24.2973 58.4187 25.2213 58.4187 26.416C58.4187 27.6107 58.1573 28.5347 57.6347 29.188C57.112 29.8413 56.3887 30.168 55.4647 30.168C54.914 30.168 54.4613 30.0513 54.1067 29.818C53.752 29.5753 53.4767 29.2533 53.2807 28.852H53.2387V32.8H52.4407V22.832ZM55.2827 29.454C56.0013 29.454 56.5613 29.2253 56.9627 28.768C57.364 28.3107 57.5647 27.6947 57.5647 26.92V25.912C57.5647 25.1373 57.364 24.5213 56.9627 24.064C56.5613 23.6067 56.0013 23.378 55.2827 23.378C55.0027 23.378 54.7367 23.42 54.4847 23.504C54.242 23.5787 54.0273 23.686 53.8407 23.826C53.654 23.966 53.5047 24.134 53.3927 24.33C53.29 24.526 53.2387 24.7407 53.2387 24.974V27.816C53.2387 28.068 53.29 28.2967 53.3927 28.502C53.5047 28.698 53.654 28.8707 53.8407 29.02C54.0273 29.16 54.242 29.2673 54.4847 29.342C54.7367 29.4167 55.0027 29.454 55.2827 29.454ZM60.4797 22.832H61.2777V23.98H61.3197C61.4971 23.5787 61.7677 23.2613 62.1317 23.028C62.4957 22.7853 62.9531 22.664 63.5037 22.664C64.4277 22.664 65.1511 22.9907 65.6737 23.644C66.1964 24.2973 66.4577 25.2213 66.4577 26.416C66.4577 27.6107 66.1964 28.5347 65.6737 29.188C65.1511 29.8413 64.4277 30.168 63.5037 30.168C62.9531 30.168 62.5004 30.0513 62.1457 29.818C61.7911 29.5753 61.5157 29.2533 61.3197 28.852H61.2777V32.8H60.4797V22.832ZM63.3217 29.454C64.0404 29.454 64.6004 29.2253 65.0017 28.768C65.4031 28.3107 65.6037 27.6947 65.6037 26.92V25.912C65.6037 25.1373 65.4031 24.5213 65.0017 24.064C64.6004 23.6067 64.0404 23.378 63.3217 23.378C63.0417 23.378 62.7757 23.42 62.5237 23.504C62.2811 23.5787 62.0664 23.686 61.8797 23.826C61.6931 23.966 61.5437 24.134 61.4317 24.33C61.3291 24.526 61.2777 24.7407 61.2777 24.974V27.816C61.2777 28.068 61.3291 28.2967 61.4317 28.502C61.5437 28.698 61.6931 28.8707 61.8797 29.02C62.0664 29.16 62.2811 29.2673 62.5237 29.342C62.7757 29.4167 63.0417 29.454 63.3217 29.454ZM73.0594 30C72.7701 30 72.5507 29.9207 72.4014 29.762C72.2521 29.6033 72.1774 29.3887 72.1774 29.118V23.532H70.9314V22.832H71.7434C71.9394 22.832 72.0701 22.7947 72.1354 22.72C72.2101 22.636 72.2474 22.4913 72.2474 22.286V20.83H72.9754V22.832H74.5994V23.532H72.9754V29.3H74.4874V30H73.0594ZM79.0242 30.168C78.5482 30.168 78.1142 30.084 77.7222 29.916C77.3395 29.748 77.0082 29.5053 76.7282 29.188C76.4575 28.8613 76.2475 28.4647 76.0982 27.998C75.9582 27.5313 75.8882 27.004 75.8882 26.416C75.8882 25.828 75.9582 25.3053 76.0982 24.848C76.2475 24.3813 76.4575 23.9893 76.7282 23.672C77.0082 23.3453 77.3395 23.098 77.7222 22.93C78.1048 22.7527 78.5342 22.664 79.0102 22.664C79.4675 22.664 79.8828 22.7527 80.2562 22.93C80.6295 23.098 80.9468 23.336 81.2082 23.644C81.4695 23.952 81.6702 24.3253 81.8102 24.764C81.9595 25.1933 82.0342 25.6693 82.0342 26.192V26.57H76.7282V26.92C76.7282 27.2933 76.7795 27.6387 76.8822 27.956C76.9942 28.264 77.1482 28.53 77.3442 28.754C77.5495 28.978 77.7968 29.1553 78.0862 29.286C78.3755 29.4073 78.7022 29.468 79.0662 29.468C80.1115 29.468 80.8348 28.9873 81.2362 28.026L81.8242 28.418C81.6002 28.95 81.2455 29.3747 80.7602 29.692C80.2842 30.0093 79.7055 30.168 79.0242 30.168ZM79.0102 23.336C78.6648 23.336 78.3522 23.4013 78.0722 23.532C77.7922 23.6533 77.5495 23.826 77.3442 24.05C77.1482 24.274 76.9942 24.5447 76.8822 24.862C76.7795 25.17 76.7282 25.5107 76.7282 25.884V25.954H81.1662V25.842C81.1662 25.4687 81.1148 25.128 81.0122 24.82C80.9095 24.5027 80.7602 24.2367 80.5642 24.022C80.3775 23.8073 80.1488 23.6393 79.8782 23.518C79.6168 23.3967 79.3275 23.336 79.0102 23.336ZM84.9457 30C84.6564 30 84.4371 29.9207 84.2877 29.762C84.1384 29.6033 84.0637 29.3933 84.0637 29.132V19.64H84.8617V29.3H85.9677V30H84.9457ZM88.5414 30C88.2521 30 88.0328 29.9207 87.8834 29.762C87.7341 29.6033 87.6594 29.3933 87.6594 29.132V19.64H88.4574V29.3H89.5634V30H88.5414ZM93.3808 30.168C92.7555 30.168 92.2188 30.0513 91.7708 29.818C91.3322 29.5847 90.9495 29.244 90.6228 28.796L91.2108 28.334C91.5095 28.726 91.8362 29.0153 92.1908 29.202C92.5455 29.3887 92.9608 29.482 93.4368 29.482C93.9875 29.482 94.4122 29.3653 94.7108 29.132C95.0095 28.8987 95.1588 28.5627 95.1588 28.124C95.1588 27.7413 95.0422 27.4427 94.8088 27.228C94.5848 27.004 94.2115 26.8547 93.6888 26.78L93.1008 26.682C92.7742 26.6353 92.4755 26.5653 92.2048 26.472C91.9342 26.3787 91.7008 26.2527 91.5048 26.094C91.3182 25.9353 91.1688 25.744 91.0568 25.52C90.9542 25.2867 90.9028 25.0067 90.9028 24.68C90.9028 24.344 90.9635 24.05 91.0848 23.798C91.2155 23.546 91.3882 23.336 91.6028 23.168C91.8175 23 92.0742 22.874 92.3728 22.79C92.6715 22.706 92.9935 22.664 93.3388 22.664C93.9362 22.664 94.4262 22.7667 94.8088 22.972C95.1915 23.1773 95.5182 23.4433 95.7888 23.77L95.2568 24.26C95.0702 24.036 94.8182 23.8307 94.5008 23.644C94.1928 23.448 93.7915 23.35 93.2968 23.35C92.7835 23.35 92.3822 23.462 92.0928 23.686C91.8128 23.91 91.6728 24.2273 91.6728 24.638C91.6728 25.058 91.7988 25.3613 92.0508 25.548C92.3122 25.7347 92.6995 25.87 93.2128 25.954L93.7868 26.038C94.5148 26.15 95.0515 26.3693 95.3968 26.696C95.7515 27.0133 95.9288 27.4613 95.9288 28.04C95.9288 28.712 95.7002 29.2347 95.2428 29.608C94.7948 29.9813 94.1742 30.168 93.3808 30.168ZM105.615 20.228V27.452C105.615 28.32 105.373 28.992 104.887 29.468C104.411 29.9347 103.772 30.168 102.969 30.168C102.279 30.168 101.709 29.9813 101.261 29.608C100.813 29.2347 100.524 28.74 100.393 28.124L101.135 27.942C101.247 28.3713 101.453 28.726 101.751 29.006C102.059 29.286 102.475 29.426 102.997 29.426C103.585 29.426 104.029 29.2487 104.327 28.894C104.626 28.5393 104.775 28.0167 104.775 27.326V20.97H101.387V20.228H105.615ZM113.164 30C112.856 30 112.632 29.9207 112.492 29.762C112.352 29.6033 112.272 29.3887 112.254 29.118V28.866H112.184C112.025 29.2673 111.764 29.5847 111.4 29.818C111.036 30.0513 110.574 30.168 110.014 30.168C109.258 30.168 108.674 29.986 108.264 29.622C107.853 29.2487 107.648 28.726 107.648 28.054C107.648 27.4193 107.872 26.9153 108.32 26.542C108.777 26.1687 109.524 25.982 110.56 25.982H112.212V25.142C112.212 23.9567 111.6 23.364 110.378 23.364C109.902 23.364 109.505 23.4667 109.188 23.672C108.87 23.868 108.614 24.1527 108.418 24.526L107.914 24.106C108.11 23.686 108.408 23.3407 108.81 23.07C109.22 22.7993 109.752 22.664 110.406 22.664C111.246 22.664 111.89 22.874 112.338 23.294C112.786 23.714 113.01 24.302 113.01 25.058V29.3H113.976V30H113.164ZM110.126 29.482C110.415 29.482 110.686 29.4447 110.938 29.37C111.19 29.2953 111.409 29.1927 111.596 29.062C111.792 28.922 111.941 28.7587 112.044 28.572C112.156 28.376 112.212 28.1567 112.212 27.914V26.584H110.532C109.813 26.584 109.29 26.7007 108.964 26.934C108.646 27.158 108.488 27.4707 108.488 27.872V28.208C108.488 28.628 108.637 28.9453 108.936 29.16C109.234 29.3747 109.631 29.482 110.126 29.482ZM118.18 30.168C117.704 30.168 117.27 30.084 116.878 29.916C116.496 29.748 116.164 29.5053 115.884 29.188C115.614 28.8613 115.404 28.4647 115.254 27.998C115.114 27.5313 115.044 27.004 115.044 26.416C115.044 25.828 115.114 25.3053 115.254 24.848C115.404 24.3813 115.614 23.9893 115.884 23.672C116.164 23.3453 116.496 23.098 116.878 22.93C117.261 22.7527 117.69 22.664 118.166 22.664C118.624 22.664 119.039 22.7527 119.412 22.93C119.786 23.098 120.103 23.336 120.364 23.644C120.626 23.952 120.826 24.3253 120.966 24.764C121.116 25.1933 121.19 25.6693 121.19 26.192V26.57H115.884V26.92C115.884 27.2933 115.936 27.6387 116.038 27.956C116.15 28.264 116.304 28.53 116.5 28.754C116.706 28.978 116.953 29.1553 117.242 29.286C117.532 29.4073 117.858 29.468 118.222 29.468C119.268 29.468 119.991 28.9873 120.392 28.026L120.98 28.418C120.756 28.95 120.402 29.3747 119.916 29.692C119.44 30.0093 118.862 30.168 118.18 30.168ZM118.166 23.336C117.821 23.336 117.508 23.4013 117.228 23.532C116.948 23.6533 116.706 23.826 116.5 24.05C116.304 24.274 116.15 24.5447 116.038 24.862C115.936 25.17 115.884 25.5107 115.884 25.884V25.954H120.322V25.842C120.322 25.4687 120.271 25.128 120.168 24.82C120.066 24.5027 119.916 24.2367 119.72 24.022C119.534 23.8073 119.305 23.6393 119.034 23.518C118.773 23.3967 118.484 23.336 118.166 23.336ZM125.689 22.832H126.473L128.195 29.286H128.223L130.127 22.832H130.869L132.787 29.286H132.815L134.523 22.832H135.293L133.277 30H132.297L130.491 23.966H130.463L128.671 30H127.705L125.689 22.832ZM137.056 19.64H137.854V23.966H137.896C138.055 23.5927 138.302 23.2847 138.638 23.042C138.974 22.79 139.431 22.664 140.01 22.664C140.775 22.664 141.368 22.902 141.788 23.378C142.217 23.8447 142.432 24.5167 142.432 25.394V30H141.634V25.534C141.634 24.806 141.475 24.2647 141.158 23.91C140.85 23.5553 140.397 23.378 139.8 23.378C139.548 23.378 139.305 23.4107 139.072 23.476C138.839 23.5413 138.629 23.6393 138.442 23.77C138.265 23.9007 138.12 24.0687 138.008 24.274C137.905 24.47 137.854 24.6987 137.854 24.96V30H137.056V19.64ZM145.337 20.886C145.15 20.886 145.01 20.8393 144.917 20.746C144.833 20.6527 144.791 20.5313 144.791 20.382V20.242C144.791 20.0927 144.833 19.9713 144.917 19.878C145.01 19.7847 145.15 19.738 145.337 19.738C145.523 19.738 145.659 19.7847 145.743 19.878C145.836 19.9713 145.883 20.0927 145.883 20.242V20.382C145.883 20.5313 145.836 20.6527 145.743 20.746C145.659 20.8393 145.523 20.886 145.337 20.886ZM144.945 22.832H145.743V30H144.945V22.832ZM150.869 30.168C149.88 30.168 149.114 29.8413 148.573 29.188C148.041 28.5347 147.775 27.6107 147.775 26.416C147.775 25.2213 148.041 24.2973 148.573 23.644C149.114 22.9907 149.88 22.664 150.869 22.664C151.532 22.664 152.068 22.8087 152.479 23.098C152.89 23.3873 153.202 23.77 153.417 24.246L152.745 24.582C152.577 24.19 152.339 23.8913 152.031 23.686C151.732 23.4807 151.345 23.378 150.869 23.378C150.141 23.378 149.586 23.6113 149.203 24.078C148.82 24.5447 148.629 25.156 148.629 25.912V26.92C148.629 27.676 148.82 28.2873 149.203 28.754C149.586 29.2207 150.141 29.454 150.869 29.454C151.364 29.454 151.779 29.3467 152.115 29.132C152.451 28.9173 152.722 28.6093 152.927 28.208L153.515 28.6C153.282 29.076 152.946 29.4587 152.507 29.748C152.078 30.028 151.532 30.168 150.869 30.168ZM155.294 19.64H156.092V23.966H156.134C156.293 23.5927 156.54 23.2847 156.876 23.042C157.212 22.79 157.67 22.664 158.248 22.664C159.014 22.664 159.606 22.902 160.026 23.378C160.456 23.8447 160.67 24.5167 160.67 25.394V30H159.872V25.534C159.872 24.806 159.714 24.2647 159.396 23.91C159.088 23.5553 158.636 23.378 158.038 23.378C157.786 23.378 157.544 23.4107 157.31 23.476C157.077 23.5413 156.867 23.6393 156.68 23.77C156.503 23.9007 156.358 24.0687 156.246 24.274C156.144 24.47 156.092 24.6987 156.092 24.96V30H155.294V19.64ZM166.883 20.886C166.697 20.886 166.557 20.8393 166.463 20.746C166.379 20.6527 166.337 20.5313 166.337 20.382V20.242C166.337 20.0927 166.379 19.9713 166.463 19.878C166.557 19.7847 166.697 19.738 166.883 19.738C167.07 19.738 167.205 19.7847 167.289 19.878C167.383 19.9713 167.429 20.0927 167.429 20.242V20.382C167.429 20.5313 167.383 20.6527 167.289 20.746C167.205 20.8393 167.07 20.886 166.883 20.886ZM166.491 22.832H167.289V30H166.491V22.832ZM171.128 30C170.838 30 170.619 29.9207 170.47 29.762C170.32 29.6033 170.246 29.3887 170.246 29.118V23.532H169V22.832H169.812C170.008 22.832 170.138 22.7947 170.204 22.72C170.278 22.636 170.316 22.4913 170.316 22.286V20.83H171.044V22.832H172.668V23.532H171.044V29.3H172.556V30H171.128ZM177.093 30.168C176.617 30.168 176.183 30.084 175.791 29.916C175.408 29.748 175.077 29.5053 174.797 29.188C174.526 28.8613 174.316 28.4647 174.167 27.998C174.027 27.5313 173.957 27.004 173.957 26.416C173.957 25.828 174.027 25.3053 174.167 24.848C174.316 24.3813 174.526 23.9893 174.797 23.672C175.077 23.3453 175.408 23.098 175.791 22.93C176.173 22.7527 176.603 22.664 177.079 22.664C177.536 22.664 177.951 22.7527 178.325 22.93C178.698 23.098 179.015 23.336 179.277 23.644C179.538 23.952 179.739 24.3253 179.879 24.764C180.028 25.1933 180.103 25.6693 180.103 26.192V26.57H174.797V26.92C174.797 27.2933 174.848 27.6387 174.951 27.956C175.063 28.264 175.217 28.53 175.413 28.754C175.618 28.978 175.865 29.1553 176.155 29.286C176.444 29.4073 176.771 29.468 177.135 29.468C178.18 29.468 178.903 28.9873 179.305 28.026L179.893 28.418C179.669 28.95 179.314 29.3747 178.829 29.692C178.353 30.0093 177.774 30.168 177.093 30.168ZM177.079 23.336C176.733 23.336 176.421 23.4013 176.141 23.532C175.861 23.6533 175.618 23.826 175.413 24.05C175.217 24.274 175.063 24.5447 174.951 24.862C174.848 25.17 174.797 25.5107 174.797 25.884V25.954H179.235V25.842C179.235 25.4687 179.183 25.128 179.081 24.82C178.978 24.5027 178.829 24.2367 178.633 24.022C178.446 23.8073 178.217 23.6393 177.947 23.518C177.685 23.3967 177.396 23.336 177.079 23.336ZM182.132 30V22.832H182.93V23.966H182.972C183.047 23.7887 183.14 23.6253 183.252 23.476C183.364 23.3173 183.499 23.1773 183.658 23.056C183.817 22.9347 184.003 22.8413 184.218 22.776C184.442 22.7013 184.703 22.664 185.002 22.664C185.515 22.664 185.968 22.7853 186.36 23.028C186.752 23.2707 187.037 23.6533 187.214 24.176H187.256C187.387 23.756 187.634 23.4013 187.998 23.112C188.371 22.8133 188.875 22.664 189.51 22.664C190.275 22.664 190.863 22.902 191.274 23.378C191.685 23.8447 191.89 24.5167 191.89 25.394V30H191.092V25.534C191.092 24.0967 190.49 23.378 189.286 23.378C189.034 23.378 188.796 23.4107 188.572 23.476C188.348 23.5413 188.147 23.644 187.97 23.784C187.802 23.9147 187.667 24.0827 187.564 24.288C187.461 24.484 187.41 24.7127 187.41 24.974V30H186.612V25.534C186.612 24.0967 186.015 23.378 184.82 23.378C184.577 23.378 184.339 23.4107 184.106 23.476C183.882 23.5413 183.681 23.6393 183.504 23.77C183.327 23.9007 183.187 24.0687 183.084 24.274C182.981 24.47 182.93 24.6987 182.93 24.96V30H182.132ZM196.426 30.168C195.8 30.168 195.264 30.0513 194.816 29.818C194.377 29.5847 193.994 29.244 193.668 28.796L194.256 28.334C194.554 28.726 194.881 29.0153 195.236 29.202C195.59 29.3887 196.006 29.482 196.482 29.482C197.032 29.482 197.457 29.3653 197.756 29.132C198.054 28.8987 198.204 28.5627 198.204 28.124C198.204 27.7413 198.087 27.4427 197.854 27.228C197.63 27.004 197.256 26.8547 196.734 26.78L196.146 26.682C195.819 26.6353 195.52 26.5653 195.25 26.472C194.979 26.3787 194.746 26.2527 194.55 26.094C194.363 25.9353 194.214 25.744 194.102 25.52C193.999 25.2867 193.948 25.0067 193.948 24.68C193.948 24.344 194.008 24.05 194.13 23.798C194.26 23.546 194.433 23.336 194.648 23.168C194.862 23 195.119 22.874 195.418 22.79C195.716 22.706 196.038 22.664 196.384 22.664C196.981 22.664 197.471 22.7667 197.854 22.972C198.236 23.1773 198.563 23.4433 198.834 23.77L198.302 24.26C198.115 24.036 197.863 23.8307 197.546 23.644C197.238 23.448 196.836 23.35 196.342 23.35C195.828 23.35 195.427 23.462 195.138 23.686C194.858 23.91 194.718 24.2273 194.718 24.638C194.718 25.058 194.844 25.3613 195.096 25.548C195.357 25.7347 195.744 25.87 196.258 25.954L196.832 26.038C197.56 26.15 198.096 26.3693 198.442 26.696C198.796 27.0133 198.974 27.4613 198.974 28.04C198.974 28.712 198.745 29.2347 198.288 29.608C197.84 29.9813 197.219 30.168 196.426 30.168ZM204.376 30V22.832H205.174V23.966H205.216C205.375 23.5927 205.622 23.2847 205.958 23.042C206.294 22.79 206.752 22.664 207.33 22.664C208.096 22.664 208.688 22.902 209.108 23.378C209.538 23.8447 209.752 24.5167 209.752 25.394V30H208.954V25.534C208.954 24.806 208.796 24.2647 208.478 23.91C208.17 23.5553 207.718 23.378 207.12 23.378C206.868 23.378 206.626 23.4107 206.392 23.476C206.159 23.5413 205.949 23.6393 205.762 23.77C205.585 23.9007 205.44 24.0687 205.328 24.274C205.226 24.47 205.174 24.6987 205.174 24.96V30H204.376ZM214.827 30.168C214.351 30.168 213.917 30.084 213.525 29.916C213.142 29.748 212.811 29.5053 212.531 29.188C212.26 28.8613 212.05 28.4647 211.901 27.998C211.761 27.5313 211.691 27.004 211.691 26.416C211.691 25.828 211.761 25.3053 211.901 24.848C212.05 24.3813 212.26 23.9893 212.531 23.672C212.811 23.3453 213.142 23.098 213.525 22.93C213.908 22.7527 214.337 22.664 214.813 22.664C215.27 22.664 215.686 22.7527 216.059 22.93C216.432 23.098 216.75 23.336 217.011 23.644C217.272 23.952 217.473 24.3253 217.613 24.764C217.762 25.1933 217.837 25.6693 217.837 26.192V26.57H212.531V26.92C212.531 27.2933 212.582 27.6387 212.685 27.956C212.797 28.264 212.951 28.53 213.147 28.754C213.352 28.978 213.6 29.1553 213.889 29.286C214.178 29.4073 214.505 29.468 214.869 29.468C215.914 29.468 216.638 28.9873 217.039 28.026L217.627 28.418C217.403 28.95 217.048 29.3747 216.563 29.692C216.087 30.0093 215.508 30.168 214.827 30.168ZM214.813 23.336C214.468 23.336 214.155 23.4013 213.875 23.532C213.595 23.6533 213.352 23.826 213.147 24.05C212.951 24.274 212.797 24.5447 212.685 24.862C212.582 25.17 212.531 25.5107 212.531 25.884V25.954H216.969V25.842C216.969 25.4687 216.918 25.128 216.815 24.82C216.712 24.5027 216.563 24.2367 216.367 24.022C216.18 23.8073 215.952 23.6393 215.681 23.518C215.42 23.3967 215.13 23.336 214.813 23.336ZM222.428 30.168C221.952 30.168 221.518 30.084 221.126 29.916C220.744 29.748 220.412 29.5053 220.132 29.188C219.862 28.8613 219.652 28.4647 219.502 27.998C219.362 27.5313 219.292 27.004 219.292 26.416C219.292 25.828 219.362 25.3053 219.502 24.848C219.652 24.3813 219.862 23.9893 220.132 23.672C220.412 23.3453 220.744 23.098 221.126 22.93C221.509 22.7527 221.938 22.664 222.414 22.664C222.872 22.664 223.287 22.7527 223.66 22.93C224.034 23.098 224.351 23.336 224.612 23.644C224.874 23.952 225.074 24.3253 225.214 24.764C225.364 25.1933 225.438 25.6693 225.438 26.192V26.57H220.132V26.92C220.132 27.2933 220.184 27.6387 220.286 27.956C220.398 28.264 220.552 28.53 220.748 28.754C220.954 28.978 221.201 29.1553 221.49 29.286C221.78 29.4073 222.106 29.468 222.47 29.468C223.516 29.468 224.239 28.9873 224.64 28.026L225.228 28.418C225.004 28.95 224.65 29.3747 224.164 29.692C223.688 30.0093 223.11 30.168 222.428 30.168ZM222.414 23.336C222.069 23.336 221.756 23.4013 221.476 23.532C221.196 23.6533 220.954 23.826 220.748 24.05C220.552 24.274 220.398 24.5447 220.286 24.862C220.184 25.17 220.132 25.5107 220.132 25.884V25.954H224.57V25.842C224.57 25.4687 224.519 25.128 224.416 24.82C224.314 24.5027 224.164 24.2367 223.968 24.022C223.782 23.8073 223.553 23.6393 223.282 23.518C223.021 23.3967 222.732 23.336 222.414 23.336ZM232.102 28.852H232.06C231.873 29.2533 231.598 29.5753 231.234 29.818C230.879 30.0513 230.427 30.168 229.876 30.168C228.952 30.168 228.229 29.8413 227.706 29.188C227.183 28.5347 226.922 27.6107 226.922 26.416C226.922 25.2213 227.183 24.2973 227.706 23.644C228.229 22.9907 228.952 22.664 229.876 22.664C230.427 22.664 230.884 22.7853 231.248 23.028C231.612 23.2613 231.883 23.5787 232.06 23.98H232.102V19.64H232.9V30H232.102V28.852ZM230.058 29.454C230.338 29.454 230.599 29.4167 230.842 29.342C231.094 29.2673 231.313 29.16 231.5 29.02C231.687 28.8707 231.831 28.698 231.934 28.502C232.046 28.2967 232.102 28.068 232.102 27.816V24.974C232.102 24.7407 232.046 24.526 231.934 24.33C231.831 24.134 231.687 23.966 231.5 23.826C231.313 23.686 231.094 23.5787 230.842 23.504C230.599 23.42 230.338 23.378 230.058 23.378C229.339 23.378 228.779 23.6067 228.378 24.064C227.977 24.5213 227.776 25.1373 227.776 25.912V26.92C227.776 27.6947 227.977 28.3107 228.378 28.768C228.779 29.2253 229.339 29.454 230.058 29.454ZM240.048 30C239.758 30 239.539 29.9207 239.39 29.762C239.24 29.6033 239.166 29.3887 239.166 29.118V23.532H237.92V22.832H238.732C238.928 22.832 239.058 22.7947 239.124 22.72C239.198 22.636 239.236 22.4913 239.236 22.286V20.83H239.964V22.832H241.588V23.532H239.964V29.3H241.476V30H240.048ZM245.998 30.168C245.522 30.168 245.093 30.084 244.71 29.916C244.328 29.748 244.001 29.5053 243.73 29.188C243.46 28.8613 243.25 28.4647 243.1 27.998C242.951 27.5313 242.876 27.004 242.876 26.416C242.876 25.828 242.951 25.3053 243.1 24.848C243.25 24.3813 243.46 23.9893 243.73 23.672C244.001 23.3453 244.328 23.098 244.71 22.93C245.093 22.7527 245.522 22.664 245.998 22.664C246.474 22.664 246.904 22.7527 247.286 22.93C247.669 23.098 247.996 23.3453 248.266 23.672C248.537 23.9893 248.747 24.3813 248.896 24.848C249.046 25.3053 249.12 25.828 249.12 26.416C249.12 27.004 249.046 27.5313 248.896 27.998C248.747 28.4647 248.537 28.8613 248.266 29.188C247.996 29.5053 247.669 29.748 247.286 29.916C246.904 30.084 246.474 30.168 245.998 30.168ZM245.998 29.454C246.698 29.454 247.249 29.2347 247.65 28.796C248.061 28.3573 248.266 27.7133 248.266 26.864V25.968C248.266 25.128 248.061 24.4887 247.65 24.05C247.249 23.602 246.698 23.378 245.998 23.378C245.298 23.378 244.743 23.5973 244.332 24.036C243.931 24.4747 243.73 25.1187 243.73 25.968V26.864C243.73 27.704 243.931 28.348 244.332 28.796C244.743 29.2347 245.298 29.454 245.998 29.454ZM254.456 19.64H255.254V23.98H255.296C255.474 23.5787 255.744 23.2613 256.108 23.028C256.472 22.7853 256.93 22.664 257.48 22.664C258.404 22.664 259.128 22.9907 259.65 23.644C260.173 24.2973 260.434 25.2213 260.434 26.416C260.434 27.6107 260.173 28.5347 259.65 29.188C259.128 29.8413 258.404 30.168 257.48 30.168C256.93 30.168 256.477 30.0513 256.122 29.818C255.768 29.5753 255.492 29.2533 255.296 28.852H255.254V30H254.456V19.64ZM257.298 29.454C258.017 29.454 258.577 29.2253 258.978 28.768C259.38 28.3107 259.58 27.6947 259.58 26.92V25.912C259.58 25.1373 259.38 24.5213 258.978 24.064C258.577 23.6067 258.017 23.378 257.298 23.378C257.018 23.378 256.752 23.42 256.5 23.504C256.258 23.5787 256.043 23.686 255.856 23.826C255.67 23.966 255.52 24.134 255.408 24.33C255.306 24.526 255.254 24.7407 255.254 24.974V27.816C255.254 28.068 255.306 28.2967 255.408 28.502C255.52 28.698 255.67 28.8707 255.856 29.02C256.043 29.16 256.258 29.2673 256.5 29.342C256.752 29.4167 257.018 29.454 257.298 29.454ZM265.057 30.168C264.581 30.168 264.147 30.084 263.755 29.916C263.373 29.748 263.041 29.5053 262.761 29.188C262.491 28.8613 262.281 28.4647 262.131 27.998C261.991 27.5313 261.921 27.004 261.921 26.416C261.921 25.828 261.991 25.3053 262.131 24.848C262.281 24.3813 262.491 23.9893 262.761 23.672C263.041 23.3453 263.373 23.098 263.755 22.93C264.138 22.7527 264.567 22.664 265.043 22.664C265.501 22.664 265.916 22.7527 266.289 22.93C266.663 23.098 266.98 23.336 267.241 23.644C267.503 23.952 267.703 24.3253 267.843 24.764C267.993 25.1933 268.067 25.6693 268.067 26.192V26.57H262.761V26.92C262.761 27.2933 262.813 27.6387 262.915 27.956C263.027 28.264 263.181 28.53 263.377 28.754C263.583 28.978 263.83 29.1553 264.119 29.286C264.409 29.4073 264.735 29.468 265.099 29.468C266.145 29.468 266.868 28.9873 267.269 28.026L267.857 28.418C267.633 28.95 267.279 29.3747 266.793 29.692C266.317 30.0093 265.739 30.168 265.057 30.168ZM265.043 23.336C264.698 23.336 264.385 23.4013 264.105 23.532C263.825 23.6533 263.583 23.826 263.377 24.05C263.181 24.274 263.027 24.5447 262.915 24.862C262.813 25.17 262.761 25.5107 262.761 25.884V25.954H267.199V25.842C267.199 25.4687 267.148 25.128 267.045 24.82C266.943 24.5027 266.793 24.2367 266.597 24.022C266.411 23.8073 266.182 23.6393 265.911 23.518C265.65 23.3967 265.361 23.336 265.043 23.336ZM18.302 52V44.832H19.1V46.12H19.156C19.296 45.784 19.534 45.4853 19.87 45.224C20.206 44.9627 20.682 44.832 21.298 44.832H21.774V45.616H21.144C20.5467 45.616 20.0567 45.7467 19.674 46.008C19.2913 46.2693 19.1 46.6333 19.1 47.1V52H18.302ZM25.8269 52.168C25.3509 52.168 24.9169 52.084 24.5249 51.916C24.1422 51.748 23.8109 51.5053 23.5309 51.188C23.2602 50.8613 23.0502 50.4647 22.9009 49.998C22.7609 49.5313 22.6909 49.004 22.6909 48.416C22.6909 47.828 22.7609 47.3053 22.9009 46.848C23.0502 46.3813 23.2602 45.9893 23.5309 45.672C23.8109 45.3453 24.1422 45.098 24.5249 44.93C24.9076 44.7527 25.3369 44.664 25.8129 44.664C26.2702 44.664 26.6856 44.7527 27.0589 44.93C27.4322 45.098 27.7496 45.336 28.0109 45.644C28.2722 45.952 28.4729 46.3253 28.6129 46.764C28.7622 47.1933 28.8369 47.6693 28.8369 48.192V48.57H23.5309V48.92C23.5309 49.2933 23.5822 49.6387 23.6849 49.956C23.7969 50.264 23.9509 50.53 24.1469 50.754C24.3522 50.978 24.5996 51.1553 24.8889 51.286C25.1782 51.4073 25.5049 51.468 25.8689 51.468C26.9142 51.468 27.6376 50.9873 28.0389 50.026L28.6269 50.418C28.4029 50.95 28.0482 51.3747 27.5629 51.692C27.0869 52.0093 26.5082 52.168 25.8269 52.168ZM25.8129 45.336C25.4676 45.336 25.1549 45.4013 24.8749 45.532C24.5949 45.6533 24.3522 45.826 24.1469 46.05C23.9509 46.274 23.7969 46.5447 23.6849 46.862C23.5822 47.17 23.5309 47.5107 23.5309 47.884V47.954H27.9689V47.842C27.9689 47.4687 27.9176 47.128 27.8149 46.82C27.7122 46.5027 27.5629 46.2367 27.3669 46.022C27.1802 45.8073 26.9516 45.6393 26.6809 45.518C26.4196 45.3967 26.1302 45.336 25.8129 45.336ZM32.8965 52.168C32.2711 52.168 31.7345 52.0513 31.2865 51.818C30.8478 51.5847 30.4651 51.244 30.1385 50.796L30.7265 50.334C31.0251 50.726 31.3518 51.0153 31.7065 51.202C32.0611 51.3887 32.4765 51.482 32.9525 51.482C33.5031 51.482 33.9278 51.3653 34.2265 51.132C34.5251 50.8987 34.6745 50.5627 34.6745 50.124C34.6745 49.7413 34.5578 49.4427 34.3245 49.228C34.1005 49.004 33.7271 48.8547 33.2045 48.78L32.6165 48.682C32.2898 48.6353 31.9911 48.5653 31.7205 48.472C31.4498 48.3787 31.2165 48.2527 31.0205 48.094C30.8338 47.9353 30.6845 47.744 30.5725 47.52C30.4698 47.2867 30.4185 47.0067 30.4185 46.68C30.4185 46.344 30.4791 46.05 30.6005 45.798C30.7311 45.546 30.9038 45.336 31.1185 45.168C31.3331 45 31.5898 44.874 31.8885 44.79C32.1871 44.706 32.5091 44.664 32.8545 44.664C33.4518 44.664 33.9418 44.7667 34.3245 44.972C34.7071 45.1773 35.0338 45.4433 35.3045 45.77L34.7725 46.26C34.5858 46.036 34.3338 45.8307 34.0165 45.644C33.7085 45.448 33.3071 45.35 32.8125 45.35C32.2991 45.35 31.8978 45.462 31.6085 45.686C31.3285 45.91 31.1885 46.2273 31.1885 46.638C31.1885 47.058 31.3145 47.3613 31.5665 47.548C31.8278 47.7347 32.2151 47.87 32.7285 47.954L33.3025 48.038C34.0305 48.15 34.5671 48.3693 34.9125 48.696C35.2671 49.0133 35.4445 49.4613 35.4445 50.04C35.4445 50.712 35.2158 51.2347 34.7585 51.608C34.3105 51.9813 33.6898 52.168 32.8965 52.168ZM38.7156 52C38.4263 52 38.207 51.9207 38.0576 51.762C37.9083 51.6033 37.8336 51.3887 37.8336 51.118V45.532H36.5876V44.832H37.3996C37.5956 44.832 37.7263 44.7947 37.7916 44.72C37.8663 44.636 37.9036 44.4913 37.9036 44.286V42.83H38.6316V44.832H40.2556V45.532H38.6316V51.3H40.1436V52H38.7156ZM44.6664 52.168C44.1904 52.168 43.7611 52.084 43.3784 51.916C42.9957 51.748 42.6691 51.5053 42.3984 51.188C42.1277 50.8613 41.9177 50.4647 41.7684 49.998C41.6191 49.5313 41.5444 49.004 41.5444 48.416C41.5444 47.828 41.6191 47.3053 41.7684 46.848C41.9177 46.3813 42.1277 45.9893 42.3984 45.672C42.6691 45.3453 42.9957 45.098 43.3784 44.93C43.7611 44.7527 44.1904 44.664 44.6664 44.664C45.1424 44.664 45.5717 44.7527 45.9544 44.93C46.3371 45.098 46.6637 45.3453 46.9344 45.672C47.2051 45.9893 47.4151 46.3813 47.5644 46.848C47.7137 47.3053 47.7884 47.828 47.7884 48.416C47.7884 49.004 47.7137 49.5313 47.5644 49.998C47.4151 50.4647 47.2051 50.8613 46.9344 51.188C46.6637 51.5053 46.3371 51.748 45.9544 51.916C45.5717 52.084 45.1424 52.168 44.6664 52.168ZM44.6664 51.454C45.3664 51.454 45.9171 51.2347 46.3184 50.796C46.7291 50.3573 46.9344 49.7133 46.9344 48.864V47.968C46.9344 47.128 46.7291 46.4887 46.3184 46.05C45.9171 45.602 45.3664 45.378 44.6664 45.378C43.9664 45.378 43.4111 45.5973 43.0004 46.036C42.5991 46.4747 42.3984 47.1187 42.3984 47.968V48.864C42.3984 49.704 42.5991 50.348 43.0004 50.796C43.4111 51.2347 43.9664 51.454 44.6664 51.454ZM52.3357 52.168C51.3463 52.168 50.581 51.8413 50.0397 51.188C49.5077 50.5347 49.2417 49.6107 49.2417 48.416C49.2417 47.2213 49.5077 46.2973 50.0397 45.644C50.581 44.9907 51.3463 44.664 52.3357 44.664C52.9983 44.664 53.535 44.8087 53.9457 45.098C54.3563 45.3873 54.669 45.77 54.8837 46.246L54.2117 46.582C54.0437 46.19 53.8057 45.8913 53.4977 45.686C53.199 45.4807 52.8117 45.378 52.3357 45.378C51.6077 45.378 51.0523 45.6113 50.6697 46.078C50.287 46.5447 50.0957 47.156 50.0957 47.912V48.92C50.0957 49.676 50.287 50.2873 50.6697 50.754C51.0523 51.2207 51.6077 51.454 52.3357 51.454C52.8303 51.454 53.2457 51.3467 53.5817 51.132C53.9177 50.9173 54.1883 50.6093 54.3937 50.208L54.9817 50.6C54.7483 51.076 54.4123 51.4587 53.9737 51.748C53.5443 52.028 52.9983 52.168 52.3357 52.168ZM56.761 41.64H57.559V48.486H57.601L58.721 47.296L61.101 44.832H62.081L59.267 47.744L62.389 52H61.409L58.693 48.248L57.559 49.396V52H56.761V41.64ZM66.3093 52.168C65.8333 52.168 65.3993 52.084 65.0073 51.916C64.6246 51.748 64.2933 51.5053 64.0133 51.188C63.7426 50.8613 63.5326 50.4647 63.3833 49.998C63.2433 49.5313 63.1733 49.004 63.1733 48.416C63.1733 47.828 63.2433 47.3053 63.3833 46.848C63.5326 46.3813 63.7426 45.9893 64.0133 45.672C64.2933 45.3453 64.6246 45.098 65.0073 44.93C65.39 44.7527 65.8193 44.664 66.2953 44.664C66.7526 44.664 67.168 44.7527 67.5413 44.93C67.9146 45.098 68.232 45.336 68.4933 45.644C68.7546 45.952 68.9553 46.3253 69.0953 46.764C69.2446 47.1933 69.3193 47.6693 69.3193 48.192V48.57H64.0133V48.92C64.0133 49.2933 64.0646 49.6387 64.1673 49.956C64.2793 50.264 64.4333 50.53 64.6293 50.754C64.8346 50.978 65.082 51.1553 65.3713 51.286C65.6606 51.4073 65.9873 51.468 66.3513 51.468C67.3966 51.468 68.12 50.9873 68.5213 50.026L69.1093 50.418C68.8853 50.95 68.5306 51.3747 68.0453 51.692C67.5693 52.0093 66.9906 52.168 66.3093 52.168ZM66.2953 45.336C65.95 45.336 65.6373 45.4013 65.3573 45.532C65.0773 45.6533 64.8346 45.826 64.6293 46.05C64.4333 46.274 64.2793 46.5447 64.1673 46.862C64.0646 47.17 64.0133 47.5107 64.0133 47.884V47.954H68.4513V47.842C68.4513 47.4687 68.4 47.128 68.2973 46.82C68.1946 46.5027 68.0453 46.2367 67.8493 46.022C67.6626 45.8073 67.434 45.6393 67.1633 45.518C66.902 45.3967 66.6126 45.336 66.2953 45.336ZM75.9829 50.852H75.9409C75.7542 51.2533 75.4789 51.5753 75.1149 51.818C74.7602 52.0513 74.3075 52.168 73.7569 52.168C72.8329 52.168 72.1095 51.8413 71.5869 51.188C71.0642 50.5347 70.8029 49.6107 70.8029 48.416C70.8029 47.2213 71.0642 46.2973 71.5869 45.644C72.1095 44.9907 72.8329 44.664 73.7569 44.664C74.3075 44.664 74.7649 44.7853 75.1289 45.028C75.4929 45.2613 75.7635 45.5787 75.9409 45.98H75.9829V41.64H76.7809V52H75.9829V50.852ZM73.9389 51.454C74.2189 51.454 74.4802 51.4167 74.7229 51.342C74.9749 51.2673 75.1942 51.16 75.3809 51.02C75.5675 50.8707 75.7122 50.698 75.8149 50.502C75.9269 50.2967 75.9829 50.068 75.9829 49.816V46.974C75.9829 46.7407 75.9269 46.526 75.8149 46.33C75.7122 46.134 75.5675 45.966 75.3809 45.826C75.1942 45.686 74.9749 45.5787 74.7229 45.504C74.4802 45.42 74.2189 45.378 73.9389 45.378C73.2202 45.378 72.6602 45.6067 72.2589 46.064C71.8575 46.5213 71.6569 47.1373 71.6569 47.912V48.92C71.6569 49.6947 71.8575 50.3107 72.2589 50.768C72.6602 51.2253 73.2202 51.454 73.9389 51.454ZM84.7265 52.168C84.1012 52.168 83.5645 52.0513 83.1165 51.818C82.6779 51.5847 82.2952 51.244 81.9685 50.796L82.5565 50.334C82.8552 50.726 83.1819 51.0153 83.5365 51.202C83.8912 51.3887 84.3065 51.482 84.7825 51.482C85.3332 51.482 85.7579 51.3653 86.0565 51.132C86.3552 50.8987 86.5045 50.5627 86.5045 50.124C86.5045 49.7413 86.3879 49.4427 86.1545 49.228C85.9305 49.004 85.5572 48.8547 85.0345 48.78L84.4465 48.682C84.1199 48.6353 83.8212 48.5653 83.5505 48.472C83.2799 48.3787 83.0465 48.2527 82.8505 48.094C82.6639 47.9353 82.5145 47.744 82.4025 47.52C82.2999 47.2867 82.2485 47.0067 82.2485 46.68C82.2485 46.344 82.3092 46.05 82.4305 45.798C82.5612 45.546 82.7339 45.336 82.9485 45.168C83.1632 45 83.4199 44.874 83.7185 44.79C84.0172 44.706 84.3392 44.664 84.6845 44.664C85.2819 44.664 85.7719 44.7667 86.1545 44.972C86.5372 45.1773 86.8639 45.4433 87.1345 45.77L86.6025 46.26C86.4159 46.036 86.1639 45.8307 85.8465 45.644C85.5385 45.448 85.1372 45.35 84.6425 45.35C84.1292 45.35 83.7279 45.462 83.4385 45.686C83.1585 45.91 83.0185 46.2273 83.0185 46.638C83.0185 47.058 83.1445 47.3613 83.3965 47.548C83.6579 47.7347 84.0452 47.87 84.5585 47.954L85.1325 48.038C85.8605 48.15 86.3972 48.3693 86.7425 48.696C87.0972 49.0133 87.2745 49.4613 87.2745 50.04C87.2745 50.712 87.0459 51.2347 86.5885 51.608C86.1405 51.9813 85.5199 52.168 84.7265 52.168ZM91.9164 52.168C91.4404 52.168 91.0111 52.084 90.6284 51.916C90.2457 51.748 89.9191 51.5053 89.6484 51.188C89.3777 50.8613 89.1677 50.4647 89.0184 49.998C88.8691 49.5313 88.7944 49.004 88.7944 48.416C88.7944 47.828 88.8691 47.3053 89.0184 46.848C89.1677 46.3813 89.3777 45.9893 89.6484 45.672C89.9191 45.3453 90.2457 45.098 90.6284 44.93C91.0111 44.7527 91.4404 44.664 91.9164 44.664C92.3924 44.664 92.8217 44.7527 93.2044 44.93C93.5871 45.098 93.9137 45.3453 94.1844 45.672C94.4551 45.9893 94.6651 46.3813 94.8144 46.848C94.9637 47.3053 95.0384 47.828 95.0384 48.416C95.0384 49.004 94.9637 49.5313 94.8144 49.998C94.6651 50.4647 94.4551 50.8613 94.1844 51.188C93.9137 51.5053 93.5871 51.748 93.2044 51.916C92.8217 52.084 92.3924 52.168 91.9164 52.168ZM91.9164 51.454C92.6164 51.454 93.1671 51.2347 93.5684 50.796C93.9791 50.3573 94.1844 49.7133 94.1844 48.864V47.968C94.1844 47.128 93.9791 46.4887 93.5684 46.05C93.1671 45.602 92.6164 45.378 91.9164 45.378C91.2164 45.378 90.6611 45.5973 90.2504 46.036C89.8491 46.4747 89.6484 47.1187 89.6484 47.968V48.864C89.6484 49.704 89.8491 50.348 90.2504 50.796C90.6611 51.2347 91.2164 51.454 91.9164 51.454ZM102.404 52.168C101.779 52.168 101.242 52.0513 100.794 51.818C100.356 51.5847 99.9729 51.244 99.6463 50.796L100.234 50.334C100.533 50.726 100.86 51.0153 101.214 51.202C101.569 51.3887 101.984 51.482 102.46 51.482C103.011 51.482 103.436 51.3653 103.734 51.132C104.033 50.8987 104.182 50.5627 104.182 50.124C104.182 49.7413 104.066 49.4427 103.832 49.228C103.608 49.004 103.235 48.8547 102.712 48.78L102.124 48.682C101.798 48.6353 101.499 48.5653 101.228 48.472C100.958 48.3787 100.724 48.2527 100.528 48.094C100.342 47.9353 100.192 47.744 100.08 47.52C99.9776 47.2867 99.9263 47.0067 99.9263 46.68C99.9263 46.344 99.9869 46.05 100.108 45.798C100.239 45.546 100.412 45.336 100.626 45.168C100.841 45 101.098 44.874 101.396 44.79C101.695 44.706 102.017 44.664 102.362 44.664C102.96 44.664 103.45 44.7667 103.832 44.972C104.215 45.1773 104.542 45.4433 104.812 45.77L104.28 46.26C104.094 46.036 103.842 45.8307 103.524 45.644C103.216 45.448 102.815 45.35 102.32 45.35C101.807 45.35 101.406 45.462 101.116 45.686C100.836 45.91 100.696 46.2273 100.696 46.638C100.696 47.058 100.822 47.3613 101.074 47.548C101.336 47.7347 101.723 47.87 102.236 47.954L102.81 48.038C103.538 48.15 104.075 48.3693 104.42 48.696C104.775 49.0133 104.952 49.4613 104.952 50.04C104.952 50.712 104.724 51.2347 104.266 51.608C103.818 51.9813 103.198 52.168 102.404 52.168ZM107.046 41.64H107.844V45.966H107.886C108.045 45.5927 108.292 45.2847 108.628 45.042C108.964 44.79 109.421 44.664 110 44.664C110.765 44.664 111.358 44.902 111.778 45.378C112.207 45.8447 112.422 46.5167 112.422 47.394V52H111.624V47.534C111.624 46.806 111.465 46.2647 111.148 45.91C110.84 45.5553 110.387 45.378 109.79 45.378C109.538 45.378 109.295 45.4107 109.062 45.476C108.829 45.5413 108.619 45.6393 108.432 45.77C108.255 45.9007 108.11 46.0687 107.998 46.274C107.895 46.47 107.844 46.6987 107.844 46.96V52H107.046V41.64ZM117.497 52.168C117.021 52.168 116.587 52.084 116.195 51.916C115.812 51.748 115.481 51.5053 115.201 51.188C114.93 50.8613 114.72 50.4647 114.571 49.998C114.431 49.5313 114.361 49.004 114.361 48.416C114.361 47.828 114.431 47.3053 114.571 46.848C114.72 46.3813 114.93 45.9893 115.201 45.672C115.481 45.3453 115.812 45.098 116.195 44.93C116.577 44.7527 117.007 44.664 117.483 44.664C117.94 44.664 118.355 44.7527 118.729 44.93C119.102 45.098 119.419 45.336 119.681 45.644C119.942 45.952 120.143 46.3253 120.283 46.764C120.432 47.1933 120.507 47.6693 120.507 48.192V48.57H115.201V48.92C115.201 49.2933 115.252 49.6387 115.355 49.956C115.467 50.264 115.621 50.53 115.817 50.754C116.022 50.978 116.269 51.1553 116.559 51.286C116.848 51.4073 117.175 51.468 117.539 51.468C118.584 51.468 119.307 50.9873 119.709 50.026L120.297 50.418C120.073 50.95 119.718 51.3747 119.233 51.692C118.757 52.0093 118.178 52.168 117.497 52.168ZM117.483 45.336C117.137 45.336 116.825 45.4013 116.545 45.532C116.265 45.6533 116.022 45.826 115.817 46.05C115.621 46.274 115.467 46.5447 115.355 46.862C115.252 47.17 115.201 47.5107 115.201 47.884V47.954H119.639V47.842C119.639 47.4687 119.587 47.128 119.485 46.82C119.382 46.5027 119.233 46.2367 119.037 46.022C118.85 45.8073 118.621 45.6393 118.351 45.518C118.089 45.3967 117.8 45.336 117.483 45.336ZM125.845 41.64H126.643V48.486H126.685L127.805 47.296L130.185 44.832H131.165L128.351 47.744L131.473 52H130.493L127.777 48.248L126.643 49.396V52H125.845V41.64ZM133.023 52V44.832H133.821V45.966H133.863C134.021 45.5927 134.269 45.2847 134.605 45.042C134.941 44.79 135.398 44.664 135.977 44.664C136.742 44.664 137.335 44.902 137.755 45.378C138.184 45.8447 138.399 46.5167 138.399 47.394V52H137.601V47.534C137.601 46.806 137.442 46.2647 137.125 45.91C136.817 45.5553 136.364 45.378 135.767 45.378C135.515 45.378 135.272 45.4107 135.039 45.476C134.805 45.5413 134.595 45.6393 134.409 45.77C134.231 45.9007 134.087 46.0687 133.975 46.274C133.872 46.47 133.821 46.6987 133.821 46.96V52H133.023ZM143.459 52.168C142.983 52.168 142.554 52.084 142.171 51.916C141.789 51.748 141.462 51.5053 141.191 51.188C140.921 50.8613 140.711 50.4647 140.561 49.998C140.412 49.5313 140.337 49.004 140.337 48.416C140.337 47.828 140.412 47.3053 140.561 46.848C140.711 46.3813 140.921 45.9893 141.191 45.672C141.462 45.3453 141.789 45.098 142.171 44.93C142.554 44.7527 142.983 44.664 143.459 44.664C143.935 44.664 144.365 44.7527 144.747 44.93C145.13 45.098 145.457 45.3453 145.727 45.672C145.998 45.9893 146.208 46.3813 146.357 46.848C146.507 47.3053 146.581 47.828 146.581 48.416C146.581 49.004 146.507 49.5313 146.357 49.998C146.208 50.4647 145.998 50.8613 145.727 51.188C145.457 51.5053 145.13 51.748 144.747 51.916C144.365 52.084 143.935 52.168 143.459 52.168ZM143.459 51.454C144.159 51.454 144.71 51.2347 145.111 50.796C145.522 50.3573 145.727 49.7133 145.727 48.864V47.968C145.727 47.128 145.522 46.4887 145.111 46.05C144.71 45.602 144.159 45.378 143.459 45.378C142.759 45.378 142.204 45.5973 141.793 46.036C141.392 46.4747 141.191 47.1187 141.191 47.968V48.864C141.191 49.704 141.392 50.348 141.793 50.796C142.204 51.2347 142.759 51.454 143.459 51.454ZM147.728 44.832H148.512L150.234 51.286H150.262L152.166 44.832H152.908L154.826 51.286H154.854L156.562 44.832H157.332L155.316 52H154.336L152.53 45.966H152.502L150.71 52H149.744L147.728 44.832ZM161.111 52.168C160.486 52.168 159.949 52.0513 159.501 51.818C159.063 51.5847 158.68 51.244 158.353 50.796L158.941 50.334C159.24 50.726 159.567 51.0153 159.921 51.202C160.276 51.3887 160.691 51.482 161.167 51.482C161.718 51.482 162.143 51.3653 162.441 51.132C162.74 50.8987 162.889 50.5627 162.889 50.124C162.889 49.7413 162.773 49.4427 162.539 49.228C162.315 49.004 161.942 48.8547 161.419 48.78L160.831 48.682C160.505 48.6353 160.206 48.5653 159.935 48.472C159.665 48.3787 159.431 48.2527 159.235 48.094C159.049 47.9353 158.899 47.744 158.787 47.52C158.685 47.2867 158.633 47.0067 158.633 46.68C158.633 46.344 158.694 46.05 158.815 45.798C158.946 45.546 159.119 45.336 159.333 45.168C159.548 45 159.805 44.874 160.103 44.79C160.402 44.706 160.724 44.664 161.069 44.664C161.667 44.664 162.157 44.7667 162.539 44.972C162.922 45.1773 163.249 45.4433 163.519 45.77L162.987 46.26C162.801 46.036 162.549 45.8307 162.231 45.644C161.923 45.448 161.522 45.35 161.027 45.35C160.514 45.35 160.113 45.462 159.823 45.686C159.543 45.91 159.403 46.2273 159.403 46.638C159.403 47.058 159.529 47.3613 159.781 47.548C160.043 47.7347 160.43 47.87 160.943 47.954L161.517 48.038C162.245 48.15 162.782 48.3693 163.127 48.696C163.482 49.0133 163.659 49.4613 163.659 50.04C163.659 50.712 163.431 51.2347 162.973 51.608C162.525 51.9813 161.905 52.168 161.111 52.168ZM168.222 44.832H169.006L170.728 51.286H170.756L172.66 44.832H173.402L175.32 51.286H175.348L177.056 44.832H177.826L175.81 52H174.83L173.024 45.966H172.996L171.204 52H170.238L168.222 44.832ZM179.589 41.64H180.387V45.966H180.429C180.588 45.5927 180.835 45.2847 181.171 45.042C181.507 44.79 181.964 44.664 182.543 44.664C183.308 44.664 183.901 44.902 184.321 45.378C184.75 45.8447 184.965 46.5167 184.965 47.394V52H184.167V47.534C184.167 46.806 184.008 46.2647 183.691 45.91C183.383 45.5553 182.93 45.378 182.333 45.378C182.081 45.378 181.838 45.4107 181.605 45.476C181.372 45.5413 181.162 45.6393 180.975 45.77C180.798 45.9007 180.653 46.0687 180.541 46.274C180.438 46.47 180.387 46.6987 180.387 46.96V52H179.589V41.64ZM190.04 52.168C189.564 52.168 189.13 52.084 188.738 51.916C188.355 51.748 188.024 51.5053 187.744 51.188C187.473 50.8613 187.263 50.4647 187.114 49.998C186.974 49.5313 186.904 49.004 186.904 48.416C186.904 47.828 186.974 47.3053 187.114 46.848C187.263 46.3813 187.473 45.9893 187.744 45.672C188.024 45.3453 188.355 45.098 188.738 44.93C189.12 44.7527 189.55 44.664 190.026 44.664C190.483 44.664 190.898 44.7527 191.272 44.93C191.645 45.098 191.962 45.336 192.224 45.644C192.485 45.952 192.686 46.3253 192.826 46.764C192.975 47.1933 193.05 47.6693 193.05 48.192V48.57H187.744V48.92C187.744 49.2933 187.795 49.6387 187.898 49.956C188.01 50.264 188.164 50.53 188.36 50.754C188.565 50.978 188.812 51.1553 189.102 51.286C189.391 51.4073 189.718 51.468 190.082 51.468C191.127 51.468 191.85 50.9873 192.252 50.026L192.84 50.418C192.616 50.95 192.261 51.3747 191.776 51.692C191.3 52.0093 190.721 52.168 190.04 52.168ZM190.026 45.336C189.68 45.336 189.368 45.4013 189.088 45.532C188.808 45.6533 188.565 45.826 188.36 46.05C188.164 46.274 188.01 46.5447 187.898 46.862C187.795 47.17 187.744 47.5107 187.744 47.884V47.954H192.182V47.842C192.182 47.4687 192.13 47.128 192.028 46.82C191.925 46.5027 191.776 46.2367 191.58 46.022C191.393 45.8073 191.164 45.6393 190.894 45.518C190.632 45.3967 190.343 45.336 190.026 45.336ZM195.079 52V44.832H195.877V46.12H195.933C196.073 45.784 196.311 45.4853 196.647 45.224C196.983 44.9627 197.459 44.832 198.075 44.832H198.551V45.616H197.921C197.324 45.616 196.834 45.7467 196.451 46.008C196.069 46.2693 195.877 46.6333 195.877 47.1V52H195.079ZM202.604 52.168C202.128 52.168 201.694 52.084 201.302 51.916C200.92 51.748 200.588 51.5053 200.308 51.188C200.038 50.8613 199.828 50.4647 199.678 49.998C199.538 49.5313 199.468 49.004 199.468 48.416C199.468 47.828 199.538 47.3053 199.678 46.848C199.828 46.3813 200.038 45.9893 200.308 45.672C200.588 45.3453 200.92 45.098 201.302 44.93C201.685 44.7527 202.114 44.664 202.59 44.664C203.048 44.664 203.463 44.7527 203.836 44.93C204.21 45.098 204.527 45.336 204.788 45.644C205.05 45.952 205.25 46.3253 205.39 46.764C205.54 47.1933 205.614 47.6693 205.614 48.192V48.57H200.308V48.92C200.308 49.2933 200.36 49.6387 200.462 49.956C200.574 50.264 200.728 50.53 200.924 50.754C201.13 50.978 201.377 51.1553 201.666 51.286C201.956 51.4073 202.282 51.468 202.646 51.468C203.692 51.468 204.415 50.9873 204.816 50.026L205.404 50.418C205.18 50.95 204.826 51.3747 204.34 51.692C203.864 52.0093 203.286 52.168 202.604 52.168ZM202.59 45.336C202.245 45.336 201.932 45.4013 201.652 45.532C201.372 45.6533 201.13 45.826 200.924 46.05C200.728 46.274 200.574 46.5447 200.462 46.862C200.36 47.17 200.308 47.5107 200.308 47.884V47.954H204.746V47.842C204.746 47.4687 204.695 47.128 204.592 46.82C204.49 46.5027 204.34 46.2367 204.144 46.022C203.958 45.8073 203.729 45.6393 203.458 45.518C203.197 45.3967 202.908 45.336 202.59 45.336ZM212.184 52C211.895 52 211.676 51.9207 211.526 51.762C211.377 51.6033 211.302 51.3887 211.302 51.118V45.532H210.056V44.832H210.868C211.064 44.832 211.195 44.7947 211.26 44.72C211.335 44.636 211.372 44.4913 211.372 44.286V42.83H212.1V44.832H213.724V45.532H212.1V51.3H213.612V52H212.184ZM218.135 52.168C217.659 52.168 217.23 52.084 216.847 51.916C216.464 51.748 216.138 51.5053 215.867 51.188C215.596 50.8613 215.386 50.4647 215.237 49.998C215.088 49.5313 215.013 49.004 215.013 48.416C215.013 47.828 215.088 47.3053 215.237 46.848C215.386 46.3813 215.596 45.9893 215.867 45.672C216.138 45.3453 216.464 45.098 216.847 44.93C217.23 44.7527 217.659 44.664 218.135 44.664C218.611 44.664 219.04 44.7527 219.423 44.93C219.806 45.098 220.132 45.3453 220.403 45.672C220.674 45.9893 220.884 46.3813 221.033 46.848C221.182 47.3053 221.257 47.828 221.257 48.416C221.257 49.004 221.182 49.5313 221.033 49.998C220.884 50.4647 220.674 50.8613 220.403 51.188C220.132 51.5053 219.806 51.748 219.423 51.916C219.04 52.084 218.611 52.168 218.135 52.168ZM218.135 51.454C218.835 51.454 219.386 51.2347 219.787 50.796C220.198 50.3573 220.403 49.7133 220.403 48.864V47.968C220.403 47.128 220.198 46.4887 219.787 46.05C219.386 45.602 218.835 45.378 218.135 45.378C217.435 45.378 216.88 45.5973 216.469 46.036C216.068 46.4747 215.867 47.1187 215.867 47.968V48.864C215.867 49.704 216.068 50.348 216.469 50.796C216.88 51.2347 217.435 51.454 218.135 51.454ZM232.473 52.84C232.473 53.568 232.179 54.1047 231.591 54.45C231.012 54.7953 230.158 54.968 229.029 54.968C227.937 54.968 227.148 54.8093 226.663 54.492C226.178 54.1747 225.935 53.736 225.935 53.176C225.935 52.7653 226.042 52.4387 226.257 52.196C226.472 51.9533 226.775 51.776 227.167 51.664V51.552C226.719 51.3747 226.495 51.048 226.495 50.572C226.495 50.2173 226.612 49.9467 226.845 49.76C227.078 49.5733 227.368 49.4333 227.713 49.34V49.284C227.293 49.0973 226.966 48.8173 226.733 48.444C226.5 48.0707 226.383 47.6227 226.383 47.1C226.383 46.736 226.444 46.4047 226.565 46.106C226.686 45.8073 226.859 45.5507 227.083 45.336C227.316 45.1213 227.592 44.958 227.909 44.846C228.236 44.7247 228.595 44.664 228.987 44.664C229.538 44.664 230.018 44.7807 230.429 45.014V44.664C230.429 44.4493 230.48 44.2767 230.583 44.146C230.686 44.006 230.854 43.936 231.087 43.936H232.319V44.636H230.863V45.322C231.106 45.5367 231.292 45.798 231.423 46.106C231.554 46.4047 231.619 46.736 231.619 47.1C231.619 47.464 231.554 47.7953 231.423 48.094C231.302 48.3927 231.124 48.654 230.891 48.878C230.667 49.0927 230.392 49.2607 230.065 49.382C229.748 49.494 229.393 49.55 229.001 49.55C228.87 49.55 228.744 49.5407 228.623 49.522C228.502 49.5033 228.38 49.4847 228.259 49.466C227.951 49.55 227.694 49.6667 227.489 49.816C227.293 49.956 227.195 50.1473 227.195 50.39C227.195 50.8193 227.578 51.034 228.343 51.034H230.009C230.877 51.034 231.502 51.1973 231.885 51.524C232.277 51.8413 232.473 52.28 232.473 52.84ZM231.703 52.896C231.703 52.5507 231.577 52.2753 231.325 52.07C231.082 51.874 230.644 51.776 230.009 51.776H227.685C227.377 51.8787 227.134 52.0327 226.957 52.238C226.78 52.4433 226.691 52.7 226.691 53.008C226.691 53.3813 226.845 53.6893 227.153 53.932C227.461 54.184 227.928 54.31 228.553 54.31H229.449C230.149 54.31 230.7 54.1933 231.101 53.96C231.502 53.736 231.703 53.3813 231.703 52.896ZM229.001 48.906C229.552 48.906 229.981 48.7707 230.289 48.5C230.606 48.22 230.765 47.828 230.765 47.324V46.876C230.765 46.3813 230.606 45.9987 230.289 45.728C229.981 45.448 229.552 45.308 229.001 45.308C228.441 45.308 228.007 45.448 227.699 45.728C227.391 45.9987 227.237 46.3813 227.237 46.876V47.324C227.237 47.828 227.391 48.22 227.699 48.5C228.016 48.7707 228.45 48.906 229.001 48.906ZM236.469 52.168C235.993 52.168 235.564 52.084 235.181 51.916C234.798 51.748 234.472 51.5053 234.201 51.188C233.93 50.8613 233.72 50.4647 233.571 49.998C233.422 49.5313 233.347 49.004 233.347 48.416C233.347 47.828 233.422 47.3053 233.571 46.848C233.72 46.3813 233.93 45.9893 234.201 45.672C234.472 45.3453 234.798 45.098 235.181 44.93C235.564 44.7527 235.993 44.664 236.469 44.664C236.945 44.664 237.374 44.7527 237.757 44.93C238.14 45.098 238.466 45.3453 238.737 45.672C239.008 45.9893 239.218 46.3813 239.367 46.848C239.516 47.3053 239.591 47.828 239.591 48.416C239.591 49.004 239.516 49.5313 239.367 49.998C239.218 50.4647 239.008 50.8613 238.737 51.188C238.466 51.5053 238.14 51.748 237.757 51.916C237.374 52.084 236.945 52.168 236.469 52.168ZM236.469 51.454C237.169 51.454 237.72 51.2347 238.121 50.796C238.532 50.3573 238.737 49.7133 238.737 48.864V47.968C238.737 47.128 238.532 46.4887 238.121 46.05C237.72 45.602 237.169 45.378 236.469 45.378C235.769 45.378 235.214 45.5973 234.803 46.036C234.402 46.4747 234.201 47.1187 234.201 47.968V48.864C234.201 49.704 234.402 50.348 234.803 50.796C235.214 51.2347 235.769 51.454 236.469 51.454ZM241.822 52.126C241.589 52.126 241.416 52.07 241.304 51.958C241.201 51.8367 241.15 51.6827 241.15 51.496V51.342C241.15 51.1553 241.201 51.006 241.304 50.894C241.416 50.7727 241.589 50.712 241.822 50.712C242.046 50.712 242.214 50.7727 242.326 50.894C242.438 51.006 242.494 51.1553 242.494 51.342V51.496C242.494 51.6827 242.438 51.8367 242.326 51.958C242.214 52.07 242.046 52.126 241.822 52.126Z" fill="white"/>
</svg>
