<svg width="307" height="72" viewBox="0 0 307 72" fill="none" xmlns="http://www.w3.org/2000/svg">
<rect width="307" height="72" fill="#444444"/>
<path d="M18.386 20.228H22.208C22.9733 20.228 23.5707 20.4473 24 20.886C24.4387 21.3153 24.658 21.9173 24.658 22.692C24.658 23.028 24.6113 23.322 24.518 23.574C24.434 23.826 24.322 24.036 24.182 24.204C24.042 24.372 23.8787 24.5073 23.692 24.61C23.5147 24.7127 23.3373 24.7827 23.16 24.82V24.876C23.384 24.904 23.608 24.974 23.832 25.086C24.056 25.1887 24.2567 25.338 24.434 25.534C24.6113 25.7207 24.756 25.9587 24.868 26.248C24.98 26.528 25.036 26.8593 25.036 27.242C25.036 27.6433 24.9753 28.012 24.854 28.348C24.742 28.684 24.574 28.978 24.35 29.23C24.1353 29.4727 23.874 29.664 23.566 29.804C23.2673 29.9347 22.9313 30 22.558 30H18.386V20.228ZM19.226 29.258H22.334C22.922 29.258 23.37 29.0993 23.678 28.782C23.986 28.4553 24.14 28.0353 24.14 27.522V27.004C24.14 26.5 23.986 26.0893 23.678 25.772C23.37 25.4453 22.922 25.282 22.334 25.282H19.226V29.258ZM19.226 24.554H22.124C22.656 24.554 23.062 24.414 23.342 24.134C23.622 23.8447 23.762 23.476 23.762 23.028V22.496C23.762 22.048 23.622 21.684 23.342 21.404C23.062 21.1147 22.656 20.97 22.124 20.97H19.226V24.554ZM27.2297 30V22.832H28.0277V24.12H28.0837C28.2237 23.784 28.4617 23.4853 28.7977 23.224C29.1337 22.9627 29.6097 22.832 30.2257 22.832H30.7017V23.616H30.0717C29.4744 23.616 28.9844 23.7467 28.6017 24.008C28.2191 24.2693 28.0277 24.6333 28.0277 25.1V30H27.2297ZM34.7406 30.168C34.2646 30.168 33.8353 30.084 33.4526 29.916C33.07 29.748 32.7433 29.5053 32.4726 29.188C32.202 28.8613 31.992 28.4647 31.8426 27.998C31.6933 27.5313 31.6186 27.004 31.6186 26.416C31.6186 25.828 31.6933 25.3053 31.8426 24.848C31.992 24.3813 32.202 23.9893 32.4726 23.672C32.7433 23.3453 33.07 23.098 33.4526 22.93C33.8353 22.7527 34.2646 22.664 34.7406 22.664C35.2166 22.664 35.646 22.7527 36.0286 22.93C36.4113 23.098 36.738 23.3453 37.0086 23.672C37.2793 23.9893 37.4893 24.3813 37.6386 24.848C37.788 25.3053 37.8626 25.828 37.8626 26.416C37.8626 27.004 37.788 27.5313 37.6386 27.998C37.4893 28.4647 37.2793 28.8613 37.0086 29.188C36.738 29.5053 36.4113 29.748 36.0286 29.916C35.646 30.084 35.2166 30.168 34.7406 30.168ZM34.7406 29.454C35.4406 29.454 35.9913 29.2347 36.3926 28.796C36.8033 28.3573 37.0086 27.7133 37.0086 26.864V25.968C37.0086 25.128 36.8033 24.4887 36.3926 24.05C35.9913 23.602 35.4406 23.378 34.7406 23.378C34.0406 23.378 33.4853 23.5973 33.0746 24.036C32.6733 24.4747 32.4726 25.1187 32.4726 25.968V26.864C32.4726 27.704 32.6733 28.348 33.0746 28.796C33.4853 29.2347 34.0406 29.454 34.7406 29.454ZM39.0089 22.832H39.7929L41.5149 29.286H41.5429L43.4469 22.832H44.1889L46.1069 29.286H46.1349L47.8429 22.832H48.6129L46.5969 30H45.6169L43.8109 23.966H43.7829L41.9909 30H41.0249L39.0089 22.832ZM52.3925 30.168C51.7672 30.168 51.2305 30.0513 50.7825 29.818C50.3439 29.5847 49.9612 29.244 49.6345 28.796L50.2225 28.334C50.5212 28.726 50.8479 29.0153 51.2025 29.202C51.5572 29.3887 51.9725 29.482 52.4485 29.482C52.9992 29.482 53.4239 29.3653 53.7225 29.132C54.0212 28.8987 54.1705 28.5627 54.1705 28.124C54.1705 27.7413 54.0539 27.4427 53.8205 27.228C53.5965 27.004 53.2232 26.8547 52.7005 26.78L52.1125 26.682C51.7859 26.6353 51.4872 26.5653 51.2165 26.472C50.9459 26.3787 50.7125 26.2527 50.5165 26.094C50.3299 25.9353 50.1805 25.744 50.0685 25.52C49.9659 25.2867 49.9145 25.0067 49.9145 24.68C49.9145 24.344 49.9752 24.05 50.0965 23.798C50.2272 23.546 50.3999 23.336 50.6145 23.168C50.8292 23 51.0859 22.874 51.3845 22.79C51.6832 22.706 52.0052 22.664 52.3505 22.664C52.9479 22.664 53.4379 22.7667 53.8205 22.972C54.2032 23.1773 54.5299 23.4433 54.8005 23.77L54.2685 24.26C54.0819 24.036 53.8299 23.8307 53.5125 23.644C53.2045 23.448 52.8032 23.35 52.3085 23.35C51.7952 23.35 51.3939 23.462 51.1045 23.686C50.8245 23.91 50.6845 24.2273 50.6845 24.638C50.6845 25.058 50.8105 25.3613 51.0625 25.548C51.3239 25.7347 51.7112 25.87 52.2245 25.954L52.7985 26.038C53.5265 26.15 54.0632 26.3693 54.4085 26.696C54.7632 27.0133 54.9405 27.4613 54.9405 28.04C54.9405 28.712 54.7119 29.2347 54.2545 29.608C53.8065 29.9813 53.1859 30.168 52.3925 30.168ZM59.5964 30.168C59.1204 30.168 58.6864 30.084 58.2944 29.916C57.9118 29.748 57.5804 29.5053 57.3004 29.188C57.0298 28.8613 56.8198 28.4647 56.6704 27.998C56.5304 27.5313 56.4604 27.004 56.4604 26.416C56.4604 25.828 56.5304 25.3053 56.6704 24.848C56.8198 24.3813 57.0298 23.9893 57.3004 23.672C57.5804 23.3453 57.9118 23.098 58.2944 22.93C58.6771 22.7527 59.1064 22.664 59.5824 22.664C60.0398 22.664 60.4551 22.7527 60.8284 22.93C61.2018 23.098 61.5191 23.336 61.7804 23.644C62.0418 23.952 62.2424 24.3253 62.3824 24.764C62.5318 25.1933 62.6064 25.6693 62.6064 26.192V26.57H57.3004V26.92C57.3004 27.2933 57.3518 27.6387 57.4544 27.956C57.5664 28.264 57.7204 28.53 57.9164 28.754C58.1218 28.978 58.3691 29.1553 58.6584 29.286C58.9478 29.4073 59.2744 29.468 59.6384 29.468C60.6838 29.468 61.4071 28.9873 61.8084 28.026L62.3964 28.418C62.1724 28.95 61.8178 29.3747 61.3324 29.692C60.8564 30.0093 60.2778 30.168 59.5964 30.168ZM59.5824 23.336C59.2371 23.336 58.9244 23.4013 58.6444 23.532C58.3644 23.6533 58.1218 23.826 57.9164 24.05C57.7204 24.274 57.5664 24.5447 57.4544 24.862C57.3518 25.17 57.3004 25.5107 57.3004 25.884V25.954H61.7384V25.842C61.7384 25.4687 61.6871 25.128 61.5844 24.82C61.4818 24.5027 61.3324 24.2367 61.1364 24.022C60.9498 23.8073 60.7211 23.6393 60.4504 23.518C60.1891 23.3967 59.8998 23.336 59.5824 23.336ZM67.9446 30V22.832H68.7426V23.966H68.7846C68.9432 23.5927 69.1906 23.2847 69.5266 23.042C69.8626 22.79 70.3199 22.664 70.8986 22.664C71.6639 22.664 72.2566 22.902 72.6766 23.378C73.1059 23.8447 73.3206 24.5167 73.3206 25.394V30H72.5226V25.534C72.5226 24.806 72.3639 24.2647 72.0466 23.91C71.7386 23.5553 71.2859 23.378 70.6886 23.378C70.4366 23.378 70.1939 23.4107 69.9606 23.476C69.7272 23.5413 69.5172 23.6393 69.3306 23.77C69.1532 23.9007 69.0086 24.0687 68.8966 24.274C68.7939 24.47 68.7426 24.6987 68.7426 24.96V30H67.9446ZM78.3953 30.168C77.9193 30.168 77.4853 30.084 77.0933 29.916C76.7106 29.748 76.3793 29.5053 76.0993 29.188C75.8286 28.8613 75.6186 28.4647 75.4693 27.998C75.3293 27.5313 75.2593 27.004 75.2593 26.416C75.2593 25.828 75.3293 25.3053 75.4693 24.848C75.6186 24.3813 75.8286 23.9893 76.0993 23.672C76.3793 23.3453 76.7106 23.098 77.0933 22.93C77.4759 22.7527 77.9053 22.664 78.3813 22.664C78.8386 22.664 79.2539 22.7527 79.6273 22.93C80.0006 23.098 80.3179 23.336 80.5793 23.644C80.8406 23.952 81.0413 24.3253 81.1813 24.764C81.3306 25.1933 81.4053 25.6693 81.4053 26.192V26.57H76.0993V26.92C76.0993 27.2933 76.1506 27.6387 76.2533 27.956C76.3653 28.264 76.5193 28.53 76.7153 28.754C76.9206 28.978 77.1679 29.1553 77.4573 29.286C77.7466 29.4073 78.0733 29.468 78.4373 29.468C79.4826 29.468 80.2059 28.9873 80.6073 28.026L81.1953 28.418C80.9713 28.95 80.6166 29.3747 80.1313 29.692C79.6553 30.0093 79.0766 30.168 78.3953 30.168ZM78.3813 23.336C78.0359 23.336 77.7233 23.4013 77.4433 23.532C77.1633 23.6533 76.9206 23.826 76.7153 24.05C76.5193 24.274 76.3653 24.5447 76.2533 24.862C76.1506 25.17 76.0993 25.5107 76.0993 25.884V25.954H80.5373V25.842C80.5373 25.4687 80.4859 25.128 80.3833 24.82C80.2806 24.5027 80.1313 24.2367 79.9353 24.022C79.7486 23.8073 79.5199 23.6393 79.2493 23.518C78.9879 23.3967 78.6986 23.336 78.3813 23.336ZM82.5265 22.832H83.3105L85.0325 29.286H85.0605L86.9645 22.832H87.7065L89.6245 29.286H89.6525L91.3605 22.832H92.1305L90.1145 30H89.1345L87.3285 23.966H87.3005L85.5085 30H84.5425L82.5265 22.832ZM95.9101 30.168C95.2848 30.168 94.7481 30.0513 94.3001 29.818C93.8615 29.5847 93.4788 29.244 93.1521 28.796L93.7401 28.334C94.0388 28.726 94.3655 29.0153 94.7201 29.202C95.0748 29.3887 95.4901 29.482 95.9661 29.482C96.5168 29.482 96.9415 29.3653 97.2401 29.132C97.5388 28.8987 97.6881 28.5627 97.6881 28.124C97.6881 27.7413 97.5715 27.4427 97.3381 27.228C97.1141 27.004 96.7408 26.8547 96.2181 26.78L95.6301 26.682C95.3035 26.6353 95.0048 26.5653 94.7341 26.472C94.4635 26.3787 94.2301 26.2527 94.0341 26.094C93.8475 25.9353 93.6981 25.744 93.5861 25.52C93.4835 25.2867 93.4321 25.0067 93.4321 24.68C93.4321 24.344 93.4928 24.05 93.6141 23.798C93.7448 23.546 93.9175 23.336 94.1321 23.168C94.3468 23 94.6035 22.874 94.9021 22.79C95.2008 22.706 95.5228 22.664 95.8681 22.664C96.4655 22.664 96.9555 22.7667 97.3381 22.972C97.7208 23.1773 98.0475 23.4433 98.3181 23.77L97.7861 24.26C97.5995 24.036 97.3475 23.8307 97.0301 23.644C96.7221 23.448 96.3208 23.35 95.8261 23.35C95.3128 23.35 94.9115 23.462 94.6221 23.686C94.3421 23.91 94.2021 24.2273 94.2021 24.638C94.2021 25.058 94.3281 25.3613 94.5801 25.548C94.8415 25.7347 95.2288 25.87 95.7421 25.954L96.3161 26.038C97.0441 26.15 97.5808 26.3693 97.9261 26.696C98.2808 27.0133 98.4581 27.4613 98.4581 28.04C98.4581 28.712 98.2295 29.2347 97.7721 29.608C97.3241 29.9813 96.7035 30.168 95.9101 30.168ZM108.789 30C108.481 30 108.257 29.9207 108.117 29.762C107.977 29.6033 107.897 29.3887 107.879 29.118V28.866H107.809C107.65 29.2673 107.389 29.5847 107.025 29.818C106.661 30.0513 106.199 30.168 105.639 30.168C104.883 30.168 104.299 29.986 103.889 29.622C103.478 29.2487 103.273 28.726 103.273 28.054C103.273 27.4193 103.497 26.9153 103.945 26.542C104.402 26.1687 105.149 25.982 106.185 25.982H107.837V25.142C107.837 23.9567 107.225 23.364 106.003 23.364C105.527 23.364 105.13 23.4667 104.813 23.672C104.495 23.868 104.239 24.1527 104.043 24.526L103.539 24.106C103.735 23.686 104.033 23.3407 104.435 23.07C104.845 22.7993 105.377 22.664 106.031 22.664C106.871 22.664 107.515 22.874 107.963 23.294C108.411 23.714 108.635 24.302 108.635 25.058V29.3H109.601V30H108.789ZM105.751 29.482C106.04 29.482 106.311 29.4447 106.563 29.37C106.815 29.2953 107.034 29.1927 107.221 29.062C107.417 28.922 107.566 28.7587 107.669 28.572C107.781 28.376 107.837 28.1567 107.837 27.914V26.584H106.157C105.438 26.584 104.915 26.7007 104.589 26.934C104.271 27.158 104.113 27.4707 104.113 27.872V28.208C104.113 28.628 104.262 28.9453 104.561 29.16C104.859 29.3747 105.256 29.482 105.751 29.482ZM111.243 30V22.832H112.041V24.12H112.097C112.237 23.784 112.475 23.4853 112.811 23.224C113.147 22.9627 113.623 22.832 114.239 22.832H114.715V23.616H114.085C113.488 23.616 112.998 23.7467 112.615 24.008C112.233 24.2693 112.041 24.6333 112.041 25.1V30H111.243ZM117.589 30C117.299 30 117.08 29.9207 116.931 29.762C116.781 29.6033 116.707 29.3887 116.707 29.118V23.532H115.461V22.832H116.273C116.469 22.832 116.599 22.7947 116.665 22.72C116.739 22.636 116.777 22.4913 116.777 22.286V20.83H117.505V22.832H119.129V23.532H117.505V29.3H119.017V30H117.589ZM121.438 20.886C121.251 20.886 121.111 20.8393 121.018 20.746C120.934 20.6527 120.892 20.5313 120.892 20.382V20.242C120.892 20.0927 120.934 19.9713 121.018 19.878C121.111 19.7847 121.251 19.738 121.438 19.738C121.625 19.738 121.76 19.7847 121.844 19.878C121.937 19.9713 121.984 20.0927 121.984 20.242V20.382C121.984 20.5313 121.937 20.6527 121.844 20.746C121.76 20.8393 121.625 20.886 121.438 20.886ZM121.046 22.832H121.844V30H121.046V22.832ZM126.97 30.168C125.981 30.168 125.216 29.8413 124.674 29.188C124.142 28.5347 123.876 27.6107 123.876 26.416C123.876 25.2213 124.142 24.2973 124.674 23.644C125.216 22.9907 125.981 22.664 126.97 22.664C127.633 22.664 128.17 22.8087 128.58 23.098C128.991 23.3873 129.304 23.77 129.518 24.246L128.846 24.582C128.678 24.19 128.44 23.8913 128.132 23.686C127.834 23.4807 127.446 23.378 126.97 23.378C126.242 23.378 125.687 23.6113 125.304 24.078C124.922 24.5447 124.73 25.156 124.73 25.912V26.92C124.73 27.676 124.922 28.2873 125.304 28.754C125.687 29.2207 126.242 29.454 126.97 29.454C127.465 29.454 127.88 29.3467 128.216 29.132C128.552 28.9173 128.823 28.6093 129.028 28.208L129.616 28.6C129.383 29.076 129.047 29.4587 128.608 29.748C128.179 30.028 127.633 30.168 126.97 30.168ZM132.278 30C131.988 30 131.769 29.9207 131.62 29.762C131.47 29.6033 131.396 29.3933 131.396 29.132V19.64H132.194V29.3H133.3V30H132.278ZM137.649 30.168C137.173 30.168 136.739 30.084 136.347 29.916C135.964 29.748 135.633 29.5053 135.353 29.188C135.082 28.8613 134.872 28.4647 134.723 27.998C134.583 27.5313 134.513 27.004 134.513 26.416C134.513 25.828 134.583 25.3053 134.723 24.848C134.872 24.3813 135.082 23.9893 135.353 23.672C135.633 23.3453 135.964 23.098 136.347 22.93C136.73 22.7527 137.159 22.664 137.635 22.664C138.092 22.664 138.508 22.7527 138.881 22.93C139.254 23.098 139.572 23.336 139.833 23.644C140.094 23.952 140.295 24.3253 140.435 24.764C140.584 25.1933 140.659 25.6693 140.659 26.192V26.57H135.353V26.92C135.353 27.2933 135.404 27.6387 135.507 27.956C135.619 28.264 135.773 28.53 135.969 28.754C136.174 28.978 136.422 29.1553 136.711 29.286C137 29.4073 137.327 29.468 137.691 29.468C138.736 29.468 139.46 28.9873 139.861 28.026L140.449 28.418C140.225 28.95 139.87 29.3747 139.385 29.692C138.909 30.0093 138.33 30.168 137.649 30.168ZM137.635 23.336C137.29 23.336 136.977 23.4013 136.697 23.532C136.417 23.6533 136.174 23.826 135.969 24.05C135.773 24.274 135.619 24.5447 135.507 24.862C135.404 25.17 135.353 25.5107 135.353 25.884V25.954H139.791V25.842C139.791 25.4687 139.74 25.128 139.637 24.82C139.534 24.5027 139.385 24.2367 139.189 24.022C139.002 23.8073 138.774 23.6393 138.503 23.518C138.242 23.3967 137.952 23.336 137.635 23.336ZM144.719 30.168C144.093 30.168 143.557 30.0513 143.109 29.818C142.67 29.5847 142.287 29.244 141.961 28.796L142.549 28.334C142.847 28.726 143.174 29.0153 143.529 29.202C143.883 29.3887 144.299 29.482 144.775 29.482C145.325 29.482 145.75 29.3653 146.049 29.132C146.347 28.8987 146.497 28.5627 146.497 28.124C146.497 27.7413 146.38 27.4427 146.147 27.228C145.923 27.004 145.549 26.8547 145.027 26.78L144.439 26.682C144.112 26.6353 143.813 26.5653 143.543 26.472C143.272 26.3787 143.039 26.2527 142.843 26.094C142.656 25.9353 142.507 25.744 142.395 25.52C142.292 25.2867 142.241 25.0067 142.241 24.68C142.241 24.344 142.301 24.05 142.423 23.798C142.553 23.546 142.726 23.336 142.941 23.168C143.155 23 143.412 22.874 143.711 22.79C144.009 22.706 144.331 22.664 144.677 22.664C145.274 22.664 145.764 22.7667 146.147 22.972C146.529 23.1773 146.856 23.4433 147.127 23.77L146.595 24.26C146.408 24.036 146.156 23.8307 145.839 23.644C145.531 23.448 145.129 23.35 144.635 23.35C144.121 23.35 143.72 23.462 143.431 23.686C143.151 23.91 143.011 24.2273 143.011 24.638C143.011 25.058 143.137 25.3613 143.389 25.548C143.65 25.7347 144.037 25.87 144.551 25.954L145.125 26.038C145.853 26.15 146.389 26.3693 146.735 26.696C147.089 27.0133 147.267 27.4613 147.267 28.04C147.267 28.712 147.038 29.2347 146.581 29.608C146.133 29.9813 145.512 30.168 144.719 30.168ZM152.669 30V22.832H153.467V24.12H153.523C153.663 23.784 153.901 23.4853 154.237 23.224C154.573 22.9627 155.049 22.832 155.665 22.832H156.141V23.616H155.511C154.914 23.616 154.424 23.7467 154.041 24.008C153.659 24.2693 153.467 24.6333 153.467 25.1V30H152.669ZM160.194 30.168C159.718 30.168 159.284 30.084 158.892 29.916C158.509 29.748 158.178 29.5053 157.898 29.188C157.627 28.8613 157.417 28.4647 157.268 27.998C157.128 27.5313 157.058 27.004 157.058 26.416C157.058 25.828 157.128 25.3053 157.268 24.848C157.417 24.3813 157.627 23.9893 157.898 23.672C158.178 23.3453 158.509 23.098 158.892 22.93C159.275 22.7527 159.704 22.664 160.18 22.664C160.637 22.664 161.053 22.7527 161.426 22.93C161.799 23.098 162.117 23.336 162.378 23.644C162.639 23.952 162.84 24.3253 162.98 24.764C163.129 25.1933 163.204 25.6693 163.204 26.192V26.57H157.898V26.92C157.898 27.2933 157.949 27.6387 158.052 27.956C158.164 28.264 158.318 28.53 158.514 28.754C158.719 28.978 158.967 29.1553 159.256 29.286C159.545 29.4073 159.872 29.468 160.236 29.468C161.281 29.468 162.005 28.9873 162.406 28.026L162.994 28.418C162.77 28.95 162.415 29.3747 161.93 29.692C161.454 30.0093 160.875 30.168 160.194 30.168ZM160.18 23.336C159.835 23.336 159.522 23.4013 159.242 23.532C158.962 23.6533 158.719 23.826 158.514 24.05C158.318 24.274 158.164 24.5447 158.052 24.862C157.949 25.17 157.898 25.5107 157.898 25.884V25.954H162.336V25.842C162.336 25.4687 162.285 25.128 162.182 24.82C162.079 24.5027 161.93 24.2367 161.734 24.022C161.547 23.8073 161.319 23.6393 161.048 23.518C160.787 23.3967 160.497 23.336 160.18 23.336ZM166.116 30C165.826 30 165.607 29.9207 165.458 29.762C165.308 29.6033 165.234 29.3933 165.234 29.132V19.64H166.032V29.3H167.138V30H166.116ZM171.487 30.168C171.011 30.168 170.577 30.084 170.185 29.916C169.802 29.748 169.471 29.5053 169.191 29.188C168.92 28.8613 168.71 28.4647 168.561 27.998C168.421 27.5313 168.351 27.004 168.351 26.416C168.351 25.828 168.421 25.3053 168.561 24.848C168.71 24.3813 168.92 23.9893 169.191 23.672C169.471 23.3453 169.802 23.098 170.185 22.93C170.568 22.7527 170.997 22.664 171.473 22.664C171.93 22.664 172.346 22.7527 172.719 22.93C173.092 23.098 173.41 23.336 173.671 23.644C173.932 23.952 174.133 24.3253 174.273 24.764C174.422 25.1933 174.497 25.6693 174.497 26.192V26.57H169.191V26.92C169.191 27.2933 169.242 27.6387 169.345 27.956C169.457 28.264 169.611 28.53 169.807 28.754C170.012 28.978 170.26 29.1553 170.549 29.286C170.838 29.4073 171.165 29.468 171.529 29.468C172.574 29.468 173.298 28.9873 173.699 28.026L174.287 28.418C174.063 28.95 173.708 29.3747 173.223 29.692C172.747 30.0093 172.168 30.168 171.487 30.168ZM171.473 23.336C171.128 23.336 170.815 23.4013 170.535 23.532C170.255 23.6533 170.012 23.826 169.807 24.05C169.611 24.274 169.457 24.5447 169.345 24.862C169.242 25.17 169.191 25.5107 169.191 25.884V25.954H173.629V25.842C173.629 25.4687 173.578 25.128 173.475 24.82C173.372 24.5027 173.223 24.2367 173.027 24.022C172.84 23.8073 172.612 23.6393 172.341 23.518C172.08 23.3967 171.79 23.336 171.473 23.336ZM175.45 22.832H176.29L178.488 29.146H178.544L180.728 22.832H181.54L178.95 30H178.04L175.45 22.832ZM187.921 30C187.613 30 187.389 29.9207 187.249 29.762C187.109 29.6033 187.03 29.3887 187.011 29.118V28.866H186.941C186.783 29.2673 186.521 29.5847 186.157 29.818C185.793 30.0513 185.331 30.168 184.771 30.168C184.015 30.168 183.432 29.986 183.021 29.622C182.611 29.2487 182.405 28.726 182.405 28.054C182.405 27.4193 182.629 26.9153 183.077 26.542C183.535 26.1687 184.281 25.982 185.317 25.982H186.969V25.142C186.969 23.9567 186.358 23.364 185.135 23.364C184.659 23.364 184.263 23.4667 183.945 23.672C183.628 23.868 183.371 24.1527 183.175 24.526L182.671 24.106C182.867 23.686 183.166 23.3407 183.567 23.07C183.978 22.7993 184.51 22.664 185.163 22.664C186.003 22.664 186.647 22.874 187.095 23.294C187.543 23.714 187.767 24.302 187.767 25.058V29.3H188.733V30H187.921ZM184.883 29.482C185.173 29.482 185.443 29.4447 185.695 29.37C185.947 29.2953 186.167 29.1927 186.353 29.062C186.549 28.922 186.699 28.7587 186.801 28.572C186.913 28.376 186.969 28.1567 186.969 27.914V26.584H185.289C184.571 26.584 184.048 26.7007 183.721 26.934C183.404 27.158 183.245 27.4707 183.245 27.872V28.208C183.245 28.628 183.395 28.9453 183.693 29.16C183.992 29.3747 184.389 29.482 184.883 29.482ZM190.376 30V22.832H191.174V23.966H191.216C191.375 23.5927 191.622 23.2847 191.958 23.042C192.294 22.79 192.752 22.664 193.33 22.664C194.096 22.664 194.688 22.902 195.108 23.378C195.538 23.8447 195.752 24.5167 195.752 25.394V30H194.954V25.534C194.954 24.806 194.796 24.2647 194.478 23.91C194.17 23.5553 193.718 23.378 193.12 23.378C192.868 23.378 192.626 23.4107 192.392 23.476C192.159 23.5413 191.949 23.6393 191.762 23.77C191.585 23.9007 191.44 24.0687 191.328 24.274C191.226 24.47 191.174 24.6987 191.174 24.96V30H190.376ZM199.497 30C199.208 30 198.988 29.9207 198.839 29.762C198.69 29.6033 198.615 29.3887 198.615 29.118V23.532H197.369V22.832H198.181C198.377 22.832 198.508 22.7947 198.573 22.72C198.648 22.636 198.685 22.4913 198.685 22.286V20.83H199.413V22.832H201.037V23.532H199.413V29.3H200.925V30H199.497ZM207.495 30C207.206 30 206.986 29.9207 206.837 29.762C206.688 29.6033 206.613 29.3887 206.613 29.118V23.532H205.367V22.832H206.179C206.375 22.832 206.506 22.7947 206.571 22.72C206.646 22.636 206.683 22.4913 206.683 22.286V20.83H207.411V22.832H209.035V23.532H207.411V29.3H208.923V30H207.495ZM213.446 30.168C212.97 30.168 212.54 30.084 212.158 29.916C211.775 29.748 211.448 29.5053 211.178 29.188C210.907 28.8613 210.697 28.4647 210.548 27.998C210.398 27.5313 210.324 27.004 210.324 26.416C210.324 25.828 210.398 25.3053 210.548 24.848C210.697 24.3813 210.907 23.9893 211.178 23.672C211.448 23.3453 211.775 23.098 212.158 22.93C212.54 22.7527 212.97 22.664 213.446 22.664C213.922 22.664 214.351 22.7527 214.734 22.93C215.116 23.098 215.443 23.3453 215.714 23.672C215.984 23.9893 216.194 24.3813 216.344 24.848C216.493 25.3053 216.568 25.828 216.568 26.416C216.568 27.004 216.493 27.5313 216.344 27.998C216.194 28.4647 215.984 28.8613 215.714 29.188C215.443 29.5053 215.116 29.748 214.734 29.916C214.351 30.084 213.922 30.168 213.446 30.168ZM213.446 29.454C214.146 29.454 214.696 29.2347 215.098 28.796C215.508 28.3573 215.714 27.7133 215.714 26.864V25.968C215.714 25.128 215.508 24.4887 215.098 24.05C214.696 23.602 214.146 23.378 213.446 23.378C212.746 23.378 212.19 23.5973 211.78 24.036C211.378 24.4747 211.178 25.1187 211.178 25.968V26.864C211.178 27.704 211.378 28.348 211.78 28.796C212.19 29.2347 212.746 29.454 213.446 29.454ZM221.904 30V22.832H222.702V24.12H222.758C222.898 23.784 223.136 23.4853 223.472 23.224C223.808 22.9627 224.284 22.832 224.9 22.832H225.376V23.616H224.746C224.148 23.616 223.658 23.7467 223.276 24.008C222.893 24.2693 222.702 24.6333 222.702 25.1V30H221.904ZM229.428 30.168C228.952 30.168 228.518 30.084 228.126 29.916C227.744 29.748 227.412 29.5053 227.132 29.188C226.862 28.8613 226.652 28.4647 226.502 27.998C226.362 27.5313 226.292 27.004 226.292 26.416C226.292 25.828 226.362 25.3053 226.502 24.848C226.652 24.3813 226.862 23.9893 227.132 23.672C227.412 23.3453 227.744 23.098 228.126 22.93C228.509 22.7527 228.938 22.664 229.414 22.664C229.872 22.664 230.287 22.7527 230.66 22.93C231.034 23.098 231.351 23.336 231.612 23.644C231.874 23.952 232.074 24.3253 232.214 24.764C232.364 25.1933 232.438 25.6693 232.438 26.192V26.57H227.132V26.92C227.132 27.2933 227.184 27.6387 227.286 27.956C227.398 28.264 227.552 28.53 227.748 28.754C227.954 28.978 228.201 29.1553 228.49 29.286C228.78 29.4073 229.106 29.468 229.47 29.468C230.516 29.468 231.239 28.9873 231.64 28.026L232.228 28.418C232.004 28.95 231.65 29.3747 231.164 29.692C230.688 30.0093 230.11 30.168 229.428 30.168ZM229.414 23.336C229.069 23.336 228.756 23.4013 228.476 23.532C228.196 23.6533 227.954 23.826 227.748 24.05C227.552 24.274 227.398 24.5447 227.286 24.862C227.184 25.17 227.132 25.5107 227.132 25.884V25.954H231.57V25.842C231.57 25.4687 231.519 25.128 231.416 24.82C231.314 24.5027 231.164 24.2367 230.968 24.022C230.782 23.8073 230.553 23.6393 230.282 23.518C230.021 23.3967 229.732 23.336 229.414 23.336ZM236.498 30.168C235.873 30.168 235.336 30.0513 234.888 29.818C234.449 29.5847 234.067 29.244 233.74 28.796L234.328 28.334C234.627 28.726 234.953 29.0153 235.308 29.202C235.663 29.3887 236.078 29.482 236.554 29.482C237.105 29.482 237.529 29.3653 237.828 29.132C238.127 28.8987 238.276 28.5627 238.276 28.124C238.276 27.7413 238.159 27.4427 237.926 27.228C237.702 27.004 237.329 26.8547 236.806 26.78L236.218 26.682C235.891 26.6353 235.593 26.5653 235.322 26.472C235.051 26.3787 234.818 26.2527 234.622 26.094C234.435 25.9353 234.286 25.744 234.174 25.52C234.071 25.2867 234.02 25.0067 234.02 24.68C234.02 24.344 234.081 24.05 234.202 23.798C234.333 23.546 234.505 23.336 234.72 23.168C234.935 23 235.191 22.874 235.49 22.79C235.789 22.706 236.111 22.664 236.456 22.664C237.053 22.664 237.543 22.7667 237.926 22.972C238.309 23.1773 238.635 23.4433 238.906 23.77L238.374 24.26C238.187 24.036 237.935 23.8307 237.618 23.644C237.31 23.448 236.909 23.35 236.414 23.35C235.901 23.35 235.499 23.462 235.21 23.686C234.93 23.91 234.79 24.2273 234.79 24.638C234.79 25.058 234.916 25.3613 235.168 25.548C235.429 25.7347 235.817 25.87 236.33 25.954L236.904 26.038C237.632 26.15 238.169 26.3693 238.514 26.696C238.869 27.0133 239.046 27.4613 239.046 28.04C239.046 28.712 238.817 29.2347 238.36 29.608C237.912 29.9813 237.291 30.168 236.498 30.168ZM242.317 30C242.028 30 241.809 29.9207 241.659 29.762C241.51 29.6033 241.435 29.3887 241.435 29.118V23.532H240.189V22.832H241.001C241.197 22.832 241.328 22.7947 241.393 22.72C241.468 22.636 241.505 22.4913 241.505 22.286V20.83H242.233V22.832H243.857V23.532H242.233V29.3H243.745V30H242.317ZM250.703 30C250.395 30 250.171 29.9207 250.031 29.762C249.891 29.6033 249.811 29.3887 249.793 29.118V28.866H249.723C249.564 29.2673 249.303 29.5847 248.939 29.818C248.575 30.0513 248.113 30.168 247.553 30.168C246.797 30.168 246.213 29.986 245.803 29.622C245.392 29.2487 245.187 28.726 245.187 28.054C245.187 27.4193 245.411 26.9153 245.859 26.542C246.316 26.1687 247.063 25.982 248.099 25.982H249.751V25.142C249.751 23.9567 249.139 23.364 247.917 23.364C247.441 23.364 247.044 23.4667 246.727 23.672C246.409 23.868 246.153 24.1527 245.957 24.526L245.453 24.106C245.649 23.686 245.947 23.3407 246.349 23.07C246.759 22.7993 247.291 22.664 247.945 22.664C248.785 22.664 249.429 22.874 249.877 23.294C250.325 23.714 250.549 24.302 250.549 25.058V29.3H251.515V30H250.703ZM247.665 29.482C247.954 29.482 248.225 29.4447 248.477 29.37C248.729 29.2953 248.948 29.1927 249.135 29.062C249.331 28.922 249.48 28.7587 249.583 28.572C249.695 28.376 249.751 28.1567 249.751 27.914V26.584H248.071C247.352 26.584 246.829 26.7007 246.503 26.934C246.185 27.158 246.027 27.4707 246.027 27.872V28.208C246.027 28.628 246.176 28.9453 246.475 29.16C246.773 29.3747 247.17 29.482 247.665 29.482ZM257.637 28.866H257.581C257.516 29.034 257.427 29.1973 257.315 29.356C257.203 29.5147 257.063 29.6547 256.895 29.776C256.727 29.888 256.527 29.9813 256.293 30.056C256.069 30.1307 255.803 30.168 255.495 30.168C254.73 30.168 254.133 29.9347 253.703 29.468C253.274 28.992 253.059 28.3153 253.059 27.438V22.832H253.857V27.284C253.857 28.0213 254.016 28.5673 254.333 28.922C254.651 29.2767 255.108 29.454 255.705 29.454C255.957 29.454 256.195 29.4213 256.419 29.356C256.653 29.2907 256.858 29.1927 257.035 29.062C257.222 28.9313 257.367 28.768 257.469 28.572C257.581 28.3667 257.637 28.1287 257.637 27.858V22.832H258.435V30H257.637V28.866ZM261.046 30V22.832H261.844V24.12H261.9C262.04 23.784 262.278 23.4853 262.614 23.224C262.95 22.9627 263.426 22.832 264.042 22.832H264.518V23.616H263.888C263.291 23.616 262.801 23.7467 262.418 24.008C262.035 24.2693 261.844 24.6333 261.844 25.1V30H261.046ZM270.951 30C270.643 30 270.419 29.9207 270.279 29.762C270.139 29.6033 270.059 29.3887 270.041 29.118V28.866H269.971C269.812 29.2673 269.551 29.5847 269.187 29.818C268.823 30.0513 268.361 30.168 267.801 30.168C267.045 30.168 266.461 29.986 266.051 29.622C265.64 29.2487 265.435 28.726 265.435 28.054C265.435 27.4193 265.659 26.9153 266.107 26.542C266.564 26.1687 267.311 25.982 268.347 25.982H269.999V25.142C269.999 23.9567 269.387 23.364 268.165 23.364C267.689 23.364 267.292 23.4667 266.975 23.672C266.657 23.868 266.401 24.1527 266.205 24.526L265.701 24.106C265.897 23.686 266.195 23.3407 266.597 23.07C267.007 22.7993 267.539 22.664 268.193 22.664C269.033 22.664 269.677 22.874 270.125 23.294C270.573 23.714 270.797 24.302 270.797 25.058V29.3H271.763V30H270.951ZM267.913 29.482C268.202 29.482 268.473 29.4447 268.725 29.37C268.977 29.2953 269.196 29.1927 269.383 29.062C269.579 28.922 269.728 28.7587 269.831 28.572C269.943 28.376 269.999 28.1567 269.999 27.914V26.584H268.319C267.6 26.584 267.077 26.7007 266.751 26.934C266.433 27.158 266.275 27.4707 266.275 27.872V28.208C266.275 28.628 266.424 28.9453 266.723 29.16C267.021 29.3747 267.418 29.482 267.913 29.482ZM273.406 30V22.832H274.204V23.966H274.246C274.404 23.5927 274.652 23.2847 274.988 23.042C275.324 22.79 275.781 22.664 276.36 22.664C277.125 22.664 277.718 22.902 278.138 23.378C278.567 23.8447 278.782 24.5167 278.782 25.394V30H277.984V25.534C277.984 24.806 277.825 24.2647 277.508 23.91C277.2 23.5553 276.747 23.378 276.15 23.378C275.898 23.378 275.655 23.4107 275.422 23.476C275.188 23.5413 274.978 23.6393 274.792 23.77C274.614 23.9007 274.47 24.0687 274.358 24.274C274.255 24.47 274.204 24.6987 274.204 24.96V30H273.406ZM282.526 30C282.237 30 282.018 29.9207 281.868 29.762C281.719 29.6033 281.644 29.3887 281.644 29.118V23.532H280.398V22.832H281.21C281.406 22.832 281.537 22.7947 281.602 22.72C281.677 22.636 281.714 22.4913 281.714 22.286V20.83H282.442V22.832H284.066V23.532H282.442V29.3H283.954V30H282.526ZM23.23 52C22.922 52 22.698 51.9207 22.558 51.762C22.418 51.6033 22.3387 51.3887 22.32 51.118V50.866H22.25C22.0913 51.2673 21.83 51.5847 21.466 51.818C21.102 52.0513 20.64 52.168 20.08 52.168C19.324 52.168 18.7407 51.986 18.33 51.622C17.9193 51.2487 17.714 50.726 17.714 50.054C17.714 49.4193 17.938 48.9153 18.386 48.542C18.8433 48.1687 19.59 47.982 20.626 47.982H22.278V47.142C22.278 45.9567 21.6667 45.364 20.444 45.364C19.968 45.364 19.5713 45.4667 19.254 45.672C18.9367 45.868 18.68 46.1527 18.484 46.526L17.98 46.106C18.176 45.686 18.4747 45.3407 18.876 45.07C19.2867 44.7993 19.8187 44.664 20.472 44.664C21.312 44.664 21.956 44.874 22.404 45.294C22.852 45.714 23.076 46.302 23.076 47.058V51.3H24.042V52H23.23ZM20.192 51.482C20.4813 51.482 20.752 51.4447 21.004 51.37C21.256 51.2953 21.4753 51.1927 21.662 51.062C21.858 50.922 22.0073 50.7587 22.11 50.572C22.222 50.376 22.278 50.1567 22.278 49.914V48.584H20.598C19.8793 48.584 19.3567 48.7007 19.03 48.934C18.7127 49.158 18.554 49.4707 18.554 49.872V50.208C18.554 50.628 18.7033 50.9453 19.002 51.16C19.3007 51.3747 19.6973 51.482 20.192 51.482ZM25.6848 52V44.832H26.4828V45.966H26.5248C26.6835 45.5927 26.9308 45.2847 27.2668 45.042C27.6028 44.79 28.0601 44.664 28.6388 44.664C29.4041 44.664 29.9968 44.902 30.4168 45.378C30.8461 45.8447 31.0608 46.5167 31.0608 47.394V52H30.2628V47.534C30.2628 46.806 30.1041 46.2647 29.7868 45.91C29.4788 45.5553 29.0261 45.378 28.4288 45.378C28.1768 45.378 27.9341 45.4107 27.7008 45.476C27.4675 45.5413 27.2575 45.6393 27.0708 45.77C26.8935 45.9007 26.7488 46.0687 26.6368 46.274C26.5341 46.47 26.4828 46.6987 26.4828 46.96V52H25.6848ZM38.2075 50.852H38.1655C37.9788 51.2533 37.7035 51.5753 37.3395 51.818C36.9848 52.0513 36.5322 52.168 35.9815 52.168C35.0575 52.168 34.3342 51.8413 33.8115 51.188C33.2888 50.5347 33.0275 49.6107 33.0275 48.416C33.0275 47.2213 33.2888 46.2973 33.8115 45.644C34.3342 44.9907 35.0575 44.664 35.9815 44.664C36.5322 44.664 36.9895 44.7853 37.3535 45.028C37.7175 45.2613 37.9882 45.5787 38.1655 45.98H38.2075V41.64H39.0055V52H38.2075V50.852ZM36.1635 51.454C36.4435 51.454 36.7048 51.4167 36.9475 51.342C37.1995 51.2673 37.4188 51.16 37.6055 51.02C37.7922 50.8707 37.9368 50.698 38.0395 50.502C38.1515 50.2967 38.2075 50.068 38.2075 49.816V46.974C38.2075 46.7407 38.1515 46.526 38.0395 46.33C37.9368 46.134 37.7922 45.966 37.6055 45.826C37.4188 45.686 37.1995 45.5787 36.9475 45.504C36.7048 45.42 36.4435 45.378 36.1635 45.378C35.4448 45.378 34.8848 45.6067 34.4835 46.064C34.0822 46.5213 33.8815 47.1373 33.8815 47.912V48.92C33.8815 49.6947 34.0822 50.3107 34.4835 50.768C34.8848 51.2253 35.4448 51.454 36.1635 51.454ZM46.9511 52.168C46.3258 52.168 45.7891 52.0513 45.3411 51.818C44.9025 51.5847 44.5198 51.244 44.1931 50.796L44.7811 50.334C45.0798 50.726 45.4065 51.0153 45.7611 51.202C46.1158 51.3887 46.5311 51.482 47.0071 51.482C47.5578 51.482 47.9825 51.3653 48.2811 51.132C48.5798 50.8987 48.7291 50.5627 48.7291 50.124C48.7291 49.7413 48.6125 49.4427 48.3791 49.228C48.1551 49.004 47.7818 48.8547 47.2591 48.78L46.6711 48.682C46.3445 48.6353 46.0458 48.5653 45.7751 48.472C45.5045 48.3787 45.2711 48.2527 45.0751 48.094C44.8885 47.9353 44.7391 47.744 44.6271 47.52C44.5245 47.2867 44.4731 47.0067 44.4731 46.68C44.4731 46.344 44.5338 46.05 44.6551 45.798C44.7858 45.546 44.9585 45.336 45.1731 45.168C45.3878 45 45.6445 44.874 45.9431 44.79C46.2418 44.706 46.5638 44.664 46.9091 44.664C47.5065 44.664 47.9965 44.7667 48.3791 44.972C48.7618 45.1773 49.0885 45.4433 49.3591 45.77L48.8271 46.26C48.6405 46.036 48.3885 45.8307 48.0711 45.644C47.7631 45.448 47.3618 45.35 46.8671 45.35C46.3538 45.35 45.9525 45.462 45.6631 45.686C45.3831 45.91 45.2431 46.2273 45.2431 46.638C45.2431 47.058 45.3691 47.3613 45.6211 47.548C45.8825 47.7347 46.2698 47.87 46.7831 47.954L47.3571 48.038C48.0851 48.15 48.6218 48.3693 48.9671 48.696C49.3218 49.0133 49.4991 49.4613 49.4991 50.04C49.4991 50.712 49.2705 51.2347 48.8131 51.608C48.3651 51.9813 47.7445 52.168 46.9511 52.168ZM54.155 52.168C53.679 52.168 53.245 52.084 52.853 51.916C52.4703 51.748 52.139 51.5053 51.859 51.188C51.5883 50.8613 51.3783 50.4647 51.229 49.998C51.089 49.5313 51.019 49.004 51.019 48.416C51.019 47.828 51.089 47.3053 51.229 46.848C51.3783 46.3813 51.5883 45.9893 51.859 45.672C52.139 45.3453 52.4703 45.098 52.853 44.93C53.2357 44.7527 53.665 44.664 54.141 44.664C54.5983 44.664 55.0137 44.7527 55.387 44.93C55.7603 45.098 56.0777 45.336 56.339 45.644C56.6003 45.952 56.801 46.3253 56.941 46.764C57.0903 47.1933 57.165 47.6693 57.165 48.192V48.57H51.859V48.92C51.859 49.2933 51.9103 49.6387 52.013 49.956C52.125 50.264 52.279 50.53 52.475 50.754C52.6803 50.978 52.9277 51.1553 53.217 51.286C53.5063 51.4073 53.833 51.468 54.197 51.468C55.2423 51.468 55.9657 50.9873 56.367 50.026L56.955 50.418C56.731 50.95 56.3763 51.3747 55.891 51.692C55.415 52.0093 54.8363 52.168 54.155 52.168ZM54.141 45.336C53.7957 45.336 53.483 45.4013 53.203 45.532C52.923 45.6533 52.6803 45.826 52.475 46.05C52.279 46.274 52.125 46.5447 52.013 46.862C51.9103 47.17 51.859 47.5107 51.859 47.884V47.954H56.297V47.842C56.297 47.4687 56.2457 47.128 56.143 46.82C56.0403 46.5027 55.891 46.2367 55.695 46.022C55.5083 45.8073 55.2797 45.6393 55.009 45.518C54.7477 45.3967 54.4583 45.336 54.141 45.336ZM61.7566 52.168C61.2806 52.168 60.8466 52.084 60.4546 51.916C60.0719 51.748 59.7406 51.5053 59.4606 51.188C59.1899 50.8613 58.9799 50.4647 58.8306 49.998C58.6906 49.5313 58.6206 49.004 58.6206 48.416C58.6206 47.828 58.6906 47.3053 58.8306 46.848C58.9799 46.3813 59.1899 45.9893 59.4606 45.672C59.7406 45.3453 60.0719 45.098 60.4546 44.93C60.8372 44.7527 61.2666 44.664 61.7426 44.664C62.1999 44.664 62.6152 44.7527 62.9886 44.93C63.3619 45.098 63.6792 45.336 63.9406 45.644C64.2019 45.952 64.4026 46.3253 64.5426 46.764C64.6919 47.1933 64.7666 47.6693 64.7666 48.192V48.57H59.4606V48.92C59.4606 49.2933 59.5119 49.6387 59.6146 49.956C59.7266 50.264 59.8806 50.53 60.0766 50.754C60.2819 50.978 60.5292 51.1553 60.8186 51.286C61.1079 51.4073 61.4346 51.468 61.7986 51.468C62.8439 51.468 63.5672 50.9873 63.9686 50.026L64.5566 50.418C64.3326 50.95 63.9779 51.3747 63.4926 51.692C63.0166 52.0093 62.4379 52.168 61.7566 52.168ZM61.7426 45.336C61.3972 45.336 61.0846 45.4013 60.8046 45.532C60.5246 45.6533 60.2819 45.826 60.0766 46.05C59.8806 46.274 59.7266 46.5447 59.6146 46.862C59.5119 47.17 59.4606 47.5107 59.4606 47.884V47.954H63.8986V47.842C63.8986 47.4687 63.8472 47.128 63.7446 46.82C63.6419 46.5027 63.4926 46.2367 63.2966 46.022C63.1099 45.8073 62.8812 45.6393 62.6106 45.518C62.3492 45.3967 62.0599 45.336 61.7426 45.336ZM71.3367 52C71.0474 52 70.8281 51.9207 70.6787 51.762C70.5294 51.6033 70.4547 51.3887 70.4547 51.118V45.532H69.2087V44.832H70.0207C70.2167 44.832 70.3474 44.7947 70.4127 44.72C70.4874 44.636 70.5247 44.4913 70.5247 44.286V42.83H71.2527V44.832H72.8767V45.532H71.2527V51.3H72.7647V52H71.3367ZM77.2875 52.168C76.8115 52.168 76.3822 52.084 75.9995 51.916C75.6168 51.748 75.2902 51.5053 75.0195 51.188C74.7488 50.8613 74.5388 50.4647 74.3895 49.998C74.2402 49.5313 74.1655 49.004 74.1655 48.416C74.1655 47.828 74.2402 47.3053 74.3895 46.848C74.5388 46.3813 74.7488 45.9893 75.0195 45.672C75.2902 45.3453 75.6168 45.098 75.9995 44.93C76.3822 44.7527 76.8115 44.664 77.2875 44.664C77.7635 44.664 78.1928 44.7527 78.5755 44.93C78.9582 45.098 79.2848 45.3453 79.5555 45.672C79.8262 45.9893 80.0362 46.3813 80.1855 46.848C80.3348 47.3053 80.4095 47.828 80.4095 48.416C80.4095 49.004 80.3348 49.5313 80.1855 49.998C80.0362 50.4647 79.8262 50.8613 79.5555 51.188C79.2848 51.5053 78.9582 51.748 78.5755 51.916C78.1928 52.084 77.7635 52.168 77.2875 52.168ZM77.2875 51.454C77.9875 51.454 78.5382 51.2347 78.9395 50.796C79.3502 50.3573 79.5555 49.7133 79.5555 48.864V47.968C79.5555 47.128 79.3502 46.4887 78.9395 46.05C78.5382 45.602 77.9875 45.378 77.2875 45.378C76.5875 45.378 76.0322 45.5973 75.6215 46.036C75.2202 46.4747 75.0195 47.1187 75.0195 47.968V48.864C75.0195 49.704 75.2202 50.348 75.6215 50.796C76.0322 51.2347 76.5875 51.454 77.2875 51.454ZM83.6688 52C83.3794 52 83.1601 51.9207 83.0108 51.762C82.8614 51.6033 82.7868 51.3887 82.7868 51.118V45.532H81.5408V44.832H82.3528C82.5488 44.832 82.6794 44.7947 82.7448 44.72C82.8194 44.636 82.8568 44.4913 82.8568 44.286V42.83H83.5848V44.832H85.2088V45.532H83.5848V51.3H85.0968V52H83.6688ZM92.0542 52C91.7462 52 91.5222 51.9207 91.3822 51.762C91.2422 51.6033 91.1629 51.3887 91.1442 51.118V50.866H91.0742C90.9156 51.2673 90.6542 51.5847 90.2902 51.818C89.9262 52.0513 89.4642 52.168 88.9042 52.168C88.1482 52.168 87.5649 51.986 87.1542 51.622C86.7436 51.2487 86.5382 50.726 86.5382 50.054C86.5382 49.4193 86.7622 48.9153 87.2102 48.542C87.6676 48.1687 88.4142 47.982 89.4502 47.982H91.1022V47.142C91.1022 45.9567 90.4909 45.364 89.2682 45.364C88.7922 45.364 88.3956 45.4667 88.0782 45.672C87.7609 45.868 87.5042 46.1527 87.3082 46.526L86.8042 46.106C87.0002 45.686 87.2989 45.3407 87.7002 45.07C88.1109 44.7993 88.6429 44.664 89.2962 44.664C90.1362 44.664 90.7802 44.874 91.2282 45.294C91.6762 45.714 91.9002 46.302 91.9002 47.058V51.3H92.8662V52H92.0542ZM89.0162 51.482C89.3056 51.482 89.5762 51.4447 89.8282 51.37C90.0802 51.2953 90.2996 51.1927 90.4862 51.062C90.6822 50.922 90.8316 50.7587 90.9342 50.572C91.0462 50.376 91.1022 50.1567 91.1022 49.914V48.584H89.4222C88.7036 48.584 88.1809 48.7007 87.8542 48.934C87.5369 49.158 87.3782 49.4707 87.3782 49.872V50.208C87.3782 50.628 87.5276 50.9453 87.8262 51.16C88.1249 51.3747 88.5216 51.482 89.0162 51.482ZM95.391 52C95.1017 52 94.8824 51.9207 94.733 51.762C94.5837 51.6033 94.509 51.3933 94.509 51.132V41.64H95.307V51.3H96.413V52H95.391ZM103.539 52.168C102.914 52.168 102.377 52.0513 101.929 51.818C101.49 51.5847 101.108 51.244 100.781 50.796L101.369 50.334C101.668 50.726 101.994 51.0153 102.349 51.202C102.704 51.3887 103.119 51.482 103.595 51.482C104.146 51.482 104.57 51.3653 104.869 51.132C105.168 50.8987 105.317 50.5627 105.317 50.124C105.317 49.7413 105.2 49.4427 104.967 49.228C104.743 49.004 104.37 48.8547 103.847 48.78L103.259 48.682C102.932 48.6353 102.634 48.5653 102.363 48.472C102.092 48.3787 101.859 48.2527 101.663 48.094C101.476 47.9353 101.327 47.744 101.215 47.52C101.112 47.2867 101.061 47.0067 101.061 46.68C101.061 46.344 101.122 46.05 101.243 45.798C101.374 45.546 101.546 45.336 101.761 45.168C101.976 45 102.232 44.874 102.531 44.79C102.83 44.706 103.152 44.664 103.497 44.664C104.094 44.664 104.584 44.7667 104.967 44.972C105.35 45.1773 105.676 45.4433 105.947 45.77L105.415 46.26C105.228 46.036 104.976 45.8307 104.659 45.644C104.351 45.448 103.95 45.35 103.455 45.35C102.942 45.35 102.54 45.462 102.251 45.686C101.971 45.91 101.831 46.2273 101.831 46.638C101.831 47.058 101.957 47.3613 102.209 47.548C102.47 47.7347 102.858 47.87 103.371 47.954L103.945 48.038C104.673 48.15 105.21 48.3693 105.555 48.696C105.91 49.0133 106.087 49.4613 106.087 50.04C106.087 50.712 105.858 51.2347 105.401 51.608C104.953 51.9813 104.332 52.168 103.539 52.168ZM113.109 52C112.801 52 112.577 51.9207 112.437 51.762C112.297 51.6033 112.218 51.3887 112.199 51.118V50.866H112.129C111.97 51.2673 111.709 51.5847 111.345 51.818C110.981 52.0513 110.519 52.168 109.959 52.168C109.203 52.168 108.62 51.986 108.209 51.622C107.798 51.2487 107.593 50.726 107.593 50.054C107.593 49.4193 107.817 48.9153 108.265 48.542C108.722 48.1687 109.469 47.982 110.505 47.982H112.157V47.142C112.157 45.9567 111.546 45.364 110.323 45.364C109.847 45.364 109.45 45.4667 109.133 45.672C108.816 45.868 108.559 46.1527 108.363 46.526L107.859 46.106C108.055 45.686 108.354 45.3407 108.755 45.07C109.166 44.7993 109.698 44.664 110.351 44.664C111.191 44.664 111.835 44.874 112.283 45.294C112.731 45.714 112.955 46.302 112.955 47.058V51.3H113.921V52H113.109ZM110.071 51.482C110.36 51.482 110.631 51.4447 110.883 51.37C111.135 51.2953 111.354 51.1927 111.541 51.062C111.737 50.922 111.886 50.7587 111.989 50.572C112.101 50.376 112.157 50.1567 112.157 49.914V48.584H110.477C109.758 48.584 109.236 48.7007 108.909 48.934C108.592 49.158 108.433 49.4707 108.433 49.872V50.208C108.433 50.628 108.582 50.9453 108.881 51.16C109.18 51.3747 109.576 51.482 110.071 51.482ZM116.446 52C116.156 52 115.937 51.9207 115.788 51.762C115.638 51.6033 115.564 51.3933 115.564 51.132V41.64H116.362V51.3H117.468V52H116.446ZM121.817 52.168C121.341 52.168 120.907 52.084 120.515 51.916C120.132 51.748 119.801 51.5053 119.521 51.188C119.25 50.8613 119.04 50.4647 118.891 49.998C118.751 49.5313 118.681 49.004 118.681 48.416C118.681 47.828 118.751 47.3053 118.891 46.848C119.04 46.3813 119.25 45.9893 119.521 45.672C119.801 45.3453 120.132 45.098 120.515 44.93C120.898 44.7527 121.327 44.664 121.803 44.664C122.26 44.664 122.676 44.7527 123.049 44.93C123.422 45.098 123.74 45.336 124.001 45.644C124.262 45.952 124.463 46.3253 124.603 46.764C124.752 47.1933 124.827 47.6693 124.827 48.192V48.57H119.521V48.92C119.521 49.2933 119.572 49.6387 119.675 49.956C119.787 50.264 119.941 50.53 120.137 50.754C120.342 50.978 120.59 51.1553 120.879 51.286C121.168 51.4073 121.495 51.468 121.859 51.468C122.904 51.468 123.628 50.9873 124.029 50.026L124.617 50.418C124.393 50.95 124.038 51.3747 123.553 51.692C123.077 52.0093 122.498 52.168 121.817 52.168ZM121.803 45.336C121.458 45.336 121.145 45.4013 120.865 45.532C120.585 45.6533 120.342 45.826 120.137 46.05C119.941 46.274 119.787 46.5447 119.675 46.862C119.572 47.17 119.521 47.5107 119.521 47.884V47.954H123.959V47.842C123.959 47.4687 123.908 47.128 123.805 46.82C123.702 46.5027 123.553 46.2367 123.357 46.022C123.17 45.8073 122.942 45.6393 122.671 45.518C122.41 45.3967 122.12 45.336 121.803 45.336ZM128.887 52.168C128.261 52.168 127.725 52.0513 127.277 51.818C126.838 51.5847 126.455 51.244 126.129 50.796L126.717 50.334C127.015 50.726 127.342 51.0153 127.697 51.202C128.051 51.3887 128.467 51.482 128.943 51.482C129.493 51.482 129.918 51.3653 130.217 51.132C130.515 50.8987 130.665 50.5627 130.665 50.124C130.665 49.7413 130.548 49.4427 130.315 49.228C130.091 49.004 129.717 48.8547 129.195 48.78L128.607 48.682C128.28 48.6353 127.981 48.5653 127.711 48.472C127.44 48.3787 127.207 48.2527 127.011 48.094C126.824 47.9353 126.675 47.744 126.563 47.52C126.46 47.2867 126.409 47.0067 126.409 46.68C126.409 46.344 126.469 46.05 126.591 45.798C126.721 45.546 126.894 45.336 127.109 45.168C127.323 45 127.58 44.874 127.879 44.79C128.177 44.706 128.499 44.664 128.845 44.664C129.442 44.664 129.932 44.7667 130.315 44.972C130.697 45.1773 131.024 45.4433 131.295 45.77L130.763 46.26C130.576 46.036 130.324 45.8307 130.007 45.644C129.699 45.448 129.297 45.35 128.803 45.35C128.289 45.35 127.888 45.462 127.599 45.686C127.319 45.91 127.179 46.2273 127.179 46.638C127.179 47.058 127.305 47.3613 127.557 47.548C127.818 47.7347 128.205 47.87 128.719 47.954L129.293 48.038C130.021 48.15 130.557 48.3693 130.903 48.696C131.257 49.0133 131.435 49.4613 131.435 50.04C131.435 50.712 131.206 51.2347 130.749 51.608C130.301 51.9813 129.68 52.168 128.887 52.168ZM137.173 45.532H135.941V44.832H137.173V42.83C137.173 42.466 137.262 42.1767 137.439 41.962C137.626 41.7473 137.91 41.64 138.293 41.64H139.553V42.34H137.971V44.832H139.553V45.532H137.971V52H137.173V45.532ZM145.637 50.866H145.581C145.516 51.034 145.427 51.1973 145.315 51.356C145.203 51.5147 145.063 51.6547 144.895 51.776C144.727 51.888 144.527 51.9813 144.293 52.056C144.069 52.1307 143.803 52.168 143.495 52.168C142.73 52.168 142.133 51.9347 141.703 51.468C141.274 50.992 141.059 50.3153 141.059 49.438V44.832H141.857V49.284C141.857 50.0213 142.016 50.5673 142.333 50.922C142.651 51.2767 143.108 51.454 143.705 51.454C143.957 51.454 144.195 51.4213 144.419 51.356C144.653 51.2907 144.858 51.1927 145.035 51.062C145.222 50.9313 145.367 50.768 145.469 50.572C145.581 50.3667 145.637 50.1287 145.637 49.858V44.832H146.435V52H145.637V50.866ZM149.928 52C149.639 52 149.419 51.9207 149.27 51.762C149.121 51.6033 149.046 51.3933 149.046 51.132V41.64H149.844V51.3H150.95V52H149.928ZM153.524 52C153.235 52 153.015 51.9207 152.866 51.762C152.717 51.6033 152.642 51.3933 152.642 51.132V41.64H153.44V51.3H154.546V52H153.524ZM162.19 52.168C161.714 52.168 161.285 52.084 160.902 51.916C160.519 51.748 160.193 51.5053 159.922 51.188C159.651 50.8613 159.441 50.4647 159.292 49.998C159.143 49.5313 159.068 49.004 159.068 48.416C159.068 47.828 159.143 47.3053 159.292 46.848C159.441 46.3813 159.651 45.9893 159.922 45.672C160.193 45.3453 160.519 45.098 160.902 44.93C161.285 44.7527 161.714 44.664 162.19 44.664C162.666 44.664 163.095 44.7527 163.478 44.93C163.861 45.098 164.187 45.3453 164.458 45.672C164.729 45.9893 164.939 46.3813 165.088 46.848C165.237 47.3053 165.312 47.828 165.312 48.416C165.312 49.004 165.237 49.5313 165.088 49.998C164.939 50.4647 164.729 50.8613 164.458 51.188C164.187 51.5053 163.861 51.748 163.478 51.916C163.095 52.084 162.666 52.168 162.19 52.168ZM162.19 51.454C162.89 51.454 163.441 51.2347 163.842 50.796C164.253 50.3573 164.458 49.7133 164.458 48.864V47.968C164.458 47.128 164.253 46.4887 163.842 46.05C163.441 45.602 162.89 45.378 162.19 45.378C161.49 45.378 160.935 45.5973 160.524 46.036C160.123 46.4747 159.922 47.1187 159.922 47.968V48.864C159.922 49.704 160.123 50.348 160.524 50.796C160.935 51.2347 161.49 51.454 162.19 51.454ZM167.62 45.532H166.388V44.832H167.62V42.83C167.62 42.466 167.709 42.1767 167.886 41.962C168.073 41.7473 168.358 41.64 168.74 41.64H170V42.34H168.418V44.832H170V45.532H168.418V52H167.62V45.532ZM176.943 52.168C176.318 52.168 175.781 52.0513 175.333 51.818C174.895 51.5847 174.512 51.244 174.185 50.796L174.773 50.334C175.072 50.726 175.399 51.0153 175.753 51.202C176.108 51.3887 176.523 51.482 176.999 51.482C177.55 51.482 177.975 51.3653 178.273 51.132C178.572 50.8987 178.721 50.5627 178.721 50.124C178.721 49.7413 178.605 49.4427 178.371 49.228C178.147 49.004 177.774 48.8547 177.251 48.78L176.663 48.682C176.337 48.6353 176.038 48.5653 175.767 48.472C175.497 48.3787 175.263 48.2527 175.067 48.094C174.881 47.9353 174.731 47.744 174.619 47.52C174.517 47.2867 174.465 47.0067 174.465 46.68C174.465 46.344 174.526 46.05 174.647 45.798C174.778 45.546 174.951 45.336 175.165 45.168C175.38 45 175.637 44.874 175.935 44.79C176.234 44.706 176.556 44.664 176.901 44.664C177.499 44.664 177.989 44.7667 178.371 44.972C178.754 45.1773 179.081 45.4433 179.351 45.77L178.819 46.26C178.633 46.036 178.381 45.8307 178.063 45.644C177.755 45.448 177.354 45.35 176.859 45.35C176.346 45.35 175.945 45.462 175.655 45.686C175.375 45.91 175.235 46.2273 175.235 46.638C175.235 47.058 175.361 47.3613 175.613 47.548C175.875 47.7347 176.262 47.87 176.775 47.954L177.349 48.038C178.077 48.15 178.614 48.3693 178.959 48.696C179.314 49.0133 179.491 49.4613 179.491 50.04C179.491 50.712 179.263 51.2347 178.805 51.608C178.357 51.9813 177.737 52.168 176.943 52.168ZM186.513 52C186.205 52 185.981 51.9207 185.841 51.762C185.701 51.6033 185.622 51.3887 185.603 51.118V50.866H185.533C185.375 51.2673 185.113 51.5847 184.749 51.818C184.385 52.0513 183.923 52.168 183.363 52.168C182.607 52.168 182.024 51.986 181.613 51.622C181.203 51.2487 180.997 50.726 180.997 50.054C180.997 49.4193 181.221 48.9153 181.669 48.542C182.127 48.1687 182.873 47.982 183.909 47.982H185.561V47.142C185.561 45.9567 184.95 45.364 183.727 45.364C183.251 45.364 182.855 45.4667 182.537 45.672C182.22 45.868 181.963 46.1527 181.767 46.526L181.263 46.106C181.459 45.686 181.758 45.3407 182.159 45.07C182.57 44.7993 183.102 44.664 183.755 44.664C184.595 44.664 185.239 44.874 185.687 45.294C186.135 45.714 186.359 46.302 186.359 47.058V51.3H187.325V52H186.513ZM183.475 51.482C183.765 51.482 184.035 51.4447 184.287 51.37C184.539 51.2953 184.759 51.1927 184.945 51.062C185.141 50.922 185.291 50.7587 185.393 50.572C185.505 50.376 185.561 50.1567 185.561 49.914V48.584H183.881C183.163 48.584 182.64 48.7007 182.313 48.934C181.996 49.158 181.837 49.4707 181.837 49.872V50.208C181.837 50.628 181.987 50.9453 182.285 51.16C182.584 51.3747 182.981 51.482 183.475 51.482ZM190.227 52C189.938 52 189.719 51.9207 189.569 51.762C189.42 51.6033 189.345 51.3887 189.345 51.118V45.532H188.099V44.832H188.911C189.107 44.832 189.238 44.7947 189.303 44.72C189.378 44.636 189.415 44.4913 189.415 44.286V42.83H190.143V44.832H191.767V45.532H190.143V51.3H191.655V52H190.227ZM194.077 42.886C193.89 42.886 193.75 42.8393 193.657 42.746C193.573 42.6527 193.531 42.5313 193.531 42.382V42.242C193.531 42.0927 193.573 41.9713 193.657 41.878C193.75 41.7847 193.89 41.738 194.077 41.738C194.263 41.738 194.399 41.7847 194.483 41.878C194.576 41.9713 194.623 42.0927 194.623 42.242V42.382C194.623 42.5313 194.576 42.6527 194.483 42.746C194.399 42.8393 194.263 42.886 194.077 42.886ZM193.685 44.832H194.483V52H193.685V44.832ZM199.119 52.168C198.494 52.168 197.957 52.0513 197.509 51.818C197.07 51.5847 196.688 51.244 196.361 50.796L196.949 50.334C197.248 50.726 197.574 51.0153 197.929 51.202C198.284 51.3887 198.699 51.482 199.175 51.482C199.726 51.482 200.15 51.3653 200.449 51.132C200.748 50.8987 200.897 50.5627 200.897 50.124C200.897 49.7413 200.78 49.4427 200.547 49.228C200.323 49.004 199.95 48.8547 199.427 48.78L198.839 48.682C198.512 48.6353 198.214 48.5653 197.943 48.472C197.672 48.3787 197.439 48.2527 197.243 48.094C197.056 47.9353 196.907 47.744 196.795 47.52C196.692 47.2867 196.641 47.0067 196.641 46.68C196.641 46.344 196.702 46.05 196.823 45.798C196.954 45.546 197.126 45.336 197.341 45.168C197.556 45 197.812 44.874 198.111 44.79C198.41 44.706 198.732 44.664 199.077 44.664C199.674 44.664 200.164 44.7667 200.547 44.972C200.93 45.1773 201.256 45.4433 201.527 45.77L200.995 46.26C200.808 46.036 200.556 45.8307 200.239 45.644C199.931 45.448 199.53 45.35 199.035 45.35C198.522 45.35 198.12 45.462 197.831 45.686C197.551 45.91 197.411 46.2273 197.411 46.638C197.411 47.058 197.537 47.3613 197.789 47.548C198.05 47.7347 198.438 47.87 198.951 47.954L199.525 48.038C200.253 48.15 200.79 48.3693 201.135 48.696C201.49 49.0133 201.667 49.4613 201.667 50.04C201.667 50.712 201.438 51.2347 200.981 51.608C200.533 51.9813 199.912 52.168 199.119 52.168ZM204.083 45.532H202.851V44.832H204.083V42.83C204.083 42.466 204.172 42.1767 204.349 41.962C204.536 41.7473 204.821 41.64 205.203 41.64H206.463V42.34H204.881V44.832H206.463V45.532H204.881V52H204.083V45.532ZM212.996 52C212.688 52 212.464 51.9207 212.324 51.762C212.184 51.6033 212.104 51.3887 212.086 51.118V50.866H212.016C211.857 51.2673 211.596 51.5847 211.232 51.818C210.868 52.0513 210.406 52.168 209.846 52.168C209.09 52.168 208.506 51.986 208.096 51.622C207.685 51.2487 207.48 50.726 207.48 50.054C207.48 49.4193 207.704 48.9153 208.152 48.542C208.609 48.1687 209.356 47.982 210.392 47.982H212.044V47.142C212.044 45.9567 211.432 45.364 210.21 45.364C209.734 45.364 209.337 45.4667 209.02 45.672C208.702 45.868 208.446 46.1527 208.25 46.526L207.746 46.106C207.942 45.686 208.24 45.3407 208.642 45.07C209.052 44.7993 209.584 44.664 210.238 44.664C211.078 44.664 211.722 44.874 212.17 45.294C212.618 45.714 212.842 46.302 212.842 47.058V51.3H213.808V52H212.996ZM209.958 51.482C210.247 51.482 210.518 51.4447 210.77 51.37C211.022 51.2953 211.241 51.1927 211.428 51.062C211.624 50.922 211.773 50.7587 211.876 50.572C211.988 50.376 212.044 50.1567 212.044 49.914V48.584H210.364C209.645 48.584 209.122 48.7007 208.796 48.934C208.478 49.158 208.32 49.4707 208.32 49.872V50.208C208.32 50.628 208.469 50.9453 208.768 51.16C209.066 51.3747 209.463 51.482 209.958 51.482ZM217.97 52.168C216.981 52.168 216.216 51.8413 215.674 51.188C215.142 50.5347 214.876 49.6107 214.876 48.416C214.876 47.2213 215.142 46.2973 215.674 45.644C216.216 44.9907 216.981 44.664 217.97 44.664C218.633 44.664 219.17 44.8087 219.58 45.098C219.991 45.3873 220.304 45.77 220.518 46.246L219.846 46.582C219.678 46.19 219.44 45.8913 219.132 45.686C218.834 45.4807 218.446 45.378 217.97 45.378C217.242 45.378 216.687 45.6113 216.304 46.078C215.922 46.5447 215.73 47.156 215.73 47.912V48.92C215.73 49.676 215.922 50.2873 216.304 50.754C216.687 51.2207 217.242 51.454 217.97 51.454C218.465 51.454 218.88 51.3467 219.216 51.132C219.552 50.9173 219.823 50.6093 220.028 50.208L220.616 50.6C220.383 51.076 220.047 51.4587 219.608 51.748C219.179 52.028 218.633 52.168 217.97 52.168ZM223.628 52C223.338 52 223.119 51.9207 222.97 51.762C222.82 51.6033 222.746 51.3887 222.746 51.118V45.532H221.5V44.832H222.312C222.508 44.832 222.638 44.7947 222.704 44.72C222.778 44.636 222.816 44.4913 222.816 44.286V42.83H223.544V44.832H225.168V45.532H223.544V51.3H225.056V52H223.628ZM227.477 42.886C227.291 42.886 227.151 42.8393 227.057 42.746C226.973 42.6527 226.931 42.5313 226.931 42.382V42.242C226.931 42.0927 226.973 41.9713 227.057 41.878C227.151 41.7847 227.291 41.738 227.477 41.738C227.664 41.738 227.799 41.7847 227.883 41.878C227.977 41.9713 228.023 42.0927 228.023 42.242V42.382C228.023 42.5313 227.977 42.6527 227.883 42.746C227.799 42.8393 227.664 42.886 227.477 42.886ZM227.085 44.832H227.883V52H227.085V44.832ZM233.038 52.168C232.562 52.168 232.132 52.084 231.75 51.916C231.367 51.748 231.04 51.5053 230.77 51.188C230.499 50.8613 230.289 50.4647 230.14 49.998C229.99 49.5313 229.916 49.004 229.916 48.416C229.916 47.828 229.99 47.3053 230.14 46.848C230.289 46.3813 230.499 45.9893 230.77 45.672C231.04 45.3453 231.367 45.098 231.75 44.93C232.132 44.7527 232.562 44.664 233.038 44.664C233.514 44.664 233.943 44.7527 234.326 44.93C234.708 45.098 235.035 45.3453 235.306 45.672C235.576 45.9893 235.786 46.3813 235.936 46.848C236.085 47.3053 236.16 47.828 236.16 48.416C236.16 49.004 236.085 49.5313 235.936 49.998C235.786 50.4647 235.576 50.8613 235.306 51.188C235.035 51.5053 234.708 51.748 234.326 51.916C233.943 52.084 233.514 52.168 233.038 52.168ZM233.038 51.454C233.738 51.454 234.288 51.2347 234.69 50.796C235.1 50.3573 235.306 49.7133 235.306 48.864V47.968C235.306 47.128 235.1 46.4887 234.69 46.05C234.288 45.602 233.738 45.378 233.038 45.378C232.338 45.378 231.782 45.5973 231.372 46.036C230.97 46.4747 230.77 47.1187 230.77 47.968V48.864C230.77 49.704 230.97 50.348 231.372 50.796C231.782 51.2347 232.338 51.454 233.038 51.454ZM238.187 52V44.832H238.985V45.966H239.027C239.185 45.5927 239.433 45.2847 239.769 45.042C240.105 44.79 240.562 44.664 241.141 44.664C241.906 44.664 242.499 44.902 242.919 45.378C243.348 45.8447 243.563 46.5167 243.563 47.394V52H242.765V47.534C242.765 46.806 242.606 46.2647 242.289 45.91C241.981 45.5553 241.528 45.378 240.931 45.378C240.679 45.378 240.436 45.4107 240.203 45.476C239.969 45.5413 239.759 45.6393 239.573 45.77C239.395 45.9007 239.251 46.0687 239.139 46.274C239.036 46.47 238.985 46.6987 238.985 46.96V52H238.187Z" fill="white"/>
</svg>
