<svg width="307" height="72" viewBox="0 0 307 72" fill="none" xmlns="http://www.w3.org/2000/svg">
<rect width="307" height="72" fill="#444444"/>
<path d="M18.386 30V20.228H22.222C23.0713 20.228 23.72 20.4753 24.168 20.97C24.616 21.4553 24.84 22.118 24.84 22.958C24.84 23.8073 24.616 24.4793 24.168 24.974C23.72 25.4593 23.0713 25.702 22.222 25.702H19.226V30H18.386ZM19.226 24.96H22.222C22.782 24.96 23.2067 24.806 23.496 24.498C23.7947 24.1807 23.944 23.7793 23.944 23.294V22.622C23.944 22.146 23.7947 21.754 23.496 21.446C23.2067 21.1287 22.782 20.97 22.222 20.97H19.226V24.96ZM26.5735 30V22.832H27.3715V24.12H27.4275C27.5675 23.784 27.8055 23.4853 28.1415 23.224C28.4775 22.9627 28.9535 22.832 29.5695 22.832H30.0455V23.616H29.4155C28.8182 23.616 28.3282 23.7467 27.9455 24.008C27.5628 24.2693 27.3715 24.6333 27.3715 25.1V30H26.5735ZM34.0984 30.168C33.6224 30.168 33.1884 30.084 32.7964 29.916C32.4137 29.748 32.0824 29.5053 31.8024 29.188C31.5317 28.8613 31.3217 28.4647 31.1724 27.998C31.0324 27.5313 30.9624 27.004 30.9624 26.416C30.9624 25.828 31.0324 25.3053 31.1724 24.848C31.3217 24.3813 31.5317 23.9893 31.8024 23.672C32.0824 23.3453 32.4137 23.098 32.7964 22.93C33.179 22.7527 33.6084 22.664 34.0844 22.664C34.5417 22.664 34.957 22.7527 35.3304 22.93C35.7037 23.098 36.021 23.336 36.2824 23.644C36.5437 23.952 36.7444 24.3253 36.8844 24.764C37.0337 25.1933 37.1084 25.6693 37.1084 26.192V26.57H31.8024V26.92C31.8024 27.2933 31.8537 27.6387 31.9564 27.956C32.0684 28.264 32.2224 28.53 32.4184 28.754C32.6237 28.978 32.871 29.1553 33.1604 29.286C33.4497 29.4073 33.7764 29.468 34.1404 29.468C35.1857 29.468 35.909 28.9873 36.3104 28.026L36.8984 28.418C36.6744 28.95 36.3197 29.3747 35.8344 29.692C35.3584 30.0093 34.7797 30.168 34.0984 30.168ZM34.0844 23.336C33.739 23.336 33.4264 23.4013 33.1464 23.532C32.8664 23.6533 32.6237 23.826 32.4184 24.05C32.2224 24.274 32.0684 24.5447 31.9564 24.862C31.8537 25.17 31.8024 25.5107 31.8024 25.884V25.954H36.2404V25.842C36.2404 25.4687 36.189 25.128 36.0864 24.82C35.9837 24.5027 35.8344 24.2367 35.6384 24.022C35.4517 23.8073 35.223 23.6393 34.9524 23.518C34.691 23.3967 34.4017 23.336 34.0844 23.336ZM39.1379 22.832H39.9359V23.98H39.9779C40.1553 23.5787 40.4259 23.2613 40.7899 23.028C41.1539 22.7853 41.6113 22.664 42.1619 22.664C43.0859 22.664 43.8093 22.9907 44.3319 23.644C44.8546 24.2973 45.1159 25.2213 45.1159 26.416C45.1159 27.6107 44.8546 28.5347 44.3319 29.188C43.8093 29.8413 43.0859 30.168 42.1619 30.168C41.6113 30.168 41.1586 30.0513 40.8039 29.818C40.4493 29.5753 40.1739 29.2533 39.9779 28.852H39.9359V32.8H39.1379V22.832ZM41.9799 29.454C42.6986 29.454 43.2586 29.2253 43.6599 28.768C44.0613 28.3107 44.2619 27.6947 44.2619 26.92V25.912C44.2619 25.1373 44.0613 24.5213 43.6599 24.064C43.2586 23.6067 42.6986 23.378 41.9799 23.378C41.6999 23.378 41.4339 23.42 41.1819 23.504C40.9393 23.5787 40.7246 23.686 40.5379 23.826C40.3513 23.966 40.2019 24.134 40.0899 24.33C39.9873 24.526 39.9359 24.7407 39.9359 24.974V27.816C39.9359 28.068 39.9873 28.2967 40.0899 28.502C40.2019 28.698 40.3513 28.8707 40.5379 29.02C40.7246 29.16 40.9393 29.2673 41.1819 29.342C41.4339 29.4167 41.6999 29.454 41.9799 29.454ZM50.8776 20.886C50.6909 20.886 50.5509 20.8393 50.4576 20.746C50.3736 20.6527 50.3316 20.5313 50.3316 20.382V20.242C50.3316 20.0927 50.3736 19.9713 50.4576 19.878C50.5509 19.7847 50.6909 19.738 50.8776 19.738C51.0643 19.738 51.1996 19.7847 51.2836 19.878C51.3769 19.9713 51.4236 20.0927 51.4236 20.242V20.382C51.4236 20.5313 51.3769 20.6527 51.2836 20.746C51.1996 20.8393 51.0643 20.886 50.8776 20.886ZM50.4856 22.832H51.2836V30H50.4856V22.832ZM53.8899 30V22.832H54.6879V23.966H54.7299C54.8886 23.5927 55.1359 23.2847 55.4719 23.042C55.8079 22.79 56.2652 22.664 56.8439 22.664C57.6092 22.664 58.2019 22.902 58.6219 23.378C59.0512 23.8447 59.2659 24.5167 59.2659 25.394V30H58.4679V25.534C58.4679 24.806 58.3092 24.2647 57.9919 23.91C57.6839 23.5553 57.2312 23.378 56.6339 23.378C56.3819 23.378 56.1392 23.4107 55.9059 23.476C55.6726 23.5413 55.4626 23.6393 55.2759 23.77C55.0986 23.9007 54.9539 24.0687 54.8419 24.274C54.7392 24.47 54.6879 24.6987 54.6879 24.96V30H53.8899ZM67.6586 30.84C67.6586 31.568 67.3646 32.1047 66.7766 32.45C66.1979 32.7953 65.3439 32.968 64.2146 32.968C63.1226 32.968 62.3339 32.8093 61.8486 32.492C61.3632 32.1747 61.1206 31.736 61.1206 31.176C61.1206 30.7653 61.2279 30.4387 61.4426 30.196C61.6572 29.9533 61.9606 29.776 62.3526 29.664V29.552C61.9046 29.3747 61.6806 29.048 61.6806 28.572C61.6806 28.2173 61.7972 27.9467 62.0306 27.76C62.2639 27.5733 62.5532 27.4333 62.8986 27.34V27.284C62.4786 27.0973 62.1519 26.8173 61.9186 26.444C61.6852 26.0707 61.5686 25.6227 61.5686 25.1C61.5686 24.736 61.6292 24.4047 61.7506 24.106C61.8719 23.8073 62.0446 23.5507 62.2686 23.336C62.5019 23.1213 62.7772 22.958 63.0946 22.846C63.4212 22.7247 63.7806 22.664 64.1726 22.664C64.7232 22.664 65.2039 22.7807 65.6146 23.014V22.664C65.6146 22.4493 65.6659 22.2767 65.7686 22.146C65.8712 22.006 66.0392 21.936 66.2726 21.936H67.5046V22.636H66.0486V23.322C66.2912 23.5367 66.4779 23.798 66.6086 24.106C66.7392 24.4047 66.8046 24.736 66.8046 25.1C66.8046 25.464 66.7392 25.7953 66.6086 26.094C66.4872 26.3927 66.3099 26.654 66.0766 26.878C65.8526 27.0927 65.5772 27.2607 65.2506 27.382C64.9332 27.494 64.5786 27.55 64.1866 27.55C64.0559 27.55 63.9299 27.5407 63.8086 27.522C63.6872 27.5033 63.5659 27.4847 63.4446 27.466C63.1366 27.55 62.8799 27.6667 62.6746 27.816C62.4786 27.956 62.3806 28.1473 62.3806 28.39C62.3806 28.8193 62.7632 29.034 63.5286 29.034H65.1946C66.0626 29.034 66.6879 29.1973 67.0706 29.524C67.4626 29.8413 67.6586 30.28 67.6586 30.84ZM66.8886 30.896C66.8886 30.5507 66.7626 30.2753 66.5106 30.07C66.2679 29.874 65.8292 29.776 65.1946 29.776H62.8706C62.5626 29.8787 62.3199 30.0327 62.1426 30.238C61.9652 30.4433 61.8766 30.7 61.8766 31.008C61.8766 31.3813 62.0306 31.6893 62.3386 31.932C62.6466 32.184 63.1132 32.31 63.7386 32.31H64.6346C65.3346 32.31 65.8852 32.1933 66.2866 31.96C66.6879 31.736 66.8886 31.3813 66.8886 30.896ZM64.1866 26.906C64.7372 26.906 65.1666 26.7707 65.4746 26.5C65.7919 26.22 65.9506 25.828 65.9506 25.324V24.876C65.9506 24.3813 65.7919 23.9987 65.4746 23.728C65.1666 23.448 64.7372 23.308 64.1866 23.308C63.6266 23.308 63.1926 23.448 62.8846 23.728C62.5766 23.9987 62.4226 24.3813 62.4226 24.876V25.324C62.4226 25.828 62.5766 26.22 62.8846 26.5C63.2019 26.7707 63.6359 26.906 64.1866 26.906ZM69.1887 30V22.832H69.9867V24.12H70.0427C70.1827 23.784 70.4207 23.4853 70.7567 23.224C71.0927 22.9627 71.5687 22.832 72.1847 22.832H72.6607V23.616H72.0307C71.4334 23.616 70.9434 23.7467 70.5607 24.008C70.1781 24.2693 69.9867 24.6333 69.9867 25.1V30H69.1887ZM76.7136 30.168C76.2376 30.168 75.8036 30.084 75.4116 29.916C75.0289 29.748 74.6976 29.5053 74.4176 29.188C74.1469 28.8613 73.9369 28.4647 73.7876 27.998C73.6476 27.5313 73.5776 27.004 73.5776 26.416C73.5776 25.828 73.6476 25.3053 73.7876 24.848C73.9369 24.3813 74.1469 23.9893 74.4176 23.672C74.6976 23.3453 75.0289 23.098 75.4116 22.93C75.7943 22.7527 76.2236 22.664 76.6996 22.664C77.1569 22.664 77.5723 22.7527 77.9456 22.93C78.3189 23.098 78.6363 23.336 78.8976 23.644C79.1589 23.952 79.3596 24.3253 79.4996 24.764C79.6489 25.1933 79.7236 25.6693 79.7236 26.192V26.57H74.4176V26.92C74.4176 27.2933 74.4689 27.6387 74.5716 27.956C74.6836 28.264 74.8376 28.53 75.0336 28.754C75.2389 28.978 75.4863 29.1553 75.7756 29.286C76.0649 29.4073 76.3916 29.468 76.7556 29.468C77.8009 29.468 78.5243 28.9873 78.9256 28.026L79.5136 28.418C79.2896 28.95 78.9349 29.3747 78.4496 29.692C77.9736 30.0093 77.3949 30.168 76.7136 30.168ZM76.6996 23.336C76.3543 23.336 76.0416 23.4013 75.7616 23.532C75.4816 23.6533 75.2389 23.826 75.0336 24.05C74.8376 24.274 74.6836 24.5447 74.5716 24.862C74.4689 25.17 74.4176 25.5107 74.4176 25.884V25.954H78.8556V25.842C78.8556 25.4687 78.8043 25.128 78.7016 24.82C78.5989 24.5027 78.4496 24.2367 78.2536 24.022C78.0669 23.8073 77.8383 23.6393 77.5676 23.518C77.3063 23.3967 77.0169 23.336 76.6996 23.336ZM86.3872 28.852H86.3452C86.1585 29.2533 85.8832 29.5753 85.5192 29.818C85.1645 30.0513 84.7118 30.168 84.1612 30.168C83.2372 30.168 82.5138 29.8413 81.9912 29.188C81.4685 28.5347 81.2072 27.6107 81.2072 26.416C81.2072 25.2213 81.4685 24.2973 81.9912 23.644C82.5138 22.9907 83.2372 22.664 84.1612 22.664C84.7118 22.664 85.1692 22.7853 85.5332 23.028C85.8972 23.2613 86.1678 23.5787 86.3452 23.98H86.3872V19.64H87.1852V30H86.3872V28.852ZM84.3432 29.454C84.6232 29.454 84.8845 29.4167 85.1272 29.342C85.3792 29.2673 85.5985 29.16 85.7852 29.02C85.9718 28.8707 86.1165 28.698 86.2192 28.502C86.3312 28.2967 86.3872 28.068 86.3872 27.816V24.974C86.3872 24.7407 86.3312 24.526 86.2192 24.33C86.1165 24.134 85.9718 23.966 85.7852 23.826C85.5985 23.686 85.3792 23.5787 85.1272 23.504C84.8845 23.42 84.6232 23.378 84.3432 23.378C83.6245 23.378 83.0645 23.6067 82.6632 24.064C82.2618 24.5213 82.0612 25.1373 82.0612 25.912V26.92C82.0612 27.6947 82.2618 28.3107 82.6632 28.768C83.0645 29.2253 83.6245 29.454 84.3432 29.454ZM90.1842 20.886C89.9976 20.886 89.8576 20.8393 89.7642 20.746C89.6802 20.6527 89.6382 20.5313 89.6382 20.382V20.242C89.6382 20.0927 89.6802 19.9713 89.7642 19.878C89.8576 19.7847 89.9976 19.738 90.1842 19.738C90.3709 19.738 90.5062 19.7847 90.5902 19.878C90.6836 19.9713 90.7302 20.0927 90.7302 20.242V20.382C90.7302 20.5313 90.6836 20.6527 90.5902 20.746C90.5062 20.8393 90.3709 20.886 90.1842 20.886ZM89.7922 22.832H90.5902V30H89.7922V22.832ZM95.7585 30.168C95.2825 30.168 94.8485 30.084 94.4565 29.916C94.0739 29.748 93.7425 29.5053 93.4625 29.188C93.1919 28.8613 92.9819 28.4647 92.8325 27.998C92.6925 27.5313 92.6225 27.004 92.6225 26.416C92.6225 25.828 92.6925 25.3053 92.8325 24.848C92.9819 24.3813 93.1919 23.9893 93.4625 23.672C93.7425 23.3453 94.0739 23.098 94.4565 22.93C94.8392 22.7527 95.2685 22.664 95.7445 22.664C96.2019 22.664 96.6172 22.7527 96.9905 22.93C97.3639 23.098 97.6812 23.336 97.9425 23.644C98.2039 23.952 98.4045 24.3253 98.5445 24.764C98.6939 25.1933 98.7685 25.6693 98.7685 26.192V26.57H93.4625V26.92C93.4625 27.2933 93.5139 27.6387 93.6165 27.956C93.7285 28.264 93.8825 28.53 94.0785 28.754C94.2839 28.978 94.5312 29.1553 94.8205 29.286C95.1099 29.4073 95.4365 29.468 95.8005 29.468C96.8459 29.468 97.5692 28.9873 97.9705 28.026L98.5585 28.418C98.3345 28.95 97.9799 29.3747 97.4945 29.692C97.0185 30.0093 96.4399 30.168 95.7585 30.168ZM95.7445 23.336C95.3992 23.336 95.0865 23.4013 94.8065 23.532C94.5265 23.6533 94.2839 23.826 94.0785 24.05C93.8825 24.274 93.7285 24.5447 93.6165 24.862C93.5139 25.17 93.4625 25.5107 93.4625 25.884V25.954H97.9005V25.842C97.9005 25.4687 97.8492 25.128 97.7465 24.82C97.6439 24.5027 97.4945 24.2367 97.2985 24.022C97.1119 23.8073 96.8832 23.6393 96.6125 23.518C96.3512 23.3967 96.0619 23.336 95.7445 23.336ZM100.798 30V22.832H101.596V23.966H101.638C101.797 23.5927 102.044 23.2847 102.38 23.042C102.716 22.79 103.173 22.664 103.752 22.664C104.517 22.664 105.11 22.902 105.53 23.378C105.959 23.8447 106.174 24.5167 106.174 25.394V30H105.376V25.534C105.376 24.806 105.217 24.2647 104.9 23.91C104.592 23.5553 104.139 23.378 103.542 23.378C103.29 23.378 103.047 23.4107 102.814 23.476C102.581 23.5413 102.371 23.6393 102.184 23.77C102.007 23.9007 101.862 24.0687 101.75 24.274C101.647 24.47 101.596 24.6987 101.596 24.96V30H100.798ZM109.919 30C109.629 30 109.41 29.9207 109.261 29.762C109.111 29.6033 109.037 29.3887 109.037 29.118V23.532H107.791V22.832H108.603C108.799 22.832 108.929 22.7947 108.995 22.72C109.069 22.636 109.107 22.4913 109.107 22.286V20.83H109.835V22.832H111.459V23.532H109.835V29.3H111.347V30H109.919ZM115.406 30.168C114.781 30.168 114.244 30.0513 113.796 29.818C113.358 29.5847 112.975 29.244 112.648 28.796L113.236 28.334C113.535 28.726 113.862 29.0153 114.216 29.202C114.571 29.3887 114.986 29.482 115.462 29.482C116.013 29.482 116.438 29.3653 116.736 29.132C117.035 28.8987 117.184 28.5627 117.184 28.124C117.184 27.7413 117.068 27.4427 116.834 27.228C116.61 27.004 116.237 26.8547 115.714 26.78L115.126 26.682C114.8 26.6353 114.501 26.5653 114.23 26.472C113.96 26.3787 113.726 26.2527 113.53 26.094C113.344 25.9353 113.194 25.744 113.082 25.52C112.98 25.2867 112.928 25.0067 112.928 24.68C112.928 24.344 112.989 24.05 113.11 23.798C113.241 23.546 113.414 23.336 113.628 23.168C113.843 23 114.1 22.874 114.398 22.79C114.697 22.706 115.019 22.664 115.364 22.664C115.962 22.664 116.452 22.7667 116.834 22.972C117.217 23.1773 117.544 23.4433 117.814 23.77L117.282 24.26C117.096 24.036 116.844 23.8307 116.526 23.644C116.218 23.448 115.817 23.35 115.322 23.35C114.809 23.35 114.408 23.462 114.118 23.686C113.838 23.91 113.698 24.2273 113.698 24.638C113.698 25.058 113.824 25.3613 114.076 25.548C114.338 25.7347 114.725 25.87 115.238 25.954L115.812 26.038C116.54 26.15 117.077 26.3693 117.422 26.696C117.777 27.0133 117.954 27.4613 117.954 28.04C117.954 28.712 117.726 29.2347 117.268 29.608C116.82 29.9813 116.2 30.168 115.406 30.168ZM120.498 28.712C120.731 28.712 120.899 28.7727 121.002 28.894C121.114 29.0153 121.17 29.1693 121.17 29.356V29.538C121.17 29.93 121.058 30.3453 120.834 30.784C120.619 31.232 120.33 31.6147 119.966 31.932H119.294C119.602 31.6147 119.835 31.3067 119.994 31.008C120.162 30.7093 120.274 30.406 120.33 30.098C120.143 30.0793 120.012 30.0187 119.938 29.916C119.863 29.804 119.826 29.6733 119.826 29.524V29.356C119.826 29.1693 119.877 29.0153 119.98 28.894C120.092 28.7727 120.264 28.712 120.498 28.712ZM126.925 19.64H127.723V26.486H127.765L128.885 25.296L131.265 22.832H132.245L129.431 25.744L132.553 30H131.573L128.857 26.248L127.723 27.396V30H126.925V19.64ZM136.473 30.168C135.997 30.168 135.563 30.084 135.171 29.916C134.789 29.748 134.457 29.5053 134.177 29.188C133.907 28.8613 133.697 28.4647 133.547 27.998C133.407 27.5313 133.337 27.004 133.337 26.416C133.337 25.828 133.407 25.3053 133.547 24.848C133.697 24.3813 133.907 23.9893 134.177 23.672C134.457 23.3453 134.789 23.098 135.171 22.93C135.554 22.7527 135.983 22.664 136.459 22.664C136.917 22.664 137.332 22.7527 137.705 22.93C138.079 23.098 138.396 23.336 138.657 23.644C138.919 23.952 139.119 24.3253 139.259 24.764C139.409 25.1933 139.483 25.6693 139.483 26.192V26.57H134.177V26.92C134.177 27.2933 134.229 27.6387 134.331 27.956C134.443 28.264 134.597 28.53 134.793 28.754C134.999 28.978 135.246 29.1553 135.535 29.286C135.825 29.4073 136.151 29.468 136.515 29.468C137.561 29.468 138.284 28.9873 138.685 28.026L139.273 28.418C139.049 28.95 138.695 29.3747 138.209 29.692C137.733 30.0093 137.155 30.168 136.473 30.168ZM136.459 23.336C136.114 23.336 135.801 23.4013 135.521 23.532C135.241 23.6533 134.999 23.826 134.793 24.05C134.597 24.274 134.443 24.5447 134.331 24.862C134.229 25.17 134.177 25.5107 134.177 25.884V25.954H138.615V25.842C138.615 25.4687 138.564 25.128 138.461 24.82C138.359 24.5027 138.209 24.2367 138.013 24.022C137.827 23.8073 137.598 23.6393 137.327 23.518C137.066 23.3967 136.777 23.336 136.459 23.336ZM144.075 30.168C143.599 30.168 143.165 30.084 142.773 29.916C142.39 29.748 142.059 29.5053 141.779 29.188C141.508 28.8613 141.298 28.4647 141.149 27.998C141.009 27.5313 140.939 27.004 140.939 26.416C140.939 25.828 141.009 25.3053 141.149 24.848C141.298 24.3813 141.508 23.9893 141.779 23.672C142.059 23.3453 142.39 23.098 142.773 22.93C143.156 22.7527 143.585 22.664 144.061 22.664C144.518 22.664 144.934 22.7527 145.307 22.93C145.68 23.098 145.998 23.336 146.259 23.644C146.52 23.952 146.721 24.3253 146.861 24.764C147.01 25.1933 147.085 25.6693 147.085 26.192V26.57H141.779V26.92C141.779 27.2933 141.83 27.6387 141.933 27.956C142.045 28.264 142.199 28.53 142.395 28.754C142.6 28.978 142.848 29.1553 143.137 29.286C143.426 29.4073 143.753 29.468 144.117 29.468C145.162 29.468 145.886 28.9873 146.287 28.026L146.875 28.418C146.651 28.95 146.296 29.3747 145.811 29.692C145.335 30.0093 144.756 30.168 144.075 30.168ZM144.061 23.336C143.716 23.336 143.403 23.4013 143.123 23.532C142.843 23.6533 142.6 23.826 142.395 24.05C142.199 24.274 142.045 24.5447 141.933 24.862C141.83 25.17 141.779 25.5107 141.779 25.884V25.954H146.217V25.842C146.217 25.4687 146.166 25.128 146.063 24.82C145.96 24.5027 145.811 24.2367 145.615 24.022C145.428 23.8073 145.2 23.6393 144.929 23.518C144.668 23.3967 144.378 23.336 144.061 23.336ZM149.115 22.832H149.913V23.98H149.955C150.132 23.5787 150.403 23.2613 150.767 23.028C151.131 22.7853 151.588 22.664 152.139 22.664C153.063 22.664 153.786 22.9907 154.309 23.644C154.831 24.2973 155.093 25.2213 155.093 26.416C155.093 27.6107 154.831 28.5347 154.309 29.188C153.786 29.8413 153.063 30.168 152.139 30.168C151.588 30.168 151.135 30.0513 150.781 29.818C150.426 29.5753 150.151 29.2533 149.955 28.852H149.913V32.8H149.115V22.832ZM151.957 29.454C152.675 29.454 153.235 29.2253 153.637 28.768C154.038 28.3107 154.239 27.6947 154.239 26.92V25.912C154.239 25.1373 154.038 24.5213 153.637 24.064C153.235 23.6067 152.675 23.378 151.957 23.378C151.677 23.378 151.411 23.42 151.159 23.504C150.916 23.5787 150.701 23.686 150.515 23.826C150.328 23.966 150.179 24.134 150.067 24.33C149.964 24.526 149.913 24.7407 149.913 24.974V27.816C149.913 28.068 149.964 28.2967 150.067 28.502C150.179 28.698 150.328 28.8707 150.515 29.02C150.701 29.16 150.916 29.2673 151.159 29.342C151.411 29.4167 151.677 29.454 151.957 29.454ZM157.546 20.886C157.359 20.886 157.219 20.8393 157.126 20.746C157.042 20.6527 157 20.5313 157 20.382V20.242C157 20.0927 157.042 19.9713 157.126 19.878C157.219 19.7847 157.359 19.738 157.546 19.738C157.732 19.738 157.868 19.7847 157.952 19.878C158.045 19.9713 158.092 20.0927 158.092 20.242V20.382C158.092 20.5313 158.045 20.6527 157.952 20.746C157.868 20.8393 157.732 20.886 157.546 20.886ZM157.154 22.832H157.952V30H157.154V22.832ZM160.558 30V22.832H161.356V23.966H161.398C161.557 23.5927 161.804 23.2847 162.14 23.042C162.476 22.79 162.933 22.664 163.512 22.664C164.277 22.664 164.87 22.902 165.29 23.378C165.719 23.8447 165.934 24.5167 165.934 25.394V30H165.136V25.534C165.136 24.806 164.977 24.2647 164.66 23.91C164.352 23.5553 163.899 23.378 163.302 23.378C163.05 23.378 162.807 23.4107 162.574 23.476C162.341 23.5413 162.131 23.6393 161.944 23.77C161.767 23.9007 161.622 24.0687 161.51 24.274C161.407 24.47 161.356 24.6987 161.356 24.96V30H160.558ZM174.327 30.84C174.327 31.568 174.033 32.1047 173.445 32.45C172.866 32.7953 172.012 32.968 170.883 32.968C169.791 32.968 169.002 32.8093 168.517 32.492C168.031 32.1747 167.789 31.736 167.789 31.176C167.789 30.7653 167.896 30.4387 168.111 30.196C168.325 29.9533 168.629 29.776 169.021 29.664V29.552C168.573 29.3747 168.349 29.048 168.349 28.572C168.349 28.2173 168.465 27.9467 168.699 27.76C168.932 27.5733 169.221 27.4333 169.567 27.34V27.284C169.147 27.0973 168.82 26.8173 168.587 26.444C168.353 26.0707 168.237 25.6227 168.237 25.1C168.237 24.736 168.297 24.4047 168.419 24.106C168.54 23.8073 168.713 23.5507 168.937 23.336C169.17 23.1213 169.445 22.958 169.763 22.846C170.089 22.7247 170.449 22.664 170.841 22.664C171.391 22.664 171.872 22.7807 172.283 23.014V22.664C172.283 22.4493 172.334 22.2767 172.437 22.146C172.539 22.006 172.707 21.936 172.941 21.936H174.173V22.636H172.717V23.322C172.959 23.5367 173.146 23.798 173.277 24.106C173.407 24.4047 173.473 24.736 173.473 25.1C173.473 25.464 173.407 25.7953 173.277 26.094C173.155 26.3927 172.978 26.654 172.745 26.878C172.521 27.0927 172.245 27.2607 171.919 27.382C171.601 27.494 171.247 27.55 170.855 27.55C170.724 27.55 170.598 27.5407 170.477 27.522C170.355 27.5033 170.234 27.4847 170.113 27.466C169.805 27.55 169.548 27.6667 169.343 27.816C169.147 27.956 169.049 28.1473 169.049 28.39C169.049 28.8193 169.431 29.034 170.197 29.034H171.863C172.731 29.034 173.356 29.1973 173.739 29.524C174.131 29.8413 174.327 30.28 174.327 30.84ZM173.557 30.896C173.557 30.5507 173.431 30.2753 173.179 30.07C172.936 29.874 172.497 29.776 171.863 29.776H169.539C169.231 29.8787 168.988 30.0327 168.811 30.238C168.633 30.4433 168.545 30.7 168.545 31.008C168.545 31.3813 168.699 31.6893 169.007 31.932C169.315 32.184 169.781 32.31 170.407 32.31H171.303C172.003 32.31 172.553 32.1933 172.955 31.96C173.356 31.736 173.557 31.3813 173.557 30.896ZM170.855 26.906C171.405 26.906 171.835 26.7707 172.143 26.5C172.46 26.22 172.619 25.828 172.619 25.324V24.876C172.619 24.3813 172.46 23.9987 172.143 23.728C171.835 23.448 171.405 23.308 170.855 23.308C170.295 23.308 169.861 23.448 169.553 23.728C169.245 23.9987 169.091 24.3813 169.091 24.876V25.324C169.091 25.828 169.245 26.22 169.553 26.5C169.87 26.7707 170.304 26.906 170.855 26.906ZM179.557 20.886C179.371 20.886 179.231 20.8393 179.137 20.746C179.053 20.6527 179.011 20.5313 179.011 20.382V20.242C179.011 20.0927 179.053 19.9713 179.137 19.878C179.231 19.7847 179.371 19.738 179.557 19.738C179.744 19.738 179.879 19.7847 179.963 19.878C180.057 19.9713 180.103 20.0927 180.103 20.242V20.382C180.103 20.5313 180.057 20.6527 179.963 20.746C179.879 20.8393 179.744 20.886 179.557 20.886ZM179.165 22.832H179.963V30H179.165V22.832ZM182.57 30V22.832H183.368V23.966H183.41C183.568 23.5927 183.816 23.2847 184.152 23.042C184.488 22.79 184.945 22.664 185.524 22.664C186.289 22.664 186.882 22.902 187.302 23.378C187.731 23.8447 187.946 24.5167 187.946 25.394V30H187.148V25.534C187.148 24.806 186.989 24.2647 186.672 23.91C186.364 23.5553 185.911 23.378 185.314 23.378C185.062 23.378 184.819 23.4107 184.586 23.476C184.352 23.5413 184.142 23.6393 183.956 23.77C183.778 23.9007 183.634 24.0687 183.522 24.274C183.419 24.47 183.368 24.6987 183.368 24.96V30H182.57ZM193.767 30V22.832H194.565V23.966H194.607C194.682 23.7887 194.775 23.6253 194.887 23.476C194.999 23.3173 195.134 23.1773 195.293 23.056C195.452 22.9347 195.638 22.8413 195.853 22.776C196.077 22.7013 196.338 22.664 196.637 22.664C197.15 22.664 197.603 22.7853 197.995 23.028C198.387 23.2707 198.672 23.6533 198.849 24.176H198.891C199.022 23.756 199.269 23.4013 199.633 23.112C200.006 22.8133 200.51 22.664 201.145 22.664C201.91 22.664 202.498 22.902 202.909 23.378C203.32 23.8447 203.525 24.5167 203.525 25.394V30H202.727V25.534C202.727 24.0967 202.125 23.378 200.921 23.378C200.669 23.378 200.431 23.4107 200.207 23.476C199.983 23.5413 199.782 23.644 199.605 23.784C199.437 23.9147 199.302 24.0827 199.199 24.288C199.096 24.484 199.045 24.7127 199.045 24.974V30H198.247V25.534C198.247 24.0967 197.65 23.378 196.455 23.378C196.212 23.378 195.974 23.4107 195.741 23.476C195.517 23.5413 195.316 23.6393 195.139 23.77C194.962 23.9007 194.822 24.0687 194.719 24.274C194.616 24.47 194.565 24.6987 194.565 24.96V30H193.767ZM206.423 20.886C206.236 20.886 206.096 20.8393 206.003 20.746C205.919 20.6527 205.877 20.5313 205.877 20.382V20.242C205.877 20.0927 205.919 19.9713 206.003 19.878C206.096 19.7847 206.236 19.738 206.423 19.738C206.609 19.738 206.745 19.7847 206.829 19.878C206.922 19.9713 206.969 20.0927 206.969 20.242V20.382C206.969 20.5313 206.922 20.6527 206.829 20.746C206.745 20.8393 206.609 20.886 206.423 20.886ZM206.031 22.832H206.829V30H206.031V22.832ZM209.435 30V22.832H210.233V23.966H210.275C210.433 23.5927 210.681 23.2847 211.017 23.042C211.353 22.79 211.81 22.664 212.389 22.664C213.154 22.664 213.747 22.902 214.167 23.378C214.596 23.8447 214.811 24.5167 214.811 25.394V30H214.013V25.534C214.013 24.806 213.854 24.2647 213.537 23.91C213.229 23.5553 212.776 23.378 212.179 23.378C211.927 23.378 211.684 23.4107 211.451 23.476C211.217 23.5413 211.007 23.6393 210.821 23.77C210.643 23.9007 210.499 24.0687 210.387 24.274C210.284 24.47 210.233 24.6987 210.233 24.96V30H209.435ZM221.957 28.852H221.915C221.729 29.2533 221.453 29.5753 221.089 29.818C220.735 30.0513 220.282 30.168 219.731 30.168C218.807 30.168 218.084 29.8413 217.561 29.188C217.039 28.5347 216.777 27.6107 216.777 26.416C216.777 25.2213 217.039 24.2973 217.561 23.644C218.084 22.9907 218.807 22.664 219.731 22.664C220.282 22.664 220.739 22.7853 221.103 23.028C221.467 23.2613 221.738 23.5787 221.915 23.98H221.957V19.64H222.755V30H221.957V28.852ZM219.913 29.454C220.193 29.454 220.455 29.4167 220.697 29.342C220.949 29.2673 221.169 29.16 221.355 29.02C221.542 28.8707 221.687 28.698 221.789 28.502C221.901 28.2967 221.957 28.068 221.957 27.816V24.974C221.957 24.7407 221.901 24.526 221.789 24.33C221.687 24.134 221.542 23.966 221.355 23.826C221.169 23.686 220.949 23.5787 220.697 23.504C220.455 23.42 220.193 23.378 219.913 23.378C219.195 23.378 218.635 23.6067 218.233 24.064C217.832 24.5213 217.631 25.1373 217.631 25.912V26.92C217.631 27.6947 217.832 28.3107 218.233 28.768C218.635 29.2253 219.195 29.454 219.913 29.454ZM229.063 20.886C228.876 20.886 228.736 20.8393 228.643 20.746C228.559 20.6527 228.517 20.5313 228.517 20.382V20.242C228.517 20.0927 228.559 19.9713 228.643 19.878C228.736 19.7847 228.876 19.738 229.063 19.738C229.25 19.738 229.385 19.7847 229.469 19.878C229.562 19.9713 229.609 20.0927 229.609 20.242V20.382C229.609 20.5313 229.562 20.6527 229.469 20.746C229.385 20.8393 229.25 20.886 229.063 20.886ZM228.671 22.832H229.469V30H228.671V22.832ZM232.075 30V22.832H232.873V23.966H232.915C233.074 23.5927 233.321 23.2847 233.657 23.042C233.993 22.79 234.451 22.664 235.029 22.664C235.795 22.664 236.387 22.902 236.807 23.378C237.237 23.8447 237.451 24.5167 237.451 25.394V30H236.653V25.534C236.653 24.806 236.495 24.2647 236.177 23.91C235.869 23.5553 235.417 23.378 234.819 23.378C234.567 23.378 234.325 23.4107 234.091 23.476C233.858 23.5413 233.648 23.6393 233.461 23.77C233.284 23.9007 233.139 24.0687 233.027 24.274C232.925 24.47 232.873 24.6987 232.873 24.96V30H232.075ZM241.994 30.168C241.369 30.168 240.832 30.0513 240.384 29.818C239.945 29.5847 239.563 29.244 239.236 28.796L239.824 28.334C240.123 28.726 240.449 29.0153 240.804 29.202C241.159 29.3887 241.574 29.482 242.05 29.482C242.601 29.482 243.025 29.3653 243.324 29.132C243.623 28.8987 243.772 28.5627 243.772 28.124C243.772 27.7413 243.655 27.4427 243.422 27.228C243.198 27.004 242.825 26.8547 242.302 26.78L241.714 26.682C241.387 26.6353 241.089 26.5653 240.818 26.472C240.547 26.3787 240.314 26.2527 240.118 26.094C239.931 25.9353 239.782 25.744 239.67 25.52C239.567 25.2867 239.516 25.0067 239.516 24.68C239.516 24.344 239.577 24.05 239.698 23.798C239.829 23.546 240.001 23.336 240.216 23.168C240.431 23 240.687 22.874 240.986 22.79C241.285 22.706 241.607 22.664 241.952 22.664C242.549 22.664 243.039 22.7667 243.422 22.972C243.805 23.1773 244.131 23.4433 244.402 23.77L243.87 24.26C243.683 24.036 243.431 23.8307 243.114 23.644C242.806 23.448 242.405 23.35 241.91 23.35C241.397 23.35 240.995 23.462 240.706 23.686C240.426 23.91 240.286 24.2273 240.286 24.638C240.286 25.058 240.412 25.3613 240.664 25.548C240.925 25.7347 241.313 25.87 241.826 25.954L242.4 26.038C243.128 26.15 243.665 26.3693 244.01 26.696C244.365 27.0133 244.542 27.4613 244.542 28.04C244.542 28.712 244.313 29.2347 243.856 29.608C243.408 29.9813 242.787 30.168 241.994 30.168ZM247.028 20.886C246.841 20.886 246.701 20.8393 246.608 20.746C246.524 20.6527 246.482 20.5313 246.482 20.382V20.242C246.482 20.0927 246.524 19.9713 246.608 19.878C246.701 19.7847 246.841 19.738 247.028 19.738C247.215 19.738 247.35 19.7847 247.434 19.878C247.527 19.9713 247.574 20.0927 247.574 20.242V20.382C247.574 20.5313 247.527 20.6527 247.434 20.746C247.35 20.8393 247.215 20.886 247.028 20.886ZM246.636 22.832H247.434V30H246.636V22.832ZM255.92 30.84C255.92 31.568 255.626 32.1047 255.038 32.45C254.46 32.7953 253.606 32.968 252.476 32.968C251.384 32.968 250.596 32.8093 250.11 32.492C249.625 32.1747 249.382 31.736 249.382 31.176C249.382 30.7653 249.49 30.4387 249.704 30.196C249.919 29.9533 250.222 29.776 250.614 29.664V29.552C250.166 29.3747 249.942 29.048 249.942 28.572C249.942 28.2173 250.059 27.9467 250.292 27.76C250.526 27.5733 250.815 27.4333 251.16 27.34V27.284C250.74 27.0973 250.414 26.8173 250.18 26.444C249.947 26.0707 249.83 25.6227 249.83 25.1C249.83 24.736 249.891 24.4047 250.012 24.106C250.134 23.8073 250.306 23.5507 250.53 23.336C250.764 23.1213 251.039 22.958 251.356 22.846C251.683 22.7247 252.042 22.664 252.434 22.664C252.985 22.664 253.466 22.7807 253.876 23.014V22.664C253.876 22.4493 253.928 22.2767 254.03 22.146C254.133 22.006 254.301 21.936 254.534 21.936H255.766V22.636H254.31V23.322C254.553 23.5367 254.74 23.798 254.87 24.106C255.001 24.4047 255.066 24.736 255.066 25.1C255.066 25.464 255.001 25.7953 254.87 26.094C254.749 26.3927 254.572 26.654 254.338 26.878C254.114 27.0927 253.839 27.2607 253.512 27.382C253.195 27.494 252.84 27.55 252.448 27.55C252.318 27.55 252.192 27.5407 252.07 27.522C251.949 27.5033 251.828 27.4847 251.706 27.466C251.398 27.55 251.142 27.6667 250.936 27.816C250.74 27.956 250.642 28.1473 250.642 28.39C250.642 28.8193 251.025 29.034 251.79 29.034H253.456C254.324 29.034 254.95 29.1973 255.332 29.524C255.724 29.8413 255.92 30.28 255.92 30.84ZM255.15 30.896C255.15 30.5507 255.024 30.2753 254.772 30.07C254.53 29.874 254.091 29.776 253.456 29.776H251.132C250.824 29.8787 250.582 30.0327 250.404 30.238C250.227 30.4433 250.138 30.7 250.138 31.008C250.138 31.3813 250.292 31.6893 250.6 31.932C250.908 32.184 251.375 32.31 252 32.31H252.896C253.596 32.31 254.147 32.1933 254.548 31.96C254.95 31.736 255.15 31.3813 255.15 30.896ZM252.448 26.906C252.999 26.906 253.428 26.7707 253.736 26.5C254.054 26.22 254.212 25.828 254.212 25.324V24.876C254.212 24.3813 254.054 23.9987 253.736 23.728C253.428 23.448 252.999 23.308 252.448 23.308C251.888 23.308 251.454 23.448 251.146 23.728C250.838 23.9987 250.684 24.3813 250.684 24.876V25.324C250.684 25.828 250.838 26.22 251.146 26.5C251.464 26.7707 251.898 26.906 252.448 26.906ZM257.45 19.64H258.248V23.966H258.29C258.449 23.5927 258.696 23.2847 259.032 23.042C259.368 22.79 259.826 22.664 260.404 22.664C261.17 22.664 261.762 22.902 262.182 23.378C262.612 23.8447 262.826 24.5167 262.826 25.394V30H262.028V25.534C262.028 24.806 261.87 24.2647 261.552 23.91C261.244 23.5553 260.792 23.378 260.194 23.378C259.942 23.378 259.7 23.4107 259.466 23.476C259.233 23.5413 259.023 23.6393 258.836 23.77C258.659 23.9007 258.514 24.0687 258.402 24.274C258.3 24.47 258.248 24.6987 258.248 24.96V30H257.45V19.64ZM266.571 30C266.282 30 266.062 29.9207 265.913 29.762C265.764 29.6033 265.689 29.3887 265.689 29.118V23.532H264.443V22.832H265.255C265.451 22.832 265.582 22.7947 265.647 22.72C265.722 22.636 265.759 22.4913 265.759 22.286V20.83H266.487V22.832H268.111V23.532H266.487V29.3H267.999V30H266.571ZM272.059 30.168C271.433 30.168 270.897 30.0513 270.449 29.818C270.01 29.5847 269.627 29.244 269.301 28.796L269.889 28.334C270.187 28.726 270.514 29.0153 270.869 29.202C271.223 29.3887 271.639 29.482 272.115 29.482C272.665 29.482 273.09 29.3653 273.389 29.132C273.687 28.8987 273.837 28.5627 273.837 28.124C273.837 27.7413 273.72 27.4427 273.487 27.228C273.263 27.004 272.889 26.8547 272.367 26.78L271.779 26.682C271.452 26.6353 271.153 26.5653 270.883 26.472C270.612 26.3787 270.379 26.2527 270.183 26.094C269.996 25.9353 269.847 25.744 269.735 25.52C269.632 25.2867 269.581 25.0067 269.581 24.68C269.581 24.344 269.641 24.05 269.763 23.798C269.893 23.546 270.066 23.336 270.281 23.168C270.495 23 270.752 22.874 271.051 22.79C271.349 22.706 271.671 22.664 272.017 22.664C272.614 22.664 273.104 22.7667 273.487 22.972C273.869 23.1773 274.196 23.4433 274.467 23.77L273.935 24.26C273.748 24.036 273.496 23.8307 273.179 23.644C272.871 23.448 272.469 23.35 271.975 23.35C271.461 23.35 271.06 23.462 270.771 23.686C270.491 23.91 270.351 24.2273 270.351 24.638C270.351 25.058 270.477 25.3613 270.729 25.548C270.99 25.7347 271.377 25.87 271.891 25.954L272.465 26.038C273.193 26.15 273.729 26.3693 274.075 26.696C274.429 27.0133 274.607 27.4613 274.607 28.04C274.607 28.712 274.378 29.2347 273.921 29.608C273.473 29.9813 272.852 30.168 272.059 30.168ZM18.638 45.532H17.406V44.832H18.638V42.83C18.638 42.466 18.7267 42.1767 18.904 41.962C19.0907 41.7473 19.3753 41.64 19.758 41.64H21.018V42.34H19.436V44.832H21.018V45.532H19.436V52H18.638V45.532ZM22.6223 52V44.832H23.4203V46.12H23.4763C23.6163 45.784 23.8543 45.4853 24.1903 45.224C24.5263 44.9627 25.0023 44.832 25.6183 44.832H26.0943V45.616H25.4643C24.867 45.616 24.377 45.7467 23.9943 46.008C23.6116 46.2693 23.4203 46.6333 23.4203 47.1V52H22.6223ZM30.1332 52.168C29.6572 52.168 29.2279 52.084 28.8452 51.916C28.4625 51.748 28.1359 51.5053 27.8652 51.188C27.5945 50.8613 27.3845 50.4647 27.2352 49.998C27.0859 49.5313 27.0112 49.004 27.0112 48.416C27.0112 47.828 27.0859 47.3053 27.2352 46.848C27.3845 46.3813 27.5945 45.9893 27.8652 45.672C28.1359 45.3453 28.4625 45.098 28.8452 44.93C29.2279 44.7527 29.6572 44.664 30.1332 44.664C30.6092 44.664 31.0385 44.7527 31.4212 44.93C31.8039 45.098 32.1305 45.3453 32.4012 45.672C32.6719 45.9893 32.8819 46.3813 33.0312 46.848C33.1805 47.3053 33.2552 47.828 33.2552 48.416C33.2552 49.004 33.1805 49.5313 33.0312 49.998C32.8819 50.4647 32.6719 50.8613 32.4012 51.188C32.1305 51.5053 31.8039 51.748 31.4212 51.916C31.0385 52.084 30.6092 52.168 30.1332 52.168ZM30.1332 51.454C30.8332 51.454 31.3839 51.2347 31.7852 50.796C32.1959 50.3573 32.4012 49.7133 32.4012 48.864V47.968C32.4012 47.128 32.1959 46.4887 31.7852 46.05C31.3839 45.602 30.8332 45.378 30.1332 45.378C29.4332 45.378 28.8779 45.5973 28.4672 46.036C28.0659 46.4747 27.8652 47.1187 27.8652 47.968V48.864C27.8652 49.704 28.0659 50.348 28.4672 50.796C28.8779 51.2347 29.4332 51.454 30.1332 51.454ZM35.2825 52V44.832H36.0805V45.966H36.1225C36.1971 45.7887 36.2905 45.6253 36.4025 45.476C36.5145 45.3173 36.6498 45.1773 36.8085 45.056C36.9671 44.9347 37.1538 44.8413 37.3685 44.776C37.5925 44.7013 37.8538 44.664 38.1525 44.664C38.6658 44.664 39.1185 44.7853 39.5105 45.028C39.9025 45.2707 40.1871 45.6533 40.3645 46.176H40.4065C40.5371 45.756 40.7845 45.4013 41.1485 45.112C41.5218 44.8133 42.0258 44.664 42.6605 44.664C43.4258 44.664 44.0138 44.902 44.4245 45.378C44.8351 45.8447 45.0405 46.5167 45.0405 47.394V52H44.2425V47.534C44.2425 46.0967 43.6405 45.378 42.4365 45.378C42.1845 45.378 41.9465 45.4107 41.7225 45.476C41.4985 45.5413 41.2978 45.644 41.1205 45.784C40.9525 45.9147 40.8171 46.0827 40.7145 46.288C40.6118 46.484 40.5605 46.7127 40.5605 46.974V52H39.7625V47.534C39.7625 46.0967 39.1651 45.378 37.9705 45.378C37.7278 45.378 37.4898 45.4107 37.2565 45.476C37.0325 45.5413 36.8318 45.6393 36.6545 45.77C36.4771 45.9007 36.3371 46.0687 36.2345 46.274C36.1318 46.47 36.0805 46.6987 36.0805 46.96V52H35.2825ZM51.1907 45.532H49.9587V44.832H51.1907V42.83C51.1907 42.466 51.2794 42.1767 51.4567 41.962C51.6434 41.7473 51.9281 41.64 52.3107 41.64H53.5707V42.34H51.9887V44.832H53.5707V45.532H51.9887V52H51.1907V45.532ZM57.6684 52.168C57.1924 52.168 56.763 52.084 56.3804 51.916C55.9977 51.748 55.671 51.5053 55.4004 51.188C55.1297 50.8613 54.9197 50.4647 54.7704 49.998C54.621 49.5313 54.5464 49.004 54.5464 48.416C54.5464 47.828 54.621 47.3053 54.7704 46.848C54.9197 46.3813 55.1297 45.9893 55.4004 45.672C55.671 45.3453 55.9977 45.098 56.3804 44.93C56.763 44.7527 57.1924 44.664 57.6684 44.664C58.1444 44.664 58.5737 44.7527 58.9564 44.93C59.339 45.098 59.6657 45.3453 59.9364 45.672C60.207 45.9893 60.417 46.3813 60.5664 46.848C60.7157 47.3053 60.7904 47.828 60.7904 48.416C60.7904 49.004 60.7157 49.5313 60.5664 49.998C60.417 50.4647 60.207 50.8613 59.9364 51.188C59.6657 51.5053 59.339 51.748 58.9564 51.916C58.5737 52.084 58.1444 52.168 57.6684 52.168ZM57.6684 51.454C58.3684 51.454 58.919 51.2347 59.3204 50.796C59.731 50.3573 59.9364 49.7133 59.9364 48.864V47.968C59.9364 47.128 59.731 46.4887 59.3204 46.05C58.919 45.602 58.3684 45.378 57.6684 45.378C56.9684 45.378 56.413 45.5973 56.0024 46.036C55.601 46.4747 55.4004 47.1187 55.4004 47.968V48.864C55.4004 49.704 55.601 50.348 56.0024 50.796C56.413 51.2347 56.9684 51.454 57.6684 51.454ZM62.8176 52V44.832H63.6156V46.12H63.6716C63.8116 45.784 64.0496 45.4853 64.3856 45.224C64.7216 44.9627 65.1976 44.832 65.8136 44.832H66.2896V45.616H65.6596C65.0623 45.616 64.5723 45.7467 64.1896 46.008C63.807 46.2693 63.6156 46.6333 63.6156 47.1V52H62.8176ZM70.3425 52.168C69.8665 52.168 69.4325 52.084 69.0405 51.916C68.6578 51.748 68.3265 51.5053 68.0465 51.188C67.7758 50.8613 67.5658 50.4647 67.4165 49.998C67.2765 49.5313 67.2065 49.004 67.2065 48.416C67.2065 47.828 67.2765 47.3053 67.4165 46.848C67.5658 46.3813 67.7758 45.9893 68.0465 45.672C68.3265 45.3453 68.6578 45.098 69.0405 44.93C69.4232 44.7527 69.8525 44.664 70.3285 44.664C70.7858 44.664 71.2012 44.7527 71.5745 44.93C71.9478 45.098 72.2652 45.336 72.5265 45.644C72.7878 45.952 72.9885 46.3253 73.1285 46.764C73.2778 47.1933 73.3525 47.6693 73.3525 48.192V48.57H68.0465V48.92C68.0465 49.2933 68.0978 49.6387 68.2005 49.956C68.3125 50.264 68.4665 50.53 68.6625 50.754C68.8678 50.978 69.1152 51.1553 69.4045 51.286C69.6938 51.4073 70.0205 51.468 70.3845 51.468C71.4298 51.468 72.1532 50.9873 72.5545 50.026L73.1425 50.418C72.9185 50.95 72.5638 51.3747 72.0785 51.692C71.6025 52.0093 71.0238 52.168 70.3425 52.168ZM70.3285 45.336C69.9832 45.336 69.6705 45.4013 69.3905 45.532C69.1105 45.6533 68.8678 45.826 68.6625 46.05C68.4665 46.274 68.3125 46.5447 68.2005 46.862C68.0978 47.17 68.0465 47.5107 68.0465 47.884V47.954H72.4845V47.842C72.4845 47.4687 72.4332 47.128 72.3305 46.82C72.2278 46.5027 72.0785 46.2367 71.8825 46.022C71.6958 45.8073 71.4672 45.6393 71.1965 45.518C70.9352 45.3967 70.6458 45.336 70.3285 45.336ZM77.9021 52.168C76.9127 52.168 76.1474 51.8413 75.6061 51.188C75.0741 50.5347 74.8081 49.6107 74.8081 48.416C74.8081 47.2213 75.0741 46.2973 75.6061 45.644C76.1474 44.9907 76.9127 44.664 77.9021 44.664C78.5647 44.664 79.1014 44.8087 79.5121 45.098C79.9227 45.3873 80.2354 45.77 80.4501 46.246L79.7781 46.582C79.6101 46.19 79.3721 45.8913 79.0641 45.686C78.7654 45.4807 78.3781 45.378 77.9021 45.378C77.1741 45.378 76.6187 45.6113 76.2361 46.078C75.8534 46.5447 75.6621 47.156 75.6621 47.912V48.92C75.6621 49.676 75.8534 50.2873 76.2361 50.754C76.6187 51.2207 77.1741 51.454 77.9021 51.454C78.3967 51.454 78.8121 51.3467 79.1481 51.132C79.4841 50.9173 79.7547 50.6093 79.9601 50.208L80.5481 50.6C80.3147 51.076 79.9787 51.4587 79.5401 51.748C79.1107 52.028 78.5647 52.168 77.9021 52.168ZM87.2554 52C86.9474 52 86.7234 51.9207 86.5834 51.762C86.4434 51.6033 86.3641 51.3887 86.3454 51.118V50.866H86.2754C86.1167 51.2673 85.8554 51.5847 85.4914 51.818C85.1274 52.0513 84.6654 52.168 84.1054 52.168C83.3494 52.168 82.7661 51.986 82.3554 51.622C81.9447 51.2487 81.7394 50.726 81.7394 50.054C81.7394 49.4193 81.9634 48.9153 82.4114 48.542C82.8687 48.1687 83.6154 47.982 84.6514 47.982H86.3034V47.142C86.3034 45.9567 85.6921 45.364 84.4694 45.364C83.9934 45.364 83.5967 45.4667 83.2794 45.672C82.9621 45.868 82.7054 46.1527 82.5094 46.526L82.0054 46.106C82.2014 45.686 82.5001 45.3407 82.9014 45.07C83.3121 44.7993 83.8441 44.664 84.4974 44.664C85.3374 44.664 85.9814 44.874 86.4294 45.294C86.8774 45.714 87.1014 46.302 87.1014 47.058V51.3H88.0674V52H87.2554ZM84.2174 51.482C84.5067 51.482 84.7774 51.4447 85.0294 51.37C85.2814 51.2953 85.5007 51.1927 85.6874 51.062C85.8834 50.922 86.0327 50.7587 86.1354 50.572C86.2474 50.376 86.3034 50.1567 86.3034 49.914V48.584H84.6234C83.9047 48.584 83.3821 48.7007 83.0554 48.934C82.7381 49.158 82.5794 49.4707 82.5794 49.872V50.208C82.5794 50.628 82.7287 50.9453 83.0274 51.16C83.3261 51.3747 83.7227 51.482 84.2174 51.482ZM91.7402 52.168C91.1149 52.168 90.5782 52.0513 90.1302 51.818C89.6915 51.5847 89.3089 51.244 88.9822 50.796L89.5702 50.334C89.8689 50.726 90.1955 51.0153 90.5502 51.202C90.9049 51.3887 91.3202 51.482 91.7962 51.482C92.3469 51.482 92.7715 51.3653 93.0702 51.132C93.3689 50.8987 93.5182 50.5627 93.5182 50.124C93.5182 49.7413 93.4015 49.4427 93.1682 49.228C92.9442 49.004 92.5709 48.8547 92.0482 48.78L91.4602 48.682C91.1335 48.6353 90.8349 48.5653 90.5642 48.472C90.2935 48.3787 90.0602 48.2527 89.8642 48.094C89.6775 47.9353 89.5282 47.744 89.4162 47.52C89.3135 47.2867 89.2622 47.0067 89.2622 46.68C89.2622 46.344 89.3229 46.05 89.4442 45.798C89.5749 45.546 89.7475 45.336 89.9622 45.168C90.1769 45 90.4335 44.874 90.7322 44.79C91.0309 44.706 91.3529 44.664 91.6982 44.664C92.2955 44.664 92.7855 44.7667 93.1682 44.972C93.5509 45.1773 93.8775 45.4433 94.1482 45.77L93.6162 46.26C93.4295 46.036 93.1775 45.8307 92.8602 45.644C92.5522 45.448 92.1509 45.35 91.6562 45.35C91.1429 45.35 90.7415 45.462 90.4522 45.686C90.1722 45.91 90.0322 46.2273 90.0322 46.638C90.0322 47.058 90.1582 47.3613 90.4102 47.548C90.6715 47.7347 91.0589 47.87 91.5722 47.954L92.1462 48.038C92.8742 48.15 93.4109 48.3693 93.7562 48.696C94.1109 49.0133 94.2882 49.4613 94.2882 50.04C94.2882 50.712 94.0595 51.2347 93.6022 51.608C93.1542 51.9813 92.5335 52.168 91.7402 52.168ZM97.5594 52C97.2701 52 97.0507 51.9207 96.9014 51.762C96.7521 51.6033 96.6774 51.3887 96.6774 51.118V45.532H95.4314V44.832H96.2434C96.4394 44.832 96.5701 44.7947 96.6354 44.72C96.7101 44.636 96.7474 44.4913 96.7474 44.286V42.83H97.4754V44.832H99.0994V45.532H97.4754V51.3H98.9874V52H97.5594ZM103.524 52.168C103.048 52.168 102.614 52.084 102.222 51.916C101.839 51.748 101.508 51.5053 101.228 51.188C100.957 50.8613 100.747 50.4647 100.598 49.998C100.458 49.5313 100.388 49.004 100.388 48.416C100.388 47.828 100.458 47.3053 100.598 46.848C100.747 46.3813 100.957 45.9893 101.228 45.672C101.508 45.3453 101.839 45.098 102.222 44.93C102.605 44.7527 103.034 44.664 103.51 44.664C103.967 44.664 104.383 44.7527 104.756 44.93C105.129 45.098 105.447 45.336 105.708 45.644C105.969 45.952 106.17 46.3253 106.31 46.764C106.459 47.1933 106.534 47.6693 106.534 48.192V48.57H101.228V48.92C101.228 49.2933 101.279 49.6387 101.382 49.956C101.494 50.264 101.648 50.53 101.844 50.754C102.049 50.978 102.297 51.1553 102.586 51.286C102.875 51.4073 103.202 51.468 103.566 51.468C104.611 51.468 105.335 50.9873 105.736 50.026L106.324 50.418C106.1 50.95 105.745 51.3747 105.26 51.692C104.784 52.0093 104.205 52.168 103.524 52.168ZM103.51 45.336C103.165 45.336 102.852 45.4013 102.572 45.532C102.292 45.6533 102.049 45.826 101.844 46.05C101.648 46.274 101.494 46.5447 101.382 46.862C101.279 47.17 101.228 47.5107 101.228 47.884V47.954H105.666V47.842C105.666 47.4687 105.615 47.128 105.512 46.82C105.409 46.5027 105.26 46.2367 105.064 46.022C104.877 45.8073 104.649 45.6393 104.378 45.518C104.117 45.3967 103.827 45.336 103.51 45.336ZM113.198 50.852H113.156C112.969 51.2533 112.694 51.5753 112.33 51.818C111.975 52.0513 111.522 52.168 110.972 52.168C110.048 52.168 109.324 51.8413 108.802 51.188C108.279 50.5347 108.018 49.6107 108.018 48.416C108.018 47.2213 108.279 46.2973 108.802 45.644C109.324 44.9907 110.048 44.664 110.972 44.664C111.522 44.664 111.98 44.7853 112.344 45.028C112.708 45.2613 112.978 45.5787 113.156 45.98H113.198V41.64H113.996V52H113.198V50.852ZM111.154 51.454C111.434 51.454 111.695 51.4167 111.938 51.342C112.19 51.2673 112.409 51.16 112.596 51.02C112.782 50.8707 112.927 50.698 113.03 50.502C113.142 50.2967 113.198 50.068 113.198 49.816V46.974C113.198 46.7407 113.142 46.526 113.03 46.33C112.927 46.134 112.782 45.966 112.596 45.826C112.409 45.686 112.19 45.5787 111.938 45.504C111.695 45.42 111.434 45.378 111.154 45.378C110.435 45.378 109.875 45.6067 109.474 46.064C109.072 46.5213 108.872 47.1373 108.872 47.912V48.92C108.872 49.6947 109.072 50.3107 109.474 50.768C109.875 51.2253 110.435 51.454 111.154 51.454ZM121.941 52.168C121.316 52.168 120.779 52.0513 120.331 51.818C119.893 51.5847 119.51 51.244 119.183 50.796L119.771 50.334C120.07 50.726 120.397 51.0153 120.751 51.202C121.106 51.3887 121.521 51.482 121.997 51.482C122.548 51.482 122.973 51.3653 123.271 51.132C123.57 50.8987 123.719 50.5627 123.719 50.124C123.719 49.7413 123.603 49.4427 123.369 49.228C123.145 49.004 122.772 48.8547 122.249 48.78L121.661 48.682C121.335 48.6353 121.036 48.5653 120.765 48.472C120.495 48.3787 120.261 48.2527 120.065 48.094C119.879 47.9353 119.729 47.744 119.617 47.52C119.515 47.2867 119.463 47.0067 119.463 46.68C119.463 46.344 119.524 46.05 119.645 45.798C119.776 45.546 119.949 45.336 120.163 45.168C120.378 45 120.635 44.874 120.933 44.79C121.232 44.706 121.554 44.664 121.899 44.664C122.497 44.664 122.987 44.7667 123.369 44.972C123.752 45.1773 124.079 45.4433 124.349 45.77L123.817 46.26C123.631 46.036 123.379 45.8307 123.061 45.644C122.753 45.448 122.352 45.35 121.857 45.35C121.344 45.35 120.943 45.462 120.653 45.686C120.373 45.91 120.233 46.2273 120.233 46.638C120.233 47.058 120.359 47.3613 120.611 47.548C120.873 47.7347 121.26 47.87 121.773 47.954L122.347 48.038C123.075 48.15 123.612 48.3693 123.957 48.696C124.312 49.0133 124.489 49.4613 124.489 50.04C124.489 50.712 124.261 51.2347 123.803 51.608C123.355 51.9813 122.735 52.168 121.941 52.168ZM131.511 52C131.203 52 130.979 51.9207 130.839 51.762C130.699 51.6033 130.62 51.3887 130.601 51.118V50.866H130.531C130.373 51.2673 130.111 51.5847 129.747 51.818C129.383 52.0513 128.921 52.168 128.361 52.168C127.605 52.168 127.022 51.986 126.611 51.622C126.201 51.2487 125.995 50.726 125.995 50.054C125.995 49.4193 126.219 48.9153 126.667 48.542C127.125 48.1687 127.871 47.982 128.907 47.982H130.559V47.142C130.559 45.9567 129.948 45.364 128.725 45.364C128.249 45.364 127.853 45.4667 127.535 45.672C127.218 45.868 126.961 46.1527 126.765 46.526L126.261 46.106C126.457 45.686 126.756 45.3407 127.157 45.07C127.568 44.7993 128.1 44.664 128.753 44.664C129.593 44.664 130.237 44.874 130.685 45.294C131.133 45.714 131.357 46.302 131.357 47.058V51.3H132.323V52H131.511ZM128.473 51.482C128.763 51.482 129.033 51.4447 129.285 51.37C129.537 51.2953 129.757 51.1927 129.943 51.062C130.139 50.922 130.289 50.7587 130.391 50.572C130.503 50.376 130.559 50.1567 130.559 49.914V48.584H128.879C128.161 48.584 127.638 48.7007 127.311 48.934C126.994 49.158 126.835 49.4707 126.835 49.872V50.208C126.835 50.628 126.985 50.9453 127.283 51.16C127.582 51.3747 127.979 51.482 128.473 51.482ZM134.848 52C134.559 52 134.339 51.9207 134.19 51.762C134.041 51.6033 133.966 51.3933 133.966 51.132V41.64H134.764V51.3H135.87V52H134.848ZM140.219 52.168C139.743 52.168 139.309 52.084 138.917 51.916C138.535 51.748 138.203 51.5053 137.923 51.188C137.653 50.8613 137.443 50.4647 137.293 49.998C137.153 49.5313 137.083 49.004 137.083 48.416C137.083 47.828 137.153 47.3053 137.293 46.848C137.443 46.3813 137.653 45.9893 137.923 45.672C138.203 45.3453 138.535 45.098 138.917 44.93C139.3 44.7527 139.729 44.664 140.205 44.664C140.663 44.664 141.078 44.7527 141.451 44.93C141.825 45.098 142.142 45.336 142.403 45.644C142.665 45.952 142.865 46.3253 143.005 46.764C143.155 47.1933 143.229 47.6693 143.229 48.192V48.57H137.923V48.92C137.923 49.2933 137.975 49.6387 138.077 49.956C138.189 50.264 138.343 50.53 138.539 50.754C138.745 50.978 138.992 51.1553 139.281 51.286C139.571 51.4073 139.897 51.468 140.261 51.468C141.307 51.468 142.03 50.9873 142.431 50.026L143.019 50.418C142.795 50.95 142.441 51.3747 141.955 51.692C141.479 52.0093 140.901 52.168 140.219 52.168ZM140.205 45.336C139.86 45.336 139.547 45.4013 139.267 45.532C138.987 45.6533 138.745 45.826 138.539 46.05C138.343 46.274 138.189 46.5447 138.077 46.862C137.975 47.17 137.923 47.5107 137.923 47.884V47.954H142.361V47.842C142.361 47.4687 142.31 47.128 142.207 46.82C142.105 46.5027 141.955 46.2367 141.759 46.022C141.573 45.8073 141.344 45.6393 141.073 45.518C140.812 45.3967 140.523 45.336 140.205 45.336ZM147.289 52.168C146.664 52.168 146.127 52.0513 145.679 51.818C145.24 51.5847 144.858 51.244 144.531 50.796L145.119 50.334C145.418 50.726 145.744 51.0153 146.099 51.202C146.454 51.3887 146.869 51.482 147.345 51.482C147.896 51.482 148.32 51.3653 148.619 51.132C148.918 50.8987 149.067 50.5627 149.067 50.124C149.067 49.7413 148.95 49.4427 148.717 49.228C148.493 49.004 148.12 48.8547 147.597 48.78L147.009 48.682C146.682 48.6353 146.384 48.5653 146.113 48.472C145.842 48.3787 145.609 48.2527 145.413 48.094C145.226 47.9353 145.077 47.744 144.965 47.52C144.862 47.2867 144.811 47.0067 144.811 46.68C144.811 46.344 144.872 46.05 144.993 45.798C145.124 45.546 145.296 45.336 145.511 45.168C145.726 45 145.982 44.874 146.281 44.79C146.58 44.706 146.902 44.664 147.247 44.664C147.844 44.664 148.334 44.7667 148.717 44.972C149.1 45.1773 149.426 45.4433 149.697 45.77L149.165 46.26C148.978 46.036 148.726 45.8307 148.409 45.644C148.101 45.448 147.7 45.35 147.205 45.35C146.692 45.35 146.29 45.462 146.001 45.686C145.721 45.91 145.581 46.2273 145.581 46.638C145.581 47.058 145.707 47.3613 145.959 47.548C146.22 47.7347 146.608 47.87 147.121 47.954L147.695 48.038C148.423 48.15 148.96 48.3693 149.305 48.696C149.66 49.0133 149.837 49.4613 149.837 50.04C149.837 50.712 149.608 51.2347 149.151 51.608C148.703 51.9813 148.082 52.168 147.289 52.168Z" fill="white"/>
</svg>
