<svg width="307" height="72" viewBox="0 0 307 72" fill="none" xmlns="http://www.w3.org/2000/svg">
<rect width="307" height="72" fill="#444444"/>
<path d="M21.396 20.97V30H20.556V20.97H17.28V20.228H24.672V20.97H21.396ZM30.2027 30C29.8947 30 29.6707 29.9207 29.5307 29.762C29.3907 29.6033 29.3113 29.3887 29.2927 29.118V28.866H29.2227C29.064 29.2673 28.8027 29.5847 28.4387 29.818C28.0747 30.0513 27.6127 30.168 27.0527 30.168C26.2967 30.168 25.7133 29.986 25.3027 29.622C24.892 29.2487 24.6867 28.726 24.6867 28.054C24.6867 27.4193 24.9107 26.9153 25.3587 26.542C25.816 26.1687 26.5627 25.982 27.5987 25.982H29.2507V25.142C29.2507 23.9567 28.6393 23.364 27.4167 23.364C26.9407 23.364 26.544 23.4667 26.2267 23.672C25.9093 23.868 25.6527 24.1527 25.4567 24.526L24.9527 24.106C25.1487 23.686 25.4473 23.3407 25.8487 23.07C26.2593 22.7993 26.7913 22.664 27.4447 22.664C28.2847 22.664 28.9287 22.874 29.3767 23.294C29.8247 23.714 30.0487 24.302 30.0487 25.058V29.3H31.0147V30H30.2027ZM27.1647 29.482C27.454 29.482 27.7247 29.4447 27.9767 29.37C28.2287 29.2953 28.448 29.1927 28.6347 29.062C28.8307 28.922 28.98 28.7587 29.0827 28.572C29.1947 28.376 29.2507 28.1567 29.2507 27.914V26.584H27.5707C26.852 26.584 26.3293 26.7007 26.0027 26.934C25.6853 27.158 25.5267 27.4707 25.5267 27.872V28.208C25.5267 28.628 25.676 28.9453 25.9747 29.16C26.2733 29.3747 26.67 29.482 27.1647 29.482ZM32.6575 19.64H33.4555V26.486H33.4975L34.6175 25.296L36.9975 22.832H37.9775L35.1635 25.744L38.2855 30H37.3055L34.5895 26.248L33.4555 27.396V30H32.6575V19.64ZM42.2058 30.168C41.7298 30.168 41.2958 30.084 40.9038 29.916C40.5211 29.748 40.1898 29.5053 39.9098 29.188C39.6391 28.8613 39.4291 28.4647 39.2798 27.998C39.1398 27.5313 39.0698 27.004 39.0698 26.416C39.0698 25.828 39.1398 25.3053 39.2798 24.848C39.4291 24.3813 39.6391 23.9893 39.9098 23.672C40.1898 23.3453 40.5211 23.098 40.9038 22.93C41.2865 22.7527 41.7158 22.664 42.1918 22.664C42.6491 22.664 43.0645 22.7527 43.4378 22.93C43.8111 23.098 44.1285 23.336 44.3898 23.644C44.6511 23.952 44.8518 24.3253 44.9918 24.764C45.1411 25.1933 45.2158 25.6693 45.2158 26.192V26.57H39.9098V26.92C39.9098 27.2933 39.9611 27.6387 40.0638 27.956C40.1758 28.264 40.3298 28.53 40.5258 28.754C40.7311 28.978 40.9785 29.1553 41.2678 29.286C41.5571 29.4073 41.8838 29.468 42.2478 29.468C43.2931 29.468 44.0165 28.9873 44.4178 28.026L45.0058 28.418C44.7818 28.95 44.4271 29.3747 43.9418 29.692C43.4658 30.0093 42.8871 30.168 42.2058 30.168ZM42.1918 23.336C41.8465 23.336 41.5338 23.4013 41.2538 23.532C40.9738 23.6533 40.7311 23.826 40.5258 24.05C40.3298 24.274 40.1758 24.5447 40.0638 24.862C39.9611 25.17 39.9098 25.5107 39.9098 25.884V25.954H44.3478V25.842C44.3478 25.4687 44.2965 25.128 44.1938 24.82C44.0911 24.5027 43.9418 24.2367 43.7458 24.022C43.5591 23.8073 43.3305 23.6393 43.0598 23.518C42.7985 23.3967 42.5091 23.336 42.1918 23.336ZM55.482 30C55.174 30 54.95 29.9207 54.81 29.762C54.67 29.6033 54.5906 29.3887 54.572 29.118V28.866H54.502C54.3433 29.2673 54.082 29.5847 53.718 29.818C53.354 30.0513 52.892 30.168 52.332 30.168C51.576 30.168 50.9926 29.986 50.582 29.622C50.1713 29.2487 49.966 28.726 49.966 28.054C49.966 27.4193 50.19 26.9153 50.638 26.542C51.0953 26.1687 51.842 25.982 52.878 25.982H54.53V25.142C54.53 23.9567 53.9186 23.364 52.696 23.364C52.22 23.364 51.8233 23.4667 51.506 23.672C51.1886 23.868 50.932 24.1527 50.736 24.526L50.232 24.106C50.428 23.686 50.7266 23.3407 51.128 23.07C51.5386 22.7993 52.0706 22.664 52.724 22.664C53.564 22.664 54.208 22.874 54.656 23.294C55.104 23.714 55.328 24.302 55.328 25.058V29.3H56.294V30H55.482ZM52.444 29.482C52.7333 29.482 53.004 29.4447 53.256 29.37C53.508 29.2953 53.7273 29.1927 53.914 29.062C54.11 28.922 54.2593 28.7587 54.362 28.572C54.474 28.376 54.53 28.1567 54.53 27.914V26.584H52.85C52.1313 26.584 51.6086 26.7007 51.282 26.934C50.9646 27.158 50.806 27.4707 50.806 27.872V28.208C50.806 28.628 50.9553 28.9453 51.254 29.16C51.5526 29.3747 51.9493 29.482 52.444 29.482ZM57.9368 30V22.832H58.7348V23.966H58.7768C58.9354 23.5927 59.1828 23.2847 59.5188 23.042C59.8548 22.79 60.3121 22.664 60.8908 22.664C61.6561 22.664 62.2488 22.902 62.6688 23.378C63.0981 23.8447 63.3128 24.5167 63.3128 25.394V30H62.5148V25.534C62.5148 24.806 62.3561 24.2647 62.0388 23.91C61.7308 23.5553 61.2781 23.378 60.6808 23.378C60.4288 23.378 60.1861 23.4107 59.9528 23.476C59.7194 23.5413 59.5094 23.6393 59.3228 23.77C59.1454 23.9007 59.0008 24.0687 58.8888 24.274C58.7861 24.47 58.7348 24.6987 58.7348 24.96V30H57.9368ZM71.682 30.168C71.206 30.168 70.7767 30.084 70.394 29.916C70.0114 29.748 69.6847 29.5053 69.414 29.188C69.1434 28.8613 68.9334 28.4647 68.784 27.998C68.6347 27.5313 68.56 27.004 68.56 26.416C68.56 25.828 68.6347 25.3053 68.784 24.848C68.9334 24.3813 69.1434 23.9893 69.414 23.672C69.6847 23.3453 70.0114 23.098 70.394 22.93C70.7767 22.7527 71.206 22.664 71.682 22.664C72.158 22.664 72.5874 22.7527 72.97 22.93C73.3527 23.098 73.6794 23.3453 73.95 23.672C74.2207 23.9893 74.4307 24.3813 74.58 24.848C74.7294 25.3053 74.804 25.828 74.804 26.416C74.804 27.004 74.7294 27.5313 74.58 27.998C74.4307 28.4647 74.2207 28.8613 73.95 29.188C73.6794 29.5053 73.3527 29.748 72.97 29.916C72.5874 30.084 72.158 30.168 71.682 30.168ZM71.682 29.454C72.382 29.454 72.9327 29.2347 73.334 28.796C73.7447 28.3573 73.95 27.7133 73.95 26.864V25.968C73.95 25.128 73.7447 24.4887 73.334 24.05C72.9327 23.602 72.382 23.378 71.682 23.378C70.982 23.378 70.4267 23.5973 70.016 24.036C69.6147 24.4747 69.414 25.1187 69.414 25.968V26.864C69.414 27.704 69.6147 28.348 70.016 28.796C70.4267 29.2347 70.982 29.454 71.682 29.454ZM76.8313 30V22.832H77.6293V24.12H77.6853C77.8253 23.784 78.0633 23.4853 78.3993 23.224C78.7353 22.9627 79.2113 22.832 79.8273 22.832H80.3033V23.616H79.6733C79.076 23.616 78.586 23.7467 78.2033 24.008C77.8206 24.2693 77.6293 24.6333 77.6293 25.1V30H76.8313ZM86.4145 28.852H86.3725C86.1858 29.2533 85.9105 29.5753 85.5465 29.818C85.1918 30.0513 84.7392 30.168 84.1885 30.168C83.2645 30.168 82.5412 29.8413 82.0185 29.188C81.4958 28.5347 81.2345 27.6107 81.2345 26.416C81.2345 25.2213 81.4958 24.2973 82.0185 23.644C82.5412 22.9907 83.2645 22.664 84.1885 22.664C84.7392 22.664 85.1965 22.7853 85.5605 23.028C85.9245 23.2613 86.1952 23.5787 86.3725 23.98H86.4145V19.64H87.2125V30H86.4145V28.852ZM84.3705 29.454C84.6505 29.454 84.9118 29.4167 85.1545 29.342C85.4065 29.2673 85.6258 29.16 85.8125 29.02C85.9992 28.8707 86.1438 28.698 86.2465 28.502C86.3585 28.2967 86.4145 28.068 86.4145 27.816V24.974C86.4145 24.7407 86.3585 24.526 86.2465 24.33C86.1438 24.134 85.9992 23.966 85.8125 23.826C85.6258 23.686 85.4065 23.5787 85.1545 23.504C84.9118 23.42 84.6505 23.378 84.3705 23.378C83.6518 23.378 83.0918 23.6067 82.6905 24.064C82.2892 24.5213 82.0885 25.1373 82.0885 25.912V26.92C82.0885 27.6947 82.2892 28.3107 82.6905 28.768C83.0918 29.2253 83.6518 29.454 84.3705 29.454ZM92.3816 30.168C91.9056 30.168 91.4716 30.084 91.0796 29.916C90.6969 29.748 90.3656 29.5053 90.0856 29.188C89.8149 28.8613 89.6049 28.4647 89.4556 27.998C89.3156 27.5313 89.2456 27.004 89.2456 26.416C89.2456 25.828 89.3156 25.3053 89.4556 24.848C89.6049 24.3813 89.8149 23.9893 90.0856 23.672C90.3656 23.3453 90.6969 23.098 91.0796 22.93C91.4622 22.7527 91.8916 22.664 92.3676 22.664C92.8249 22.664 93.2402 22.7527 93.6136 22.93C93.9869 23.098 94.3042 23.336 94.5656 23.644C94.8269 23.952 95.0276 24.3253 95.1676 24.764C95.3169 25.1933 95.3916 25.6693 95.3916 26.192V26.57H90.0856V26.92C90.0856 27.2933 90.1369 27.6387 90.2396 27.956C90.3516 28.264 90.5056 28.53 90.7016 28.754C90.9069 28.978 91.1542 29.1553 91.4436 29.286C91.7329 29.4073 92.0596 29.468 92.4236 29.468C93.4689 29.468 94.1922 28.9873 94.5936 28.026L95.1816 28.418C94.9576 28.95 94.6029 29.3747 94.1176 29.692C93.6416 30.0093 93.0629 30.168 92.3816 30.168ZM92.3676 23.336C92.0222 23.336 91.7096 23.4013 91.4296 23.532C91.1496 23.6533 90.9069 23.826 90.7016 24.05C90.5056 24.274 90.3516 24.5447 90.2396 24.862C90.1369 25.17 90.0856 25.5107 90.0856 25.884V25.954H94.5236V25.842C94.5236 25.4687 94.4722 25.128 94.3696 24.82C94.2669 24.5027 94.1176 24.2367 93.9216 24.022C93.7349 23.8073 93.5062 23.6393 93.2356 23.518C92.9742 23.3967 92.6849 23.336 92.3676 23.336ZM97.4211 30V22.832H98.2191V24.12H98.2751C98.4151 23.784 98.6531 23.4853 98.9891 23.224C99.3251 22.9627 99.8011 22.832 100.417 22.832H100.893V23.616H100.263C99.6658 23.616 99.1758 23.7467 98.7931 24.008C98.4105 24.2693 98.2191 24.6333 98.2191 25.1V30H97.4211ZM108.282 30.168C107.806 30.168 107.376 30.084 106.994 29.916C106.611 29.748 106.284 29.5053 106.014 29.188C105.743 28.8613 105.533 28.4647 105.384 27.998C105.234 27.5313 105.16 27.004 105.16 26.416C105.16 25.828 105.234 25.3053 105.384 24.848C105.533 24.3813 105.743 23.9893 106.014 23.672C106.284 23.3453 106.611 23.098 106.994 22.93C107.376 22.7527 107.806 22.664 108.282 22.664C108.758 22.664 109.187 22.7527 109.57 22.93C109.952 23.098 110.279 23.3453 110.55 23.672C110.82 23.9893 111.03 24.3813 111.18 24.848C111.329 25.3053 111.404 25.828 111.404 26.416C111.404 27.004 111.329 27.5313 111.18 27.998C111.03 28.4647 110.82 28.8613 110.55 29.188C110.279 29.5053 109.952 29.748 109.57 29.916C109.187 30.084 108.758 30.168 108.282 30.168ZM108.282 29.454C108.982 29.454 109.532 29.2347 109.934 28.796C110.344 28.3573 110.55 27.7133 110.55 26.864V25.968C110.55 25.128 110.344 24.4887 109.934 24.05C109.532 23.602 108.982 23.378 108.282 23.378C107.582 23.378 107.026 23.5973 106.616 24.036C106.214 24.4747 106.014 25.1187 106.014 25.968V26.864C106.014 27.704 106.214 28.348 106.616 28.796C107.026 29.2347 107.582 29.454 108.282 29.454ZM113.431 30V22.832H114.229V23.966H114.271C114.43 23.5927 114.677 23.2847 115.013 23.042C115.349 22.79 115.806 22.664 116.385 22.664C117.15 22.664 117.743 22.902 118.163 23.378C118.592 23.8447 118.807 24.5167 118.807 25.394V30H118.009V25.534C118.009 24.806 117.85 24.2647 117.533 23.91C117.225 23.5553 116.772 23.378 116.175 23.378C115.923 23.378 115.68 23.4107 115.447 23.476C115.214 23.5413 115.004 23.6393 114.817 23.77C114.64 23.9007 114.495 24.0687 114.383 24.274C114.28 24.47 114.229 24.6987 114.229 24.96V30H113.431ZM125.86 30C125.571 30 125.352 29.9207 125.202 29.762C125.053 29.6033 124.978 29.3887 124.978 29.118V23.532H123.732V22.832H124.544C124.74 22.832 124.871 22.7947 124.936 22.72C125.011 22.636 125.048 22.4913 125.048 22.286V20.83H125.776V22.832H127.4V23.532H125.776V29.3H127.288V30H125.86ZM129.318 19.64H130.116V23.966H130.158C130.316 23.5927 130.564 23.2847 130.9 23.042C131.236 22.79 131.693 22.664 132.272 22.664C133.037 22.664 133.63 22.902 134.05 23.378C134.479 23.8447 134.694 24.5167 134.694 25.394V30H133.896V25.534C133.896 24.806 133.737 24.2647 133.42 23.91C133.112 23.5553 132.659 23.378 132.062 23.378C131.81 23.378 131.567 23.4107 131.334 23.476C131.1 23.5413 130.89 23.6393 130.704 23.77C130.526 23.9007 130.382 24.0687 130.27 24.274C130.167 24.47 130.116 24.6987 130.116 24.96V30H129.318V19.64ZM139.768 30.168C139.292 30.168 138.858 30.084 138.466 29.916C138.084 29.748 137.752 29.5053 137.472 29.188C137.202 28.8613 136.992 28.4647 136.842 27.998C136.702 27.5313 136.632 27.004 136.632 26.416C136.632 25.828 136.702 25.3053 136.842 24.848C136.992 24.3813 137.202 23.9893 137.472 23.672C137.752 23.3453 138.084 23.098 138.466 22.93C138.849 22.7527 139.278 22.664 139.754 22.664C140.212 22.664 140.627 22.7527 141 22.93C141.374 23.098 141.691 23.336 141.952 23.644C142.214 23.952 142.414 24.3253 142.554 24.764C142.704 25.1933 142.778 25.6693 142.778 26.192V26.57H137.472V26.92C137.472 27.2933 137.524 27.6387 137.626 27.956C137.738 28.264 137.892 28.53 138.088 28.754C138.294 28.978 138.541 29.1553 138.83 29.286C139.12 29.4073 139.446 29.468 139.81 29.468C140.856 29.468 141.579 28.9873 141.98 28.026L142.568 28.418C142.344 28.95 141.99 29.3747 141.504 29.692C141.028 30.0093 140.45 30.168 139.768 30.168ZM139.754 23.336C139.409 23.336 139.096 23.4013 138.816 23.532C138.536 23.6533 138.294 23.826 138.088 24.05C137.892 24.274 137.738 24.5447 137.626 24.862C137.524 25.17 137.472 25.5107 137.472 25.884V25.954H141.91V25.842C141.91 25.4687 141.859 25.128 141.756 24.82C141.654 24.5027 141.504 24.2367 141.308 24.022C141.122 23.8073 140.893 23.6393 140.622 23.518C140.361 23.3967 140.072 23.336 139.754 23.336ZM150.146 30.168C149.521 30.168 148.984 30.0513 148.536 29.818C148.098 29.5847 147.715 29.244 147.388 28.796L147.976 28.334C148.275 28.726 148.602 29.0153 148.956 29.202C149.311 29.3887 149.726 29.482 150.202 29.482C150.753 29.482 151.178 29.3653 151.476 29.132C151.775 28.8987 151.924 28.5627 151.924 28.124C151.924 27.7413 151.808 27.4427 151.574 27.228C151.35 27.004 150.977 26.8547 150.454 26.78L149.866 26.682C149.54 26.6353 149.241 26.5653 148.97 26.472C148.7 26.3787 148.466 26.2527 148.27 26.094C148.084 25.9353 147.934 25.744 147.822 25.52C147.72 25.2867 147.668 25.0067 147.668 24.68C147.668 24.344 147.729 24.05 147.85 23.798C147.981 23.546 148.154 23.336 148.368 23.168C148.583 23 148.84 22.874 149.138 22.79C149.437 22.706 149.759 22.664 150.104 22.664C150.702 22.664 151.192 22.7667 151.574 22.972C151.957 23.1773 152.284 23.4433 152.554 23.77L152.022 24.26C151.836 24.036 151.584 23.8307 151.266 23.644C150.958 23.448 150.557 23.35 150.062 23.35C149.549 23.35 149.148 23.462 148.858 23.686C148.578 23.91 148.438 24.2273 148.438 24.638C148.438 25.058 148.564 25.3613 148.816 25.548C149.078 25.7347 149.465 25.87 149.978 25.954L150.552 26.038C151.28 26.15 151.817 26.3693 152.162 26.696C152.517 27.0133 152.694 27.4613 152.694 28.04C152.694 28.712 152.466 29.2347 152.008 29.608C151.56 29.9813 150.94 30.168 150.146 30.168ZM158.84 22.832H159.652L156.334 32.016C156.222 32.3147 156.087 32.52 155.928 32.632C155.769 32.744 155.508 32.8 155.144 32.8H154.332V32.1H155.536L156.222 30.21L153.562 22.832H154.402L156.6 29.146H156.656L158.84 22.832ZM163.258 30.168C162.632 30.168 162.096 30.0513 161.648 29.818C161.209 29.5847 160.826 29.244 160.5 28.796L161.088 28.334C161.386 28.726 161.713 29.0153 162.068 29.202C162.422 29.3887 162.838 29.482 163.314 29.482C163.864 29.482 164.289 29.3653 164.588 29.132C164.886 28.8987 165.036 28.5627 165.036 28.124C165.036 27.7413 164.919 27.4427 164.686 27.228C164.462 27.004 164.088 26.8547 163.566 26.78L162.978 26.682C162.651 26.6353 162.352 26.5653 162.082 26.472C161.811 26.3787 161.578 26.2527 161.382 26.094C161.195 25.9353 161.046 25.744 160.934 25.52C160.831 25.2867 160.78 25.0067 160.78 24.68C160.78 24.344 160.84 24.05 160.962 23.798C161.092 23.546 161.265 23.336 161.48 23.168C161.694 23 161.951 22.874 162.25 22.79C162.548 22.706 162.87 22.664 163.216 22.664C163.813 22.664 164.303 22.7667 164.686 22.972C165.068 23.1773 165.395 23.4433 165.666 23.77L165.134 24.26C164.947 24.036 164.695 23.8307 164.378 23.644C164.07 23.448 163.668 23.35 163.174 23.35C162.66 23.35 162.259 23.462 161.97 23.686C161.69 23.91 161.55 24.2273 161.55 24.638C161.55 25.058 161.676 25.3613 161.928 25.548C162.189 25.7347 162.576 25.87 163.09 25.954L163.664 26.038C164.392 26.15 164.928 26.3693 165.274 26.696C165.628 27.0133 165.806 27.4613 165.806 28.04C165.806 28.712 165.577 29.2347 165.12 29.608C164.672 29.9813 164.051 30.168 163.258 30.168ZM169.077 30C168.788 30 168.568 29.9207 168.419 29.762C168.27 29.6033 168.195 29.3887 168.195 29.118V23.532H166.949V22.832H167.761C167.957 22.832 168.088 22.7947 168.153 22.72C168.228 22.636 168.265 22.4913 168.265 22.286V20.83H168.993V22.832H170.617V23.532H168.993V29.3H170.505V30H169.077ZM175.042 30.168C174.566 30.168 174.132 30.084 173.74 29.916C173.357 29.748 173.026 29.5053 172.746 29.188C172.475 28.8613 172.265 28.4647 172.116 27.998C171.976 27.5313 171.906 27.004 171.906 26.416C171.906 25.828 171.976 25.3053 172.116 24.848C172.265 24.3813 172.475 23.9893 172.746 23.672C173.026 23.3453 173.357 23.098 173.74 22.93C174.122 22.7527 174.552 22.664 175.028 22.664C175.485 22.664 175.9 22.7527 176.274 22.93C176.647 23.098 176.964 23.336 177.226 23.644C177.487 23.952 177.688 24.3253 177.828 24.764C177.977 25.1933 178.052 25.6693 178.052 26.192V26.57H172.746V26.92C172.746 27.2933 172.797 27.6387 172.9 27.956C173.012 28.264 173.166 28.53 173.362 28.754C173.567 28.978 173.814 29.1553 174.104 29.286C174.393 29.4073 174.72 29.468 175.084 29.468C176.129 29.468 176.852 28.9873 177.254 28.026L177.842 28.418C177.618 28.95 177.263 29.3747 176.778 29.692C176.302 30.0093 175.723 30.168 175.042 30.168ZM175.028 23.336C174.682 23.336 174.37 23.4013 174.09 23.532C173.81 23.6533 173.567 23.826 173.362 24.05C173.166 24.274 173.012 24.5447 172.9 24.862C172.797 25.17 172.746 25.5107 172.746 25.884V25.954H177.184V25.842C177.184 25.4687 177.132 25.128 177.03 24.82C176.927 24.5027 176.778 24.2367 176.582 24.022C176.395 23.8073 176.166 23.6393 175.896 23.518C175.634 23.3967 175.345 23.336 175.028 23.336ZM180.081 30V22.832H180.879V23.966H180.921C180.996 23.7887 181.089 23.6253 181.201 23.476C181.313 23.3173 181.449 23.1773 181.607 23.056C181.766 22.9347 181.953 22.8413 182.167 22.776C182.391 22.7013 182.653 22.664 182.951 22.664C183.465 22.664 183.917 22.7853 184.309 23.028C184.701 23.2707 184.986 23.6533 185.163 24.176H185.205C185.336 23.756 185.583 23.4013 185.947 23.112C186.321 22.8133 186.825 22.664 187.459 22.664C188.225 22.664 188.813 22.902 189.223 23.378C189.634 23.8447 189.839 24.5167 189.839 25.394V30H189.041V25.534C189.041 24.0967 188.439 23.378 187.235 23.378C186.983 23.378 186.745 23.4107 186.521 23.476C186.297 23.5413 186.097 23.644 185.919 23.784C185.751 23.9147 185.616 24.0827 185.513 24.288C185.411 24.484 185.359 24.7127 185.359 24.974V30H184.561V25.534C184.561 24.0967 183.964 23.378 182.769 23.378C182.527 23.378 182.289 23.4107 182.055 23.476C181.831 23.5413 181.631 23.6393 181.453 23.77C181.276 23.9007 181.136 24.0687 181.033 24.274C180.931 24.47 180.879 24.6987 180.879 24.96V30H180.081ZM192.863 28.712C193.096 28.712 193.264 28.7727 193.367 28.894C193.479 29.0153 193.535 29.1693 193.535 29.356V29.538C193.535 29.93 193.423 30.3453 193.199 30.784C192.984 31.232 192.695 31.6147 192.331 31.932H191.659C191.967 31.6147 192.2 31.3067 192.359 31.008C192.527 30.7093 192.639 30.406 192.695 30.098C192.508 30.0793 192.378 30.0187 192.303 29.916C192.228 29.804 192.191 29.6733 192.191 29.524V29.356C192.191 29.1693 192.242 29.0153 192.345 28.894C192.457 28.7727 192.63 28.712 192.863 28.712ZM201.32 30.168C200.695 30.168 200.158 30.0513 199.71 29.818C199.272 29.5847 198.889 29.244 198.562 28.796L199.15 28.334C199.449 28.726 199.776 29.0153 200.13 29.202C200.485 29.3887 200.9 29.482 201.376 29.482C201.927 29.482 202.352 29.3653 202.65 29.132C202.949 28.8987 203.098 28.5627 203.098 28.124C203.098 27.7413 202.982 27.4427 202.748 27.228C202.524 27.004 202.151 26.8547 201.628 26.78L201.04 26.682C200.714 26.6353 200.415 26.5653 200.144 26.472C199.874 26.3787 199.64 26.2527 199.444 26.094C199.258 25.9353 199.108 25.744 198.996 25.52C198.894 25.2867 198.842 25.0067 198.842 24.68C198.842 24.344 198.903 24.05 199.024 23.798C199.155 23.546 199.328 23.336 199.542 23.168C199.757 23 200.014 22.874 200.312 22.79C200.611 22.706 200.933 22.664 201.278 22.664C201.876 22.664 202.366 22.7667 202.748 22.972C203.131 23.1773 203.458 23.4433 203.728 23.77L203.196 24.26C203.01 24.036 202.758 23.8307 202.44 23.644C202.132 23.448 201.731 23.35 201.236 23.35C200.723 23.35 200.322 23.462 200.032 23.686C199.752 23.91 199.612 24.2273 199.612 24.638C199.612 25.058 199.738 25.3613 199.99 25.548C200.252 25.7347 200.639 25.87 201.152 25.954L201.726 26.038C202.454 26.15 202.991 26.3693 203.336 26.696C203.691 27.0133 203.868 27.4613 203.868 28.04C203.868 28.712 203.64 29.2347 203.182 29.608C202.734 29.9813 202.114 30.168 201.32 30.168ZM208.524 30.168C208.048 30.168 207.614 30.084 207.222 29.916C206.839 29.748 206.508 29.5053 206.228 29.188C205.957 28.8613 205.747 28.4647 205.598 27.998C205.458 27.5313 205.388 27.004 205.388 26.416C205.388 25.828 205.458 25.3053 205.598 24.848C205.747 24.3813 205.957 23.9893 206.228 23.672C206.508 23.3453 206.839 23.098 207.222 22.93C207.605 22.7527 208.034 22.664 208.51 22.664C208.967 22.664 209.383 22.7527 209.756 22.93C210.129 23.098 210.447 23.336 210.708 23.644C210.969 23.952 211.17 24.3253 211.31 24.764C211.459 25.1933 211.534 25.6693 211.534 26.192V26.57H206.228V26.92C206.228 27.2933 206.279 27.6387 206.382 27.956C206.494 28.264 206.648 28.53 206.844 28.754C207.049 28.978 207.297 29.1553 207.586 29.286C207.875 29.4073 208.202 29.468 208.566 29.468C209.611 29.468 210.335 28.9873 210.736 28.026L211.324 28.418C211.1 28.95 210.745 29.3747 210.26 29.692C209.784 30.0093 209.205 30.168 208.524 30.168ZM208.51 23.336C208.165 23.336 207.852 23.4013 207.572 23.532C207.292 23.6533 207.049 23.826 206.844 24.05C206.648 24.274 206.494 24.5447 206.382 24.862C206.279 25.17 206.228 25.5107 206.228 25.884V25.954H210.666V25.842C210.666 25.4687 210.615 25.128 210.512 24.82C210.409 24.5027 210.26 24.2367 210.064 24.022C209.877 23.8073 209.649 23.6393 209.378 23.518C209.117 23.3967 208.827 23.336 208.51 23.336ZM213.564 30V22.832H214.362V23.966H214.404C214.562 23.5927 214.81 23.2847 215.146 23.042C215.482 22.79 215.939 22.664 216.518 22.664C217.283 22.664 217.876 22.902 218.296 23.378C218.725 23.8447 218.94 24.5167 218.94 25.394V30H218.142V25.534C218.142 24.806 217.983 24.2647 217.666 23.91C217.358 23.5553 216.905 23.378 216.308 23.378C216.056 23.378 215.813 23.4107 215.58 23.476C215.346 23.5413 215.136 23.6393 214.95 23.77C214.772 23.9007 214.628 24.0687 214.516 24.274C214.413 24.47 214.362 24.6987 214.362 24.96V30H213.564ZM226.086 28.852H226.044C225.858 29.2533 225.582 29.5753 225.218 29.818C224.864 30.0513 224.411 30.168 223.86 30.168C222.936 30.168 222.213 29.8413 221.69 29.188C221.168 28.5347 220.906 27.6107 220.906 26.416C220.906 25.2213 221.168 24.2973 221.69 23.644C222.213 22.9907 222.936 22.664 223.86 22.664C224.411 22.664 224.868 22.7853 225.232 23.028C225.596 23.2613 225.867 23.5787 226.044 23.98H226.086V19.64H226.884V30H226.086V28.852ZM224.042 29.454C224.322 29.454 224.584 29.4167 224.826 29.342C225.078 29.2673 225.298 29.16 225.484 29.02C225.671 28.8707 225.816 28.698 225.918 28.502C226.03 28.2967 226.086 28.068 226.086 27.816V24.974C226.086 24.7407 226.03 24.526 225.918 24.33C225.816 24.134 225.671 23.966 225.484 23.826C225.298 23.686 225.078 23.5787 224.826 23.504C224.584 23.42 224.322 23.378 224.042 23.378C223.324 23.378 222.764 23.6067 222.362 24.064C221.961 24.5213 221.76 25.1373 221.76 25.912V26.92C221.76 27.6947 221.961 28.3107 222.362 28.768C222.764 29.2253 223.324 29.454 224.042 29.454ZM237.728 30C237.42 30 237.196 29.9207 237.056 29.762C236.916 29.6033 236.837 29.3887 236.818 29.118V28.866H236.748C236.589 29.2673 236.328 29.5847 235.964 29.818C235.6 30.0513 235.138 30.168 234.578 30.168C233.822 30.168 233.239 29.986 232.828 29.622C232.417 29.2487 232.212 28.726 232.212 28.054C232.212 27.4193 232.436 26.9153 232.884 26.542C233.341 26.1687 234.088 25.982 235.124 25.982H236.776V25.142C236.776 23.9567 236.165 23.364 234.942 23.364C234.466 23.364 234.069 23.4667 233.752 23.672C233.435 23.868 233.178 24.1527 232.982 24.526L232.478 24.106C232.674 23.686 232.973 23.3407 233.374 23.07C233.785 22.7993 234.317 22.664 234.97 22.664C235.81 22.664 236.454 22.874 236.902 23.294C237.35 23.714 237.574 24.302 237.574 25.058V29.3H238.54V30H237.728ZM234.69 29.482C234.979 29.482 235.25 29.4447 235.502 29.37C235.754 29.2953 235.973 29.1927 236.16 29.062C236.356 28.922 236.505 28.7587 236.608 28.572C236.72 28.376 236.776 28.1567 236.776 27.914V26.584H235.096C234.377 26.584 233.855 26.7007 233.528 26.934C233.211 27.158 233.052 27.4707 233.052 27.872V28.208C233.052 28.628 233.201 28.9453 233.5 29.16C233.799 29.3747 234.195 29.482 234.69 29.482ZM18.302 44.832H19.1V45.98H19.142C19.3193 45.5787 19.59 45.2613 19.954 45.028C20.318 44.7853 20.7753 44.664 21.326 44.664C22.25 44.664 22.9733 44.9907 23.496 45.644C24.0187 46.2973 24.28 47.2213 24.28 48.416C24.28 49.6107 24.0187 50.5347 23.496 51.188C22.9733 51.8413 22.25 52.168 21.326 52.168C20.7753 52.168 20.3227 52.0513 19.968 51.818C19.6133 51.5753 19.338 51.2533 19.142 50.852H19.1V54.8H18.302V44.832ZM21.144 51.454C21.8627 51.454 22.4227 51.2253 22.824 50.768C23.2253 50.3107 23.426 49.6947 23.426 48.92V47.912C23.426 47.1373 23.2253 46.5213 22.824 46.064C22.4227 45.6067 21.8627 45.378 21.144 45.378C20.864 45.378 20.598 45.42 20.346 45.504C20.1033 45.5787 19.8887 45.686 19.702 45.826C19.5153 45.966 19.366 46.134 19.254 46.33C19.1513 46.526 19.1 46.7407 19.1 46.974V49.816C19.1 50.068 19.1513 50.2967 19.254 50.502C19.366 50.698 19.5153 50.8707 19.702 51.02C19.8887 51.16 20.1033 51.2673 20.346 51.342C20.598 51.4167 20.864 51.454 21.144 51.454ZM31.2691 52C30.9611 52 30.7371 51.9207 30.5971 51.762C30.4571 51.6033 30.3777 51.3887 30.3591 51.118V50.866H30.2891C30.1304 51.2673 29.8691 51.5847 29.5051 51.818C29.1411 52.0513 28.6791 52.168 28.1191 52.168C27.3631 52.168 26.7797 51.986 26.3691 51.622C25.9584 51.2487 25.7531 50.726 25.7531 50.054C25.7531 49.4193 25.9771 48.9153 26.4251 48.542C26.8824 48.1687 27.6291 47.982 28.6651 47.982H30.3171V47.142C30.3171 45.9567 29.7057 45.364 28.4831 45.364C28.0071 45.364 27.6104 45.4667 27.2931 45.672C26.9757 45.868 26.7191 46.1527 26.5231 46.526L26.0191 46.106C26.2151 45.686 26.5137 45.3407 26.9151 45.07C27.3257 44.7993 27.8577 44.664 28.5111 44.664C29.3511 44.664 29.9951 44.874 30.4431 45.294C30.8911 45.714 31.1151 46.302 31.1151 47.058V51.3H32.0811V52H31.2691ZM28.2311 51.482C28.5204 51.482 28.7911 51.4447 29.0431 51.37C29.2951 51.2953 29.5144 51.1927 29.7011 51.062C29.8971 50.922 30.0464 50.7587 30.1491 50.572C30.2611 50.376 30.3171 50.1567 30.3171 49.914V48.584H28.6371C27.9184 48.584 27.3957 48.7007 27.0691 48.934C26.7517 49.158 26.5931 49.4707 26.5931 49.872V50.208C26.5931 50.628 26.7424 50.9453 27.0411 51.16C27.3397 51.3747 27.7364 51.482 28.2311 51.482ZM37.9122 44.832H38.7242L35.4062 54.016C35.2942 54.3147 35.1588 54.52 35.0002 54.632C34.8415 54.744 34.5802 54.8 34.2162 54.8H33.4042V54.1H34.6082L35.2942 52.21L32.6342 44.832H33.4742L35.6722 51.146H35.7282L37.9122 44.832ZM40.3274 52V44.832H41.1254V45.966H41.1674C41.2421 45.7887 41.3354 45.6253 41.4474 45.476C41.5594 45.3173 41.6947 45.1773 41.8534 45.056C42.0121 44.9347 42.1987 44.8413 42.4134 44.776C42.6374 44.7013 42.8987 44.664 43.1974 44.664C43.7107 44.664 44.1634 44.7853 44.5554 45.028C44.9474 45.2707 45.2321 45.6533 45.4094 46.176H45.4514C45.5821 45.756 45.8294 45.4013 46.1934 45.112C46.5667 44.8133 47.0707 44.664 47.7054 44.664C48.4707 44.664 49.0587 44.902 49.4694 45.378C49.8801 45.8447 50.0854 46.5167 50.0854 47.394V52H49.2874V47.534C49.2874 46.0967 48.6854 45.378 47.4814 45.378C47.2294 45.378 46.9914 45.4107 46.7674 45.476C46.5434 45.5413 46.3427 45.644 46.1654 45.784C45.9974 45.9147 45.8621 46.0827 45.7594 46.288C45.6567 46.484 45.6054 46.7127 45.6054 46.974V52H44.8074V47.534C44.8074 46.0967 44.2101 45.378 43.0154 45.378C42.7727 45.378 42.5347 45.4107 42.3014 45.476C42.0774 45.5413 41.8767 45.6393 41.6994 45.77C41.5221 45.9007 41.3821 46.0687 41.2794 46.274C41.1767 46.47 41.1254 46.6987 41.1254 46.96V52H40.3274ZM55.1531 52.168C54.6771 52.168 54.2431 52.084 53.8511 51.916C53.4684 51.748 53.1371 51.5053 52.8571 51.188C52.5864 50.8613 52.3764 50.4647 52.2271 49.998C52.0871 49.5313 52.0171 49.004 52.0171 48.416C52.0171 47.828 52.0871 47.3053 52.2271 46.848C52.3764 46.3813 52.5864 45.9893 52.8571 45.672C53.1371 45.3453 53.4684 45.098 53.8511 44.93C54.2337 44.7527 54.6631 44.664 55.1391 44.664C55.5964 44.664 56.0117 44.7527 56.3851 44.93C56.7584 45.098 57.0757 45.336 57.3371 45.644C57.5984 45.952 57.7991 46.3253 57.9391 46.764C58.0884 47.1933 58.1631 47.6693 58.1631 48.192V48.57H52.8571V48.92C52.8571 49.2933 52.9084 49.6387 53.0111 49.956C53.1231 50.264 53.2771 50.53 53.4731 50.754C53.6784 50.978 53.9257 51.1553 54.2151 51.286C54.5044 51.4073 54.8311 51.468 55.1951 51.468C56.2404 51.468 56.9637 50.9873 57.3651 50.026L57.9531 50.418C57.7291 50.95 57.3744 51.3747 56.8891 51.692C56.4131 52.0093 55.8344 52.168 55.1531 52.168ZM55.1391 45.336C54.7937 45.336 54.4811 45.4013 54.2011 45.532C53.9211 45.6533 53.6784 45.826 53.4731 46.05C53.2771 46.274 53.1231 46.5447 53.0111 46.862C52.9084 47.17 52.8571 47.5107 52.8571 47.884V47.954H57.2951V47.842C57.2951 47.4687 57.2437 47.128 57.1411 46.82C57.0384 46.5027 56.8891 46.2367 56.6931 46.022C56.5064 45.8073 56.2777 45.6393 56.0071 45.518C55.7457 45.3967 55.4564 45.336 55.1391 45.336ZM60.1926 52V44.832H60.9906V45.966H61.0326C61.1913 45.5927 61.4386 45.2847 61.7746 45.042C62.1106 44.79 62.568 44.664 63.1466 44.664C63.912 44.664 64.5046 44.902 64.9246 45.378C65.354 45.8447 65.5686 46.5167 65.5686 47.394V52H64.7706V47.534C64.7706 46.806 64.612 46.2647 64.2946 45.91C63.9866 45.5553 63.534 45.378 62.9366 45.378C62.6846 45.378 62.442 45.4107 62.2086 45.476C61.9753 45.5413 61.7653 45.6393 61.5786 45.77C61.4013 45.9007 61.2566 46.0687 61.1446 46.274C61.042 46.47 60.9906 46.6987 60.9906 46.96V52H60.1926ZM69.3133 52C69.024 52 68.8046 51.9207 68.6553 51.762C68.506 51.6033 68.4313 51.3887 68.4313 51.118V45.532H67.1853V44.832H67.9973C68.1933 44.832 68.324 44.7947 68.3893 44.72C68.464 44.636 68.5013 44.4913 68.5013 44.286V42.83H69.2293V44.832H70.8533V45.532H69.2293V51.3H70.7413V52H69.3133ZM76.0793 52V44.832H76.8773V46.12H76.9333C77.0733 45.784 77.3113 45.4853 77.6473 45.224C77.9833 44.9627 78.4593 44.832 79.0753 44.832H79.5513V45.616H78.9213C78.324 45.616 77.834 45.7467 77.4513 46.008C77.0687 46.2693 76.8773 46.6333 76.8773 47.1V52H76.0793ZM83.6042 52.168C83.1282 52.168 82.6942 52.084 82.3022 51.916C81.9196 51.748 81.5882 51.5053 81.3082 51.188C81.0376 50.8613 80.8276 50.4647 80.6782 49.998C80.5382 49.5313 80.4682 49.004 80.4682 48.416C80.4682 47.828 80.5382 47.3053 80.6782 46.848C80.8276 46.3813 81.0376 45.9893 81.3082 45.672C81.5882 45.3453 81.9196 45.098 82.3022 44.93C82.6849 44.7527 83.1142 44.664 83.5902 44.664C84.0476 44.664 84.4629 44.7527 84.8362 44.93C85.2096 45.098 85.5269 45.336 85.7882 45.644C86.0496 45.952 86.2502 46.3253 86.3902 46.764C86.5396 47.1933 86.6142 47.6693 86.6142 48.192V48.57H81.3082V48.92C81.3082 49.2933 81.3596 49.6387 81.4622 49.956C81.5742 50.264 81.7282 50.53 81.9242 50.754C82.1296 50.978 82.3769 51.1553 82.6662 51.286C82.9556 51.4073 83.2822 51.468 83.6462 51.468C84.6916 51.468 85.4149 50.9873 85.8162 50.026L86.4042 50.418C86.1802 50.95 85.8256 51.3747 85.3402 51.692C84.8642 52.0093 84.2856 52.168 83.6042 52.168ZM83.5902 45.336C83.2449 45.336 82.9322 45.4013 82.6522 45.532C82.3722 45.6533 82.1296 45.826 81.9242 46.05C81.7282 46.274 81.5742 46.5447 81.4622 46.862C81.3596 47.17 81.3082 47.5107 81.3082 47.884V47.954H85.7462V47.842C85.7462 47.4687 85.6949 47.128 85.5922 46.82C85.4896 46.5027 85.3402 46.2367 85.1442 46.022C84.9576 45.8073 84.7289 45.6393 84.4582 45.518C84.1969 45.3967 83.9076 45.336 83.5902 45.336ZM93.2778 50.852H93.2358C93.0491 51.2533 92.7738 51.5753 92.4098 51.818C92.0551 52.0513 91.6025 52.168 91.0518 52.168C90.1278 52.168 89.4045 51.8413 88.8818 51.188C88.3591 50.5347 88.0978 49.6107 88.0978 48.416C88.0978 47.2213 88.3591 46.2973 88.8818 45.644C89.4045 44.9907 90.1278 44.664 91.0518 44.664C91.6025 44.664 92.0598 44.7853 92.4238 45.028C92.7878 45.2613 93.0585 45.5787 93.2358 45.98H93.2778V44.832H94.0758V54.8H93.2778V50.852ZM91.2338 51.454C91.5138 51.454 91.7751 51.4167 92.0178 51.342C92.2698 51.2673 92.4891 51.16 92.6758 51.02C92.8625 50.8707 93.0071 50.698 93.1098 50.502C93.2218 50.2967 93.2778 50.068 93.2778 49.816V46.974C93.2778 46.7407 93.2218 46.526 93.1098 46.33C93.0071 46.134 92.8625 45.966 92.6758 45.826C92.4891 45.686 92.2698 45.5787 92.0178 45.504C91.7751 45.42 91.5138 45.378 91.2338 45.378C90.5151 45.378 89.9551 45.6067 89.5538 46.064C89.1525 46.5213 88.9518 47.1373 88.9518 47.912V48.92C88.9518 49.6947 89.1525 50.3107 89.5538 50.768C89.9551 51.2253 90.5151 51.454 91.2338 51.454ZM101.163 50.866H101.107C101.042 51.034 100.953 51.1973 100.841 51.356C100.729 51.5147 100.589 51.6547 100.421 51.776C100.253 51.888 100.052 51.9813 99.8189 52.056C99.5949 52.1307 99.3289 52.168 99.0209 52.168C98.2555 52.168 97.6582 51.9347 97.2289 51.468C96.7995 50.992 96.5849 50.3153 96.5849 49.438V44.832H97.3829V49.284C97.3829 50.0213 97.5415 50.5673 97.8589 50.922C98.1762 51.2767 98.6335 51.454 99.2309 51.454C99.4829 51.454 99.7209 51.4213 99.9449 51.356C100.178 51.2907 100.384 51.1927 100.561 51.062C100.748 50.9313 100.892 50.768 100.995 50.572C101.107 50.3667 101.163 50.1287 101.163 49.858V44.832H101.961V52H101.163V50.866ZM107.134 52.168C106.658 52.168 106.224 52.084 105.832 51.916C105.449 51.748 105.118 51.5053 104.838 51.188C104.567 50.8613 104.357 50.4647 104.208 49.998C104.068 49.5313 103.998 49.004 103.998 48.416C103.998 47.828 104.068 47.3053 104.208 46.848C104.357 46.3813 104.567 45.9893 104.838 45.672C105.118 45.3453 105.449 45.098 105.832 44.93C106.214 44.7527 106.644 44.664 107.12 44.664C107.577 44.664 107.992 44.7527 108.366 44.93C108.739 45.098 109.056 45.336 109.318 45.644C109.579 45.952 109.78 46.3253 109.92 46.764C110.069 47.1933 110.144 47.6693 110.144 48.192V48.57H104.838V48.92C104.838 49.2933 104.889 49.6387 104.992 49.956C105.104 50.264 105.258 50.53 105.454 50.754C105.659 50.978 105.906 51.1553 106.196 51.286C106.485 51.4073 106.812 51.468 107.176 51.468C108.221 51.468 108.944 50.9873 109.346 50.026L109.934 50.418C109.71 50.95 109.355 51.3747 108.87 51.692C108.394 52.0093 107.815 52.168 107.134 52.168ZM107.12 45.336C106.774 45.336 106.462 45.4013 106.182 45.532C105.902 45.6533 105.659 45.826 105.454 46.05C105.258 46.274 105.104 46.5447 104.992 46.862C104.889 47.17 104.838 47.5107 104.838 47.884V47.954H109.276V47.842C109.276 47.4687 109.224 47.128 109.122 46.82C109.019 46.5027 108.87 46.2367 108.674 46.022C108.487 45.8073 108.258 45.6393 107.988 45.518C107.726 45.3967 107.437 45.336 107.12 45.336ZM114.203 52.168C113.578 52.168 113.041 52.0513 112.593 51.818C112.154 51.5847 111.772 51.244 111.445 50.796L112.033 50.334C112.332 50.726 112.658 51.0153 113.013 51.202C113.368 51.3887 113.783 51.482 114.259 51.482C114.81 51.482 115.234 51.3653 115.533 51.132C115.832 50.8987 115.981 50.5627 115.981 50.124C115.981 49.7413 115.864 49.4427 115.631 49.228C115.407 49.004 115.034 48.8547 114.511 48.78L113.923 48.682C113.596 48.6353 113.298 48.5653 113.027 48.472C112.756 48.3787 112.523 48.2527 112.327 48.094C112.14 47.9353 111.991 47.744 111.879 47.52C111.776 47.2867 111.725 47.0067 111.725 46.68C111.725 46.344 111.786 46.05 111.907 45.798C112.038 45.546 112.21 45.336 112.425 45.168C112.64 45 112.896 44.874 113.195 44.79C113.494 44.706 113.816 44.664 114.161 44.664C114.758 44.664 115.248 44.7667 115.631 44.972C116.014 45.1773 116.34 45.4433 116.611 45.77L116.079 46.26C115.892 46.036 115.64 45.8307 115.323 45.644C115.015 45.448 114.614 45.35 114.119 45.35C113.606 45.35 113.204 45.462 112.915 45.686C112.635 45.91 112.495 46.2273 112.495 46.638C112.495 47.058 112.621 47.3613 112.873 47.548C113.134 47.7347 113.522 47.87 114.035 47.954L114.609 48.038C115.337 48.15 115.874 48.3693 116.219 48.696C116.574 49.0133 116.751 49.4613 116.751 50.04C116.751 50.712 116.522 51.2347 116.065 51.608C115.617 51.9813 114.996 52.168 114.203 52.168ZM120.022 52C119.733 52 119.514 51.9207 119.364 51.762C119.215 51.6033 119.14 51.3887 119.14 51.118V45.532H117.894V44.832H118.706C118.902 44.832 119.033 44.7947 119.098 44.72C119.173 44.636 119.21 44.4913 119.21 44.286V42.83H119.938V44.832H121.562V45.532H119.938V51.3H121.45V52H120.022ZM128.02 52C127.731 52 127.512 51.9207 127.362 51.762C127.213 51.6033 127.138 51.3887 127.138 51.118V45.532H125.892V44.832H126.704C126.9 44.832 127.031 44.7947 127.096 44.72C127.171 44.636 127.208 44.4913 127.208 44.286V42.83H127.936V44.832H129.56V45.532H127.936V51.3H129.448V52H128.02ZM133.971 52.168C133.495 52.168 133.066 52.084 132.683 51.916C132.3 51.748 131.974 51.5053 131.703 51.188C131.432 50.8613 131.222 50.4647 131.073 49.998C130.924 49.5313 130.849 49.004 130.849 48.416C130.849 47.828 130.924 47.3053 131.073 46.848C131.222 46.3813 131.432 45.9893 131.703 45.672C131.974 45.3453 132.3 45.098 132.683 44.93C133.066 44.7527 133.495 44.664 133.971 44.664C134.447 44.664 134.876 44.7527 135.259 44.93C135.642 45.098 135.968 45.3453 136.239 45.672C136.51 45.9893 136.72 46.3813 136.869 46.848C137.018 47.3053 137.093 47.828 137.093 48.416C137.093 49.004 137.018 49.5313 136.869 49.998C136.72 50.4647 136.51 50.8613 136.239 51.188C135.968 51.5053 135.642 51.748 135.259 51.916C134.876 52.084 134.447 52.168 133.971 52.168ZM133.971 51.454C134.671 51.454 135.222 51.2347 135.623 50.796C136.034 50.3573 136.239 49.7133 136.239 48.864V47.968C136.239 47.128 136.034 46.4887 135.623 46.05C135.222 45.602 134.671 45.378 133.971 45.378C133.271 45.378 132.716 45.5973 132.305 46.036C131.904 46.4747 131.703 47.1187 131.703 47.968V48.864C131.703 49.704 131.904 50.348 132.305 50.796C132.716 51.2347 133.271 51.454 133.971 51.454ZM144.949 52.168C143.96 52.168 143.194 51.8413 142.653 51.188C142.121 50.5347 141.855 49.6107 141.855 48.416C141.855 47.2213 142.121 46.2973 142.653 45.644C143.194 44.9907 143.96 44.664 144.949 44.664C145.612 44.664 146.148 44.8087 146.559 45.098C146.97 45.3873 147.282 45.77 147.497 46.246L146.825 46.582C146.657 46.19 146.419 45.8913 146.111 45.686C145.812 45.4807 145.425 45.378 144.949 45.378C144.221 45.378 143.666 45.6113 143.283 46.078C142.9 46.5447 142.709 47.156 142.709 47.912V48.92C142.709 49.676 142.9 50.2873 143.283 50.754C143.666 51.2207 144.221 51.454 144.949 51.454C145.444 51.454 145.859 51.3467 146.195 51.132C146.531 50.9173 146.802 50.6093 147.007 50.208L147.595 50.6C147.362 51.076 147.026 51.4587 146.587 51.748C146.158 52.028 145.612 52.168 144.949 52.168ZM153.854 50.866H153.798C153.733 51.034 153.644 51.1973 153.532 51.356C153.42 51.5147 153.28 51.6547 153.112 51.776C152.944 51.888 152.744 51.9813 152.51 52.056C152.286 52.1307 152.02 52.168 151.712 52.168C150.947 52.168 150.35 51.9347 149.92 51.468C149.491 50.992 149.276 50.3153 149.276 49.438V44.832H150.074V49.284C150.074 50.0213 150.233 50.5673 150.55 50.922C150.868 51.2767 151.325 51.454 151.922 51.454C152.174 51.454 152.412 51.4213 152.636 51.356C152.87 51.2907 153.075 51.1927 153.252 51.062C153.439 50.9313 153.584 50.768 153.686 50.572C153.798 50.3667 153.854 50.1287 153.854 49.858V44.832H154.652V52H153.854V50.866ZM159.293 52.168C158.668 52.168 158.131 52.0513 157.683 51.818C157.244 51.5847 156.862 51.244 156.535 50.796L157.123 50.334C157.422 50.726 157.748 51.0153 158.103 51.202C158.458 51.3887 158.873 51.482 159.349 51.482C159.9 51.482 160.324 51.3653 160.623 51.132C160.922 50.8987 161.071 50.5627 161.071 50.124C161.071 49.7413 160.954 49.4427 160.721 49.228C160.497 49.004 160.124 48.8547 159.601 48.78L159.013 48.682C158.686 48.6353 158.388 48.5653 158.117 48.472C157.846 48.3787 157.613 48.2527 157.417 48.094C157.23 47.9353 157.081 47.744 156.969 47.52C156.866 47.2867 156.815 47.0067 156.815 46.68C156.815 46.344 156.876 46.05 156.997 45.798C157.128 45.546 157.3 45.336 157.515 45.168C157.73 45 157.986 44.874 158.285 44.79C158.584 44.706 158.906 44.664 159.251 44.664C159.848 44.664 160.338 44.7667 160.721 44.972C161.104 45.1773 161.43 45.4433 161.701 45.77L161.169 46.26C160.982 46.036 160.73 45.8307 160.413 45.644C160.105 45.448 159.704 45.35 159.209 45.35C158.696 45.35 158.294 45.462 158.005 45.686C157.725 45.91 157.585 46.2273 157.585 46.638C157.585 47.058 157.711 47.3613 157.963 47.548C158.224 47.7347 158.612 47.87 159.125 47.954L159.699 48.038C160.427 48.15 160.964 48.3693 161.309 48.696C161.664 49.0133 161.841 49.4613 161.841 50.04C161.841 50.712 161.612 51.2347 161.155 51.608C160.707 51.9813 160.086 52.168 159.293 52.168ZM165.112 52C164.823 52 164.603 51.9207 164.454 51.762C164.305 51.6033 164.23 51.3887 164.23 51.118V45.532H162.984V44.832H163.796C163.992 44.832 164.123 44.7947 164.188 44.72C164.263 44.636 164.3 44.4913 164.3 44.286V42.83H165.028V44.832H166.652V45.532H165.028V51.3H166.54V52H165.112ZM171.063 52.168C170.587 52.168 170.158 52.084 169.775 51.916C169.392 51.748 169.066 51.5053 168.795 51.188C168.524 50.8613 168.314 50.4647 168.165 49.998C168.016 49.5313 167.941 49.004 167.941 48.416C167.941 47.828 168.016 47.3053 168.165 46.848C168.314 46.3813 168.524 45.9893 168.795 45.672C169.066 45.3453 169.392 45.098 169.775 44.93C170.158 44.7527 170.587 44.664 171.063 44.664C171.539 44.664 171.968 44.7527 172.351 44.93C172.734 45.098 173.06 45.3453 173.331 45.672C173.602 45.9893 173.812 46.3813 173.961 46.848C174.11 47.3053 174.185 47.828 174.185 48.416C174.185 49.004 174.11 49.5313 173.961 49.998C173.812 50.4647 173.602 50.8613 173.331 51.188C173.06 51.5053 172.734 51.748 172.351 51.916C171.968 52.084 171.539 52.168 171.063 52.168ZM171.063 51.454C171.763 51.454 172.314 51.2347 172.715 50.796C173.126 50.3573 173.331 49.7133 173.331 48.864V47.968C173.331 47.128 173.126 46.4887 172.715 46.05C172.314 45.602 171.763 45.378 171.063 45.378C170.363 45.378 169.808 45.5973 169.397 46.036C168.996 46.4747 168.795 47.1187 168.795 47.968V48.864C168.795 49.704 168.996 50.348 169.397 50.796C169.808 51.2347 170.363 51.454 171.063 51.454ZM176.212 52V44.832H177.01V45.966H177.052C177.127 45.7887 177.22 45.6253 177.332 45.476C177.444 45.3173 177.579 45.1773 177.738 45.056C177.897 44.9347 178.083 44.8413 178.298 44.776C178.522 44.7013 178.783 44.664 179.082 44.664C179.595 44.664 180.048 44.7853 180.44 45.028C180.832 45.2707 181.117 45.6533 181.294 46.176H181.336C181.467 45.756 181.714 45.4013 182.078 45.112C182.451 44.8133 182.955 44.664 183.59 44.664C184.355 44.664 184.943 44.902 185.354 45.378C185.765 45.8447 185.97 46.5167 185.97 47.394V52H185.172V47.534C185.172 46.0967 184.57 45.378 183.366 45.378C183.114 45.378 182.876 45.4107 182.652 45.476C182.428 45.5413 182.227 45.644 182.05 45.784C181.882 45.9147 181.747 46.0827 181.644 46.288C181.541 46.484 181.49 46.7127 181.49 46.974V52H180.692V47.534C180.692 46.0967 180.095 45.378 178.9 45.378C178.657 45.378 178.419 45.4107 178.186 45.476C177.962 45.5413 177.761 45.6393 177.584 45.77C177.407 45.9007 177.267 46.0687 177.164 46.274C177.061 46.47 177.01 46.6987 177.01 46.96V52H176.212ZM191.038 52.168C190.562 52.168 190.128 52.084 189.736 51.916C189.353 51.748 189.022 51.5053 188.742 51.188C188.471 50.8613 188.261 50.4647 188.112 49.998C187.972 49.5313 187.902 49.004 187.902 48.416C187.902 47.828 187.972 47.3053 188.112 46.848C188.261 46.3813 188.471 45.9893 188.742 45.672C189.022 45.3453 189.353 45.098 189.736 44.93C190.118 44.7527 190.548 44.664 191.024 44.664C191.481 44.664 191.896 44.7527 192.27 44.93C192.643 45.098 192.96 45.336 193.222 45.644C193.483 45.952 193.684 46.3253 193.824 46.764C193.973 47.1933 194.048 47.6693 194.048 48.192V48.57H188.742V48.92C188.742 49.2933 188.793 49.6387 188.896 49.956C189.008 50.264 189.162 50.53 189.358 50.754C189.563 50.978 189.81 51.1553 190.1 51.286C190.389 51.4073 190.716 51.468 191.08 51.468C192.125 51.468 192.848 50.9873 193.25 50.026L193.838 50.418C193.614 50.95 193.259 51.3747 192.774 51.692C192.298 52.0093 191.719 52.168 191.038 52.168ZM191.024 45.336C190.678 45.336 190.366 45.4013 190.086 45.532C189.806 45.6533 189.563 45.826 189.358 46.05C189.162 46.274 189.008 46.5447 188.896 46.862C188.793 47.17 188.742 47.5107 188.742 47.884V47.954H193.18V47.842C193.18 47.4687 193.128 47.128 193.026 46.82C192.923 46.5027 192.774 46.2367 192.578 46.022C192.391 45.8073 192.162 45.6393 191.892 45.518C191.63 45.3967 191.341 45.336 191.024 45.336ZM196.077 52V44.832H196.875V46.12H196.931C197.071 45.784 197.309 45.4853 197.645 45.224C197.981 44.9627 198.457 44.832 199.073 44.832H199.549V45.616H198.919C198.322 45.616 197.832 45.7467 197.449 46.008C197.067 46.2693 196.875 46.6333 196.875 47.1V52H196.077Z" fill="white"/>
</svg>
