<svg width="307" height="72" viewBox="0 0 307 72" fill="none" xmlns="http://www.w3.org/2000/svg">
<rect width="307" height="72" fill="#444444"/>
<path d="M18.386 30V20.228H22.222C23.0713 20.228 23.72 20.4753 24.168 20.97C24.616 21.4553 24.84 22.118 24.84 22.958C24.84 23.8073 24.616 24.4793 24.168 24.974C23.72 25.4593 23.0713 25.702 22.222 25.702H19.226V30H18.386ZM19.226 24.96H22.222C22.782 24.96 23.2067 24.806 23.496 24.498C23.7947 24.1807 23.944 23.7793 23.944 23.294V22.622C23.944 22.146 23.7947 21.754 23.496 21.446C23.2067 21.1287 22.782 20.97 22.222 20.97H19.226V24.96ZM26.5735 30V22.832H27.3715V24.12H27.4275C27.5675 23.784 27.8055 23.4853 28.1415 23.224C28.4775 22.9627 28.9535 22.832 29.5695 22.832H30.0455V23.616H29.4155C28.8182 23.616 28.3282 23.7467 27.9455 24.008C27.5628 24.2693 27.3715 24.6333 27.3715 25.1V30H26.5735ZM31.9694 20.886C31.7827 20.886 31.6427 20.8393 31.5494 20.746C31.4654 20.6527 31.4234 20.5313 31.4234 20.382V20.242C31.4234 20.0927 31.4654 19.9713 31.5494 19.878C31.6427 19.7847 31.7827 19.738 31.9694 19.738C32.1561 19.738 32.2914 19.7847 32.3754 19.878C32.4687 19.9713 32.5154 20.0927 32.5154 20.242V20.382C32.5154 20.5313 32.4687 20.6527 32.3754 20.746C32.2914 20.8393 32.1561 20.886 31.9694 20.886ZM31.5774 22.832H32.3754V30H31.5774V22.832ZM34.9817 30V22.832H35.7797V23.966H35.8217C35.9804 23.5927 36.2277 23.2847 36.5637 23.042C36.8997 22.79 37.357 22.664 37.9357 22.664C38.701 22.664 39.2937 22.902 39.7137 23.378C40.143 23.8447 40.3577 24.5167 40.3577 25.394V30H39.5597V25.534C39.5597 24.806 39.401 24.2647 39.0837 23.91C38.7757 23.5553 38.323 23.378 37.7257 23.378C37.4737 23.378 37.231 23.4107 36.9977 23.476C36.7644 23.5413 36.5544 23.6393 36.3677 23.77C36.1904 23.9007 36.0457 24.0687 35.9337 24.274C35.831 24.47 35.7797 24.6987 35.7797 24.96V30H34.9817ZM44.1024 30C43.813 30 43.5937 29.9207 43.4444 29.762C43.295 29.6033 43.2204 29.3887 43.2204 29.118V23.532H41.9744V22.832H42.7864C42.9824 22.832 43.113 22.7947 43.1784 22.72C43.253 22.636 43.2904 22.4913 43.2904 22.286V20.83H44.0184V22.832H45.6424V23.532H44.0184V29.3H45.5304V30H44.1024ZM51.7504 30C51.4611 30 51.2417 29.9207 51.0924 29.762C50.9431 29.6033 50.8684 29.3933 50.8684 29.132V19.64H51.6664V29.3H52.7724V30H51.7504ZM59.4878 30C59.1798 30 58.9558 29.9207 58.8158 29.762C58.6758 29.6033 58.5965 29.3887 58.5778 29.118V28.866H58.5078C58.3491 29.2673 58.0878 29.5847 57.7238 29.818C57.3598 30.0513 56.8978 30.168 56.3378 30.168C55.5818 30.168 54.9985 29.986 54.5878 29.622C54.1771 29.2487 53.9718 28.726 53.9718 28.054C53.9718 27.4193 54.1958 26.9153 54.6438 26.542C55.1011 26.1687 55.8478 25.982 56.8838 25.982H58.5358V25.142C58.5358 23.9567 57.9245 23.364 56.7018 23.364C56.2258 23.364 55.8291 23.4667 55.5118 23.672C55.1945 23.868 54.9378 24.1527 54.7418 24.526L54.2378 24.106C54.4338 23.686 54.7325 23.3407 55.1338 23.07C55.5445 22.7993 56.0765 22.664 56.7298 22.664C57.5698 22.664 58.2138 22.874 58.6618 23.294C59.1098 23.714 59.3338 24.302 59.3338 25.058V29.3H60.2998V30H59.4878ZM56.4498 29.482C56.7391 29.482 57.0098 29.4447 57.2618 29.37C57.5138 29.2953 57.7331 29.1927 57.9198 29.062C58.1158 28.922 58.2651 28.7587 58.3678 28.572C58.4798 28.376 58.5358 28.1567 58.5358 27.914V26.584H56.8558C56.1371 26.584 55.6145 26.7007 55.2878 26.934C54.9705 27.158 54.8118 27.4707 54.8118 27.872V28.208C54.8118 28.628 54.9611 28.9453 55.2598 29.16C55.5585 29.3747 55.9551 29.482 56.4498 29.482ZM61.9426 19.64H62.7406V23.98H62.7826C62.96 23.5787 63.2306 23.2613 63.5946 23.028C63.9586 22.7853 64.416 22.664 64.9666 22.664C65.8906 22.664 66.614 22.9907 67.1366 23.644C67.6593 24.2973 67.9206 25.2213 67.9206 26.416C67.9206 27.6107 67.6593 28.5347 67.1366 29.188C66.614 29.8413 65.8906 30.168 64.9666 30.168C64.416 30.168 63.9633 30.0513 63.6086 29.818C63.254 29.5753 62.9786 29.2533 62.7826 28.852H62.7406V30H61.9426V19.64ZM64.7846 29.454C65.5033 29.454 66.0633 29.2253 66.4646 28.768C66.866 28.3107 67.0666 27.6947 67.0666 26.92V25.912C67.0666 25.1373 66.866 24.5213 66.4646 24.064C66.0633 23.6067 65.5033 23.378 64.7846 23.378C64.5046 23.378 64.2386 23.42 63.9866 23.504C63.744 23.5787 63.5293 23.686 63.3426 23.826C63.156 23.966 63.0066 24.134 62.8946 24.33C62.792 24.526 62.7406 24.7407 62.7406 24.974V27.816C62.7406 28.068 62.792 28.2967 62.8946 28.502C63.0066 28.698 63.156 28.8707 63.3426 29.02C63.5293 29.16 63.744 29.2673 63.9866 29.342C64.2386 29.4167 64.5046 29.454 64.7846 29.454ZM72.5437 30.168C72.0677 30.168 71.6337 30.084 71.2417 29.916C70.859 29.748 70.5277 29.5053 70.2477 29.188C69.977 28.8613 69.767 28.4647 69.6177 27.998C69.4777 27.5313 69.4077 27.004 69.4077 26.416C69.4077 25.828 69.4777 25.3053 69.6177 24.848C69.767 24.3813 69.977 23.9893 70.2477 23.672C70.5277 23.3453 70.859 23.098 71.2417 22.93C71.6244 22.7527 72.0537 22.664 72.5297 22.664C72.987 22.664 73.4024 22.7527 73.7757 22.93C74.149 23.098 74.4664 23.336 74.7277 23.644C74.989 23.952 75.1897 24.3253 75.3297 24.764C75.479 25.1933 75.5537 25.6693 75.5537 26.192V26.57H70.2477V26.92C70.2477 27.2933 70.299 27.6387 70.4017 27.956C70.5137 28.264 70.6677 28.53 70.8637 28.754C71.069 28.978 71.3164 29.1553 71.6057 29.286C71.895 29.4073 72.2217 29.468 72.5857 29.468C73.631 29.468 74.3544 28.9873 74.7557 28.026L75.3437 28.418C75.1197 28.95 74.765 29.3747 74.2797 29.692C73.8037 30.0093 73.225 30.168 72.5437 30.168ZM72.5297 23.336C72.1844 23.336 71.8717 23.4013 71.5917 23.532C71.3117 23.6533 71.069 23.826 70.8637 24.05C70.6677 24.274 70.5137 24.5447 70.4017 24.862C70.299 25.17 70.2477 25.5107 70.2477 25.884V25.954H74.6857V25.842C74.6857 25.4687 74.6344 25.128 74.5317 24.82C74.429 24.5027 74.2797 24.2367 74.0837 24.022C73.897 23.8073 73.6684 23.6393 73.3977 23.518C73.1364 23.3967 72.847 23.336 72.5297 23.336ZM78.4653 30C78.1759 30 77.9566 29.9207 77.8073 29.762C77.6579 29.6033 77.5833 29.3933 77.5833 29.132V19.64H78.3813V29.3H79.4873V30H78.4653ZM83.3047 30.168C82.6793 30.168 82.1427 30.0513 81.6947 29.818C81.256 29.5847 80.8733 29.244 80.5467 28.796L81.1347 28.334C81.4333 28.726 81.76 29.0153 82.1147 29.202C82.4693 29.3887 82.8847 29.482 83.3607 29.482C83.9113 29.482 84.336 29.3653 84.6347 29.132C84.9333 28.8987 85.0827 28.5627 85.0827 28.124C85.0827 27.7413 84.966 27.4427 84.7327 27.228C84.5087 27.004 84.1353 26.8547 83.6127 26.78L83.0247 26.682C82.698 26.6353 82.3993 26.5653 82.1287 26.472C81.858 26.3787 81.6247 26.2527 81.4287 26.094C81.242 25.9353 81.0927 25.744 80.9807 25.52C80.878 25.2867 80.8267 25.0067 80.8267 24.68C80.8267 24.344 80.8873 24.05 81.0087 23.798C81.1393 23.546 81.312 23.336 81.5267 23.168C81.7413 23 81.998 22.874 82.2967 22.79C82.5953 22.706 82.9173 22.664 83.2627 22.664C83.86 22.664 84.35 22.7667 84.7327 22.972C85.1153 23.1773 85.442 23.4433 85.7127 23.77L85.1807 24.26C84.994 24.036 84.742 23.8307 84.4247 23.644C84.1167 23.448 83.7153 23.35 83.2207 23.35C82.7073 23.35 82.306 23.462 82.0167 23.686C81.7367 23.91 81.5967 24.2273 81.5967 24.638C81.5967 25.058 81.7227 25.3613 81.9747 25.548C82.236 25.7347 82.6233 25.87 83.1367 25.954L83.7107 26.038C84.4387 26.15 84.9753 26.3693 85.3207 26.696C85.6753 27.0133 85.8527 27.4613 85.8527 28.04C85.8527 28.712 85.624 29.2347 85.1667 29.608C84.7187 29.9813 84.098 30.168 83.3047 30.168ZM91.5911 23.532H90.3591V22.832H91.5911V20.83C91.5911 20.466 91.6798 20.1767 91.8571 19.962C92.0438 19.7473 92.3285 19.64 92.7111 19.64H93.9711V20.34H92.3891V22.832H93.9711V23.532H92.3891V30H91.5911V23.532ZM98.0688 30.168C97.5928 30.168 97.1634 30.084 96.7808 29.916C96.3981 29.748 96.0714 29.5053 95.8008 29.188C95.5301 28.8613 95.3201 28.4647 95.1708 27.998C95.0214 27.5313 94.9468 27.004 94.9468 26.416C94.9468 25.828 95.0214 25.3053 95.1708 24.848C95.3201 24.3813 95.5301 23.9893 95.8008 23.672C96.0714 23.3453 96.3981 23.098 96.7808 22.93C97.1634 22.7527 97.5928 22.664 98.0688 22.664C98.5448 22.664 98.9741 22.7527 99.3568 22.93C99.7394 23.098 100.066 23.3453 100.337 23.672C100.607 23.9893 100.817 24.3813 100.967 24.848C101.116 25.3053 101.191 25.828 101.191 26.416C101.191 27.004 101.116 27.5313 100.967 27.998C100.817 28.4647 100.607 28.8613 100.337 29.188C100.066 29.5053 99.7394 29.748 99.3568 29.916C98.9741 30.084 98.5448 30.168 98.0688 30.168ZM98.0688 29.454C98.7688 29.454 99.3194 29.2347 99.7208 28.796C100.131 28.3573 100.337 27.7133 100.337 26.864V25.968C100.337 25.128 100.131 24.4887 99.7208 24.05C99.3194 23.602 98.7688 23.378 98.0688 23.378C97.3688 23.378 96.8134 23.5973 96.4028 24.036C96.0014 24.4747 95.8008 25.1187 95.8008 25.968V26.864C95.8008 27.704 96.0014 28.348 96.4028 28.796C96.8134 29.2347 97.3688 29.454 98.0688 29.454ZM103.218 30V22.832H104.016V24.12H104.072C104.212 23.784 104.45 23.4853 104.786 23.224C105.122 22.9627 105.598 22.832 106.214 22.832H106.69V23.616H106.06C105.463 23.616 104.973 23.7467 104.59 24.008C104.207 24.2693 104.016 24.6333 104.016 25.1V30H103.218ZM111.531 30V22.832H112.329V23.966H112.371C112.529 23.5927 112.777 23.2847 113.113 23.042C113.449 22.79 113.906 22.664 114.485 22.664C115.25 22.664 115.843 22.902 116.263 23.378C116.692 23.8447 116.907 24.5167 116.907 25.394V30H116.109V25.534C116.109 24.806 115.95 24.2647 115.633 23.91C115.325 23.5553 114.872 23.378 114.275 23.378C114.023 23.378 113.78 23.4107 113.547 23.476C113.313 23.5413 113.103 23.6393 112.917 23.77C112.739 23.9007 112.595 24.0687 112.483 24.274C112.38 24.47 112.329 24.6987 112.329 24.96V30H111.531ZM121.981 30.168C121.505 30.168 121.071 30.084 120.679 29.916C120.297 29.748 119.965 29.5053 119.685 29.188C119.415 28.8613 119.205 28.4647 119.055 27.998C118.915 27.5313 118.845 27.004 118.845 26.416C118.845 25.828 118.915 25.3053 119.055 24.848C119.205 24.3813 119.415 23.9893 119.685 23.672C119.965 23.3453 120.297 23.098 120.679 22.93C121.062 22.7527 121.491 22.664 121.967 22.664C122.425 22.664 122.84 22.7527 123.213 22.93C123.587 23.098 123.904 23.336 124.165 23.644C124.427 23.952 124.627 24.3253 124.767 24.764C124.917 25.1933 124.991 25.6693 124.991 26.192V26.57H119.685V26.92C119.685 27.2933 119.737 27.6387 119.839 27.956C119.951 28.264 120.105 28.53 120.301 28.754C120.507 28.978 120.754 29.1553 121.043 29.286C121.333 29.4073 121.659 29.468 122.023 29.468C123.069 29.468 123.792 28.9873 124.193 28.026L124.781 28.418C124.557 28.95 124.203 29.3747 123.717 29.692C123.241 30.0093 122.663 30.168 121.981 30.168ZM121.967 23.336C121.622 23.336 121.309 23.4013 121.029 23.532C120.749 23.6533 120.507 23.826 120.301 24.05C120.105 24.274 119.951 24.5447 119.839 24.862C119.737 25.17 119.685 25.5107 119.685 25.884V25.954H124.123V25.842C124.123 25.4687 124.072 25.128 123.969 24.82C123.867 24.5027 123.717 24.2367 123.521 24.022C123.335 23.8073 123.106 23.6393 122.835 23.518C122.574 23.3967 122.285 23.336 121.967 23.336ZM126.112 22.832H126.896L128.618 29.286H128.646L130.55 22.832H131.292L133.21 29.286H133.238L134.946 22.832H135.716L133.7 30H132.72L130.914 23.966H130.886L129.094 30H128.128L126.112 22.832ZM141.18 20.886C140.994 20.886 140.854 20.8393 140.76 20.746C140.676 20.6527 140.634 20.5313 140.634 20.382V20.242C140.634 20.0927 140.676 19.9713 140.76 19.878C140.854 19.7847 140.994 19.738 141.18 19.738C141.367 19.738 141.502 19.7847 141.586 19.878C141.68 19.9713 141.726 20.0927 141.726 20.242V20.382C141.726 20.5313 141.68 20.6527 141.586 20.746C141.502 20.8393 141.367 20.886 141.18 20.886ZM140.788 22.832H141.586V30H140.788V22.832ZM144.193 30V22.832H144.991V23.966H145.033C145.191 23.5927 145.439 23.2847 145.775 23.042C146.111 22.79 146.568 22.664 147.147 22.664C147.912 22.664 148.505 22.902 148.925 23.378C149.354 23.8447 149.569 24.5167 149.569 25.394V30H148.771V25.534C148.771 24.806 148.612 24.2647 148.295 23.91C147.987 23.5553 147.534 23.378 146.937 23.378C146.685 23.378 146.442 23.4107 146.209 23.476C145.975 23.5413 145.765 23.6393 145.579 23.77C145.401 23.9007 145.257 24.0687 145.145 24.274C145.042 24.47 144.991 24.6987 144.991 24.96V30H144.193ZM150.95 22.832H151.79L153.988 29.146H154.044L156.228 22.832H157.04L154.45 30H153.54L150.95 22.832ZM161.083 30.168C160.607 30.168 160.173 30.084 159.781 29.916C159.398 29.748 159.067 29.5053 158.787 29.188C158.516 28.8613 158.306 28.4647 158.157 27.998C158.017 27.5313 157.947 27.004 157.947 26.416C157.947 25.828 158.017 25.3053 158.157 24.848C158.306 24.3813 158.516 23.9893 158.787 23.672C159.067 23.3453 159.398 23.098 159.781 22.93C160.163 22.7527 160.593 22.664 161.069 22.664C161.526 22.664 161.941 22.7527 162.315 22.93C162.688 23.098 163.005 23.336 163.267 23.644C163.528 23.952 163.729 24.3253 163.869 24.764C164.018 25.1933 164.093 25.6693 164.093 26.192V26.57H158.787V26.92C158.787 27.2933 158.838 27.6387 158.941 27.956C159.053 28.264 159.207 28.53 159.403 28.754C159.608 28.978 159.855 29.1553 160.145 29.286C160.434 29.4073 160.761 29.468 161.125 29.468C162.17 29.468 162.893 28.9873 163.295 28.026L163.883 28.418C163.659 28.95 163.304 29.3747 162.819 29.692C162.343 30.0093 161.764 30.168 161.083 30.168ZM161.069 23.336C160.723 23.336 160.411 23.4013 160.131 23.532C159.851 23.6533 159.608 23.826 159.403 24.05C159.207 24.274 159.053 24.5447 158.941 24.862C158.838 25.17 158.787 25.5107 158.787 25.884V25.954H163.225V25.842C163.225 25.4687 163.173 25.128 163.071 24.82C162.968 24.5027 162.819 24.2367 162.623 24.022C162.436 23.8073 162.207 23.6393 161.937 23.518C161.675 23.3967 161.386 23.336 161.069 23.336ZM166.122 30V22.832H166.92V23.966H166.962C167.121 23.5927 167.368 23.2847 167.704 23.042C168.04 22.79 168.498 22.664 169.076 22.664C169.842 22.664 170.434 22.902 170.854 23.378C171.284 23.8447 171.498 24.5167 171.498 25.394V30H170.7V25.534C170.7 24.806 170.542 24.2647 170.224 23.91C169.916 23.5553 169.464 23.378 168.866 23.378C168.614 23.378 168.372 23.4107 168.138 23.476C167.905 23.5413 167.695 23.6393 167.508 23.77C167.331 23.9007 167.186 24.0687 167.074 24.274C166.972 24.47 166.92 24.6987 166.92 24.96V30H166.122ZM175.243 30C174.954 30 174.734 29.9207 174.585 29.762C174.436 29.6033 174.361 29.3887 174.361 29.118V23.532H173.115V22.832H173.927C174.123 22.832 174.254 22.7947 174.319 22.72C174.394 22.636 174.431 22.4913 174.431 22.286V20.83H175.159V22.832H176.783V23.532H175.159V29.3H176.671V30H175.243ZM181.194 30.168C180.718 30.168 180.288 30.084 179.906 29.916C179.523 29.748 179.196 29.5053 178.926 29.188C178.655 28.8613 178.445 28.4647 178.296 27.998C178.146 27.5313 178.072 27.004 178.072 26.416C178.072 25.828 178.146 25.3053 178.296 24.848C178.445 24.3813 178.655 23.9893 178.926 23.672C179.196 23.3453 179.523 23.098 179.906 22.93C180.288 22.7527 180.718 22.664 181.194 22.664C181.67 22.664 182.099 22.7527 182.482 22.93C182.864 23.098 183.191 23.3453 183.462 23.672C183.732 23.9893 183.942 24.3813 184.092 24.848C184.241 25.3053 184.316 25.828 184.316 26.416C184.316 27.004 184.241 27.5313 184.092 27.998C183.942 28.4647 183.732 28.8613 183.462 29.188C183.191 29.5053 182.864 29.748 182.482 29.916C182.099 30.084 181.67 30.168 181.194 30.168ZM181.194 29.454C181.894 29.454 182.444 29.2347 182.846 28.796C183.256 28.3573 183.462 27.7133 183.462 26.864V25.968C183.462 25.128 183.256 24.4887 182.846 24.05C182.444 23.602 181.894 23.378 181.194 23.378C180.494 23.378 179.938 23.5973 179.528 24.036C179.126 24.4747 178.926 25.1187 178.926 25.968V26.864C178.926 27.704 179.126 28.348 179.528 28.796C179.938 29.2347 180.494 29.454 181.194 29.454ZM186.343 30V22.832H187.141V24.12H187.197C187.337 23.784 187.575 23.4853 187.911 23.224C188.247 22.9627 188.723 22.832 189.339 22.832H189.815V23.616H189.185C188.588 23.616 188.098 23.7467 187.715 24.008C187.332 24.2693 187.141 24.6333 187.141 25.1V30H186.343ZM195.822 22.832H196.634L193.316 32.016C193.204 32.3147 193.069 32.52 192.91 32.632C192.752 32.744 192.49 32.8 192.126 32.8H191.314V32.1H192.518L193.204 30.21L190.544 22.832H191.384L193.582 29.146H193.638L195.822 22.832ZM201.938 20.886C201.751 20.886 201.611 20.8393 201.518 20.746C201.434 20.6527 201.392 20.5313 201.392 20.382V20.242C201.392 20.0927 201.434 19.9713 201.518 19.878C201.611 19.7847 201.751 19.738 201.938 19.738C202.125 19.738 202.26 19.7847 202.344 19.878C202.437 19.9713 202.484 20.0927 202.484 20.242V20.382C202.484 20.5313 202.437 20.6527 202.344 20.746C202.26 20.8393 202.125 20.886 201.938 20.886ZM201.546 22.832H202.344V30H201.546V22.832ZM206.182 30C205.893 30 205.674 29.9207 205.524 29.762C205.375 29.6033 205.3 29.3887 205.3 29.118V23.532H204.054V22.832H204.866C205.062 22.832 205.193 22.7947 205.258 22.72C205.333 22.636 205.37 22.4913 205.37 22.286V20.83H206.098V22.832H207.722V23.532H206.098V29.3H207.61V30H206.182ZM212.147 30.168C211.671 30.168 211.237 30.084 210.845 29.916C210.463 29.748 210.131 29.5053 209.851 29.188C209.581 28.8613 209.371 28.4647 209.221 27.998C209.081 27.5313 209.011 27.004 209.011 26.416C209.011 25.828 209.081 25.3053 209.221 24.848C209.371 24.3813 209.581 23.9893 209.851 23.672C210.131 23.3453 210.463 23.098 210.845 22.93C211.228 22.7527 211.657 22.664 212.133 22.664C212.591 22.664 213.006 22.7527 213.379 22.93C213.753 23.098 214.07 23.336 214.331 23.644C214.593 23.952 214.793 24.3253 214.933 24.764C215.083 25.1933 215.157 25.6693 215.157 26.192V26.57H209.851V26.92C209.851 27.2933 209.903 27.6387 210.005 27.956C210.117 28.264 210.271 28.53 210.467 28.754C210.673 28.978 210.92 29.1553 211.209 29.286C211.499 29.4073 211.825 29.468 212.189 29.468C213.235 29.468 213.958 28.9873 214.359 28.026L214.947 28.418C214.723 28.95 214.369 29.3747 213.883 29.692C213.407 30.0093 212.829 30.168 212.147 30.168ZM212.133 23.336C211.788 23.336 211.475 23.4013 211.195 23.532C210.915 23.6533 210.673 23.826 210.467 24.05C210.271 24.274 210.117 24.5447 210.005 24.862C209.903 25.17 209.851 25.5107 209.851 25.884V25.954H214.289V25.842C214.289 25.4687 214.238 25.128 214.135 24.82C214.033 24.5027 213.883 24.2367 213.687 24.022C213.501 23.8073 213.272 23.6393 213.001 23.518C212.74 23.3967 212.451 23.336 212.133 23.336ZM217.187 30V22.832H217.985V23.966H218.027C218.101 23.7887 218.195 23.6253 218.307 23.476C218.419 23.3173 218.554 23.1773 218.713 23.056C218.871 22.9347 219.058 22.8413 219.273 22.776C219.497 22.7013 219.758 22.664 220.057 22.664C220.57 22.664 221.023 22.7853 221.415 23.028C221.807 23.2707 222.091 23.6533 222.269 24.176H222.311C222.441 23.756 222.689 23.4013 223.053 23.112C223.426 22.8133 223.93 22.664 224.565 22.664C225.33 22.664 225.918 22.902 226.329 23.378C226.739 23.8447 226.945 24.5167 226.945 25.394V30H226.147V25.534C226.147 24.0967 225.545 23.378 224.341 23.378C224.089 23.378 223.851 23.4107 223.627 23.476C223.403 23.5413 223.202 23.644 223.025 23.784C222.857 23.9147 222.721 24.0827 222.619 24.288C222.516 24.484 222.465 24.7127 222.465 24.974V30H221.667V25.534C221.667 24.0967 221.069 23.378 219.875 23.378C219.632 23.378 219.394 23.4107 219.161 23.476C218.937 23.5413 218.736 23.6393 218.559 23.77C218.381 23.9007 218.241 24.0687 218.139 24.274C218.036 24.47 217.985 24.6987 217.985 24.96V30H217.187ZM231.48 30.168C230.855 30.168 230.318 30.0513 229.87 29.818C229.432 29.5847 229.049 29.244 228.722 28.796L229.31 28.334C229.609 28.726 229.936 29.0153 230.29 29.202C230.645 29.3887 231.06 29.482 231.536 29.482C232.087 29.482 232.512 29.3653 232.81 29.132C233.109 28.8987 233.258 28.5627 233.258 28.124C233.258 27.7413 233.142 27.4427 232.908 27.228C232.684 27.004 232.311 26.8547 231.788 26.78L231.2 26.682C230.874 26.6353 230.575 26.5653 230.304 26.472C230.034 26.3787 229.8 26.2527 229.604 26.094C229.418 25.9353 229.268 25.744 229.156 25.52C229.054 25.2867 229.002 25.0067 229.002 24.68C229.002 24.344 229.063 24.05 229.184 23.798C229.315 23.546 229.488 23.336 229.702 23.168C229.917 23 230.174 22.874 230.472 22.79C230.771 22.706 231.093 22.664 231.438 22.664C232.036 22.664 232.526 22.7667 232.908 22.972C233.291 23.1773 233.618 23.4433 233.888 23.77L233.356 24.26C233.17 24.036 232.918 23.8307 232.6 23.644C232.292 23.448 231.891 23.35 231.396 23.35C230.883 23.35 230.482 23.462 230.192 23.686C229.912 23.91 229.772 24.2273 229.772 24.638C229.772 25.058 229.898 25.3613 230.15 25.548C230.412 25.7347 230.799 25.87 231.312 25.954L231.886 26.038C232.614 26.15 233.151 26.3693 233.496 26.696C233.851 27.0133 234.028 27.4613 234.028 28.04C234.028 28.712 233.8 29.2347 233.342 29.608C232.894 29.9813 232.274 30.168 231.48 30.168ZM243.911 28.866H243.855C243.79 29.034 243.701 29.1973 243.589 29.356C243.477 29.5147 243.337 29.6547 243.169 29.776C243.001 29.888 242.8 29.9813 242.567 30.056C242.343 30.1307 242.077 30.168 241.769 30.168C241.004 30.168 240.406 29.9347 239.977 29.468C239.548 28.992 239.333 28.3153 239.333 27.438V22.832H240.131V27.284C240.131 28.0213 240.29 28.5673 240.607 28.922C240.924 29.2767 241.382 29.454 241.979 29.454C242.231 29.454 242.469 29.4213 242.693 29.356C242.926 29.2907 243.132 29.1927 243.309 29.062C243.496 28.9313 243.64 28.768 243.743 28.572C243.855 28.3667 243.911 28.1287 243.911 27.858V22.832H244.709V30H243.911V28.866ZM249.35 30.168C248.724 30.168 248.188 30.0513 247.74 29.818C247.301 29.5847 246.918 29.244 246.592 28.796L247.18 28.334C247.478 28.726 247.805 29.0153 248.16 29.202C248.514 29.3887 248.93 29.482 249.406 29.482C249.956 29.482 250.381 29.3653 250.68 29.132C250.978 28.8987 251.128 28.5627 251.128 28.124C251.128 27.7413 251.011 27.4427 250.778 27.228C250.554 27.004 250.18 26.8547 249.658 26.78L249.07 26.682C248.743 26.6353 248.444 26.5653 248.174 26.472C247.903 26.3787 247.67 26.2527 247.474 26.094C247.287 25.9353 247.138 25.744 247.026 25.52C246.923 25.2867 246.872 25.0067 246.872 24.68C246.872 24.344 246.932 24.05 247.054 23.798C247.184 23.546 247.357 23.336 247.572 23.168C247.786 23 248.043 22.874 248.342 22.79C248.64 22.706 248.962 22.664 249.308 22.664C249.905 22.664 250.395 22.7667 250.778 22.972C251.16 23.1773 251.487 23.4433 251.758 23.77L251.226 24.26C251.039 24.036 250.787 23.8307 250.47 23.644C250.162 23.448 249.76 23.35 249.266 23.35C248.752 23.35 248.351 23.462 248.062 23.686C247.782 23.91 247.642 24.2273 247.642 24.638C247.642 25.058 247.768 25.3613 248.02 25.548C248.281 25.7347 248.668 25.87 249.182 25.954L249.756 26.038C250.484 26.15 251.02 26.3693 251.366 26.696C251.72 27.0133 251.898 27.4613 251.898 28.04C251.898 28.712 251.669 29.2347 251.212 29.608C250.764 29.9813 250.143 30.168 249.35 30.168ZM254.383 20.886C254.197 20.886 254.057 20.8393 253.963 20.746C253.879 20.6527 253.837 20.5313 253.837 20.382V20.242C253.837 20.0927 253.879 19.9713 253.963 19.878C254.057 19.7847 254.197 19.738 254.383 19.738C254.57 19.738 254.705 19.7847 254.789 19.878C254.883 19.9713 254.929 20.0927 254.929 20.242V20.382C254.929 20.5313 254.883 20.6527 254.789 20.746C254.705 20.8393 254.57 20.886 254.383 20.886ZM253.991 22.832H254.789V30H253.991V22.832ZM257.396 30V22.832H258.194V23.966H258.236C258.394 23.5927 258.642 23.2847 258.978 23.042C259.314 22.79 259.771 22.664 260.35 22.664C261.115 22.664 261.708 22.902 262.128 23.378C262.557 23.8447 262.772 24.5167 262.772 25.394V30H261.974V25.534C261.974 24.806 261.815 24.2647 261.498 23.91C261.19 23.5553 260.737 23.378 260.14 23.378C259.888 23.378 259.645 23.4107 259.412 23.476C259.178 23.5413 258.968 23.6393 258.782 23.77C258.604 23.9007 258.46 24.0687 258.348 24.274C258.245 24.47 258.194 24.6987 258.194 24.96V30H257.396ZM271.164 30.84C271.164 31.568 270.87 32.1047 270.282 32.45C269.704 32.7953 268.85 32.968 267.72 32.968C266.628 32.968 265.84 32.8093 265.354 32.492C264.869 32.1747 264.626 31.736 264.626 31.176C264.626 30.7653 264.734 30.4387 264.948 30.196C265.163 29.9533 265.466 29.776 265.858 29.664V29.552C265.41 29.3747 265.186 29.048 265.186 28.572C265.186 28.2173 265.303 27.9467 265.536 27.76C265.77 27.5733 266.059 27.4333 266.404 27.34V27.284C265.984 27.0973 265.658 26.8173 265.424 26.444C265.191 26.0707 265.074 25.6227 265.074 25.1C265.074 24.736 265.135 24.4047 265.256 24.106C265.378 23.8073 265.55 23.5507 265.774 23.336C266.008 23.1213 266.283 22.958 266.6 22.846C266.927 22.7247 267.286 22.664 267.678 22.664C268.229 22.664 268.71 22.7807 269.12 23.014V22.664C269.12 22.4493 269.172 22.2767 269.274 22.146C269.377 22.006 269.545 21.936 269.778 21.936H271.01V22.636H269.554V23.322C269.797 23.5367 269.984 23.798 270.114 24.106C270.245 24.4047 270.31 24.736 270.31 25.1C270.31 25.464 270.245 25.7953 270.114 26.094C269.993 26.3927 269.816 26.654 269.582 26.878C269.358 27.0927 269.083 27.2607 268.756 27.382C268.439 27.494 268.084 27.55 267.692 27.55C267.562 27.55 267.436 27.5407 267.314 27.522C267.193 27.5033 267.072 27.4847 266.95 27.466C266.642 27.55 266.386 27.6667 266.18 27.816C265.984 27.956 265.886 28.1473 265.886 28.39C265.886 28.8193 266.269 29.034 267.034 29.034H268.7C269.568 29.034 270.194 29.1973 270.576 29.524C270.968 29.8413 271.164 30.28 271.164 30.84ZM270.394 30.896C270.394 30.5507 270.268 30.2753 270.016 30.07C269.774 29.874 269.335 29.776 268.7 29.776H266.376C266.068 29.8787 265.826 30.0327 265.648 30.238C265.471 30.4433 265.382 30.7 265.382 31.008C265.382 31.3813 265.536 31.6893 265.844 31.932C266.152 32.184 266.619 32.31 267.244 32.31H268.14C268.84 32.31 269.391 32.1933 269.792 31.96C270.194 31.736 270.394 31.3813 270.394 30.896ZM267.692 26.906C268.243 26.906 268.672 26.7707 268.98 26.5C269.298 26.22 269.456 25.828 269.456 25.324V24.876C269.456 24.3813 269.298 23.9987 268.98 23.728C268.672 23.448 268.243 23.308 267.692 23.308C267.132 23.308 266.698 23.448 266.39 23.728C266.082 23.9987 265.928 24.3813 265.928 24.876V25.324C265.928 25.828 266.082 26.22 266.39 26.5C266.708 26.7707 267.142 26.906 267.692 26.906ZM18.302 44.832H19.1V45.98H19.142C19.3193 45.5787 19.59 45.2613 19.954 45.028C20.318 44.7853 20.7753 44.664 21.326 44.664C22.25 44.664 22.9733 44.9907 23.496 45.644C24.0187 46.2973 24.28 47.2213 24.28 48.416C24.28 49.6107 24.0187 50.5347 23.496 51.188C22.9733 51.8413 22.25 52.168 21.326 52.168C20.7753 52.168 20.3227 52.0513 19.968 51.818C19.6133 51.5753 19.338 51.2533 19.142 50.852H19.1V54.8H18.302V44.832ZM21.144 51.454C21.8627 51.454 22.4227 51.2253 22.824 50.768C23.2253 50.3107 23.426 49.6947 23.426 48.92V47.912C23.426 47.1373 23.2253 46.5213 22.824 46.064C22.4227 45.6067 21.8627 45.378 21.144 45.378C20.864 45.378 20.598 45.42 20.346 45.504C20.1033 45.5787 19.8887 45.686 19.702 45.826C19.5153 45.966 19.366 46.134 19.254 46.33C19.1513 46.526 19.1 46.7407 19.1 46.974V49.816C19.1 50.068 19.1513 50.2967 19.254 50.502C19.366 50.698 19.5153 50.8707 19.702 51.02C19.8887 51.16 20.1033 51.2673 20.346 51.342C20.598 51.4167 20.864 51.454 21.144 51.454ZM26.3411 52V44.832H27.1391V46.12H27.1951C27.3351 45.784 27.5731 45.4853 27.9091 45.224C28.2451 44.9627 28.7211 44.832 29.3371 44.832H29.8131V45.616H29.1831C28.5857 45.616 28.0957 45.7467 27.7131 46.008C27.3304 46.2693 27.1391 46.6333 27.1391 47.1V52H26.3411ZM31.737 42.886C31.5503 42.886 31.4103 42.8393 31.317 42.746C31.233 42.6527 31.191 42.5313 31.191 42.382V42.242C31.191 42.0927 31.233 41.9713 31.317 41.878C31.4103 41.7847 31.5503 41.738 31.737 41.738C31.9236 41.738 32.059 41.7847 32.143 41.878C32.2363 41.9713 32.283 42.0927 32.283 42.242V42.382C32.283 42.5313 32.2363 42.6527 32.143 42.746C32.059 42.8393 31.9236 42.886 31.737 42.886ZM31.345 44.832H32.143V52H31.345V44.832ZM34.7493 52V44.832H35.5473V45.966H35.5893C35.7479 45.5927 35.9953 45.2847 36.3313 45.042C36.6673 44.79 37.1246 44.664 37.7033 44.664C38.4686 44.664 39.0613 44.902 39.4813 45.378C39.9106 45.8447 40.1253 46.5167 40.1253 47.394V52H39.3273V47.534C39.3273 46.806 39.1686 46.2647 38.8513 45.91C38.5433 45.5553 38.0906 45.378 37.4933 45.378C37.2413 45.378 36.9986 45.4107 36.7653 45.476C36.5319 45.5413 36.3219 45.6393 36.1353 45.77C35.9579 45.9007 35.8133 46.0687 35.7013 46.274C35.5986 46.47 35.5473 46.6987 35.5473 46.96V52H34.7493ZM43.8699 52C43.5806 52 43.3613 51.9207 43.2119 51.762C43.0626 51.6033 42.9879 51.3887 42.9879 51.118V45.532H41.7419V44.832H42.5539C42.7499 44.832 42.8806 44.7947 42.9459 44.72C43.0206 44.636 43.0579 44.4913 43.0579 44.286V42.83H43.7859V44.832H45.4099V45.532H43.7859V51.3H45.2979V52H43.8699ZM49.8347 52.168C49.3587 52.168 48.9247 52.084 48.5327 51.916C48.15 51.748 47.8187 51.5053 47.5387 51.188C47.268 50.8613 47.058 50.4647 46.9087 49.998C46.7687 49.5313 46.6987 49.004 46.6987 48.416C46.6987 47.828 46.7687 47.3053 46.9087 46.848C47.058 46.3813 47.268 45.9893 47.5387 45.672C47.8187 45.3453 48.15 45.098 48.5327 44.93C48.9154 44.7527 49.3447 44.664 49.8207 44.664C50.278 44.664 50.6934 44.7527 51.0667 44.93C51.44 45.098 51.7574 45.336 52.0187 45.644C52.28 45.952 52.4807 46.3253 52.6207 46.764C52.77 47.1933 52.8447 47.6693 52.8447 48.192V48.57H47.5387V48.92C47.5387 49.2933 47.59 49.6387 47.6927 49.956C47.8047 50.264 47.9587 50.53 48.1547 50.754C48.36 50.978 48.6074 51.1553 48.8967 51.286C49.186 51.4073 49.5127 51.468 49.8767 51.468C50.922 51.468 51.6454 50.9873 52.0467 50.026L52.6347 50.418C52.4107 50.95 52.056 51.3747 51.5707 51.692C51.0947 52.0093 50.516 52.168 49.8347 52.168ZM49.8207 45.336C49.4754 45.336 49.1627 45.4013 48.8827 45.532C48.6027 45.6533 48.36 45.826 48.1547 46.05C47.9587 46.274 47.8047 46.5447 47.6927 46.862C47.59 47.17 47.5387 47.5107 47.5387 47.884V47.954H51.9767V47.842C51.9767 47.4687 51.9254 47.128 51.8227 46.82C51.72 46.5027 51.5707 46.2367 51.3747 46.022C51.188 45.8073 50.9594 45.6393 50.6887 45.518C50.4274 45.3967 50.138 45.336 49.8207 45.336ZM54.8743 52V44.832H55.6723V46.12H55.7283C55.8683 45.784 56.1063 45.4853 56.4423 45.224C56.7783 44.9627 57.2543 44.832 57.8703 44.832H58.3463V45.616H57.7163C57.1189 45.616 56.6289 45.7467 56.2463 46.008C55.8636 46.2693 55.6723 46.6333 55.6723 47.1V52H54.8743ZM61.9082 52.168C61.2828 52.168 60.7462 52.0513 60.2982 51.818C59.8595 51.5847 59.4768 51.244 59.1502 50.796L59.7382 50.334C60.0368 50.726 60.3635 51.0153 60.7182 51.202C61.0728 51.3887 61.4882 51.482 61.9642 51.482C62.5148 51.482 62.9395 51.3653 63.2382 51.132C63.5368 50.8987 63.6862 50.5627 63.6862 50.124C63.6862 49.7413 63.5695 49.4427 63.3362 49.228C63.1122 49.004 62.7388 48.8547 62.2162 48.78L61.6282 48.682C61.3015 48.6353 61.0028 48.5653 60.7322 48.472C60.4615 48.3787 60.2282 48.2527 60.0322 48.094C59.8455 47.9353 59.6962 47.744 59.5842 47.52C59.4815 47.2867 59.4302 47.0067 59.4302 46.68C59.4302 46.344 59.4908 46.05 59.6122 45.798C59.7428 45.546 59.9155 45.336 60.1302 45.168C60.3448 45 60.6015 44.874 60.9002 44.79C61.1988 44.706 61.5208 44.664 61.8662 44.664C62.4635 44.664 62.9535 44.7667 63.3362 44.972C63.7188 45.1773 64.0455 45.4433 64.3162 45.77L63.7842 46.26C63.5975 46.036 63.3455 45.8307 63.0282 45.644C62.7202 45.448 62.3188 45.35 61.8242 45.35C61.3108 45.35 60.9095 45.462 60.6202 45.686C60.3402 45.91 60.2002 46.2273 60.2002 46.638C60.2002 47.058 60.3262 47.3613 60.5782 47.548C60.8395 47.7347 61.2268 47.87 61.7402 47.954L62.3142 48.038C63.0422 48.15 63.5788 48.3693 63.9242 48.696C64.2788 49.0133 64.4562 49.4613 64.4562 50.04C64.4562 50.712 64.2275 51.2347 63.7702 51.608C63.3222 51.9813 62.7015 52.168 61.9082 52.168ZM71.0906 52C70.8013 52 70.582 51.9207 70.4326 51.762C70.2833 51.6033 70.2086 51.3887 70.2086 51.118V45.532H68.9626V44.832H69.7746C69.9706 44.832 70.1013 44.7947 70.1666 44.72C70.2413 44.636 70.2786 44.4913 70.2786 44.286V42.83H71.0066V44.832H72.6306V45.532H71.0066V51.3H72.5186V52H71.0906ZM74.5481 41.64H75.3461V45.966H75.3881C75.5468 45.5927 75.7941 45.2847 76.1301 45.042C76.4661 44.79 76.9234 44.664 77.5021 44.664C78.2674 44.664 78.8601 44.902 79.2801 45.378C79.7094 45.8447 79.9241 46.5167 79.9241 47.394V52H79.1261V47.534C79.1261 46.806 78.9674 46.2647 78.6501 45.91C78.3421 45.5553 77.8894 45.378 77.2921 45.378C77.0401 45.378 76.7974 45.4107 76.5641 45.476C76.3308 45.5413 76.1208 45.6393 75.9341 45.77C75.7568 45.9007 75.6121 46.0687 75.5001 46.274C75.3974 46.47 75.3461 46.6987 75.3461 46.96V52H74.5481V41.64ZM84.9988 52.168C84.5228 52.168 84.0888 52.084 83.6968 51.916C83.3141 51.748 82.9828 51.5053 82.7028 51.188C82.4321 50.8613 82.2221 50.4647 82.0728 49.998C81.9328 49.5313 81.8628 49.004 81.8628 48.416C81.8628 47.828 81.9328 47.3053 82.0728 46.848C82.2221 46.3813 82.4321 45.9893 82.7028 45.672C82.9828 45.3453 83.3141 45.098 83.6968 44.93C84.0794 44.7527 84.5088 44.664 84.9848 44.664C85.4421 44.664 85.8574 44.7527 86.2308 44.93C86.6041 45.098 86.9214 45.336 87.1828 45.644C87.4441 45.952 87.6448 46.3253 87.7848 46.764C87.9341 47.1933 88.0088 47.6693 88.0088 48.192V48.57H82.7028V48.92C82.7028 49.2933 82.7541 49.6387 82.8568 49.956C82.9688 50.264 83.1228 50.53 83.3188 50.754C83.5241 50.978 83.7714 51.1553 84.0608 51.286C84.3501 51.4073 84.6768 51.468 85.0408 51.468C86.0861 51.468 86.8094 50.9873 87.2108 50.026L87.7988 50.418C87.5748 50.95 87.2201 51.3747 86.7348 51.692C86.2588 52.0093 85.6801 52.168 84.9988 52.168ZM84.9848 45.336C84.6394 45.336 84.3268 45.4013 84.0468 45.532C83.7668 45.6533 83.5241 45.826 83.3188 46.05C83.1228 46.274 82.9688 46.5447 82.8568 46.862C82.7541 47.17 82.7028 47.5107 82.7028 47.884V47.954H87.1408V47.842C87.1408 47.4687 87.0894 47.128 86.9868 46.82C86.8841 46.5027 86.7348 46.2367 86.5388 46.022C86.3521 45.8073 86.1234 45.6393 85.8528 45.518C85.5914 45.3967 85.3021 45.336 84.9848 45.336ZM94.254 44.832H95.066L91.748 54.016C91.636 54.3147 91.5006 54.52 91.342 54.632C91.1833 54.744 90.922 54.8 90.558 54.8H89.746V54.1H90.95L91.636 52.21L88.976 44.832H89.816L92.014 51.146H92.07L94.254 44.832ZM104.906 52C104.598 52 104.374 51.9207 104.234 51.762C104.094 51.6033 104.014 51.3887 103.996 51.118V50.866H103.926C103.767 51.2673 103.506 51.5847 103.142 51.818C102.778 52.0513 102.316 52.168 101.756 52.168C101 52.168 100.416 51.986 100.006 51.622C99.5951 51.2487 99.3898 50.726 99.3898 50.054C99.3898 49.4193 99.6138 48.9153 100.062 48.542C100.519 48.1687 101.266 47.982 102.302 47.982H103.954V47.142C103.954 45.9567 103.342 45.364 102.12 45.364C101.644 45.364 101.247 45.4667 100.93 45.672C100.612 45.868 100.356 46.1527 100.16 46.526L99.6558 46.106C99.8518 45.686 100.15 45.3407 100.552 45.07C100.962 44.7993 101.494 44.664 102.148 44.664C102.988 44.664 103.632 44.874 104.08 45.294C104.528 45.714 104.752 46.302 104.752 47.058V51.3H105.718V52H104.906ZM101.868 51.482C102.157 51.482 102.428 51.4447 102.68 51.37C102.932 51.2953 103.151 51.1927 103.338 51.062C103.534 50.922 103.683 50.7587 103.786 50.572C103.898 50.376 103.954 50.1567 103.954 49.914V48.584H102.274C101.555 48.584 101.032 48.7007 100.706 48.934C100.388 49.158 100.23 49.4707 100.23 49.872V50.208C100.23 50.628 100.379 50.9453 100.678 51.16C100.976 51.3747 101.373 51.482 101.868 51.482ZM108.243 52C107.953 52 107.734 51.9207 107.585 51.762C107.435 51.6033 107.361 51.3933 107.361 51.132V41.64H108.159V51.3H109.265V52H108.243ZM111.052 52V44.832H111.85V46.12H111.906C112.046 45.784 112.284 45.4853 112.62 45.224C112.956 44.9627 113.432 44.832 114.048 44.832H114.524V45.616H113.894C113.297 45.616 112.807 45.7467 112.424 46.008C112.041 46.2693 111.85 46.6333 111.85 47.1V52H111.052ZM118.577 52.168C118.101 52.168 117.667 52.084 117.275 51.916C116.892 51.748 116.561 51.5053 116.281 51.188C116.01 50.8613 115.8 50.4647 115.651 49.998C115.511 49.5313 115.441 49.004 115.441 48.416C115.441 47.828 115.511 47.3053 115.651 46.848C115.8 46.3813 116.01 45.9893 116.281 45.672C116.561 45.3453 116.892 45.098 117.275 44.93C117.658 44.7527 118.087 44.664 118.563 44.664C119.02 44.664 119.436 44.7527 119.809 44.93C120.182 45.098 120.5 45.336 120.761 45.644C121.022 45.952 121.223 46.3253 121.363 46.764C121.512 47.1933 121.587 47.6693 121.587 48.192V48.57H116.281V48.92C116.281 49.2933 116.332 49.6387 116.435 49.956C116.547 50.264 116.701 50.53 116.897 50.754C117.102 50.978 117.35 51.1553 117.639 51.286C117.928 51.4073 118.255 51.468 118.619 51.468C119.664 51.468 120.388 50.9873 120.789 50.026L121.377 50.418C121.153 50.95 120.798 51.3747 120.313 51.692C119.837 52.0093 119.258 52.168 118.577 52.168ZM118.563 45.336C118.218 45.336 117.905 45.4013 117.625 45.532C117.345 45.6533 117.102 45.826 116.897 46.05C116.701 46.274 116.547 46.5447 116.435 46.862C116.332 47.17 116.281 47.5107 116.281 47.884V47.954H120.719V47.842C120.719 47.4687 120.668 47.128 120.565 46.82C120.462 46.5027 120.313 46.2367 120.117 46.022C119.93 45.8073 119.702 45.6393 119.431 45.518C119.17 45.3967 118.88 45.336 118.563 45.336ZM128.544 52C128.236 52 128.012 51.9207 127.872 51.762C127.732 51.6033 127.653 51.3887 127.634 51.118V50.866H127.564C127.406 51.2673 127.144 51.5847 126.78 51.818C126.416 52.0513 125.954 52.168 125.394 52.168C124.638 52.168 124.055 51.986 123.644 51.622C123.234 51.2487 123.028 50.726 123.028 50.054C123.028 49.4193 123.252 48.9153 123.7 48.542C124.158 48.1687 124.904 47.982 125.94 47.982H127.592V47.142C127.592 45.9567 126.981 45.364 125.758 45.364C125.282 45.364 124.886 45.4667 124.568 45.672C124.251 45.868 123.994 46.1527 123.798 46.526L123.294 46.106C123.49 45.686 123.789 45.3407 124.19 45.07C124.601 44.7993 125.133 44.664 125.786 44.664C126.626 44.664 127.27 44.874 127.718 45.294C128.166 45.714 128.39 46.302 128.39 47.058V51.3H129.356V52H128.544ZM125.506 51.482C125.796 51.482 126.066 51.4447 126.318 51.37C126.57 51.2953 126.79 51.1927 126.976 51.062C127.172 50.922 127.322 50.7587 127.424 50.572C127.536 50.376 127.592 50.1567 127.592 49.914V48.584H125.912C125.194 48.584 124.671 48.7007 124.344 48.934C124.027 49.158 123.868 49.4707 123.868 49.872V50.208C123.868 50.628 124.018 50.9453 124.316 51.16C124.615 51.3747 125.012 51.482 125.506 51.482ZM135.633 50.852H135.591C135.405 51.2533 135.129 51.5753 134.765 51.818C134.411 52.0513 133.958 52.168 133.407 52.168C132.483 52.168 131.76 51.8413 131.237 51.188C130.715 50.5347 130.453 49.6107 130.453 48.416C130.453 47.2213 130.715 46.2973 131.237 45.644C131.76 44.9907 132.483 44.664 133.407 44.664C133.958 44.664 134.415 44.7853 134.779 45.028C135.143 45.2613 135.414 45.5787 135.591 45.98H135.633V41.64H136.431V52H135.633V50.852ZM133.589 51.454C133.869 51.454 134.131 51.4167 134.373 51.342C134.625 51.2673 134.845 51.16 135.031 51.02C135.218 50.8707 135.363 50.698 135.465 50.502C135.577 50.2967 135.633 50.068 135.633 49.816V46.974C135.633 46.7407 135.577 46.526 135.465 46.33C135.363 46.134 135.218 45.966 135.031 45.826C134.845 45.686 134.625 45.5787 134.373 45.504C134.131 45.42 133.869 45.378 133.589 45.378C132.871 45.378 132.311 45.6067 131.909 46.064C131.508 46.5213 131.307 47.1373 131.307 47.912V48.92C131.307 49.6947 131.508 50.3107 131.909 50.768C132.311 51.2253 132.871 51.454 133.589 51.454ZM143.322 44.832H144.134L140.816 54.016C140.704 54.3147 140.569 54.52 140.41 54.632C140.252 54.744 139.99 54.8 139.626 54.8H138.814V54.1H140.018L140.704 52.21L138.044 44.832H138.884L141.082 51.146H141.138L143.322 44.832ZM151.594 52.168C151.118 52.168 150.689 52.084 150.306 51.916C149.923 51.748 149.597 51.5053 149.326 51.188C149.055 50.8613 148.845 50.4647 148.696 49.998C148.547 49.5313 148.472 49.004 148.472 48.416C148.472 47.828 148.547 47.3053 148.696 46.848C148.845 46.3813 149.055 45.9893 149.326 45.672C149.597 45.3453 149.923 45.098 150.306 44.93C150.689 44.7527 151.118 44.664 151.594 44.664C152.07 44.664 152.499 44.7527 152.882 44.93C153.265 45.098 153.591 45.3453 153.862 45.672C154.133 45.9893 154.343 46.3813 154.492 46.848C154.641 47.3053 154.716 47.828 154.716 48.416C154.716 49.004 154.641 49.5313 154.492 49.998C154.343 50.4647 154.133 50.8613 153.862 51.188C153.591 51.5053 153.265 51.748 152.882 51.916C152.499 52.084 152.07 52.168 151.594 52.168ZM151.594 51.454C152.294 51.454 152.845 51.2347 153.246 50.796C153.657 50.3573 153.862 49.7133 153.862 48.864V47.968C153.862 47.128 153.657 46.4887 153.246 46.05C152.845 45.602 152.294 45.378 151.594 45.378C150.894 45.378 150.339 45.5973 149.928 46.036C149.527 46.4747 149.326 47.1187 149.326 47.968V48.864C149.326 49.704 149.527 50.348 149.928 50.796C150.339 51.2347 150.894 51.454 151.594 51.454ZM155.862 44.832H156.646L158.368 51.286H158.396L160.3 44.832H161.042L162.96 51.286H162.988L164.696 44.832H165.466L163.45 52H162.47L160.664 45.966H160.636L158.844 52H157.878L155.862 44.832ZM167.23 52V44.832H168.028V45.966H168.07C168.228 45.5927 168.476 45.2847 168.812 45.042C169.148 44.79 169.605 44.664 170.184 44.664C170.949 44.664 171.542 44.902 171.962 45.378C172.391 45.8447 172.606 46.5167 172.606 47.394V52H171.808V47.534C171.808 46.806 171.649 46.2647 171.332 45.91C171.024 45.5553 170.571 45.378 169.974 45.378C169.722 45.378 169.479 45.4107 169.246 45.476C169.012 45.5413 168.802 45.6393 168.616 45.77C168.438 45.9007 168.294 46.0687 168.182 46.274C168.079 46.47 168.028 46.6987 168.028 46.96V52H167.23Z" fill="white"/>
</svg>
