<svg width="307" height="72" viewBox="0 0 307 72" fill="none" xmlns="http://www.w3.org/2000/svg">
<rect width="307" height="72" fill="#444444"/>
<path d="M24.504 30L23.44 26.962H19.282L18.218 30H17.378L20.836 20.228H21.914L25.386 30H24.504ZM21.382 21.026H21.326L19.492 26.234H23.216L21.382 21.026ZM30.3606 22.832H31.1586V23.98H31.2006C31.3779 23.5787 31.6486 23.2613 32.0126 23.028C32.3766 22.7853 32.8339 22.664 33.3846 22.664C34.3086 22.664 35.0319 22.9907 35.5546 23.644C36.0773 24.2973 36.3386 25.2213 36.3386 26.416C36.3386 27.6107 36.0773 28.5347 35.5546 29.188C35.0319 29.8413 34.3086 30.168 33.3846 30.168C32.8339 30.168 32.3813 30.0513 32.0266 29.818C31.6719 29.5753 31.3966 29.2533 31.2006 28.852H31.1586V32.8H30.3606V22.832ZM33.2026 29.454C33.9213 29.454 34.4813 29.2253 34.8826 28.768C35.2839 28.3107 35.4846 27.6947 35.4846 26.92V25.912C35.4846 25.1373 35.2839 24.5213 34.8826 24.064C34.4813 23.6067 33.9213 23.378 33.2026 23.378C32.9226 23.378 32.6566 23.42 32.4046 23.504C32.1619 23.5787 31.9473 23.686 31.7606 23.826C31.5739 23.966 31.4246 24.134 31.3126 24.33C31.2099 24.526 31.1586 24.7407 31.1586 24.974V27.816C31.1586 28.068 31.2099 28.2967 31.3126 28.502C31.4246 28.698 31.5739 28.8707 31.7606 29.02C31.9473 29.16 32.1619 29.2673 32.4046 29.342C32.6566 29.4167 32.9226 29.454 33.2026 29.454ZM38.3997 30V22.832H39.1977V24.12H39.2537C39.3937 23.784 39.6317 23.4853 39.9677 23.224C40.3037 22.9627 40.7797 22.832 41.3957 22.832H41.8717V23.616H41.2417C40.6443 23.616 40.1543 23.7467 39.7717 24.008C39.389 24.2693 39.1977 24.6333 39.1977 25.1V30H38.3997ZM45.9245 30.168C45.4485 30.168 45.0145 30.084 44.6225 29.916C44.2399 29.748 43.9085 29.5053 43.6285 29.188C43.3579 28.8613 43.1479 28.4647 42.9985 27.998C42.8585 27.5313 42.7885 27.004 42.7885 26.416C42.7885 25.828 42.8585 25.3053 42.9985 24.848C43.1479 24.3813 43.3579 23.9893 43.6285 23.672C43.9085 23.3453 44.2399 23.098 44.6225 22.93C45.0052 22.7527 45.4345 22.664 45.9105 22.664C46.3679 22.664 46.7832 22.7527 47.1565 22.93C47.5299 23.098 47.8472 23.336 48.1085 23.644C48.3699 23.952 48.5705 24.3253 48.7105 24.764C48.8599 25.1933 48.9345 25.6693 48.9345 26.192V26.57H43.6285V26.92C43.6285 27.2933 43.6799 27.6387 43.7825 27.956C43.8945 28.264 44.0485 28.53 44.2445 28.754C44.4499 28.978 44.6972 29.1553 44.9865 29.286C45.2759 29.4073 45.6025 29.468 45.9665 29.468C47.0119 29.468 47.7352 28.9873 48.1365 28.026L48.7245 28.418C48.5005 28.95 48.1459 29.3747 47.6605 29.692C47.1845 30.0093 46.6059 30.168 45.9245 30.168ZM45.9105 23.336C45.5652 23.336 45.2525 23.4013 44.9725 23.532C44.6925 23.6533 44.4499 23.826 44.2445 24.05C44.0485 24.274 43.8945 24.5447 43.7825 24.862C43.6799 25.17 43.6285 25.5107 43.6285 25.884V25.954H48.0665V25.842C48.0665 25.4687 48.0152 25.128 47.9125 24.82C47.8099 24.5027 47.6605 24.2367 47.4645 24.022C47.2779 23.8073 47.0492 23.6393 46.7785 23.518C46.5172 23.3967 46.2279 23.336 45.9105 23.336ZM50.9641 22.832H51.7621V23.98H51.8041C51.9814 23.5787 52.2521 23.2613 52.6161 23.028C52.9801 22.7853 53.4374 22.664 53.9881 22.664C54.9121 22.664 55.6354 22.9907 56.1581 23.644C56.6808 24.2973 56.9421 25.2213 56.9421 26.416C56.9421 27.6107 56.6808 28.5347 56.1581 29.188C55.6354 29.8413 54.9121 30.168 53.9881 30.168C53.4374 30.168 52.9848 30.0513 52.6301 29.818C52.2754 29.5753 52.0001 29.2533 51.8041 28.852H51.7621V32.8H50.9641V22.832ZM53.8061 29.454C54.5248 29.454 55.0848 29.2253 55.4861 28.768C55.8874 28.3107 56.0881 27.6947 56.0881 26.92V25.912C56.0881 25.1373 55.8874 24.5213 55.4861 24.064C55.0848 23.6067 54.5248 23.378 53.8061 23.378C53.5261 23.378 53.2601 23.42 53.0081 23.504C52.7654 23.5787 52.5508 23.686 52.3641 23.826C52.1774 23.966 52.0281 24.134 51.9161 24.33C51.8134 24.526 51.7621 24.7407 51.7621 24.974V27.816C51.7621 28.068 51.8134 28.2967 51.9161 28.502C52.0281 28.698 52.1774 28.8707 52.3641 29.02C52.5508 29.16 52.7654 29.2673 53.0081 29.342C53.2601 29.4167 53.5261 29.454 53.8061 29.454ZM63.9312 30C63.6232 30 63.3992 29.9207 63.2592 29.762C63.1192 29.6033 63.0398 29.3887 63.0212 29.118V28.866H62.9512C62.7925 29.2673 62.5312 29.5847 62.1672 29.818C61.8032 30.0513 61.3412 30.168 60.7812 30.168C60.0252 30.168 59.4418 29.986 59.0312 29.622C58.6205 29.2487 58.4152 28.726 58.4152 28.054C58.4152 27.4193 58.6392 26.9153 59.0872 26.542C59.5445 26.1687 60.2912 25.982 61.3272 25.982H62.9792V25.142C62.9792 23.9567 62.3678 23.364 61.1452 23.364C60.6692 23.364 60.2725 23.4667 59.9552 23.672C59.6378 23.868 59.3812 24.1527 59.1852 24.526L58.6812 24.106C58.8772 23.686 59.1758 23.3407 59.5772 23.07C59.9878 22.7993 60.5198 22.664 61.1732 22.664C62.0132 22.664 62.6572 22.874 63.1052 23.294C63.5532 23.714 63.7772 24.302 63.7772 25.058V29.3H64.7432V30H63.9312ZM60.8932 29.482C61.1825 29.482 61.4532 29.4447 61.7052 29.37C61.9572 29.2953 62.1765 29.1927 62.3632 29.062C62.5592 28.922 62.7085 28.7587 62.8112 28.572C62.9232 28.376 62.9792 28.1567 62.9792 27.914V26.584H61.2992C60.5805 26.584 60.0578 26.7007 59.7312 26.934C59.4138 27.158 59.2552 27.4707 59.2552 27.872V28.208C59.2552 28.628 59.4045 28.9453 59.7032 29.16C60.0018 29.3747 60.3985 29.482 60.8932 29.482ZM66.778 20.886C66.5913 20.886 66.4513 20.8393 66.358 20.746C66.274 20.6527 66.232 20.5313 66.232 20.382V20.242C66.232 20.0927 66.274 19.9713 66.358 19.878C66.4513 19.7847 66.5913 19.738 66.778 19.738C66.9647 19.738 67.1 19.7847 67.184 19.878C67.2773 19.9713 67.324 20.0927 67.324 20.242V20.382C67.324 20.5313 67.2773 20.6527 67.184 20.746C67.1 20.8393 66.9647 20.886 66.778 20.886ZM66.386 22.832H67.184V30H66.386V22.832ZM74.4243 28.852H74.3823C74.1956 29.2533 73.9203 29.5753 73.5563 29.818C73.2016 30.0513 72.7489 30.168 72.1983 30.168C71.2743 30.168 70.5509 29.8413 70.0283 29.188C69.5056 28.5347 69.2443 27.6107 69.2443 26.416C69.2443 25.2213 69.5056 24.2973 70.0283 23.644C70.5509 22.9907 71.2743 22.664 72.1983 22.664C72.7489 22.664 73.2063 22.7853 73.5703 23.028C73.9343 23.2613 74.2049 23.5787 74.3823 23.98H74.4243V19.64H75.2223V30H74.4243V28.852ZM72.3803 29.454C72.6603 29.454 72.9216 29.4167 73.1643 29.342C73.4163 29.2673 73.6356 29.16 73.8223 29.02C74.0089 28.8707 74.1536 28.698 74.2563 28.502C74.3683 28.2967 74.4243 28.068 74.4243 27.816V24.974C74.4243 24.7407 74.3683 24.526 74.2563 24.33C74.1536 24.134 74.0089 23.966 73.8223 23.826C73.6356 23.686 73.4163 23.5787 73.1643 23.504C72.9216 23.42 72.6603 23.378 72.3803 23.378C71.6616 23.378 71.1016 23.6067 70.7003 24.064C70.2989 24.5213 70.0983 25.1373 70.0983 25.912V26.92C70.0983 27.6947 70.2989 28.3107 70.7003 28.768C71.1016 29.2253 71.6616 29.454 72.3803 29.454ZM83.6579 30.168C82.6686 30.168 81.9033 29.8413 81.3619 29.188C80.8299 28.5347 80.5639 27.6107 80.5639 26.416C80.5639 25.2213 80.8299 24.2973 81.3619 23.644C81.9033 22.9907 82.6686 22.664 83.6579 22.664C84.3206 22.664 84.8573 22.8087 85.2679 23.098C85.6786 23.3873 85.9913 23.77 86.2059 24.246L85.5339 24.582C85.3659 24.19 85.1279 23.8913 84.8199 23.686C84.5213 23.4807 84.1339 23.378 83.6579 23.378C82.9299 23.378 82.3746 23.6113 81.9919 24.078C81.6093 24.5447 81.4179 25.156 81.4179 25.912V26.92C81.4179 27.676 81.6093 28.2873 81.9919 28.754C82.3746 29.2207 82.9299 29.454 83.6579 29.454C84.1526 29.454 84.5679 29.3467 84.9039 29.132C85.2399 28.9173 85.5106 28.6093 85.7159 28.208L86.3039 28.6C86.0706 29.076 85.7346 29.4587 85.2959 29.748C84.8666 30.028 84.3206 30.168 83.6579 30.168ZM92.5633 28.866H92.5073C92.4419 29.034 92.3533 29.1973 92.2413 29.356C92.1293 29.5147 91.9893 29.6547 91.8213 29.776C91.6533 29.888 91.4526 29.9813 91.2193 30.056C90.9953 30.1307 90.7293 30.168 90.4213 30.168C89.6559 30.168 89.0586 29.9347 88.6292 29.468C88.1999 28.992 87.9853 28.3153 87.9853 27.438V22.832H88.7833V27.284C88.7833 28.0213 88.9419 28.5673 89.2593 28.922C89.5766 29.2767 90.0339 29.454 90.6313 29.454C90.8833 29.454 91.1213 29.4213 91.3453 29.356C91.5786 29.2907 91.7839 29.1927 91.9613 29.062C92.1479 28.9313 92.2926 28.768 92.3953 28.572C92.5073 28.3667 92.5633 28.1287 92.5633 27.858V22.832H93.3613V30H92.5633V28.866ZM98.0019 30.168C97.3766 30.168 96.8399 30.0513 96.3919 29.818C95.9533 29.5847 95.5706 29.244 95.2439 28.796L95.8319 28.334C96.1306 28.726 96.4573 29.0153 96.8119 29.202C97.1666 29.3887 97.5819 29.482 98.0579 29.482C98.6086 29.482 99.0333 29.3653 99.3319 29.132C99.6306 28.8987 99.7799 28.5627 99.7799 28.124C99.7799 27.7413 99.6633 27.4427 99.4299 27.228C99.2059 27.004 98.8326 26.8547 98.3099 26.78L97.7219 26.682C97.3953 26.6353 97.0966 26.5653 96.8259 26.472C96.5553 26.3787 96.3219 26.2527 96.1259 26.094C95.9393 25.9353 95.7899 25.744 95.6779 25.52C95.5753 25.2867 95.5239 25.0067 95.5239 24.68C95.5239 24.344 95.5846 24.05 95.7059 23.798C95.8366 23.546 96.0093 23.336 96.2239 23.168C96.4386 23 96.6953 22.874 96.9939 22.79C97.2926 22.706 97.6146 22.664 97.9599 22.664C98.5573 22.664 99.0473 22.7667 99.4299 22.972C99.8126 23.1773 100.139 23.4433 100.41 23.77L99.8779 24.26C99.6913 24.036 99.4393 23.8307 99.1219 23.644C98.8139 23.448 98.4126 23.35 97.9179 23.35C97.4046 23.35 97.0033 23.462 96.7139 23.686C96.4339 23.91 96.2939 24.2273 96.2939 24.638C96.2939 25.058 96.4199 25.3613 96.6719 25.548C96.9333 25.7347 97.3206 25.87 97.8339 25.954L98.4079 26.038C99.1359 26.15 99.6726 26.3693 100.018 26.696C100.373 27.0133 100.55 27.4613 100.55 28.04C100.55 28.712 100.321 29.2347 99.8639 29.608C99.4159 29.9813 98.7953 30.168 98.0019 30.168ZM103.821 30C103.532 30 103.312 29.9207 103.163 29.762C103.014 29.6033 102.939 29.3887 102.939 29.118V23.532H101.693V22.832H102.505C102.701 22.832 102.832 22.7947 102.897 22.72C102.972 22.636 103.009 22.4913 103.009 22.286V20.83H103.737V22.832H105.361V23.532H103.737V29.3H105.249V30H103.821ZM109.772 30.168C109.296 30.168 108.867 30.084 108.484 29.916C108.101 29.748 107.775 29.5053 107.504 29.188C107.233 28.8613 107.023 28.4647 106.874 27.998C106.725 27.5313 106.65 27.004 106.65 26.416C106.65 25.828 106.725 25.3053 106.874 24.848C107.023 24.3813 107.233 23.9893 107.504 23.672C107.775 23.3453 108.101 23.098 108.484 22.93C108.867 22.7527 109.296 22.664 109.772 22.664C110.248 22.664 110.677 22.7527 111.06 22.93C111.443 23.098 111.769 23.3453 112.04 23.672C112.311 23.9893 112.521 24.3813 112.67 24.848C112.819 25.3053 112.894 25.828 112.894 26.416C112.894 27.004 112.819 27.5313 112.67 27.998C112.521 28.4647 112.311 28.8613 112.04 29.188C111.769 29.5053 111.443 29.748 111.06 29.916C110.677 30.084 110.248 30.168 109.772 30.168ZM109.772 29.454C110.472 29.454 111.023 29.2347 111.424 28.796C111.835 28.3573 112.04 27.7133 112.04 26.864V25.968C112.04 25.128 111.835 24.4887 111.424 24.05C111.023 23.602 110.472 23.378 109.772 23.378C109.072 23.378 108.517 23.5973 108.106 24.036C107.705 24.4747 107.504 25.1187 107.504 25.968V26.864C107.504 27.704 107.705 28.348 108.106 28.796C108.517 29.2347 109.072 29.454 109.772 29.454ZM114.921 30V22.832H115.719V23.966H115.761C115.836 23.7887 115.929 23.6253 116.041 23.476C116.153 23.3173 116.288 23.1773 116.447 23.056C116.606 22.9347 116.792 22.8413 117.007 22.776C117.231 22.7013 117.492 22.664 117.791 22.664C118.304 22.664 118.757 22.7853 119.149 23.028C119.541 23.2707 119.826 23.6533 120.003 24.176H120.045C120.176 23.756 120.423 23.4013 120.787 23.112C121.16 22.8133 121.664 22.664 122.299 22.664C123.064 22.664 123.652 22.902 124.063 23.378C124.474 23.8447 124.679 24.5167 124.679 25.394V30H123.881V25.534C123.881 24.0967 123.279 23.378 122.075 23.378C121.823 23.378 121.585 23.4107 121.361 23.476C121.137 23.5413 120.936 23.644 120.759 23.784C120.591 23.9147 120.456 24.0827 120.353 24.288C120.25 24.484 120.199 24.7127 120.199 24.974V30H119.401V25.534C119.401 24.0967 118.804 23.378 117.609 23.378C117.366 23.378 117.128 23.4107 116.895 23.476C116.671 23.5413 116.47 23.6393 116.293 23.77C116.116 23.9007 115.976 24.0687 115.873 24.274C115.77 24.47 115.719 24.6987 115.719 24.96V30H114.921ZM129.747 30.168C129.271 30.168 128.837 30.084 128.445 29.916C128.062 29.748 127.731 29.5053 127.451 29.188C127.18 28.8613 126.97 28.4647 126.821 27.998C126.681 27.5313 126.611 27.004 126.611 26.416C126.611 25.828 126.681 25.3053 126.821 24.848C126.97 24.3813 127.18 23.9893 127.451 23.672C127.731 23.3453 128.062 23.098 128.445 22.93C128.827 22.7527 129.257 22.664 129.733 22.664C130.19 22.664 130.605 22.7527 130.979 22.93C131.352 23.098 131.669 23.336 131.931 23.644C132.192 23.952 132.393 24.3253 132.533 24.764C132.682 25.1933 132.757 25.6693 132.757 26.192V26.57H127.451V26.92C127.451 27.2933 127.502 27.6387 127.605 27.956C127.717 28.264 127.871 28.53 128.067 28.754C128.272 28.978 128.519 29.1553 128.809 29.286C129.098 29.4073 129.425 29.468 129.789 29.468C130.834 29.468 131.557 28.9873 131.959 28.026L132.547 28.418C132.323 28.95 131.968 29.3747 131.483 29.692C131.007 30.0093 130.428 30.168 129.747 30.168ZM129.733 23.336C129.387 23.336 129.075 23.4013 128.795 23.532C128.515 23.6533 128.272 23.826 128.067 24.05C127.871 24.274 127.717 24.5447 127.605 24.862C127.502 25.17 127.451 25.5107 127.451 25.884V25.954H131.889V25.842C131.889 25.4687 131.837 25.128 131.735 24.82C131.632 24.5027 131.483 24.2367 131.287 24.022C131.1 23.8073 130.871 23.6393 130.601 23.518C130.339 23.3967 130.05 23.336 129.733 23.336ZM134.786 30V22.832H135.584V24.12H135.64C135.78 23.784 136.018 23.4853 136.354 23.224C136.69 22.9627 137.166 22.832 137.782 22.832H138.258V23.616H137.628C137.031 23.616 136.541 23.7467 136.158 24.008C135.776 24.2693 135.584 24.6333 135.584 25.1V30H134.786ZM145.619 30.168C144.63 30.168 143.864 29.8413 143.323 29.188C142.791 28.5347 142.525 27.6107 142.525 26.416C142.525 25.2213 142.791 24.2973 143.323 23.644C143.864 22.9907 144.63 22.664 145.619 22.664C146.282 22.664 146.818 22.8087 147.229 23.098C147.64 23.3873 147.952 23.77 148.167 24.246L147.495 24.582C147.327 24.19 147.089 23.8913 146.781 23.686C146.482 23.4807 146.095 23.378 145.619 23.378C144.891 23.378 144.336 23.6113 143.953 24.078C143.57 24.5447 143.379 25.156 143.379 25.912V26.92C143.379 27.676 143.57 28.2873 143.953 28.754C144.336 29.2207 144.891 29.454 145.619 29.454C146.114 29.454 146.529 29.3467 146.865 29.132C147.201 28.9173 147.472 28.6093 147.677 28.208L148.265 28.6C148.032 29.076 147.696 29.4587 147.257 29.748C146.828 30.028 146.282 30.168 145.619 30.168ZM152.483 30.168C152.007 30.168 151.577 30.084 151.195 29.916C150.812 29.748 150.485 29.5053 150.215 29.188C149.944 28.8613 149.734 28.4647 149.585 27.998C149.435 27.5313 149.361 27.004 149.361 26.416C149.361 25.828 149.435 25.3053 149.585 24.848C149.734 24.3813 149.944 23.9893 150.215 23.672C150.485 23.3453 150.812 23.098 151.195 22.93C151.577 22.7527 152.007 22.664 152.483 22.664C152.959 22.664 153.388 22.7527 153.771 22.93C154.153 23.098 154.48 23.3453 154.751 23.672C155.021 23.9893 155.231 24.3813 155.381 24.848C155.53 25.3053 155.605 25.828 155.605 26.416C155.605 27.004 155.53 27.5313 155.381 27.998C155.231 28.4647 155.021 28.8613 154.751 29.188C154.48 29.5053 154.153 29.748 153.771 29.916C153.388 30.084 152.959 30.168 152.483 30.168ZM152.483 29.454C153.183 29.454 153.733 29.2347 154.135 28.796C154.545 28.3573 154.751 27.7133 154.751 26.864V25.968C154.751 25.128 154.545 24.4887 154.135 24.05C153.733 23.602 153.183 23.378 152.483 23.378C151.783 23.378 151.227 23.5973 150.817 24.036C150.415 24.4747 150.215 25.1187 150.215 25.968V26.864C150.215 27.704 150.415 28.348 150.817 28.796C151.227 29.2347 151.783 29.454 152.483 29.454ZM157.632 30V22.832H158.43V23.966H158.472C158.547 23.7887 158.64 23.6253 158.752 23.476C158.864 23.3173 158.999 23.1773 159.158 23.056C159.317 22.9347 159.503 22.8413 159.718 22.776C159.942 22.7013 160.203 22.664 160.502 22.664C161.015 22.664 161.468 22.7853 161.86 23.028C162.252 23.2707 162.537 23.6533 162.714 24.176H162.756C162.887 23.756 163.134 23.4013 163.498 23.112C163.871 22.8133 164.375 22.664 165.01 22.664C165.775 22.664 166.363 22.902 166.774 23.378C167.185 23.8447 167.39 24.5167 167.39 25.394V30H166.592V25.534C166.592 24.0967 165.99 23.378 164.786 23.378C164.534 23.378 164.296 23.4107 164.072 23.476C163.848 23.5413 163.647 23.644 163.47 23.784C163.302 23.9147 163.167 24.0827 163.064 24.288C162.961 24.484 162.91 24.7127 162.91 24.974V30H162.112V25.534C162.112 24.0967 161.515 23.378 160.32 23.378C160.077 23.378 159.839 23.4107 159.606 23.476C159.382 23.5413 159.181 23.6393 159.004 23.77C158.827 23.9007 158.687 24.0687 158.584 24.274C158.481 24.47 158.43 24.6987 158.43 24.96V30H157.632ZM172.458 30.168C171.982 30.168 171.548 30.084 171.156 29.916C170.773 29.748 170.442 29.5053 170.162 29.188C169.891 28.8613 169.681 28.4647 169.532 27.998C169.392 27.5313 169.322 27.004 169.322 26.416C169.322 25.828 169.392 25.3053 169.532 24.848C169.681 24.3813 169.891 23.9893 170.162 23.672C170.442 23.3453 170.773 23.098 171.156 22.93C171.538 22.7527 171.968 22.664 172.444 22.664C172.901 22.664 173.316 22.7527 173.69 22.93C174.063 23.098 174.38 23.336 174.642 23.644C174.903 23.952 175.104 24.3253 175.244 24.764C175.393 25.1933 175.468 25.6693 175.468 26.192V26.57H170.162V26.92C170.162 27.2933 170.213 27.6387 170.316 27.956C170.428 28.264 170.582 28.53 170.778 28.754C170.983 28.978 171.23 29.1553 171.52 29.286C171.809 29.4073 172.136 29.468 172.5 29.468C173.545 29.468 174.268 28.9873 174.67 28.026L175.258 28.418C175.034 28.95 174.679 29.3747 174.194 29.692C173.718 30.0093 173.139 30.168 172.458 30.168ZM172.444 23.336C172.098 23.336 171.786 23.4013 171.506 23.532C171.226 23.6533 170.983 23.826 170.778 24.05C170.582 24.274 170.428 24.5447 170.316 24.862C170.213 25.17 170.162 25.5107 170.162 25.884V25.954H174.6V25.842C174.6 25.4687 174.548 25.128 174.446 24.82C174.343 24.5027 174.194 24.2367 173.998 24.022C173.811 23.8073 173.582 23.6393 173.312 23.518C173.05 23.3967 172.761 23.336 172.444 23.336ZM179.527 30.168C178.902 30.168 178.365 30.0513 177.917 29.818C177.479 29.5847 177.096 29.244 176.769 28.796L177.357 28.334C177.656 28.726 177.983 29.0153 178.337 29.202C178.692 29.3887 179.107 29.482 179.583 29.482C180.134 29.482 180.559 29.3653 180.857 29.132C181.156 28.8987 181.305 28.5627 181.305 28.124C181.305 27.7413 181.189 27.4427 180.955 27.228C180.731 27.004 180.358 26.8547 179.835 26.78L179.247 26.682C178.921 26.6353 178.622 26.5653 178.351 26.472C178.081 26.3787 177.847 26.2527 177.651 26.094C177.465 25.9353 177.315 25.744 177.203 25.52C177.101 25.2867 177.049 25.0067 177.049 24.68C177.049 24.344 177.11 24.05 177.231 23.798C177.362 23.546 177.535 23.336 177.749 23.168C177.964 23 178.221 22.874 178.519 22.79C178.818 22.706 179.14 22.664 179.485 22.664C180.083 22.664 180.573 22.7667 180.955 22.972C181.338 23.1773 181.665 23.4433 181.935 23.77L181.403 24.26C181.217 24.036 180.965 23.8307 180.647 23.644C180.339 23.448 179.938 23.35 179.443 23.35C178.93 23.35 178.529 23.462 178.239 23.686C177.959 23.91 177.819 24.2273 177.819 24.638C177.819 25.058 177.945 25.3613 178.197 25.548C178.459 25.7347 178.846 25.87 179.359 25.954L179.933 26.038C180.661 26.15 181.198 26.3693 181.543 26.696C181.898 27.0133 182.075 27.4613 182.075 28.04C182.075 28.712 181.847 29.2347 181.389 29.608C180.941 29.9813 180.321 30.168 179.527 30.168ZM187.87 20.886C187.683 20.886 187.543 20.8393 187.45 20.746C187.366 20.6527 187.324 20.5313 187.324 20.382V20.242C187.324 20.0927 187.366 19.9713 187.45 19.878C187.543 19.7847 187.683 19.738 187.87 19.738C188.056 19.738 188.192 19.7847 188.276 19.878C188.369 19.9713 188.416 20.0927 188.416 20.242V20.382C188.416 20.5313 188.369 20.6527 188.276 20.746C188.192 20.8393 188.056 20.886 187.87 20.886ZM187.478 22.832H188.276V30H187.478V22.832ZM190.882 30V22.832H191.68V23.966H191.722C191.881 23.5927 192.128 23.2847 192.464 23.042C192.8 22.79 193.257 22.664 193.836 22.664C194.601 22.664 195.194 22.902 195.614 23.378C196.043 23.8447 196.258 24.5167 196.258 25.394V30H195.46V25.534C195.46 24.806 195.301 24.2647 194.984 23.91C194.676 23.5553 194.223 23.378 193.626 23.378C193.374 23.378 193.131 23.4107 192.898 23.476C192.665 23.5413 192.455 23.6393 192.268 23.77C192.091 23.9007 191.946 24.0687 191.834 24.274C191.731 24.47 191.68 24.6987 191.68 24.96V30H190.882ZM207.007 30C206.699 30 206.475 29.9207 206.335 29.762C206.195 29.6033 206.116 29.3887 206.097 29.118V28.866H206.027C205.869 29.2673 205.607 29.5847 205.243 29.818C204.879 30.0513 204.417 30.168 203.857 30.168C203.101 30.168 202.518 29.986 202.107 29.622C201.697 29.2487 201.491 28.726 201.491 28.054C201.491 27.4193 201.715 26.9153 202.163 26.542C202.621 26.1687 203.367 25.982 204.403 25.982H206.055V25.142C206.055 23.9567 205.444 23.364 204.221 23.364C203.745 23.364 203.349 23.4667 203.031 23.672C202.714 23.868 202.457 24.1527 202.261 24.526L201.757 24.106C201.953 23.686 202.252 23.3407 202.653 23.07C203.064 22.7993 203.596 22.664 204.249 22.664C205.089 22.664 205.733 22.874 206.181 23.294C206.629 23.714 206.853 24.302 206.853 25.058V29.3H207.819V30H207.007ZM203.969 29.482C204.259 29.482 204.529 29.4447 204.781 29.37C205.033 29.2953 205.253 29.1927 205.439 29.062C205.635 28.922 205.785 28.7587 205.887 28.572C205.999 28.376 206.055 28.1567 206.055 27.914V26.584H204.375C203.657 26.584 203.134 26.7007 202.807 26.934C202.49 27.158 202.331 27.4707 202.331 27.872V28.208C202.331 28.628 202.481 28.9453 202.779 29.16C203.078 29.3747 203.475 29.482 203.969 29.482ZM209.462 30V22.832H210.26V23.966H210.302C210.461 23.5927 210.708 23.2847 211.044 23.042C211.38 22.79 211.837 22.664 212.416 22.664C213.181 22.664 213.774 22.902 214.194 23.378C214.623 23.8447 214.838 24.5167 214.838 25.394V30H214.04V25.534C214.04 24.806 213.881 24.2647 213.564 23.91C213.256 23.5553 212.803 23.378 212.206 23.378C211.954 23.378 211.711 23.4107 211.478 23.476C211.245 23.5413 211.035 23.6393 210.848 23.77C210.671 23.9007 210.526 24.0687 210.414 24.274C210.311 24.47 210.26 24.6987 210.26 24.96V30H209.462ZM221.985 28.852H221.943C221.756 29.2533 221.481 29.5753 221.117 29.818C220.762 30.0513 220.309 30.168 219.759 30.168C218.835 30.168 218.111 29.8413 217.589 29.188C217.066 28.5347 216.805 27.6107 216.805 26.416C216.805 25.2213 217.066 24.2973 217.589 23.644C218.111 22.9907 218.835 22.664 219.759 22.664C220.309 22.664 220.767 22.7853 221.131 23.028C221.495 23.2613 221.765 23.5787 221.943 23.98H221.985V19.64H222.783V30H221.985V28.852ZM219.941 29.454C220.221 29.454 220.482 29.4167 220.725 29.342C220.977 29.2673 221.196 29.16 221.383 29.02C221.569 28.8707 221.714 28.698 221.817 28.502C221.929 28.2967 221.985 28.068 221.985 27.816V24.974C221.985 24.7407 221.929 24.526 221.817 24.33C221.714 24.134 221.569 23.966 221.383 23.826C221.196 23.686 220.977 23.5787 220.725 23.504C220.482 23.42 220.221 23.378 219.941 23.378C219.222 23.378 218.662 23.6067 218.261 24.064C217.859 24.5213 217.659 25.1373 217.659 25.912V26.92C217.659 27.6947 217.859 28.3107 218.261 28.768C218.662 29.2253 219.222 29.454 219.941 29.454ZM230.728 30.168C230.103 30.168 229.566 30.0513 229.118 29.818C228.68 29.5847 228.297 29.244 227.97 28.796L228.558 28.334C228.857 28.726 229.184 29.0153 229.538 29.202C229.893 29.3887 230.308 29.482 230.784 29.482C231.335 29.482 231.76 29.3653 232.058 29.132C232.357 28.8987 232.506 28.5627 232.506 28.124C232.506 27.7413 232.39 27.4427 232.156 27.228C231.932 27.004 231.559 26.8547 231.036 26.78L230.448 26.682C230.122 26.6353 229.823 26.5653 229.552 26.472C229.282 26.3787 229.048 26.2527 228.852 26.094C228.666 25.9353 228.516 25.744 228.404 25.52C228.302 25.2867 228.25 25.0067 228.25 24.68C228.25 24.344 228.311 24.05 228.432 23.798C228.563 23.546 228.736 23.336 228.95 23.168C229.165 23 229.422 22.874 229.72 22.79C230.019 22.706 230.341 22.664 230.686 22.664C231.284 22.664 231.774 22.7667 232.156 22.972C232.539 23.1773 232.866 23.4433 233.136 23.77L232.604 24.26C232.418 24.036 232.166 23.8307 231.848 23.644C231.54 23.448 231.139 23.35 230.644 23.35C230.131 23.35 229.73 23.462 229.44 23.686C229.16 23.91 229.02 24.2273 229.02 24.638C229.02 25.058 229.146 25.3613 229.398 25.548C229.66 25.7347 230.047 25.87 230.56 25.954L231.134 26.038C231.862 26.15 232.399 26.3693 232.744 26.696C233.099 27.0133 233.276 27.4613 233.276 28.04C233.276 28.712 233.048 29.2347 232.59 29.608C232.142 29.9813 231.522 30.168 230.728 30.168ZM235.762 20.886C235.576 20.886 235.436 20.8393 235.342 20.746C235.258 20.6527 235.216 20.5313 235.216 20.382V20.242C235.216 20.0927 235.258 19.9713 235.342 19.878C235.436 19.7847 235.576 19.738 235.762 19.738C235.949 19.738 236.084 19.7847 236.168 19.878C236.262 19.9713 236.308 20.0927 236.308 20.242V20.382C236.308 20.5313 236.262 20.6527 236.168 20.746C236.084 20.8393 235.949 20.886 235.762 20.886ZM235.37 22.832H236.168V30H235.37V22.832ZM238.775 30V22.832H239.573V23.966H239.615C239.689 23.7887 239.783 23.6253 239.895 23.476C240.007 23.3173 240.142 23.1773 240.301 23.056C240.459 22.9347 240.646 22.8413 240.861 22.776C241.085 22.7013 241.346 22.664 241.645 22.664C242.158 22.664 242.611 22.7853 243.003 23.028C243.395 23.2707 243.679 23.6533 243.857 24.176H243.899C244.029 23.756 244.277 23.4013 244.641 23.112C245.014 22.8133 245.518 22.664 246.153 22.664C246.918 22.664 247.506 22.902 247.917 23.378C248.327 23.8447 248.533 24.5167 248.533 25.394V30H247.735V25.534C247.735 24.0967 247.133 23.378 245.929 23.378C245.677 23.378 245.439 23.4107 245.215 23.476C244.991 23.5413 244.79 23.644 244.613 23.784C244.445 23.9147 244.309 24.0827 244.207 24.288C244.104 24.484 244.053 24.7127 244.053 24.974V30H243.255V25.534C243.255 24.0967 242.657 23.378 241.463 23.378C241.22 23.378 240.982 23.4107 240.749 23.476C240.525 23.5413 240.324 23.6393 240.147 23.77C239.969 23.9007 239.829 24.0687 239.727 24.274C239.624 24.47 239.573 24.6987 239.573 24.96V30H238.775ZM251.038 22.832H251.836V23.98H251.878C252.056 23.5787 252.326 23.2613 252.69 23.028C253.054 22.7853 253.512 22.664 254.062 22.664C254.986 22.664 255.71 22.9907 256.232 23.644C256.755 24.2973 257.016 25.2213 257.016 26.416C257.016 27.6107 256.755 28.5347 256.232 29.188C255.71 29.8413 254.986 30.168 254.062 30.168C253.512 30.168 253.059 30.0513 252.704 29.818C252.35 29.5753 252.074 29.2533 251.878 28.852H251.836V32.8H251.038V22.832ZM253.88 29.454C254.599 29.454 255.159 29.2253 255.56 28.768C255.962 28.3107 256.162 27.6947 256.162 26.92V25.912C256.162 25.1373 255.962 24.5213 255.56 24.064C255.159 23.6067 254.599 23.378 253.88 23.378C253.6 23.378 253.334 23.42 253.082 23.504C252.84 23.5787 252.625 23.686 252.438 23.826C252.252 23.966 252.102 24.134 251.99 24.33C251.888 24.526 251.836 24.7407 251.836 24.974V27.816C251.836 28.068 251.888 28.2967 251.99 28.502C252.102 28.698 252.252 28.8707 252.438 29.02C252.625 29.16 252.84 29.2673 253.082 29.342C253.334 29.4167 253.6 29.454 253.88 29.454ZM259.959 30C259.67 30 259.451 29.9207 259.301 29.762C259.152 29.6033 259.077 29.3933 259.077 29.132V19.64H259.875V29.3H260.981V30H259.959ZM266.943 22.832H267.755L264.437 32.016C264.325 32.3147 264.19 32.52 264.031 32.632C263.873 32.744 263.611 32.8 263.247 32.8H262.435V32.1H263.639L264.325 30.21L261.665 22.832H262.505L264.703 29.146H264.759L266.943 22.832ZM18.302 44.832H19.1V45.98H19.142C19.3193 45.5787 19.59 45.2613 19.954 45.028C20.318 44.7853 20.7753 44.664 21.326 44.664C22.25 44.664 22.9733 44.9907 23.496 45.644C24.0187 46.2973 24.28 47.2213 24.28 48.416C24.28 49.6107 24.0187 50.5347 23.496 51.188C22.9733 51.8413 22.25 52.168 21.326 52.168C20.7753 52.168 20.3227 52.0513 19.968 51.818C19.6133 51.5753 19.338 51.2533 19.142 50.852H19.1V54.8H18.302V44.832ZM21.144 51.454C21.8627 51.454 22.4227 51.2253 22.824 50.768C23.2253 50.3107 23.426 49.6947 23.426 48.92V47.912C23.426 47.1373 23.2253 46.5213 22.824 46.064C22.4227 45.6067 21.8627 45.378 21.144 45.378C20.864 45.378 20.598 45.42 20.346 45.504C20.1033 45.5787 19.8887 45.686 19.702 45.826C19.5153 45.966 19.366 46.134 19.254 46.33C19.1513 46.526 19.1 46.7407 19.1 46.974V49.816C19.1 50.068 19.1513 50.2967 19.254 50.502C19.366 50.698 19.5153 50.8707 19.702 51.02C19.8887 51.16 20.1033 51.2673 20.346 51.342C20.598 51.4167 20.864 51.454 21.144 51.454ZM26.7331 42.886C26.5464 42.886 26.4064 42.8393 26.3131 42.746C26.2291 42.6527 26.1871 42.5313 26.1871 42.382V42.242C26.1871 42.0927 26.2291 41.9713 26.3131 41.878C26.4064 41.7847 26.5464 41.738 26.7331 41.738C26.9197 41.738 27.0551 41.7847 27.1391 41.878C27.2324 41.9713 27.2791 42.0927 27.2791 42.242V42.382C27.2791 42.5313 27.2324 42.6527 27.1391 42.746C27.0551 42.8393 26.9197 42.886 26.7331 42.886ZM26.3411 44.832H27.1391V52H26.3411V44.832ZM32.2654 52.168C31.276 52.168 30.5107 51.8413 29.9694 51.188C29.4374 50.5347 29.1714 49.6107 29.1714 48.416C29.1714 47.2213 29.4374 46.2973 29.9694 45.644C30.5107 44.9907 31.276 44.664 32.2654 44.664C32.928 44.664 33.4647 44.8087 33.8754 45.098C34.286 45.3873 34.5987 45.77 34.8134 46.246L34.1414 46.582C33.9734 46.19 33.7354 45.8913 33.4274 45.686C33.1287 45.4807 32.7414 45.378 32.2654 45.378C31.5374 45.378 30.982 45.6113 30.5994 46.078C30.2167 46.5447 30.0254 47.156 30.0254 47.912V48.92C30.0254 49.676 30.2167 50.2873 30.5994 50.754C30.982 51.2207 31.5374 51.454 32.2654 51.454C32.76 51.454 33.1754 51.3467 33.5114 51.132C33.8474 50.9173 34.118 50.6093 34.3234 50.208L34.9114 50.6C34.678 51.076 34.342 51.4587 33.9034 51.748C33.474 52.028 32.928 52.168 32.2654 52.168ZM36.6907 41.64H37.4887V48.486H37.5307L38.6507 47.296L41.0307 44.832H42.0107L39.1967 47.744L42.3187 52H41.3387L38.6227 48.248L37.4887 49.396V52H36.6907V41.64ZM45.789 52.168C45.1637 52.168 44.627 52.0513 44.179 51.818C43.7404 51.5847 43.3577 51.244 43.031 50.796L43.619 50.334C43.9177 50.726 44.2444 51.0153 44.599 51.202C44.9537 51.3887 45.369 51.482 45.845 51.482C46.3957 51.482 46.8204 51.3653 47.119 51.132C47.4177 50.8987 47.567 50.5627 47.567 50.124C47.567 49.7413 47.4504 49.4427 47.217 49.228C46.993 49.004 46.6197 48.8547 46.097 48.78L45.509 48.682C45.1824 48.6353 44.8837 48.5653 44.613 48.472C44.3424 48.3787 44.109 48.2527 43.913 48.094C43.7264 47.9353 43.577 47.744 43.465 47.52C43.3624 47.2867 43.311 47.0067 43.311 46.68C43.311 46.344 43.3717 46.05 43.493 45.798C43.6237 45.546 43.7964 45.336 44.011 45.168C44.2257 45 44.4824 44.874 44.781 44.79C45.0797 44.706 45.4017 44.664 45.747 44.664C46.3444 44.664 46.8344 44.7667 47.217 44.972C47.5997 45.1773 47.9264 45.4433 48.197 45.77L47.665 46.26C47.4784 46.036 47.2264 45.8307 46.909 45.644C46.601 45.448 46.1997 45.35 45.705 45.35C45.1917 45.35 44.7904 45.462 44.501 45.686C44.221 45.91 44.081 46.2273 44.081 46.638C44.081 47.058 44.207 47.3613 44.459 47.548C44.7204 47.7347 45.1077 47.87 45.621 47.954L46.195 48.038C46.923 48.15 47.4597 48.3693 47.805 48.696C48.1597 49.0133 48.337 49.4613 48.337 50.04C48.337 50.712 48.1084 51.2347 47.651 51.608C47.203 51.9813 46.5824 52.168 45.789 52.168ZM58.2195 50.866H58.1635C58.0982 51.034 58.0095 51.1973 57.8975 51.356C57.7855 51.5147 57.6455 51.6547 57.4775 51.776C57.3095 51.888 57.1088 51.9813 56.8755 52.056C56.6515 52.1307 56.3855 52.168 56.0775 52.168C55.3122 52.168 54.7148 51.9347 54.2855 51.468C53.8562 50.992 53.6415 50.3153 53.6415 49.438V44.832H54.4395V49.284C54.4395 50.0213 54.5982 50.5673 54.9155 50.922C55.2328 51.2767 55.6902 51.454 56.2875 51.454C56.5395 51.454 56.7775 51.4213 57.0015 51.356C57.2348 51.2907 57.4402 51.1927 57.6175 51.062C57.8042 50.9313 57.9488 50.768 58.0515 50.572C58.1635 50.3667 58.2195 50.1287 58.2195 49.858V44.832H59.0175V52H58.2195V50.866ZM61.6282 44.832H62.4262V45.98H62.4682C62.6455 45.5787 62.9162 45.2613 63.2802 45.028C63.6442 44.7853 64.1015 44.664 64.6522 44.664C65.5762 44.664 66.2995 44.9907 66.8222 45.644C67.3448 46.2973 67.6062 47.2213 67.6062 48.416C67.6062 49.6107 67.3448 50.5347 66.8222 51.188C66.2995 51.8413 65.5762 52.168 64.6522 52.168C64.1015 52.168 63.6488 52.0513 63.2942 51.818C62.9395 51.5753 62.6642 51.2533 62.4682 50.852H62.4262V54.8H61.6282V44.832ZM64.4702 51.454C65.1888 51.454 65.7488 51.2253 66.1502 50.768C66.5515 50.3107 66.7522 49.6947 66.7522 48.92V47.912C66.7522 47.1373 66.5515 46.5213 66.1502 46.064C65.7488 45.6067 65.1888 45.378 64.4702 45.378C64.1902 45.378 63.9242 45.42 63.6722 45.504C63.4295 45.5787 63.2148 45.686 63.0282 45.826C62.8415 45.966 62.6922 46.134 62.5802 46.33C62.4775 46.526 62.4262 46.7407 62.4262 46.974V49.816C62.4262 50.068 62.4775 50.2967 62.5802 50.502C62.6922 50.698 62.8415 50.8707 63.0282 51.02C63.2148 51.16 63.4295 51.2673 63.6722 51.342C63.9242 51.4167 64.1902 51.454 64.4702 51.454ZM74.2078 52C73.9185 52 73.6992 51.9207 73.5498 51.762C73.4005 51.6033 73.3258 51.3887 73.3258 51.118V45.532H72.0798V44.832H72.8918C73.0878 44.832 73.2185 44.7947 73.2838 44.72C73.3585 44.636 73.3958 44.4913 73.3958 44.286V42.83H74.1238V44.832H75.7478V45.532H74.1238V51.3H75.6358V52H74.2078ZM77.6653 41.64H78.4633V45.966H78.5053C78.6639 45.5927 78.9113 45.2847 79.2473 45.042C79.5833 44.79 80.0406 44.664 80.6193 44.664C81.3846 44.664 81.9773 44.902 82.3973 45.378C82.8266 45.8447 83.0413 46.5167 83.0413 47.394V52H82.2433V47.534C82.2433 46.806 82.0846 46.2647 81.7673 45.91C81.4593 45.5553 81.0066 45.378 80.4093 45.378C80.1573 45.378 79.9146 45.4107 79.6813 45.476C79.4479 45.5413 79.2379 45.6393 79.0513 45.77C78.8739 45.9007 78.7293 46.0687 78.6173 46.274C78.5146 46.47 78.4633 46.6987 78.4633 46.96V52H77.6653V41.64ZM88.116 52.168C87.64 52.168 87.206 52.084 86.814 51.916C86.4313 51.748 86.1 51.5053 85.82 51.188C85.5493 50.8613 85.3393 50.4647 85.19 49.998C85.05 49.5313 84.98 49.004 84.98 48.416C84.98 47.828 85.05 47.3053 85.19 46.848C85.3393 46.3813 85.5493 45.9893 85.82 45.672C86.1 45.3453 86.4313 45.098 86.814 44.93C87.1966 44.7527 87.626 44.664 88.102 44.664C88.5593 44.664 88.9746 44.7527 89.348 44.93C89.7213 45.098 90.0386 45.336 90.3 45.644C90.5613 45.952 90.762 46.3253 90.902 46.764C91.0513 47.1933 91.126 47.6693 91.126 48.192V48.57H85.82V48.92C85.82 49.2933 85.8713 49.6387 85.974 49.956C86.086 50.264 86.24 50.53 86.436 50.754C86.6413 50.978 86.8886 51.1553 87.178 51.286C87.4673 51.4073 87.794 51.468 88.158 51.468C89.2033 51.468 89.9266 50.9873 90.328 50.026L90.916 50.418C90.692 50.95 90.3373 51.3747 89.852 51.692C89.376 52.0093 88.7973 52.168 88.116 52.168ZM88.102 45.336C87.7566 45.336 87.444 45.4013 87.164 45.532C86.884 45.6533 86.6413 45.826 86.436 46.05C86.24 46.274 86.086 46.5447 85.974 46.862C85.8713 47.17 85.82 47.5107 85.82 47.884V47.954H90.258V47.842C90.258 47.4687 90.2066 47.128 90.104 46.82C90.0013 46.5027 89.852 46.2367 89.656 46.022C89.4693 45.8073 89.2406 45.6393 88.97 45.518C88.7086 45.3967 88.4193 45.336 88.102 45.336ZM99.0121 52.168C98.5361 52.168 98.1068 52.084 97.7241 51.916C97.3414 51.748 97.0148 51.5053 96.7441 51.188C96.4734 50.8613 96.2634 50.4647 96.1141 49.998C95.9648 49.5313 95.8901 49.004 95.8901 48.416C95.8901 47.828 95.9648 47.3053 96.1141 46.848C96.2634 46.3813 96.4734 45.9893 96.7441 45.672C97.0148 45.3453 97.3414 45.098 97.7241 44.93C98.1068 44.7527 98.5361 44.664 99.0121 44.664C99.4881 44.664 99.9174 44.7527 100.3 44.93C100.683 45.098 101.009 45.3453 101.28 45.672C101.551 45.9893 101.761 46.3813 101.91 46.848C102.059 47.3053 102.134 47.828 102.134 48.416C102.134 49.004 102.059 49.5313 101.91 49.998C101.761 50.4647 101.551 50.8613 101.28 51.188C101.009 51.5053 100.683 51.748 100.3 51.916C99.9174 52.084 99.4881 52.168 99.0121 52.168ZM99.0121 51.454C99.7121 51.454 100.263 51.2347 100.664 50.796C101.075 50.3573 101.28 49.7133 101.28 48.864V47.968C101.28 47.128 101.075 46.4887 100.664 46.05C100.263 45.602 99.7121 45.378 99.0121 45.378C98.3121 45.378 97.7568 45.5973 97.3461 46.036C96.9448 46.4747 96.7441 47.1187 96.7441 47.968V48.864C96.7441 49.704 96.9448 50.348 97.3461 50.796C97.7568 51.2347 98.3121 51.454 99.0121 51.454ZM104.161 52V44.832H104.959V46.12H105.015C105.155 45.784 105.393 45.4853 105.729 45.224C106.065 44.9627 106.541 44.832 107.157 44.832H107.633V45.616H107.003C106.406 45.616 105.916 45.7467 105.533 46.008C105.151 46.2693 104.959 46.6333 104.959 47.1V52H104.161ZM113.745 50.852H113.703C113.516 51.2533 113.241 51.5753 112.877 51.818C112.522 52.0513 112.069 52.168 111.519 52.168C110.595 52.168 109.871 51.8413 109.349 51.188C108.826 50.5347 108.565 49.6107 108.565 48.416C108.565 47.2213 108.826 46.2973 109.349 45.644C109.871 44.9907 110.595 44.664 111.519 44.664C112.069 44.664 112.527 44.7853 112.891 45.028C113.255 45.2613 113.525 45.5787 113.703 45.98H113.745V41.64H114.543V52H113.745V50.852ZM111.701 51.454C111.981 51.454 112.242 51.4167 112.485 51.342C112.737 51.2673 112.956 51.16 113.143 51.02C113.329 50.8707 113.474 50.698 113.577 50.502C113.689 50.2967 113.745 50.068 113.745 49.816V46.974C113.745 46.7407 113.689 46.526 113.577 46.33C113.474 46.134 113.329 45.966 113.143 45.826C112.956 45.686 112.737 45.5787 112.485 45.504C112.242 45.42 111.981 45.378 111.701 45.378C110.982 45.378 110.422 45.6067 110.021 46.064C109.619 46.5213 109.419 47.1373 109.419 47.912V48.92C109.419 49.6947 109.619 50.3107 110.021 50.768C110.422 51.2253 110.982 51.454 111.701 51.454ZM119.712 52.168C119.236 52.168 118.802 52.084 118.41 51.916C118.027 51.748 117.696 51.5053 117.416 51.188C117.145 50.8613 116.935 50.4647 116.786 49.998C116.646 49.5313 116.576 49.004 116.576 48.416C116.576 47.828 116.646 47.3053 116.786 46.848C116.935 46.3813 117.145 45.9893 117.416 45.672C117.696 45.3453 118.027 45.098 118.41 44.93C118.792 44.7527 119.222 44.664 119.698 44.664C120.155 44.664 120.57 44.7527 120.944 44.93C121.317 45.098 121.634 45.336 121.896 45.644C122.157 45.952 122.358 46.3253 122.498 46.764C122.647 47.1933 122.722 47.6693 122.722 48.192V48.57H117.416V48.92C117.416 49.2933 117.467 49.6387 117.57 49.956C117.682 50.264 117.836 50.53 118.032 50.754C118.237 50.978 118.484 51.1553 118.774 51.286C119.063 51.4073 119.39 51.468 119.754 51.468C120.799 51.468 121.522 50.9873 121.924 50.026L122.512 50.418C122.288 50.95 121.933 51.3747 121.448 51.692C120.972 52.0093 120.393 52.168 119.712 52.168ZM119.698 45.336C119.352 45.336 119.04 45.4013 118.76 45.532C118.48 45.6533 118.237 45.826 118.032 46.05C117.836 46.274 117.682 46.5447 117.57 46.862C117.467 47.17 117.416 47.5107 117.416 47.884V47.954H121.854V47.842C121.854 47.4687 121.802 47.128 121.7 46.82C121.597 46.5027 121.448 46.2367 121.252 46.022C121.065 45.8073 120.836 45.6393 120.566 45.518C120.304 45.3967 120.015 45.336 119.698 45.336ZM124.751 52V44.832H125.549V46.12H125.605C125.745 45.784 125.983 45.4853 126.319 45.224C126.655 44.9627 127.131 44.832 127.747 44.832H128.223V45.616H127.593C126.996 45.616 126.506 45.7467 126.123 46.008C125.741 46.2693 125.549 46.6333 125.549 47.1V52H124.751ZM129.207 50.712C129.44 50.712 129.608 50.7727 129.711 50.894C129.823 51.0153 129.879 51.1693 129.879 51.356V51.538C129.879 51.93 129.767 52.3453 129.543 52.784C129.328 53.232 129.039 53.6147 128.675 53.932H128.003C128.311 53.6147 128.544 53.3067 128.703 53.008C128.871 52.7093 128.983 52.406 129.039 52.098C128.852 52.0793 128.721 52.0187 128.647 51.916C128.572 51.804 128.535 51.6733 128.535 51.524V51.356C128.535 51.1693 128.586 51.0153 128.689 50.894C128.801 50.7727 128.973 50.712 129.207 50.712ZM137.664 52.168C137.039 52.168 136.502 52.0513 136.054 51.818C135.615 51.5847 135.233 51.244 134.906 50.796L135.494 50.334C135.793 50.726 136.119 51.0153 136.474 51.202C136.829 51.3887 137.244 51.482 137.72 51.482C138.271 51.482 138.695 51.3653 138.994 51.132C139.293 50.8987 139.442 50.5627 139.442 50.124C139.442 49.7413 139.325 49.4427 139.092 49.228C138.868 49.004 138.495 48.8547 137.972 48.78L137.384 48.682C137.057 48.6353 136.759 48.5653 136.488 48.472C136.217 48.3787 135.984 48.2527 135.788 48.094C135.601 47.9353 135.452 47.744 135.34 47.52C135.237 47.2867 135.186 47.0067 135.186 46.68C135.186 46.344 135.247 46.05 135.368 45.798C135.499 45.546 135.671 45.336 135.886 45.168C136.101 45 136.357 44.874 136.656 44.79C136.955 44.706 137.277 44.664 137.622 44.664C138.219 44.664 138.709 44.7667 139.092 44.972C139.475 45.1773 139.801 45.4433 140.072 45.77L139.54 46.26C139.353 46.036 139.101 45.8307 138.784 45.644C138.476 45.448 138.075 45.35 137.58 45.35C137.067 45.35 136.665 45.462 136.376 45.686C136.096 45.91 135.956 46.2273 135.956 46.638C135.956 47.058 136.082 47.3613 136.334 47.548C136.595 47.7347 136.983 47.87 137.496 47.954L138.07 48.038C138.798 48.15 139.335 48.3693 139.68 48.696C140.035 49.0133 140.212 49.4613 140.212 50.04C140.212 50.712 139.983 51.2347 139.526 51.608C139.078 51.9813 138.457 52.168 137.664 52.168ZM146.786 50.866H146.73C146.665 51.034 146.576 51.1973 146.464 51.356C146.352 51.5147 146.212 51.6547 146.044 51.776C145.876 51.888 145.675 51.9813 145.442 52.056C145.218 52.1307 144.952 52.168 144.644 52.168C143.879 52.168 143.281 51.9347 142.852 51.468C142.423 50.992 142.208 50.3153 142.208 49.438V44.832H143.006V49.284C143.006 50.0213 143.165 50.5673 143.482 50.922C143.799 51.2767 144.257 51.454 144.854 51.454C145.106 51.454 145.344 51.4213 145.568 51.356C145.801 51.2907 146.007 51.1927 146.184 51.062C146.371 50.9313 146.515 50.768 146.618 50.572C146.73 50.3667 146.786 50.1287 146.786 49.858V44.832H147.584V52H146.786V50.866ZM152.715 52.168C151.725 52.168 150.96 51.8413 150.419 51.188C149.887 50.5347 149.621 49.6107 149.621 48.416C149.621 47.2213 149.887 46.2973 150.419 45.644C150.96 44.9907 151.725 44.664 152.715 44.664C153.377 44.664 153.914 44.8087 154.325 45.098C154.735 45.3873 155.048 45.77 155.263 46.246L154.591 46.582C154.423 46.19 154.185 45.8913 153.877 45.686C153.578 45.4807 153.191 45.378 152.715 45.378C151.987 45.378 151.431 45.6113 151.049 46.078C150.666 46.5447 150.475 47.156 150.475 47.912V48.92C150.475 49.676 150.666 50.2873 151.049 50.754C151.431 51.2207 151.987 51.454 152.715 51.454C153.209 51.454 153.625 51.3467 153.961 51.132C154.297 50.9173 154.567 50.6093 154.773 50.208L155.361 50.6C155.127 51.076 154.791 51.4587 154.353 51.748C153.923 52.028 153.377 52.168 152.715 52.168ZM159.551 52.168C158.561 52.168 157.796 51.8413 157.255 51.188C156.723 50.5347 156.457 49.6107 156.457 48.416C156.457 47.2213 156.723 46.2973 157.255 45.644C157.796 44.9907 158.561 44.664 159.551 44.664C160.213 44.664 160.75 44.8087 161.161 45.098C161.571 45.3873 161.884 45.77 162.099 46.246L161.427 46.582C161.259 46.19 161.021 45.8913 160.713 45.686C160.414 45.4807 160.027 45.378 159.551 45.378C158.823 45.378 158.267 45.6113 157.885 46.078C157.502 46.5447 157.311 47.156 157.311 47.912V48.92C157.311 49.676 157.502 50.2873 157.885 50.754C158.267 51.2207 158.823 51.454 159.551 51.454C160.045 51.454 160.461 51.3467 160.797 51.132C161.133 50.9173 161.403 50.6093 161.609 50.208L162.197 50.6C161.963 51.076 161.627 51.4587 161.189 51.748C160.759 52.028 160.213 52.168 159.551 52.168ZM166.428 52.168C165.952 52.168 165.518 52.084 165.126 51.916C164.744 51.748 164.412 51.5053 164.132 51.188C163.862 50.8613 163.652 50.4647 163.502 49.998C163.362 49.5313 163.292 49.004 163.292 48.416C163.292 47.828 163.362 47.3053 163.502 46.848C163.652 46.3813 163.862 45.9893 164.132 45.672C164.412 45.3453 164.744 45.098 165.126 44.93C165.509 44.7527 165.938 44.664 166.414 44.664C166.872 44.664 167.287 44.7527 167.66 44.93C168.034 45.098 168.351 45.336 168.612 45.644C168.874 45.952 169.074 46.3253 169.214 46.764C169.364 47.1933 169.438 47.6693 169.438 48.192V48.57H164.132V48.92C164.132 49.2933 164.184 49.6387 164.286 49.956C164.398 50.264 164.552 50.53 164.748 50.754C164.954 50.978 165.201 51.1553 165.49 51.286C165.78 51.4073 166.106 51.468 166.47 51.468C167.516 51.468 168.239 50.9873 168.64 50.026L169.228 50.418C169.004 50.95 168.65 51.3747 168.164 51.692C167.688 52.0093 167.11 52.168 166.428 52.168ZM166.414 45.336C166.069 45.336 165.756 45.4013 165.476 45.532C165.196 45.6533 164.954 45.826 164.748 46.05C164.552 46.274 164.398 46.5447 164.286 46.862C164.184 47.17 164.132 47.5107 164.132 47.884V47.954H168.57V47.842C168.57 47.4687 168.519 47.128 168.416 46.82C168.314 46.5027 168.164 46.2367 167.968 46.022C167.782 45.8073 167.553 45.6393 167.282 45.518C167.021 45.3967 166.732 45.336 166.414 45.336ZM173.498 52.168C172.873 52.168 172.336 52.0513 171.888 51.818C171.449 51.5847 171.067 51.244 170.74 50.796L171.328 50.334C171.627 50.726 171.953 51.0153 172.308 51.202C172.663 51.3887 173.078 51.482 173.554 51.482C174.105 51.482 174.529 51.3653 174.828 51.132C175.127 50.8987 175.276 50.5627 175.276 50.124C175.276 49.7413 175.159 49.4427 174.926 49.228C174.702 49.004 174.329 48.8547 173.806 48.78L173.218 48.682C172.891 48.6353 172.593 48.5653 172.322 48.472C172.051 48.3787 171.818 48.2527 171.622 48.094C171.435 47.9353 171.286 47.744 171.174 47.52C171.071 47.2867 171.02 47.0067 171.02 46.68C171.02 46.344 171.081 46.05 171.202 45.798C171.333 45.546 171.505 45.336 171.72 45.168C171.935 45 172.191 44.874 172.49 44.79C172.789 44.706 173.111 44.664 173.456 44.664C174.053 44.664 174.543 44.7667 174.926 44.972C175.309 45.1773 175.635 45.4433 175.906 45.77L175.374 46.26C175.187 46.036 174.935 45.8307 174.618 45.644C174.31 45.448 173.909 45.35 173.414 45.35C172.901 45.35 172.499 45.462 172.21 45.686C171.93 45.91 171.79 46.2273 171.79 46.638C171.79 47.058 171.916 47.3613 172.168 47.548C172.429 47.7347 172.817 47.87 173.33 47.954L173.904 48.038C174.632 48.15 175.169 48.3693 175.514 48.696C175.869 49.0133 176.046 49.4613 176.046 50.04C176.046 50.712 175.817 51.2347 175.36 51.608C174.912 51.9813 174.291 52.168 173.498 52.168ZM180.061 52.168C179.435 52.168 178.899 52.0513 178.451 51.818C178.012 51.5847 177.629 51.244 177.303 50.796L177.891 50.334C178.189 50.726 178.516 51.0153 178.871 51.202C179.225 51.3887 179.641 51.482 180.117 51.482C180.667 51.482 181.092 51.3653 181.391 51.132C181.689 50.8987 181.839 50.5627 181.839 50.124C181.839 49.7413 181.722 49.4427 181.489 49.228C181.265 49.004 180.891 48.8547 180.369 48.78L179.781 48.682C179.454 48.6353 179.155 48.5653 178.885 48.472C178.614 48.3787 178.381 48.2527 178.185 48.094C177.998 47.9353 177.849 47.744 177.737 47.52C177.634 47.2867 177.583 47.0067 177.583 46.68C177.583 46.344 177.643 46.05 177.765 45.798C177.895 45.546 178.068 45.336 178.283 45.168C178.497 45 178.754 44.874 179.053 44.79C179.351 44.706 179.673 44.664 180.019 44.664C180.616 44.664 181.106 44.7667 181.489 44.972C181.871 45.1773 182.198 45.4433 182.469 45.77L181.937 46.26C181.75 46.036 181.498 45.8307 181.181 45.644C180.873 45.448 180.471 45.35 179.977 45.35C179.463 45.35 179.062 45.462 178.773 45.686C178.493 45.91 178.353 46.2273 178.353 46.638C178.353 47.058 178.479 47.3613 178.731 47.548C178.992 47.7347 179.379 47.87 179.893 47.954L180.467 48.038C181.195 48.15 181.731 48.3693 182.077 48.696C182.431 49.0133 182.609 49.4613 182.609 50.04C182.609 50.712 182.38 51.2347 181.923 51.608C181.475 51.9813 180.854 52.168 180.061 52.168ZM185.025 45.532H183.793V44.832H185.025V42.83C185.025 42.466 185.113 42.1767 185.291 41.962C185.477 41.7473 185.762 41.64 186.145 41.64H187.405V42.34H185.823V44.832H187.405V45.532H185.823V52H185.025V45.532ZM193.489 50.866H193.433C193.368 51.034 193.279 51.1973 193.167 51.356C193.055 51.5147 192.915 51.6547 192.747 51.776C192.579 51.888 192.378 51.9813 192.145 52.056C191.921 52.1307 191.655 52.168 191.347 52.168C190.582 52.168 189.984 51.9347 189.555 51.468C189.126 50.992 188.911 50.3153 188.911 49.438V44.832H189.709V49.284C189.709 50.0213 189.868 50.5673 190.185 50.922C190.502 51.2767 190.96 51.454 191.557 51.454C191.809 51.454 192.047 51.4213 192.271 51.356C192.504 51.2907 192.71 51.1927 192.887 51.062C193.074 50.9313 193.218 50.768 193.321 50.572C193.433 50.3667 193.489 50.1287 193.489 49.858V44.832H194.287V52H193.489V50.866ZM197.78 52C197.49 52 197.271 51.9207 197.122 51.762C196.972 51.6033 196.898 51.3933 196.898 51.132V41.64H197.696V51.3H198.802V52H197.78ZM203.898 41.64H204.696V45.966H204.738C204.896 45.5927 205.144 45.2847 205.48 45.042C205.816 44.79 206.273 44.664 206.852 44.664C207.617 44.664 208.21 44.902 208.63 45.378C209.059 45.8447 209.274 46.5167 209.274 47.394V52H208.476V47.534C208.476 46.806 208.317 46.2647 208 45.91C207.692 45.5553 207.239 45.378 206.642 45.378C206.39 45.378 206.147 45.4107 205.914 45.476C205.68 45.5413 205.47 45.6393 205.284 45.77C205.106 45.9007 204.962 46.0687 204.85 46.274C204.747 46.47 204.696 46.6987 204.696 46.96V52H203.898V41.64ZM216.714 52C216.406 52 216.182 51.9207 216.042 51.762C215.902 51.6033 215.823 51.3887 215.804 51.118V50.866H215.734C215.576 51.2673 215.314 51.5847 214.95 51.818C214.586 52.0513 214.124 52.168 213.564 52.168C212.808 52.168 212.225 51.986 211.814 51.622C211.404 51.2487 211.198 50.726 211.198 50.054C211.198 49.4193 211.422 48.9153 211.87 48.542C212.328 48.1687 213.074 47.982 214.11 47.982H215.762V47.142C215.762 45.9567 215.151 45.364 213.928 45.364C213.452 45.364 213.056 45.4667 212.738 45.672C212.421 45.868 212.164 46.1527 211.968 46.526L211.464 46.106C211.66 45.686 211.959 45.3407 212.36 45.07C212.771 44.7993 213.303 44.664 213.956 44.664C214.796 44.664 215.44 44.874 215.888 45.294C216.336 45.714 216.56 46.302 216.56 47.058V51.3H217.526V52H216.714ZM213.676 51.482C213.966 51.482 214.236 51.4447 214.488 51.37C214.74 51.2953 214.96 51.1927 215.146 51.062C215.342 50.922 215.492 50.7587 215.594 50.572C215.706 50.376 215.762 50.1567 215.762 49.914V48.584H214.082C213.364 48.584 212.841 48.7007 212.514 48.934C212.197 49.158 212.038 49.4707 212.038 49.872V50.208C212.038 50.628 212.188 50.9453 212.486 51.16C212.785 51.3747 213.182 51.482 213.676 51.482ZM219.169 52V44.832H219.967V45.966H220.009C220.168 45.5927 220.415 45.2847 220.751 45.042C221.087 44.79 221.545 44.664 222.123 44.664C222.889 44.664 223.481 44.902 223.901 45.378C224.331 45.8447 224.545 46.5167 224.545 47.394V52H223.747V47.534C223.747 46.806 223.589 46.2647 223.271 45.91C222.963 45.5553 222.511 45.378 221.913 45.378C221.661 45.378 221.419 45.4107 221.185 45.476C220.952 45.5413 220.742 45.6393 220.555 45.77C220.378 45.9007 220.233 46.0687 220.121 46.274C220.019 46.47 219.967 46.6987 219.967 46.96V52H219.169ZM231.692 50.852H231.65C231.463 51.2533 231.188 51.5753 230.824 51.818C230.469 52.0513 230.017 52.168 229.466 52.168C228.542 52.168 227.819 51.8413 227.296 51.188C226.773 50.5347 226.512 49.6107 226.512 48.416C226.512 47.2213 226.773 46.2973 227.296 45.644C227.819 44.9907 228.542 44.664 229.466 44.664C230.017 44.664 230.474 44.7853 230.838 45.028C231.202 45.2613 231.473 45.5787 231.65 45.98H231.692V41.64H232.49V52H231.692V50.852ZM229.648 51.454C229.928 51.454 230.189 51.4167 230.432 51.342C230.684 51.2673 230.903 51.16 231.09 51.02C231.277 50.8707 231.421 50.698 231.524 50.502C231.636 50.2967 231.692 50.068 231.692 49.816V46.974C231.692 46.7407 231.636 46.526 231.524 46.33C231.421 46.134 231.277 45.966 231.09 45.826C230.903 45.686 230.684 45.5787 230.432 45.504C230.189 45.42 229.928 45.378 229.648 45.378C228.929 45.378 228.369 45.6067 227.968 46.064C227.567 46.5213 227.366 47.1373 227.366 47.912V48.92C227.366 49.6947 227.567 50.3107 227.968 50.768C228.369 51.2253 228.929 51.454 229.648 51.454ZM237.645 52.168C237.169 52.168 236.74 52.084 236.357 51.916C235.974 51.748 235.648 51.5053 235.377 51.188C235.106 50.8613 234.896 50.4647 234.747 49.998C234.598 49.5313 234.523 49.004 234.523 48.416C234.523 47.828 234.598 47.3053 234.747 46.848C234.896 46.3813 235.106 45.9893 235.377 45.672C235.648 45.3453 235.974 45.098 236.357 44.93C236.74 44.7527 237.169 44.664 237.645 44.664C238.121 44.664 238.55 44.7527 238.933 44.93C239.316 45.098 239.642 45.3453 239.913 45.672C240.184 45.9893 240.394 46.3813 240.543 46.848C240.692 47.3053 240.767 47.828 240.767 48.416C240.767 49.004 240.692 49.5313 240.543 49.998C240.394 50.4647 240.184 50.8613 239.913 51.188C239.642 51.5053 239.316 51.748 238.933 51.916C238.55 52.084 238.121 52.168 237.645 52.168ZM237.645 51.454C238.345 51.454 238.896 51.2347 239.297 50.796C239.708 50.3573 239.913 49.7133 239.913 48.864V47.968C239.913 47.128 239.708 46.4887 239.297 46.05C238.896 45.602 238.345 45.378 237.645 45.378C236.945 45.378 236.39 45.5973 235.979 46.036C235.578 46.4747 235.377 47.1187 235.377 47.968V48.864C235.377 49.704 235.578 50.348 235.979 50.796C236.39 51.2347 236.945 51.454 237.645 51.454ZM243.076 45.532H241.844V44.832H243.076V42.83C243.076 42.466 243.164 42.1767 243.342 41.962C243.528 41.7473 243.813 41.64 244.196 41.64H245.456V42.34H243.874V44.832H245.456V45.532H243.874V52H243.076V45.532ZM247.396 45.532H246.164V44.832H247.396V42.83C247.396 42.466 247.484 42.1767 247.662 41.962C247.848 41.7473 248.133 41.64 248.516 41.64H249.776V42.34H248.194V44.832H249.776V45.532H248.194V52H247.396V45.532ZM251.991 49.466L251.767 45.504V42.228H252.635V45.504L252.397 49.466H251.991ZM252.201 52.126C251.968 52.126 251.795 52.07 251.683 51.958C251.58 51.8367 251.529 51.6827 251.529 51.496V51.342C251.529 51.1553 251.58 51.006 251.683 50.894C251.795 50.7727 251.968 50.712 252.201 50.712C252.425 50.712 252.593 50.7727 252.705 50.894C252.817 51.006 252.873 51.1553 252.873 51.342V51.496C252.873 51.6827 252.817 51.8367 252.705 51.958C252.593 52.07 252.425 52.126 252.201 52.126Z" fill="white"/>
</svg>
