<svg width="307" height="72" viewBox="0 0 307 72" fill="none" xmlns="http://www.w3.org/2000/svg">
<rect width="307" height="72" fill="#444444"/>
<path d="M18.386 30V20.228H23.972V20.97H19.226V24.666H23.65V25.408H19.226V30H18.386ZM28.2191 30.168C27.7431 30.168 27.3138 30.084 26.9311 29.916C26.5485 29.748 26.2218 29.5053 25.9511 29.188C25.6805 28.8613 25.4705 28.4647 25.3211 27.998C25.1718 27.5313 25.0971 27.004 25.0971 26.416C25.0971 25.828 25.1718 25.3053 25.3211 24.848C25.4705 24.3813 25.6805 23.9893 25.9511 23.672C26.2218 23.3453 26.5485 23.098 26.9311 22.93C27.3138 22.7527 27.7431 22.664 28.2191 22.664C28.6951 22.664 29.1245 22.7527 29.5071 22.93C29.8898 23.098 30.2165 23.3453 30.4871 23.672C30.7578 23.9893 30.9678 24.3813 31.1171 24.848C31.2665 25.3053 31.3411 25.828 31.3411 26.416C31.3411 27.004 31.2665 27.5313 31.1171 27.998C30.9678 28.4647 30.7578 28.8613 30.4871 29.188C30.2165 29.5053 29.8898 29.748 29.5071 29.916C29.1245 30.084 28.6951 30.168 28.2191 30.168ZM28.2191 29.454C28.9191 29.454 29.4698 29.2347 29.8711 28.796C30.2818 28.3573 30.4871 27.7133 30.4871 26.864V25.968C30.4871 25.128 30.2818 24.4887 29.8711 24.05C29.4698 23.602 28.9191 23.378 28.2191 23.378C27.5191 23.378 26.9638 23.5973 26.5531 24.036C26.1518 24.4747 25.9511 25.1187 25.9511 25.968V26.864C25.9511 27.704 26.1518 28.348 26.5531 28.796C26.9638 29.2347 27.5191 29.454 28.2191 29.454ZM33.3684 30V22.832H34.1664V24.12H34.2224C34.3624 23.784 34.6004 23.4853 34.9364 23.224C35.2724 22.9627 35.7484 22.832 36.3644 22.832H36.8404V23.616H36.2104C35.6131 23.616 35.1231 23.7467 34.7404 24.008C34.3577 24.2693 34.1664 24.6333 34.1664 25.1V30H33.3684ZM40.8933 30.168C40.4173 30.168 39.9833 30.084 39.5913 29.916C39.2086 29.748 38.8773 29.5053 38.5973 29.188C38.3266 28.8613 38.1166 28.4647 37.9673 27.998C37.8273 27.5313 37.7573 27.004 37.7573 26.416C37.7573 25.828 37.8273 25.3053 37.9673 24.848C38.1166 24.3813 38.3266 23.9893 38.5973 23.672C38.8773 23.3453 39.2086 23.098 39.5913 22.93C39.974 22.7527 40.4033 22.664 40.8793 22.664C41.3366 22.664 41.752 22.7527 42.1253 22.93C42.4986 23.098 42.816 23.336 43.0773 23.644C43.3386 23.952 43.5393 24.3253 43.6793 24.764C43.8286 25.1933 43.9033 25.6693 43.9033 26.192V26.57H38.5973V26.92C38.5973 27.2933 38.6486 27.6387 38.7513 27.956C38.8633 28.264 39.0173 28.53 39.2133 28.754C39.4186 28.978 39.666 29.1553 39.9553 29.286C40.2446 29.4073 40.5713 29.468 40.9353 29.468C41.9806 29.468 42.704 28.9873 43.1053 28.026L43.6933 28.418C43.4693 28.95 43.1146 29.3747 42.6293 29.692C42.1533 30.0093 41.5746 30.168 40.8933 30.168ZM40.8793 23.336C40.534 23.336 40.2213 23.4013 39.9413 23.532C39.6613 23.6533 39.4186 23.826 39.2133 24.05C39.0173 24.274 38.8633 24.5447 38.7513 24.862C38.6486 25.17 38.5973 25.5107 38.5973 25.884V25.954H43.0353V25.842C43.0353 25.4687 42.984 25.128 42.8813 24.82C42.7786 24.5027 42.6293 24.2367 42.4333 24.022C42.2466 23.8073 42.018 23.6393 41.7473 23.518C41.486 23.3967 41.1966 23.336 40.8793 23.336ZM48.4529 30.168C47.4635 30.168 46.6982 29.8413 46.1569 29.188C45.6249 28.5347 45.3589 27.6107 45.3589 26.416C45.3589 25.2213 45.6249 24.2973 46.1569 23.644C46.6982 22.9907 47.4635 22.664 48.4529 22.664C49.1155 22.664 49.6522 22.8087 50.0629 23.098C50.4735 23.3873 50.7862 23.77 51.0009 24.246L50.3289 24.582C50.1609 24.19 49.9229 23.8913 49.6149 23.686C49.3162 23.4807 48.9289 23.378 48.4529 23.378C47.7249 23.378 47.1695 23.6113 46.7869 24.078C46.4042 24.5447 46.2129 25.156 46.2129 25.912V26.92C46.2129 27.676 46.4042 28.2873 46.7869 28.754C47.1695 29.2207 47.7249 29.454 48.4529 29.454C48.9475 29.454 49.3629 29.3467 49.6989 29.132C50.0349 28.9173 50.3055 28.6093 50.5109 28.208L51.0989 28.6C50.8655 29.076 50.5295 29.4587 50.0909 29.748C49.6615 30.028 49.1155 30.168 48.4529 30.168ZM57.8062 30C57.4982 30 57.2742 29.9207 57.1342 29.762C56.9942 29.6033 56.9148 29.3887 56.8962 29.118V28.866H56.8262C56.6675 29.2673 56.4062 29.5847 56.0422 29.818C55.6782 30.0513 55.2162 30.168 54.6562 30.168C53.9002 30.168 53.3168 29.986 52.9062 29.622C52.4955 29.2487 52.2902 28.726 52.2902 28.054C52.2902 27.4193 52.5142 26.9153 52.9622 26.542C53.4195 26.1687 54.1662 25.982 55.2022 25.982H56.8542V25.142C56.8542 23.9567 56.2428 23.364 55.0202 23.364C54.5442 23.364 54.1475 23.4667 53.8302 23.672C53.5128 23.868 53.2562 24.1527 53.0602 24.526L52.5562 24.106C52.7522 23.686 53.0508 23.3407 53.4522 23.07C53.8628 22.7993 54.3948 22.664 55.0482 22.664C55.8882 22.664 56.5322 22.874 56.9802 23.294C57.4282 23.714 57.6522 24.302 57.6522 25.058V29.3H58.6182V30H57.8062ZM54.7682 29.482C55.0575 29.482 55.3282 29.4447 55.5802 29.37C55.8322 29.2953 56.0515 29.1927 56.2382 29.062C56.4342 28.922 56.5835 28.7587 56.6862 28.572C56.7982 28.376 56.8542 28.1567 56.8542 27.914V26.584H55.1742C54.4555 26.584 53.9328 26.7007 53.6062 26.934C53.2888 27.158 53.1302 27.4707 53.1302 27.872V28.208C53.1302 28.628 53.2795 28.9453 53.5782 29.16C53.8768 29.3747 54.2735 29.482 54.7682 29.482ZM62.291 30.168C61.6657 30.168 61.129 30.0513 60.681 29.818C60.2423 29.5847 59.8597 29.244 59.533 28.796L60.121 28.334C60.4197 28.726 60.7463 29.0153 61.101 29.202C61.4557 29.3887 61.871 29.482 62.347 29.482C62.8977 29.482 63.3223 29.3653 63.621 29.132C63.9197 28.8987 64.069 28.5627 64.069 28.124C64.069 27.7413 63.9523 27.4427 63.719 27.228C63.495 27.004 63.1217 26.8547 62.599 26.78L62.011 26.682C61.6843 26.6353 61.3857 26.5653 61.115 26.472C60.8443 26.3787 60.611 26.2527 60.415 26.094C60.2283 25.9353 60.079 25.744 59.967 25.52C59.8643 25.2867 59.813 25.0067 59.813 24.68C59.813 24.344 59.8737 24.05 59.995 23.798C60.1257 23.546 60.2983 23.336 60.513 23.168C60.7277 23 60.9843 22.874 61.283 22.79C61.5817 22.706 61.9037 22.664 62.249 22.664C62.8463 22.664 63.3363 22.7667 63.719 22.972C64.1017 23.1773 64.4283 23.4433 64.699 23.77L64.167 24.26C63.9803 24.036 63.7283 23.8307 63.411 23.644C63.103 23.448 62.7017 23.35 62.207 23.35C61.6937 23.35 61.2923 23.462 61.003 23.686C60.723 23.91 60.583 24.2273 60.583 24.638C60.583 25.058 60.709 25.3613 60.961 25.548C61.2223 25.7347 61.6097 25.87 62.123 25.954L62.697 26.038C63.425 26.15 63.9617 26.3693 64.307 26.696C64.6617 27.0133 64.839 27.4613 64.839 28.04C64.839 28.712 64.6103 29.2347 64.153 29.608C63.705 29.9813 63.0843 30.168 62.291 30.168ZM68.1102 30C67.8208 30 67.6015 29.9207 67.4522 29.762C67.3028 29.6033 67.2282 29.3887 67.2282 29.118V23.532H65.9822V22.832H66.7942C66.9902 22.832 67.1208 22.7947 67.1862 22.72C67.2608 22.636 67.2982 22.4913 67.2982 22.286V20.83H68.0262V22.832H69.6502V23.532H68.0262V29.3H69.5382V30H68.1102ZM74.0749 30.168C73.5989 30.168 73.1649 30.084 72.7729 29.916C72.3903 29.748 72.0589 29.5053 71.7789 29.188C71.5083 28.8613 71.2983 28.4647 71.1489 27.998C71.0089 27.5313 70.9389 27.004 70.9389 26.416C70.9389 25.828 71.0089 25.3053 71.1489 24.848C71.2983 24.3813 71.5083 23.9893 71.7789 23.672C72.0589 23.3453 72.3903 23.098 72.7729 22.93C73.1556 22.7527 73.5849 22.664 74.0609 22.664C74.5183 22.664 74.9336 22.7527 75.3069 22.93C75.6803 23.098 75.9976 23.336 76.2589 23.644C76.5203 23.952 76.7209 24.3253 76.8609 24.764C77.0103 25.1933 77.0849 25.6693 77.0849 26.192V26.57H71.7789V26.92C71.7789 27.2933 71.8303 27.6387 71.9329 27.956C72.0449 28.264 72.1989 28.53 72.3949 28.754C72.6003 28.978 72.8476 29.1553 73.1369 29.286C73.4263 29.4073 73.7529 29.468 74.1169 29.468C75.1623 29.468 75.8856 28.9873 76.2869 28.026L76.8749 28.418C76.6509 28.95 76.2963 29.3747 75.8109 29.692C75.3349 30.0093 74.7563 30.168 74.0749 30.168ZM74.0609 23.336C73.7156 23.336 73.4029 23.4013 73.1229 23.532C72.8429 23.6533 72.6003 23.826 72.3949 24.05C72.1989 24.274 72.0449 24.5447 71.9329 24.862C71.8303 25.17 71.7789 25.5107 71.7789 25.884V25.954H76.2169V25.842C76.2169 25.4687 76.1656 25.128 76.0629 24.82C75.9603 24.5027 75.8109 24.2367 75.6149 24.022C75.4283 23.8073 75.1996 23.6393 74.9289 23.518C74.6676 23.3967 74.3783 23.336 74.0609 23.336ZM83.7485 28.852H83.7065C83.5198 29.2533 83.2445 29.5753 82.8805 29.818C82.5258 30.0513 82.0732 30.168 81.5225 30.168C80.5985 30.168 79.8752 29.8413 79.3525 29.188C78.8298 28.5347 78.5685 27.6107 78.5685 26.416C78.5685 25.2213 78.8298 24.2973 79.3525 23.644C79.8752 22.9907 80.5985 22.664 81.5225 22.664C82.0732 22.664 82.5305 22.7853 82.8945 23.028C83.2585 23.2613 83.5292 23.5787 83.7065 23.98H83.7485V19.64H84.5465V30H83.7485V28.852ZM81.7045 29.454C81.9845 29.454 82.2458 29.4167 82.4885 29.342C82.7405 29.2673 82.9598 29.16 83.1465 29.02C83.3332 28.8707 83.4778 28.698 83.5805 28.502C83.6925 28.2967 83.7485 28.068 83.7485 27.816V24.974C83.7485 24.7407 83.6925 24.526 83.5805 24.33C83.4778 24.134 83.3332 23.966 83.1465 23.826C82.9598 23.686 82.7405 23.5787 82.4885 23.504C82.2458 23.42 81.9845 23.378 81.7045 23.378C80.9858 23.378 80.4258 23.6067 80.0245 24.064C79.6232 24.5213 79.4225 25.1373 79.4225 25.912V26.92C79.4225 27.6947 79.6232 28.3107 80.0245 28.768C80.4258 29.2253 80.9858 29.454 81.7045 29.454ZM92.4922 30.168C91.8668 30.168 91.3302 30.0513 90.8822 29.818C90.4435 29.5847 90.0608 29.244 89.7342 28.796L90.3222 28.334C90.6208 28.726 90.9475 29.0153 91.3022 29.202C91.6568 29.3887 92.0722 29.482 92.5482 29.482C93.0988 29.482 93.5235 29.3653 93.8222 29.132C94.1208 28.8987 94.2702 28.5627 94.2702 28.124C94.2702 27.7413 94.1535 27.4427 93.9202 27.228C93.6962 27.004 93.3228 26.8547 92.8002 26.78L92.2122 26.682C91.8855 26.6353 91.5868 26.5653 91.3162 26.472C91.0455 26.3787 90.8122 26.2527 90.6162 26.094C90.4295 25.9353 90.2802 25.744 90.1682 25.52C90.0655 25.2867 90.0142 25.0067 90.0142 24.68C90.0142 24.344 90.0748 24.05 90.1962 23.798C90.3268 23.546 90.4995 23.336 90.7142 23.168C90.9288 23 91.1855 22.874 91.4842 22.79C91.7828 22.706 92.1048 22.664 92.4502 22.664C93.0475 22.664 93.5375 22.7667 93.9202 22.972C94.3028 23.1773 94.6295 23.4433 94.9002 23.77L94.3682 24.26C94.1815 24.036 93.9295 23.8307 93.6122 23.644C93.3042 23.448 92.9028 23.35 92.4082 23.35C91.8948 23.35 91.4935 23.462 91.2042 23.686C90.9242 23.91 90.7842 24.2273 90.7842 24.638C90.7842 25.058 90.9102 25.3613 91.1622 25.548C91.4235 25.7347 91.8108 25.87 92.3242 25.954L92.8982 26.038C93.6262 26.15 94.1628 26.3693 94.5082 26.696C94.8628 27.0133 95.0402 27.4613 95.0402 28.04C95.0402 28.712 94.8115 29.2347 94.3542 29.608C93.9062 29.9813 93.2855 30.168 92.4922 30.168ZM102.062 30C101.754 30 101.53 29.9207 101.39 29.762C101.25 29.6033 101.171 29.3887 101.152 29.118V28.866H101.082C100.923 29.2673 100.662 29.5847 100.298 29.818C99.934 30.0513 99.472 30.168 98.912 30.168C98.156 30.168 97.5727 29.986 97.162 29.622C96.7514 29.2487 96.546 28.726 96.546 28.054C96.546 27.4193 96.77 26.9153 97.218 26.542C97.6754 26.1687 98.422 25.982 99.458 25.982H101.11V25.142C101.11 23.9567 100.499 23.364 99.276 23.364C98.8 23.364 98.4034 23.4667 98.086 23.672C97.7687 23.868 97.512 24.1527 97.316 24.526L96.812 24.106C97.008 23.686 97.3067 23.3407 97.708 23.07C98.1187 22.7993 98.6507 22.664 99.304 22.664C100.144 22.664 100.788 22.874 101.236 23.294C101.684 23.714 101.908 24.302 101.908 25.058V29.3H102.874V30H102.062ZM99.024 29.482C99.3134 29.482 99.584 29.4447 99.836 29.37C100.088 29.2953 100.307 29.1927 100.494 29.062C100.69 28.922 100.839 28.7587 100.942 28.572C101.054 28.376 101.11 28.1567 101.11 27.914V26.584H99.43C98.7114 26.584 98.1887 26.7007 97.862 26.934C97.5447 27.158 97.386 27.4707 97.386 27.872V28.208C97.386 28.628 97.5354 28.9453 97.834 29.16C98.1327 29.3747 98.5294 29.482 99.024 29.482ZM105.399 30C105.11 30 104.89 29.9207 104.741 29.762C104.592 29.6033 104.517 29.3933 104.517 29.132V19.64H105.315V29.3H106.421V30H105.399ZM110.77 30.168C110.294 30.168 109.86 30.084 109.468 29.916C109.086 29.748 108.754 29.5053 108.474 29.188C108.204 28.8613 107.994 28.4647 107.844 27.998C107.704 27.5313 107.634 27.004 107.634 26.416C107.634 25.828 107.704 25.3053 107.844 24.848C107.994 24.3813 108.204 23.9893 108.474 23.672C108.754 23.3453 109.086 23.098 109.468 22.93C109.851 22.7527 110.28 22.664 110.756 22.664C111.214 22.664 111.629 22.7527 112.002 22.93C112.376 23.098 112.693 23.336 112.954 23.644C113.216 23.952 113.416 24.3253 113.556 24.764C113.706 25.1933 113.78 25.6693 113.78 26.192V26.57H108.474V26.92C108.474 27.2933 108.526 27.6387 108.628 27.956C108.74 28.264 108.894 28.53 109.09 28.754C109.296 28.978 109.543 29.1553 109.832 29.286C110.122 29.4073 110.448 29.468 110.812 29.468C111.858 29.468 112.581 28.9873 112.982 28.026L113.57 28.418C113.346 28.95 112.992 29.3747 112.506 29.692C112.03 30.0093 111.452 30.168 110.77 30.168ZM110.756 23.336C110.411 23.336 110.098 23.4013 109.818 23.532C109.538 23.6533 109.296 23.826 109.09 24.05C108.894 24.274 108.74 24.5447 108.628 24.862C108.526 25.17 108.474 25.5107 108.474 25.884V25.954H112.912V25.842C112.912 25.4687 112.861 25.128 112.758 24.82C112.656 24.5027 112.506 24.2367 112.31 24.022C112.124 23.8073 111.895 23.6393 111.624 23.518C111.363 23.3967 111.074 23.336 110.756 23.336ZM117.84 30.168C117.214 30.168 116.678 30.0513 116.23 29.818C115.791 29.5847 115.408 29.244 115.082 28.796L115.67 28.334C115.968 28.726 116.295 29.0153 116.65 29.202C117.004 29.3887 117.42 29.482 117.896 29.482C118.446 29.482 118.871 29.3653 119.17 29.132C119.468 28.8987 119.618 28.5627 119.618 28.124C119.618 27.7413 119.501 27.4427 119.268 27.228C119.044 27.004 118.67 26.8547 118.148 26.78L117.56 26.682C117.233 26.6353 116.934 26.5653 116.664 26.472C116.393 26.3787 116.16 26.2527 115.964 26.094C115.777 25.9353 115.628 25.744 115.516 25.52C115.413 25.2867 115.362 25.0067 115.362 24.68C115.362 24.344 115.422 24.05 115.544 23.798C115.674 23.546 115.847 23.336 116.062 23.168C116.276 23 116.533 22.874 116.832 22.79C117.13 22.706 117.452 22.664 117.798 22.664C118.395 22.664 118.885 22.7667 119.268 22.972C119.65 23.1773 119.977 23.4433 120.248 23.77L119.716 24.26C119.529 24.036 119.277 23.8307 118.96 23.644C118.652 23.448 118.25 23.35 117.756 23.35C117.242 23.35 116.841 23.462 116.552 23.686C116.272 23.91 116.132 24.2273 116.132 24.638C116.132 25.058 116.258 25.3613 116.51 25.548C116.771 25.7347 117.158 25.87 117.672 25.954L118.246 26.038C118.974 26.15 119.51 26.3693 119.856 26.696C120.21 27.0133 120.388 27.4613 120.388 28.04C120.388 28.712 120.159 29.2347 119.702 29.608C119.254 29.9813 118.633 30.168 117.84 30.168ZM126.182 20.886C125.996 20.886 125.856 20.8393 125.762 20.746C125.678 20.6527 125.636 20.5313 125.636 20.382V20.242C125.636 20.0927 125.678 19.9713 125.762 19.878C125.856 19.7847 125.996 19.738 126.182 19.738C126.369 19.738 126.504 19.7847 126.588 19.878C126.682 19.9713 126.728 20.0927 126.728 20.242V20.382C126.728 20.5313 126.682 20.6527 126.588 20.746C126.504 20.8393 126.369 20.886 126.182 20.886ZM125.79 22.832H126.588V30H125.79V22.832ZM129.195 30V22.832H129.993V23.966H130.035C130.193 23.5927 130.441 23.2847 130.777 23.042C131.113 22.79 131.57 22.664 132.149 22.664C132.914 22.664 133.507 22.902 133.927 23.378C134.356 23.8447 134.571 24.5167 134.571 25.394V30H133.773V25.534C133.773 24.806 133.614 24.2647 133.297 23.91C132.989 23.5553 132.536 23.378 131.939 23.378C131.687 23.378 131.444 23.4107 131.211 23.476C130.977 23.5413 130.767 23.6393 130.581 23.77C130.403 23.9007 130.259 24.0687 130.147 24.274C130.044 24.47 129.993 24.6987 129.993 24.96V30H129.195ZM137.419 23.532H136.187V22.832H137.419V20.83C137.419 20.466 137.508 20.1767 137.685 19.962C137.872 19.7473 138.157 19.64 138.539 19.64H139.799V20.34H138.217V22.832H139.799V23.532H138.217V30H137.419V23.532ZM143.897 30.168C143.421 30.168 142.992 30.084 142.609 29.916C142.226 29.748 141.9 29.5053 141.629 29.188C141.358 28.8613 141.148 28.4647 140.999 27.998C140.85 27.5313 140.775 27.004 140.775 26.416C140.775 25.828 140.85 25.3053 140.999 24.848C141.148 24.3813 141.358 23.9893 141.629 23.672C141.9 23.3453 142.226 23.098 142.609 22.93C142.992 22.7527 143.421 22.664 143.897 22.664C144.373 22.664 144.802 22.7527 145.185 22.93C145.568 23.098 145.894 23.3453 146.165 23.672C146.436 23.9893 146.646 24.3813 146.795 24.848C146.944 25.3053 147.019 25.828 147.019 26.416C147.019 27.004 146.944 27.5313 146.795 27.998C146.646 28.4647 146.436 28.8613 146.165 29.188C145.894 29.5053 145.568 29.748 145.185 29.916C144.802 30.084 144.373 30.168 143.897 30.168ZM143.897 29.454C144.597 29.454 145.148 29.2347 145.549 28.796C145.96 28.3573 146.165 27.7133 146.165 26.864V25.968C146.165 25.128 145.96 24.4887 145.549 24.05C145.148 23.602 144.597 23.378 143.897 23.378C143.197 23.378 142.642 23.5973 142.231 24.036C141.83 24.4747 141.629 25.1187 141.629 25.968V26.864C141.629 27.704 141.83 28.348 142.231 28.796C142.642 29.2347 143.197 29.454 143.897 29.454ZM149.046 30V22.832H149.844V24.12H149.9C150.04 23.784 150.278 23.4853 150.614 23.224C150.95 22.9627 151.426 22.832 152.042 22.832H152.518V23.616H151.888C151.291 23.616 150.801 23.7467 150.418 24.008C150.035 24.2693 149.844 24.6333 149.844 25.1V30H149.046ZM154.05 30V22.832H154.848V23.966H154.89C154.965 23.7887 155.058 23.6253 155.17 23.476C155.282 23.3173 155.417 23.1773 155.576 23.056C155.735 22.9347 155.921 22.8413 156.136 22.776C156.36 22.7013 156.621 22.664 156.92 22.664C157.433 22.664 157.886 22.7853 158.278 23.028C158.67 23.2707 158.955 23.6533 159.132 24.176H159.174C159.305 23.756 159.552 23.4013 159.916 23.112C160.289 22.8133 160.793 22.664 161.428 22.664C162.193 22.664 162.781 22.902 163.192 23.378C163.603 23.8447 163.808 24.5167 163.808 25.394V30H163.01V25.534C163.01 24.0967 162.408 23.378 161.204 23.378C160.952 23.378 160.714 23.4107 160.49 23.476C160.266 23.5413 160.065 23.644 159.888 23.784C159.72 23.9147 159.585 24.0827 159.482 24.288C159.379 24.484 159.328 24.7127 159.328 24.974V30H158.53V25.534C158.53 24.0967 157.933 23.378 156.738 23.378C156.495 23.378 156.257 23.4107 156.024 23.476C155.8 23.5413 155.599 23.6393 155.422 23.77C155.245 23.9007 155.105 24.0687 155.002 24.274C154.899 24.47 154.848 24.6987 154.848 24.96V30H154.05ZM169.622 19.64H170.42V23.966H170.462C170.621 23.5927 170.868 23.2847 171.204 23.042C171.54 22.79 171.998 22.664 172.576 22.664C173.342 22.664 173.934 22.902 174.354 23.378C174.784 23.8447 174.998 24.5167 174.998 25.394V30H174.2V25.534C174.2 24.806 174.042 24.2647 173.724 23.91C173.416 23.5553 172.964 23.378 172.366 23.378C172.114 23.378 171.872 23.4107 171.638 23.476C171.405 23.5413 171.195 23.6393 171.008 23.77C170.831 23.9007 170.686 24.0687 170.574 24.274C170.472 24.47 170.42 24.6987 170.42 24.96V30H169.622V19.64ZM180.059 30.168C179.583 30.168 179.154 30.084 178.771 29.916C178.388 29.748 178.062 29.5053 177.791 29.188C177.52 28.8613 177.31 28.4647 177.161 27.998C177.012 27.5313 176.937 27.004 176.937 26.416C176.937 25.828 177.012 25.3053 177.161 24.848C177.31 24.3813 177.52 23.9893 177.791 23.672C178.062 23.3453 178.388 23.098 178.771 22.93C179.154 22.7527 179.583 22.664 180.059 22.664C180.535 22.664 180.964 22.7527 181.347 22.93C181.73 23.098 182.056 23.3453 182.327 23.672C182.598 23.9893 182.808 24.3813 182.957 24.848C183.106 25.3053 183.181 25.828 183.181 26.416C183.181 27.004 183.106 27.5313 182.957 27.998C182.808 28.4647 182.598 28.8613 182.327 29.188C182.056 29.5053 181.73 29.748 181.347 29.916C180.964 30.084 180.535 30.168 180.059 30.168ZM180.059 29.454C180.759 29.454 181.31 29.2347 181.711 28.796C182.122 28.3573 182.327 27.7133 182.327 26.864V25.968C182.327 25.128 182.122 24.4887 181.711 24.05C181.31 23.602 180.759 23.378 180.059 23.378C179.359 23.378 178.804 23.5973 178.393 24.036C177.992 24.4747 177.791 25.1187 177.791 25.968V26.864C177.791 27.704 177.992 28.348 178.393 28.796C178.804 29.2347 179.359 29.454 180.059 29.454ZM184.327 22.832H185.111L186.833 29.286H186.861L188.765 22.832H189.507L191.425 29.286H191.453L193.161 22.832H193.931L191.915 30H190.935L189.129 23.966H189.101L187.309 30H186.343L184.327 22.832ZM199.003 30V22.832H199.801V23.966H199.843C199.918 23.7887 200.011 23.6253 200.123 23.476C200.235 23.3173 200.371 23.1773 200.529 23.056C200.688 22.9347 200.875 22.8413 201.089 22.776C201.313 22.7013 201.575 22.664 201.873 22.664C202.387 22.664 202.839 22.7853 203.231 23.028C203.623 23.2707 203.908 23.6533 204.085 24.176H204.127C204.258 23.756 204.505 23.4013 204.869 23.112C205.243 22.8133 205.747 22.664 206.381 22.664C207.147 22.664 207.735 22.902 208.145 23.378C208.556 23.8447 208.761 24.5167 208.761 25.394V30H207.963V25.534C207.963 24.0967 207.361 23.378 206.157 23.378C205.905 23.378 205.667 23.4107 205.443 23.476C205.219 23.5413 205.019 23.644 204.841 23.784C204.673 23.9147 204.538 24.0827 204.435 24.288C204.333 24.484 204.281 24.7127 204.281 24.974V30H203.483V25.534C203.483 24.0967 202.886 23.378 201.691 23.378C201.449 23.378 201.211 23.4107 200.977 23.476C200.753 23.5413 200.553 23.6393 200.375 23.77C200.198 23.9007 200.058 24.0687 199.955 24.274C199.853 24.47 199.801 24.6987 199.801 24.96V30H199.003ZM215.747 28.866H215.691C215.626 29.034 215.537 29.1973 215.425 29.356C215.313 29.5147 215.173 29.6547 215.005 29.776C214.837 29.888 214.636 29.9813 214.403 30.056C214.179 30.1307 213.913 30.168 213.605 30.168C212.84 30.168 212.242 29.9347 211.813 29.468C211.384 28.992 211.169 28.3153 211.169 27.438V22.832H211.967V27.284C211.967 28.0213 212.126 28.5673 212.443 28.922C212.76 29.2767 213.218 29.454 213.815 29.454C214.067 29.454 214.305 29.4213 214.529 29.356C214.762 29.2907 214.968 29.1927 215.145 29.062C215.332 28.9313 215.476 28.768 215.579 28.572C215.691 28.3667 215.747 28.1287 215.747 27.858V22.832H216.545V30H215.747V28.866ZM221.676 30.168C220.686 30.168 219.921 29.8413 219.38 29.188C218.848 28.5347 218.582 27.6107 218.582 26.416C218.582 25.2213 218.848 24.2973 219.38 23.644C219.921 22.9907 220.686 22.664 221.676 22.664C222.338 22.664 222.875 22.8087 223.286 23.098C223.696 23.3873 224.009 23.77 224.224 24.246L223.552 24.582C223.384 24.19 223.146 23.8913 222.838 23.686C222.539 23.4807 222.152 23.378 221.676 23.378C220.948 23.378 220.392 23.6113 220.01 24.078C219.627 24.5447 219.436 25.156 219.436 25.912V26.92C219.436 27.676 219.627 28.2873 220.01 28.754C220.392 29.2207 220.948 29.454 221.676 29.454C222.17 29.454 222.586 29.3467 222.922 29.132C223.258 28.9173 223.528 28.6093 223.734 28.208L224.322 28.6C224.088 29.076 223.752 29.4587 223.314 29.748C222.884 30.028 222.338 30.168 221.676 30.168ZM226.101 19.64H226.899V23.966H226.941C227.099 23.5927 227.347 23.2847 227.683 23.042C228.019 22.79 228.476 22.664 229.055 22.664C229.82 22.664 230.413 22.902 230.833 23.378C231.262 23.8447 231.477 24.5167 231.477 25.394V30H230.679V25.534C230.679 24.806 230.52 24.2647 230.203 23.91C229.895 23.5553 229.442 23.378 228.845 23.378C228.593 23.378 228.35 23.4107 228.117 23.476C227.883 23.5413 227.673 23.6393 227.487 23.77C227.309 23.9007 227.165 24.0687 227.053 24.274C226.95 24.47 226.899 24.6987 226.899 24.96V30H226.101V19.64ZM238.53 30C238.241 30 238.021 29.9207 237.872 29.762C237.723 29.6033 237.648 29.3887 237.648 29.118V23.532H236.402V22.832H237.214C237.41 22.832 237.541 22.7947 237.606 22.72C237.681 22.636 237.718 22.4913 237.718 22.286V20.83H238.446V22.832H240.07V23.532H238.446V29.3H239.958V30H238.53ZM244.481 30.168C244.005 30.168 243.576 30.084 243.193 29.916C242.81 29.748 242.484 29.5053 242.213 29.188C241.942 28.8613 241.732 28.4647 241.583 27.998C241.434 27.5313 241.359 27.004 241.359 26.416C241.359 25.828 241.434 25.3053 241.583 24.848C241.732 24.3813 241.942 23.9893 242.213 23.672C242.484 23.3453 242.81 23.098 243.193 22.93C243.576 22.7527 244.005 22.664 244.481 22.664C244.957 22.664 245.386 22.7527 245.769 22.93C246.152 23.098 246.478 23.3453 246.749 23.672C247.02 23.9893 247.23 24.3813 247.379 24.848C247.528 25.3053 247.603 25.828 247.603 26.416C247.603 27.004 247.528 27.5313 247.379 27.998C247.23 28.4647 247.02 28.8613 246.749 29.188C246.478 29.5053 246.152 29.748 245.769 29.916C245.386 30.084 244.957 30.168 244.481 30.168ZM244.481 29.454C245.181 29.454 245.732 29.2347 246.133 28.796C246.544 28.3573 246.749 27.7133 246.749 26.864V25.968C246.749 25.128 246.544 24.4887 246.133 24.05C245.732 23.602 245.181 23.378 244.481 23.378C243.781 23.378 243.226 23.5973 242.815 24.036C242.414 24.4747 242.213 25.1187 242.213 25.968V26.864C242.213 27.704 242.414 28.348 242.815 28.796C243.226 29.2347 243.781 29.454 244.481 29.454ZM18.302 44.832H19.1V45.98H19.142C19.3193 45.5787 19.59 45.2613 19.954 45.028C20.318 44.7853 20.7753 44.664 21.326 44.664C22.25 44.664 22.9733 44.9907 23.496 45.644C24.0187 46.2973 24.28 47.2213 24.28 48.416C24.28 49.6107 24.0187 50.5347 23.496 51.188C22.9733 51.8413 22.25 52.168 21.326 52.168C20.7753 52.168 20.3227 52.0513 19.968 51.818C19.6133 51.5753 19.338 51.2533 19.142 50.852H19.1V54.8H18.302V44.832ZM21.144 51.454C21.8627 51.454 22.4227 51.2253 22.824 50.768C23.2253 50.3107 23.426 49.6947 23.426 48.92V47.912C23.426 47.1373 23.2253 46.5213 22.824 46.064C22.4227 45.6067 21.8627 45.378 21.144 45.378C20.864 45.378 20.598 45.42 20.346 45.504C20.1033 45.5787 19.8887 45.686 19.702 45.826C19.5153 45.966 19.366 46.134 19.254 46.33C19.1513 46.526 19.1 46.7407 19.1 46.974V49.816C19.1 50.068 19.1513 50.2967 19.254 50.502C19.366 50.698 19.5153 50.8707 19.702 51.02C19.8887 51.16 20.1033 51.2673 20.346 51.342C20.598 51.4167 20.864 51.454 21.144 51.454ZM30.8211 50.866H30.7651C30.6997 51.034 30.6111 51.1973 30.4991 51.356C30.3871 51.5147 30.2471 51.6547 30.0791 51.776C29.9111 51.888 29.7104 51.9813 29.4771 52.056C29.2531 52.1307 28.9871 52.168 28.6791 52.168C27.9137 52.168 27.3164 51.9347 26.8871 51.468C26.4577 50.992 26.2431 50.3153 26.2431 49.438V44.832H27.0411V49.284C27.0411 50.0213 27.1997 50.5673 27.5171 50.922C27.8344 51.2767 28.2917 51.454 28.8891 51.454C29.1411 51.454 29.3791 51.4213 29.6031 51.356C29.8364 51.2907 30.0417 51.1927 30.2191 51.062C30.4057 50.9313 30.5504 50.768 30.6531 50.572C30.7651 50.3667 30.8211 50.1287 30.8211 49.858V44.832H31.6191V52H30.8211V50.866ZM34.2297 52V44.832H35.0277V46.12H35.0837C35.2237 45.784 35.4617 45.4853 35.7977 45.224C36.1337 44.9627 36.6097 44.832 37.2257 44.832H37.7017V45.616H37.0717C36.4744 45.616 35.9844 45.7467 35.6017 46.008C35.2191 46.2693 35.0277 46.6333 35.0277 47.1V52H34.2297ZM41.7126 52.168C40.7233 52.168 39.958 51.8413 39.4166 51.188C38.8846 50.5347 38.6186 49.6107 38.6186 48.416C38.6186 47.2213 38.8846 46.2973 39.4166 45.644C39.958 44.9907 40.7233 44.664 41.7126 44.664C42.3753 44.664 42.912 44.8087 43.3226 45.098C43.7333 45.3873 44.046 45.77 44.2606 46.246L43.5886 46.582C43.4206 46.19 43.1826 45.8913 42.8746 45.686C42.576 45.4807 42.1886 45.378 41.7126 45.378C40.9846 45.378 40.4293 45.6113 40.0466 46.078C39.664 46.5447 39.4726 47.156 39.4726 47.912V48.92C39.4726 49.676 39.664 50.2873 40.0466 50.754C40.4293 51.2207 40.9846 51.454 41.7126 51.454C42.2073 51.454 42.6226 51.3467 42.9586 51.132C43.2946 50.9173 43.5653 50.6093 43.7706 50.208L44.3586 50.6C44.1253 51.076 43.7893 51.4587 43.3506 51.748C42.9213 52.028 42.3753 52.168 41.7126 52.168ZM46.1379 41.64H46.9359V45.966H46.9779C47.1366 45.5927 47.3839 45.2847 47.7199 45.042C48.0559 44.79 48.5133 44.664 49.0919 44.664C49.8573 44.664 50.4499 44.902 50.8699 45.378C51.2993 45.8447 51.5139 46.5167 51.5139 47.394V52H50.7159V47.534C50.7159 46.806 50.5573 46.2647 50.2399 45.91C49.9319 45.5553 49.4793 45.378 48.8819 45.378C48.6299 45.378 48.3873 45.4107 48.1539 45.476C47.9206 45.5413 47.7106 45.6393 47.5239 45.77C47.3466 45.9007 47.2019 46.0687 47.0899 46.274C46.9873 46.47 46.9359 46.6987 46.9359 46.96V52H46.1379V41.64ZM58.9546 52C58.6466 52 58.4226 51.9207 58.2826 51.762C58.1426 51.6033 58.0633 51.3887 58.0446 51.118V50.866H57.9746C57.8159 51.2673 57.5546 51.5847 57.1906 51.818C56.8266 52.0513 56.3646 52.168 55.8046 52.168C55.0486 52.168 54.4653 51.986 54.0546 51.622C53.6439 51.2487 53.4386 50.726 53.4386 50.054C53.4386 49.4193 53.6626 48.9153 54.1106 48.542C54.5679 48.1687 55.3146 47.982 56.3506 47.982H58.0026V47.142C58.0026 45.9567 57.3913 45.364 56.1686 45.364C55.6926 45.364 55.2959 45.4667 54.9786 45.672C54.6613 45.868 54.4046 46.1527 54.2086 46.526L53.7046 46.106C53.9006 45.686 54.1993 45.3407 54.6006 45.07C55.0113 44.7993 55.5433 44.664 56.1966 44.664C57.0366 44.664 57.6806 44.874 58.1286 45.294C58.5766 45.714 58.8006 46.302 58.8006 47.058V51.3H59.7666V52H58.9546ZM55.9166 51.482C56.2059 51.482 56.4766 51.4447 56.7286 51.37C56.9806 51.2953 57.1999 51.1927 57.3866 51.062C57.5826 50.922 57.7319 50.7587 57.8346 50.572C57.9466 50.376 58.0026 50.1567 58.0026 49.914V48.584H56.3226C55.6039 48.584 55.0813 48.7007 54.7546 48.934C54.4373 49.158 54.2786 49.4707 54.2786 49.872V50.208C54.2786 50.628 54.4279 50.9453 54.7266 51.16C55.0253 51.3747 55.4219 51.482 55.9166 51.482ZM63.4394 52.168C62.8141 52.168 62.2774 52.0513 61.8294 51.818C61.3908 51.5847 61.0081 51.244 60.6814 50.796L61.2694 50.334C61.5681 50.726 61.8948 51.0153 62.2494 51.202C62.6041 51.3887 63.0194 51.482 63.4954 51.482C64.0461 51.482 64.4708 51.3653 64.7694 51.132C65.0681 50.8987 65.2174 50.5627 65.2174 50.124C65.2174 49.7413 65.1008 49.4427 64.8674 49.228C64.6434 49.004 64.2701 48.8547 63.7474 48.78L63.1594 48.682C62.8328 48.6353 62.5341 48.5653 62.2634 48.472C61.9928 48.3787 61.7594 48.2527 61.5634 48.094C61.3768 47.9353 61.2274 47.744 61.1154 47.52C61.0128 47.2867 60.9614 47.0067 60.9614 46.68C60.9614 46.344 61.0221 46.05 61.1434 45.798C61.2741 45.546 61.4468 45.336 61.6614 45.168C61.8761 45 62.1328 44.874 62.4314 44.79C62.7301 44.706 63.0521 44.664 63.3974 44.664C63.9948 44.664 64.4848 44.7667 64.8674 44.972C65.2501 45.1773 65.5768 45.4433 65.8474 45.77L65.3154 46.26C65.1288 46.036 64.8768 45.8307 64.5594 45.644C64.2514 45.448 63.8501 45.35 63.3554 45.35C62.8421 45.35 62.4408 45.462 62.1514 45.686C61.8714 45.91 61.7314 46.2273 61.7314 46.638C61.7314 47.058 61.8574 47.3613 62.1094 47.548C62.3708 47.7347 62.7581 47.87 63.2714 47.954L63.8454 48.038C64.5734 48.15 65.1101 48.3693 65.4554 48.696C65.8101 49.0133 65.9874 49.4613 65.9874 50.04C65.9874 50.712 65.7588 51.2347 65.3014 51.608C64.8534 51.9813 64.2328 52.168 63.4394 52.168ZM70.6433 52.168C70.1673 52.168 69.7333 52.084 69.3413 51.916C68.9586 51.748 68.6273 51.5053 68.3473 51.188C68.0766 50.8613 67.8666 50.4647 67.7173 49.998C67.5773 49.5313 67.5073 49.004 67.5073 48.416C67.5073 47.828 67.5773 47.3053 67.7173 46.848C67.8666 46.3813 68.0766 45.9893 68.3473 45.672C68.6273 45.3453 68.9586 45.098 69.3413 44.93C69.724 44.7527 70.1533 44.664 70.6293 44.664C71.0866 44.664 71.502 44.7527 71.8753 44.93C72.2486 45.098 72.566 45.336 72.8273 45.644C73.0886 45.952 73.2893 46.3253 73.4293 46.764C73.5786 47.1933 73.6533 47.6693 73.6533 48.192V48.57H68.3473V48.92C68.3473 49.2933 68.3986 49.6387 68.5013 49.956C68.6133 50.264 68.7673 50.53 68.9633 50.754C69.1686 50.978 69.416 51.1553 69.7053 51.286C69.9946 51.4073 70.3213 51.468 70.6853 51.468C71.7306 51.468 72.454 50.9873 72.8553 50.026L73.4433 50.418C73.2193 50.95 72.8646 51.3747 72.3793 51.692C71.9033 52.0093 71.3246 52.168 70.6433 52.168ZM70.6293 45.336C70.284 45.336 69.9713 45.4013 69.6913 45.532C69.4113 45.6533 69.1686 45.826 68.9633 46.05C68.7673 46.274 68.6133 46.5447 68.5013 46.862C68.3986 47.17 68.3473 47.5107 68.3473 47.884V47.954H72.7853V47.842C72.7853 47.4687 72.734 47.128 72.6313 46.82C72.5286 46.5027 72.3793 46.2367 72.1833 46.022C71.9966 45.8073 71.768 45.6393 71.4973 45.518C71.236 45.3967 70.9466 45.336 70.6293 45.336ZM75.8864 50.712C76.1197 50.712 76.2877 50.7727 76.3904 50.894C76.5024 51.0153 76.5584 51.1693 76.5584 51.356V51.538C76.5584 51.93 76.4464 52.3453 76.2224 52.784C76.0077 53.232 75.7184 53.6147 75.3544 53.932H74.6824C74.9904 53.6147 75.2237 53.3067 75.3824 53.008C75.5504 52.7093 75.6624 52.406 75.7184 52.098C75.5317 52.0793 75.4011 52.0187 75.3264 51.916C75.2517 51.804 75.2144 51.6733 75.2144 51.524V51.356C75.2144 51.1693 75.2657 51.0153 75.3684 50.894C75.4804 50.7727 75.6531 50.712 75.8864 50.712ZM82.3137 44.832H83.1117V45.98H83.1537C83.3311 45.5787 83.6017 45.2613 83.9657 45.028C84.3297 44.7853 84.7871 44.664 85.3377 44.664C86.2617 44.664 86.9851 44.9907 87.5077 45.644C88.0304 46.2973 88.2917 47.2213 88.2917 48.416C88.2917 49.6107 88.0304 50.5347 87.5077 51.188C86.9851 51.8413 86.2617 52.168 85.3377 52.168C84.7871 52.168 84.3344 52.0513 83.9797 51.818C83.6251 51.5753 83.3497 51.2533 83.1537 50.852H83.1117V54.8H82.3137V44.832ZM85.1557 51.454C85.8744 51.454 86.4344 51.2253 86.8357 50.768C87.2371 50.3107 87.4377 49.6947 87.4377 48.92V47.912C87.4377 47.1373 87.2371 46.5213 86.8357 46.064C86.4344 45.6067 85.8744 45.378 85.1557 45.378C84.8757 45.378 84.6097 45.42 84.3577 45.504C84.1151 45.5787 83.9004 45.686 83.7137 45.826C83.5271 45.966 83.3777 46.134 83.2657 46.33C83.1631 46.526 83.1117 46.7407 83.1117 46.974V49.816C83.1117 50.068 83.1631 50.2967 83.2657 50.502C83.3777 50.698 83.5271 50.8707 83.7137 51.02C83.9004 51.16 84.1151 51.2673 84.3577 51.342C84.6097 51.4167 84.8757 51.454 85.1557 51.454ZM90.3528 52V44.832H91.1508V46.12H91.2068C91.3468 45.784 91.5848 45.4853 91.9208 45.224C92.2568 44.9627 92.7328 44.832 93.3488 44.832H93.8248V45.616H93.1948C92.5974 45.616 92.1074 45.7467 91.7248 46.008C91.3421 46.2693 91.1508 46.6333 91.1508 47.1V52H90.3528ZM97.8777 52.168C97.4017 52.168 96.9677 52.084 96.5757 51.916C96.193 51.748 95.8617 51.5053 95.5817 51.188C95.311 50.8613 95.101 50.4647 94.9517 49.998C94.8117 49.5313 94.7417 49.004 94.7417 48.416C94.7417 47.828 94.8117 47.3053 94.9517 46.848C95.101 46.3813 95.311 45.9893 95.5817 45.672C95.8617 45.3453 96.193 45.098 96.5757 44.93C96.9583 44.7527 97.3877 44.664 97.8637 44.664C98.321 44.664 98.7363 44.7527 99.1097 44.93C99.483 45.098 99.8003 45.336 100.062 45.644C100.323 45.952 100.524 46.3253 100.664 46.764C100.813 47.1933 100.888 47.6693 100.888 48.192V48.57H95.5817V48.92C95.5817 49.2933 95.633 49.6387 95.7357 49.956C95.8477 50.264 96.0017 50.53 96.1977 50.754C96.403 50.978 96.6503 51.1553 96.9397 51.286C97.229 51.4073 97.5557 51.468 97.9197 51.468C98.965 51.468 99.6883 50.9873 100.09 50.026L100.678 50.418C100.454 50.95 100.099 51.3747 99.6137 51.692C99.1377 52.0093 98.559 52.168 97.8777 52.168ZM97.8637 45.336C97.5183 45.336 97.2057 45.4013 96.9257 45.532C96.6457 45.6533 96.403 45.826 96.1977 46.05C96.0017 46.274 95.8477 46.5447 95.7357 46.862C95.633 47.17 95.5817 47.5107 95.5817 47.884V47.954H100.02V47.842C100.02 47.4687 99.9683 47.128 99.8657 46.82C99.763 46.5027 99.6137 46.2367 99.4177 46.022C99.231 45.8073 99.0023 45.6393 98.7317 45.518C98.4703 45.3967 98.181 45.336 97.8637 45.336ZM101.841 44.832H102.681L104.879 51.146H104.935L107.119 44.832H107.931L105.341 52H104.431L101.841 44.832ZM111.973 52.168C111.497 52.168 111.063 52.084 110.671 51.916C110.289 51.748 109.957 51.5053 109.677 51.188C109.407 50.8613 109.197 50.4647 109.047 49.998C108.907 49.5313 108.837 49.004 108.837 48.416C108.837 47.828 108.907 47.3053 109.047 46.848C109.197 46.3813 109.407 45.9893 109.677 45.672C109.957 45.3453 110.289 45.098 110.671 44.93C111.054 44.7527 111.483 44.664 111.959 44.664C112.417 44.664 112.832 44.7527 113.205 44.93C113.579 45.098 113.896 45.336 114.157 45.644C114.419 45.952 114.619 46.3253 114.759 46.764C114.909 47.1933 114.983 47.6693 114.983 48.192V48.57H109.677V48.92C109.677 49.2933 109.729 49.6387 109.831 49.956C109.943 50.264 110.097 50.53 110.293 50.754C110.499 50.978 110.746 51.1553 111.035 51.286C111.325 51.4073 111.651 51.468 112.015 51.468C113.061 51.468 113.784 50.9873 114.185 50.026L114.773 50.418C114.549 50.95 114.195 51.3747 113.709 51.692C113.233 52.0093 112.655 52.168 111.973 52.168ZM111.959 45.336C111.614 45.336 111.301 45.4013 111.021 45.532C110.741 45.6533 110.499 45.826 110.293 46.05C110.097 46.274 109.943 46.5447 109.831 46.862C109.729 47.17 109.677 47.5107 109.677 47.884V47.954H114.115V47.842C114.115 47.4687 114.064 47.128 113.961 46.82C113.859 46.5027 113.709 46.2367 113.513 46.022C113.327 45.8073 113.098 45.6393 112.827 45.518C112.566 45.3967 112.277 45.336 111.959 45.336ZM117.013 52V44.832H117.811V45.966H117.853C118.012 45.5927 118.259 45.2847 118.595 45.042C118.931 44.79 119.388 44.664 119.967 44.664C120.732 44.664 121.325 44.902 121.745 45.378C122.174 45.8447 122.389 46.5167 122.389 47.394V52H121.591V47.534C121.591 46.806 121.432 46.2647 121.115 45.91C120.807 45.5553 120.354 45.378 119.757 45.378C119.505 45.378 119.262 45.4107 119.029 45.476C118.796 45.5413 118.586 45.6393 118.399 45.77C118.222 45.9007 118.077 46.0687 117.965 46.274C117.862 46.47 117.811 46.6987 117.811 46.96V52H117.013ZM126.134 52C125.844 52 125.625 51.9207 125.476 51.762C125.326 51.6033 125.252 51.3887 125.252 51.118V45.532H124.006V44.832H124.818C125.014 44.832 125.144 44.7947 125.21 44.72C125.284 44.636 125.322 44.4913 125.322 44.286V42.83H126.05V44.832H127.674V45.532H126.05V51.3H127.562V52H126.134ZM131.621 52.168C130.996 52.168 130.459 52.0513 130.011 51.818C129.572 51.5847 129.19 51.244 128.863 50.796L129.451 50.334C129.75 50.726 130.076 51.0153 130.431 51.202C130.786 51.3887 131.201 51.482 131.677 51.482C132.228 51.482 132.652 51.3653 132.951 51.132C133.25 50.8987 133.399 50.5627 133.399 50.124C133.399 49.7413 133.282 49.4427 133.049 49.228C132.825 49.004 132.452 48.8547 131.929 48.78L131.341 48.682C131.014 48.6353 130.716 48.5653 130.445 48.472C130.174 48.3787 129.941 48.2527 129.745 48.094C129.558 47.9353 129.409 47.744 129.297 47.52C129.194 47.2867 129.143 47.0067 129.143 46.68C129.143 46.344 129.204 46.05 129.325 45.798C129.456 45.546 129.628 45.336 129.843 45.168C130.058 45 130.314 44.874 130.613 44.79C130.912 44.706 131.234 44.664 131.579 44.664C132.176 44.664 132.666 44.7667 133.049 44.972C133.432 45.1773 133.758 45.4433 134.029 45.77L133.497 46.26C133.31 46.036 133.058 45.8307 132.741 45.644C132.433 45.448 132.032 45.35 131.537 45.35C131.024 45.35 130.622 45.462 130.333 45.686C130.053 45.91 129.913 46.2273 129.913 46.638C129.913 47.058 130.039 47.3613 130.291 47.548C130.552 47.7347 130.94 47.87 131.453 47.954L132.027 48.038C132.755 48.15 133.292 48.3693 133.637 48.696C133.992 49.0133 134.169 49.4613 134.169 50.04C134.169 50.712 133.94 51.2347 133.483 51.608C133.035 51.9813 132.414 52.168 131.621 52.168ZM142.12 52.168C141.644 52.168 141.214 52.084 140.832 51.916C140.449 51.748 140.122 51.5053 139.852 51.188C139.581 50.8613 139.371 50.4647 139.222 49.998C139.072 49.5313 138.998 49.004 138.998 48.416C138.998 47.828 139.072 47.3053 139.222 46.848C139.371 46.3813 139.581 45.9893 139.852 45.672C140.122 45.3453 140.449 45.098 140.832 44.93C141.214 44.7527 141.644 44.664 142.12 44.664C142.596 44.664 143.025 44.7527 143.408 44.93C143.79 45.098 144.117 45.3453 144.388 45.672C144.658 45.9893 144.868 46.3813 145.018 46.848C145.167 47.3053 145.242 47.828 145.242 48.416C145.242 49.004 145.167 49.5313 145.018 49.998C144.868 50.4647 144.658 50.8613 144.388 51.188C144.117 51.5053 143.79 51.748 143.408 51.916C143.025 52.084 142.596 52.168 142.12 52.168ZM142.12 51.454C142.82 51.454 143.37 51.2347 143.772 50.796C144.182 50.3573 144.388 49.7133 144.388 48.864V47.968C144.388 47.128 144.182 46.4887 143.772 46.05C143.37 45.602 142.82 45.378 142.12 45.378C141.42 45.378 140.864 45.5973 140.454 46.036C140.052 46.4747 139.852 47.1187 139.852 47.968V48.864C139.852 49.704 140.052 50.348 140.454 50.796C140.864 51.2347 141.42 51.454 142.12 51.454ZM146.165 44.832H147.005L149.203 51.146H149.259L151.443 44.832H152.255L149.665 52H148.755L146.165 44.832ZM156.298 52.168C155.822 52.168 155.388 52.084 154.996 51.916C154.613 51.748 154.282 51.5053 154.002 51.188C153.731 50.8613 153.521 50.4647 153.372 49.998C153.232 49.5313 153.162 49.004 153.162 48.416C153.162 47.828 153.232 47.3053 153.372 46.848C153.521 46.3813 153.731 45.9893 154.002 45.672C154.282 45.3453 154.613 45.098 154.996 44.93C155.378 44.7527 155.808 44.664 156.284 44.664C156.741 44.664 157.156 44.7527 157.53 44.93C157.903 45.098 158.22 45.336 158.482 45.644C158.743 45.952 158.944 46.3253 159.084 46.764C159.233 47.1933 159.308 47.6693 159.308 48.192V48.57H154.002V48.92C154.002 49.2933 154.053 49.6387 154.156 49.956C154.268 50.264 154.422 50.53 154.618 50.754C154.823 50.978 155.07 51.1553 155.36 51.286C155.649 51.4073 155.976 51.468 156.34 51.468C157.385 51.468 158.108 50.9873 158.51 50.026L159.098 50.418C158.874 50.95 158.519 51.3747 158.034 51.692C157.558 52.0093 156.979 52.168 156.298 52.168ZM156.284 45.336C155.938 45.336 155.626 45.4013 155.346 45.532C155.066 45.6533 154.823 45.826 154.618 46.05C154.422 46.274 154.268 46.5447 154.156 46.862C154.053 47.17 154.002 47.5107 154.002 47.884V47.954H158.44V47.842C158.44 47.4687 158.388 47.128 158.286 46.82C158.183 46.5027 158.034 46.2367 157.838 46.022C157.651 45.8073 157.422 45.6393 157.152 45.518C156.89 45.3967 156.601 45.336 156.284 45.336ZM161.337 52V44.832H162.135V46.12H162.191C162.331 45.784 162.569 45.4853 162.905 45.224C163.241 44.9627 163.717 44.832 164.333 44.832H164.809V45.616H164.179C163.582 45.616 163.092 45.7467 162.709 46.008C162.326 46.2693 162.135 46.6333 162.135 47.1V52H161.337ZM166.341 44.832H167.139V45.98H167.181C167.358 45.5787 167.629 45.2613 167.993 45.028C168.357 44.7853 168.814 44.664 169.365 44.664C170.289 44.664 171.012 44.9907 171.535 45.644C172.058 46.2973 172.319 47.2213 172.319 48.416C172.319 49.6107 172.058 50.5347 171.535 51.188C171.012 51.8413 170.289 52.168 169.365 52.168C168.814 52.168 168.362 52.0513 168.007 51.818C167.652 51.5753 167.377 51.2533 167.181 50.852H167.139V54.8H166.341V44.832ZM169.183 51.454C169.902 51.454 170.462 51.2253 170.863 50.768C171.264 50.3107 171.465 49.6947 171.465 48.92V47.912C171.465 47.1373 171.264 46.5213 170.863 46.064C170.462 45.6067 169.902 45.378 169.183 45.378C168.903 45.378 168.637 45.42 168.385 45.504C168.142 45.5787 167.928 45.686 167.741 45.826C167.554 45.966 167.405 46.134 167.293 46.33C167.19 46.526 167.139 46.7407 167.139 46.974V49.816C167.139 50.068 167.19 50.2967 167.293 50.502C167.405 50.698 167.554 50.8707 167.741 51.02C167.928 51.16 168.142 51.2673 168.385 51.342C168.637 51.4167 168.903 51.454 169.183 51.454ZM178.86 50.866H178.804C178.739 51.034 178.65 51.1973 178.538 51.356C178.426 51.5147 178.286 51.6547 178.118 51.776C177.95 51.888 177.749 51.9813 177.516 52.056C177.292 52.1307 177.026 52.168 176.718 52.168C175.953 52.168 175.355 51.9347 174.926 51.468C174.497 50.992 174.282 50.3153 174.282 49.438V44.832H175.08V49.284C175.08 50.0213 175.239 50.5673 175.556 50.922C175.873 51.2767 176.331 51.454 176.928 51.454C177.18 51.454 177.418 51.4213 177.642 51.356C177.875 51.2907 178.081 51.1927 178.258 51.062C178.445 50.9313 178.589 50.768 178.692 50.572C178.804 50.3667 178.86 50.1287 178.86 49.858V44.832H179.658V52H178.86V50.866ZM182.269 52V44.832H183.067V46.12H183.123C183.263 45.784 183.501 45.4853 183.837 45.224C184.173 44.9627 184.649 44.832 185.265 44.832H185.741V45.616H185.111C184.513 45.616 184.023 45.7467 183.641 46.008C183.258 46.2693 183.067 46.6333 183.067 47.1V52H182.269ZM189.752 52.168C188.762 52.168 187.997 51.8413 187.456 51.188C186.924 50.5347 186.658 49.6107 186.658 48.416C186.658 47.2213 186.924 46.2973 187.456 45.644C187.997 44.9907 188.762 44.664 189.752 44.664C190.414 44.664 190.951 44.8087 191.362 45.098C191.772 45.3873 192.085 45.77 192.3 46.246L191.628 46.582C191.46 46.19 191.222 45.8913 190.914 45.686C190.615 45.4807 190.228 45.378 189.752 45.378C189.024 45.378 188.468 45.6113 188.086 46.078C187.703 46.5447 187.512 47.156 187.512 47.912V48.92C187.512 49.676 187.703 50.2873 188.086 50.754C188.468 51.2207 189.024 51.454 189.752 51.454C190.246 51.454 190.662 51.3467 190.998 51.132C191.334 50.9173 191.604 50.6093 191.81 50.208L192.398 50.6C192.164 51.076 191.828 51.4587 191.39 51.748C190.96 52.028 190.414 52.168 189.752 52.168ZM194.177 41.64H194.975V45.966H195.017C195.176 45.5927 195.423 45.2847 195.759 45.042C196.095 44.79 196.552 44.664 197.131 44.664C197.896 44.664 198.489 44.902 198.909 45.378C199.338 45.8447 199.553 46.5167 199.553 47.394V52H198.755V47.534C198.755 46.806 198.596 46.2647 198.279 45.91C197.971 45.5553 197.518 45.378 196.921 45.378C196.669 45.378 196.426 45.4107 196.193 45.476C195.96 45.5413 195.75 45.6393 195.563 45.77C195.386 45.9007 195.241 46.0687 195.129 46.274C195.026 46.47 194.975 46.6987 194.975 46.96V52H194.177V41.64ZM206.994 52C206.686 52 206.462 51.9207 206.322 51.762C206.182 51.6033 206.102 51.3887 206.084 51.118V50.866H206.014C205.855 51.2673 205.594 51.5847 205.23 51.818C204.866 52.0513 204.404 52.168 203.844 52.168C203.088 52.168 202.504 51.986 202.094 51.622C201.683 51.2487 201.478 50.726 201.478 50.054C201.478 49.4193 201.702 48.9153 202.15 48.542C202.607 48.1687 203.354 47.982 204.39 47.982H206.042V47.142C206.042 45.9567 205.43 45.364 204.208 45.364C203.732 45.364 203.335 45.4667 203.018 45.672C202.7 45.868 202.444 46.1527 202.248 46.526L201.744 46.106C201.94 45.686 202.238 45.3407 202.64 45.07C203.05 44.7993 203.582 44.664 204.236 44.664C205.076 44.664 205.72 44.874 206.168 45.294C206.616 45.714 206.84 46.302 206.84 47.058V51.3H207.806V52H206.994ZM203.956 51.482C204.245 51.482 204.516 51.4447 204.768 51.37C205.02 51.2953 205.239 51.1927 205.426 51.062C205.622 50.922 205.771 50.7587 205.874 50.572C205.986 50.376 206.042 50.1567 206.042 49.914V48.584H204.362C203.643 48.584 203.12 48.7007 202.794 48.934C202.476 49.158 202.318 49.4707 202.318 49.872V50.208C202.318 50.628 202.467 50.9453 202.766 51.16C203.064 51.3747 203.461 51.482 203.956 51.482ZM211.478 52.168C210.853 52.168 210.316 52.0513 209.868 51.818C209.43 51.5847 209.047 51.244 208.72 50.796L209.308 50.334C209.607 50.726 209.934 51.0153 210.288 51.202C210.643 51.3887 211.058 51.482 211.534 51.482C212.085 51.482 212.51 51.3653 212.808 51.132C213.107 50.8987 213.256 50.5627 213.256 50.124C213.256 49.7413 213.14 49.4427 212.906 49.228C212.682 49.004 212.309 48.8547 211.786 48.78L211.198 48.682C210.872 48.6353 210.573 48.5653 210.302 48.472C210.032 48.3787 209.798 48.2527 209.602 48.094C209.416 47.9353 209.266 47.744 209.154 47.52C209.052 47.2867 209 47.0067 209 46.68C209 46.344 209.061 46.05 209.182 45.798C209.313 45.546 209.486 45.336 209.7 45.168C209.915 45 210.172 44.874 210.47 44.79C210.769 44.706 211.091 44.664 211.436 44.664C212.034 44.664 212.524 44.7667 212.906 44.972C213.289 45.1773 213.616 45.4433 213.886 45.77L213.354 46.26C213.168 46.036 212.916 45.8307 212.598 45.644C212.29 45.448 211.889 45.35 211.394 45.35C210.881 45.35 210.48 45.462 210.19 45.686C209.91 45.91 209.77 46.2273 209.77 46.638C209.77 47.058 209.896 47.3613 210.148 47.548C210.41 47.7347 210.797 47.87 211.31 47.954L211.884 48.038C212.612 48.15 213.149 48.3693 213.494 48.696C213.849 49.0133 214.026 49.4613 214.026 50.04C214.026 50.712 213.798 51.2347 213.34 51.608C212.892 51.9813 212.272 52.168 211.478 52.168ZM216.512 42.886C216.326 42.886 216.186 42.8393 216.092 42.746C216.008 42.6527 215.966 42.5313 215.966 42.382V42.242C215.966 42.0927 216.008 41.9713 216.092 41.878C216.186 41.7847 216.326 41.738 216.512 41.738C216.699 41.738 216.834 41.7847 216.918 41.878C217.012 41.9713 217.058 42.0927 217.058 42.242V42.382C217.058 42.5313 217.012 42.6527 216.918 42.746C216.834 42.8393 216.699 42.886 216.512 42.886ZM216.12 44.832H216.918V52H216.12V44.832ZM219.525 52V44.832H220.323V45.966H220.365C220.523 45.5927 220.771 45.2847 221.107 45.042C221.443 44.79 221.9 44.664 222.479 44.664C223.244 44.664 223.837 44.902 224.257 45.378C224.686 45.8447 224.901 46.5167 224.901 47.394V52H224.103V47.534C224.103 46.806 223.944 46.2647 223.627 45.91C223.319 45.5553 222.866 45.378 222.269 45.378C222.017 45.378 221.774 45.4107 221.541 45.476C221.307 45.5413 221.097 45.6393 220.911 45.77C220.733 45.9007 220.589 46.0687 220.477 46.274C220.374 46.47 220.323 46.6987 220.323 46.96V52H219.525ZM233.293 52.84C233.293 53.568 232.999 54.1047 232.411 54.45C231.833 54.7953 230.979 54.968 229.849 54.968C228.757 54.968 227.969 54.8093 227.483 54.492C226.998 54.1747 226.755 53.736 226.755 53.176C226.755 52.7653 226.863 52.4387 227.077 52.196C227.292 51.9533 227.595 51.776 227.987 51.664V51.552C227.539 51.3747 227.315 51.048 227.315 50.572C227.315 50.2173 227.432 49.9467 227.665 49.76C227.899 49.5733 228.188 49.4333 228.533 49.34V49.284C228.113 49.0973 227.787 48.8173 227.553 48.444C227.32 48.0707 227.203 47.6227 227.203 47.1C227.203 46.736 227.264 46.4047 227.385 46.106C227.507 45.8073 227.679 45.5507 227.903 45.336C228.137 45.1213 228.412 44.958 228.729 44.846C229.056 44.7247 229.415 44.664 229.807 44.664C230.358 44.664 230.839 44.7807 231.249 45.014V44.664C231.249 44.4493 231.301 44.2767 231.403 44.146C231.506 44.006 231.674 43.936 231.907 43.936H233.139V44.636H231.683V45.322C231.926 45.5367 232.113 45.798 232.243 46.106C232.374 46.4047 232.439 46.736 232.439 47.1C232.439 47.464 232.374 47.7953 232.243 48.094C232.122 48.3927 231.945 48.654 231.711 48.878C231.487 49.0927 231.212 49.2607 230.885 49.382C230.568 49.494 230.213 49.55 229.821 49.55C229.691 49.55 229.565 49.5407 229.443 49.522C229.322 49.5033 229.201 49.4847 229.079 49.466C228.771 49.55 228.515 49.6667 228.309 49.816C228.113 49.956 228.015 50.1473 228.015 50.39C228.015 50.8193 228.398 51.034 229.163 51.034H230.829C231.697 51.034 232.323 51.1973 232.705 51.524C233.097 51.8413 233.293 52.28 233.293 52.84ZM232.523 52.896C232.523 52.5507 232.397 52.2753 232.145 52.07C231.903 51.874 231.464 51.776 230.829 51.776H228.505C228.197 51.8787 227.955 52.0327 227.777 52.238C227.6 52.4433 227.511 52.7 227.511 53.008C227.511 53.3813 227.665 53.6893 227.973 53.932C228.281 54.184 228.748 54.31 229.373 54.31H230.269C230.969 54.31 231.52 54.1933 231.921 53.96C232.323 53.736 232.523 53.3813 232.523 52.896ZM229.821 48.906C230.372 48.906 230.801 48.7707 231.109 48.5C231.427 48.22 231.585 47.828 231.585 47.324V46.876C231.585 46.3813 231.427 45.9987 231.109 45.728C230.801 45.448 230.372 45.308 229.821 45.308C229.261 45.308 228.827 45.448 228.519 45.728C228.211 45.9987 228.057 46.3813 228.057 46.876V47.324C228.057 47.828 228.211 48.22 228.519 48.5C228.837 48.7707 229.271 48.906 229.821 48.906Z" fill="white"/>
</svg>
