<svg width="307" height="72" viewBox="0 0 307 72" fill="none" xmlns="http://www.w3.org/2000/svg">
<rect width="307" height="72" fill="#444444"/>
<path d="M18.386 30V20.228H22.222C23.0713 20.228 23.72 20.4753 24.168 20.97C24.616 21.4553 24.84 22.118 24.84 22.958C24.84 23.8073 24.616 24.4793 24.168 24.974C23.72 25.4593 23.0713 25.702 22.222 25.702H19.226V30H18.386ZM19.226 24.96H22.222C22.782 24.96 23.2067 24.806 23.496 24.498C23.7947 24.1807 23.944 23.7793 23.944 23.294V22.622C23.944 22.146 23.7947 21.754 23.496 21.446C23.2067 21.1287 22.782 20.97 22.222 20.97H19.226V24.96ZM31.5562 30C31.2482 30 31.0242 29.9207 30.8842 29.762C30.7442 29.6033 30.6648 29.3887 30.6462 29.118V28.866H30.5762C30.4175 29.2673 30.1562 29.5847 29.7922 29.818C29.4282 30.0513 28.9662 30.168 28.4062 30.168C27.6502 30.168 27.0668 29.986 26.6562 29.622C26.2455 29.2487 26.0402 28.726 26.0402 28.054C26.0402 27.4193 26.2642 26.9153 26.7122 26.542C27.1695 26.1687 27.9162 25.982 28.9522 25.982H30.6042V25.142C30.6042 23.9567 29.9928 23.364 28.7702 23.364C28.2942 23.364 27.8975 23.4667 27.5802 23.672C27.2628 23.868 27.0062 24.1527 26.8102 24.526L26.3062 24.106C26.5022 23.686 26.8008 23.3407 27.2022 23.07C27.6128 22.7993 28.1448 22.664 28.7982 22.664C29.6382 22.664 30.2822 22.874 30.7302 23.294C31.1782 23.714 31.4022 24.302 31.4022 25.058V29.3H32.3682V30H31.5562ZM28.5182 29.482C28.8075 29.482 29.0782 29.4447 29.3302 29.37C29.5822 29.2953 29.8015 29.1927 29.9882 29.062C30.1842 28.922 30.3335 28.7587 30.4362 28.572C30.5482 28.376 30.6042 28.1567 30.6042 27.914V26.584H28.9242C28.2055 26.584 27.6828 26.7007 27.3562 26.934C27.0388 27.158 26.8802 27.4707 26.8802 27.872V28.208C26.8802 28.628 27.0295 28.9453 27.3282 29.16C27.6268 29.3747 28.0235 29.482 28.5182 29.482ZM36.041 30.168C35.4157 30.168 34.879 30.0513 34.431 29.818C33.9923 29.5847 33.6097 29.244 33.283 28.796L33.871 28.334C34.1697 28.726 34.4963 29.0153 34.851 29.202C35.2057 29.3887 35.621 29.482 36.097 29.482C36.6477 29.482 37.0723 29.3653 37.371 29.132C37.6697 28.8987 37.819 28.5627 37.819 28.124C37.819 27.7413 37.7023 27.4427 37.469 27.228C37.245 27.004 36.8717 26.8547 36.349 26.78L35.761 26.682C35.4343 26.6353 35.1357 26.5653 34.865 26.472C34.5943 26.3787 34.361 26.2527 34.165 26.094C33.9783 25.9353 33.829 25.744 33.717 25.52C33.6143 25.2867 33.563 25.0067 33.563 24.68C33.563 24.344 33.6237 24.05 33.745 23.798C33.8757 23.546 34.0483 23.336 34.263 23.168C34.4777 23 34.7343 22.874 35.033 22.79C35.3317 22.706 35.6537 22.664 35.999 22.664C36.5963 22.664 37.0863 22.7667 37.469 22.972C37.8517 23.1773 38.1783 23.4433 38.449 23.77L37.917 24.26C37.7303 24.036 37.4783 23.8307 37.161 23.644C36.853 23.448 36.4517 23.35 35.957 23.35C35.4437 23.35 35.0423 23.462 34.753 23.686C34.473 23.91 34.333 24.2273 34.333 24.638C34.333 25.058 34.459 25.3613 34.711 25.548C34.9723 25.7347 35.3597 25.87 35.873 25.954L36.447 26.038C37.175 26.15 37.7117 26.3693 38.057 26.696C38.4117 27.0133 38.589 27.4613 38.589 28.04C38.589 28.712 38.3603 29.2347 37.903 29.608C37.455 29.9813 36.8343 30.168 36.041 30.168ZM41.8602 30C41.5708 30 41.3515 29.9207 41.2022 29.762C41.0528 29.6033 40.9782 29.3887 40.9782 29.118V23.532H39.7322V22.832H40.5442C40.7402 22.832 40.8708 22.7947 40.9362 22.72C41.0108 22.636 41.0482 22.4913 41.0482 22.286V20.83H41.7762V22.832H43.4002V23.532H41.7762V29.3H43.2882V30H41.8602ZM47.8249 30.168C47.3489 30.168 46.9149 30.084 46.5229 29.916C46.1403 29.748 45.8089 29.5053 45.5289 29.188C45.2583 28.8613 45.0483 28.4647 44.8989 27.998C44.7589 27.5313 44.6889 27.004 44.6889 26.416C44.6889 25.828 44.7589 25.3053 44.8989 24.848C45.0483 24.3813 45.2583 23.9893 45.5289 23.672C45.8089 23.3453 46.1403 23.098 46.5229 22.93C46.9056 22.7527 47.3349 22.664 47.8109 22.664C48.2683 22.664 48.6836 22.7527 49.0569 22.93C49.4303 23.098 49.7476 23.336 50.0089 23.644C50.2703 23.952 50.4709 24.3253 50.6109 24.764C50.7603 25.1933 50.8349 25.6693 50.8349 26.192V26.57H45.5289V26.92C45.5289 27.2933 45.5803 27.6387 45.6829 27.956C45.7949 28.264 45.9489 28.53 46.1449 28.754C46.3503 28.978 46.5976 29.1553 46.8869 29.286C47.1763 29.4073 47.5029 29.468 47.8669 29.468C48.9123 29.468 49.6356 28.9873 50.0369 28.026L50.6249 28.418C50.4009 28.95 50.0463 29.3747 49.5609 29.692C49.0849 30.0093 48.5063 30.168 47.8249 30.168ZM47.8109 23.336C47.4656 23.336 47.1529 23.4013 46.8729 23.532C46.5929 23.6533 46.3503 23.826 46.1449 24.05C45.9489 24.274 45.7949 24.5447 45.6829 24.862C45.5803 25.17 45.5289 25.5107 45.5289 25.884V25.954H49.9669V25.842C49.9669 25.4687 49.9156 25.128 49.8129 24.82C49.7103 24.5027 49.5609 24.2367 49.3649 24.022C49.1783 23.8073 48.9496 23.6393 48.6789 23.518C48.4176 23.3967 48.1283 23.336 47.8109 23.336ZM57.0551 30C56.7658 30 56.5464 29.9207 56.3971 29.762C56.2478 29.6033 56.1731 29.3933 56.1731 29.132V19.64H56.9711V29.3H58.0771V30H57.0551ZM64.7925 30C64.4845 30 64.2605 29.9207 64.1205 29.762C63.9805 29.6033 63.9012 29.3887 63.8825 29.118V28.866H63.8125C63.6538 29.2673 63.3925 29.5847 63.0285 29.818C62.6645 30.0513 62.2025 30.168 61.6425 30.168C60.8865 30.168 60.3032 29.986 59.8925 29.622C59.4818 29.2487 59.2765 28.726 59.2765 28.054C59.2765 27.4193 59.5005 26.9153 59.9485 26.542C60.4058 26.1687 61.1525 25.982 62.1885 25.982H63.8405V25.142C63.8405 23.9567 63.2292 23.364 62.0065 23.364C61.5305 23.364 61.1338 23.4667 60.8165 23.672C60.4992 23.868 60.2425 24.1527 60.0465 24.526L59.5425 24.106C59.7385 23.686 60.0372 23.3407 60.4385 23.07C60.8492 22.7993 61.3812 22.664 62.0345 22.664C62.8745 22.664 63.5185 22.874 63.9665 23.294C64.4145 23.714 64.6385 24.302 64.6385 25.058V29.3H65.6045V30H64.7925ZM61.7545 29.482C62.0438 29.482 62.3145 29.4447 62.5665 29.37C62.8185 29.2953 63.0378 29.1927 63.2245 29.062C63.4205 28.922 63.5698 28.7587 63.6725 28.572C63.7845 28.376 63.8405 28.1567 63.8405 27.914V26.584H62.1605C61.4418 26.584 60.9192 26.7007 60.5925 26.934C60.2752 27.158 60.1165 27.4707 60.1165 27.872V28.208C60.1165 28.628 60.2658 28.9453 60.5645 29.16C60.8632 29.3747 61.2598 29.482 61.7545 29.482ZM67.2473 19.64H68.0453V23.98H68.0873C68.2646 23.5787 68.5353 23.2613 68.8993 23.028C69.2633 22.7853 69.7206 22.664 70.2713 22.664C71.1953 22.664 71.9186 22.9907 72.4413 23.644C72.964 24.2973 73.2253 25.2213 73.2253 26.416C73.2253 27.6107 72.964 28.5347 72.4413 29.188C71.9186 29.8413 71.1953 30.168 70.2713 30.168C69.7206 30.168 69.268 30.0513 68.9133 29.818C68.5586 29.5753 68.2833 29.2533 68.0873 28.852H68.0453V30H67.2473V19.64ZM70.0893 29.454C70.808 29.454 71.368 29.2253 71.7693 28.768C72.1706 28.3107 72.3713 27.6947 72.3713 26.92V25.912C72.3713 25.1373 72.1706 24.5213 71.7693 24.064C71.368 23.6067 70.808 23.378 70.0893 23.378C69.8093 23.378 69.5433 23.42 69.2913 23.504C69.0486 23.5787 68.834 23.686 68.6473 23.826C68.4606 23.966 68.3113 24.134 68.1993 24.33C68.0966 24.526 68.0453 24.7407 68.0453 24.974V27.816C68.0453 28.068 68.0966 28.2967 68.1993 28.502C68.3113 28.698 68.4606 28.8707 68.6473 29.02C68.834 29.16 69.0486 29.2673 69.2913 29.342C69.5433 29.4167 69.8093 29.454 70.0893 29.454ZM77.8484 30.168C77.3724 30.168 76.9384 30.084 76.5464 29.916C76.1637 29.748 75.8324 29.5053 75.5524 29.188C75.2817 28.8613 75.0717 28.4647 74.9224 27.998C74.7824 27.5313 74.7124 27.004 74.7124 26.416C74.7124 25.828 74.7824 25.3053 74.9224 24.848C75.0717 24.3813 75.2817 23.9893 75.5524 23.672C75.8324 23.3453 76.1637 23.098 76.5464 22.93C76.929 22.7527 77.3584 22.664 77.8344 22.664C78.2917 22.664 78.707 22.7527 79.0804 22.93C79.4537 23.098 79.771 23.336 80.0324 23.644C80.2937 23.952 80.4944 24.3253 80.6344 24.764C80.7837 25.1933 80.8584 25.6693 80.8584 26.192V26.57H75.5524V26.92C75.5524 27.2933 75.6037 27.6387 75.7064 27.956C75.8184 28.264 75.9724 28.53 76.1684 28.754C76.3737 28.978 76.621 29.1553 76.9104 29.286C77.1997 29.4073 77.5264 29.468 77.8904 29.468C78.9357 29.468 79.659 28.9873 80.0604 28.026L80.6484 28.418C80.4244 28.95 80.0697 29.3747 79.5844 29.692C79.1084 30.0093 78.5297 30.168 77.8484 30.168ZM77.8344 23.336C77.489 23.336 77.1764 23.4013 76.8964 23.532C76.6164 23.6533 76.3737 23.826 76.1684 24.05C75.9724 24.274 75.8184 24.5447 75.7064 24.862C75.6037 25.17 75.5524 25.5107 75.5524 25.884V25.954H79.9904V25.842C79.9904 25.4687 79.939 25.128 79.8364 24.82C79.7337 24.5027 79.5844 24.2367 79.3884 24.022C79.2017 23.8073 78.973 23.6393 78.7024 23.518C78.441 23.3967 78.1517 23.336 77.8344 23.336ZM83.7699 30C83.4806 30 83.2613 29.9207 83.1119 29.762C82.9626 29.6033 82.8879 29.3933 82.8879 29.132V19.64H83.6859V29.3H84.7919V30H83.7699ZM88.6093 30.168C87.984 30.168 87.4473 30.0513 86.9993 29.818C86.5607 29.5847 86.178 29.244 85.8513 28.796L86.4393 28.334C86.738 28.726 87.0647 29.0153 87.4193 29.202C87.774 29.3887 88.1893 29.482 88.6653 29.482C89.216 29.482 89.6407 29.3653 89.9393 29.132C90.238 28.8987 90.3873 28.5627 90.3873 28.124C90.3873 27.7413 90.2707 27.4427 90.0373 27.228C89.8133 27.004 89.44 26.8547 88.9173 26.78L88.3293 26.682C88.0027 26.6353 87.704 26.5653 87.4333 26.472C87.1627 26.3787 86.9293 26.2527 86.7333 26.094C86.5467 25.9353 86.3973 25.744 86.2853 25.52C86.1827 25.2867 86.1313 25.0067 86.1313 24.68C86.1313 24.344 86.192 24.05 86.3133 23.798C86.444 23.546 86.6167 23.336 86.8313 23.168C87.046 23 87.3027 22.874 87.6013 22.79C87.9 22.706 88.222 22.664 88.5673 22.664C89.1647 22.664 89.6547 22.7667 90.0373 22.972C90.42 23.1773 90.7467 23.4433 91.0173 23.77L90.4853 24.26C90.2987 24.036 90.0467 23.8307 89.7293 23.644C89.4213 23.448 89.02 23.35 88.5253 23.35C88.012 23.35 87.6107 23.462 87.3213 23.686C87.0413 23.91 86.9013 24.2273 86.9013 24.638C86.9013 25.058 87.0273 25.3613 87.2793 25.548C87.5407 25.7347 87.928 25.87 88.4413 25.954L89.0153 26.038C89.7433 26.15 90.28 26.3693 90.6253 26.696C90.98 27.0133 91.1573 27.4613 91.1573 28.04C91.1573 28.712 90.9287 29.2347 90.4713 29.608C90.0233 29.9813 89.4027 30.168 88.6093 30.168ZM99.1078 30.168C98.6318 30.168 98.2025 30.084 97.8198 29.916C97.4371 29.748 97.1105 29.5053 96.8398 29.188C96.5691 28.8613 96.3591 28.4647 96.2098 27.998C96.0605 27.5313 95.9858 27.004 95.9858 26.416C95.9858 25.828 96.0605 25.3053 96.2098 24.848C96.3591 24.3813 96.5691 23.9893 96.8398 23.672C97.1105 23.3453 97.4371 23.098 97.8198 22.93C98.2025 22.7527 98.6318 22.664 99.1078 22.664C99.5838 22.664 100.013 22.7527 100.396 22.93C100.778 23.098 101.105 23.3453 101.376 23.672C101.646 23.9893 101.856 24.3813 102.006 24.848C102.155 25.3053 102.23 25.828 102.23 26.416C102.23 27.004 102.155 27.5313 102.006 27.998C101.856 28.4647 101.646 28.8613 101.376 29.188C101.105 29.5053 100.778 29.748 100.396 29.916C100.013 30.084 99.5838 30.168 99.1078 30.168ZM99.1078 29.454C99.8078 29.454 100.358 29.2347 100.76 28.796C101.17 28.3573 101.376 27.7133 101.376 26.864V25.968C101.376 25.128 101.17 24.4887 100.76 24.05C100.358 23.602 99.8078 23.378 99.1078 23.378C98.4078 23.378 97.8525 23.5973 97.4418 24.036C97.0405 24.4747 96.8398 25.1187 96.8398 25.968V26.864C96.8398 27.704 97.0405 28.348 97.4418 28.796C97.8525 29.2347 98.4078 29.454 99.1078 29.454ZM104.257 30V22.832H105.055V23.966H105.097C105.256 23.5927 105.503 23.2847 105.839 23.042C106.175 22.79 106.632 22.664 107.211 22.664C107.976 22.664 108.569 22.902 108.989 23.378C109.418 23.8447 109.633 24.5167 109.633 25.394V30H108.835V25.534C108.835 24.806 108.676 24.2647 108.359 23.91C108.051 23.5553 107.598 23.378 107.001 23.378C106.749 23.378 106.506 23.4107 106.273 23.476C106.04 23.5413 105.83 23.6393 105.643 23.77C105.466 23.9007 105.321 24.0687 105.209 24.274C105.106 24.47 105.055 24.6987 105.055 24.96V30H104.257ZM115.454 22.832H116.252V23.98H116.294C116.472 23.5787 116.742 23.2613 117.106 23.028C117.47 22.7853 117.928 22.664 118.478 22.664C119.402 22.664 120.126 22.9907 120.648 23.644C121.171 24.2973 121.432 25.2213 121.432 26.416C121.432 27.6107 121.171 28.5347 120.648 29.188C120.126 29.8413 119.402 30.168 118.478 30.168C117.928 30.168 117.475 30.0513 117.12 29.818C116.766 29.5753 116.49 29.2533 116.294 28.852H116.252V32.8H115.454V22.832ZM118.296 29.454C119.015 29.454 119.575 29.2253 119.976 28.768C120.378 28.3107 120.578 27.6947 120.578 26.92V25.912C120.578 25.1373 120.378 24.5213 119.976 24.064C119.575 23.6067 119.015 23.378 118.296 23.378C118.016 23.378 117.75 23.42 117.498 23.504C117.256 23.5787 117.041 23.686 116.854 23.826C116.668 23.966 116.518 24.134 116.406 24.33C116.304 24.526 116.252 24.7407 116.252 24.974V27.816C116.252 28.068 116.304 28.2967 116.406 28.502C116.518 28.698 116.668 28.8707 116.854 29.02C117.041 29.16 117.256 29.2673 117.498 29.342C117.75 29.4167 118.016 29.454 118.296 29.454ZM128.421 30C128.113 30 127.889 29.9207 127.749 29.762C127.609 29.6033 127.53 29.3887 127.511 29.118V28.866H127.441C127.283 29.2673 127.021 29.5847 126.657 29.818C126.293 30.0513 125.831 30.168 125.271 30.168C124.515 30.168 123.932 29.986 123.521 29.622C123.111 29.2487 122.905 28.726 122.905 28.054C122.905 27.4193 123.129 26.9153 123.577 26.542C124.035 26.1687 124.781 25.982 125.817 25.982H127.469V25.142C127.469 23.9567 126.858 23.364 125.635 23.364C125.159 23.364 124.763 23.4667 124.445 23.672C124.128 23.868 123.871 24.1527 123.675 24.526L123.171 24.106C123.367 23.686 123.666 23.3407 124.067 23.07C124.478 22.7993 125.01 22.664 125.663 22.664C126.503 22.664 127.147 22.874 127.595 23.294C128.043 23.714 128.267 24.302 128.267 25.058V29.3H129.233V30H128.421ZM125.383 29.482C125.673 29.482 125.943 29.4447 126.195 29.37C126.447 29.2953 126.667 29.1927 126.853 29.062C127.049 28.922 127.199 28.7587 127.301 28.572C127.413 28.376 127.469 28.1567 127.469 27.914V26.584H125.789C125.071 26.584 124.548 26.7007 124.221 26.934C123.904 27.158 123.745 27.4707 123.745 27.872V28.208C123.745 28.628 123.895 28.9453 124.193 29.16C124.492 29.3747 124.889 29.482 125.383 29.482ZM133.396 30.168C132.407 30.168 131.642 29.8413 131.1 29.188C130.568 28.5347 130.302 27.6107 130.302 26.416C130.302 25.2213 130.568 24.2973 131.1 23.644C131.642 22.9907 132.407 22.664 133.396 22.664C134.059 22.664 134.596 22.8087 135.006 23.098C135.417 23.3873 135.73 23.77 135.944 24.246L135.272 24.582C135.104 24.19 134.866 23.8913 134.558 23.686C134.26 23.4807 133.872 23.378 133.396 23.378C132.668 23.378 132.113 23.6113 131.73 24.078C131.348 24.5447 131.156 25.156 131.156 25.912V26.92C131.156 27.676 131.348 28.2873 131.73 28.754C132.113 29.2207 132.668 29.454 133.396 29.454C133.891 29.454 134.306 29.3467 134.642 29.132C134.978 28.9173 135.249 28.6093 135.454 28.208L136.042 28.6C135.809 29.076 135.473 29.4587 135.034 29.748C134.605 30.028 134.059 30.168 133.396 30.168ZM137.822 19.64H138.62V26.486H138.662L139.782 25.296L142.162 22.832H143.142L140.328 25.744L143.45 30H142.47L139.754 26.248L138.62 27.396V30H137.822V19.64ZM149.832 30C149.524 30 149.3 29.9207 149.16 29.762C149.02 29.6033 148.94 29.3887 148.922 29.118V28.866H148.852C148.693 29.2673 148.432 29.5847 148.068 29.818C147.704 30.0513 147.242 30.168 146.682 30.168C145.926 30.168 145.342 29.986 144.932 29.622C144.521 29.2487 144.316 28.726 144.316 28.054C144.316 27.4193 144.54 26.9153 144.988 26.542C145.445 26.1687 146.192 25.982 147.228 25.982H148.88V25.142C148.88 23.9567 148.268 23.364 147.046 23.364C146.57 23.364 146.173 23.4667 145.856 23.672C145.538 23.868 145.282 24.1527 145.086 24.526L144.582 24.106C144.778 23.686 145.076 23.3407 145.478 23.07C145.888 22.7993 146.42 22.664 147.074 22.664C147.914 22.664 148.558 22.874 149.006 23.294C149.454 23.714 149.678 24.302 149.678 25.058V29.3H150.644V30H149.832ZM146.794 29.482C147.083 29.482 147.354 29.4447 147.606 29.37C147.858 29.2953 148.077 29.1927 148.264 29.062C148.46 28.922 148.609 28.7587 148.712 28.572C148.824 28.376 148.88 28.1567 148.88 27.914V26.584H147.2C146.481 26.584 145.958 26.7007 145.632 26.934C145.314 27.158 145.156 27.4707 145.156 27.872V28.208C145.156 28.628 145.305 28.9453 145.604 29.16C145.902 29.3747 146.299 29.482 146.794 29.482ZM158.166 30.84C158.166 31.568 157.872 32.1047 157.284 32.45C156.706 32.7953 155.852 32.968 154.722 32.968C153.63 32.968 152.842 32.8093 152.356 32.492C151.871 32.1747 151.628 31.736 151.628 31.176C151.628 30.7653 151.736 30.4387 151.95 30.196C152.165 29.9533 152.468 29.776 152.86 29.664V29.552C152.412 29.3747 152.188 29.048 152.188 28.572C152.188 28.2173 152.305 27.9467 152.538 27.76C152.772 27.5733 153.061 27.4333 153.406 27.34V27.284C152.986 27.0973 152.66 26.8173 152.426 26.444C152.193 26.0707 152.076 25.6227 152.076 25.1C152.076 24.736 152.137 24.4047 152.258 24.106C152.38 23.8073 152.552 23.5507 152.776 23.336C153.01 23.1213 153.285 22.958 153.602 22.846C153.929 22.7247 154.288 22.664 154.68 22.664C155.231 22.664 155.712 22.7807 156.122 23.014V22.664C156.122 22.4493 156.174 22.2767 156.276 22.146C156.379 22.006 156.547 21.936 156.78 21.936H158.012V22.636H156.556V23.322C156.799 23.5367 156.986 23.798 157.116 24.106C157.247 24.4047 157.312 24.736 157.312 25.1C157.312 25.464 157.247 25.7953 157.116 26.094C156.995 26.3927 156.818 26.654 156.584 26.878C156.36 27.0927 156.085 27.2607 155.758 27.382C155.441 27.494 155.086 27.55 154.694 27.55C154.564 27.55 154.438 27.5407 154.316 27.522C154.195 27.5033 154.074 27.4847 153.952 27.466C153.644 27.55 153.388 27.6667 153.182 27.816C152.986 27.956 152.888 28.1473 152.888 28.39C152.888 28.8193 153.271 29.034 154.036 29.034H155.702C156.57 29.034 157.196 29.1973 157.578 29.524C157.97 29.8413 158.166 30.28 158.166 30.84ZM157.396 30.896C157.396 30.5507 157.27 30.2753 157.018 30.07C156.776 29.874 156.337 29.776 155.702 29.776H153.378C153.07 29.8787 152.828 30.0327 152.65 30.238C152.473 30.4433 152.384 30.7 152.384 31.008C152.384 31.3813 152.538 31.6893 152.846 31.932C153.154 32.184 153.621 32.31 154.246 32.31H155.142C155.842 32.31 156.393 32.1933 156.794 31.96C157.196 31.736 157.396 31.3813 157.396 30.896ZM154.694 26.906C155.245 26.906 155.674 26.7707 155.982 26.5C156.3 26.22 156.458 25.828 156.458 25.324V24.876C156.458 24.3813 156.3 23.9987 155.982 23.728C155.674 23.448 155.245 23.308 154.694 23.308C154.134 23.308 153.7 23.448 153.392 23.728C153.084 23.9987 152.93 24.3813 152.93 24.876V25.324C152.93 25.828 153.084 26.22 153.392 26.5C153.71 26.7707 154.144 26.906 154.694 26.906ZM160.089 20.886C159.902 20.886 159.762 20.8393 159.669 20.746C159.585 20.6527 159.543 20.5313 159.543 20.382V20.242C159.543 20.0927 159.585 19.9713 159.669 19.878C159.762 19.7847 159.902 19.738 160.089 19.738C160.275 19.738 160.411 19.7847 160.495 19.878C160.588 19.9713 160.635 20.0927 160.635 20.242V20.382C160.635 20.5313 160.588 20.6527 160.495 20.746C160.411 20.8393 160.275 20.886 160.089 20.886ZM159.697 22.832H160.495V30H159.697V22.832ZM163.101 30V22.832H163.899V23.966H163.941C164.099 23.5927 164.347 23.2847 164.683 23.042C165.019 22.79 165.476 22.664 166.055 22.664C166.82 22.664 167.413 22.902 167.833 23.378C168.262 23.8447 168.477 24.5167 168.477 25.394V30H167.679V25.534C167.679 24.806 167.52 24.2647 167.203 23.91C166.895 23.5553 166.442 23.378 165.845 23.378C165.593 23.378 165.35 23.4107 165.117 23.476C164.883 23.5413 164.673 23.6393 164.487 23.77C164.309 23.9007 164.165 24.0687 164.053 24.274C163.95 24.47 163.899 24.6987 163.899 24.96V30H163.101ZM176.87 30.84C176.87 31.568 176.576 32.1047 175.988 32.45C175.409 32.7953 174.555 32.968 173.426 32.968C172.334 32.968 171.545 32.8093 171.06 32.492C170.574 32.1747 170.332 31.736 170.332 31.176C170.332 30.7653 170.439 30.4387 170.654 30.196C170.868 29.9533 171.172 29.776 171.564 29.664V29.552C171.116 29.3747 170.892 29.048 170.892 28.572C170.892 28.2173 171.008 27.9467 171.242 27.76C171.475 27.5733 171.764 27.4333 172.11 27.34V27.284C171.69 27.0973 171.363 26.8173 171.13 26.444C170.896 26.0707 170.78 25.6227 170.78 25.1C170.78 24.736 170.84 24.4047 170.962 24.106C171.083 23.8073 171.256 23.5507 171.48 23.336C171.713 23.1213 171.988 22.958 172.306 22.846C172.632 22.7247 172.992 22.664 173.383 22.664C173.934 22.664 174.415 22.7807 174.826 23.014V22.664C174.826 22.4493 174.877 22.2767 174.98 22.146C175.082 22.006 175.25 21.936 175.484 21.936H176.716V22.636H175.26V23.322C175.502 23.5367 175.689 23.798 175.82 24.106C175.95 24.4047 176.016 24.736 176.016 25.1C176.016 25.464 175.95 25.7953 175.82 26.094C175.698 26.3927 175.521 26.654 175.288 26.878C175.064 27.0927 174.788 27.2607 174.462 27.382C174.144 27.494 173.79 27.55 173.398 27.55C173.267 27.55 173.141 27.5407 173.02 27.522C172.898 27.5033 172.777 27.4847 172.656 27.466C172.348 27.55 172.091 27.6667 171.886 27.816C171.69 27.956 171.592 28.1473 171.592 28.39C171.592 28.8193 171.974 29.034 172.74 29.034H174.406C175.274 29.034 175.899 29.1973 176.282 29.524C176.674 29.8413 176.87 30.28 176.87 30.84ZM176.1 30.896C176.1 30.5507 175.974 30.2753 175.722 30.07C175.479 29.874 175.04 29.776 174.406 29.776H172.082C171.774 29.8787 171.531 30.0327 171.354 30.238C171.176 30.4433 171.088 30.7 171.088 31.008C171.088 31.3813 171.242 31.6893 171.55 31.932C171.858 32.184 172.324 32.31 172.95 32.31H173.846C174.546 32.31 175.096 32.1933 175.498 31.96C175.899 31.736 176.1 31.3813 176.1 30.896ZM173.398 26.906C173.948 26.906 174.378 26.7707 174.686 26.5C175.003 26.22 175.162 25.828 175.162 25.324V24.876C175.162 24.3813 175.003 23.9987 174.686 23.728C174.378 23.448 173.948 23.308 173.398 23.308C172.838 23.308 172.404 23.448 172.096 23.728C171.788 23.9987 171.634 24.3813 171.634 24.876V25.324C171.634 25.828 171.788 26.22 172.096 26.5C172.413 26.7707 172.847 26.906 173.398 26.906ZM186.636 30C186.328 30 186.104 29.9207 185.964 29.762C185.824 29.6033 185.745 29.3887 185.726 29.118V28.866H185.656C185.498 29.2673 185.236 29.5847 184.872 29.818C184.508 30.0513 184.046 30.168 183.486 30.168C182.73 30.168 182.147 29.986 181.736 29.622C181.326 29.2487 181.12 28.726 181.12 28.054C181.12 27.4193 181.344 26.9153 181.792 26.542C182.25 26.1687 182.996 25.982 184.032 25.982H185.684V25.142C185.684 23.9567 185.073 23.364 183.85 23.364C183.374 23.364 182.978 23.4667 182.66 23.672C182.343 23.868 182.086 24.1527 181.89 24.526L181.386 24.106C181.582 23.686 181.881 23.3407 182.282 23.07C182.693 22.7993 183.225 22.664 183.878 22.664C184.718 22.664 185.362 22.874 185.81 23.294C186.258 23.714 186.482 24.302 186.482 25.058V29.3H187.448V30H186.636ZM183.598 29.482C183.888 29.482 184.158 29.4447 184.41 29.37C184.662 29.2953 184.882 29.1927 185.068 29.062C185.264 28.922 185.414 28.7587 185.516 28.572C185.628 28.376 185.684 28.1567 185.684 27.914V26.584H184.004C183.286 26.584 182.763 26.7007 182.436 26.934C182.119 27.158 181.96 27.4707 181.96 27.872V28.208C181.96 28.628 182.11 28.9453 182.408 29.16C182.707 29.3747 183.104 29.482 183.598 29.482ZM189.091 30V22.832H189.889V23.966H189.931C190.09 23.5927 190.337 23.2847 190.673 23.042C191.009 22.79 191.466 22.664 192.045 22.664C192.81 22.664 193.403 22.902 193.823 23.378C194.252 23.8447 194.467 24.5167 194.467 25.394V30H193.669V25.534C193.669 24.806 193.51 24.2647 193.193 23.91C192.885 23.5553 192.432 23.378 191.835 23.378C191.583 23.378 191.34 23.4107 191.107 23.476C190.874 23.5413 190.664 23.6393 190.477 23.77C190.3 23.9007 190.155 24.0687 190.043 24.274C189.94 24.47 189.889 24.6987 189.889 24.96V30H189.091ZM201.614 28.852H201.572C201.385 29.2533 201.11 29.5753 200.746 29.818C200.391 30.0513 199.938 30.168 199.388 30.168C198.464 30.168 197.74 29.8413 197.218 29.188C196.695 28.5347 196.434 27.6107 196.434 26.416C196.434 25.2213 196.695 24.2973 197.218 23.644C197.74 22.9907 198.464 22.664 199.388 22.664C199.938 22.664 200.396 22.7853 200.76 23.028C201.124 23.2613 201.394 23.5787 201.572 23.98H201.614V19.64H202.412V30H201.614V28.852ZM199.57 29.454C199.85 29.454 200.111 29.4167 200.354 29.342C200.606 29.2673 200.825 29.16 201.012 29.02C201.198 28.8707 201.343 28.698 201.446 28.502C201.558 28.2967 201.614 28.068 201.614 27.816V24.974C201.614 24.7407 201.558 24.526 201.446 24.33C201.343 24.134 201.198 23.966 201.012 23.826C200.825 23.686 200.606 23.5787 200.354 23.504C200.111 23.42 199.85 23.378 199.57 23.378C198.851 23.378 198.291 23.6067 197.89 24.064C197.488 24.5213 197.288 25.1373 197.288 25.912V26.92C197.288 27.6947 197.488 28.3107 197.89 28.768C198.291 29.2253 198.851 29.454 199.57 29.454ZM207.487 22.832H208.271L209.993 29.286H210.021L211.925 22.832H212.667L214.585 29.286H214.613L216.321 22.832H217.091L215.075 30H214.095L212.289 23.966H212.261L210.469 30H209.503L207.487 22.832ZM218.855 30V22.832H219.653V24.12H219.709C219.849 23.784 220.087 23.4853 220.423 23.224C220.759 22.9627 221.235 22.832 221.851 22.832H222.327V23.616H221.697C221.099 23.616 220.609 23.7467 220.227 24.008C219.844 24.2693 219.653 24.6333 219.653 25.1V30H218.855ZM224.251 20.886C224.064 20.886 223.924 20.8393 223.831 20.746C223.747 20.6527 223.705 20.5313 223.705 20.382V20.242C223.705 20.0927 223.747 19.9713 223.831 19.878C223.924 19.7847 224.064 19.738 224.251 19.738C224.437 19.738 224.573 19.7847 224.657 19.878C224.75 19.9713 224.797 20.0927 224.797 20.242V20.382C224.797 20.5313 224.75 20.6527 224.657 20.746C224.573 20.8393 224.437 20.886 224.251 20.886ZM223.859 22.832H224.657V30H223.859V22.832ZM228.495 30C228.206 30 227.986 29.9207 227.837 29.762C227.688 29.6033 227.613 29.3887 227.613 29.118V23.532H226.367V22.832H227.179C227.375 22.832 227.506 22.7947 227.571 22.72C227.646 22.636 227.683 22.4913 227.683 22.286V20.83H228.411V22.832H230.035V23.532H228.411V29.3H229.923V30H228.495ZM234.46 30.168C233.984 30.168 233.55 30.084 233.158 29.916C232.775 29.748 232.444 29.5053 232.164 29.188C231.893 28.8613 231.683 28.4647 231.534 27.998C231.394 27.5313 231.324 27.004 231.324 26.416C231.324 25.828 231.394 25.3053 231.534 24.848C231.683 24.3813 231.893 23.9893 232.164 23.672C232.444 23.3453 232.775 23.098 233.158 22.93C233.54 22.7527 233.97 22.664 234.446 22.664C234.903 22.664 235.318 22.7527 235.692 22.93C236.065 23.098 236.382 23.336 236.644 23.644C236.905 23.952 237.106 24.3253 237.246 24.764C237.395 25.1933 237.47 25.6693 237.47 26.192V26.57H232.164V26.92C232.164 27.2933 232.215 27.6387 232.318 27.956C232.43 28.264 232.584 28.53 232.78 28.754C232.985 28.978 233.232 29.1553 233.522 29.286C233.811 29.4073 234.138 29.468 234.502 29.468C235.547 29.468 236.27 28.9873 236.672 28.026L237.26 28.418C237.036 28.95 236.681 29.3747 236.196 29.692C235.72 30.0093 235.141 30.168 234.46 30.168ZM234.446 23.336C234.1 23.336 233.788 23.4013 233.508 23.532C233.228 23.6533 232.985 23.826 232.78 24.05C232.584 24.274 232.43 24.5447 232.318 24.862C232.215 25.17 232.164 25.5107 232.164 25.884V25.954H236.602V25.842C236.602 25.4687 236.55 25.128 236.448 24.82C236.345 24.5027 236.196 24.2367 236 24.022C235.813 23.8073 235.584 23.6393 235.314 23.518C235.052 23.3967 234.763 23.336 234.446 23.336ZM247.442 28.852H247.4C247.213 29.2533 246.938 29.5753 246.574 29.818C246.219 30.0513 245.767 30.168 245.216 30.168C244.292 30.168 243.569 29.8413 243.046 29.188C242.523 28.5347 242.262 27.6107 242.262 26.416C242.262 25.2213 242.523 24.2973 243.046 23.644C243.569 22.9907 244.292 22.664 245.216 22.664C245.767 22.664 246.224 22.7853 246.588 23.028C246.952 23.2613 247.223 23.5787 247.4 23.98H247.442V19.64H248.24V30H247.442V28.852ZM245.398 29.454C245.678 29.454 245.939 29.4167 246.182 29.342C246.434 29.2673 246.653 29.16 246.84 29.02C247.027 28.8707 247.171 28.698 247.274 28.502C247.386 28.2967 247.442 28.068 247.442 27.816V24.974C247.442 24.7407 247.386 24.526 247.274 24.33C247.171 24.134 247.027 23.966 246.84 23.826C246.653 23.686 246.434 23.5787 246.182 23.504C245.939 23.42 245.678 23.378 245.398 23.378C244.679 23.378 244.119 23.6067 243.718 24.064C243.317 24.5213 243.116 25.1373 243.116 25.912V26.92C243.116 27.6947 243.317 28.3107 243.718 28.768C244.119 29.2253 244.679 29.454 245.398 29.454ZM255.775 30C255.467 30 255.243 29.9207 255.103 29.762C254.963 29.6033 254.884 29.3887 254.865 29.118V28.866H254.795C254.636 29.2673 254.375 29.5847 254.011 29.818C253.647 30.0513 253.185 30.168 252.625 30.168C251.869 30.168 251.286 29.986 250.875 29.622C250.464 29.2487 250.259 28.726 250.259 28.054C250.259 27.4193 250.483 26.9153 250.931 26.542C251.388 26.1687 252.135 25.982 253.171 25.982H254.823V25.142C254.823 23.9567 254.212 23.364 252.989 23.364C252.513 23.364 252.116 23.4667 251.799 23.672C251.482 23.868 251.225 24.1527 251.029 24.526L250.525 24.106C250.721 23.686 251.02 23.3407 251.421 23.07C251.832 22.7993 252.364 22.664 253.017 22.664C253.857 22.664 254.501 22.874 254.949 23.294C255.397 23.714 255.621 24.302 255.621 25.058V29.3H256.587V30H255.775ZM252.737 29.482C253.026 29.482 253.297 29.4447 253.549 29.37C253.801 29.2953 254.02 29.1927 254.207 29.062C254.403 28.922 254.552 28.7587 254.655 28.572C254.767 28.376 254.823 28.1567 254.823 27.914V26.584H253.143C252.424 26.584 251.902 26.7007 251.575 26.934C251.258 27.158 251.099 27.4707 251.099 27.872V28.208C251.099 28.628 251.248 28.9453 251.547 29.16C251.846 29.3747 252.242 29.482 252.737 29.482ZM259.489 30C259.2 30 258.98 29.9207 258.831 29.762C258.682 29.6033 258.607 29.3887 258.607 29.118V23.532H257.361V22.832H258.173C258.369 22.832 258.5 22.7947 258.565 22.72C258.64 22.636 258.677 22.4913 258.677 22.286V20.83H259.405V22.832H261.029V23.532H259.405V29.3H260.917V30H259.489ZM265.454 30.168C264.978 30.168 264.544 30.084 264.152 29.916C263.769 29.748 263.438 29.5053 263.158 29.188C262.887 28.8613 262.677 28.4647 262.528 27.998C262.388 27.5313 262.318 27.004 262.318 26.416C262.318 25.828 262.388 25.3053 262.528 24.848C262.677 24.3813 262.887 23.9893 263.158 23.672C263.438 23.3453 263.769 23.098 264.152 22.93C264.535 22.7527 264.964 22.664 265.44 22.664C265.897 22.664 266.313 22.7527 266.686 22.93C267.059 23.098 267.377 23.336 267.638 23.644C267.899 23.952 268.1 24.3253 268.24 24.764C268.389 25.1933 268.464 25.6693 268.464 26.192V26.57H263.158V26.92C263.158 27.2933 263.209 27.6387 263.312 27.956C263.424 28.264 263.578 28.53 263.774 28.754C263.979 28.978 264.227 29.1553 264.516 29.286C264.805 29.4073 265.132 29.468 265.496 29.468C266.541 29.468 267.265 28.9873 267.666 28.026L268.254 28.418C268.03 28.95 267.675 29.3747 267.19 29.692C266.714 30.0093 266.135 30.168 265.454 30.168ZM265.44 23.336C265.095 23.336 264.782 23.4013 264.502 23.532C264.222 23.6533 263.979 23.826 263.774 24.05C263.578 24.274 263.424 24.5447 263.312 24.862C263.209 25.17 263.158 25.5107 263.158 25.884V25.954H267.596V25.842C267.596 25.4687 267.545 25.128 267.442 24.82C267.339 24.5027 267.19 24.2367 266.994 24.022C266.807 23.8073 266.579 23.6393 266.308 23.518C266.047 23.3967 265.757 23.336 265.44 23.336ZM18.302 44.832H19.1V45.98H19.142C19.3193 45.5787 19.59 45.2613 19.954 45.028C20.318 44.7853 20.7753 44.664 21.326 44.664C22.25 44.664 22.9733 44.9907 23.496 45.644C24.0187 46.2973 24.28 47.2213 24.28 48.416C24.28 49.6107 24.0187 50.5347 23.496 51.188C22.9733 51.8413 22.25 52.168 21.326 52.168C20.7753 52.168 20.3227 52.0513 19.968 51.818C19.6133 51.5753 19.338 51.2533 19.142 50.852H19.1V54.8H18.302V44.832ZM21.144 51.454C21.8627 51.454 22.4227 51.2253 22.824 50.768C23.2253 50.3107 23.426 49.6947 23.426 48.92V47.912C23.426 47.1373 23.2253 46.5213 22.824 46.064C22.4227 45.6067 21.8627 45.378 21.144 45.378C20.864 45.378 20.598 45.42 20.346 45.504C20.1033 45.5787 19.8887 45.686 19.702 45.826C19.5153 45.966 19.366 46.134 19.254 46.33C19.1513 46.526 19.1 46.7407 19.1 46.974V49.816C19.1 50.068 19.1513 50.2967 19.254 50.502C19.366 50.698 19.5153 50.8707 19.702 51.02C19.8887 51.16 20.1033 51.2673 20.346 51.342C20.598 51.4167 20.864 51.454 21.144 51.454ZM30.8211 50.866H30.7651C30.6997 51.034 30.6111 51.1973 30.4991 51.356C30.3871 51.5147 30.2471 51.6547 30.0791 51.776C29.9111 51.888 29.7104 51.9813 29.4771 52.056C29.2531 52.1307 28.9871 52.168 28.6791 52.168C27.9137 52.168 27.3164 51.9347 26.8871 51.468C26.4577 50.992 26.2431 50.3153 26.2431 49.438V44.832H27.0411V49.284C27.0411 50.0213 27.1997 50.5673 27.5171 50.922C27.8344 51.2767 28.2917 51.454 28.8891 51.454C29.1411 51.454 29.3791 51.4213 29.6031 51.356C29.8364 51.2907 30.0417 51.1927 30.2191 51.062C30.4057 50.9313 30.5504 50.768 30.6531 50.572C30.7651 50.3667 30.8211 50.1287 30.8211 49.858V44.832H31.6191V52H30.8211V50.866ZM34.2297 52V44.832H35.0277V46.12H35.0837C35.2237 45.784 35.4617 45.4853 35.7977 45.224C36.1337 44.9627 36.6097 44.832 37.2257 44.832H37.7017V45.616H37.0717C36.4744 45.616 35.9844 45.7467 35.6017 46.008C35.2191 46.2693 35.0277 46.6333 35.0277 47.1V52H34.2297ZM41.7126 52.168C40.7233 52.168 39.958 51.8413 39.4166 51.188C38.8846 50.5347 38.6186 49.6107 38.6186 48.416C38.6186 47.2213 38.8846 46.2973 39.4166 45.644C39.958 44.9907 40.7233 44.664 41.7126 44.664C42.3753 44.664 42.912 44.8087 43.3226 45.098C43.7333 45.3873 44.046 45.77 44.2606 46.246L43.5886 46.582C43.4206 46.19 43.1826 45.8913 42.8746 45.686C42.576 45.4807 42.1886 45.378 41.7126 45.378C40.9846 45.378 40.4293 45.6113 40.0466 46.078C39.664 46.5447 39.4726 47.156 39.4726 47.912V48.92C39.4726 49.676 39.664 50.2873 40.0466 50.754C40.4293 51.2207 40.9846 51.454 41.7126 51.454C42.2073 51.454 42.6226 51.3467 42.9586 51.132C43.2946 50.9173 43.5653 50.6093 43.7706 50.208L44.3586 50.6C44.1253 51.076 43.7893 51.4587 43.3506 51.748C42.9213 52.028 42.3753 52.168 41.7126 52.168ZM46.1379 41.64H46.9359V45.966H46.9779C47.1366 45.5927 47.3839 45.2847 47.7199 45.042C48.0559 44.79 48.5133 44.664 49.0919 44.664C49.8573 44.664 50.4499 44.902 50.8699 45.378C51.2993 45.8447 51.5139 46.5167 51.5139 47.394V52H50.7159V47.534C50.7159 46.806 50.5573 46.2647 50.2399 45.91C49.9319 45.5553 49.4793 45.378 48.8819 45.378C48.6299 45.378 48.3873 45.4107 48.1539 45.476C47.9206 45.5413 47.7106 45.6393 47.5239 45.77C47.3466 45.9007 47.2019 46.0687 47.0899 46.274C46.9873 46.47 46.9359 46.6987 46.9359 46.96V52H46.1379V41.64ZM58.9546 52C58.6466 52 58.4226 51.9207 58.2826 51.762C58.1426 51.6033 58.0633 51.3887 58.0446 51.118V50.866H57.9746C57.8159 51.2673 57.5546 51.5847 57.1906 51.818C56.8266 52.0513 56.3646 52.168 55.8046 52.168C55.0486 52.168 54.4653 51.986 54.0546 51.622C53.6439 51.2487 53.4386 50.726 53.4386 50.054C53.4386 49.4193 53.6626 48.9153 54.1106 48.542C54.5679 48.1687 55.3146 47.982 56.3506 47.982H58.0026V47.142C58.0026 45.9567 57.3913 45.364 56.1686 45.364C55.6926 45.364 55.2959 45.4667 54.9786 45.672C54.6613 45.868 54.4046 46.1527 54.2086 46.526L53.7046 46.106C53.9006 45.686 54.1993 45.3407 54.6006 45.07C55.0113 44.7993 55.5433 44.664 56.1966 44.664C57.0366 44.664 57.6806 44.874 58.1286 45.294C58.5766 45.714 58.8006 46.302 58.8006 47.058V51.3H59.7666V52H58.9546ZM55.9166 51.482C56.2059 51.482 56.4766 51.4447 56.7286 51.37C56.9806 51.2953 57.1999 51.1927 57.3866 51.062C57.5826 50.922 57.7319 50.7587 57.8346 50.572C57.9466 50.376 58.0026 50.1567 58.0026 49.914V48.584H56.3226C55.6039 48.584 55.0813 48.7007 54.7546 48.934C54.4373 49.158 54.2786 49.4707 54.2786 49.872V50.208C54.2786 50.628 54.4279 50.9453 54.7266 51.16C55.0253 51.3747 55.4219 51.482 55.9166 51.482ZM63.4394 52.168C62.8141 52.168 62.2774 52.0513 61.8294 51.818C61.3908 51.5847 61.0081 51.244 60.6814 50.796L61.2694 50.334C61.5681 50.726 61.8948 51.0153 62.2494 51.202C62.6041 51.3887 63.0194 51.482 63.4954 51.482C64.0461 51.482 64.4708 51.3653 64.7694 51.132C65.0681 50.8987 65.2174 50.5627 65.2174 50.124C65.2174 49.7413 65.1008 49.4427 64.8674 49.228C64.6434 49.004 64.2701 48.8547 63.7474 48.78L63.1594 48.682C62.8328 48.6353 62.5341 48.5653 62.2634 48.472C61.9928 48.3787 61.7594 48.2527 61.5634 48.094C61.3768 47.9353 61.2274 47.744 61.1154 47.52C61.0128 47.2867 60.9614 47.0067 60.9614 46.68C60.9614 46.344 61.0221 46.05 61.1434 45.798C61.2741 45.546 61.4468 45.336 61.6614 45.168C61.8761 45 62.1328 44.874 62.4314 44.79C62.7301 44.706 63.0521 44.664 63.3974 44.664C63.9948 44.664 64.4848 44.7667 64.8674 44.972C65.2501 45.1773 65.5768 45.4433 65.8474 45.77L65.3154 46.26C65.1288 46.036 64.8768 45.8307 64.5594 45.644C64.2514 45.448 63.8501 45.35 63.3554 45.35C62.8421 45.35 62.4408 45.462 62.1514 45.686C61.8714 45.91 61.7314 46.2273 61.7314 46.638C61.7314 47.058 61.8574 47.3613 62.1094 47.548C62.3708 47.7347 62.7581 47.87 63.2714 47.954L63.8454 48.038C64.5734 48.15 65.1101 48.3693 65.4554 48.696C65.8101 49.0133 65.9874 49.4613 65.9874 50.04C65.9874 50.712 65.7588 51.2347 65.3014 51.608C64.8534 51.9813 64.2328 52.168 63.4394 52.168ZM70.6433 52.168C70.1673 52.168 69.7333 52.084 69.3413 51.916C68.9586 51.748 68.6273 51.5053 68.3473 51.188C68.0766 50.8613 67.8666 50.4647 67.7173 49.998C67.5773 49.5313 67.5073 49.004 67.5073 48.416C67.5073 47.828 67.5773 47.3053 67.7173 46.848C67.8666 46.3813 68.0766 45.9893 68.3473 45.672C68.6273 45.3453 68.9586 45.098 69.3413 44.93C69.724 44.7527 70.1533 44.664 70.6293 44.664C71.0866 44.664 71.502 44.7527 71.8753 44.93C72.2486 45.098 72.566 45.336 72.8273 45.644C73.0886 45.952 73.2893 46.3253 73.4293 46.764C73.5786 47.1933 73.6533 47.6693 73.6533 48.192V48.57H68.3473V48.92C68.3473 49.2933 68.3986 49.6387 68.5013 49.956C68.6133 50.264 68.7673 50.53 68.9633 50.754C69.1686 50.978 69.416 51.1553 69.7053 51.286C69.9946 51.4073 70.3213 51.468 70.6853 51.468C71.7306 51.468 72.454 50.9873 72.8553 50.026L73.4433 50.418C73.2193 50.95 72.8646 51.3747 72.3793 51.692C71.9033 52.0093 71.3246 52.168 70.6433 52.168ZM70.6293 45.336C70.284 45.336 69.9713 45.4013 69.6913 45.532C69.4113 45.6533 69.1686 45.826 68.9633 46.05C68.7673 46.274 68.6133 46.5447 68.5013 46.862C68.3986 47.17 68.3473 47.5107 68.3473 47.884V47.954H72.7853V47.842C72.7853 47.4687 72.734 47.128 72.6313 46.82C72.5286 46.5027 72.3793 46.2367 72.1833 46.022C71.9966 45.8073 71.768 45.6393 71.4973 45.518C71.236 45.3967 70.9466 45.336 70.6293 45.336ZM80.3169 50.852H80.2749C80.0882 51.2533 79.8129 51.5753 79.4489 51.818C79.0942 52.0513 78.6415 52.168 78.0909 52.168C77.1669 52.168 76.4435 51.8413 75.9209 51.188C75.3982 50.5347 75.1369 49.6107 75.1369 48.416C75.1369 47.2213 75.3982 46.2973 75.9209 45.644C76.4435 44.9907 77.1669 44.664 78.0909 44.664C78.6415 44.664 79.0989 44.7853 79.4629 45.028C79.8269 45.2613 80.0975 45.5787 80.2749 45.98H80.3169V41.64H81.1149V52H80.3169V50.852ZM78.2729 51.454C78.5529 51.454 78.8142 51.4167 79.0569 51.342C79.3089 51.2673 79.5282 51.16 79.7149 51.02C79.9015 50.8707 80.0462 50.698 80.1489 50.502C80.2609 50.2967 80.3169 50.068 80.3169 49.816V46.974C80.3169 46.7407 80.2609 46.526 80.1489 46.33C80.0462 46.134 79.9015 45.966 79.7149 45.826C79.5282 45.686 79.3089 45.5787 79.0569 45.504C78.8142 45.42 78.5529 45.378 78.2729 45.378C77.5542 45.378 76.9942 45.6067 76.5929 46.064C76.1915 46.5213 75.9909 47.1373 75.9909 47.912V48.92C75.9909 49.6947 76.1915 50.3107 76.5929 50.768C76.9942 51.2253 77.5542 51.454 78.2729 51.454ZM84.2399 50.712C84.4733 50.712 84.6413 50.7727 84.7439 50.894C84.8559 51.0153 84.9119 51.1693 84.9119 51.356V51.538C84.9119 51.93 84.7999 52.3453 84.5759 52.784C84.3613 53.232 84.0719 53.6147 83.7079 53.932H83.0359C83.3439 53.6147 83.5773 53.3067 83.7359 53.008C83.9039 52.7093 84.0159 52.406 84.0719 52.098C83.8853 52.0793 83.7546 52.0187 83.6799 51.916C83.6053 51.804 83.5679 51.6733 83.5679 51.524V51.356C83.5679 51.1693 83.6193 51.0153 83.7219 50.894C83.8339 50.7727 84.0066 50.712 84.2399 50.712ZM95.3012 50.852H95.2592C95.0726 51.2533 94.7972 51.5753 94.4332 51.818C94.0786 52.0513 93.6259 52.168 93.0752 52.168C92.1512 52.168 91.4279 51.8413 90.9052 51.188C90.3826 50.5347 90.1212 49.6107 90.1212 48.416C90.1212 47.2213 90.3826 46.2973 90.9052 45.644C91.4279 44.9907 92.1512 44.664 93.0752 44.664C93.6259 44.664 94.0832 44.7853 94.4472 45.028C94.8112 45.2613 95.0819 45.5787 95.2592 45.98H95.3012V41.64H96.0992V52H95.3012V50.852ZM93.2572 51.454C93.5372 51.454 93.7986 51.4167 94.0412 51.342C94.2932 51.2673 94.5126 51.16 94.6992 51.02C94.8859 50.8707 95.0306 50.698 95.1332 50.502C95.2452 50.2967 95.3012 50.068 95.3012 49.816V46.974C95.3012 46.7407 95.2452 46.526 95.1332 46.33C95.0306 46.134 94.8859 45.966 94.6992 45.826C94.5126 45.686 94.2932 45.5787 94.0412 45.504C93.7986 45.42 93.5372 45.378 93.2572 45.378C92.5386 45.378 91.9786 45.6067 91.5772 46.064C91.1759 46.5213 90.9752 47.1373 90.9752 47.912V48.92C90.9752 49.6947 91.1759 50.3107 91.5772 50.768C91.9786 51.2253 92.5386 51.454 93.2572 51.454ZM103.634 52C103.326 52 103.102 51.9207 102.962 51.762C102.822 51.6033 102.743 51.3887 102.724 51.118V50.866H102.654C102.496 51.2673 102.234 51.5847 101.87 51.818C101.506 52.0513 101.044 52.168 100.484 52.168C99.7283 52.168 99.145 51.986 98.7343 51.622C98.3236 51.2487 98.1183 50.726 98.1183 50.054C98.1183 49.4193 98.3423 48.9153 98.7903 48.542C99.2476 48.1687 99.9943 47.982 101.03 47.982H102.682V47.142C102.682 45.9567 102.071 45.364 100.848 45.364C100.372 45.364 99.9756 45.4667 99.6583 45.672C99.341 45.868 99.0843 46.1527 98.8883 46.526L98.3843 46.106C98.5803 45.686 98.879 45.3407 99.2803 45.07C99.691 44.7993 100.223 44.664 100.876 44.664C101.716 44.664 102.36 44.874 102.808 45.294C103.256 45.714 103.48 46.302 103.48 47.058V51.3H104.446V52H103.634ZM100.596 51.482C100.886 51.482 101.156 51.4447 101.408 51.37C101.66 51.2953 101.88 51.1927 102.066 51.062C102.262 50.922 102.412 50.7587 102.514 50.572C102.626 50.376 102.682 50.1567 102.682 49.914V48.584H101.002C100.284 48.584 99.761 48.7007 99.4343 48.934C99.117 49.158 98.9583 49.4707 98.9583 49.872V50.208C98.9583 50.628 99.1076 50.9453 99.4063 51.16C99.705 51.3747 100.102 51.482 100.596 51.482ZM107.348 52C107.059 52 106.84 51.9207 106.69 51.762C106.541 51.6033 106.466 51.3887 106.466 51.118V45.532H105.22V44.832H106.032C106.228 44.832 106.359 44.7947 106.424 44.72C106.499 44.636 106.536 44.4913 106.536 44.286V42.83H107.264V44.832H108.888V45.532H107.264V51.3H108.776V52H107.348ZM113.313 52.168C112.837 52.168 112.403 52.084 112.011 51.916C111.629 51.748 111.297 51.5053 111.017 51.188C110.747 50.8613 110.537 50.4647 110.387 49.998C110.247 49.5313 110.177 49.004 110.177 48.416C110.177 47.828 110.247 47.3053 110.387 46.848C110.537 46.3813 110.747 45.9893 111.017 45.672C111.297 45.3453 111.629 45.098 112.011 44.93C112.394 44.7527 112.823 44.664 113.299 44.664C113.757 44.664 114.172 44.7527 114.545 44.93C114.919 45.098 115.236 45.336 115.497 45.644C115.759 45.952 115.959 46.3253 116.099 46.764C116.249 47.1933 116.323 47.6693 116.323 48.192V48.57H111.017V48.92C111.017 49.2933 111.069 49.6387 111.171 49.956C111.283 50.264 111.437 50.53 111.633 50.754C111.839 50.978 112.086 51.1553 112.375 51.286C112.665 51.4073 112.991 51.468 113.355 51.468C114.401 51.468 115.124 50.9873 115.525 50.026L116.113 50.418C115.889 50.95 115.535 51.3747 115.049 51.692C114.573 52.0093 113.995 52.168 113.313 52.168ZM113.299 45.336C112.954 45.336 112.641 45.4013 112.361 45.532C112.081 45.6533 111.839 45.826 111.633 46.05C111.437 46.274 111.283 46.5447 111.171 46.862C111.069 47.17 111.017 47.5107 111.017 47.884V47.954H115.455V47.842C115.455 47.4687 115.404 47.128 115.301 46.82C115.199 46.5027 115.049 46.2367 114.853 46.022C114.667 45.8073 114.438 45.6393 114.167 45.518C113.906 45.3967 113.617 45.336 113.299 45.336ZM124.209 52.168C123.733 52.168 123.304 52.084 122.921 51.916C122.539 51.748 122.212 51.5053 121.941 51.188C121.671 50.8613 121.461 50.4647 121.311 49.998C121.162 49.5313 121.087 49.004 121.087 48.416C121.087 47.828 121.162 47.3053 121.311 46.848C121.461 46.3813 121.671 45.9893 121.941 45.672C122.212 45.3453 122.539 45.098 122.921 44.93C123.304 44.7527 123.733 44.664 124.209 44.664C124.685 44.664 125.115 44.7527 125.497 44.93C125.88 45.098 126.207 45.3453 126.477 45.672C126.748 45.9893 126.958 46.3813 127.107 46.848C127.257 47.3053 127.331 47.828 127.331 48.416C127.331 49.004 127.257 49.5313 127.107 49.998C126.958 50.4647 126.748 50.8613 126.477 51.188C126.207 51.5053 125.88 51.748 125.497 51.916C125.115 52.084 124.685 52.168 124.209 52.168ZM124.209 51.454C124.909 51.454 125.46 51.2347 125.861 50.796C126.272 50.3573 126.477 49.7133 126.477 48.864V47.968C126.477 47.128 126.272 46.4887 125.861 46.05C125.46 45.602 124.909 45.378 124.209 45.378C123.509 45.378 122.954 45.5973 122.543 46.036C122.142 46.4747 121.941 47.1187 121.941 47.968V48.864C121.941 49.704 122.142 50.348 122.543 50.796C122.954 51.2347 123.509 51.454 124.209 51.454ZM129.359 44.832H130.157V45.98H130.199C130.376 45.5787 130.647 45.2613 131.011 45.028C131.375 44.7853 131.832 44.664 132.383 44.664C133.307 44.664 134.03 44.9907 134.553 45.644C135.075 46.2973 135.337 47.2213 135.337 48.416C135.337 49.6107 135.075 50.5347 134.553 51.188C134.03 51.8413 133.307 52.168 132.383 52.168C131.832 52.168 131.379 52.0513 131.025 51.818C130.67 51.5753 130.395 51.2533 130.199 50.852H130.157V54.8H129.359V44.832ZM132.201 51.454C132.919 51.454 133.479 51.2253 133.881 50.768C134.282 50.3107 134.483 49.6947 134.483 48.92V47.912C134.483 47.1373 134.282 46.5213 133.881 46.064C133.479 45.6067 132.919 45.378 132.201 45.378C131.921 45.378 131.655 45.42 131.403 45.504C131.16 45.5787 130.945 45.686 130.759 45.826C130.572 45.966 130.423 46.134 130.311 46.33C130.208 46.526 130.157 46.7407 130.157 46.974V49.816C130.157 50.068 130.208 50.2967 130.311 50.502C130.423 50.698 130.572 50.8707 130.759 51.02C130.945 51.16 131.16 51.2673 131.403 51.342C131.655 51.4167 131.921 51.454 132.201 51.454ZM139.96 52.168C139.484 52.168 139.05 52.084 138.658 51.916C138.275 51.748 137.944 51.5053 137.664 51.188C137.393 50.8613 137.183 50.4647 137.034 49.998C136.894 49.5313 136.824 49.004 136.824 48.416C136.824 47.828 136.894 47.3053 137.034 46.848C137.183 46.3813 137.393 45.9893 137.664 45.672C137.944 45.3453 138.275 45.098 138.658 44.93C139.04 44.7527 139.47 44.664 139.946 44.664C140.403 44.664 140.818 44.7527 141.192 44.93C141.565 45.098 141.882 45.336 142.144 45.644C142.405 45.952 142.606 46.3253 142.746 46.764C142.895 47.1933 142.97 47.6693 142.97 48.192V48.57H137.664V48.92C137.664 49.2933 137.715 49.6387 137.818 49.956C137.93 50.264 138.084 50.53 138.28 50.754C138.485 50.978 138.732 51.1553 139.022 51.286C139.311 51.4073 139.638 51.468 140.002 51.468C141.047 51.468 141.77 50.9873 142.172 50.026L142.76 50.418C142.536 50.95 142.181 51.3747 141.696 51.692C141.22 52.0093 140.641 52.168 139.96 52.168ZM139.946 45.336C139.6 45.336 139.288 45.4013 139.008 45.532C138.728 45.6533 138.485 45.826 138.28 46.05C138.084 46.274 137.93 46.5447 137.818 46.862C137.715 47.17 137.664 47.5107 137.664 47.884V47.954H142.102V47.842C142.102 47.4687 142.05 47.128 141.948 46.82C141.845 46.5027 141.696 46.2367 141.5 46.022C141.313 45.8073 141.084 45.6393 140.814 45.518C140.552 45.3967 140.263 45.336 139.946 45.336ZM144.999 52V44.832H145.797V45.966H145.839C145.998 45.5927 146.245 45.2847 146.581 45.042C146.917 44.79 147.375 44.664 147.953 44.664C148.719 44.664 149.311 44.902 149.731 45.378C150.161 45.8447 150.375 46.5167 150.375 47.394V52H149.577V47.534C149.577 46.806 149.419 46.2647 149.101 45.91C148.793 45.5553 148.341 45.378 147.743 45.378C147.491 45.378 147.249 45.4107 147.015 45.476C146.782 45.5413 146.572 45.6393 146.385 45.77C146.208 45.9007 146.063 46.0687 145.951 46.274C145.849 46.47 145.797 46.6987 145.797 46.96V52H144.999ZM155.45 52.168C154.974 52.168 154.54 52.084 154.148 51.916C153.765 51.748 153.434 51.5053 153.154 51.188C152.883 50.8613 152.673 50.4647 152.524 49.998C152.384 49.5313 152.314 49.004 152.314 48.416C152.314 47.828 152.384 47.3053 152.524 46.848C152.673 46.3813 152.883 45.9893 153.154 45.672C153.434 45.3453 153.765 45.098 154.148 44.93C154.531 44.7527 154.96 44.664 155.436 44.664C155.893 44.664 156.309 44.7527 156.682 44.93C157.055 45.098 157.373 45.336 157.634 45.644C157.895 45.952 158.096 46.3253 158.236 46.764C158.385 47.1933 158.46 47.6693 158.46 48.192V48.57H153.154V48.92C153.154 49.2933 153.205 49.6387 153.308 49.956C153.42 50.264 153.574 50.53 153.77 50.754C153.975 50.978 154.223 51.1553 154.512 51.286C154.801 51.4073 155.128 51.468 155.492 51.468C156.537 51.468 157.261 50.9873 157.662 50.026L158.25 50.418C158.026 50.95 157.671 51.3747 157.186 51.692C156.71 52.0093 156.131 52.168 155.45 52.168ZM155.436 45.336C155.091 45.336 154.778 45.4013 154.498 45.532C154.218 45.6533 153.975 45.826 153.77 46.05C153.574 46.274 153.42 46.5447 153.308 46.862C153.205 47.17 153.154 47.5107 153.154 47.884V47.954H157.592V47.842C157.592 47.4687 157.541 47.128 157.438 46.82C157.335 46.5027 157.186 46.2367 156.99 46.022C156.803 45.8073 156.575 45.6393 156.304 45.518C156.043 45.3967 155.753 45.336 155.436 45.336ZM165.124 50.852H165.082C164.895 51.2533 164.62 51.5753 164.256 51.818C163.901 52.0513 163.448 52.168 162.898 52.168C161.974 52.168 161.25 51.8413 160.728 51.188C160.205 50.5347 159.944 49.6107 159.944 48.416C159.944 47.2213 160.205 46.2973 160.728 45.644C161.25 44.9907 161.974 44.664 162.898 44.664C163.448 44.664 163.906 44.7853 164.27 45.028C164.634 45.2613 164.904 45.5787 165.082 45.98H165.124V41.64H165.922V52H165.124V50.852ZM163.08 51.454C163.36 51.454 163.621 51.4167 163.864 51.342C164.116 51.2673 164.335 51.16 164.522 51.02C164.708 50.8707 164.853 50.698 164.956 50.502C165.068 50.2967 165.124 50.068 165.124 49.816V46.974C165.124 46.7407 165.068 46.526 164.956 46.33C164.853 46.134 164.708 45.966 164.522 45.826C164.335 45.686 164.116 45.5787 163.864 45.504C163.621 45.42 163.36 45.378 163.08 45.378C162.361 45.378 161.801 45.6067 161.4 46.064C160.998 46.5213 160.798 47.1373 160.798 47.912V48.92C160.798 49.6947 160.998 50.3107 161.4 50.768C161.801 51.2253 162.361 51.454 163.08 51.454Z" fill="white"/>
</svg>
