<svg width="307" height="72" viewBox="0 0 307 72" fill="none" xmlns="http://www.w3.org/2000/svg">
<rect width="307" height="72" fill="#444444"/>
<path d="M20.976 30.168C20.1733 30.168 19.5013 30.0187 18.96 29.72C18.428 29.412 17.9707 29.006 17.588 28.502L18.218 27.984C18.5633 28.4413 18.9507 28.796 19.38 29.048C19.8187 29.3 20.36 29.426 21.004 29.426C21.76 29.426 22.3387 29.2487 22.74 28.894C23.1507 28.53 23.356 28.026 23.356 27.382C23.356 26.7847 23.1833 26.346 22.838 26.066C22.4927 25.786 22.0073 25.5807 21.382 25.45L20.514 25.268C19.5807 25.0813 18.904 24.7687 18.484 24.33C18.064 23.8913 17.854 23.3313 17.854 22.65C17.854 22.2207 17.9287 21.8473 18.078 21.53C18.2273 21.2033 18.4373 20.9327 18.708 20.718C18.988 20.5033 19.3193 20.34 19.702 20.228C20.094 20.116 20.5233 20.06 20.99 20.06C21.718 20.06 22.334 20.1907 22.838 20.452C23.342 20.7133 23.7573 21.082 24.084 21.558L23.454 22.02C23.1833 21.628 22.8427 21.3293 22.432 21.124C22.0307 20.9093 21.536 20.802 20.948 20.802C20.248 20.802 19.6927 20.956 19.282 21.264C18.8807 21.5627 18.68 22.0153 18.68 22.622C18.68 23.2007 18.862 23.6253 19.226 23.896C19.59 24.1667 20.0753 24.3627 20.682 24.484L21.55 24.666C22.5207 24.8807 23.202 25.212 23.594 25.66C23.986 26.108 24.182 26.668 24.182 27.34C24.182 28.236 23.8973 28.9313 23.328 29.426C22.7587 29.9207 21.9747 30.168 20.976 30.168ZM28.779 30.168C27.7897 30.168 27.0244 29.8413 26.483 29.188C25.951 28.5347 25.685 27.6107 25.685 26.416C25.685 25.2213 25.951 24.2973 26.483 23.644C27.0244 22.9907 27.7897 22.664 28.779 22.664C29.4417 22.664 29.9784 22.8087 30.389 23.098C30.7997 23.3873 31.1124 23.77 31.327 24.246L30.655 24.582C30.487 24.19 30.249 23.8913 29.941 23.686C29.6424 23.4807 29.255 23.378 28.779 23.378C28.051 23.378 27.4957 23.6113 27.113 24.078C26.7304 24.5447 26.539 25.156 26.539 25.912V26.92C26.539 27.676 26.7304 28.2873 27.113 28.754C27.4957 29.2207 28.051 29.454 28.779 29.454C29.2737 29.454 29.689 29.3467 30.025 29.132C30.361 28.9173 30.6317 28.6093 30.837 28.208L31.425 28.6C31.1917 29.076 30.8557 29.4587 30.417 29.748C29.9877 30.028 29.4417 30.168 28.779 30.168ZM38.1323 30C37.8243 30 37.6003 29.9207 37.4603 29.762C37.3203 29.6033 37.241 29.3887 37.2223 29.118V28.866H37.1523C36.9937 29.2673 36.7323 29.5847 36.3683 29.818C36.0043 30.0513 35.5423 30.168 34.9823 30.168C34.2263 30.168 33.643 29.986 33.2323 29.622C32.8217 29.2487 32.6163 28.726 32.6163 28.054C32.6163 27.4193 32.8403 26.9153 33.2883 26.542C33.7457 26.1687 34.4923 25.982 35.5283 25.982H37.1803V25.142C37.1803 23.9567 36.569 23.364 35.3463 23.364C34.8703 23.364 34.4737 23.4667 34.1563 23.672C33.839 23.868 33.5823 24.1527 33.3863 24.526L32.8823 24.106C33.0783 23.686 33.377 23.3407 33.7783 23.07C34.189 22.7993 34.721 22.664 35.3743 22.664C36.2143 22.664 36.8583 22.874 37.3063 23.294C37.7543 23.714 37.9783 24.302 37.9783 25.058V29.3H38.9443V30H38.1323ZM35.0943 29.482C35.3837 29.482 35.6543 29.4447 35.9063 29.37C36.1583 29.2953 36.3777 29.1927 36.5643 29.062C36.7603 28.922 36.9097 28.7587 37.0123 28.572C37.1243 28.376 37.1803 28.1567 37.1803 27.914V26.584H35.5003C34.7817 26.584 34.259 26.7007 33.9323 26.934C33.615 27.158 33.4563 27.4707 33.4563 27.872V28.208C33.4563 28.628 33.6057 28.9453 33.9043 29.16C34.203 29.3747 34.5997 29.482 35.0943 29.482ZM40.5872 30V22.832H41.3852V23.966H41.4272C41.5858 23.5927 41.8332 23.2847 42.1692 23.042C42.5052 22.79 42.9625 22.664 43.5412 22.664C44.3065 22.664 44.8992 22.902 45.3192 23.378C45.7485 23.8447 45.9632 24.5167 45.9632 25.394V30H45.1652V25.534C45.1652 24.806 45.0065 24.2647 44.6892 23.91C44.3812 23.5553 43.9285 23.378 43.3312 23.378C43.0792 23.378 42.8365 23.4107 42.6032 23.476C42.3698 23.5413 42.1598 23.6393 41.9732 23.77C41.7958 23.9007 41.6512 24.0687 41.5392 24.274C41.4365 24.47 41.3852 24.6987 41.3852 24.96V30H40.5872ZM51.7844 30V22.832H52.5824V24.12H52.6384C52.7784 23.784 53.0164 23.4853 53.3524 23.224C53.6884 22.9627 54.1644 22.832 54.7804 22.832H55.2564V23.616H54.6264C54.0291 23.616 53.5391 23.7467 53.1564 24.008C52.7738 24.2693 52.5824 24.6333 52.5824 25.1V30H51.7844ZM59.3093 30.168C58.8333 30.168 58.3993 30.084 58.0073 29.916C57.6246 29.748 57.2933 29.5053 57.0133 29.188C56.7426 28.8613 56.5326 28.4647 56.3833 27.998C56.2433 27.5313 56.1733 27.004 56.1733 26.416C56.1733 25.828 56.2433 25.3053 56.3833 24.848C56.5326 24.3813 56.7426 23.9893 57.0133 23.672C57.2933 23.3453 57.6246 23.098 58.0073 22.93C58.39 22.7527 58.8193 22.664 59.2953 22.664C59.7526 22.664 60.168 22.7527 60.5413 22.93C60.9146 23.098 61.232 23.336 61.4933 23.644C61.7546 23.952 61.9553 24.3253 62.0953 24.764C62.2446 25.1933 62.3193 25.6693 62.3193 26.192V26.57H57.0133V26.92C57.0133 27.2933 57.0646 27.6387 57.1673 27.956C57.2793 28.264 57.4333 28.53 57.6293 28.754C57.8346 28.978 58.082 29.1553 58.3713 29.286C58.6606 29.4073 58.9873 29.468 59.3513 29.468C60.3966 29.468 61.12 28.9873 61.5213 28.026L62.1093 28.418C61.8853 28.95 61.5306 29.3747 61.0453 29.692C60.5693 30.0093 59.9906 30.168 59.3093 30.168ZM59.2953 23.336C58.95 23.336 58.6373 23.4013 58.3573 23.532C58.0773 23.6533 57.8346 23.826 57.6293 24.05C57.4333 24.274 57.2793 24.5447 57.1673 24.862C57.0646 25.17 57.0133 25.5107 57.0133 25.884V25.954H61.4513V25.842C61.4513 25.4687 61.4 25.128 61.2973 24.82C61.1946 24.5027 61.0453 24.2367 60.8493 24.022C60.6626 23.8073 60.434 23.6393 60.1633 23.518C59.902 23.3967 59.6126 23.336 59.2953 23.336ZM66.8689 30.168C65.8795 30.168 65.1142 29.8413 64.5729 29.188C64.0409 28.5347 63.7749 27.6107 63.7749 26.416C63.7749 25.2213 64.0409 24.2973 64.5729 23.644C65.1142 22.9907 65.8795 22.664 66.8689 22.664C67.5315 22.664 68.0682 22.8087 68.4789 23.098C68.8895 23.3873 69.2022 23.77 69.4169 24.246L68.7449 24.582C68.5769 24.19 68.3389 23.8913 68.0309 23.686C67.7322 23.4807 67.3449 23.378 66.8689 23.378C66.1409 23.378 65.5855 23.6113 65.2029 24.078C64.8202 24.5447 64.6289 25.156 64.6289 25.912V26.92C64.6289 27.676 64.8202 28.2873 65.2029 28.754C65.5855 29.2207 66.1409 29.454 66.8689 29.454C67.3635 29.454 67.7789 29.3467 68.1149 29.132C68.4509 28.9173 68.7215 28.6093 68.9269 28.208L69.5149 28.6C69.2815 29.076 68.9455 29.4587 68.5069 29.748C68.0775 30.028 67.5315 30.168 66.8689 30.168ZM73.7468 30.168C73.2708 30.168 72.8368 30.084 72.4448 29.916C72.0621 29.748 71.7308 29.5053 71.4508 29.188C71.1801 28.8613 70.9701 28.4647 70.8208 27.998C70.6808 27.5313 70.6108 27.004 70.6108 26.416C70.6108 25.828 70.6808 25.3053 70.8208 24.848C70.9701 24.3813 71.1801 23.9893 71.4508 23.672C71.7308 23.3453 72.0621 23.098 72.4448 22.93C72.8275 22.7527 73.2568 22.664 73.7328 22.664C74.1901 22.664 74.6055 22.7527 74.9788 22.93C75.3521 23.098 75.6695 23.336 75.9308 23.644C76.1921 23.952 76.3928 24.3253 76.5328 24.764C76.6821 25.1933 76.7568 25.6693 76.7568 26.192V26.57H71.4508V26.92C71.4508 27.2933 71.5021 27.6387 71.6048 27.956C71.7168 28.264 71.8708 28.53 72.0668 28.754C72.2721 28.978 72.5195 29.1553 72.8088 29.286C73.0981 29.4073 73.4248 29.468 73.7888 29.468C74.8341 29.468 75.5575 28.9873 75.9588 28.026L76.5468 28.418C76.3228 28.95 75.9681 29.3747 75.4828 29.692C75.0068 30.0093 74.4281 30.168 73.7468 30.168ZM73.7328 23.336C73.3875 23.336 73.0748 23.4013 72.7948 23.532C72.5148 23.6533 72.2721 23.826 72.0668 24.05C71.8708 24.274 71.7168 24.5447 71.6048 24.862C71.5021 25.17 71.4508 25.5107 71.4508 25.884V25.954H75.8888V25.842C75.8888 25.4687 75.8375 25.128 75.7348 24.82C75.6321 24.5027 75.4828 24.2367 75.2868 24.022C75.1001 23.8073 74.8715 23.6393 74.6008 23.518C74.3395 23.3967 74.0501 23.336 73.7328 23.336ZM79.1784 20.886C78.9917 20.886 78.8517 20.8393 78.7584 20.746C78.6744 20.6527 78.6324 20.5313 78.6324 20.382V20.242C78.6324 20.0927 78.6744 19.9713 78.7584 19.878C78.8517 19.7847 78.9917 19.738 79.1784 19.738C79.365 19.738 79.5004 19.7847 79.5844 19.878C79.6777 19.9713 79.7244 20.0927 79.7244 20.242V20.382C79.7244 20.5313 79.6777 20.6527 79.5844 20.746C79.5004 20.8393 79.365 20.886 79.1784 20.886ZM78.7864 22.832H79.5844V30H78.7864V22.832ZM82.1907 22.832H82.9887V23.98H83.0307C83.208 23.5787 83.4787 23.2613 83.8427 23.028C84.2067 22.7853 84.664 22.664 85.2147 22.664C86.1387 22.664 86.862 22.9907 87.3847 23.644C87.9073 24.2973 88.1687 25.2213 88.1687 26.416C88.1687 27.6107 87.9073 28.5347 87.3847 29.188C86.862 29.8413 86.1387 30.168 85.2147 30.168C84.664 30.168 84.2113 30.0513 83.8567 29.818C83.502 29.5753 83.2267 29.2533 83.0307 28.852H82.9887V32.8H82.1907V22.832ZM85.0327 29.454C85.7513 29.454 86.3113 29.2253 86.7127 28.768C87.114 28.3107 87.3147 27.6947 87.3147 26.92V25.912C87.3147 25.1373 87.114 24.5213 86.7127 24.064C86.3113 23.6067 85.7513 23.378 85.0327 23.378C84.7527 23.378 84.4867 23.42 84.2347 23.504C83.992 23.5787 83.7773 23.686 83.5907 23.826C83.404 23.966 83.2547 24.134 83.1427 24.33C83.04 24.526 82.9887 24.7407 82.9887 24.974V27.816C82.9887 28.068 83.04 28.2967 83.1427 28.502C83.2547 28.698 83.404 28.8707 83.5907 29.02C83.7773 29.16 83.992 29.2673 84.2347 29.342C84.4867 29.4167 84.7527 29.454 85.0327 29.454ZM91.407 30C91.1177 30 90.8984 29.9207 90.749 29.762C90.5997 29.6033 90.525 29.3887 90.525 29.118V23.532H89.279V22.832H90.091C90.287 22.832 90.4177 22.7947 90.483 22.72C90.5577 22.636 90.595 22.4913 90.595 22.286V20.83H91.323V22.832H92.947V23.532H91.323V29.3H92.835V30H91.407ZM98.1731 30V22.832H98.9711V24.12H99.0271C99.1671 23.784 99.4051 23.4853 99.7411 23.224C100.077 22.9627 100.553 22.832 101.169 22.832H101.645V23.616H101.015C100.418 23.616 99.9278 23.7467 99.5451 24.008C99.1624 24.2693 98.9711 24.6333 98.9711 25.1V30H98.1731ZM103.569 20.886C103.382 20.886 103.242 20.8393 103.149 20.746C103.065 20.6527 103.023 20.5313 103.023 20.382V20.242C103.023 20.0927 103.065 19.9713 103.149 19.878C103.242 19.7847 103.382 19.738 103.569 19.738C103.756 19.738 103.891 19.7847 103.975 19.878C104.068 19.9713 104.115 20.0927 104.115 20.242V20.382C104.115 20.5313 104.068 20.6527 103.975 20.746C103.891 20.8393 103.756 20.886 103.569 20.886ZM103.177 22.832H103.975V30H103.177V22.832ZM112.461 30.84C112.461 31.568 112.167 32.1047 111.579 32.45C111.001 32.7953 110.147 32.968 109.017 32.968C107.925 32.968 107.137 32.8093 106.651 32.492C106.166 32.1747 105.923 31.736 105.923 31.176C105.923 30.7653 106.031 30.4387 106.245 30.196C106.46 29.9533 106.763 29.776 107.155 29.664V29.552C106.707 29.3747 106.483 29.048 106.483 28.572C106.483 28.2173 106.6 27.9467 106.833 27.76C107.067 27.5733 107.356 27.4333 107.701 27.34V27.284C107.281 27.0973 106.955 26.8173 106.721 26.444C106.488 26.0707 106.371 25.6227 106.371 25.1C106.371 24.736 106.432 24.4047 106.553 24.106C106.675 23.8073 106.847 23.5507 107.071 23.336C107.305 23.1213 107.58 22.958 107.897 22.846C108.224 22.7247 108.583 22.664 108.975 22.664C109.526 22.664 110.007 22.7807 110.417 23.014V22.664C110.417 22.4493 110.469 22.2767 110.571 22.146C110.674 22.006 110.842 21.936 111.075 21.936H112.307V22.636H110.851V23.322C111.094 23.5367 111.281 23.798 111.411 24.106C111.542 24.4047 111.607 24.736 111.607 25.1C111.607 25.464 111.542 25.7953 111.411 26.094C111.29 26.3927 111.113 26.654 110.879 26.878C110.655 27.0927 110.38 27.2607 110.053 27.382C109.736 27.494 109.381 27.55 108.989 27.55C108.859 27.55 108.733 27.5407 108.611 27.522C108.49 27.5033 108.369 27.4847 108.247 27.466C107.939 27.55 107.683 27.6667 107.477 27.816C107.281 27.956 107.183 28.1473 107.183 28.39C107.183 28.8193 107.566 29.034 108.331 29.034H109.997C110.865 29.034 111.491 29.1973 111.873 29.524C112.265 29.8413 112.461 30.28 112.461 30.84ZM111.691 30.896C111.691 30.5507 111.565 30.2753 111.313 30.07C111.071 29.874 110.632 29.776 109.997 29.776H107.673C107.365 29.8787 107.123 30.0327 106.945 30.238C106.768 30.4433 106.679 30.7 106.679 31.008C106.679 31.3813 106.833 31.6893 107.141 31.932C107.449 32.184 107.916 32.31 108.541 32.31H109.437C110.137 32.31 110.688 32.1933 111.089 31.96C111.491 31.736 111.691 31.3813 111.691 30.896ZM108.989 26.906C109.54 26.906 109.969 26.7707 110.277 26.5C110.595 26.22 110.753 25.828 110.753 25.324V24.876C110.753 24.3813 110.595 23.9987 110.277 23.728C109.969 23.448 109.54 23.308 108.989 23.308C108.429 23.308 107.995 23.448 107.687 23.728C107.379 23.9987 107.225 24.3813 107.225 24.876V25.324C107.225 25.828 107.379 26.22 107.687 26.5C108.005 26.7707 108.439 26.906 108.989 26.906ZM113.991 19.64H114.789V23.966H114.831C114.99 23.5927 115.237 23.2847 115.573 23.042C115.909 22.79 116.367 22.664 116.945 22.664C117.711 22.664 118.303 22.902 118.723 23.378C119.153 23.8447 119.367 24.5167 119.367 25.394V30H118.569V25.534C118.569 24.806 118.411 24.2647 118.093 23.91C117.785 23.5553 117.333 23.378 116.735 23.378C116.483 23.378 116.241 23.4107 116.007 23.476C115.774 23.5413 115.564 23.6393 115.377 23.77C115.2 23.9007 115.055 24.0687 114.943 24.274C114.841 24.47 114.789 24.6987 114.789 24.96V30H113.991V19.64ZM123.112 30C122.823 30 122.603 29.9207 122.454 29.762C122.305 29.6033 122.23 29.3887 122.23 29.118V23.532H120.984V22.832H121.796C121.992 22.832 122.123 22.7947 122.188 22.72C122.263 22.636 122.3 22.4913 122.3 22.286V20.83H123.028V22.832H124.652V23.532H123.028V29.3H124.54V30H123.112ZM134.806 30C134.498 30 134.274 29.9207 134.134 29.762C133.994 29.6033 133.915 29.3887 133.896 29.118V28.866H133.826C133.668 29.2673 133.406 29.5847 133.042 29.818C132.678 30.0513 132.216 30.168 131.656 30.168C130.9 30.168 130.317 29.986 129.906 29.622C129.496 29.2487 129.29 28.726 129.29 28.054C129.29 27.4193 129.514 26.9153 129.962 26.542C130.42 26.1687 131.166 25.982 132.202 25.982H133.854V25.142C133.854 23.9567 133.243 23.364 132.02 23.364C131.544 23.364 131.148 23.4667 130.83 23.672C130.513 23.868 130.256 24.1527 130.06 24.526L129.556 24.106C129.752 23.686 130.051 23.3407 130.452 23.07C130.863 22.7993 131.395 22.664 132.048 22.664C132.888 22.664 133.532 22.874 133.98 23.294C134.428 23.714 134.652 24.302 134.652 25.058V29.3H135.618V30H134.806ZM131.768 29.482C132.058 29.482 132.328 29.4447 132.58 29.37C132.832 29.2953 133.052 29.1927 133.238 29.062C133.434 28.922 133.584 28.7587 133.686 28.572C133.798 28.376 133.854 28.1567 133.854 27.914V26.584H132.174C131.456 26.584 130.933 26.7007 130.606 26.934C130.289 27.158 130.13 27.4707 130.13 27.872V28.208C130.13 28.628 130.28 28.9453 130.578 29.16C130.877 29.3747 131.274 29.482 131.768 29.482ZM137.597 23.532H136.365V22.832H137.597V20.83C137.597 20.466 137.686 20.1767 137.863 19.962C138.05 19.7473 138.334 19.64 138.717 19.64H139.977V20.34H138.395V22.832H139.977V23.532H138.395V30H137.597V23.532ZM142.841 30C142.551 30 142.332 29.9207 142.183 29.762C142.033 29.6033 141.959 29.3887 141.959 29.118V23.532H140.713V22.832H141.525C141.721 22.832 141.851 22.7947 141.917 22.72C141.991 22.636 142.029 22.4913 142.029 22.286V20.83H142.757V22.832H144.381V23.532H142.757V29.3H144.269V30H142.841ZM148.805 30.168C148.329 30.168 147.895 30.084 147.503 29.916C147.121 29.748 146.789 29.5053 146.509 29.188C146.239 28.8613 146.029 28.4647 145.879 27.998C145.739 27.5313 145.669 27.004 145.669 26.416C145.669 25.828 145.739 25.3053 145.879 24.848C146.029 24.3813 146.239 23.9893 146.509 23.672C146.789 23.3453 147.121 23.098 147.503 22.93C147.886 22.7527 148.315 22.664 148.791 22.664C149.249 22.664 149.664 22.7527 150.037 22.93C150.411 23.098 150.728 23.336 150.989 23.644C151.251 23.952 151.451 24.3253 151.591 24.764C151.741 25.1933 151.815 25.6693 151.815 26.192V26.57H146.509V26.92C146.509 27.2933 146.561 27.6387 146.663 27.956C146.775 28.264 146.929 28.53 147.125 28.754C147.331 28.978 147.578 29.1553 147.867 29.286C148.157 29.4073 148.483 29.468 148.847 29.468C149.893 29.468 150.616 28.9873 151.017 28.026L151.605 28.418C151.381 28.95 151.027 29.3747 150.541 29.692C150.065 30.0093 149.487 30.168 148.805 30.168ZM148.791 23.336C148.446 23.336 148.133 23.4013 147.853 23.532C147.573 23.6533 147.331 23.826 147.125 24.05C146.929 24.274 146.775 24.5447 146.663 24.862C146.561 25.17 146.509 25.5107 146.509 25.884V25.954H150.947V25.842C150.947 25.4687 150.896 25.128 150.793 24.82C150.691 24.5027 150.541 24.2367 150.345 24.022C150.159 23.8073 149.93 23.6393 149.659 23.518C149.398 23.3967 149.109 23.336 148.791 23.336ZM153.845 30V22.832H154.643V24.12H154.699C154.839 23.784 155.077 23.4853 155.413 23.224C155.749 22.9627 156.225 22.832 156.841 22.832H157.317V23.616H156.687C156.09 23.616 155.6 23.7467 155.217 24.008C154.834 24.2693 154.643 24.6333 154.643 25.1V30H153.845ZM164.187 30.168C163.562 30.168 163.025 30.0513 162.577 29.818C162.139 29.5847 161.756 29.244 161.429 28.796L162.017 28.334C162.316 28.726 162.643 29.0153 162.997 29.202C163.352 29.3887 163.767 29.482 164.243 29.482C164.794 29.482 165.219 29.3653 165.517 29.132C165.816 28.8987 165.965 28.5627 165.965 28.124C165.965 27.7413 165.849 27.4427 165.615 27.228C165.391 27.004 165.018 26.8547 164.495 26.78L163.907 26.682C163.581 26.6353 163.282 26.5653 163.011 26.472C162.741 26.3787 162.507 26.2527 162.311 26.094C162.125 25.9353 161.975 25.744 161.863 25.52C161.761 25.2867 161.709 25.0067 161.709 24.68C161.709 24.344 161.77 24.05 161.891 23.798C162.022 23.546 162.195 23.336 162.409 23.168C162.624 23 162.881 22.874 163.179 22.79C163.478 22.706 163.8 22.664 164.145 22.664C164.743 22.664 165.233 22.7667 165.615 22.972C165.998 23.1773 166.325 23.4433 166.595 23.77L166.063 24.26C165.877 24.036 165.625 23.8307 165.307 23.644C164.999 23.448 164.598 23.35 164.103 23.35C163.59 23.35 163.189 23.462 162.899 23.686C162.619 23.91 162.479 24.2273 162.479 24.638C162.479 25.058 162.605 25.3613 162.857 25.548C163.119 25.7347 163.506 25.87 164.019 25.954L164.593 26.038C165.321 26.15 165.858 26.3693 166.203 26.696C166.558 27.0133 166.735 27.4613 166.735 28.04C166.735 28.712 166.507 29.2347 166.049 29.608C165.601 29.9813 164.981 30.168 164.187 30.168ZM168.829 19.64H169.627V23.966H169.669C169.828 23.5927 170.075 23.2847 170.411 23.042C170.747 22.79 171.205 22.664 171.783 22.664C172.549 22.664 173.141 22.902 173.561 23.378C173.991 23.8447 174.205 24.5167 174.205 25.394V30H173.407V25.534C173.407 24.806 173.249 24.2647 172.931 23.91C172.623 23.5553 172.171 23.378 171.573 23.378C171.321 23.378 171.079 23.4107 170.845 23.476C170.612 23.5413 170.402 23.6393 170.215 23.77C170.038 23.9007 169.893 24.0687 169.781 24.274C169.679 24.47 169.627 24.6987 169.627 24.96V30H168.829V19.64ZM179.266 30.168C178.79 30.168 178.361 30.084 177.978 29.916C177.595 29.748 177.269 29.5053 176.998 29.188C176.727 28.8613 176.517 28.4647 176.368 27.998C176.219 27.5313 176.144 27.004 176.144 26.416C176.144 25.828 176.219 25.3053 176.368 24.848C176.517 24.3813 176.727 23.9893 176.998 23.672C177.269 23.3453 177.595 23.098 177.978 22.93C178.361 22.7527 178.79 22.664 179.266 22.664C179.742 22.664 180.171 22.7527 180.554 22.93C180.937 23.098 181.263 23.3453 181.534 23.672C181.805 23.9893 182.015 24.3813 182.164 24.848C182.313 25.3053 182.388 25.828 182.388 26.416C182.388 27.004 182.313 27.5313 182.164 27.998C182.015 28.4647 181.805 28.8613 181.534 29.188C181.263 29.5053 180.937 29.748 180.554 29.916C180.171 30.084 179.742 30.168 179.266 30.168ZM179.266 29.454C179.966 29.454 180.517 29.2347 180.918 28.796C181.329 28.3573 181.534 27.7133 181.534 26.864V25.968C181.534 25.128 181.329 24.4887 180.918 24.05C180.517 23.602 179.966 23.378 179.266 23.378C178.566 23.378 178.011 23.5973 177.6 24.036C177.199 24.4747 176.998 25.1187 176.998 25.968V26.864C176.998 27.704 177.199 28.348 177.6 28.796C178.011 29.2347 178.566 29.454 179.266 29.454ZM184.415 22.832H185.213V23.98H185.255C185.433 23.5787 185.703 23.2613 186.067 23.028C186.431 22.7853 186.889 22.664 187.439 22.664C188.363 22.664 189.087 22.9907 189.609 23.644C190.132 24.2973 190.393 25.2213 190.393 26.416C190.393 27.6107 190.132 28.5347 189.609 29.188C189.087 29.8413 188.363 30.168 187.439 30.168C186.889 30.168 186.436 30.0513 186.081 29.818C185.727 29.5753 185.451 29.2533 185.255 28.852H185.213V32.8H184.415V22.832ZM187.257 29.454C187.976 29.454 188.536 29.2253 188.937 28.768C189.339 28.3107 189.539 27.6947 189.539 26.92V25.912C189.539 25.1373 189.339 24.5213 188.937 24.064C188.536 23.6067 187.976 23.378 187.257 23.378C186.977 23.378 186.711 23.42 186.459 23.504C186.217 23.5787 186.002 23.686 185.815 23.826C185.629 23.966 185.479 24.134 185.367 24.33C185.265 24.526 185.213 24.7407 185.213 24.974V27.816C185.213 28.068 185.265 28.2967 185.367 28.502C185.479 28.698 185.629 28.8707 185.815 29.02C186.002 29.16 186.217 29.2673 186.459 29.342C186.711 29.4167 186.977 29.454 187.257 29.454ZM192.454 22.832H193.252V23.98H193.294C193.472 23.5787 193.742 23.2613 194.106 23.028C194.47 22.7853 194.928 22.664 195.478 22.664C196.402 22.664 197.126 22.9907 197.648 23.644C198.171 24.2973 198.432 25.2213 198.432 26.416C198.432 27.6107 198.171 28.5347 197.648 29.188C197.126 29.8413 196.402 30.168 195.478 30.168C194.928 30.168 194.475 30.0513 194.12 29.818C193.766 29.5753 193.49 29.2533 193.294 28.852H193.252V32.8H192.454V22.832ZM195.296 29.454C196.015 29.454 196.575 29.2253 196.976 28.768C197.378 28.3107 197.578 27.6947 197.578 26.92V25.912C197.578 25.1373 197.378 24.5213 196.976 24.064C196.575 23.6067 196.015 23.378 195.296 23.378C195.016 23.378 194.75 23.42 194.498 23.504C194.256 23.5787 194.041 23.686 193.854 23.826C193.668 23.966 193.518 24.134 193.406 24.33C193.304 24.526 193.252 24.7407 193.252 24.974V27.816C193.252 28.068 193.304 28.2967 193.406 28.502C193.518 28.698 193.668 28.8707 193.854 29.02C194.041 29.16 194.256 29.2673 194.498 29.342C194.75 29.4167 195.016 29.454 195.296 29.454ZM200.885 20.886C200.699 20.886 200.559 20.8393 200.465 20.746C200.381 20.6527 200.339 20.5313 200.339 20.382V20.242C200.339 20.0927 200.381 19.9713 200.465 19.878C200.559 19.7847 200.699 19.738 200.885 19.738C201.072 19.738 201.207 19.7847 201.291 19.878C201.385 19.9713 201.431 20.0927 201.431 20.242V20.382C201.431 20.5313 201.385 20.6527 201.291 20.746C201.207 20.8393 201.072 20.886 200.885 20.886ZM200.493 22.832H201.291V30H200.493V22.832ZM203.898 30V22.832H204.696V23.966H204.738C204.896 23.5927 205.144 23.2847 205.48 23.042C205.816 22.79 206.273 22.664 206.852 22.664C207.617 22.664 208.21 22.902 208.63 23.378C209.059 23.8447 209.274 24.5167 209.274 25.394V30H208.476V25.534C208.476 24.806 208.317 24.2647 208 23.91C207.692 23.5553 207.239 23.378 206.642 23.378C206.39 23.378 206.147 23.4107 205.914 23.476C205.68 23.5413 205.47 23.6393 205.284 23.77C205.106 23.9007 204.962 24.0687 204.85 24.274C204.747 24.47 204.696 24.6987 204.696 24.96V30H203.898ZM217.666 30.84C217.666 31.568 217.372 32.1047 216.784 32.45C216.206 32.7953 215.352 32.968 214.222 32.968C213.13 32.968 212.342 32.8093 211.856 32.492C211.371 32.1747 211.128 31.736 211.128 31.176C211.128 30.7653 211.236 30.4387 211.45 30.196C211.665 29.9533 211.968 29.776 212.36 29.664V29.552C211.912 29.3747 211.688 29.048 211.688 28.572C211.688 28.2173 211.805 27.9467 212.038 27.76C212.272 27.5733 212.561 27.4333 212.906 27.34V27.284C212.486 27.0973 212.16 26.8173 211.926 26.444C211.693 26.0707 211.576 25.6227 211.576 25.1C211.576 24.736 211.637 24.4047 211.758 24.106C211.88 23.8073 212.052 23.5507 212.276 23.336C212.51 23.1213 212.785 22.958 213.102 22.846C213.429 22.7247 213.788 22.664 214.18 22.664C214.731 22.664 215.212 22.7807 215.622 23.014V22.664C215.622 22.4493 215.674 22.2767 215.776 22.146C215.879 22.006 216.047 21.936 216.28 21.936H217.512V22.636H216.056V23.322C216.299 23.5367 216.486 23.798 216.616 24.106C216.747 24.4047 216.812 24.736 216.812 25.1C216.812 25.464 216.747 25.7953 216.616 26.094C216.495 26.3927 216.318 26.654 216.084 26.878C215.86 27.0927 215.585 27.2607 215.258 27.382C214.941 27.494 214.586 27.55 214.194 27.55C214.064 27.55 213.938 27.5407 213.816 27.522C213.695 27.5033 213.574 27.4847 213.452 27.466C213.144 27.55 212.888 27.6667 212.682 27.816C212.486 27.956 212.388 28.1473 212.388 28.39C212.388 28.8193 212.771 29.034 213.536 29.034H215.202C216.07 29.034 216.696 29.1973 217.078 29.524C217.47 29.8413 217.666 30.28 217.666 30.84ZM216.896 30.896C216.896 30.5507 216.77 30.2753 216.518 30.07C216.276 29.874 215.837 29.776 215.202 29.776H212.878C212.57 29.8787 212.328 30.0327 212.15 30.238C211.973 30.4433 211.884 30.7 211.884 31.008C211.884 31.3813 212.038 31.6893 212.346 31.932C212.654 32.184 213.121 32.31 213.746 32.31H214.642C215.342 32.31 215.893 32.1933 216.294 31.96C216.696 31.736 216.896 31.3813 216.896 30.896ZM214.194 26.906C214.745 26.906 215.174 26.7707 215.482 26.5C215.8 26.22 215.958 25.828 215.958 25.324V24.876C215.958 24.3813 215.8 23.9987 215.482 23.728C215.174 23.448 214.745 23.308 214.194 23.308C213.634 23.308 213.2 23.448 212.892 23.728C212.584 23.9987 212.43 24.3813 212.43 24.876V25.324C212.43 25.828 212.584 26.22 212.892 26.5C213.21 26.7707 213.644 26.906 214.194 26.906ZM223.737 30C223.448 30 223.228 29.9207 223.079 29.762C222.93 29.6033 222.855 29.3887 222.855 29.118V23.532H221.609V22.832H222.421C222.617 22.832 222.748 22.7947 222.813 22.72C222.888 22.636 222.925 22.4913 222.925 22.286V20.83H223.653V22.832H225.277V23.532H223.653V29.3H225.165V30H223.737ZM229.688 30.168C229.212 30.168 228.783 30.084 228.4 29.916C228.017 29.748 227.691 29.5053 227.42 29.188C227.149 28.8613 226.939 28.4647 226.79 27.998C226.641 27.5313 226.566 27.004 226.566 26.416C226.566 25.828 226.641 25.3053 226.79 24.848C226.939 24.3813 227.149 23.9893 227.42 23.672C227.691 23.3453 228.017 23.098 228.4 22.93C228.783 22.7527 229.212 22.664 229.688 22.664C230.164 22.664 230.593 22.7527 230.976 22.93C231.359 23.098 231.685 23.3453 231.956 23.672C232.227 23.9893 232.437 24.3813 232.586 24.848C232.735 25.3053 232.81 25.828 232.81 26.416C232.81 27.004 232.735 27.5313 232.586 27.998C232.437 28.4647 232.227 28.8613 231.956 29.188C231.685 29.5053 231.359 29.748 230.976 29.916C230.593 30.084 230.164 30.168 229.688 30.168ZM229.688 29.454C230.388 29.454 230.939 29.2347 231.34 28.796C231.751 28.3573 231.956 27.7133 231.956 26.864V25.968C231.956 25.128 231.751 24.4887 231.34 24.05C230.939 23.602 230.388 23.378 229.688 23.378C228.988 23.378 228.433 23.5973 228.022 24.036C227.621 24.4747 227.42 25.1187 227.42 25.968V26.864C227.42 27.704 227.621 28.348 228.022 28.796C228.433 29.2347 228.988 29.454 229.688 29.454ZM238.146 30V22.832H238.944V24.12H239C239.14 23.784 239.378 23.4853 239.714 23.224C240.05 22.9627 240.526 22.832 241.142 22.832H241.618V23.616H240.988C240.39 23.616 239.9 23.7467 239.518 24.008C239.135 24.2693 238.944 24.6333 238.944 25.1V30H238.146ZM245.671 30.168C245.195 30.168 244.761 30.084 244.369 29.916C243.986 29.748 243.655 29.5053 243.375 29.188C243.104 28.8613 242.894 28.4647 242.745 27.998C242.605 27.5313 242.535 27.004 242.535 26.416C242.535 25.828 242.605 25.3053 242.745 24.848C242.894 24.3813 243.104 23.9893 243.375 23.672C243.655 23.3453 243.986 23.098 244.369 22.93C244.751 22.7527 245.181 22.664 245.657 22.664C246.114 22.664 246.529 22.7527 246.903 22.93C247.276 23.098 247.593 23.336 247.855 23.644C248.116 23.952 248.317 24.3253 248.457 24.764C248.606 25.1933 248.681 25.6693 248.681 26.192V26.57H243.375V26.92C243.375 27.2933 243.426 27.6387 243.529 27.956C243.641 28.264 243.795 28.53 243.991 28.754C244.196 28.978 244.443 29.1553 244.733 29.286C245.022 29.4073 245.349 29.468 245.713 29.468C246.758 29.468 247.481 28.9873 247.883 28.026L248.471 28.418C248.247 28.95 247.892 29.3747 247.407 29.692C246.931 30.0093 246.352 30.168 245.671 30.168ZM245.657 23.336C245.311 23.336 244.999 23.4013 244.719 23.532C244.439 23.6533 244.196 23.826 243.991 24.05C243.795 24.274 243.641 24.5447 243.529 24.862C243.426 25.17 243.375 25.5107 243.375 25.884V25.954H247.813V25.842C247.813 25.4687 247.761 25.128 247.659 24.82C247.556 24.5027 247.407 24.2367 247.211 24.022C247.024 23.8073 246.795 23.6393 246.525 23.518C246.263 23.3967 245.974 23.336 245.657 23.336ZM253.23 30.168C252.241 30.168 251.476 29.8413 250.934 29.188C250.402 28.5347 250.136 27.6107 250.136 26.416C250.136 25.2213 250.402 24.2973 250.934 23.644C251.476 22.9907 252.241 22.664 253.23 22.664C253.893 22.664 254.43 22.8087 254.84 23.098C255.251 23.3873 255.564 23.77 255.778 24.246L255.106 24.582C254.938 24.19 254.7 23.8913 254.392 23.686C254.094 23.4807 253.706 23.378 253.23 23.378C252.502 23.378 251.947 23.6113 251.564 24.078C251.182 24.5447 250.99 25.156 250.99 25.912V26.92C250.99 27.676 251.182 28.2873 251.564 28.754C251.947 29.2207 252.502 29.454 253.23 29.454C253.725 29.454 254.14 29.3467 254.476 29.132C254.812 28.9173 255.083 28.6093 255.288 28.208L255.876 28.6C255.643 29.076 255.307 29.4587 254.868 29.748C254.439 30.028 253.893 30.168 253.23 30.168ZM260.094 30.168C259.618 30.168 259.189 30.084 258.806 29.916C258.423 29.748 258.097 29.5053 257.826 29.188C257.555 28.8613 257.345 28.4647 257.196 27.998C257.047 27.5313 256.972 27.004 256.972 26.416C256.972 25.828 257.047 25.3053 257.196 24.848C257.345 24.3813 257.555 23.9893 257.826 23.672C258.097 23.3453 258.423 23.098 258.806 22.93C259.189 22.7527 259.618 22.664 260.094 22.664C260.57 22.664 260.999 22.7527 261.382 22.93C261.765 23.098 262.091 23.3453 262.362 23.672C262.633 23.9893 262.843 24.3813 262.992 24.848C263.141 25.3053 263.216 25.828 263.216 26.416C263.216 27.004 263.141 27.5313 262.992 27.998C262.843 28.4647 262.633 28.8613 262.362 29.188C262.091 29.5053 261.765 29.748 261.382 29.916C260.999 30.084 260.57 30.168 260.094 30.168ZM260.094 29.454C260.794 29.454 261.345 29.2347 261.746 28.796C262.157 28.3573 262.362 27.7133 262.362 26.864V25.968C262.362 25.128 262.157 24.4887 261.746 24.05C261.345 23.602 260.794 23.378 260.094 23.378C259.394 23.378 258.839 23.5973 258.428 24.036C258.027 24.4747 257.826 25.1187 257.826 25.968V26.864C257.826 27.704 258.027 28.348 258.428 28.796C258.839 29.2347 259.394 29.454 260.094 29.454ZM265.243 30V22.832H266.041V24.12H266.097C266.237 23.784 266.475 23.4853 266.811 23.224C267.147 22.9627 267.623 22.832 268.239 22.832H268.715V23.616H268.085C267.488 23.616 266.998 23.7467 266.615 24.008C266.233 24.2693 266.041 24.6333 266.041 25.1V30H265.243ZM274.827 28.852H274.785C274.598 29.2533 274.323 29.5753 273.959 29.818C273.604 30.0513 273.151 30.168 272.601 30.168C271.677 30.168 270.953 29.8413 270.431 29.188C269.908 28.5347 269.647 27.6107 269.647 26.416C269.647 25.2213 269.908 24.2973 270.431 23.644C270.953 22.9907 271.677 22.664 272.601 22.664C273.151 22.664 273.609 22.7853 273.973 23.028C274.337 23.2613 274.607 23.5787 274.785 23.98H274.827V19.64H275.625V30H274.827V28.852ZM272.783 29.454C273.063 29.454 273.324 29.4167 273.567 29.342C273.819 29.2673 274.038 29.16 274.225 29.02C274.411 28.8707 274.556 28.698 274.659 28.502C274.771 28.2967 274.827 28.068 274.827 27.816V24.974C274.827 24.7407 274.771 24.526 274.659 24.33C274.556 24.134 274.411 23.966 274.225 23.826C274.038 23.686 273.819 23.5787 273.567 23.504C273.324 23.42 273.063 23.378 272.783 23.378C272.064 23.378 271.504 23.6067 271.103 24.064C270.701 24.5213 270.501 25.1373 270.501 25.912V26.92C270.501 27.6947 270.701 28.3107 271.103 28.768C271.504 29.2253 272.064 29.454 272.783 29.454ZM18.694 42.886C18.5073 42.886 18.3673 42.8393 18.274 42.746C18.19 42.6527 18.148 42.5313 18.148 42.382V42.242C18.148 42.0927 18.19 41.9713 18.274 41.878C18.3673 41.7847 18.5073 41.738 18.694 41.738C18.8807 41.738 19.016 41.7847 19.1 41.878C19.1933 41.9713 19.24 42.0927 19.24 42.242V42.382C19.24 42.5313 19.1933 42.6527 19.1 42.746C19.016 42.8393 18.8807 42.886 18.694 42.886ZM18.302 44.832H19.1V52H18.302V44.832ZM22.9383 52C22.649 52 22.4296 51.9207 22.2803 51.762C22.131 51.6033 22.0563 51.3887 22.0563 51.118V45.532H20.8103V44.832H21.6223C21.8183 44.832 21.949 44.7947 22.0143 44.72C22.089 44.636 22.1263 44.4913 22.1263 44.286V42.83H22.8543V44.832H24.4783V45.532H22.8543V51.3H24.3663V52H22.9383ZM28.9031 52.168C28.4271 52.168 27.9931 52.084 27.6011 51.916C27.2184 51.748 26.8871 51.5053 26.6071 51.188C26.3364 50.8613 26.1264 50.4647 25.9771 49.998C25.8371 49.5313 25.7671 49.004 25.7671 48.416C25.7671 47.828 25.8371 47.3053 25.9771 46.848C26.1264 46.3813 26.3364 45.9893 26.6071 45.672C26.8871 45.3453 27.2184 45.098 27.6011 44.93C27.9837 44.7527 28.4131 44.664 28.8891 44.664C29.3464 44.664 29.7617 44.7527 30.1351 44.93C30.5084 45.098 30.8257 45.336 31.0871 45.644C31.3484 45.952 31.5491 46.3253 31.6891 46.764C31.8384 47.1933 31.9131 47.6693 31.9131 48.192V48.57H26.6071V48.92C26.6071 49.2933 26.6584 49.6387 26.7611 49.956C26.8731 50.264 27.0271 50.53 27.2231 50.754C27.4284 50.978 27.6757 51.1553 27.9651 51.286C28.2544 51.4073 28.5811 51.468 28.9451 51.468C29.9904 51.468 30.7137 50.9873 31.1151 50.026L31.7031 50.418C31.4791 50.95 31.1244 51.3747 30.6391 51.692C30.1631 52.0093 29.5844 52.168 28.9031 52.168ZM28.8891 45.336C28.5437 45.336 28.2311 45.4013 27.9511 45.532C27.6711 45.6533 27.4284 45.826 27.2231 46.05C27.0271 46.274 26.8731 46.5447 26.7611 46.862C26.6584 47.17 26.6071 47.5107 26.6071 47.884V47.954H31.0451V47.842C31.0451 47.4687 30.9937 47.128 30.8911 46.82C30.7884 46.5027 30.6391 46.2367 30.4431 46.022C30.2564 45.8073 30.0277 45.6393 29.7571 45.518C29.4957 45.3967 29.2064 45.336 28.8891 45.336ZM33.9426 52V44.832H34.7406V45.966H34.7826C34.8573 45.7887 34.9506 45.6253 35.0626 45.476C35.1746 45.3173 35.31 45.1773 35.4686 45.056C35.6273 44.9347 35.814 44.8413 36.0286 44.776C36.2526 44.7013 36.514 44.664 36.8126 44.664C37.326 44.664 37.7786 44.7853 38.1706 45.028C38.5626 45.2707 38.8473 45.6533 39.0246 46.176H39.0666C39.1973 45.756 39.4446 45.4013 39.8086 45.112C40.182 44.8133 40.686 44.664 41.3206 44.664C42.086 44.664 42.674 44.902 43.0846 45.378C43.4953 45.8447 43.7006 46.5167 43.7006 47.394V52H42.9026V47.534C42.9026 46.0967 42.3006 45.378 41.0966 45.378C40.8446 45.378 40.6066 45.4107 40.3826 45.476C40.1586 45.5413 39.958 45.644 39.7806 45.784C39.6126 45.9147 39.4773 46.0827 39.3746 46.288C39.272 46.484 39.2206 46.7127 39.2206 46.974V52H38.4226V47.534C38.4226 46.0967 37.8253 45.378 36.6306 45.378C36.388 45.378 36.15 45.4107 35.9166 45.476C35.6926 45.5413 35.492 45.6393 35.3146 45.77C35.1373 45.9007 34.9973 46.0687 34.8946 46.274C34.792 46.47 34.7406 46.6987 34.7406 46.96V52H33.9426ZM48.2363 52.168C47.611 52.168 47.0743 52.0513 46.6263 51.818C46.1876 51.5847 45.805 51.244 45.4783 50.796L46.0663 50.334C46.365 50.726 46.6916 51.0153 47.0463 51.202C47.401 51.3887 47.8163 51.482 48.2923 51.482C48.843 51.482 49.2676 51.3653 49.5663 51.132C49.865 50.8987 50.0143 50.5627 50.0143 50.124C50.0143 49.7413 49.8976 49.4427 49.6643 49.228C49.4403 49.004 49.067 48.8547 48.5443 48.78L47.9563 48.682C47.6296 48.6353 47.331 48.5653 47.0603 48.472C46.7896 48.3787 46.5563 48.2527 46.3603 48.094C46.1736 47.9353 46.0243 47.744 45.9123 47.52C45.8096 47.2867 45.7583 47.0067 45.7583 46.68C45.7583 46.344 45.819 46.05 45.9403 45.798C46.071 45.546 46.2436 45.336 46.4583 45.168C46.673 45 46.9296 44.874 47.2283 44.79C47.527 44.706 47.849 44.664 48.1943 44.664C48.7916 44.664 49.2816 44.7667 49.6643 44.972C50.047 45.1773 50.3736 45.4433 50.6443 45.77L50.1123 46.26C49.9256 46.036 49.6736 45.8307 49.3563 45.644C49.0483 45.448 48.647 45.35 48.1523 45.35C47.639 45.35 47.2376 45.462 46.9483 45.686C46.6683 45.91 46.5283 46.2273 46.5283 46.638C46.5283 47.058 46.6543 47.3613 46.9063 47.548C47.1676 47.7347 47.555 47.87 48.0683 47.954L48.6423 48.038C49.3703 48.15 49.907 48.3693 50.2523 48.696C50.607 49.0133 50.7843 49.4613 50.7843 50.04C50.7843 50.712 50.5556 51.2347 50.0983 51.608C49.6503 51.9813 49.0296 52.168 48.2363 52.168ZM57.4188 52C57.1294 52 56.9101 51.9207 56.7608 51.762C56.6114 51.6033 56.5368 51.3887 56.5368 51.118V45.532H55.2908V44.832H56.1028C56.2988 44.832 56.4294 44.7947 56.4948 44.72C56.5694 44.636 56.6068 44.4913 56.6068 44.286V42.83H57.3348V44.832H58.9588V45.532H57.3348V51.3H58.8468V52H57.4188ZM63.3695 52.168C62.8935 52.168 62.4642 52.084 62.0815 51.916C61.6989 51.748 61.3722 51.5053 61.1015 51.188C60.8309 50.8613 60.6209 50.4647 60.4715 49.998C60.3222 49.5313 60.2475 49.004 60.2475 48.416C60.2475 47.828 60.3222 47.3053 60.4715 46.848C60.6209 46.3813 60.8309 45.9893 61.1015 45.672C61.3722 45.3453 61.6989 45.098 62.0815 44.93C62.4642 44.7527 62.8935 44.664 63.3695 44.664C63.8455 44.664 64.2749 44.7527 64.6575 44.93C65.0402 45.098 65.3669 45.3453 65.6375 45.672C65.9082 45.9893 66.1182 46.3813 66.2675 46.848C66.4169 47.3053 66.4915 47.828 66.4915 48.416C66.4915 49.004 66.4169 49.5313 66.2675 49.998C66.1182 50.4647 65.9082 50.8613 65.6375 51.188C65.3669 51.5053 65.0402 51.748 64.6575 51.916C64.2749 52.084 63.8455 52.168 63.3695 52.168ZM63.3695 51.454C64.0695 51.454 64.6202 51.2347 65.0215 50.796C65.4322 50.3573 65.6375 49.7133 65.6375 48.864V47.968C65.6375 47.128 65.4322 46.4887 65.0215 46.05C64.6202 45.602 64.0695 45.378 63.3695 45.378C62.6695 45.378 62.1142 45.5973 61.7035 46.036C61.3022 46.4747 61.1015 47.1187 61.1015 47.968V48.864C61.1015 49.704 61.3022 50.348 61.7035 50.796C62.1142 51.2347 62.6695 51.454 63.3695 51.454ZM74.3894 52.168C73.9134 52.168 73.4794 52.084 73.0874 51.916C72.7047 51.748 72.3734 51.5053 72.0934 51.188C71.8227 50.8613 71.6127 50.4647 71.4634 49.998C71.3234 49.5313 71.2534 49.004 71.2534 48.416C71.2534 47.828 71.3234 47.3053 71.4634 46.848C71.6127 46.3813 71.8227 45.9893 72.0934 45.672C72.3734 45.3453 72.7047 45.098 73.0874 44.93C73.4701 44.7527 73.8994 44.664 74.3754 44.664C74.8327 44.664 75.2481 44.7527 75.6214 44.93C75.9947 45.098 76.3121 45.336 76.5734 45.644C76.8347 45.952 77.0354 46.3253 77.1754 46.764C77.3247 47.1933 77.3994 47.6693 77.3994 48.192V48.57H72.0934V48.92C72.0934 49.2933 72.1447 49.6387 72.2474 49.956C72.3594 50.264 72.5134 50.53 72.7094 50.754C72.9147 50.978 73.1621 51.1553 73.4514 51.286C73.7407 51.4073 74.0674 51.468 74.4314 51.468C75.4767 51.468 76.2001 50.9873 76.6014 50.026L77.1894 50.418C76.9654 50.95 76.6107 51.3747 76.1254 51.692C75.6494 52.0093 75.0707 52.168 74.3894 52.168ZM74.3754 45.336C74.0301 45.336 73.7174 45.4013 73.4374 45.532C73.1574 45.6533 72.9147 45.826 72.7094 46.05C72.5134 46.274 72.3594 46.5447 72.2474 46.862C72.1447 47.17 72.0934 47.5107 72.0934 47.884V47.954H76.5314V47.842C76.5314 47.4687 76.4801 47.128 76.3774 46.82C76.2747 46.5027 76.1254 46.2367 75.9294 46.022C75.7427 45.8073 75.5141 45.6393 75.2434 45.518C74.9821 45.3967 74.6927 45.336 74.3754 45.336ZM84.357 52C84.049 52 83.825 51.9207 83.685 51.762C83.545 51.6033 83.4656 51.3887 83.447 51.118V50.866H83.377C83.2183 51.2673 82.957 51.5847 82.593 51.818C82.229 52.0513 81.767 52.168 81.207 52.168C80.451 52.168 79.8676 51.986 79.457 51.622C79.0463 51.2487 78.841 50.726 78.841 50.054C78.841 49.4193 79.065 48.9153 79.513 48.542C79.9703 48.1687 80.717 47.982 81.753 47.982H83.405V47.142C83.405 45.9567 82.7936 45.364 81.571 45.364C81.095 45.364 80.6983 45.4667 80.381 45.672C80.0636 45.868 79.807 46.1527 79.611 46.526L79.107 46.106C79.303 45.686 79.6016 45.3407 80.003 45.07C80.4136 44.7993 80.9456 44.664 81.599 44.664C82.439 44.664 83.083 44.874 83.531 45.294C83.979 45.714 84.203 46.302 84.203 47.058V51.3H85.169V52H84.357ZM81.319 51.482C81.6083 51.482 81.879 51.4447 82.131 51.37C82.383 51.2953 82.6023 51.1927 82.789 51.062C82.985 50.922 83.1343 50.7587 83.237 50.572C83.349 50.376 83.405 50.1567 83.405 49.914V48.584H81.725C81.0063 48.584 80.4836 48.7007 80.157 48.934C79.8396 49.158 79.681 49.4707 79.681 49.872V50.208C79.681 50.628 79.8303 50.9453 80.129 51.16C80.4276 51.3747 80.8243 51.482 81.319 51.482ZM88.8418 52.168C88.2164 52.168 87.6798 52.0513 87.2318 51.818C86.7931 51.5847 86.4104 51.244 86.0838 50.796L86.6718 50.334C86.9704 50.726 87.2971 51.0153 87.6518 51.202C88.0064 51.3887 88.4218 51.482 88.8978 51.482C89.4484 51.482 89.8731 51.3653 90.1718 51.132C90.4704 50.8987 90.6198 50.5627 90.6198 50.124C90.6198 49.7413 90.5031 49.4427 90.2698 49.228C90.0458 49.004 89.6724 48.8547 89.1498 48.78L88.5618 48.682C88.2351 48.6353 87.9364 48.5653 87.6658 48.472C87.3951 48.3787 87.1618 48.2527 86.9658 48.094C86.7791 47.9353 86.6298 47.744 86.5178 47.52C86.4151 47.2867 86.3638 47.0067 86.3638 46.68C86.3638 46.344 86.4244 46.05 86.5458 45.798C86.6764 45.546 86.8491 45.336 87.0638 45.168C87.2784 45 87.5351 44.874 87.8338 44.79C88.1324 44.706 88.4544 44.664 88.7998 44.664C89.3971 44.664 89.8871 44.7667 90.2698 44.972C90.6524 45.1773 90.9791 45.4433 91.2498 45.77L90.7178 46.26C90.5311 46.036 90.2791 45.8307 89.9618 45.644C89.6538 45.448 89.2524 45.35 88.7578 45.35C88.2444 45.35 87.8431 45.462 87.5538 45.686C87.2738 45.91 87.1338 46.2273 87.1338 46.638C87.1338 47.058 87.2598 47.3613 87.5118 47.548C87.7731 47.7347 88.1604 47.87 88.6738 47.954L89.2478 48.038C89.9758 48.15 90.5124 48.3693 90.8578 48.696C91.2124 49.0133 91.3898 49.4613 91.3898 50.04C91.3898 50.712 91.1611 51.2347 90.7038 51.608C90.2558 51.9813 89.6351 52.168 88.8418 52.168ZM93.8756 42.886C93.689 42.886 93.549 42.8393 93.4556 42.746C93.3716 42.6527 93.3296 42.5313 93.3296 42.382V42.242C93.3296 42.0927 93.3716 41.9713 93.4556 41.878C93.549 41.7847 93.689 41.738 93.8756 41.738C94.0623 41.738 94.1976 41.7847 94.2816 41.878C94.375 41.9713 94.4216 42.0927 94.4216 42.242V42.382C94.4216 42.5313 94.375 42.6527 94.2816 42.746C94.1976 42.8393 94.0623 42.886 93.8756 42.886ZM93.4836 44.832H94.2816V52H93.4836V44.832ZM97.7699 52C97.4806 52 97.2613 51.9207 97.1119 51.762C96.9626 51.6033 96.8879 51.3933 96.8879 51.132V41.64H97.6859V51.3H98.7919V52H97.7699ZM104.754 44.832H105.566L102.248 54.016C102.136 54.3147 102.001 54.52 101.842 54.632C101.683 54.744 101.422 54.8 101.058 54.8H100.246V54.1H101.45L102.136 52.21L99.476 44.832H100.316L102.514 51.146H102.57L104.754 44.832ZM114.958 50.866H114.902C114.836 51.034 114.748 51.1973 114.636 51.356C114.524 51.5147 114.384 51.6547 114.216 51.776C114.048 51.888 113.847 51.9813 113.614 52.056C113.39 52.1307 113.124 52.168 112.816 52.168C112.05 52.168 111.453 51.9347 111.024 51.468C110.594 50.992 110.38 50.3153 110.38 49.438V44.832H111.178V49.284C111.178 50.0213 111.336 50.5673 111.654 50.922C111.971 51.2767 112.428 51.454 113.026 51.454C113.278 51.454 113.516 51.4213 113.74 51.356C113.973 51.2907 114.178 51.1927 114.356 51.062C114.542 50.9313 114.687 50.768 114.79 50.572C114.902 50.3667 114.958 50.1287 114.958 49.858V44.832H115.756V52H114.958V50.866ZM118.366 44.832H119.164V45.98H119.206C119.384 45.5787 119.654 45.2613 120.018 45.028C120.382 44.7853 120.84 44.664 121.39 44.664C122.314 44.664 123.038 44.9907 123.56 45.644C124.083 46.2973 124.344 47.2213 124.344 48.416C124.344 49.6107 124.083 50.5347 123.56 51.188C123.038 51.8413 122.314 52.168 121.39 52.168C120.84 52.168 120.387 52.0513 120.032 51.818C119.678 51.5753 119.402 51.2533 119.206 50.852H119.164V54.8H118.366V44.832ZM121.208 51.454C121.927 51.454 122.487 51.2253 122.888 50.768C123.29 50.3107 123.49 49.6947 123.49 48.92V47.912C123.49 47.1373 123.29 46.5213 122.888 46.064C122.487 45.6067 121.927 45.378 121.208 45.378C120.928 45.378 120.662 45.42 120.41 45.504C120.168 45.5787 119.953 45.686 119.766 45.826C119.58 45.966 119.43 46.134 119.318 46.33C119.216 46.526 119.164 46.7407 119.164 46.974V49.816C119.164 50.068 119.216 50.2967 119.318 50.502C119.43 50.698 119.58 50.8707 119.766 51.02C119.953 51.16 120.168 51.2673 120.41 51.342C120.662 51.4167 120.928 51.454 121.208 51.454ZM131.04 50.852H130.998C130.811 51.2533 130.536 51.5753 130.172 51.818C129.817 52.0513 129.364 52.168 128.814 52.168C127.89 52.168 127.166 51.8413 126.644 51.188C126.121 50.5347 125.86 49.6107 125.86 48.416C125.86 47.2213 126.121 46.2973 126.644 45.644C127.166 44.9907 127.89 44.664 128.814 44.664C129.364 44.664 129.822 44.7853 130.186 45.028C130.55 45.2613 130.82 45.5787 130.998 45.98H131.04V41.64H131.838V52H131.04V50.852ZM128.996 51.454C129.276 51.454 129.537 51.4167 129.78 51.342C130.032 51.2673 130.251 51.16 130.438 51.02C130.624 50.8707 130.769 50.698 130.872 50.502C130.984 50.2967 131.04 50.068 131.04 49.816V46.974C131.04 46.7407 130.984 46.526 130.872 46.33C130.769 46.134 130.624 45.966 130.438 45.826C130.251 45.686 130.032 45.5787 129.78 45.504C129.537 45.42 129.276 45.378 128.996 45.378C128.277 45.378 127.717 45.6067 127.316 46.064C126.914 46.5213 126.714 47.1373 126.714 47.912V48.92C126.714 49.6947 126.914 50.3107 127.316 50.768C127.717 51.2253 128.277 51.454 128.996 51.454ZM139.373 52C139.065 52 138.841 51.9207 138.701 51.762C138.561 51.6033 138.481 51.3887 138.463 51.118V50.866H138.393C138.234 51.2673 137.973 51.5847 137.609 51.818C137.245 52.0513 136.783 52.168 136.223 52.168C135.467 52.168 134.883 51.986 134.473 51.622C134.062 51.2487 133.857 50.726 133.857 50.054C133.857 49.4193 134.081 48.9153 134.529 48.542C134.986 48.1687 135.733 47.982 136.769 47.982H138.421V47.142C138.421 45.9567 137.809 45.364 136.587 45.364C136.111 45.364 135.714 45.4667 135.397 45.672C135.079 45.868 134.823 46.1527 134.627 46.526L134.123 46.106C134.319 45.686 134.617 45.3407 135.019 45.07C135.429 44.7993 135.961 44.664 136.615 44.664C137.455 44.664 138.099 44.874 138.547 45.294C138.995 45.714 139.219 46.302 139.219 47.058V51.3H140.185V52H139.373ZM136.335 51.482C136.624 51.482 136.895 51.4447 137.147 51.37C137.399 51.2953 137.618 51.1927 137.805 51.062C138.001 50.922 138.15 50.7587 138.253 50.572C138.365 50.376 138.421 50.1567 138.421 49.914V48.584H136.741C136.022 48.584 135.499 48.7007 135.173 48.934C134.855 49.158 134.697 49.4707 134.697 49.872V50.208C134.697 50.628 134.846 50.9453 135.145 51.16C135.443 51.3747 135.84 51.482 136.335 51.482ZM143.087 52C142.797 52 142.578 51.9207 142.429 51.762C142.279 51.6033 142.205 51.3887 142.205 51.118V45.532H140.959V44.832H141.771C141.967 44.832 142.097 44.7947 142.163 44.72C142.237 44.636 142.275 44.4913 142.275 44.286V42.83H143.003V44.832H144.627V45.532H143.003V51.3H144.515V52H143.087ZM149.052 52.168C148.576 52.168 148.142 52.084 147.75 51.916C147.367 51.748 147.036 51.5053 146.756 51.188C146.485 50.8613 146.275 50.4647 146.126 49.998C145.986 49.5313 145.916 49.004 145.916 48.416C145.916 47.828 145.986 47.3053 146.126 46.848C146.275 46.3813 146.485 45.9893 146.756 45.672C147.036 45.3453 147.367 45.098 147.75 44.93C148.132 44.7527 148.562 44.664 149.038 44.664C149.495 44.664 149.91 44.7527 150.284 44.93C150.657 45.098 150.974 45.336 151.236 45.644C151.497 45.952 151.698 46.3253 151.838 46.764C151.987 47.1933 152.062 47.6693 152.062 48.192V48.57H146.756V48.92C146.756 49.2933 146.807 49.6387 146.91 49.956C147.022 50.264 147.176 50.53 147.372 50.754C147.577 50.978 147.824 51.1553 148.114 51.286C148.403 51.4073 148.73 51.468 149.094 51.468C150.139 51.468 150.862 50.9873 151.264 50.026L151.852 50.418C151.628 50.95 151.273 51.3747 150.788 51.692C150.312 52.0093 149.733 52.168 149.052 52.168ZM149.038 45.336C148.692 45.336 148.38 45.4013 148.1 45.532C147.82 45.6533 147.577 45.826 147.372 46.05C147.176 46.274 147.022 46.5447 146.91 46.862C146.807 47.17 146.756 47.5107 146.756 47.884V47.954H151.194V47.842C151.194 47.4687 151.142 47.128 151.04 46.82C150.937 46.5027 150.788 46.2367 150.592 46.022C150.405 45.8073 150.176 45.6393 149.906 45.518C149.644 45.3967 149.355 45.336 149.038 45.336ZM158.632 52C158.342 52 158.123 51.9207 157.974 51.762C157.824 51.6033 157.75 51.3887 157.75 51.118V45.532H156.504V44.832H157.316C157.512 44.832 157.642 44.7947 157.708 44.72C157.782 44.636 157.82 44.4913 157.82 44.286V42.83H158.548V44.832H160.172V45.532H158.548V51.3H160.06V52H158.632ZM162.089 41.64H162.887V45.966H162.929C163.088 45.5927 163.335 45.2847 163.671 45.042C164.007 44.79 164.464 44.664 165.043 44.664C165.808 44.664 166.401 44.902 166.821 45.378C167.25 45.8447 167.465 46.5167 167.465 47.394V52H166.667V47.534C166.667 46.806 166.508 46.2647 166.191 45.91C165.883 45.5553 165.43 45.378 164.833 45.378C164.581 45.378 164.338 45.4107 164.105 45.476C163.872 45.5413 163.662 45.6393 163.475 45.77C163.298 45.9007 163.153 46.0687 163.041 46.274C162.938 46.47 162.887 46.6987 162.887 46.96V52H162.089V41.64ZM172.54 52.168C172.064 52.168 171.63 52.084 171.238 51.916C170.855 51.748 170.524 51.5053 170.244 51.188C169.973 50.8613 169.763 50.4647 169.614 49.998C169.474 49.5313 169.404 49.004 169.404 48.416C169.404 47.828 169.474 47.3053 169.614 46.848C169.763 46.3813 169.973 45.9893 170.244 45.672C170.524 45.3453 170.855 45.098 171.238 44.93C171.62 44.7527 172.05 44.664 172.526 44.664C172.983 44.664 173.398 44.7527 173.772 44.93C174.145 45.098 174.462 45.336 174.724 45.644C174.985 45.952 175.186 46.3253 175.326 46.764C175.475 47.1933 175.55 47.6693 175.55 48.192V48.57H170.244V48.92C170.244 49.2933 170.295 49.6387 170.398 49.956C170.51 50.264 170.664 50.53 170.86 50.754C171.065 50.978 171.312 51.1553 171.602 51.286C171.891 51.4073 172.218 51.468 172.582 51.468C173.627 51.468 174.35 50.9873 174.752 50.026L175.34 50.418C175.116 50.95 174.761 51.3747 174.276 51.692C173.8 52.0093 173.221 52.168 172.54 52.168ZM172.526 45.336C172.18 45.336 171.868 45.4013 171.588 45.532C171.308 45.6533 171.065 45.826 170.86 46.05C170.664 46.274 170.51 46.5447 170.398 46.862C170.295 47.17 170.244 47.5107 170.244 47.884V47.954H174.682V47.842C174.682 47.4687 174.63 47.128 174.528 46.82C174.425 46.5027 174.276 46.2367 174.08 46.022C173.893 45.8073 173.664 45.6393 173.394 45.518C173.132 45.3967 172.843 45.336 172.526 45.336ZM181.28 42.886C181.093 42.886 180.953 42.8393 180.86 42.746C180.776 42.6527 180.734 42.5313 180.734 42.382V42.242C180.734 42.0927 180.776 41.9713 180.86 41.878C180.953 41.7847 181.093 41.738 181.28 41.738C181.467 41.738 181.602 41.7847 181.686 41.878C181.779 41.9713 181.826 42.0927 181.826 42.242V42.382C181.826 42.5313 181.779 42.6527 181.686 42.746C181.602 42.8393 181.467 42.886 181.28 42.886ZM180.888 44.832H181.686V52H180.888V44.832ZM184.292 52V44.832H185.09V45.966H185.132C185.291 45.5927 185.538 45.2847 185.874 45.042C186.21 44.79 186.668 44.664 187.246 44.664C188.012 44.664 188.604 44.902 189.024 45.378C189.454 45.8447 189.668 46.5167 189.668 47.394V52H188.87V47.534C188.87 46.806 188.712 46.2647 188.394 45.91C188.086 45.5553 187.634 45.378 187.036 45.378C186.784 45.378 186.542 45.4107 186.308 45.476C186.075 45.5413 185.865 45.6393 185.678 45.77C185.501 45.9007 185.356 46.0687 185.244 46.274C185.142 46.47 185.09 46.6987 185.09 46.96V52H184.292ZM191.05 44.832H191.89L194.088 51.146H194.144L196.328 44.832H197.14L194.55 52H193.64L191.05 44.832ZM201.182 52.168C200.706 52.168 200.272 52.084 199.88 51.916C199.498 51.748 199.166 51.5053 198.886 51.188C198.616 50.8613 198.406 50.4647 198.256 49.998C198.116 49.5313 198.046 49.004 198.046 48.416C198.046 47.828 198.116 47.3053 198.256 46.848C198.406 46.3813 198.616 45.9893 198.886 45.672C199.166 45.3453 199.498 45.098 199.88 44.93C200.263 44.7527 200.692 44.664 201.168 44.664C201.626 44.664 202.041 44.7527 202.414 44.93C202.788 45.098 203.105 45.336 203.366 45.644C203.628 45.952 203.828 46.3253 203.968 46.764C204.118 47.1933 204.192 47.6693 204.192 48.192V48.57H198.886V48.92C198.886 49.2933 198.938 49.6387 199.04 49.956C199.152 50.264 199.306 50.53 199.502 50.754C199.708 50.978 199.955 51.1553 200.244 51.286C200.534 51.4073 200.86 51.468 201.224 51.468C202.27 51.468 202.993 50.9873 203.394 50.026L203.982 50.418C203.758 50.95 203.404 51.3747 202.918 51.692C202.442 52.0093 201.864 52.168 201.182 52.168ZM201.168 45.336C200.823 45.336 200.51 45.4013 200.23 45.532C199.95 45.6533 199.708 45.826 199.502 46.05C199.306 46.274 199.152 46.5447 199.04 46.862C198.938 47.17 198.886 47.5107 198.886 47.884V47.954H203.324V47.842C203.324 47.4687 203.273 47.128 203.17 46.82C203.068 46.5027 202.918 46.2367 202.722 46.022C202.536 45.8073 202.307 45.6393 202.036 45.518C201.775 45.3967 201.486 45.336 201.168 45.336ZM206.222 52V44.832H207.02V45.966H207.062C207.221 45.5927 207.468 45.2847 207.804 45.042C208.14 44.79 208.597 44.664 209.176 44.664C209.941 44.664 210.534 44.902 210.954 45.378C211.383 45.8447 211.598 46.5167 211.598 47.394V52H210.8V47.534C210.8 46.806 210.641 46.2647 210.324 45.91C210.016 45.5553 209.563 45.378 208.966 45.378C208.714 45.378 208.471 45.4107 208.238 45.476C208.005 45.5413 207.795 45.6393 207.608 45.77C207.431 45.9007 207.286 46.0687 207.174 46.274C207.071 46.47 207.02 46.6987 207.02 46.96V52H206.222ZM215.343 52C215.053 52 214.834 51.9207 214.685 51.762C214.535 51.6033 214.461 51.3887 214.461 51.118V45.532H213.215V44.832H214.027C214.223 44.832 214.353 44.7947 214.419 44.72C214.493 44.636 214.531 44.4913 214.531 44.286V42.83H215.259V44.832H216.883V45.532H215.259V51.3H216.771V52H215.343ZM221.293 52.168C220.817 52.168 220.388 52.084 220.005 51.916C219.623 51.748 219.296 51.5053 219.025 51.188C218.755 50.8613 218.545 50.4647 218.395 49.998C218.246 49.5313 218.171 49.004 218.171 48.416C218.171 47.828 218.246 47.3053 218.395 46.848C218.545 46.3813 218.755 45.9893 219.025 45.672C219.296 45.3453 219.623 45.098 220.005 44.93C220.388 44.7527 220.817 44.664 221.293 44.664C221.769 44.664 222.199 44.7527 222.581 44.93C222.964 45.098 223.291 45.3453 223.561 45.672C223.832 45.9893 224.042 46.3813 224.191 46.848C224.341 47.3053 224.415 47.828 224.415 48.416C224.415 49.004 224.341 49.5313 224.191 49.998C224.042 50.4647 223.832 50.8613 223.561 51.188C223.291 51.5053 222.964 51.748 222.581 51.916C222.199 52.084 221.769 52.168 221.293 52.168ZM221.293 51.454C221.993 51.454 222.544 51.2347 222.945 50.796C223.356 50.3573 223.561 49.7133 223.561 48.864V47.968C223.561 47.128 223.356 46.4887 222.945 46.05C222.544 45.602 221.993 45.378 221.293 45.378C220.593 45.378 220.038 45.5973 219.627 46.036C219.226 46.4747 219.025 47.1187 219.025 47.968V48.864C219.025 49.704 219.226 50.348 219.627 50.796C220.038 51.2347 220.593 51.454 221.293 51.454ZM226.443 52V44.832H227.241V46.12H227.297C227.437 45.784 227.675 45.4853 228.011 45.224C228.347 44.9627 228.823 44.832 229.439 44.832H229.915V45.616H229.285C228.687 45.616 228.197 45.7467 227.815 46.008C227.432 46.2693 227.241 46.6333 227.241 47.1V52H226.443ZM235.922 44.832H236.734L233.416 54.016C233.304 54.3147 233.169 54.52 233.01 54.632C232.851 54.744 232.59 54.8 232.226 54.8H231.414V54.1H232.618L233.304 52.21L230.644 44.832H231.484L233.682 51.146H233.738L235.922 44.832Z" fill="white"/>
</svg>
