<svg width="8" height="16" viewBox="0 0 8 16" fill="none" xmlns="http://www.w3.org/2000/svg">
<path d="M4.5 1C4.5 0.723858 4.27614 0.5 4 0.5C3.72386 0.5 3.5 0.723858 3.5 1L4.5 1ZM3.64645 15.3536C3.84171 15.5488 4.15829 15.5488 4.35355 15.3536L7.53553 12.1716C7.7308 11.9763 7.7308 11.6597 7.53553 11.4645C7.34027 11.2692 7.02369 11.2692 6.82843 11.4645L4 14.2929L1.17157 11.4645C0.976311 11.2692 0.659729 11.2692 0.464467 11.4645C0.269204 11.6597 0.269204 11.9763 0.464467 12.1716L3.64645 15.3536ZM3.5 1L3.5 15L4.5 15L4.5 1L3.5 1Z" fill="#EFEFEF"/>
</svg>
