<svg width="18" height="18" viewBox="0 0 18 18" fill="none" xmlns="http://www.w3.org/2000/svg">
<path d="M9.95957 0.578734C9.44595 0.0727138 8.55408 0.0727138 8.04444 0.578734L1.22002 7.3507C0.837792 7.73022 0.837792 8.34693 1.22002 8.72644C1.59031 9.0941 2.23532 9.0941 2.60561 8.72644L8.02055 3.34603V16.8267C8.02055 17.3644 8.45852 17.7992 9.00002 17.7992C9.53753 17.7992 9.97948 17.3644 9.97948 16.8267V3.34998L15.3944 8.72644C15.5776 8.91225 15.8244 9.01108 16.0872 9.01108C16.35 9.01108 16.5969 8.90829 16.78 8.72644C17.1622 8.34693 17.1622 7.73022 16.78 7.3507L9.95957 0.578734Z" fill="white"/>
</svg>
