<svg width="206" height="36" viewBox="0 0 206 36" fill="none" xmlns="http://www.w3.org/2000/svg">
<path fill-rule="evenodd" clip-rule="evenodd" d="M16.1623 31.7442C12.5384 31.7442 9.74348 30.5822 7.85534 28.2904C5.9484 25.9771 4.98146 22.5107 4.98146 17.9882C4.98146 13.5279 5.9484 10.0932 7.85534 7.77939C9.74399 5.48766 12.5546 4.32567 16.209 4.32567C19.8466 4.32567 22.625 5.47903 24.4674 7.75349C26.3291 10.0528 27.273 13.4962 27.273 17.9882C27.273 22.5267 26.3251 25.9977 24.456 28.3047C22.6057 30.587 19.8156 31.7442 16.1623 31.7442ZM16.209 0C11.0622 0 7.02784 1.59047 4.21823 4.72773C1.41903 7.85229 0 12.2981 0 17.9414C0 23.6305 1.41497 28.1073 4.20553 31.2474C7.00727 34.4009 11.0304 36 16.1623 36C21.1856 36 25.1692 34.3732 28.0029 31.1646C30.824 27.9699 32.2544 23.5368 32.2544 17.9882C32.2544 12.4241 30.828 7.99097 28.0144 4.81129C25.1887 1.61867 21.2169 0 16.209 0Z" fill="#51AB31"/>
<path fill-rule="evenodd" clip-rule="evenodd" d="M51.0439 8.63838C49.2309 8.63838 47.5599 9.00158 46.0779 9.71834C44.8029 10.335 43.7572 11.1793 42.9617 12.2336L42.3986 9.10648H38.5337V35.5316H43.1873V21.687C43.1873 18.4568 43.7862 16.1232 44.9675 14.7503C46.1338 13.3943 48.0206 12.7068 50.5758 12.7068C52.4837 12.7068 53.8934 13.185 54.7653 14.1286C55.6454 15.0808 56.0914 16.5684 56.0914 18.55V35.5316H60.7449V18.4095C60.7449 15.0389 59.9174 12.5394 58.2853 10.9802C56.6578 9.42625 54.2215 8.63838 51.0439 8.63838Z" fill="#51AB31"/>
<path fill-rule="evenodd" clip-rule="evenodd" d="M78.1293 12.6598C80.0566 12.6598 81.4919 13.2544 82.5172 14.4773C83.4885 15.636 84.0074 17.3169 84.0617 19.4773H71.4629C71.7161 17.3987 72.3955 15.7417 73.4849 14.5482C74.6449 13.2775 76.164 12.6598 78.1293 12.6598ZM78.1763 8.63838C74.6398 8.63838 71.7801 9.91315 69.6766 12.4279C67.5901 14.922 66.532 18.3207 66.532 22.5297C66.532 26.7172 67.6742 30.0432 69.9268 32.4155C72.184 34.7938 75.2984 36 79.1829 36C80.9339 36 82.453 35.8672 83.698 35.6053C84.9436 35.3434 86.2795 34.9066 87.6691 34.3064L87.9007 34.2066V29.9076L87.3661 30.1364C84.7272 31.2654 82.0212 31.8379 79.3233 31.8379C76.8248 31.8379 74.8679 31.0917 73.5067 29.6201C72.1974 28.2051 71.4695 26.1155 71.3405 23.405H89.001V20.5634C89.001 17.0185 88.0234 14.1172 86.0954 11.9397C84.1552 9.74907 81.4908 8.63838 78.1763 8.63838Z" fill="#51AB31"/>
<path fill-rule="evenodd" clip-rule="evenodd" d="M91.1597 4.84076H101.999V35.5316H106.746V4.84076H117.585V0.538208H91.1597V4.84076Z" fill="#51AB31"/>
<path fill-rule="evenodd" clip-rule="evenodd" d="M133.472 8.63838C131.794 8.63838 130.233 9.11715 128.832 10.0617C127.651 10.8587 126.606 11.9527 125.718 13.3204L125.323 9.10648H121.383V35.5316H126.036V21.3827C126.036 18.9772 126.749 16.9438 128.154 15.3381C129.565 13.725 131.213 12.9407 133.19 12.9407C133.97 12.9407 134.888 13.056 135.917 13.2828L136.319 13.3717L136.972 9.00082L136.616 8.92717C135.689 8.73541 134.631 8.63838 133.472 8.63838Z" fill="#51AB31"/>
<path fill-rule="evenodd" clip-rule="evenodd" d="M158.254 22.9747C158.254 26.1902 157.658 28.5249 156.483 29.9137C155.325 31.2837 153.442 31.9784 150.889 31.9784C148.981 31.9784 147.571 31.4998 146.699 30.5565C145.819 29.6048 145.373 28.1172 145.373 26.1351V9.10649H140.672V26.2753C140.672 29.6315 141.496 32.1191 143.121 33.6697C144.739 35.2159 147.188 36 150.397 36C152.255 36 153.937 35.6487 155.396 34.9561C156.657 34.3572 157.695 33.5198 158.489 32.4622L158.99 35.5316H162.907V9.10649H158.254V22.9747Z" fill="#51AB31"/>
<path fill-rule="evenodd" clip-rule="evenodd" d="M179.677 20.2037C177.489 19.3877 175.995 18.7578 175.235 18.3321C174.508 17.9252 173.978 17.4975 173.661 17.0604C173.356 16.64 173.208 16.1397 173.208 15.5301C173.208 14.6503 173.607 13.9762 174.43 13.469C175.301 12.932 176.635 12.6598 178.396 12.6598C180.426 12.6598 182.732 13.1858 185.249 14.2228L185.597 14.3661L187.283 10.5065L186.927 10.3546C184.254 9.2157 181.478 8.63838 178.677 8.63838C175.644 8.63838 173.214 9.27259 171.455 10.5235C169.654 11.8036 168.741 13.5746 168.741 15.7876C168.741 17.0213 169.007 18.1025 169.531 19.0008C170.051 19.8913 170.847 20.6944 171.899 21.387C172.924 22.0632 174.663 22.8599 177.064 23.7542C179.527 24.7029 181.197 25.5291 182.027 26.2093C182.806 26.8488 183.185 27.5902 183.185 28.4759C183.185 29.6678 182.711 30.5286 181.735 31.1072C180.708 31.7165 179.198 32.0253 177.249 32.0253C175.975 32.0253 174.632 31.848 173.258 31.4983C171.879 31.1481 170.57 30.6619 169.369 30.0531L168.812 29.7712V34.2249L169.007 34.3348C170.96 35.4397 173.701 36 177.155 36C180.438 36 183.035 35.3213 184.872 33.9833C186.747 32.6176 187.699 30.6546 187.699 28.1482C187.699 26.3535 187.124 24.8387 185.99 23.6463C184.869 22.4685 182.803 21.3421 179.677 20.2037Z" fill="#51AB31"/>
<path fill-rule="evenodd" clip-rule="evenodd" d="M205.327 31.5722C204.968 31.6769 204.472 31.7797 203.852 31.8775C203.237 31.9755 202.588 32.0253 201.923 32.0253C200.747 32.0253 199.853 31.6619 199.19 30.9134C198.524 30.1628 198.186 29.0514 198.186 27.6098V12.8939H205.631V9.10648H198.186V3.16037H195.27L193.6 8.74226L189.857 10.3868V12.8939H193.533V27.7738C193.533 33.2323 196.167 36 201.361 36C202.032 36 202.796 35.9314 203.635 35.796C204.5 35.6556 205.143 35.4801 205.601 35.2596L205.818 35.155V31.4292L205.327 31.5722Z" fill="#51AB31"/>
</svg>
