<svg width="71" height="20" viewBox="0 0 71 20" fill="none" xmlns="http://www.w3.org/2000/svg">
<path d="M5.3284 11.5422C4.25324 11.5422 3.30983 11.3103 2.49818 10.8465C1.69708 10.3827 1.08044 9.71867 0.648263 8.85432C0.216088 7.98997 0 6.97805 0 5.81855C0 4.65906 0.216088 3.65241 0.648263 2.7986C1.08044 1.93425 1.69708 1.27017 2.49818 0.806375C3.30983 0.342577 4.25324 0.110679 5.3284 0.110679C6.0241 0.110679 6.67763 0.216087 7.289 0.426905C7.90037 0.627181 8.44323 0.922325 8.91757 1.31234C9.0546 1.41774 9.14946 1.52842 9.20217 1.64437C9.25487 1.76032 9.28122 1.90262 9.28122 2.07128C9.28122 2.30318 9.21798 2.49818 9.09149 2.6563C8.965 2.81441 8.81216 2.89346 8.63296 2.89346C8.42215 2.89346 8.20606 2.81968 7.9847 2.67211C7.53144 2.3348 7.10981 2.1029 6.7198 1.97641C6.32978 1.83938 5.89761 1.77086 5.42327 1.77086C4.32702 1.77086 3.49429 2.11344 2.92509 2.7986C2.36642 3.48375 2.08709 4.4904 2.08709 5.81855C2.08709 7.15724 2.36642 8.16916 2.92509 8.85432C3.49429 9.53947 4.32702 9.88205 5.42327 9.88205C5.87653 9.88205 6.29289 9.81354 6.67236 9.6765C7.06237 9.53947 7.49982 9.30757 7.9847 8.98081C8.09011 8.91756 8.19552 8.86486 8.30093 8.8227C8.40633 8.78053 8.51701 8.75945 8.63296 8.75945C8.81216 8.75945 8.965 8.83851 9.09149 8.99662C9.21798 9.15473 9.28122 9.34974 9.28122 9.58164C9.28122 9.73975 9.25487 9.88205 9.20217 10.0085C9.14946 10.1245 9.0546 10.2352 8.91757 10.3406C8.44323 10.7306 7.90037 11.031 7.289 11.2418C6.67763 11.4421 6.0241 11.5422 5.3284 11.5422Z" fill="#EFEFEF"/>
<path d="M15.4118 3.47848C17.2248 3.47848 18.1313 4.53784 18.1313 6.65655V10.5461C18.1313 10.8413 18.0417 11.0732 17.8626 11.2418C17.6939 11.4105 17.4567 11.4948 17.151 11.4948C16.8454 11.4948 16.6029 11.4105 16.4237 11.2418C16.2445 11.0732 16.1549 10.8413 16.1549 10.5461V6.65655C16.1549 6.09788 16.039 5.69206 15.8071 5.43908C15.5857 5.17556 15.2326 5.0438 14.7477 5.0438C14.1785 5.0438 13.72 5.22299 13.3721 5.58138C13.0348 5.93977 12.8662 6.41938 12.8662 7.02021V10.5461C12.8662 10.8413 12.7766 11.0732 12.5974 11.2418C12.4182 11.4105 12.1758 11.4948 11.8701 11.4948C11.5644 11.4948 11.322 11.4105 11.1428 11.2418C10.9741 11.0732 10.8898 10.8413 10.8898 10.5461V1.09098C10.8898 0.816916 10.9794 0.595558 11.1586 0.426905C11.3483 0.258251 11.5907 0.173924 11.8859 0.173924C12.181 0.173924 12.4182 0.25298 12.5974 0.411093C12.7766 0.569206 12.8662 0.785294 12.8662 1.05936V4.74338C13.1297 4.33229 13.4776 4.02134 13.9097 3.81052C14.3524 3.58916 14.8531 3.47848 15.4118 3.47848Z" fill="#EFEFEF"/>
<path d="M21.1191 11.4948C20.8345 11.4948 20.5973 11.4157 20.4076 11.2576C20.2284 11.089 20.1388 10.8518 20.1388 10.5461V4.44297C20.1388 4.13729 20.2284 3.90539 20.4076 3.74727C20.5973 3.58916 20.8345 3.5101 21.1191 3.5101C21.4037 3.5101 21.6408 3.58916 21.8306 3.74727C22.0203 3.90539 22.1152 4.13729 22.1152 4.44297V10.5461C22.1152 10.8518 22.0203 11.089 21.8306 11.2576C21.6408 11.4157 21.4037 11.4948 21.1191 11.4948ZM21.1191 2.1029C20.7607 2.1029 20.4761 2.00803 20.2652 1.8183C20.0544 1.61802 19.949 1.35977 19.949 1.04354C19.949 0.727319 20.0544 0.474338 20.2652 0.284603C20.4761 0.0948676 20.7607 0 21.1191 0C21.4669 0 21.7462 0.0948676 21.9571 0.284603C22.1784 0.474338 22.2891 0.727319 22.2891 1.04354C22.2891 1.35977 22.1837 1.61802 21.9729 1.8183C21.7621 2.00803 21.4774 2.1029 21.1191 2.1029Z" fill="#EFEFEF"/>
<path d="M25.1336 11.4948C24.849 11.4948 24.6119 11.4157 24.4221 11.2576C24.2429 11.089 24.1533 10.8518 24.1533 10.5461V1.10679C24.1533 0.801105 24.2429 0.569206 24.4221 0.411093C24.6119 0.25298 24.849 0.173924 25.1336 0.173924C25.4182 0.173924 25.6554 0.25298 25.8452 0.411093C26.0349 0.569206 26.1298 0.801105 26.1298 1.10679V10.5461C26.1298 10.8518 26.0349 11.089 25.8452 11.2576C25.6554 11.4157 25.4182 11.4948 25.1336 11.4948Z" fill="#EFEFEF"/>
<path d="M34.6189 0.173924C34.9141 0.173924 35.1565 0.258251 35.3463 0.426905C35.536 0.595558 35.6309 0.816916 35.6309 1.09098V10.5461C35.6309 10.8307 35.5413 11.0574 35.3621 11.226C35.1829 11.3947 34.9457 11.479 34.6506 11.479C34.3554 11.479 34.1182 11.3947 33.939 11.226C33.7599 11.0574 33.6703 10.8307 33.6703 10.5461V10.1508C33.4384 10.583 33.1011 10.9203 32.6583 11.1628C32.2262 11.4052 31.7307 11.5264 31.1721 11.5264C30.508 11.5264 29.9124 11.3578 29.3854 11.0205C28.8689 10.6832 28.4631 10.2088 28.1679 9.59745C27.8833 8.97554 27.741 8.26403 27.741 7.46293C27.741 6.66182 27.8833 5.96085 28.1679 5.36002C28.4631 4.7592 28.8689 4.2954 29.3854 3.96863C29.9019 3.64187 30.4975 3.47848 31.1721 3.47848C31.7307 3.47848 32.2262 3.59443 32.6583 3.82633C33.0905 4.05823 33.4225 4.385 33.6544 4.80663V1.05936C33.6544 0.795834 33.7388 0.585017 33.9074 0.426905C34.0866 0.258251 34.3238 0.173924 34.6189 0.173924ZM31.6938 9.99273C32.3263 9.99273 32.8112 9.77664 33.1485 9.34447C33.4963 8.91229 33.6703 8.29565 33.6703 7.49455C33.6703 6.69344 33.4963 6.08207 33.1485 5.66044C32.8112 5.22826 32.3316 5.01218 31.7097 5.01218C31.0772 5.01218 30.5871 5.22299 30.2392 5.64463C29.8914 6.06626 29.7174 6.67236 29.7174 7.46293C29.7174 8.26403 29.8914 8.88594 30.2392 9.32866C30.5871 9.77137 31.0719 9.99273 31.6938 9.99273Z" fill="#EFEFEF"/>
<path d="M41.9804 3.5101C42.2545 3.48902 42.4706 3.547 42.6287 3.68403C42.7868 3.82106 42.8659 4.02661 42.8659 4.30067C42.8659 4.58527 42.7974 4.79609 42.6603 4.93312C42.5233 5.07015 42.2756 5.15975 41.9172 5.20191L41.4429 5.24935C40.8209 5.31259 40.3624 5.52341 40.0673 5.8818C39.7827 6.24019 39.6404 6.68817 39.6404 7.22576V10.5461C39.6404 10.8518 39.5455 11.089 39.3558 11.2576C39.166 11.4157 38.9289 11.4948 38.6443 11.4948C38.3597 11.4948 38.1225 11.4157 37.9328 11.2576C37.7536 11.089 37.664 10.8518 37.664 10.5461V4.42716C37.664 4.13202 37.7536 3.90539 37.9328 3.74727C38.1225 3.58916 38.3544 3.5101 38.6285 3.5101C38.9025 3.5101 39.1239 3.58916 39.2925 3.74727C39.4612 3.89485 39.5455 4.11093 39.5455 4.39554V5.02799C39.7458 4.56419 40.0409 4.2058 40.4309 3.95282C40.8315 3.69984 41.2742 3.55754 41.7591 3.52592L41.9804 3.5101Z" fill="#EFEFEF"/>
<path d="M49.6813 9.28122C49.8605 9.28122 50.0028 9.34974 50.1082 9.48677C50.2241 9.6238 50.2821 9.80827 50.2821 10.0402C50.2821 10.3669 50.0871 10.641 49.6971 10.8624C49.3387 11.0626 48.9329 11.226 48.4796 11.3525C48.0264 11.4685 47.5942 11.5264 47.1831 11.5264C45.9393 11.5264 44.9537 11.168 44.2264 10.4513C43.4991 9.73448 43.1354 8.75418 43.1354 7.51036C43.1354 6.7198 43.2935 6.01883 43.6097 5.40746C43.926 4.79609 44.3687 4.32175 44.9379 3.98444C45.5176 3.64714 46.1712 3.47848 46.8985 3.47848C47.5942 3.47848 48.2003 3.63132 48.7168 3.93701C49.2333 4.24269 49.6338 4.67487 49.9184 5.23353C50.2031 5.7922 50.3454 6.451 50.3454 7.20995C50.3454 7.6632 50.1451 7.88983 49.7445 7.88983H45.0802C45.1434 8.61715 45.349 9.15473 45.6968 9.50258C46.0447 9.83989 46.5506 10.0085 47.2147 10.0085C47.552 10.0085 47.8472 9.96638 48.1002 9.88205C48.3637 9.79772 48.6588 9.68178 48.9856 9.5342C49.3018 9.36555 49.5337 9.28122 49.6813 9.28122ZM46.9459 4.86987C46.4083 4.86987 45.9762 5.03853 45.6494 5.37584C45.3332 5.71314 45.1434 6.19802 45.0802 6.83047H48.6535C48.6325 6.18748 48.4744 5.7026 48.1792 5.37584C47.8841 5.03853 47.473 4.86987 46.9459 4.86987Z" fill="#EFEFEF"/>
<path d="M56.4525 3.47848C57.3801 3.47848 58.0705 3.742 58.5237 4.26905C58.977 4.79609 59.2036 5.59192 59.2036 6.65655V10.5461C59.2036 10.8413 59.114 11.0732 58.9348 11.2418C58.7662 11.4105 58.529 11.4948 58.2233 11.4948C57.9176 11.4948 57.6752 11.4105 57.496 11.2418C57.3168 11.0732 57.2272 10.8413 57.2272 10.5461V6.76723C57.2272 6.1664 57.1113 5.72895 56.8794 5.45489C56.658 5.18083 56.3049 5.0438 55.82 5.0438C55.2508 5.0438 54.7923 5.22299 54.4444 5.58138C54.1071 5.93977 53.9385 6.41938 53.9385 7.02021V10.5461C53.9385 10.8413 53.8489 11.0732 53.6697 11.2418C53.4905 11.4105 53.248 11.4948 52.9424 11.4948C52.6367 11.4948 52.3942 11.4105 52.215 11.2418C52.0464 11.0732 51.9621 10.8413 51.9621 10.5461V4.42716C51.9621 4.1531 52.0517 3.93174 52.2309 3.76309C52.41 3.59443 52.6525 3.5101 52.9582 3.5101C53.2322 3.5101 53.4536 3.59443 53.6222 3.76309C53.8014 3.9212 53.891 4.13202 53.891 4.39554V4.82244C54.1546 4.39027 54.5077 4.05823 54.9504 3.82633C55.3931 3.59443 55.8938 3.47848 56.4525 3.47848Z" fill="#EFEFEF"/>
<path d="M61.8498 0.173924C62.2082 0.173924 62.4981 0.305684 62.7194 0.569205C62.9408 0.832727 63.0515 1.21747 63.0515 1.72343C63.0515 2.71427 62.7036 3.58389 62.0079 4.33229C61.8814 4.46932 61.7338 4.53784 61.5652 4.53784C61.4176 4.53784 61.2806 4.48513 61.1541 4.37972C61.0381 4.26378 60.9802 4.13202 60.9802 3.98444C60.9802 3.85795 61.0329 3.73673 61.1383 3.62078C61.4545 3.28348 61.6601 2.90401 61.7549 2.48237C61.4492 2.45075 61.1963 2.3348 60.996 2.13452C60.8063 1.92371 60.7114 1.66545 60.7114 1.35977C60.7114 1.02246 60.8168 0.74313 61.0276 0.521772C61.249 0.289873 61.523 0.173924 61.8498 0.173924Z" fill="#EFEFEF"/>
<path d="M67.2367 11.5264C66.0878 11.5264 65.1602 11.2998 64.454 10.8465C64.1167 10.6463 63.948 10.3617 63.948 9.99273C63.948 9.78191 64.006 9.61326 64.1219 9.48677C64.2379 9.34974 64.3802 9.28122 64.5488 9.28122C64.728 9.28122 64.9757 9.36555 65.292 9.5342C65.6293 9.69232 65.935 9.81354 66.209 9.89786C66.4936 9.98219 66.852 10.0244 67.2842 10.0244C67.7269 10.0244 68.0695 9.95057 68.3119 9.803C68.5649 9.65542 68.6914 9.44988 68.6914 9.18636C68.6914 9.00716 68.6387 8.86486 68.5333 8.75945C68.4384 8.65404 68.2592 8.55918 67.9957 8.47485C67.7427 8.37998 67.3527 8.27457 66.8257 8.15862C65.8875 7.96889 65.2129 7.70009 64.8018 7.35225C64.4013 7.0044 64.201 6.52479 64.201 5.91342C64.201 5.44962 64.338 5.03326 64.6121 4.66433C64.8861 4.28486 65.2603 3.99498 65.7347 3.79471C66.2196 3.58389 66.7677 3.47848 67.379 3.47848C67.8218 3.47848 68.2487 3.53646 68.6598 3.65241C69.0709 3.75781 69.4398 3.91593 69.7665 4.12674C70.1039 4.33756 70.2725 4.61689 70.2725 4.96474C70.2725 5.17556 70.2145 5.35475 70.0986 5.50233C69.9826 5.63936 69.8403 5.70787 69.6717 5.70787C69.5557 5.70787 69.4398 5.68679 69.3238 5.64463C69.2184 5.59192 69.0814 5.51814 68.9127 5.42327C68.6071 5.26516 68.3435 5.14921 68.1222 5.07542C67.9008 4.99109 67.6268 4.94893 67.3 4.94893C66.91 4.94893 66.599 5.02799 66.3671 5.1861C66.1458 5.34421 66.0351 5.5603 66.0351 5.83436C66.0351 6.09788 66.151 6.29816 66.3829 6.43519C66.6148 6.57222 67.0628 6.70925 67.7269 6.84629C68.4331 6.99386 68.9865 7.16251 69.3871 7.35225C69.7876 7.54198 70.0722 7.77915 70.2409 8.06375C70.4201 8.34836 70.5097 8.71202 70.5097 9.15473C70.5097 9.87151 70.2093 10.446 69.6084 10.8782C69.0182 11.3103 68.2276 11.5264 67.2367 11.5264Z" fill="#EFEFEF"/>
<path d="M4.53815 14.8031C4.67808 14.8031 4.78906 14.8466 4.87109 14.9334C4.95312 15.0154 4.99414 15.1264 4.99414 15.2664V19.515C4.99414 19.655 4.95071 19.7684 4.86385 19.8552C4.78182 19.9421 4.67325 19.9855 4.53815 19.9855C4.39821 19.9855 4.28723 19.9421 4.2052 19.8552C4.12317 19.7684 4.08216 19.655 4.08216 19.515V17.7273H1.46927V19.515C1.46927 19.655 1.42584 19.7684 1.33898 19.8552C1.25695 19.9421 1.14597 19.9855 1.00604 19.9855C0.87093 19.9855 0.759949 19.9421 0.673094 19.8552C0.591064 19.7684 0.550049 19.655 0.550049 19.515V15.2664C0.550049 15.1264 0.591064 15.0154 0.673094 14.9334C0.755123 14.8466 0.866105 14.8031 1.00604 14.8031C1.14597 14.8031 1.25695 14.8466 1.33898 14.9334C1.42584 15.0154 1.46927 15.1264 1.46927 15.2664V16.9745H4.08216V15.2664C4.08216 15.1264 4.12317 15.0154 4.2052 14.9334C4.28723 14.8466 4.39821 14.8031 4.53815 14.8031Z" fill="#EFEFEF"/>
<path d="M8.81304 18.9722C8.89507 18.9722 8.96022 19.0035 9.00847 19.0663C9.06155 19.129 9.08809 19.2134 9.08809 19.3196C9.08809 19.4692 8.99882 19.5946 8.82028 19.696C8.65622 19.7877 8.47045 19.8624 8.26296 19.9203C8.05548 19.9734 7.85764 20 7.66945 20C7.10007 20 6.6489 19.8359 6.31596 19.5078C5.98302 19.1797 5.81654 18.7309 5.81654 18.1615C5.81654 17.7996 5.88892 17.4788 6.03368 17.1989C6.17844 16.919 6.3811 16.7019 6.64167 16.5475C6.90706 16.3931 7.20623 16.3159 7.53917 16.3159C7.85764 16.3159 8.13509 16.3858 8.37153 16.5258C8.60797 16.6657 8.79133 16.8635 8.92161 17.1193C9.0519 17.375 9.11704 17.6766 9.11704 18.024C9.11704 18.2315 9.02536 18.3352 8.842 18.3352H6.70681C6.73576 18.6682 6.82985 18.9143 6.98909 19.0735C7.14832 19.2279 7.37994 19.3051 7.68393 19.3051C7.83834 19.3051 7.97345 19.2858 8.08925 19.2472C8.20988 19.2086 8.34499 19.1555 8.49458 19.088C8.63934 19.0108 8.74549 18.9722 8.81304 18.9722ZM7.56088 16.9528C7.31479 16.9528 7.11696 17.03 6.96737 17.1844C6.82262 17.3388 6.73576 17.5608 6.70681 17.8503H8.34258C8.33293 17.556 8.26055 17.334 8.12544 17.1844C7.99033 17.03 7.80215 16.9528 7.56088 16.9528Z" fill="#EFEFEF"/>
<path d="M11.3916 16.3159C11.8837 16.3159 12.248 16.4389 12.4845 16.685C12.7257 16.9263 12.8464 17.2954 12.8464 17.7924V19.5585C12.8464 19.6887 12.8078 19.7925 12.7306 19.8697C12.6534 19.9421 12.5472 19.9783 12.4121 19.9783C12.2866 19.9783 12.1829 19.9397 12.1009 19.8624C12.0237 19.7852 11.9851 19.6839 11.9851 19.5585V19.3992C11.903 19.5874 11.7728 19.7346 11.5942 19.8407C11.4205 19.9469 11.2178 20 10.9862 20C10.7498 20 10.5351 19.9517 10.3421 19.8552C10.149 19.7587 9.99705 19.626 9.88607 19.4571C9.77509 19.2882 9.71959 19.1001 9.71959 18.8926C9.71959 18.632 9.78474 18.4269 9.91502 18.2773C10.0501 18.1278 10.2673 18.0192 10.5664 17.9516C10.8656 17.8841 11.2782 17.8503 11.8041 17.8503H11.9851V17.6838C11.9851 17.4474 11.9344 17.2761 11.8331 17.1699C11.7317 17.059 11.5677 17.0035 11.3409 17.0035C11.201 17.0035 11.0586 17.0252 10.9139 17.0686C10.7691 17.1072 10.5978 17.1651 10.4 17.2423C10.2745 17.305 10.1828 17.3364 10.1249 17.3364C10.0381 17.3364 9.96568 17.305 9.90778 17.2423C9.8547 17.1796 9.82816 17.0976 9.82816 16.9962C9.82816 16.9142 9.84747 16.8442 9.88607 16.7863C9.92949 16.7236 9.99946 16.6657 10.096 16.6126C10.2649 16.5209 10.4651 16.4486 10.6967 16.3955C10.9332 16.3424 11.1648 16.3159 11.3916 16.3159ZM11.1672 19.3486C11.4084 19.3486 11.6039 19.2689 11.7535 19.1097C11.9079 18.9456 11.9851 18.7357 11.9851 18.48V18.328H11.8548C11.5315 18.328 11.2806 18.3425 11.102 18.3714C10.9235 18.4004 10.7956 18.4511 10.7184 18.5234C10.6412 18.5958 10.6026 18.6947 10.6026 18.8202C10.6026 18.9746 10.6557 19.1025 10.7619 19.2038C10.8728 19.3003 11.0079 19.3486 11.1672 19.3486Z" fill="#EFEFEF"/>
<path d="M14.2146 19.9855C14.0843 19.9855 13.9758 19.9493 13.8889 19.8769C13.8069 19.7997 13.7659 19.6911 13.7659 19.5512V15.2302C13.7659 15.0902 13.8069 14.9841 13.8889 14.9117C13.9758 14.8393 14.0843 14.8031 14.2146 14.8031C14.3449 14.8031 14.4535 14.8393 14.5403 14.9117C14.6272 14.9841 14.6706 15.0902 14.6706 15.2302V19.5512C14.6706 19.6911 14.6272 19.7997 14.5403 19.8769C14.4535 19.9493 14.3449 19.9855 14.2146 19.9855Z" fill="#EFEFEF"/>
<path d="M17.5976 19.3124C17.8388 19.3268 17.9595 19.4354 17.9595 19.6381C17.9595 19.7539 17.9112 19.8431 17.8147 19.9059C17.723 19.9638 17.5903 19.9879 17.4166 19.9783L17.2212 19.9638C16.4105 19.9059 16.0052 19.4716 16.0052 18.661V17.0831H15.6433C15.513 17.0831 15.4117 17.0541 15.3393 16.9962C15.2718 16.9383 15.238 16.8539 15.238 16.7429C15.238 16.6319 15.2718 16.5475 15.3393 16.4896C15.4117 16.4317 15.513 16.4027 15.6433 16.4027H16.0052V15.7368C16.0052 15.6065 16.0462 15.5028 16.1283 15.4256C16.2103 15.3484 16.3213 15.3098 16.4612 15.3098C16.5963 15.3098 16.7049 15.3484 16.7869 15.4256C16.869 15.5028 16.91 15.6065 16.91 15.7368V16.4027H17.5252C17.6555 16.4027 17.7544 16.4317 17.8219 16.4896C17.8943 16.5475 17.9305 16.6319 17.9305 16.7429C17.9305 16.8539 17.8943 16.9383 17.8219 16.9962C17.7544 17.0541 17.6555 17.0831 17.5252 17.0831H16.91V18.7261C16.91 19.0832 17.074 19.2738 17.4021 19.2979L17.5976 19.3124Z" fill="#EFEFEF"/>
<path d="M20.0016 20C19.6493 20 19.3381 19.9252 19.0679 19.7756C18.8025 19.626 18.5974 19.4137 18.4527 19.1387C18.3079 18.8636 18.2355 18.5427 18.2355 18.176C18.2355 17.8093 18.3103 17.486 18.4599 17.2061C18.6143 16.9214 18.829 16.7019 19.1041 16.5475C19.3791 16.3931 19.6952 16.3159 20.0522 16.3159C20.2404 16.3159 20.4286 16.3424 20.6168 16.3955C20.8098 16.4486 20.9787 16.5209 21.1235 16.6126C21.2779 16.7139 21.3551 16.8418 21.3551 16.9962C21.3551 17.1024 21.3285 17.1892 21.2755 17.2568C21.2272 17.3195 21.1621 17.3509 21.08 17.3509C21.027 17.3509 20.9715 17.3388 20.9136 17.3147C20.8557 17.2906 20.7977 17.2616 20.7398 17.2278C20.6337 17.1651 20.5324 17.1169 20.4359 17.0831C20.3393 17.0445 20.2284 17.0252 20.1029 17.0252C19.8037 17.0252 19.5721 17.1241 19.4081 17.3219C19.2488 17.5149 19.1692 17.7948 19.1692 18.1615C19.1692 18.5234 19.2488 18.8033 19.4081 19.0011C19.5721 19.1941 19.8037 19.2906 20.1029 19.2906C20.2235 19.2906 20.3297 19.2738 20.4214 19.24C20.5179 19.2014 20.624 19.1507 20.7398 19.088C20.8122 19.0446 20.875 19.0132 20.928 18.9939C20.9811 18.9698 21.0342 18.9577 21.0873 18.9577C21.1645 18.9577 21.2296 18.9915 21.2827 19.059C21.3358 19.1266 21.3623 19.211 21.3623 19.3124C21.3623 19.3944 21.343 19.4668 21.3044 19.5295C21.2706 19.5874 21.2127 19.6405 21.1307 19.6887C20.9811 19.7852 20.8074 19.8624 20.6096 19.9203C20.4117 19.9734 20.2091 20 20.0016 20Z" fill="#EFEFEF"/>
<path d="M24.0351 16.3159C24.8651 16.3159 25.2801 16.8008 25.2801 17.7707V19.5512C25.2801 19.6863 25.239 19.7925 25.157 19.8697C25.0798 19.9469 24.9712 19.9855 24.8313 19.9855C24.6914 19.9855 24.5804 19.9469 24.4984 19.8697C24.4163 19.7925 24.3753 19.6863 24.3753 19.5512V17.7707C24.3753 17.5149 24.3222 17.3292 24.2161 17.2134C24.1148 17.0927 23.9531 17.0324 23.7311 17.0324C23.4706 17.0324 23.2607 17.1144 23.1014 17.2785C22.947 17.4426 22.8698 17.6621 22.8698 17.9372V19.5512C22.8698 19.6863 22.8288 19.7925 22.7468 19.8697C22.6648 19.9469 22.5538 19.9855 22.4138 19.9855C22.2739 19.9855 22.1629 19.9469 22.0809 19.8697C22.0037 19.7925 21.9651 19.6863 21.9651 19.5512V15.2229C21.9651 15.0975 22.0061 14.9961 22.0881 14.9189C22.175 14.8417 22.286 14.8031 22.4211 14.8031C22.5562 14.8031 22.6648 14.8393 22.7468 14.9117C22.8288 14.9841 22.8698 15.083 22.8698 15.2085V16.8949C22.9905 16.7067 23.1497 16.5644 23.3475 16.4679C23.5502 16.3665 23.7794 16.3159 24.0351 16.3159Z" fill="#EFEFEF"/>
<path d="M27.7334 16.3159C28.2256 16.3159 28.5899 16.4389 28.8264 16.685C29.0676 16.9263 29.1883 17.2954 29.1883 17.7924V19.5585C29.1883 19.6887 29.1497 19.7925 29.0724 19.8697C28.9952 19.9421 28.8891 19.9783 28.754 19.9783C28.6285 19.9783 28.5248 19.9397 28.4427 19.8624C28.3655 19.7852 28.3269 19.6839 28.3269 19.5585V19.3992C28.2449 19.5874 28.1146 19.7346 27.9361 19.8407C27.7624 19.9469 27.5597 20 27.3281 20C27.0917 20 26.8769 19.9517 26.6839 19.8552C26.4909 19.7587 26.3389 19.626 26.2279 19.4571C26.117 19.2882 26.0615 19.1001 26.0615 18.8926C26.0615 18.632 26.1266 18.4269 26.2569 18.2773C26.392 18.1278 26.6091 18.0192 26.9083 17.9516C27.2075 17.8841 27.62 17.8503 28.146 17.8503H28.3269V17.6838C28.3269 17.4474 28.2763 17.2761 28.1749 17.1699C28.0736 17.059 27.9096 17.0035 27.6828 17.0035C27.5428 17.0035 27.4005 17.0252 27.2557 17.0686C27.111 17.1072 26.9397 17.1651 26.7418 17.2423C26.6164 17.305 26.5247 17.3364 26.4668 17.3364C26.3799 17.3364 26.3076 17.305 26.2497 17.2423C26.1966 17.1796 26.17 17.0976 26.17 16.9962C26.17 16.9142 26.1893 16.8442 26.2279 16.7863C26.2714 16.7236 26.3413 16.6657 26.4378 16.6126C26.6067 16.5209 26.807 16.4486 27.0386 16.3955C27.275 16.3424 27.5066 16.3159 27.7334 16.3159ZM27.5091 19.3486C27.7503 19.3486 27.9457 19.2689 28.0953 19.1097C28.2497 18.9456 28.3269 18.7357 28.3269 18.48V18.328H28.1967C27.8734 18.328 27.6225 18.3425 27.4439 18.3714C27.2654 18.4004 27.1375 18.4511 27.0603 18.5234C26.9831 18.5958 26.9445 18.6947 26.9445 18.8202C26.9445 18.9746 26.9976 19.1025 27.1037 19.2038C27.2147 19.3003 27.3498 19.3486 27.5091 19.3486Z" fill="#EFEFEF"/>
<path d="M32.0837 16.3303C32.2092 16.3207 32.3081 16.3472 32.3805 16.41C32.4528 16.4727 32.489 16.5668 32.489 16.6922C32.489 16.8225 32.4577 16.919 32.3949 16.9818C32.3322 17.0445 32.2188 17.0855 32.0548 17.1048L31.8376 17.1265C31.5529 17.1555 31.343 17.252 31.2079 17.416C31.0776 17.5801 31.0125 17.7852 31.0125 18.0313V19.5512C31.0125 19.6911 30.9691 19.7997 30.8822 19.8769C30.7954 19.9493 30.6868 19.9855 30.5565 19.9855C30.4262 19.9855 30.3177 19.9493 30.2308 19.8769C30.1488 19.7997 30.1078 19.6911 30.1078 19.5512V16.7501C30.1078 16.615 30.1488 16.5113 30.2308 16.4389C30.3177 16.3665 30.4238 16.3303 30.5493 16.3303C30.6747 16.3303 30.7761 16.3665 30.8533 16.4389C30.9305 16.5065 30.9691 16.6054 30.9691 16.7357V17.0252C31.0607 16.8129 31.1959 16.6488 31.3744 16.533C31.5578 16.4172 31.7604 16.3521 31.9824 16.3376L32.0837 16.3303Z" fill="#EFEFEF"/>
<path d="M35.6089 18.9722C35.6909 18.9722 35.7561 19.0035 35.8043 19.0663C35.8574 19.129 35.884 19.2134 35.884 19.3196C35.884 19.4692 35.7947 19.5946 35.6162 19.696C35.4521 19.7877 35.2663 19.8624 35.0588 19.9203C34.8513 19.9734 34.6535 20 34.4653 20C33.8959 20 33.4448 19.8359 33.1118 19.5078C32.7789 19.1797 32.6124 18.7309 32.6124 18.1615C32.6124 17.7996 32.6848 17.4788 32.8296 17.1989C32.9743 16.919 33.177 16.7019 33.4375 16.5475C33.7029 16.3931 34.0021 16.3159 34.335 16.3159C34.6535 16.3159 34.931 16.3858 35.1674 16.5258C35.4038 16.6657 35.5872 16.8635 35.7175 17.1193C35.8478 17.375 35.9129 17.6766 35.9129 18.024C35.9129 18.2315 35.8212 18.3352 35.6379 18.3352H33.5027C33.5316 18.6682 33.6257 18.9143 33.785 19.0735C33.9442 19.2279 34.1758 19.3051 34.4798 19.3051C34.6342 19.3051 34.7693 19.2858 34.8851 19.2472C35.0058 19.2086 35.1409 19.1555 35.2904 19.088C35.4352 19.0108 35.5414 18.9722 35.6089 18.9722ZM34.3568 16.9528C34.1107 16.9528 33.9128 17.03 33.7632 17.1844C33.6185 17.3388 33.5316 17.5608 33.5027 17.8503H35.1385C35.1288 17.556 35.0564 17.334 34.9213 17.1844C34.7862 17.03 34.598 16.9528 34.3568 16.9528Z" fill="#EFEFEF"/>
<path d="M40.232 20C39.8701 20 39.5517 19.9252 39.2766 19.7756C39.0064 19.626 38.7965 19.4113 38.6469 19.1314C38.4973 18.8515 38.4225 18.5258 38.4225 18.1543C38.4225 17.7827 38.4973 17.4595 38.6469 17.1844C38.7965 16.9045 39.0064 16.6898 39.2766 16.5402C39.5517 16.3907 39.8701 16.3159 40.232 16.3159C40.5939 16.3159 40.91 16.3907 41.1802 16.5402C41.4552 16.6898 41.6651 16.9045 41.8099 17.1844C41.9595 17.4595 42.0343 17.7827 42.0343 18.1543C42.0343 18.5258 41.9595 18.8515 41.8099 19.1314C41.6651 19.4113 41.4552 19.626 41.1802 19.7756C40.91 19.9252 40.5939 20 40.232 20ZM40.2248 19.2979C40.5191 19.2979 40.7435 19.2014 40.8979 19.0084C41.0523 18.8154 41.1295 18.5307 41.1295 18.1543C41.1295 17.7827 41.0523 17.5005 40.8979 17.3075C40.7435 17.1096 40.5215 17.0107 40.232 17.0107C39.9425 17.0107 39.7181 17.1096 39.5589 17.3075C39.4045 17.5005 39.3273 17.7827 39.3273 18.1543C39.3273 18.5307 39.4045 18.8154 39.5589 19.0084C39.7133 19.2014 39.9353 19.2979 40.2248 19.2979Z" fill="#EFEFEF"/>
<path d="M44.5478 15.5125C44.3258 15.5269 44.1641 15.5945 44.0628 15.7151C43.9615 15.8357 43.9108 16.0095 43.9108 16.2362V16.4027H44.526C44.7963 16.4027 44.9314 16.5161 44.9314 16.7429C44.9314 16.9697 44.7963 17.0831 44.526 17.0831H43.9108V19.5512C43.9108 19.6911 43.8674 19.7973 43.7805 19.8697C43.6985 19.9421 43.5923 19.9783 43.4621 19.9783C43.3318 19.9783 43.2232 19.9421 43.1364 19.8697C43.0495 19.7973 43.0061 19.6911 43.0061 19.5512V17.0831H42.6442C42.374 17.0831 42.2389 16.9697 42.2389 16.7429C42.2389 16.5161 42.374 16.4027 42.6442 16.4027H43.0061V16.3521C43.0061 15.8985 43.1243 15.5438 43.3607 15.2881C43.602 15.0275 43.9398 14.8803 44.374 14.8466L44.5622 14.8321C44.7552 14.8176 44.8904 14.8393 44.9676 14.8972C45.0496 14.9503 45.0906 15.0347 45.0906 15.1506C45.0906 15.358 44.9724 15.4739 44.7359 15.498L44.5478 15.5125Z" fill="#EFEFEF"/>
<path d="M52.0237 19.3847C52.0526 19.4475 52.0671 19.5102 52.0671 19.5729C52.0671 19.6839 52.0213 19.778 51.9296 19.8552C51.8427 19.9324 51.7414 19.971 51.6256 19.971C51.5484 19.971 51.476 19.9517 51.4085 19.9131C51.3409 19.8697 51.2878 19.8045 51.2492 19.7177L50.815 18.7478H48.2672L47.8329 19.7177C47.7943 19.8045 47.7412 19.8697 47.6737 19.9131C47.6061 19.9517 47.5314 19.971 47.4493 19.971C47.3383 19.971 47.237 19.9324 47.1453 19.8552C47.0536 19.778 47.0078 19.6839 47.0078 19.5729C47.0078 19.5102 47.0223 19.4475 47.0512 19.3847L49.0489 15.0927C49.0923 14.9961 49.1575 14.9238 49.2443 14.8755C49.336 14.8224 49.4325 14.7959 49.5338 14.7959C49.6352 14.7959 49.7293 14.8224 49.8161 14.8755C49.9078 14.9238 49.9754 14.9961 50.0188 15.0927L52.0237 19.3847ZM48.5857 18.024H50.4965L49.5411 15.8743L48.5857 18.024Z" fill="#EFEFEF"/>
<path d="M54.4375 19.3124C54.6787 19.3268 54.7994 19.4354 54.7994 19.6381C54.7994 19.7539 54.7511 19.8431 54.6546 19.9059C54.5629 19.9638 54.4302 19.9879 54.2565 19.9783L54.0611 19.9638C53.2505 19.9059 52.8451 19.4716 52.8451 18.661V17.0831H52.4832C52.353 17.0831 52.2516 17.0541 52.1792 16.9962C52.1117 16.9383 52.0779 16.8539 52.0779 16.7429C52.0779 16.6319 52.1117 16.5475 52.1792 16.4896C52.2516 16.4317 52.353 16.4027 52.4832 16.4027H52.8451V15.7368C52.8451 15.6065 52.8861 15.5028 52.9682 15.4256C53.0502 15.3484 53.1612 15.3098 53.3011 15.3098C53.4362 15.3098 53.5448 15.3484 53.6268 15.4256C53.7089 15.5028 53.7499 15.6065 53.7499 15.7368V16.4027H54.3651C54.4954 16.4027 54.5943 16.4317 54.6619 16.4896C54.7342 16.5475 54.7704 16.6319 54.7704 16.7429C54.7704 16.8539 54.7342 16.9383 54.6619 16.9962C54.5943 17.0541 54.4954 17.0831 54.3651 17.0831H53.7499V18.7261C53.7499 19.0832 53.9139 19.2738 54.2421 19.2979L54.4375 19.3124Z" fill="#EFEFEF"/>
<path d="M55.7196 19.9855C55.5893 19.9855 55.4808 19.9493 55.3939 19.8769C55.3119 19.7997 55.2709 19.6911 55.2709 19.5512V15.2302C55.2709 15.0902 55.3119 14.9841 55.3939 14.9117C55.4808 14.8393 55.5893 14.8031 55.7196 14.8031C55.8499 14.8031 55.9585 14.8393 56.0453 14.9117C56.1322 14.9841 56.1756 15.0902 56.1756 15.2302V19.5512C56.1756 19.6911 56.1322 19.7997 56.0453 19.8769C55.9585 19.9493 55.8499 19.9855 55.7196 19.9855Z" fill="#EFEFEF"/>
<path d="M58.6431 16.3159C59.1352 16.3159 59.4995 16.4389 59.736 16.685C59.9772 16.9263 60.0979 17.2954 60.0979 17.7924V19.5585C60.0979 19.6887 60.0593 19.7925 59.9821 19.8697C59.9049 19.9421 59.7987 19.9783 59.6636 19.9783C59.5381 19.9783 59.4344 19.9397 59.3524 19.8624C59.2752 19.7852 59.2366 19.6839 59.2366 19.5585V19.3992C59.1545 19.5874 59.0243 19.7346 58.8457 19.8407C58.672 19.9469 58.4693 20 58.2377 20C58.0013 20 57.7866 19.9517 57.5936 19.8552C57.4005 19.7587 57.2485 19.626 57.1376 19.4571C57.0266 19.2882 56.9711 19.1001 56.9711 18.8926C56.9711 18.632 57.0362 18.4269 57.1665 18.2773C57.3016 18.1278 57.5188 18.0192 57.8179 17.9516C58.1171 17.8841 58.5297 17.8503 59.0556 17.8503H59.2366V17.6838C59.2366 17.4474 59.1859 17.2761 59.0846 17.1699C58.9832 17.059 58.8192 17.0035 58.5924 17.0035C58.4525 17.0035 58.3101 17.0252 58.1654 17.0686C58.0206 17.1072 57.8493 17.1651 57.6515 17.2423C57.526 17.305 57.4343 17.3364 57.3764 17.3364C57.2896 17.3364 57.2172 17.305 57.1593 17.2423C57.1062 17.1796 57.0797 17.0976 57.0797 16.9962C57.0797 16.9142 57.099 16.8442 57.1376 16.7863C57.181 16.7236 57.251 16.6657 57.3475 16.6126C57.5164 16.5209 57.7166 16.4486 57.9482 16.3955C58.1846 16.3424 58.4163 16.3159 58.6431 16.3159ZM58.4187 19.3486C58.6599 19.3486 58.8554 19.2689 59.0049 19.1097C59.1594 18.9456 59.2366 18.7357 59.2366 18.48V18.328H59.1063C58.783 18.328 58.5321 18.3425 58.3535 18.3714C58.175 18.4004 58.0471 18.4511 57.9699 18.5234C57.8927 18.5958 57.8541 18.6947 57.8541 18.8202C57.8541 18.9746 57.9072 19.1025 58.0134 19.2038C58.1243 19.3003 58.2594 19.3486 58.4187 19.3486Z" fill="#EFEFEF"/>
<path d="M63.0729 16.3159C63.4976 16.3159 63.8136 16.4365 64.0211 16.6778C64.2286 16.919 64.3323 17.2833 64.3323 17.7707V19.5512C64.3323 19.6863 64.2913 19.7925 64.2093 19.8697C64.1321 19.9469 64.0235 19.9855 63.8836 19.9855C63.7437 19.9855 63.6327 19.9469 63.5506 19.8697C63.4686 19.7925 63.4276 19.6863 63.4276 19.5512V17.8214C63.4276 17.5463 63.3745 17.3461 63.2684 17.2206C63.167 17.0951 63.0054 17.0324 62.7834 17.0324C62.5229 17.0324 62.313 17.1144 62.1537 17.2785C61.9993 17.4426 61.9221 17.6621 61.9221 17.9372V19.5512C61.9221 19.6863 61.8811 19.7925 61.7991 19.8697C61.717 19.9469 61.6061 19.9855 61.4661 19.9855C61.3262 19.9855 61.2152 19.9469 61.1332 19.8697C61.056 19.7925 61.0174 19.6863 61.0174 19.5512V16.7501C61.0174 16.6247 61.0584 16.5234 61.1404 16.4461C61.2225 16.3689 61.3334 16.3303 61.4734 16.3303C61.5988 16.3303 61.7001 16.3689 61.7774 16.4461C61.8594 16.5185 61.9004 16.615 61.9004 16.7357V16.9311C62.021 16.7332 62.1827 16.5813 62.3853 16.4751C62.588 16.3689 62.8172 16.3159 63.0729 16.3159Z" fill="#EFEFEF"/>
<path d="M67.0897 19.3124C67.331 19.3268 67.4516 19.4354 67.4516 19.6381C67.4516 19.7539 67.4034 19.8431 67.3068 19.9059C67.2152 19.9638 67.0825 19.9879 66.9088 19.9783L66.7133 19.9638C65.9027 19.9059 65.4974 19.4716 65.4974 18.661V17.0831H65.1355C65.0052 17.0831 64.9039 17.0541 64.8315 16.9962C64.7639 16.9383 64.7301 16.8539 64.7301 16.7429C64.7301 16.6319 64.7639 16.5475 64.8315 16.4896C64.9039 16.4317 65.0052 16.4027 65.1355 16.4027H65.4974V15.7368C65.4974 15.6065 65.5384 15.5028 65.6204 15.4256C65.7024 15.3484 65.8134 15.3098 65.9534 15.3098C66.0885 15.3098 66.197 15.3484 66.2791 15.4256C66.3611 15.5028 66.4021 15.6065 66.4021 15.7368V16.4027H67.0173C67.1476 16.4027 67.2465 16.4317 67.3141 16.4896C67.3865 16.5475 67.4227 16.6319 67.4227 16.7429C67.4227 16.8539 67.3865 16.9383 67.3141 16.9962C67.2465 17.0541 67.1476 17.0831 67.0173 17.0831H66.4021V18.7261C66.4021 19.0832 66.5662 19.2738 66.8943 19.2979L67.0897 19.3124Z" fill="#EFEFEF"/>
<path d="M69.4575 16.3159C69.9497 16.3159 70.314 16.4389 70.5505 16.685C70.7917 16.9263 70.9124 17.2954 70.9124 17.7924V19.5585C70.9124 19.6887 70.8738 19.7925 70.7965 19.8697C70.7193 19.9421 70.6132 19.9783 70.4781 19.9783C70.3526 19.9783 70.2489 19.9397 70.1668 19.8624C70.0896 19.7852 70.051 19.6839 70.051 19.5585V19.3992C69.969 19.5874 69.8387 19.7346 69.6602 19.8407C69.4865 19.9469 69.2838 20 69.0522 20C68.8158 20 68.601 19.9517 68.408 19.8552C68.215 19.7587 68.063 19.626 67.952 19.4571C67.8411 19.2882 67.7856 19.1001 67.7856 18.8926C67.7856 18.632 67.8507 18.4269 67.981 18.2773C68.1161 18.1278 68.3332 18.0192 68.6324 17.9516C68.9316 17.8841 69.3441 17.8503 69.8701 17.8503H70.051V17.6838C70.051 17.4474 70.0004 17.2761 69.899 17.1699C69.7977 17.059 69.6337 17.0035 69.4069 17.0035C69.2669 17.0035 69.1246 17.0252 68.9798 17.0686C68.8351 17.1072 68.6638 17.1651 68.4659 17.2423C68.3405 17.305 68.2488 17.3364 68.1909 17.3364C68.104 17.3364 68.0317 17.305 67.9738 17.2423C67.9207 17.1796 67.8941 17.0976 67.8941 16.9962C67.8941 16.9142 67.9134 16.8442 67.952 16.7863C67.9955 16.7236 68.0654 16.6657 68.1619 16.6126C68.3308 16.5209 68.5311 16.4486 68.7627 16.3955C68.9991 16.3424 69.2307 16.3159 69.4575 16.3159ZM69.2332 19.3486C69.4744 19.3486 69.6698 19.2689 69.8194 19.1097C69.9738 18.9456 70.051 18.7357 70.051 18.48V18.328H69.9208C69.5975 18.328 69.3466 18.3425 69.168 18.3714C68.9895 18.4004 68.8616 18.4511 68.7844 18.5234C68.7072 18.5958 68.6686 18.6947 68.6686 18.8202C68.6686 18.9746 68.7217 19.1025 68.8278 19.2038C68.9388 19.3003 69.0739 19.3486 69.2332 19.3486Z" fill="#EFEFEF"/>
</svg>
