<svg width="125" height="36" viewBox="0 0 125 36" fill="none" xmlns="http://www.w3.org/2000/svg">
<path d="M0 35.28H5.784V0H0V35.28Z" fill="black"/>
<path d="M13.4531 5.424H19.2371V0.12H13.4531V5.424ZM13.4531 35.28H19.2371V9.36H13.4531V35.28Z" fill="black"/>
<path d="M36.4343 36C39.7783 36 42.3943 35.256 44.2823 33.768C46.1863 32.28 47.1383 30.232 47.1383 27.624C47.1383 25.608 46.4983 24.024 45.2183 22.872C43.9543 21.72 41.7703 20.744 38.6663 19.944C36.6503 19.432 35.1303 19 34.1063 18.648C33.0983 18.296 32.4263 17.944 32.0903 17.592C31.7543 17.24 31.5863 16.816 31.5863 16.32C31.5863 15.456 32.0023 14.784 32.8343 14.304C33.6663 13.808 34.7623 13.592 36.1223 13.656C37.5303 13.736 38.6583 14.096 39.5063 14.736C40.3703 15.376 40.8823 16.248 41.0423 17.352L46.9463 16.296C46.6263 13.96 45.4823 12.104 43.5143 10.728C41.5463 9.336 39.0502 8.64 36.0262 8.64C32.9382 8.64 30.4662 9.36 28.6102 10.8C26.7542 12.24 25.8263 14.176 25.8263 16.608C25.8263 18.544 26.4743 20.072 27.7703 21.192C29.0823 22.312 31.3623 23.296 34.6103 24.144C36.5623 24.656 38.0023 25.088 38.9303 25.44C39.8743 25.776 40.4903 26.12 40.7783 26.472C41.0663 26.824 41.2103 27.296 41.2103 27.888C41.2103 28.848 40.8263 29.608 40.0582 30.168C39.2902 30.712 38.2183 30.984 36.8423 30.984C35.2583 30.984 33.9383 30.616 32.8823 29.88C31.8423 29.144 31.1783 28.136 30.8903 26.856L24.9863 27.768C25.4183 30.376 26.6343 32.4 28.6343 33.84C30.6343 35.28 33.2343 36 36.4343 36Z" fill="black"/>
<path d="M67.587 35.28V30.432C65.971 30.672 64.531 30.736 63.267 30.624C62.003 30.512 61.083 29.976 60.507 29.016C60.203 28.52 60.035 27.88 60.003 27.096C59.987 26.296 59.979 25.384 59.979 24.36V13.896H67.587V9.36H59.979V2.16H54.219V9.36H49.515V13.896H54.219V24.696C54.219 26.184 54.235 27.512 54.267 28.68C54.299 29.832 54.611 30.968 55.203 32.088C55.875 33.32 56.859 34.224 58.155 34.8C59.451 35.36 60.915 35.656 62.547 35.688C64.195 35.736 65.875 35.6 67.587 35.28Z" fill="black"/>
<path d="M83.6321 36C86.1281 36 88.4081 35.36 90.4721 34.08C92.5521 32.784 94.0881 30.96 95.0801 28.608L89.3681 26.88C88.2161 29.344 86.1921 30.576 83.2961 30.576C81.3281 30.576 79.7761 30.008 78.6401 28.872C77.5041 27.72 76.8241 26.072 76.6001 23.928H95.3681C95.5921 20.808 95.2481 18.104 94.3361 15.816C93.4241 13.528 92.0241 11.76 90.1361 10.512C88.2641 9.264 85.9841 8.64 83.2961 8.64C80.7521 8.64 78.5121 9.216 76.5761 10.368C74.6401 11.504 73.1281 13.12 72.0401 15.216C70.9521 17.312 70.4081 19.776 70.4081 22.608C70.4081 25.232 70.9601 27.552 72.0641 29.568C73.1841 31.584 74.7361 33.16 76.7201 34.296C78.7041 35.432 81.0081 36 83.6321 36ZM83.5361 13.704C85.3281 13.704 86.7041 14.176 87.6641 15.12C88.6401 16.048 89.2561 17.528 89.5121 19.56H76.7441C77.4321 15.656 79.6961 13.704 83.5361 13.704Z" fill="black"/>
<path d="M112.507 36C115.003 36 117.283 35.36 119.347 34.08C121.427 32.784 122.963 30.96 123.955 28.608L118.243 26.88C117.091 29.344 115.067 30.576 112.171 30.576C110.203 30.576 108.651 30.008 107.515 28.872C106.379 27.72 105.699 26.072 105.475 23.928H124.243C124.467 20.808 124.123 18.104 123.211 15.816C122.299 13.528 120.899 11.76 119.011 10.512C117.139 9.264 114.859 8.64 112.171 8.64C109.627 8.64 107.387 9.216 105.451 10.368C103.515 11.504 102.003 13.12 100.915 15.216C99.8271 17.312 99.2831 19.776 99.2831 22.608C99.2831 25.232 99.8351 27.552 100.939 29.568C102.059 31.584 103.611 33.16 105.595 34.296C107.579 35.432 109.883 36 112.507 36ZM112.411 13.704C114.203 13.704 115.579 14.176 116.539 15.12C117.515 16.048 118.131 17.528 118.387 19.56H105.619C106.307 15.656 108.571 13.704 112.411 13.704Z" fill="black"/>
</svg>
