<svg width="33" height="20" viewBox="0 0 33 20" fill="none" xmlns="http://www.w3.org/2000/svg">
<path d="M32.0818 6.46328C32.0818 8.12429 32.0818 9.79096 32.0818 11.452C32.0253 11.452 31.9745 11.4463 31.918 11.4463C31.1157 11.4463 30.3078 11.4463 29.5055 11.4463C29.4321 11.4463 29.4038 11.4294 29.3869 11.3503C29.3135 10.9153 29.2287 10.4802 29.1553 10.0508C29.1383 9.9661 29.1101 9.9435 29.0253 9.9435C27.805 9.9435 26.579 9.9435 25.3587 9.9435C25.2344 9.9435 25.2344 9.9435 25.2344 10.0678C25.2344 12.2994 25.2344 14.5254 25.2344 16.7571C25.2344 16.887 25.2344 16.887 25.3643 16.887C25.8558 16.887 26.353 16.887 26.8445 16.887C26.9575 16.887 26.9575 16.887 26.9575 16.9943C26.9575 17.9605 26.9575 18.9209 26.9575 19.887C26.9575 20 26.9575 20 26.8445 20C24.3586 20 21.8671 20 19.3812 20C19.2626 20 19.2626 20 19.2626 19.887C19.2626 18.9266 19.2626 17.9605 19.2626 17C19.2626 16.887 19.2626 16.887 19.3812 16.887C19.8841 16.887 20.3869 16.887 20.8841 16.887C20.9575 16.887 20.9858 16.8701 20.9858 16.7853C20.9858 14.5367 20.9858 12.2938 20.9858 10.0452C20.9858 9.9661 20.9575 9.9435 20.8841 9.9435C20.5846 9.9435 20.2852 9.9435 19.9914 9.9435C19.805 9.9435 19.8389 9.94915 19.8389 10.0904C19.8389 12 19.8389 13.904 19.8389 15.8136C19.8389 15.9209 19.8389 15.9209 19.7315 15.9209C18.6976 15.9209 17.6637 15.9209 16.6355 15.9209C16.5507 15.9209 16.5281 15.8983 16.5281 15.8136C16.5338 15.661 16.5338 15.5028 16.5338 15.3503C16.5338 15.2655 16.5225 15.2599 16.4547 15.2938C15.6468 15.7119 14.788 16.0113 13.9123 16.2429C12.7541 16.5424 11.579 16.7232 10.3926 16.8136C9.53944 16.8814 8.68634 16.8418 7.83888 16.7062C6.66374 16.5198 5.55074 16.1638 4.49989 15.6045C3.25695 14.9492 2.18916 14.0791 1.35865 12.9322C0.545091 11.8023 0.0818145 10.5424 0.00836816 9.14689C-0.0311799 8.36723 0.0705151 7.59887 0.290854 6.85311C0.703283 5.47458 1.44905 4.29378 2.44905 3.27119C3.46599 2.23164 4.65243 1.44068 5.99707 0.881355C7.22871 0.367231 8.51119 0.0847454 9.85018 0.0508471C10.7598 0.0225985 11.6637 0.112994 12.5564 0.288135C13.8671 0.553672 15.1101 0.988701 16.2513 1.69492C16.2683 1.70621 16.2852 1.72881 16.3078 1.71751C16.3361 1.70621 16.3191 1.67232 16.3191 1.64972C16.3191 1.37288 16.3191 1.0904 16.3191 0.813559C16.3191 0.542373 16.3191 0.271186 16.3248 0C17.3587 0 18.3982 0 19.4321 0C19.4321 1.81921 19.4321 3.63842 19.4321 5.45198C19.4321 5.55932 19.4321 5.55932 19.3248 5.55932C18.3643 5.55932 17.4038 5.55932 16.449 5.55932C16.3869 5.55932 16.3417 5.54237 16.2965 5.50282C15.7202 5.01695 15.0988 4.60452 14.4151 4.28249C13.4829 3.84181 12.5055 3.56497 11.4773 3.48588C10.8502 3.43503 10.2344 3.47458 9.61854 3.59887C8.353 3.85311 7.24001 4.39548 6.3304 5.32203C5.22871 6.44633 4.73718 7.79661 4.87278 9.36158C4.92927 10.0339 5.16656 10.6497 5.55074 11.209C6.08746 11.9887 6.81063 12.5424 7.65244 12.9605C8.77108 13.5141 9.96882 13.774 11.2118 13.8079C11.9349 13.8305 12.6524 13.7401 13.3474 13.5367C14.3191 13.2542 15.1835 12.7853 15.8841 12.0395C16.4208 11.4689 16.7767 10.8023 16.9462 10.0339C16.9632 9.9661 16.9575 9.93785 16.8728 9.93785C16.5281 9.9435 16.1779 9.93785 15.8332 9.93785C15.7711 9.93785 15.7485 9.96045 15.7372 10.0169C15.6581 10.4463 15.5733 10.8757 15.4942 11.3107C15.4716 11.4407 15.4716 11.4407 15.3361 11.4407C14.5451 11.4407 13.7598 11.4407 12.9688 11.4407C12.9349 11.4407 12.901 11.4407 12.8615 11.4407C12.8163 11.4407 12.7937 11.4237 12.7993 11.3785C12.7993 11.3503 12.7993 11.322 12.7993 11.2994C12.7993 9.73446 12.7993 8.16949 12.7993 6.59887C12.7993 6.42373 12.788 6.45198 12.9462 6.45198C19.2909 6.45198 25.6298 6.45198 31.9745 6.45198C31.9971 6.45763 32.0366 6.46328 32.0818 6.46328Z" fill="white"/>
</svg>
