<svg width="103" height="18" viewBox="0 0 103 18" fill="none" xmlns="http://www.w3.org/2000/svg">
<path fill-rule="evenodd" clip-rule="evenodd" d="M8.08113 15.8721C6.26918 15.8721 4.87174 15.2911 3.92767 14.1452C2.9742 12.9886 2.49073 11.2553 2.49073 8.99409C2.49073 6.76395 2.9742 5.04661 3.92767 3.8897C4.872 2.74383 6.27731 2.16283 8.1045 2.16283C9.92331 2.16283 11.3125 2.73951 12.2337 3.87674C13.1646 5.02642 13.6365 6.74808 13.6365 8.99409C13.6365 11.2633 13.1625 12.9988 12.228 14.1523C11.3028 15.2935 9.90781 15.8721 8.08113 15.8721ZM8.1045 0C5.53109 0 3.51392 0.795236 2.10912 2.36387C0.709515 3.92614 0 6.14905 0 8.97072C0 11.8153 0.707483 14.0537 2.10277 15.6237C3.50364 17.2004 5.51522 18 8.08113 18C10.5928 18 12.5846 17.1866 14.0015 15.5823C15.412 13.985 16.1272 11.7684 16.1272 8.99409C16.1272 6.21204 15.414 3.99548 14.0072 2.40565C12.5944 0.809333 10.6084 0 8.1045 0Z" fill="#EFEFEF"/>
<path fill-rule="evenodd" clip-rule="evenodd" d="M25.5219 4.31934C24.6154 4.31934 23.78 4.50094 23.0389 4.85931C22.4014 5.16766 21.8786 5.58978 21.4809 6.11693L21.1993 4.55339H19.2668V17.766H21.5936V10.8436C21.5936 9.22854 21.8931 8.06172 22.4837 7.37532C23.0669 6.6973 24.0103 6.35353 25.2879 6.35353C26.2419 6.35353 26.9467 6.59265 27.3826 7.06444C27.8227 7.54054 28.0457 8.28434 28.0457 9.27515V17.766H30.3725V9.20492C30.3725 7.51958 29.9587 6.26984 29.1427 5.49022C28.3289 4.71327 27.1108 4.31934 25.5219 4.31934Z" fill="#EFEFEF"/>
<path fill-rule="evenodd" clip-rule="evenodd" d="M39.0645 6.33003C40.0282 6.33003 40.7458 6.62732 41.2585 7.2388C41.7441 7.81815 42.0036 8.65859 42.0307 9.7388H35.7313C35.8579 8.69948 36.1977 7.87098 36.7423 7.27423C37.3223 6.63888 38.0819 6.33003 39.0645 6.33003ZM39.088 4.31934C37.3198 4.31934 35.8899 4.95672 34.8382 6.21409C33.7949 7.46117 33.2659 9.16047 33.2659 11.265C33.2659 13.3588 33.837 15.0217 34.9633 16.2079C36.0919 17.397 37.6491 18.0001 39.5913 18.0001C40.4668 18.0001 41.2264 17.9337 41.8489 17.8028C42.4717 17.6719 43.1396 17.4534 43.8344 17.1533L43.9502 17.1034V14.9539L43.6829 15.0684C42.3635 15.6328 41.0105 15.9191 39.6615 15.9191C38.4123 15.9191 37.4338 15.546 36.7532 14.8102C36.0986 14.1027 35.7346 13.0579 35.6701 11.7026H44.5004V10.2818C44.5004 8.50937 44.0116 7.05872 43.0476 5.97C42.0775 4.87468 40.7453 4.31934 39.088 4.31934Z" fill="#EFEFEF"/>
<path fill-rule="evenodd" clip-rule="evenodd" d="M45.5798 2.42032H50.9993V17.7658H53.3729V2.42032H58.7924V0.269043H45.5798V2.42032Z" fill="#EFEFEF"/>
<path fill-rule="evenodd" clip-rule="evenodd" d="M66.7358 4.31934C65.897 4.31934 65.1165 4.55872 64.4161 5.03101C63.8255 5.42952 63.3029 5.97648 62.8588 6.66034L62.6615 4.55339H60.6913V17.766H63.0182V10.6915C63.0182 9.48875 63.3743 8.47204 64.0768 7.66918C64.7825 6.86264 65.6063 6.47049 66.5952 6.47049C66.9851 6.47049 67.4439 6.52814 67.9585 6.64155L68.1593 6.686L68.4858 4.50056L68.308 4.46373C67.8445 4.36785 67.3155 4.31934 66.7358 4.31934Z" fill="#EFEFEF"/>
<path fill-rule="evenodd" clip-rule="evenodd" d="M79.1268 11.4873C79.1268 13.0951 78.829 14.2624 78.2416 14.9568C77.6623 15.6418 76.7211 15.9892 75.4443 15.9892C74.4904 15.9892 73.7855 15.7499 73.3495 15.2782C72.9096 14.8024 72.6866 14.0586 72.6866 13.0675V4.55322H70.3362V13.1376C70.3362 14.8157 70.7481 16.0595 71.5603 16.8348C72.3697 17.6079 73.5938 18 75.1985 18C76.1277 18 76.9687 17.8243 77.6979 17.478C78.3284 17.1786 78.8473 16.7599 79.2446 16.2311L79.495 17.7658H81.4536V4.55322H79.1268V11.4873Z" fill="#EFEFEF"/>
<path fill-rule="evenodd" clip-rule="evenodd" d="M89.8383 10.102C88.7447 9.69397 87.9975 9.37903 87.6176 9.16619C87.254 8.96274 86.9892 8.74888 86.8306 8.53033C86.6781 8.32015 86.6038 8.06997 86.6038 7.76519C86.6038 7.32528 86.8037 6.98824 87.215 6.73463C87.6505 6.46617 88.3176 6.33003 89.1978 6.33003C90.2132 6.33003 91.3661 6.59304 92.6246 7.11155L92.7983 7.18318L93.6417 5.25338L93.4635 5.17743C92.1269 4.60799 90.739 4.31934 89.3384 4.31934C87.822 4.31934 86.6071 4.63644 85.7273 5.26189C84.827 5.90193 84.3707 6.78746 84.3707 7.89396C84.3707 8.51077 84.5034 9.05138 84.7654 9.50056C85.0254 9.9458 85.4235 10.3474 85.9494 10.6937C86.4622 11.0317 87.3317 11.4301 88.5319 11.8773C89.7634 12.3516 90.5983 12.7647 91.0133 13.1048C91.4031 13.4245 91.5927 13.7952 91.5927 14.2381C91.5927 14.8341 91.3555 15.2644 90.8675 15.5537C90.3538 15.8584 89.5991 16.0128 88.6243 16.0128C87.9874 16.0128 87.3161 15.9242 86.6289 15.7493C85.9396 15.5742 85.2852 15.3311 84.6844 15.0267L84.4058 14.8857V17.1126L84.5033 17.1676C85.4799 17.72 86.8505 18.0001 88.5774 18.0001C90.2191 18.0001 91.5173 17.6608 92.436 16.9918C93.3737 16.309 93.8493 15.3274 93.8493 14.0742C93.8493 13.1769 93.5618 12.4195 92.9948 11.8233C92.4343 11.2344 91.4014 10.6712 89.8383 10.102Z" fill="#EFEFEF"/>
<path fill-rule="evenodd" clip-rule="evenodd" d="M102.664 15.786C102.484 15.8383 102.236 15.8898 101.926 15.9386C101.619 15.9877 101.294 16.0126 100.962 16.0126C100.374 16.0126 99.9267 15.8308 99.5951 15.4566C99.2621 15.0813 99.0932 14.5256 99.0932 13.8048V6.44687H102.816V4.55313H99.0932V1.58008H97.6348L96.7998 4.37102L94.9287 5.19331V6.44687H96.7664V13.8868C96.7664 16.616 98.0834 17.9999 100.681 17.9999C101.016 17.9999 101.398 17.9656 101.817 17.8979C102.25 17.8277 102.572 17.7399 102.801 17.6297L102.909 17.5774V15.7145L102.664 15.786Z" fill="#EFEFEF"/>
</svg>
