<svg width="61" height="21" viewBox="0 0 61 21" fill="none" xmlns="http://www.w3.org/2000/svg">
<path fill-rule="evenodd" clip-rule="evenodd" d="M58.966 7.55346L56.5525 5.14017H52.069V2.03623H48.2751V16.1746H52.069V8.93264H55.1721V16.1746H58.966V7.55346ZM46.8967 5.14017H41.0344L38.6204 7.55346V13.7603L41.0344 16.1746H46.8967V12.3818H42.4132V8.93264H46.8967V5.14017ZM37.241 5.14017H34.138V2.03623H30.3441V13.7603L32.7581 16.1746H37.241V12.3818H34.138V8.93264H37.241V5.14017ZM28.9647 2.03623H25.1719V3.76099H28.9647V2.03623ZM28.9647 5.14017H25.1719V16.1745H28.9647V5.14017ZM23.7926 5.14017H19.9994V12.3818H18.6204V5.14017H14.827V12.3818H13.4482V5.14017H9.65432V16.1746H21.3791L23.7926 13.7603V5.14017ZM8.27496 5.14017H5.17173V2.03623H1.37855V13.7603L3.79238 16.1746H8.27496V12.3818H5.17173V8.93264H8.27496V5.14017ZM60.3443 6.8637V17.2086L55.1721 20.6572H51.724V18.9325L49.3101 20.6572H46.2071V18.9325L44.4834 20.6572H38.9658L37.241 18.9325L36.8958 20.6572H32.0688L30.0949 18.9325L29.9843 20.6572H24.5131L24.3196 18.9325L22.8386 20.6572H14.4818L12.7574 19.9675V20.6572H8.27496L3.10226 17.5529L-0.000976562 14.4509V0.657227H6.55126L9.65432 3.76099H23.7926V0.657227H35.5168V3.76099H38.6204V5.4847L40.3451 3.76099H43.7927L46.8967 0.657227H53.4484V3.76099H57.2417L60.3443 6.8637Z" fill="white"/>
</svg>
