<svg width="63" height="18" viewBox="0 0 63 18" fill="none" xmlns="http://www.w3.org/2000/svg">
<path d="M0 17.64H2.892V0H0V17.64Z" fill="#EFEFEF"/>
<path d="M6.72656 2.712H9.61856V0.0599999H6.72656V2.712ZM6.72656 17.64H9.61856V4.68H6.72656V17.64Z" fill="#EFEFEF"/>
<path d="M18.2171 18C19.8891 18 21.1971 17.628 22.1411 16.884C23.0931 16.14 23.5691 15.116 23.5691 13.812C23.5691 12.804 23.2491 12.012 22.6091 11.436C21.9771 10.86 20.8851 10.372 19.3331 9.972C18.3251 9.716 17.5651 9.5 17.0531 9.324C16.5491 9.148 16.2131 8.972 16.0451 8.796C15.8771 8.62 15.7931 8.408 15.7931 8.16C15.7931 7.728 16.0011 7.392 16.4171 7.152C16.8331 6.904 17.3811 6.796 18.0611 6.828C18.7651 6.868 19.3291 7.048 19.7531 7.368C20.1851 7.688 20.4411 8.124 20.5211 8.676L23.4731 8.148C23.3131 6.98 22.7411 6.052 21.7571 5.364C20.7731 4.668 19.5251 4.32 18.0131 4.32C16.4691 4.32 15.2331 4.68 14.3051 5.4C13.3771 6.12 12.9131 7.088 12.9131 8.304C12.9131 9.272 13.2371 10.036 13.8851 10.596C14.5411 11.156 15.6811 11.648 17.3051 12.072C18.2811 12.328 19.0011 12.544 19.4651 12.72C19.9371 12.888 20.2451 13.06 20.3891 13.236C20.5331 13.412 20.6051 13.648 20.6051 13.944C20.6051 14.424 20.4131 14.804 20.0291 15.084C19.6451 15.356 19.1091 15.492 18.4211 15.492C17.6291 15.492 16.9691 15.308 16.4411 14.94C15.9211 14.572 15.5891 14.068 15.4451 13.428L12.4931 13.884C12.7091 15.188 13.3171 16.2 14.3171 16.92C15.3171 17.64 16.6171 18 18.2171 18Z" fill="#EFEFEF"/>
<path d="M33.7935 17.64V15.216C32.9855 15.336 32.2655 15.368 31.6335 15.312C31.0015 15.256 30.5415 14.988 30.2535 14.508C30.1015 14.26 30.0175 13.94 30.0015 13.548C29.9935 13.148 29.9895 12.692 29.9895 12.18V6.948H33.7935V4.68H29.9895V1.08H27.1095V4.68H24.7575V6.948H27.1095V12.348C27.1095 13.092 27.1175 13.756 27.1335 14.34C27.1495 14.916 27.3055 15.484 27.6015 16.044C27.9375 16.66 28.4295 17.112 29.0775 17.4C29.7255 17.68 30.4575 17.828 31.2735 17.844C32.0975 17.868 32.9375 17.8 33.7935 17.64Z" fill="#EFEFEF"/>
<path d="M41.8161 18C43.0641 18 44.2041 17.68 45.2361 17.04C46.2761 16.392 47.0441 15.48 47.5401 14.304L44.6841 13.44C44.1081 14.672 43.0961 15.288 41.6481 15.288C40.6641 15.288 39.8881 15.004 39.3201 14.436C38.7521 13.86 38.4121 13.036 38.3001 11.964H47.6841C47.7961 10.404 47.6241 9.052 47.1681 7.908C46.7121 6.764 46.0121 5.88 45.0681 5.256C44.1321 4.632 42.9921 4.32 41.6481 4.32C40.3761 4.32 39.2561 4.608 38.2881 5.184C37.3201 5.752 36.5641 6.56 36.0201 7.608C35.4761 8.656 35.2041 9.888 35.2041 11.304C35.2041 12.616 35.4801 13.776 36.0321 14.784C36.5921 15.792 37.3681 16.58 38.3601 17.148C39.3521 17.716 40.5041 18 41.8161 18ZM41.7681 6.852C42.6641 6.852 43.3521 7.088 43.8321 7.56C44.3201 8.024 44.6281 8.764 44.7561 9.78H38.3721C38.7161 7.828 39.8481 6.852 41.7681 6.852Z" fill="#EFEFEF"/>
<path d="M56.2536 18C57.5016 18 58.6416 17.68 59.6736 17.04C60.7136 16.392 61.4816 15.48 61.9776 14.304L59.1216 13.44C58.5456 14.672 57.5336 15.288 56.0856 15.288C55.1016 15.288 54.3256 15.004 53.7576 14.436C53.1896 13.86 52.8496 13.036 52.7376 11.964H62.1216C62.2336 10.404 62.0616 9.052 61.6056 7.908C61.1496 6.764 60.4496 5.88 59.5056 5.256C58.5696 4.632 57.4296 4.32 56.0856 4.32C54.8136 4.32 53.6936 4.608 52.7256 5.184C51.7576 5.752 51.0016 6.56 50.4576 7.608C49.9136 8.656 49.6416 9.888 49.6416 11.304C49.6416 12.616 49.9176 13.776 50.4696 14.784C51.0296 15.792 51.8056 16.58 52.7976 17.148C53.7896 17.716 54.9416 18 56.2536 18ZM56.2056 6.852C57.1016 6.852 57.7896 7.088 58.2696 7.56C58.7576 8.024 59.0656 8.764 59.1936 9.78H52.8096C53.1536 7.828 54.2856 6.852 56.2056 6.852Z" fill="#EFEFEF"/>
</svg>
