<svg width="71" height="20" viewBox="0 0 71 20" fill="none" xmlns="http://www.w3.org/2000/svg">
<path d="M11.866 7H7.77095C7.74945 6.74731 7.66078 6.52957 7.50493 6.34677C7.34908 6.16398 7.14755 6.02419 6.90034 5.92742C6.65851 5.82527 6.3898 5.77419 6.09423 5.77419C5.71267 5.77419 5.38485 5.84409 5.11077 5.98387C4.83669 6.12366 4.70234 6.32258 4.70771 6.58065C4.70234 6.76344 4.78026 6.9328 4.94148 7.08871C5.10808 7.24462 5.42784 7.36559 5.90076 7.45161L8.41584 7.90323C9.68413 8.13441 10.6273 8.52419 11.2453 9.07258C11.8687 9.61559 12.1831 10.3441 12.1885 11.2581C12.1831 12.1398 11.9198 12.9059 11.3985 13.5565C10.8826 14.2016 10.1759 14.7016 9.27838 15.0565C8.38628 15.4059 7.36789 15.5806 6.22321 15.5806C4.33152 15.5806 2.85096 15.1935 1.78151 14.4194C0.717442 13.6452 0.123604 12.6237 0 11.3548H4.41751C4.47662 11.7473 4.67009 12.0511 4.99791 12.2661C5.3311 12.4758 5.75029 12.5806 6.25545 12.5806C6.66388 12.5806 6.99976 12.5108 7.26309 12.371C7.5318 12.2312 7.66884 12.0323 7.67421 11.7742C7.66884 11.5376 7.55061 11.3495 7.31952 11.2097C7.09381 11.0699 6.73912 10.957 6.25545 10.871L4.06282 10.4839C2.79991 10.2634 1.85406 9.84409 1.22529 9.22581C0.596525 8.60753 0.284827 7.81183 0.290201 6.83871C0.284827 5.9785 0.510539 5.25 0.967338 4.65323C1.42951 4.05108 2.08784 3.59409 2.94232 3.28226C3.80217 2.96505 4.82057 2.80645 5.99749 2.80645C7.78707 2.80645 9.19777 3.17742 10.2296 3.91936C11.2668 4.66129 11.8123 5.68817 11.866 7Z" fill="#EFEFEF"/>
<path d="M13.0526 20V2.96774H17.4701V5.12903H17.5669C17.7281 4.70968 17.9646 4.32527 18.2763 3.97581C18.588 3.62097 18.9749 3.33871 19.4371 3.12903C19.8992 2.91398 20.4367 2.80645 21.0493 2.80645C21.8662 2.80645 22.6427 3.02419 23.379 3.45968C24.1206 3.89516 24.7225 4.58065 25.1847 5.51613C25.6522 6.45161 25.886 7.66667 25.886 9.16129C25.886 10.5914 25.663 11.7769 25.2169 12.7177C24.7762 13.6586 24.1851 14.3602 23.4435 14.8226C22.7072 15.2849 21.8984 15.5161 21.0171 15.5161C20.4367 15.5161 19.9181 15.422 19.4613 15.2339C19.0098 15.0403 18.6229 14.7796 18.3004 14.4516C17.9834 14.1183 17.7389 13.7419 17.5669 13.3226H17.5024V20H13.0526ZM17.4057 9.16129C17.4057 9.76344 17.4836 10.2849 17.6394 10.7258C17.8007 11.1613 18.0264 11.5 18.3166 11.7419C18.6121 11.9785 18.9641 12.0968 19.3726 12.0968C19.781 12.0968 20.1276 11.9812 20.4125 11.75C20.7027 11.5134 20.923 11.1774 21.0735 10.7419C21.2293 10.3011 21.3073 9.77419 21.3073 9.16129C21.3073 8.54839 21.2293 8.02419 21.0735 7.58871C20.923 7.14785 20.7027 6.81183 20.4125 6.58065C20.1276 6.34409 19.781 6.22581 19.3726 6.22581C18.9641 6.22581 18.6121 6.34409 18.3166 6.58065C18.0264 6.81183 17.8007 7.14785 17.6394 7.58871C17.4836 8.02419 17.4057 8.54839 17.4057 9.16129Z" fill="#EFEFEF"/>
<path d="M26.9094 15.3548V2.96774H31.2302V5.32258H31.3591C31.5848 4.45161 31.9422 3.81452 32.4313 3.41129C32.9257 3.00806 33.5034 2.80645 34.1644 2.80645C34.3579 2.80645 34.5487 2.82258 34.7368 2.85484C34.9302 2.88172 35.1156 2.92204 35.293 2.97581V6.77419C35.0726 6.69893 34.8012 6.64247 34.4788 6.60484C34.1564 6.5672 33.8796 6.54839 33.6485 6.54839C33.2132 6.54839 32.8209 6.64785 32.4716 6.84677C32.1276 7.04032 31.8562 7.31452 31.6574 7.66935C31.4586 8.01882 31.3591 8.43011 31.3591 8.90323V15.3548H26.9094Z" fill="#EFEFEF"/>
<path d="M42.0167 15.5806C40.6731 15.5806 39.5231 15.3145 38.5665 14.7823C37.6099 14.2446 36.8763 13.4973 36.3658 12.5403C35.8553 11.578 35.6 10.4624 35.6 9.19355C35.6 7.92473 35.8553 6.81183 36.3658 5.85484C36.8763 4.89247 37.6099 4.14516 38.5665 3.6129C39.5231 3.07527 40.6731 2.80645 42.0167 2.80645C43.3602 2.80645 44.5102 3.07527 45.4668 3.6129C46.4234 4.14516 47.157 4.89247 47.6675 5.85484C48.1781 6.81183 48.4333 7.92473 48.4333 9.19355C48.4333 10.4624 48.1781 11.578 47.6675 12.5403C47.157 13.4973 46.4234 14.2446 45.4668 14.7823C44.5102 15.3145 43.3602 15.5806 42.0167 15.5806ZM42.0489 12.2903C42.4251 12.2903 42.7502 12.164 43.0243 11.9113C43.2984 11.6586 43.5107 11.2984 43.6611 10.8306C43.8116 10.3629 43.8869 9.80645 43.8869 9.16129C43.8869 8.51075 43.8116 7.9543 43.6611 7.49194C43.5107 7.02419 43.2984 6.66398 43.0243 6.41129C42.7502 6.1586 42.4251 6.03226 42.0489 6.03226C41.6512 6.03226 41.31 6.1586 41.0251 6.41129C40.7403 6.66398 40.5227 7.02419 40.3722 7.49194C40.2217 7.9543 40.1465 8.51075 40.1465 9.16129C40.1465 9.80645 40.2217 10.3629 40.3722 10.8306C40.5227 11.2984 40.7403 11.6586 41.0251 11.9113C41.31 12.164 41.6512 12.2903 42.0489 12.2903Z" fill="#EFEFEF"/>
<path d="M57.4272 9.93548V2.96774H61.8769V15.3548H57.6529V13H57.5239C57.2552 13.7903 56.785 14.4086 56.1132 14.8548C55.4415 15.2957 54.6434 15.5161 53.7191 15.5161C52.8538 15.5161 52.0961 15.3172 51.4458 14.9194C50.8009 14.5215 50.2985 13.9731 49.9384 13.2742C49.5837 12.5753 49.4037 11.7742 49.3983 10.871V2.96774H53.848V9.93548C53.8534 10.5484 54.0093 11.0296 54.3156 11.379C54.6273 11.7285 55.0626 11.9032 55.6215 11.9032C55.9923 11.9032 56.3121 11.8253 56.5808 11.6694C56.8549 11.5081 57.0644 11.2823 57.2095 10.9919C57.36 10.6962 57.4326 10.3441 57.4272 9.93548Z" fill="#EFEFEF"/>
<path d="M70.6834 2.96774V6.19355H62.5255V2.96774H70.6834ZM64.1055 0H68.5552V11.371C68.5552 11.543 68.5848 11.6882 68.6439 11.8065C68.703 11.9194 68.7944 12.0054 68.918 12.0645C69.0416 12.1183 69.2001 12.1452 69.3936 12.1452C69.5279 12.1452 69.6838 12.129 69.8611 12.0968C70.0439 12.0645 70.1782 12.0376 70.2642 12.0161L70.9091 15.1452C70.7102 15.2043 70.4254 15.2769 70.0546 15.3629C69.6892 15.4489 69.2539 15.5054 68.7487 15.5323C67.7276 15.586 66.8705 15.4812 66.1772 15.2177C65.4839 14.9489 64.9626 14.5269 64.6133 13.9516C64.264 13.3763 64.0947 12.6559 64.1055 11.7903V0Z" fill="#EFEFEF"/>
</svg>
