<svg width="167" height="20" viewBox="0 0 167 20" fill="none" xmlns="http://www.w3.org/2000/svg">
<path d="M17.9175 18.7816C17.5379 18.7563 17.1582 18.6044 16.8799 18.3514L15.8423 17.2885L15.6904 17.1366L8.70566 10.0759L9.64202 9.11425L19.0057 18.5791C18.6514 18.731 18.2718 18.8069 17.9175 18.7816ZM14.3998 18.7816C14.0202 18.7563 13.6406 18.6044 13.3622 18.3514L12.3246 17.2885L12.1727 17.1366L6.93416 11.8727L7.7946 11.0123L15.3614 18.6297C15.0578 18.7563 14.7035 18.8069 14.3998 18.7816V18.7816ZM10.8568 18.7816C10.4772 18.7563 10.0976 18.6044 9.81917 18.3514L8.78158 17.2885L8.62974 17.1366L5.18796 13.6442L6.04841 12.7838L11.8437 18.6297C11.5148 18.7563 11.1858 18.8069 10.8568 18.7816V18.7816ZM13.9695 1.42088C14.2985 1.26904 14.6781 1.19311 15.0324 1.21842C15.4121 1.24373 15.7917 1.39557 16.07 1.64864L17.1076 2.71154L17.2595 2.86339L24.2442 9.89877L23.3079 10.8604L13.9695 1.42088ZM18.5754 1.21842C18.9551 1.24373 19.3347 1.39557 19.613 1.64864L20.6506 2.71154L20.8025 2.86339L26.0157 8.12727L25.1553 8.98771L17.6138 1.37026C17.9175 1.24373 18.2465 1.19311 18.5754 1.21842V1.21842ZM22.1184 1.21842C22.4981 1.24373 22.8777 1.39557 23.156 1.64864L24.1936 2.71154L24.3455 2.86339L27.8126 6.35577L26.9521 7.21621L21.1315 1.37026C21.4352 1.24373 21.7895 1.19311 22.1184 1.21842V1.21842ZM32.0642 9.13956L23.0042 18.326C22.8524 18.4526 22.7005 18.5538 22.4981 18.6297C22.2703 18.7057 22.0172 18.7563 21.7641 18.7563C21.5111 18.7563 21.258 18.7057 21.0302 18.6297C20.8531 18.5538 20.6759 18.4526 20.5241 18.326L10.5025 8.20319L10.9074 7.79828C11.0592 7.67174 11.5654 7.1656 12.1221 7.1656C12.4005 7.1656 12.6283 7.24152 12.8307 7.34275L18.8032 13.3912L18.8285 13.3658C19.2081 13.7708 19.7902 14.1504 20.6759 14.1504C21.5111 14.1504 22.4727 13.543 22.8524 13.0875L29.4575 6.48231L24.0671 0.762892C23.6875 0.307364 23.0548 0.0542925 22.1691 0.00367817C21.5364 -0.021629 20.7266 0.0795996 20.1698 0.4339C19.7902 0.180828 19.284 0.0289853 18.6261 0.00367817C17.9934 -0.021629 17.1836 0.0795996 16.6268 0.4339C16.2472 0.180828 15.741 0.0289853 15.0831 0.00367817C14.4251 -0.021629 13.5646 0.104907 13.0079 0.484514C12.6283 0.206135 12.0968 0.0289853 11.4135 0.00367817H10.9074C10.0216 0.0289853 9.38895 0.307364 9.00934 0.762892L0 9.94939L0.911057 10.8604L9.94571 1.67395C10.0976 1.54741 10.2494 1.44619 10.4519 1.37026C10.6796 1.29434 10.9327 1.24373 11.1858 1.24373C11.4388 1.24373 11.6919 1.29434 11.9197 1.37026C12.0968 1.44619 12.274 1.54741 12.4258 1.67395L22.4474 11.7968L22.0425 12.2017C21.8907 12.3283 21.3845 12.8344 20.8278 12.8344C20.1445 12.8597 19.7396 12.3283 19.5877 12.2017L14.3492 6.88722C13.9695 6.43169 13.3369 5.82432 12.2487 5.82432C11.4135 5.82432 10.4519 6.43169 10.0722 6.88722L3.44177 13.4924L8.90812 19.2371C9.28772 19.6926 9.9204 19.9457 10.8062 19.9963C11.4388 20.0216 12.2487 19.9204 12.8054 19.5661C13.185 19.8192 13.6912 19.971 14.3492 19.9963C14.9818 20.0216 15.7917 19.9204 16.3484 19.5661C16.728 19.8192 17.2342 19.971 17.8922 19.9963C18.5501 20.0216 19.4106 19.8951 19.9673 19.5155C20.3469 19.7939 20.8784 19.971 21.5617 19.9963H22.0678C22.9536 19.971 23.5863 19.6926 23.9659 19.2371L33.0005 10.0506L32.0642 9.13956V9.13956Z" fill="white"/>
<path d="M42.6977 6.16621C42.6977 6.97974 42.1747 7.27029 41.5355 7.27029H39.6179L39.5598 7.21218V1.74987C39.5598 1.74987 39.5598 1.63365 39.6179 1.63365H41.5937C42.0004 1.63365 42.4072 1.98231 42.4072 2.33097V2.79585C42.4072 3.02829 42.0585 3.60938 41.5937 3.60938H40.7801C40.6639 3.60938 40.5477 3.7256 40.5477 3.84182V4.77158C40.5477 4.8878 40.6639 5.00401 40.7801 5.00401H41.7099C42.5815 5.06212 42.814 5.527 42.814 5.75944V6.16621H42.6977ZM42.9883 4.19048C42.8721 4.19048 42.814 4.13237 42.814 4.07426C42.814 4.01615 42.8721 3.95804 42.9302 3.95804H43.1626C43.9761 3.84182 44.5572 3.20262 44.5572 2.38908V1.80798C44.5572 0.93634 43.8599 0.239023 42.9883 0.239023H36.5962C36.5381 0.239023 36.5381 0.297133 36.5381 0.297133V1.285C36.5381 1.285 36.5381 1.34311 36.5962 1.40122H36.7124C37.003 1.45933 37.4679 1.69177 37.4679 1.86609V6.86352C37.4679 7.09596 37.0611 7.27029 36.7124 7.3284C36.7124 7.3284 36.6543 7.3284 36.5962 7.38651C36.5381 7.44462 36.5962 7.50273 36.5962 7.50273V8.49059C36.5962 8.5487 36.6543 8.5487 36.6543 8.5487H43.0464C44.1505 8.5487 44.964 7.44462 44.964 6.57297V5.75944C44.9059 4.8878 44.3829 4.19048 42.9883 4.19048V4.19048ZM156.999 6.16621C156.999 6.97974 156.476 7.27029 155.837 7.27029H153.92L153.862 7.21218V1.74987C153.862 1.74987 153.861 1.63365 153.92 1.63365H155.895C156.302 1.63365 156.709 1.98231 156.709 2.33097V2.79585C156.709 3.02829 156.36 3.60938 155.895 3.60938H155.082C154.966 3.60938 154.849 3.7256 154.849 3.84182V4.77158C154.849 4.8878 154.966 5.00401 155.082 5.00401H156.012C156.883 5.06212 157.116 5.527 157.116 5.75944V6.16621H156.999ZM157.29 4.19048C157.174 4.19048 157.116 4.13237 157.116 4.07426C157.116 4.01615 157.174 3.95804 157.232 3.95804H157.464C158.278 3.84182 158.859 3.20262 158.859 2.38908V1.80798C158.859 0.93634 158.162 0.239023 157.29 0.239023H150.898C150.84 0.239023 150.84 0.297133 150.84 0.297133V1.285C150.84 1.285 150.84 1.34311 150.898 1.40122H151.014C151.305 1.45933 151.77 1.69177 151.77 1.86609V6.86352C151.77 7.09596 151.363 7.27029 151.014 7.3284C151.014 7.3284 150.956 7.3284 150.898 7.38651C150.84 7.44462 150.898 7.50273 150.898 7.50273V8.49059C150.898 8.5487 150.956 8.5487 150.956 8.5487H157.348C158.452 8.5487 159.266 7.44462 159.266 6.57297V5.75944C159.208 4.8878 158.685 4.19048 157.29 4.19048V4.19048ZM61.9901 0.239023H59.4333C59.2009 0.239023 59.2009 0.239023 59.2009 0.471462V1.05256C59.2009 1.16878 59.4333 1.11067 59.4333 1.11067C59.4333 1.11067 59.5495 1.11067 59.6658 1.22689L59.7239 1.34311C59.7239 1.34311 59.7239 1.51744 59.6076 1.69176C59.4914 1.9242 58.9684 2.79585 58.736 3.14451C58.736 3.26073 58.5617 3.31884 58.4455 3.31884C58.3292 3.31884 58.2711 3.20262 58.213 3.14451L57.2251 1.74987C57.2251 1.74987 57.0508 1.45933 57.2251 1.16878C57.2833 1.05256 57.4576 1.05256 57.5157 1.05256C57.6319 1.05256 57.69 1.05256 57.69 0.82012V0.297133C57.69 0.239024 57.6319 0.122805 57.5157 0.122805H54.2616C54.1453 0.122805 54.0291 0.122804 54.0291 0.297133V0.93634C54.0291 1.16878 53.971 1.22689 54.1453 1.22689C54.4359 1.22689 54.7264 1.51744 54.7264 1.51744L56.9927 4.77158V6.97974C56.9927 7.09596 56.7603 7.15407 56.5278 7.21218L56.2954 7.27029C56.2373 7.27029 56.2373 7.27029 56.2373 7.3284V8.43248C56.2373 8.49059 56.2954 8.49059 56.2954 8.49059H59.8401C59.8982 8.49059 59.8982 8.49059 59.8982 8.43248V7.3284C59.8982 7.27029 59.8401 7.27029 59.8401 7.27029H59.7239C59.4333 7.21218 59.0847 7.03785 59.0847 6.92163V5.00401L60.9442 2.09853C60.9442 2.09853 61.2928 1.63366 61.3509 1.51744C61.4672 1.40122 61.5834 1.34311 61.6996 1.285L61.9901 1.22689C62.2226 1.22689 62.2226 1.16878 62.2226 0.994449V0.355243C62.2226 0.239024 62.1645 0.239023 61.9901 0.239023V0.239023ZM141.542 7.27029V5.527C141.542 5.41078 141.426 5.29456 141.31 5.29456H140.671C140.554 5.29456 140.438 5.41078 140.438 5.527V5.87566C140.438 6.04999 140.38 6.16621 140.322 6.34054C140.148 6.6892 139.741 6.97974 139.567 7.03785C139.16 7.21218 138.579 7.15407 138.579 7.15407H137.707C137.591 7.09596 137.533 7.03785 137.533 6.92163V1.9242C137.533 1.74987 137.998 1.51744 138.346 1.45933C138.346 1.45933 138.404 1.45933 138.404 1.40122V0.355243C138.404 0.297134 138.346 0.297133 138.346 0.297133H134.918C134.86 0.297133 134.86 0.355243 134.86 0.355243V1.40122C134.86 1.45933 134.918 1.45933 134.918 1.45933C135.266 1.51744 135.731 1.69176 135.731 1.9242V6.92163C135.731 7.09596 135.266 7.3284 134.918 7.38651C134.918 7.38651 134.86 7.38651 134.86 7.44462V8.49059C134.86 8.5487 134.918 8.5487 134.918 8.5487H141.368C141.484 8.5487 141.6 8.43248 141.6 8.31626V7.38651C141.542 7.3284 141.542 7.27029 141.542 7.27029V7.27029ZM115.277 7.27029V5.527C115.277 5.41078 115.16 5.29456 115.044 5.29456H114.405C114.289 5.29456 114.173 5.41078 114.173 5.527V5.87566C114.173 6.04999 114.115 6.16621 114.056 6.34054C113.882 6.6892 113.475 6.97974 113.301 7.03785C112.894 7.21218 112.313 7.15407 112.313 7.15407H111.441C111.325 7.09596 111.267 7.03785 111.267 6.92163V1.9242C111.267 1.74987 111.732 1.51744 112.081 1.45933C112.081 1.45933 112.139 1.45933 112.139 1.40122V0.355243C112.139 0.297134 112.081 0.297133 112.081 0.297133H108.652C108.594 0.297133 108.594 0.355243 108.594 0.355243V1.40122C108.594 1.45933 108.652 1.45933 108.652 1.45933C109.001 1.51744 109.466 1.69176 109.466 1.9242V6.92163C109.466 7.09596 109.001 7.3284 108.652 7.38651C108.652 7.38651 108.594 7.38651 108.594 7.44462V8.49059C108.594 8.5487 108.652 8.5487 108.652 8.5487H115.102C115.219 8.5487 115.335 8.43248 115.335 8.31626V7.38651C115.277 7.3284 115.277 7.27029 115.277 7.27029V7.27029ZM145.784 7.21218C145.552 7.21218 145.087 7.21218 144.913 7.15407C144.68 7.09596 144.39 6.97974 144.215 6.7473C144.099 6.51486 144.157 5.87566 144.157 5.64322V1.9242C144.157 1.74987 144.622 1.51744 144.971 1.45933C144.971 1.45933 145.029 1.45933 145.029 1.40122V0.355243C145.029 0.297134 144.971 0.297133 144.971 0.297133H141.194C141.135 0.297133 141.135 0.355243 141.135 0.355243V1.40122C141.135 1.45933 141.194 1.45933 141.194 1.45933C141.542 1.51744 142.007 1.69176 142.007 1.9242V6.22432C142.007 6.22432 142.007 7.27029 142.181 7.56084C142.646 8.31626 143.344 8.72303 145.494 8.72303H145.9C148.051 8.72303 148.864 8.31626 149.329 7.56084C149.503 7.27029 149.503 6.22432 149.503 6.22432V1.9242C149.503 1.74987 149.968 1.51744 150.317 1.45933C150.317 1.45933 150.375 1.45933 150.375 1.40122V0.355243C150.375 0.297134 150.317 0.297133 150.317 0.297133H146.54C146.482 0.297133 146.482 0.355243 146.482 0.355243V1.40122C146.482 1.45933 146.54 1.45933 146.54 1.45933C146.888 1.51744 147.353 1.69176 147.353 1.9242V5.64322C147.353 5.87566 147.411 6.57297 147.295 6.7473C147.121 6.97974 146.83 7.15407 146.598 7.15407C146.482 7.21218 145.959 7.21218 145.784 7.21218V7.21218ZM134.22 6.22432C134.22 6.1081 134.104 5.99188 133.988 5.99188H133.349C133.233 5.99188 133.116 6.1081 133.116 6.22432V6.34054C133.116 6.6892 132.651 7.15407 132.419 7.21218C132.012 7.38651 131.838 7.38651 131.257 7.38651C130.676 7.38651 130.501 7.38651 130.095 7.21218C129.862 7.09596 129.397 6.63109 129.223 6.22432C129.107 5.93377 128.991 5.527 128.991 4.3067C128.991 3.0864 129.049 2.5053 129.223 2.27286C129.514 1.86609 129.92 1.40122 130.966 1.40122C132.012 1.40122 132.361 1.74987 132.535 2.04042C132.535 2.04042 132.826 2.27286 132.826 2.56341V2.67963C132.826 2.79585 132.942 2.91207 133.058 2.91207H133.697C133.814 2.91207 133.93 2.79585 133.93 2.67963V0.703901C133.93 0.703901 133.988 0.587682 133.814 0.413353C133.814 0.413353 132.826 0.122805 131.257 0.122805C129.92 0.122805 128.816 0.413352 128.235 0.76201C127.654 1.11067 126.608 2.15664 126.608 4.24859C126.608 6.34054 127.073 7.15407 127.654 7.67706C128.119 8.14194 128.816 8.5487 130.211 8.72303C130.269 8.78114 130.618 8.78114 130.908 8.78114H131.199C131.489 8.78114 131.722 8.78114 131.954 8.72303C133.639 8.66492 134.046 8.49059 134.046 8.49059C134.162 8.49059 134.279 8.37437 134.279 8.25816L134.22 6.22432ZM94.0086 6.22432V4.19048C94.0086 4.07426 93.8923 3.95804 93.7761 3.95804H90.7544C90.6382 3.95804 90.522 4.07426 90.522 4.19048V5.12023C90.522 5.23645 90.6382 5.35267 90.7544 5.35267H91.9166V7.15407C91.8585 7.21218 91.8004 7.21218 91.7423 7.27029C91.3355 7.44462 91.1612 7.44462 90.5801 7.44462C89.999 7.44462 89.8247 7.44462 89.4179 7.27029C89.1855 7.15407 88.7206 6.68919 88.5463 6.28243C88.43 5.99188 88.3138 5.58511 88.3138 4.36481C88.3138 3.14451 88.3719 2.56341 88.5463 2.33097C88.8368 1.9242 89.2436 1.45933 90.2895 1.45933C91.2774 1.45933 91.6842 1.80798 91.8585 2.09853C91.8585 2.09853 92.1491 2.33097 92.1491 2.62152V2.73774C92.1491 2.85396 92.2653 2.97018 92.3815 2.97018H93.0207C93.1369 2.97018 93.2531 2.85396 93.2531 2.73774V0.76201C93.2531 0.76201 93.3112 0.645791 93.1369 0.471462C93.1369 0.471462 92.1491 0.180914 90.5801 0.180914C89.2436 0.180914 88.1395 0.471462 87.6165 0.82012C87.0354 1.16878 85.9894 2.21475 85.9894 4.3067C85.9894 6.39865 86.4543 7.21218 87.0354 7.73517C87.5003 8.20004 88.1976 8.60681 89.5922 8.78114C89.6503 8.83925 89.999 8.83925 90.2895 8.83925H90.5801C90.8706 8.83925 91.1031 8.83925 91.3355 8.78114C93.0207 8.72303 93.7761 8.5487 93.7761 8.5487C93.8923 8.5487 94.0086 8.43248 94.0086 8.31626V6.22432ZM51.7047 6.22432C51.5885 6.63109 51.0655 7.09596 50.8331 7.21218C50.4263 7.38651 50.252 7.38651 49.6709 7.38651C49.0898 7.38651 48.9155 7.38651 48.5087 7.21218C48.2763 7.09596 47.8114 6.63109 47.6371 6.22432C47.5208 5.93377 47.4046 5.527 47.4046 4.3067C47.4046 3.0864 47.4627 2.5053 47.6371 2.27286C47.9276 1.86609 48.3344 1.40122 49.3803 1.40122H49.9614C51.1236 1.40122 51.4142 1.86609 51.7047 2.27286C51.8791 2.5053 51.9372 3.0864 51.9372 4.3067C51.9372 5.58511 51.8209 5.93377 51.7047 6.22432ZM52.6345 0.703901C52.1115 0.355243 51.0655 0.122805 49.7871 0.0646949H49.5547C48.2763 0.122805 47.2884 0.355243 46.7073 0.703901C46.1262 1.05256 45.0802 2.09853 45.0802 4.19048C45.0802 6.28243 45.5451 7.09596 46.1262 7.61895C46.5911 8.08382 47.2884 8.49059 48.683 8.66492C48.7411 8.72303 49.0898 8.72303 49.3803 8.72303H49.729C49.7871 8.72303 50.5425 8.66492 50.6006 8.66492C51.9953 8.49059 52.6926 8.02572 53.1575 7.61895C53.7386 7.09596 54.2034 6.34054 54.2034 4.19048C54.2616 2.09853 53.2156 1.05256 52.6345 0.703901ZM41.4193 18.1368C41.3031 18.4273 40.9544 18.8341 40.7801 18.8922C40.4315 19.0084 40.3152 19.0084 39.9085 19.0665C39.4436 19.0665 39.3274 19.0666 39.0368 18.8922C38.8625 18.8341 38.5138 18.4273 38.3976 18.1368C38.3395 17.9044 38.2233 17.6138 38.2233 16.6841C38.2233 15.7543 38.2814 15.2894 38.3976 15.1151C38.6301 14.7664 38.9206 14.4178 39.7341 14.4178H40.0828C40.8382 14.4178 41.1869 14.7664 41.4193 15.1151C41.5355 15.2894 41.5937 15.7543 41.5937 16.6841C41.5937 17.6138 41.4774 17.9044 41.4193 18.1368V18.1368ZM42.1166 13.8367C41.7099 13.6042 40.8963 13.3718 39.9085 13.3718H39.8504H39.7922H39.676C38.6882 13.3718 37.9327 13.6042 37.4679 13.8367C37.0611 14.1272 36.1895 14.8827 36.1895 16.5097C36.1895 18.1368 36.5381 18.7179 37.003 19.1247C37.3517 19.4733 37.8746 19.822 38.9787 19.9382C39.0368 19.9382 39.3274 19.9963 39.5598 19.9963H39.9085C40.1409 19.9963 40.4315 19.9963 40.4896 19.9382C41.5937 19.822 42.1166 19.4733 42.4653 19.1247C42.8721 18.7179 43.2788 18.1368 43.2788 16.5097C43.2788 14.8827 42.5815 14.1272 42.1166 13.8367ZM98.483 7.38651C98.483 7.3284 98.4249 7.3284 98.4249 7.3284C98.0762 7.27029 97.6114 7.09596 97.6114 6.86352V1.86609C97.6114 1.69177 98.0762 1.45933 98.4249 1.40122C98.4249 1.40122 98.483 1.40122 98.483 1.34311V0.297133C98.483 0.239024 98.4249 0.239023 98.4249 0.239023H94.9964C94.9383 0.239023 94.9383 0.297133 94.9383 0.297133V1.34311C94.9383 1.40122 94.9964 1.40122 94.9964 1.40122C95.3451 1.45933 95.81 1.63366 95.81 1.86609V6.86352C95.81 7.03785 95.3451 7.27029 94.9964 7.3284C94.9964 7.3284 94.9383 7.3284 94.9383 7.38651V8.43248C94.9383 8.49059 94.9964 8.49059 94.9964 8.49059H98.4249C98.483 8.49059 98.483 8.43248 98.483 8.43248V7.44462C98.5411 7.44462 98.5411 7.38651 98.483 7.38651V7.38651ZM82.6772 18.8922H82.6191C82.3285 18.8341 81.9799 18.7179 81.9799 18.5436V14.7083C81.9799 14.534 82.3285 14.4178 82.6191 14.3597H82.6772V13.5461C82.6772 13.488 82.6772 13.488 82.6191 13.488H79.946C79.8879 13.488 79.8879 13.488 79.8879 13.5461V14.3597H79.946C80.2366 14.4178 80.5852 14.534 80.5852 14.7083V18.5436C80.5852 18.7179 80.2366 18.8341 79.946 18.8922H79.8879V19.7058C79.8879 19.7639 79.8879 19.7639 79.946 19.7639H82.6191C82.6772 19.7639 82.6772 19.7639 82.6772 19.7058V18.9503V18.8922ZM108.071 7.38651C108.071 7.3284 108.013 7.3284 108.013 7.3284C107.664 7.27029 107.199 7.09596 107.199 6.86352V5.75944C107.199 4.8878 106.967 4.19048 105.514 4.19048H105.456C105.398 4.19048 105.34 4.13237 105.34 4.07426C105.34 4.01615 105.398 3.95804 105.456 3.95804H105.689C106.502 3.84182 107.083 3.14451 107.083 2.33097V1.86609C107.083 0.994449 106.386 0.297133 105.514 0.297133H99.1803C99.1222 0.297133 99.1222 0.355243 99.1222 0.355243V1.40122C99.1222 1.45933 99.1803 1.45933 99.1803 1.45933C99.529 1.51744 99.9939 1.69176 99.9939 1.9242V6.92163C99.9939 7.09596 99.529 7.3284 99.1803 7.38651C99.1803 7.38651 99.1222 7.38651 99.1222 7.44462V8.49059C99.1222 8.5487 99.1803 8.5487 99.1803 8.5487H102.609C102.667 8.5487 102.667 8.49059 102.667 8.49059V7.50273V7.44462C102.667 7.38651 102.609 7.38651 102.609 7.38651C102.26 7.3284 101.795 7.15407 101.795 6.92163V1.9242C101.795 1.80798 101.911 1.69176 102.086 1.63365H104.062C104.468 1.63365 104.875 1.98231 104.875 2.33097V2.67963C104.875 2.91207 104.526 3.55127 104.062 3.55127H102.783C102.667 3.55127 102.551 3.66749 102.551 3.78371V4.71347C102.551 4.82969 102.667 4.9459 102.783 4.9459H104.12C104.991 5.00401 104.933 5.46889 104.991 5.70133V8.02572C104.991 8.02572 104.991 8.20004 105.049 8.31626C105.108 8.49059 105.398 8.49059 105.398 8.49059H108.013C108.071 8.49059 108.071 8.43248 108.071 8.43248V7.44462C108.129 7.44462 108.129 7.38651 108.071 7.38651V7.38651ZM79.5393 18.8922H79.4811C79.1906 18.8341 78.8419 18.7179 78.8419 18.5436V17.6719C78.8419 16.9746 78.6676 16.4516 77.5635 16.4516H77.5054C77.4473 16.4516 77.4473 16.3935 77.4473 16.3935C77.4473 16.3354 77.5054 16.3354 77.5054 16.3354H77.6798C78.319 16.2773 78.7838 15.6962 78.7838 15.057V14.7083C78.7838 14.011 78.2608 13.488 77.5635 13.488H72.6823C72.6242 13.488 72.6242 13.488 72.6242 13.5461V14.3597H72.6823C72.9729 14.4178 73.3215 14.534 73.3215 14.7083V18.5436C73.3215 18.7179 72.9729 18.8341 72.6823 18.8922H72.6242V19.7058C72.6242 19.7639 72.6242 19.7639 72.6823 19.7639H75.3554C75.4135 19.7639 75.4135 19.7639 75.4135 19.7058V18.9503V18.8922H75.3554C75.0648 18.8341 74.7162 18.7179 74.7162 18.5436V14.7083C74.7162 14.6502 74.8324 14.534 74.9486 14.4759H76.4594C76.75 14.4759 77.0987 14.7083 77.0987 14.9989V15.2894C77.0987 15.4638 76.8081 15.9867 76.4594 15.9286H75.5297C75.4135 15.9286 75.3554 16.0448 75.3554 16.103V16.8584C75.3554 16.9746 75.4716 17.0327 75.5297 17.0327H76.5757C77.273 17.0908 77.2149 17.4395 77.2149 17.6138V19.6476C77.273 19.7639 77.5054 19.822 77.5054 19.822H79.5393C79.5974 19.822 79.5974 19.822 79.5974 19.7639V19.0084C79.5393 18.9503 79.5393 18.9503 79.5393 18.8922V18.8922ZM63.7334 4.53914C64.4307 4.77158 65.5929 5.06212 66.3484 5.23645C67.1619 5.35267 67.5106 5.75944 67.3943 6.45675C67.2781 7.15407 66.4646 7.27029 66.0578 7.3284C66.0578 7.3284 65.0118 7.38651 64.6051 7.21218C64.4307 7.15407 63.9659 6.57297 63.8497 6.45675L63.6753 6.04999C63.6753 5.99188 63.5591 5.93377 63.4429 5.93377H62.6875C62.5712 5.93377 62.5131 5.93377 62.5131 6.04999V8.37437C62.5131 8.60681 62.8618 8.66492 63.7915 8.66492H66.2321C66.2321 8.66492 67.2781 8.72303 68.0335 8.25816C68.6728 7.9095 69.1957 6.86352 69.1957 6.1081C69.1376 4.8878 69.0795 4.24859 68.3822 3.84182C67.8011 3.49316 66.5227 3.31883 65.7673 3.14451C64.9537 3.02829 64.3145 2.91207 64.3145 2.15664C64.3145 1.45933 65.2443 1.34311 65.651 1.285C65.651 1.285 66.174 1.22689 66.6389 1.40122C66.8132 1.45933 66.9876 1.51744 67.22 1.80798C67.3362 1.9242 67.5106 2.44719 67.5106 2.44719C67.5106 2.56341 67.6268 2.67963 67.743 2.67963H68.3822C68.6146 2.67963 68.6146 2.67963 68.6146 2.44719V0.297133C68.6146 0.122804 67.8011 0.180914 67.3362 0.180914H64.6051C64.6051 0.180914 63.6753 0.180914 63.0942 0.703901C62.6875 1.11067 62.2807 1.86609 62.2807 2.62152C62.455 3.37694 62.5712 4.19048 63.7334 4.53914V4.53914ZM116.962 4.53914C117.659 4.77158 118.821 5.06212 119.577 5.23645C120.39 5.35267 120.739 5.75944 120.623 6.45675C120.507 7.15407 119.693 7.27029 119.286 7.3284C119.286 7.3284 118.24 7.38651 117.834 7.21218C117.659 7.15407 117.194 6.57297 117.078 6.45675L116.904 6.04999C116.904 5.99188 116.788 5.93377 116.671 5.93377H115.916C115.8 5.93377 115.742 5.93377 115.742 6.04999V8.37437C115.742 8.60681 116.09 8.66492 117.02 8.66492H119.461C119.461 8.66492 120.507 8.72303 121.262 8.25816C121.901 7.9095 122.424 6.86352 122.424 6.1081C122.366 4.8878 122.308 4.24859 121.611 3.84182C121.03 3.49316 119.751 3.31883 118.996 3.14451C118.182 3.02829 117.543 2.91207 117.543 2.15664C117.543 1.45933 118.473 1.34311 118.879 1.285C118.879 1.285 119.402 1.22689 119.867 1.40122C120.042 1.45933 120.216 1.51744 120.448 1.80798C120.565 1.9242 120.739 2.44719 120.739 2.44719C120.739 2.56341 120.855 2.67963 120.971 2.67963H121.611C121.843 2.67963 121.843 2.67963 121.843 2.44719V0.297133C121.843 0.122804 121.03 0.180914 120.565 0.180914H117.834C117.834 0.180914 116.904 0.180914 116.323 0.703901C115.916 1.11067 115.509 1.86609 115.509 2.62152C115.683 3.37694 115.8 4.19048 116.962 4.53914V4.53914ZM161.067 4.53914C161.764 4.77158 162.927 5.06212 163.682 5.23645C164.496 5.35267 164.844 5.75944 164.728 6.45675C164.612 7.15407 163.798 7.27029 163.391 7.3284C163.391 7.3284 162.346 7.38651 161.939 7.21218C161.764 7.15407 161.3 6.57297 161.183 6.45675L161.009 6.04999C161.009 5.99188 160.893 5.93377 160.777 5.93377H160.021C159.905 5.93377 159.847 5.93377 159.847 6.04999V8.37437C159.847 8.60681 160.195 8.66492 161.125 8.66492H163.566C163.566 8.66492 164.612 8.72303 165.367 8.25816C166.006 7.9095 166.529 6.86352 166.529 6.1081C166.471 4.8878 166.413 4.24859 165.716 3.84182C165.135 3.49316 163.856 3.31883 163.101 3.14451C162.287 3.02829 161.648 2.91207 161.648 2.15664C161.648 1.45933 162.578 1.34311 162.985 1.285C162.985 1.285 163.508 1.22689 163.973 1.40122C164.147 1.45933 164.321 1.51744 164.554 1.80798C164.67 1.9242 164.844 2.44719 164.844 2.44719C164.844 2.56341 164.96 2.67963 165.077 2.67963H165.716C165.948 2.67963 165.948 2.67963 165.948 2.44719V0.297133C165.948 0.122804 165.135 0.180914 164.67 0.180914H161.939C161.939 0.180914 161.009 0.180914 160.428 0.703901C160.021 1.11067 159.614 1.86609 159.614 2.62152C159.789 3.37694 159.905 4.19048 161.067 4.53914V4.53914ZM77.0405 7.50273C75.181 7.44462 74.9486 6.80541 74.9486 5.81755C74.9486 5.35267 75.181 4.9459 75.5297 4.59725L78.7838 7.21218C78.4352 7.38651 77.7379 7.50273 77.0405 7.50273ZM76.6338 1.22689C77.3892 1.285 77.796 1.63365 77.796 1.98231C77.796 2.44719 76.75 2.85396 76.5176 2.85396C76.4594 2.85396 76.4013 2.85396 76.3432 2.79585C76.227 2.73774 76.1108 2.67963 75.9946 2.67963C75.6459 2.5053 75.3554 2.27286 75.3554 1.98231C75.3554 1.63365 75.8783 1.22689 76.6338 1.22689ZM82.9677 7.9095C82.9096 7.79328 82.7934 7.85139 82.6191 7.79328L82.2704 7.67706L81.2825 6.97974C81.3988 6.7473 81.515 6.45676 81.6312 6.28243C81.7474 5.99188 81.8055 5.06212 81.8055 4.71347C81.8055 4.36481 81.8636 3.84182 81.7474 3.7256C81.6893 3.7256 81.5731 3.66749 81.5731 3.66749H80.2366C80.2366 3.66749 80.1785 3.66749 80.1204 3.7256C80.0622 3.78371 80.0622 3.95804 80.0622 3.95804V4.65536C80.1204 5.06212 80.0041 5.46889 79.8298 5.75944L77.796 4.07426C78.9001 3.66749 79.6555 2.67963 79.6555 1.98231C79.5974 0.587681 78.3771 0.0646947 76.6338 0.00658504C74.658 -0.0515246 73.3796 0.76201 73.3796 1.98231C73.3796 2.33097 73.4959 2.67963 73.6702 2.91207V2.97018L73.7283 3.02829C73.8445 3.20262 74.0188 3.37694 74.1932 3.55127C73.3215 4.13237 72.7985 5.00401 72.7985 5.93377C72.7985 7.61895 73.6121 8.83925 76.9243 8.95547C78.1446 9.01358 79.2487 8.72303 80.1204 8.20004L80.469 8.37437C80.5852 8.49059 80.7015 8.60681 80.992 8.60681H82.9096C83.0258 8.60681 83.1421 8.5487 83.1421 8.43248V8.31626C83.0258 8.25815 83.0258 7.96761 82.9677 7.9095V7.9095ZM72.3337 18.0206C72.3337 17.9044 72.2174 17.8462 72.1593 17.8462H71.6363C71.5201 17.8462 71.462 17.9625 71.462 18.0206L71.3458 18.3111C71.3458 18.4273 71.2296 18.4855 71.1715 18.6017C71.0552 18.8922 68.6728 18.7179 68.6728 18.7179C68.6146 18.6598 68.5565 18.6017 68.5565 18.5436V16.8584H70.5323C70.6485 16.8584 70.7647 17.0327 70.8228 17.207V17.2652H71.5201C71.5201 17.2652 71.5782 17.2651 71.5782 17.207V15.3475C71.5782 15.3475 71.5782 15.2894 71.5201 15.2894H70.8809H70.8228V15.3475C70.7647 15.58 70.6485 15.6962 70.5323 15.6962H68.5565V14.4759C68.6146 14.4178 68.7309 14.4178 68.7309 14.4178H70.5323C70.7066 14.4178 71.0552 14.4178 71.1134 14.534C71.1715 14.6502 71.1715 14.7664 71.1715 14.7664C71.1715 14.8827 71.2877 14.9408 71.3458 14.9408H71.8688C71.985 14.9408 72.0431 14.8245 72.0431 14.7664V13.6042C72.0431 13.488 71.9269 13.4299 71.8688 13.4299H66.4065C66.3484 13.4299 66.3484 13.4299 66.3484 13.488V14.3016H66.4065C66.697 14.3597 67.0457 14.4759 67.0457 14.6502V18.4855C67.0457 18.6598 66.697 18.776 66.4065 18.8341H66.3484V19.6476C66.3484 19.7058 66.3484 19.7058 66.4065 19.7058H72.1593C72.2756 19.7058 72.3337 19.5895 72.3337 19.5314V18.0206ZM49.0317 13.4299H43.8018C43.7437 13.4299 43.7437 13.4299 43.7437 13.488V14.3016H43.8018C44.0924 14.3597 44.441 14.4759 44.441 14.6502V18.4855C44.441 18.6598 44.0924 18.776 43.8018 18.8341H43.7437V19.6476C43.7437 19.7058 43.7437 19.7058 43.8018 19.7058H46.4749C46.533 19.7058 46.533 19.7058 46.533 19.6476V18.8922V18.8341H46.4749C46.3005 18.8341 46.1262 18.7179 45.9519 18.6598H45.8938L45.8357 18.6017V18.5436V16.8584H47.5789C47.6952 16.8584 47.8114 17.0327 47.8695 17.207V17.2652H48.5668C48.5668 17.2652 48.6249 17.2651 48.6249 17.207V15.4638C48.6249 15.4638 48.6249 15.4056 48.5668 15.4056H47.9276H47.8695V15.4638C47.8114 15.6962 47.6952 15.8124 47.5789 15.8124H45.8357V14.4759C45.8938 14.4178 46.01 14.4178 46.01 14.4178H47.5789C47.7533 14.4178 48.1019 14.4178 48.16 14.534C48.2182 14.6502 48.2181 14.7083 48.2181 14.7083C48.2181 14.8245 48.3344 14.8827 48.3925 14.8827H48.9155C49.0317 14.8827 49.0898 14.7664 49.0898 14.7083V13.5461C49.2641 13.5461 49.1479 13.4299 49.0317 13.4299V13.4299ZM53.9129 13.4299C53.9129 13.4299 53.8548 13.4299 53.7967 13.488C53.7386 13.5461 53.7386 13.6042 53.7386 13.6042" fill="white"/>
<path d="M55.1912 16.4516C55.1912 16.5098 55.075 16.4516 55.075 16.4516H54.1452H54.029V16.3354L54.552 14.8827L55.075 16.2773C55.1331 16.2773 55.1912 16.3935 55.1912 16.4516V16.4516ZM65.9996 18.9504V18.8923H65.9415C65.651 18.8341 65.3023 18.7179 65.3023 18.5436L64.4888 14.7084C64.4888 14.534 64.6631 14.4178 64.8955 14.3597H64.9536V13.5462C64.9536 13.4881 64.9536 13.4881 64.8955 13.4881H62.9198H62.6293C62.5711 13.5462 62.513 13.7205 62.513 13.7205L62.1063 15.057C62.1063 15.057 61.8738 15.9287 61.7576 15.9287C61.6995 15.9287 61.4671 15.1151 61.4671 15.1151L61.0603 13.8367C61.0603 13.8367 61.0022 13.6043 60.886 13.5462C60.8279 13.4881 60.5373 13.4881 60.5373 13.4881H58.5616C58.5035 13.4881 58.5035 13.4881 58.5035 13.5462V14.3597H58.5616C58.8521 14.4178 58.9683 14.534 58.9683 14.7084L58.1548 18.5436C58.0967 18.7179 58.0386 18.776 57.9224 18.776C57.8062 18.776 57.748 18.7179 57.6899 18.5436L55.7142 13.6043L55.6561 13.4881C55.598 13.4299 55.5399 13.4299 55.5399 13.4299H53.7966C53.7966 13.4299 53.7385 13.4299 53.6804 13.4881C53.6223 13.5462 53.6223 13.6043 53.6223 13.6043L51.6465 18.5436C51.6465 18.7179 51.2979 18.8341 51.0073 18.8923H50.9492V19.7058C50.9492 19.7639 50.9492 19.7639 51.0073 19.7639H53.506C53.5641 19.7639 53.5642 19.7639 53.5642 19.7058V18.9504V18.8923H53.506C53.2155 18.8341 52.9831 18.776 53.0412 18.5436L53.4479 17.5557H55.4818L55.8885 18.5436C56.0048 18.7179 55.7723 18.8341 55.5399 18.8923H55.4818V19.7058C55.4818 19.7639 55.4818 19.7639 55.5399 19.7639H59.8981C59.9562 19.7639 59.9562 19.7639 59.9562 19.7058V18.9504V18.8923H59.8981C59.6076 18.8341 59.5494 18.7179 59.5494 18.5436L59.8981 15.8705C59.8981 15.8705 59.8981 15.6381 59.9562 15.6381C60.0143 15.6381 60.1305 16.0449 60.1305 16.0449L60.6535 17.9625C60.6535 17.9625 60.7116 18.1368 60.8279 18.1949C60.886 18.253 61.1184 18.3693 61.1184 18.3693H61.9319C61.9319 18.3693 61.99 18.3693 62.1063 18.3112C62.2225 18.253 62.3387 17.9044 62.3387 17.9044L62.9198 15.8124C62.9198 15.8124 62.9779 15.6381 63.036 15.6381C63.0941 15.6381 63.1522 15.9287 63.1522 15.9287L63.5009 18.6017C63.5009 18.776 63.4428 18.8923 63.1522 18.9504H63.0941V19.7639C63.0941 19.822 63.0941 19.822 63.1522 19.822H65.8253C65.8834 19.822 65.8834 19.822 65.8834 19.7639L65.9996 18.9504V18.9504ZM91.2773 16.4516C91.2773 16.5098 91.1611 16.4516 91.1611 16.4516H90.2313H90.1151V16.3354L90.6381 14.8827L91.1611 16.2773C91.2192 16.2773 91.2773 16.3935 91.2773 16.4516V16.4516ZM94.5896 18.8923H94.5315C94.2409 18.8341 93.8922 18.7179 93.8922 18.5436L91.9165 13.6043L91.8584 13.4881C91.8003 13.4299 91.7422 13.4299 91.7422 13.4299H89.9989C89.9989 13.4299 89.9408 13.4299 89.8827 13.4881C89.8246 13.5462 89.8246 13.6043 89.8246 13.6043L88.1394 17.8463C88.1394 17.8463 87.7907 18.6598 87.3259 18.776C86.9191 18.8923 86.6866 18.8923 86.2218 18.9504C85.7569 18.9504 85.6407 18.9504 85.292 18.776C85.1177 18.7179 84.769 18.3112 84.6528 18.0206C84.5947 17.7882 84.4785 17.4976 84.4785 16.5679C84.4785 15.6381 84.5366 15.1732 84.6528 14.9989C84.8853 14.6502 85.1758 14.3016 85.9893 14.3016C86.7448 14.3016 87.0353 14.5921 87.2096 14.7665C87.2096 14.7665 87.4421 14.9408 87.4421 15.1732V15.2313C87.4421 15.3476 87.5583 15.4057 87.6164 15.4057H88.1394C88.2556 15.4057 88.3137 15.2895 88.3137 15.2313V13.7205C88.3137 13.7205 88.3137 13.6043 88.1975 13.4881C88.1975 13.4881 87.4421 13.2556 86.2218 13.2556C85.1758 13.2556 84.3623 13.4881 83.8974 13.7786C83.4906 14.0692 82.619 14.8246 82.619 16.4516C82.619 18.0787 82.9676 18.6598 83.4325 19.0666C83.7812 19.4152 84.1879 19.6477 85.1177 19.7639C85.1758 19.7639 85.6988 19.822 85.9312 19.822H86.7448C87.5002 19.7639 87.907 19.8801 88.1394 19.822H89.7084C89.7665 19.822 89.7665 19.822 89.7665 19.7639V19.0085V18.9504H89.7084C89.4178 18.8923 89.1854 18.8341 89.2435 18.6017L89.6502 17.6138H91.6841L92.0908 18.6017C92.2071 18.776 91.9746 18.8923 91.7422 18.9504H91.6841V19.7639C91.6841 19.822 91.6841 19.822 91.7422 19.822H94.5315C94.5896 19.822 94.5896 19.822 94.5896 19.7639V19.0085V18.8923" fill="white"/>
</svg>
