<svg width="40" height="28" viewBox="0 0 40 28" fill="none" xmlns="http://www.w3.org/2000/svg">
<path fill-rule="evenodd" clip-rule="evenodd" d="M39.7357 23.9971V5.6875L29.3733 13.9197L39.7357 23.9971Z" fill="white"/>
<path fill-rule="evenodd" clip-rule="evenodd" d="M0 2.97366L17.8811 16.7091C19.1583 17.7004 21.0032 17.7004 22.2804 16.7091L39.7357 2.97366C39.7357 1.41603 39.0262 0 37.1813 0H2.55444C0.85148 0 0 1.41603 0 2.97366Z" fill="white"/>
<path fill-rule="evenodd" clip-rule="evenodd" d="M12.4747 15.1929L0.389648 26.5384C0.958358 27.2475 1.52707 27.8148 2.52231 27.8148H37.2136C38.2088 27.8148 38.7775 27.2475 39.3462 26.5384L27.6877 15.1929L23.5646 18.4547C21.5741 20.0147 18.5884 20.0147 16.5979 18.4547L12.4747 15.1929Z" fill="white"/>
<path fill-rule="evenodd" clip-rule="evenodd" d="M0 5.6875V23.9971L10.752 13.9197L0 5.6875Z" fill="white"/>
</svg>
