<svg width="1435" height="237" viewBox="0 0 1435 237" fill="none" xmlns="http://www.w3.org/2000/svg">
<line x1="-4.37114e-08" y1="235.5" x2="1147" y2="235.5" stroke="white"/>
<line x1="1295" y1="235.5" x2="1434.67" y2="235.5" stroke="white"/>
<path d="M1142.33 235.887C1142.33 235.887 1182.72 237.349 1186.43 229.735C1190.13 222.086 1192.62 207.553 1192.62 199.556C1192.62 191.559 1194.39 162.11 1194.04 154.635C1193.69 147.194 1194.56 140.971 1192.97 140.797C1191.38 140.623 1189.27 142.223 1187.85 145.421C1186.43 148.62 1187.08 149.733 1187.08 149.733C1187.08 149.733 1185.91 149.072 1185.8 148.446C1185.7 147.786 1185.22 147.021 1184.56 147.368C1183.9 147.716 1182.45 149.976 1183.14 153.453C1183.83 156.93 1184.42 157.173 1184.42 157.173C1184.42 157.173 1178.57 151.436 1181.58 144.378C1184.59 137.32 1192.24 137.737 1192.24 137.737C1192.24 137.737 1191.31 135.86 1187.29 136.034C1183.28 136.208 1180.99 137.042 1180.41 138.05C1179.82 139.059 1177.81 139.997 1177.81 139.997C1177.81 139.997 1179.23 137.737 1178.33 137.807C1177.43 137.876 1177.26 138.815 1175.87 139.302C1174.49 139.789 1172.27 139.893 1172.27 139.893C1172.27 139.893 1176.05 137.772 1174.73 137.355C1173.45 136.938 1172.07 136.764 1169.64 138.85C1167.22 140.936 1166.67 142.049 1166.67 142.049C1166.67 142.049 1166.18 139.267 1168.78 136.555C1171.37 133.843 1176.74 131.514 1181.44 132.835C1186.15 134.121 1189.27 134.852 1190.06 134.365C1190.82 133.878 1189.23 129.914 1188.37 129.219C1187.47 128.524 1185.01 127.133 1183.31 126.681C1181.62 126.194 1179.02 126.681 1179.02 126.681C1179.02 126.681 1181.96 125.255 1180.89 124.803C1179.82 124.317 1177.95 124.212 1176.46 124.803C1174.97 125.395 1174.04 126.055 1174.04 126.055C1174.04 126.055 1175.56 123.587 1174.56 123.378C1173.55 123.204 1172.03 123.308 1171.27 124.039C1170.51 124.734 1170.02 125.707 1170.02 125.707C1170.02 125.707 1169.33 123.274 1171.89 121.431C1174.49 119.588 1177.74 118.337 1183.31 120.145C1188.88 121.952 1194.46 126.368 1194.46 128.385C1194.46 130.401 1194.39 132.174 1192.86 132.07C1191.34 131.966 1190.44 130.575 1191.2 129.358C1191.96 128.141 1194.49 128.107 1195.04 129.602C1195.6 131.097 1194.56 133.878 1195.81 134.504C1197.05 135.165 1198.23 134.608 1198.23 133.252C1198.23 131.896 1196.74 131.722 1196.15 132.244C1195.56 132.765 1194.46 133.843 1196.08 136.521C1197.71 139.198 1201.69 142.396 1201.62 145.282C1201.55 148.168 1201.03 149.489 1201.03 149.489C1201.03 149.489 1203.49 145.456 1204.39 146.882C1205.29 148.307 1205.67 150.915 1205.22 152.097C1204.73 153.279 1204.28 153.8 1204.28 153.8C1204.28 153.8 1205.7 153.314 1206.71 151.332C1207.71 149.315 1209.41 150.254 1209.41 150.254C1209.41 150.254 1209.89 151.61 1209.41 152.688C1208.92 153.766 1208.58 153.974 1208.58 153.974C1208.58 153.974 1209.58 153.87 1210.76 150.88C1211.93 147.925 1208.51 141.631 1205.7 139.824C1202.87 137.981 1199.16 134.852 1199.16 134.852C1199.16 134.852 1201.62 133.322 1204.01 134.017C1206.36 134.713 1208.47 137.876 1208.47 138.676C1208.47 139.511 1208.89 135.651 1208.47 134.643C1208.06 133.635 1209.54 133.948 1209.89 135.756C1210.24 137.598 1212.9 139.302 1212.9 139.302C1212.9 139.302 1211.07 135.825 1211.9 136.173C1212.73 136.521 1214.42 138.641 1214.84 139.615C1215.26 140.554 1217.71 142.327 1217.71 142.327C1217.71 142.327 1215.43 139.128 1215.05 136.764C1214.7 134.4 1211.34 131.444 1208.99 130.019C1206.64 128.593 1202.04 128.732 1201.2 129.428C1200.37 130.123 1199.34 131.722 1199.34 131.722C1199.34 131.722 1196.08 129.636 1194.28 125.464C1192.48 121.292 1194.18 115.242 1194.18 115.242C1194.18 115.242 1192.76 117.328 1192.52 118.371C1192.28 119.449 1192.17 119.971 1192.17 119.971C1192.17 119.971 1191.51 115.659 1192.1 113.226C1192.69 110.792 1194.46 108.914 1194.46 108.914C1194.46 108.914 1192.76 110.027 1192.38 110.444C1192 110.861 1191.38 110.096 1192.03 108.914C1192.69 107.732 1195.11 106.307 1195.11 106.307C1195.11 106.307 1190.75 107.072 1188.99 110.201C1187.22 113.33 1187.92 118.858 1187.92 118.858C1187.92 118.858 1186.39 116.737 1186.22 115.242C1186.05 113.747 1185.53 122.578 1187.74 126.438C1189.99 130.297 1192.28 133.426 1192.28 133.426C1192.28 133.426 1190.41 134.33 1191.34 135.721C1192.28 137.112 1194.42 136.242 1194.42 135.13C1194.42 134.017 1194.08 132.939 1193.59 133.357C1193.11 133.774 1193.18 134.886 1194.28 136.312C1195.39 137.737 1197.4 138.746 1197.64 141.353C1197.88 143.961 1197.88 184.188 1197.16 191.907C1196.46 199.591 1195.98 225.285 1199.27 229.561C1202.55 233.838 1203.88 235.402 1205.99 235.402C1208.1 235.402 1214.72 235.402 1214.72 235.402" stroke="#EFEFEF" stroke-miterlimit="10"/>
<path d="M1196.39 130.996C1196.39 130.996 1194.75 122.022 1196.03 118.814C1197.32 115.607 1200.2 112.536 1200.2 112.536L1199.6 115.231C1199.6 115.231 1201.13 112.297 1203.06 111.444C1204.98 110.556 1205.98 110.761 1205.98 110.761C1205.98 110.761 1203.13 111.682 1203.34 113.184C1203.56 114.719 1205.16 112.126 1207.8 112.126C1210.44 112.126 1213.68 114.515 1213.68 114.515C1213.68 114.515 1209.9 113.389 1206.94 114.549C1203.98 115.709 1203.88 118.268 1203.88 118.268C1203.88 118.268 1204.73 116.869 1206.23 116.733C1207.73 116.596 1208.66 117.04 1208.66 117.04C1208.66 117.04 1203.38 119.974 1201.52 124.752C1199.67 129.529 1197.28 130.996 1197.28 130.996C1197.28 130.996 1196.75 127.038 1202.24 124.479C1207.73 121.92 1211.94 122.329 1215.43 123.557C1218.92 124.786 1222.38 129.973 1222.13 132.634C1221.85 135.296 1221.42 135.125 1221.42 135.125C1221.42 135.125 1221.81 130.075 1217.25 128.062C1212.65 126.048 1211.15 126.697 1211.15 126.697C1211.15 126.697 1212.65 127.379 1213.4 128.471C1214.11 129.563 1214.25 130.826 1214.25 130.826C1214.25 130.826 1212.72 128.778 1210.76 128.028C1208.8 127.277 1207.8 127.413 1207.8 127.413C1207.8 127.413 1210.62 128.164 1211.12 129.256C1211.61 130.348 1211.79 130.86 1211.79 130.86C1211.79 130.86 1210.58 129.324 1207.55 128.812C1204.55 128.301 1201.17 128.369 1200.45 128.676" stroke="#EFEFEF" stroke-miterlimit="10"/>
<path d="M1226.44 44.2852C1226.44 44.2852 1230.51 43.9733 1232.59 45.4635C1234.64 46.9191 1235.48 51.7016 1235.48 51.7016C1235.48 51.7016 1236 49.6915 1235.79 48.8598C1235.58 48.028 1234.82 47.1616 1236.49 48.2706C1238.15 49.4143 1239.86 52.1174 1239.86 52.1174C1239.86 52.1174 1239.09 50.0034 1238.78 48.5132C1238.47 47.0577 1242.32 49.1024 1243.85 51.1817C1245.38 53.2611 1244.96 59.3259 1244.96 59.3259C1244.96 59.3259 1246.63 57.7317 1246.39 53.1918C1246.15 48.6518 1244.72 44.1466 1237.22 39.4334C1229.71 34.7202 1225.92 37.8046 1225.44 38.9135C1224.98 40.0225 1230.16 38.9482 1236.62 38.0818C1243.09 37.2154 1246.39 43.1069 1246.39 43.1069C1246.39 43.1069 1245.9 41.4434 1244.79 40.0225C1243.64 38.6016 1242.78 37.6659 1246.49 38.2551C1250.21 38.8442 1254.24 46.4685 1254.24 46.4685C1254.24 46.4685 1253.13 39.6413 1247.15 35.7945C1241.18 31.9477 1226.17 34.3736 1226.17 34.3736C1226.17 34.3736 1232.39 30.5268 1236.52 30.1109C1240.66 29.6951 1243.44 32.121 1243.44 32.121C1243.44 32.121 1243.26 31.1506 1242.15 30.2496C1241.04 29.3832 1238.88 28.6207 1241.98 28.9673C1245.07 29.3139 1246.6 31.1506 1246.6 31.1506C1246.6 31.1506 1246.49 30.1109 1245.83 29.2792C1245.17 28.4475 1244.9 28.6207 1243.82 27.789C1242.74 26.9573 1244.1 26.4721 1250.49 26.8879C1256.88 27.3038 1258.73 31.7744 1258.73 31.7744C1258.73 31.7744 1258.76 30.5961 1258.13 29.8337C1257.51 29.0713 1251.57 21.1004 1241.14 21.8628C1230.72 22.6253 1222.97 32.7794 1222.97 32.7794C1222.97 32.7794 1224.57 27.4771 1229.36 22.0361C1234.16 16.6298 1242.67 15.7288 1242.67 15.7288C1242.67 15.7288 1241.14 15.5555 1239.23 15.5555C1237.32 15.5555 1235.1 16.5605 1234.19 16.6645C1233.32 16.7684 1230.75 17.3576 1234.61 11.8126C1238.43 6.2677 1249.86 8.52033 1249.86 8.52033C1249.86 8.52033 1244.72 6.05976 1239.16 7.16875C1233.6 8.27774 1229.4 14.3079 1228.28 14.7237C1227.14 15.1396 1228.98 12.4364 1228.98 12.4364C1228.98 12.4364 1230.44 11.2581 1225.89 14.793C1221.33 18.3279 1219.74 31.116 1219.74 31.116C1219.74 31.116 1219.01 17.115 1222.03 11.4661C1225.05 5.78251 1227.76 6.0251 1227.76 6.0251C1227.76 6.0251 1226.51 5.02008 1223.14 6.09442C1219.74 7.13409 1219.91 12.679 1219.67 8.3817C1219.42 4.08437 1223.14 1 1223.14 1C1223.14 1 1220.78 1.10397 1217.76 5.29733C1214.73 9.49069 1214.42 15.6941 1214.66 17.4615C1214.91 19.229 1218.35 25.0165 1218.35 25.0165C1218.35 25.0165 1218.38 23.5956 1217.86 19.6449C1217.34 15.6941 1212.99 6.5796 1206.91 4.74284C1200.83 2.90607 1198.47 5.02008 1198.47 5.02008C1198.47 5.02008 1199.23 4.36162 1203.2 5.02008C1207.16 5.67855 1210.94 10.7383 1208.37 10.3917C1205.77 10.0452 1204.45 11.0502 1204.45 11.0502C1204.45 11.0502 1205.7 10.8769 1207.64 11.4661C1209.59 12.0552 1211.19 14.0306 1211.19 15.2089C1211.19 16.3872 1208.37 15.4168 1208.37 15.4168C1208.37 15.4168 1213.86 19.2637 1215.22 22.9718C1216.57 26.68 1215.5 32.7101 1216.33 35.1707C1217.16 37.6659 1218.35 37.7699 1218.35 37.7699C1218.35 37.7699 1217.69 36.1757 1219.18 33.8884C1220.64 31.5665 1223.49 33.8191 1224.08 37.0075C1224.67 40.1958 1220.78 40.2651 1220.05 40.2651C1219.32 40.2651 1218.8 39.9186 1218.8 39.9186C1218.8 39.9186 1214.77 36.2104 1214.07 34.4429C1213.38 32.6755 1213.24 30.5961 1210.77 25.0165C1208.3 19.4369 1203.93 17.011 1203.93 17.011C1203.93 17.011 1204.2 17.6695 1204.41 18.3626C1204.62 19.0557 1204.72 21.8282 1204.72 21.8282C1204.72 21.8282 1202.4 18.1893 1199.03 16.5951C1195.65 15.001 1193.6 15.2782 1193.6 15.2782C1193.6 15.2782 1195.2 15.2782 1196.7 16.1793C1198.19 17.0457 1199.09 18.9171 1199.09 18.9171C1199.09 18.9171 1191.1 16.5951 1186.58 18.9171C1182.07 21.239 1182.24 23.5263 1182.24 23.5263C1182.24 23.5263 1183.67 22.0015 1186.76 21.8282C1189.89 21.6549 1191.31 22.1747 1192.63 22.6253C1193.95 23.0758 1193.67 23.5263 1192.35 24.4967C1191.03 25.4671 1189.78 27.4078 1189.78 27.4078C1189.78 27.4078 1191.62 26.3335 1195.9 25.9869C1200.17 25.6057 1206.74 28.2049 1209.49 30.6654C1212.23 33.126 1215.25 40.2998 1215.25 40.2998C1215.25 40.2998 1210.91 36.6609 1206.64 34.4429C1202.4 32.2596 1192.18 33.3339 1188.81 36.1411C1185.44 38.9482 1185.61 43.0376 1186.41 41.6167C1187.21 40.2305 1188.57 38.9482 1189.57 38.6016C1190.58 38.2551 1189.68 39.0868 1189.26 40.8889C1188.84 42.691 1189.85 45.0823 1189.85 45.0823C1189.85 45.0823 1189.78 44.7704 1190.69 43.3148C1191.59 41.8593 1193.19 40.9236 1193.92 40.4731C1194.65 40.0225 1195.76 39.3987 1195.55 40.1612C1195.34 40.9236 1195.69 42.5524 1195.69 42.5524C1195.69 42.5524 1197.04 40.785 1198.64 39.572C1200.24 38.359 1203.72 38.2551 1203.2 38.8096C1202.67 39.3641 1202.36 41.582 1202.36 41.582C1202.36 41.582 1203.51 40.3691 1205.14 39.6067C1206.77 38.8442 1215.64 39.1908 1212.86 40.577C1210.04 41.9633 1206.36 45.6368 1204.72 49.2063C1203.09 52.7759 1203.4 62.9647 1205.49 65.8758C1207.57 68.7869 1210.11 68.6136 1210.11 68.6136C1210.11 68.6136 1210.32 69.0295 1209.03 67.6433C1207.75 66.257 1208.03 64.0391 1208.1 63.1727C1208.16 62.3063 1209.59 63.6925 1209.59 63.6925C1209.59 63.6925 1209.55 62.8954 1208.96 60.6428C1208.37 58.3902 1209.49 55.7216 1209.49 56.6227C1209.49 57.5238 1211.29 59.3952 1211.29 59.3952C1211.29 59.3952 1211.15 54.0582 1211.95 51.7016C1212.75 49.345 1215.08 47.8894 1214.73 48.6865C1214.38 49.4836 1214.77 51.0778 1214.77 51.0778C1214.77 51.0778 1215.71 52.7412 1215.71 50.8698C1215.71 48.9984 1218.45 46.7111 1219.25 46.4339C1220.05 46.1566 1219.42 47.8548 1219.42 47.8548C1219.42 47.8548 1219.25 52.2907 1218.9 53.3304C1218.55 54.3701 1218.55 68.0245 1219.98 75.2676C1221.4 82.5453 1223.18 100.22 1223.35 109.438C1223.52 118.657 1227.62 143.609 1229.74 152.1C1231.86 160.59 1232.56 181.488 1233.81 196.702C1235.06 211.916 1235.06 223.421 1229.92 229.625C1224.78 235.794 1217.39 234.838 1217.39 234.838H1214.47" stroke="#EFEFEF" stroke-miterlimit="10"/>
<path d="M1220.12 41.2815C1220.12 41.2815 1216.73 39.9647 1215.68 42.2614C1214.6 44.558 1218.58 46.0585 1219.77 44.9867C1220.96 43.8843 1221.73 42.2307 1220.12 41.2815Z" stroke="#EFEFEF" stroke-miterlimit="10"/>
<path d="M1295.31 236C1295.31 236 1252.78 235.134 1247.79 229.226C1242.79 223.319 1240.52 191.141 1240.52 191.141C1240.52 191.141 1236.23 149.371 1233.99 143.221C1231.72 137.07 1228.05 104.058 1228.05 104.058C1228.05 104.058 1226.17 88.5593 1225.19 84.1808C1224.21 79.8023 1221.31 57.6667 1221.52 53.9138C1221.73 50.126 1220.33 44.2186 1221.52 42.7938C1222.71 41.3691 1223.83 40.4656 1225.4 41.1259C1226.93 41.7861 1226.83 44.9831 1226.24 45.8866C1225.64 46.7901 1222.6 46.7901 1222.15 46.1646C1221.66 45.5391 1224.42 44.7051 1225.47 44.6356C1226.55 44.5661 1226.55 44.5661 1226.55 44.5661" stroke="#EFEFEF" stroke-miterlimit="10"/>
<path d="M1134.03 66.1037C1134.83 65.3145 1137.09 63.9316 1139.8 64.7137C1142.51 65.4958 1144.1 67.1188 1144.55 67.8325C1144.74 66.2909 1145.64 62.7669 1147.74 61.004C1149.84 59.2412 1153.39 59.1192 1154.9 59.2785" stroke="#EFEFEF"/>
<path d="M1152.15 83.9849C1151.61 83.7182 1150.22 83.4127 1149 84.3243C1147.79 85.2359 1147.29 86.3787 1147.19 86.8361C1146.82 86.064 1145.72 84.3862 1144.35 83.8519C1142.97 83.3175 1141.17 83.9101 1140.44 84.2732" stroke="#EFEFEF"/>
<path d="M1156.28 91.9708C1156.55 91.5691 1157.42 90.739 1158.65 90.6329C1159.88 90.5267 1160.7 90.8899 1160.95 91.0848C1160.91 90.4956 1161.01 89.0811 1161.77 88.1359C1162.53 87.1908 1164.05 86.6349 1164.72 86.4751" stroke="#EFEFEF"/>
</svg>
