<svg width="28" height="28" viewBox="0 0 28 28" fill="none" xmlns="http://www.w3.org/2000/svg">
<path d="M25.0335 0H2.7815C1.25168 0 0 1.25168 0 2.7815V25.0335C0 26.5633 1.25168 27.815 2.7815 27.815H25.0335C26.5633 27.815 27.815 26.5633 27.815 25.0335V2.7815C27.815 1.25168 26.5633 0 25.0335 0ZM8.3445 23.6428H4.17225V11.126H8.3445V23.6428ZM6.25838 8.76173C4.86763 8.76173 3.75503 7.64913 3.75503 6.25838C3.75503 4.86763 4.86763 3.75503 6.25838 3.75503C7.64913 3.75503 8.76173 4.86763 8.76173 6.25838C8.76173 7.64913 7.64913 8.76173 6.25838 8.76173ZM23.6428 23.6428H19.4705V16.2718C19.4705 15.1592 18.497 14.1857 17.3844 14.1857C16.2718 14.1857 15.2983 15.1592 15.2983 16.2718V23.6428H11.126V11.126H15.2983V12.7949C15.9936 11.6823 17.5235 10.8479 18.7751 10.8479C21.4176 10.8479 23.6428 13.0731 23.6428 15.7155V23.6428Z" fill="white"/>
</svg>
