<svg width="73" height="28" viewBox="0 0 73 28" fill="none" xmlns="http://www.w3.org/2000/svg">
<path fill-rule="evenodd" clip-rule="evenodd" d="M6.78329 6.94753L9.37835 11.0208C9.60045 11.3777 9.87619 11.5202 10.102 11.6368C10.3436 11.7616 10.5281 11.8569 10.5281 12.1541C10.5281 12.4169 10.2981 12.5811 10.0025 12.5811C9.82559 12.5811 9.6318 12.5727 9.40476 12.5628C9.08367 12.5487 8.69609 12.5318 8.19579 12.5318C7.73018 12.5318 7.38551 12.5483 7.095 12.5622H7.09498C6.88335 12.5724 6.70047 12.5811 6.5205 12.5811C6.09346 12.5811 5.89637 12.4169 5.89637 12.1377C5.89637 11.8542 6.06806 11.7584 6.24214 11.6613C6.42112 11.5615 6.60262 11.4603 6.60262 11.1522C6.60262 10.9879 6.5205 10.7908 6.33983 10.4952L5.05872 8.39288L3.54768 9.65756V10.6102C3.54768 11.3106 3.87497 11.4874 4.15232 11.6372C4.35623 11.7473 4.53314 11.8429 4.53314 12.1212C4.53314 12.3347 4.3689 12.5811 3.97471 12.5811C3.82296 12.5811 3.6606 12.5732 3.46634 12.5636L3.4663 12.5636H3.46628H3.46626H3.46624H3.46621H3.46619C3.17691 12.5495 2.8169 12.5318 2.31584 12.5318C1.83072 12.5318 1.48889 12.549 1.20909 12.5631C1.01523 12.5729 0.851154 12.5811 0.689826 12.5811C0.29564 12.5811 0.131395 12.3512 0.131395 12.1212C0.131395 11.8429 0.302413 11.7473 0.499526 11.6372C0.76763 11.4874 1.08401 11.3106 1.08401 10.6102V2.93997C1.08401 2.37919 0.765615 2.2574 0.473939 2.14584C0.227426 2.05155 0 1.96456 0 1.62602C0 1.26468 0.427035 1.05116 1.57674 0.525582C2.66076 0.0492727 2.87427 0 3.07137 0C3.44913 0 3.54768 0.312064 3.54768 0.722675V8.21221L5.96207 6.07704C6.22486 5.8471 6.35625 5.7157 6.35625 5.51861C6.35625 5.34005 6.21134 5.27608 6.0528 5.20609C5.86134 5.12156 5.65 5.02827 5.65 4.71381C5.65 4.43459 5.86352 4.27035 6.27413 4.27035C6.42762 4.27035 6.64924 4.28111 6.88537 4.29257C7.1546 4.30564 7.4427 4.31962 7.67021 4.31962C7.8951 4.31962 8.26121 4.30596 8.6078 4.29302L8.60786 4.29302C8.91936 4.28139 9.21509 4.27035 9.37835 4.27035C9.67399 4.27035 9.90393 4.4346 9.90393 4.69739C9.90393 5.06479 9.5906 5.17023 9.1765 5.30957C8.85013 5.41939 8.46116 5.55028 8.11367 5.8471L6.78329 6.94753ZM18.5561 9.65756C18.704 10.7416 19.0817 10.9222 19.9851 11.1029C20.1657 11.1358 20.2971 11.2507 20.2971 11.4314C20.2971 11.8913 19.5416 12.6632 18.2441 12.6632C17.505 12.6632 16.8316 12.2855 16.4702 11.5464C15.8461 12.1541 14.7949 12.7289 13.4317 12.7289C11.625 12.7289 10.5082 11.6778 10.5082 10.1996C10.5082 8.70495 11.74 7.52239 13.9573 7.52239C14.7128 7.52239 15.3205 7.63736 15.8133 7.78518L15.7968 7.60451C15.5997 6.20843 14.9592 5.66643 14.023 5.66643C13.3003 5.66643 12.709 5.94564 12.1835 6.29056C11.9535 6.42195 11.74 6.53692 11.5593 6.53692C11.3622 6.53692 11.1323 6.37268 11.1323 6.07704C11.1323 5.7814 11.4115 5.46933 11.6579 5.25582C12.3149 4.61526 13.4481 4.10611 14.8278 4.10611C16.8808 4.10611 17.932 5.15727 18.1784 6.96396L18.5561 9.65756ZM13.054 9.92035C13.054 10.758 13.6617 11.3 14.4829 11.3C15.1727 11.3 15.8461 10.9222 16.191 10.5445L15.9611 8.81992C15.6162 8.70495 15.1891 8.63925 14.7457 8.63925C13.7109 8.63925 13.054 9.08271 13.054 9.92035ZM26.9082 4.12253C25.7257 4.12253 24.5595 5.07515 24.0668 6.3234V4.9766C24.0668 4.51672 23.9518 4.18823 23.5576 4.18823C23.377 4.18823 23.1799 4.2375 22.0959 4.73023C20.9297 5.23939 20.5191 5.46934 20.5191 5.83067C20.5191 6.15826 20.7419 6.24286 20.9854 6.33535C21.2791 6.44691 21.6031 6.56996 21.6031 7.14463V10.6102C21.6031 11.3106 21.2813 11.4874 21.0086 11.6372C20.808 11.7473 20.6341 11.8429 20.6341 12.1212C20.6341 12.3512 20.7983 12.5811 21.1925 12.5811C21.3538 12.5811 21.5207 12.5729 21.7178 12.5631C22.0023 12.549 22.3498 12.5318 22.835 12.5318C23.382 12.5318 23.7838 12.5493 24.1094 12.5634L24.1095 12.5634C24.3314 12.573 24.5179 12.5811 24.6909 12.5811C25.0851 12.5811 25.2493 12.3347 25.2493 12.1212C25.2493 11.8066 25.0252 11.7099 24.7721 11.6007C24.4438 11.4591 24.0668 11.2964 24.0668 10.6102V9.09913C24.0668 7.11178 25.0687 6.24128 25.7092 6.24128C26.1527 6.24128 26.4319 6.5862 26.7275 7.17747C26.8589 7.44027 27.0232 7.65378 27.286 7.65378C27.5652 7.65378 27.7459 7.45669 27.8773 7.1282C28.2222 6.30698 28.4357 5.69928 28.4357 5.23939C28.4357 4.64811 27.828 4.12253 26.9082 4.12253ZM32.7663 1.39608C32.7663 2.20087 31.8137 3.03852 30.6969 3.03852C29.9742 3.03852 29.4815 2.62791 29.4815 2.00378C29.4815 1.18256 30.352 0.295639 31.4852 0.295639C32.1751 0.295639 32.7663 0.739099 32.7663 1.39608ZM30.1545 12.5631C29.9574 12.5729 29.7906 12.5811 29.6293 12.5811C29.2351 12.5811 29.0708 12.3512 29.0708 12.1212C29.0708 11.8429 29.2448 11.7473 29.4453 11.6372C29.7181 11.4874 30.0399 11.3106 30.0399 10.6102V7.14463C30.0399 6.56996 29.7159 6.44691 29.4222 6.33535C29.1786 6.24286 28.9559 6.15826 28.9559 5.83067C28.9559 5.46934 29.3665 5.23939 30.5326 4.73023C31.6166 4.2375 31.8137 4.18823 31.9944 4.18823C32.3886 4.18823 32.5036 4.51672 32.5036 4.9766V10.6102C32.5036 11.3106 32.8254 11.4874 33.0981 11.6372C33.2986 11.7473 33.4726 11.8429 33.4726 12.1212C33.4726 12.3347 33.3084 12.5811 32.9306 12.5811C32.7693 12.5811 32.5997 12.5729 32.3993 12.5631C32.1101 12.549 31.7568 12.5318 31.2717 12.5318C30.7866 12.5318 30.439 12.549 30.1545 12.5631ZM43.6754 10.4131L43.2648 7.35814C43.0348 5.5843 42.2629 4.13896 40.5712 4.13896C39.2901 4.13896 38.3539 4.89448 37.8447 5.76497V4.9766C37.8447 4.51672 37.7297 4.18823 37.3355 4.18823C37.1549 4.18823 36.9578 4.2375 35.8738 4.73023C34.7076 5.23939 34.297 5.46934 34.297 5.83067C34.297 6.15826 34.5198 6.24286 34.7633 6.33535C35.057 6.44691 35.381 6.56996 35.381 7.14463V10.6102C35.381 11.3106 35.0592 11.4874 34.7865 11.6372C34.586 11.7473 34.412 11.8429 34.412 12.1212C34.412 12.3512 34.5762 12.5811 34.9704 12.5811C35.1318 12.5811 35.2986 12.5729 35.4957 12.5631C35.7802 12.549 36.1278 12.5318 36.6129 12.5318C37.098 12.5318 37.4513 12.549 37.7405 12.5631C37.9408 12.5729 38.1104 12.5811 38.2717 12.5811C38.6495 12.5811 38.8137 12.3347 38.8137 12.1212C38.8137 11.8429 38.6398 11.7473 38.4393 11.6372C38.1665 11.4874 37.8447 11.3106 37.8447 10.6102V8.21221C37.8447 6.56977 38.6659 6.01134 39.3722 6.01134C40.3084 6.01134 40.6861 6.84899 40.8504 7.96585L41.146 10.101C41.1953 10.4131 41.2281 10.6759 41.2281 10.8401C41.2281 11.3254 40.943 11.4763 40.6847 11.613C40.4709 11.7262 40.2755 11.8296 40.2755 12.1048C40.2755 12.3676 40.4726 12.5647 40.8996 12.5647C41.0746 12.5647 41.233 12.5564 41.42 12.5467C41.6895 12.5326 42.0185 12.5154 42.5421 12.5154C43.0424 12.5154 43.368 12.5323 43.6377 12.5463C43.8284 12.5562 43.9912 12.5647 44.1681 12.5647C44.5294 12.5647 44.7594 12.4004 44.7594 12.1377C44.7594 11.8415 44.6006 11.7475 44.4028 11.6305C44.1289 11.4683 43.7803 11.262 43.6754 10.4131ZM53.1693 9.65756C53.3172 10.7416 53.6949 10.9222 54.5983 11.1029C54.7789 11.1358 54.9103 11.2507 54.9103 11.4314C54.9103 11.8913 54.1548 12.6632 52.8573 12.6632C52.1182 12.6632 51.4448 12.2855 51.0834 11.5464C50.4593 12.1541 49.4081 12.7289 48.0449 12.7289C46.2382 12.7289 45.1214 11.6778 45.1214 10.1996C45.1214 8.70495 46.3532 7.52239 48.5705 7.52239C49.326 7.52239 49.9337 7.63736 50.4265 7.78518L50.41 7.60451C50.2129 6.20843 49.5724 5.66643 48.6362 5.66643C47.9135 5.66643 47.3222 5.94564 46.7967 6.29056C46.5667 6.42195 46.3532 6.53692 46.1725 6.53692C45.9754 6.53692 45.7455 6.37268 45.7455 6.07704C45.7455 5.7814 46.0247 5.46933 46.2711 5.25582C46.928 4.61526 48.0613 4.10611 49.441 4.10611C51.494 4.10611 52.5452 5.15727 52.7916 6.96396L53.1693 9.65756ZM47.6671 9.92035C47.6671 10.758 48.2749 11.3 49.0961 11.3C49.7859 11.3 50.4593 10.9222 50.8042 10.5445L50.5743 8.81992C50.2294 8.70495 49.8023 8.63925 49.3589 8.63925C48.3241 8.63925 47.6671 9.08271 47.6671 9.92035ZM44.6693 15.5174C45.7861 15.5174 46.7388 14.6798 46.7388 13.875C46.7388 13.218 46.1475 12.7746 45.4577 12.7746C44.3244 12.7746 43.4539 13.6615 43.4539 14.4827C43.4539 15.1068 43.9466 15.5174 44.6693 15.5174ZM43.6017 25.06C43.763 25.06 43.9299 25.0518 44.127 25.042C44.4114 25.0279 44.759 25.0108 45.2441 25.0108C45.7293 25.0108 46.0826 25.0279 46.3717 25.042C46.5721 25.0518 46.7417 25.06 46.903 25.06C47.2808 25.06 47.445 24.8137 47.445 24.6001C47.445 24.3218 47.271 24.2262 47.0705 24.1161C46.7978 23.9663 46.476 23.7895 46.476 23.0891V17.4555C46.476 16.9956 46.361 16.6671 45.9668 16.6671C45.7861 16.6671 45.589 16.7164 44.505 17.2091C43.3389 17.7183 42.9283 17.9482 42.9283 18.3096C42.9283 18.6372 43.151 18.7218 43.3946 18.8143C43.6883 18.9258 44.0123 19.0489 44.0123 19.6235V23.0891C44.0123 23.7895 43.6905 23.9663 43.4177 24.1161C43.2172 24.2262 43.0433 24.3218 43.0433 24.6001C43.0433 24.8301 43.2075 25.06 43.6017 25.06ZM33.4447 22.9905C33.2528 22.9905 33.1076 23.1152 32.9939 23.2127L32.9848 23.2205C32.6399 23.5161 32.3607 23.7132 31.9665 23.7132C31.3917 23.7132 30.9811 23.3847 30.9811 22.1201V18.0304H33.2148C33.4776 18.0304 33.609 17.899 33.6582 17.6198L33.6583 17.6197L33.6583 17.6195C33.6747 17.5208 33.7075 17.324 33.7075 17.1927C33.7075 16.9299 33.5597 16.7985 33.2969 16.7985H30.9811V14.3513C30.9811 13.9243 30.8168 13.76 30.5704 13.76C30.2565 13.76 30.1076 14 29.7653 14.5517L29.7164 14.6305C29.1744 15.7638 28.6488 16.2894 27.5976 16.8314C27.2527 17.0285 27.0392 17.1927 27.0392 17.5212C27.0392 17.8333 27.2856 18.0304 27.6469 18.0304H28.5174V20.6911C28.5174 21.4215 28.4901 22.2064 28.4707 22.7646C28.46 23.0725 28.4517 23.3114 28.4517 23.434C28.4517 24.4195 29.5193 25.2243 30.9154 25.2243C32.0651 25.2243 32.8863 24.8137 33.4611 24.2224C33.6911 23.9924 33.8718 23.6968 33.8718 23.434C33.8718 23.2041 33.7239 22.9905 33.4447 22.9905ZM9.91853 18.1618C10.5427 17.2584 11.5445 16.5357 12.9735 16.5357C15.0758 16.5357 16.669 18.211 16.669 20.8554C16.669 23.4997 14.8459 25.2735 12.4643 25.2735C11.1339 25.2735 10.4277 24.8794 9.91853 24.4523V26.0291C9.91853 26.704 10.2829 26.8741 10.6014 27.0228C10.8486 27.1382 11.0682 27.2407 11.0682 27.5565C11.0682 27.7701 10.8876 28 10.5098 28C10.3435 28 10.1584 27.9919 9.93812 27.9823C9.61433 27.9682 9.21449 27.9507 8.6867 27.9507C8.20158 27.9507 7.85974 27.9679 7.57994 27.982C7.38609 27.9917 7.22201 28 7.06068 28C6.66649 28 6.50225 27.7701 6.50225 27.5565C6.50225 27.2692 6.67571 27.1702 6.87459 27.0568C7.14179 26.9044 7.45486 26.7258 7.45486 26.0291V19.6235C7.45486 19.0489 7.13578 18.9258 6.8465 18.8143C6.60665 18.7218 6.38728 18.6372 6.38728 18.3096C6.38728 17.9318 6.79789 17.7183 7.96402 17.2091C9.03161 16.7164 9.19585 16.6671 9.40937 16.6671C9.88568 16.6671 9.91853 17.2091 9.91853 17.4555V18.1618ZM9.91853 21.266C9.91853 22.8427 10.8054 24.0417 12.1194 24.0417C13.2034 24.0417 14.0575 23.1876 14.0575 21.4795C14.0575 19.5907 13.0884 18.2603 11.8566 18.2603C10.789 18.2603 9.91853 19.1965 9.91853 20.6254V21.266ZM25.5353 22.1365C25.6832 23.2205 26.0609 23.4012 26.9643 23.5818C27.1449 23.6147 27.2763 23.7296 27.2763 23.9103C27.2763 24.3702 26.5208 25.1421 25.2233 25.1421C24.4842 25.1421 23.8108 24.7644 23.4494 24.0253C22.8253 24.633 21.7741 25.2078 20.4109 25.2078C18.6042 25.2078 17.4874 24.1567 17.4874 22.6785C17.4874 21.1839 18.7192 20.0013 20.9365 20.0013C21.692 20.0013 22.2997 20.1163 22.7925 20.2641L22.776 20.0834C22.5789 18.6873 21.9384 18.1453 21.0022 18.1453C20.2795 18.1453 19.6882 18.4246 19.1627 18.7695C18.9327 18.9009 18.7192 19.0158 18.5385 19.0158C18.3414 19.0158 18.1115 18.8516 18.1115 18.556C18.1115 18.2603 18.3907 17.9482 18.6371 17.7347C19.2941 17.0942 20.4273 16.585 21.807 16.585C23.86 16.585 24.9112 17.6362 25.1576 19.4429L25.5353 22.1365ZM20.0332 22.3993C20.0332 23.2369 20.6409 23.7789 21.4621 23.7789C22.1519 23.7789 22.8253 23.4012 23.1702 23.0234L22.9403 21.2988C22.5954 21.1839 22.1683 21.1182 21.7249 21.1182C20.6901 21.1182 20.0332 21.5616 20.0332 22.3993ZM38.0392 18.8023C38.5319 17.5541 39.6981 16.6014 40.8806 16.6014C41.8004 16.6014 42.4081 17.127 42.4081 17.7183C42.4081 18.1782 42.1946 18.7859 41.8497 19.6071C41.7183 19.9356 41.5376 20.1327 41.2584 20.1327C40.9956 20.1327 40.8314 19.9192 40.7 19.6564C40.4043 19.0651 40.1251 18.7202 39.6816 18.7202C39.0411 18.7202 38.0392 19.5907 38.0392 21.578V23.0891C38.0392 23.7753 38.4162 23.938 38.7445 24.0796C38.9976 24.1888 39.2218 24.2855 39.2218 24.6001C39.2218 24.8137 39.0575 25.06 38.6633 25.06C38.4903 25.06 38.3037 25.0519 38.0818 25.0423H38.0818H38.0817H38.0817H38.0816C37.756 25.0282 37.3543 25.0108 36.8074 25.0108C36.3222 25.0108 35.9747 25.0279 35.6902 25.042C35.4931 25.0518 35.3263 25.06 35.1649 25.06C34.7707 25.06 34.6065 24.8301 34.6065 24.6001C34.6065 24.3218 34.7805 24.2262 34.981 24.1161C35.2537 23.9663 35.5755 23.7895 35.5755 23.0891V19.6235C35.5755 19.0489 35.2515 18.9258 34.9578 18.8143C34.7143 18.7218 34.4915 18.6372 34.4915 18.3096C34.4915 17.9482 34.9021 17.7183 36.0683 17.2091C37.1523 16.7164 37.3494 16.6671 37.53 16.6671C37.9242 16.6671 38.0392 16.9956 38.0392 17.4555V18.8023ZM56.4817 23.3847C56.0382 24.2717 54.6914 25.3392 52.6383 25.3392C50.1911 25.3392 48.253 23.7461 48.253 21.0525C48.253 18.2603 50.4046 16.4701 52.8026 16.4701C54.7242 16.4701 56.2353 17.669 56.2353 18.5067C56.2353 18.9009 55.9889 19.4429 55.1677 20.0998C54.9213 20.3134 54.7735 20.3626 54.6257 20.3626C54.3301 20.3626 54.1494 20.1327 54.1001 19.8206C53.8866 18.8023 53.591 17.5541 52.4741 17.5541C51.4722 17.5541 50.8152 18.5395 50.8152 20.067C50.8152 22.2843 52.2277 23.6475 53.7223 23.6475C54.6585 23.6475 55.3484 23.2041 55.8411 22.7113C56.0053 22.5635 56.1203 22.4978 56.2517 22.4978C56.4652 22.4978 56.613 22.6949 56.613 22.9084C56.613 23.0562 56.5638 23.2041 56.4817 23.3847ZM59.0246 15.5174C60.1415 15.5174 61.0941 14.6798 61.0941 13.875C61.0941 13.218 60.5028 12.7746 59.813 12.7746C58.6797 12.7746 57.8092 13.6615 57.8092 14.4827C57.8092 15.1068 58.3019 15.5174 59.0246 15.5174ZM57.957 25.06C58.1184 25.06 58.2852 25.0518 58.4823 25.042C58.7668 25.0279 59.1143 25.0108 59.5995 25.0108C60.0846 25.0108 60.4379 25.0279 60.7271 25.042C60.9274 25.0518 61.097 25.06 61.2583 25.06C61.6361 25.06 61.8003 24.8137 61.8003 24.6001C61.8003 24.3218 61.6264 24.2262 61.4259 24.1161C61.1531 23.9663 60.8313 23.7895 60.8313 23.0891V17.4555C60.8313 16.9956 60.7163 16.6671 60.3221 16.6671C60.1415 16.6671 59.9444 16.7164 58.8604 17.2091C57.6942 17.7183 57.2836 17.9482 57.2836 18.3096C57.2836 18.6372 57.5064 18.7218 57.7499 18.8143C58.0436 18.9258 58.3676 19.0489 58.3676 19.6235V23.0891C58.3676 23.7895 58.0458 23.9663 57.7731 24.1161C57.5726 24.2262 57.3986 24.3218 57.3986 24.6001C57.3986 24.8301 57.5628 25.06 57.957 25.06ZM70.5742 22.1365C70.722 23.2205 71.0998 23.4012 72.0031 23.5818C72.1838 23.6147 72.3152 23.7296 72.3152 23.9103C72.3152 24.3702 71.5597 25.1421 70.2621 25.1421C69.523 25.1421 68.8496 24.7644 68.4883 24.0253C67.8642 24.633 66.813 25.2078 65.4498 25.2078C63.6431 25.2078 62.5262 24.1567 62.5262 22.6785C62.5262 21.1839 63.7581 20.0013 65.9754 20.0013C66.7309 20.0013 67.3386 20.1163 67.8313 20.2641L67.8149 20.0834C67.6178 18.6873 66.9772 18.1453 66.0411 18.1453C65.3184 18.1453 64.7271 18.4246 64.2015 18.7695C63.9716 18.9009 63.7581 19.0158 63.5774 19.0158C63.3803 19.0158 63.1504 18.8516 63.1504 18.556C63.1504 18.2603 63.4296 17.9482 63.6759 17.7347C64.3329 17.0942 65.4662 16.585 66.8458 16.585C68.8989 16.585 69.9501 17.6362 70.1964 19.4429L70.5742 22.1365ZM65.072 22.3993C65.072 23.2369 65.6797 23.7789 66.5009 23.7789C67.1908 23.7789 67.8642 23.4012 68.2091 23.0234L67.9791 21.2988C67.6342 21.1839 67.2072 21.1182 66.7637 21.1182C65.729 21.1182 65.072 21.5616 65.072 22.3993Z" fill="white"/>
</svg>
