<svg width="50" height="28" viewBox="0 0 50 28" fill="none" xmlns="http://www.w3.org/2000/svg">
<g clip-path="url(#clip0_945_12398)">
<path d="M14 28C21.732 28 28 21.732 28 14C28 6.26801 21.732 0 14 0C6.26801 0 0 6.26801 0 14C0 21.732 6.26801 28 14 28Z" fill="black"/>
<path d="M36.2844 27.3377C40.219 27.3377 43.4087 21.3664 43.4087 14.0004C43.4087 6.6344 40.219 0.663086 36.2844 0.663086C32.3498 0.663086 29.1602 6.6344 29.1602 14.0004C29.1602 21.3664 32.3498 27.3377 36.2844 27.3377Z" fill="black"/>
<path d="M47.0531 26.0117C48.4256 26.0117 49.5383 20.708 49.5383 14.1655C49.5383 7.62306 48.4256 2.31934 47.0531 2.31934C45.6805 2.31934 44.5679 7.62306 44.5679 14.1655C44.5679 20.708 45.6805 26.0117 47.0531 26.0117Z" fill="black"/>
</g>
<defs>
<clipPath id="clip0_945_12398">
<rect width="50" height="28" fill="white"/>
</clipPath>
</defs>
</svg>
