<svg width="452" height="227" viewBox="0 0 452 227" fill="none" xmlns="http://www.w3.org/2000/svg">
<path d="M94.1021 60.9096H85.8552L83.9838 66H82.3743L89.2488 47.8343H90.7086L97.5831 66H95.9861L94.1021 60.9096ZM86.3293 59.5996H93.6156L89.9724 49.7058L86.3293 59.5996ZM104.907 64.9894C105.946 64.9894 106.816 64.6983 107.514 64.1161C108.221 63.5255 108.604 62.7644 108.662 61.8329H110.097C110.055 62.6563 109.797 63.4091 109.323 64.0911C108.849 64.7648 108.217 65.293 107.427 65.6756C106.645 66.0582 105.805 66.2495 104.907 66.2495C103.135 66.2495 101.729 65.634 100.69 64.403C99.6583 63.172 99.1426 61.5168 99.1426 59.4374V58.9882C99.1426 57.6574 99.3755 56.4805 99.8413 55.4574C100.307 54.4343 100.972 53.6442 101.838 53.0869C102.711 52.5296 103.73 52.251 104.894 52.251C106.375 52.251 107.593 52.6918 108.55 53.5735C109.515 54.4551 110.03 55.6154 110.097 57.0544H108.662C108.596 55.9981 108.213 55.1455 107.514 54.4967C106.824 53.848 105.951 53.5236 104.894 53.5236C103.547 53.5236 102.499 54.0101 101.75 54.9833C101.01 55.9565 100.64 57.3206 100.64 59.0756V59.5123C100.64 61.234 101.01 62.5773 101.75 63.5421C102.499 64.507 103.551 64.9894 104.907 64.9894ZM115.412 49.0445V52.5005H118.207V53.7232H115.412V62.7187C115.412 63.4673 115.545 64.0246 115.811 64.3905C116.086 64.7565 116.539 64.9395 117.171 64.9395C117.421 64.9395 117.824 64.8979 118.381 64.8147L118.444 66.0374C118.053 66.1788 117.52 66.2495 116.847 66.2495C115.824 66.2495 115.079 65.9543 114.613 65.3637C114.148 64.7648 113.915 63.8873 113.915 62.7312V53.7232H111.432V52.5005H113.915V49.0445H115.412ZM122.973 66H121.475V52.5005H122.973V66ZM121.213 48.5954C121.213 48.3126 121.305 48.0755 121.488 47.8842C121.671 47.6846 121.92 47.5848 122.236 47.5848C122.553 47.5848 122.802 47.6846 122.985 47.8842C123.176 48.0755 123.272 48.3126 123.272 48.5954C123.272 48.8782 123.176 49.1152 122.985 49.3065C122.802 49.4978 122.553 49.5935 122.236 49.5935C121.92 49.5935 121.671 49.4978 121.488 49.3065C121.305 49.1152 121.213 48.8782 121.213 48.5954ZM131.244 63.9414L135.349 52.5005H136.884L131.843 66H130.633L125.568 52.5005H127.102L131.244 63.9414ZM144.395 66.2495C143.247 66.2495 142.207 65.9667 141.276 65.4011C140.352 64.8355 139.633 64.0495 139.117 63.0431C138.601 62.0283 138.344 60.893 138.344 59.637V59.1005C138.344 57.803 138.593 56.6344 139.092 55.5947C139.6 54.555 140.302 53.7398 141.201 53.1493C142.099 52.5504 143.072 52.251 144.12 52.251C145.759 52.251 147.056 52.8124 148.013 53.9353C148.978 55.0498 149.46 56.5761 149.46 58.5141V59.3501H139.828V59.637C139.828 61.1675 140.265 62.4442 141.138 63.4673C142.02 64.482 143.126 64.9894 144.457 64.9894C145.256 64.9894 145.958 64.8439 146.566 64.5527C147.181 64.2616 147.738 63.7958 148.237 63.1554L149.173 63.8665C148.075 65.4552 146.482 66.2495 144.395 66.2495ZM144.12 53.5236C142.997 53.5236 142.049 53.9353 141.276 54.7587C140.51 55.5822 140.045 56.6884 139.878 58.0775H147.975V57.9153C147.934 56.6177 147.564 55.5614 146.865 54.7463C146.166 53.9311 145.251 53.5236 144.12 53.5236Z" fill="#EFEFEF"/>
<circle cx="52.8276" cy="56.4484" r="9.82759" fill="#27AE60"/>
<path d="M85.8427 119.702H94.8133V121H84.2957V102.834H85.8427V119.702ZM96.5974 114.051C96.5974 112.753 96.847 111.584 97.346 110.545C97.8534 109.505 98.5645 108.698 99.4795 108.124C100.403 107.542 101.447 107.251 102.611 107.251C104.408 107.251 105.863 107.883 106.978 109.147C108.092 110.403 108.65 112.071 108.65 114.15V114.462C108.65 115.768 108.396 116.945 107.889 117.993C107.39 119.033 106.683 119.836 105.768 120.401C104.853 120.967 103.809 121.25 102.636 121.25C100.848 121.25 99.3921 120.622 98.2693 119.366C97.1547 118.101 96.5974 116.429 96.5974 114.35V114.051ZM98.0946 114.462C98.0946 116.076 98.5105 117.403 99.3422 118.442C100.182 119.474 101.28 119.989 102.636 119.989C103.983 119.989 105.073 119.474 105.905 118.442C106.745 117.403 107.165 116.034 107.165 114.338V114.051C107.165 113.019 106.974 112.075 106.591 111.218C106.208 110.362 105.672 109.701 104.982 109.235C104.291 108.761 103.501 108.524 102.611 108.524C101.28 108.524 100.195 109.048 99.3547 110.096C98.5146 111.135 98.0946 112.499 98.0946 114.188V114.462ZM114.975 117.893L115.2 119.054L115.499 117.831L118.743 107.5H120.016L123.222 117.744L123.571 119.166L123.858 117.856L126.628 107.5H128.175L124.245 121H122.973L119.504 110.295L119.342 109.559L119.18 110.308L115.774 121H114.501L110.584 107.5H112.118L114.975 117.893ZM147.377 115.91H139.13L137.258 121H135.649L142.523 102.834H143.983L150.857 121H149.26L147.377 115.91ZM139.604 114.6H146.89L143.247 104.706L139.604 114.6ZM155.287 104.045V107.5H158.081V108.723H155.287V117.719C155.287 118.467 155.42 119.025 155.686 119.391C155.96 119.757 156.414 119.94 157.046 119.94C157.295 119.94 157.699 119.898 158.256 119.815L158.318 121.037C157.927 121.179 157.395 121.25 156.721 121.25C155.698 121.25 154.954 120.954 154.488 120.364C154.022 119.765 153.789 118.887 153.789 117.731V108.723H151.307V107.5H153.789V104.045H155.287ZM163.496 104.045V107.5H166.291V108.723H163.496V117.719C163.496 118.467 163.629 119.025 163.895 119.391C164.17 119.757 164.623 119.94 165.255 119.94C165.505 119.94 165.908 119.898 166.465 119.815L166.528 121.037C166.137 121.179 165.605 121.25 164.931 121.25C163.908 121.25 163.163 120.954 162.698 120.364C162.232 119.765 161.999 118.887 161.999 117.731V108.723H159.516V107.5H161.999V104.045H163.496ZM174.613 121.25C173.465 121.25 172.425 120.967 171.493 120.401C170.57 119.836 169.851 119.05 169.335 118.043C168.819 117.028 168.562 115.893 168.562 114.637V114.101C168.562 112.803 168.811 111.634 169.31 110.595C169.817 109.555 170.52 108.74 171.419 108.149C172.317 107.55 173.29 107.251 174.338 107.251C175.977 107.251 177.274 107.812 178.231 108.935C179.196 110.05 179.678 111.576 179.678 113.514V114.35H170.046V114.637C170.046 116.167 170.483 117.444 171.356 118.467C172.238 119.482 173.344 119.989 174.675 119.989C175.473 119.989 176.176 119.844 176.783 119.553C177.399 119.262 177.956 118.796 178.455 118.155L179.391 118.867C178.293 120.455 176.7 121.25 174.613 121.25ZM174.338 108.524C173.215 108.524 172.267 108.935 171.493 109.759C170.728 110.582 170.262 111.688 170.096 113.077H178.193V112.915C178.152 111.618 177.782 110.561 177.083 109.746C176.384 108.931 175.469 108.524 174.338 108.524ZM184.007 107.5L184.057 109.809C184.565 108.977 185.197 108.345 185.954 107.912C186.711 107.471 187.546 107.251 188.461 107.251C189.909 107.251 190.986 107.659 191.693 108.474C192.4 109.289 192.757 110.511 192.766 112.142V121H191.281V112.129C191.273 110.923 191.015 110.025 190.508 109.434C190.008 108.844 189.206 108.549 188.1 108.549C187.176 108.549 186.357 108.84 185.642 109.422C184.935 109.996 184.411 110.773 184.07 111.755V121H182.585V107.5H184.007ZM196.035 114.125C196.035 112.029 196.5 110.362 197.432 109.122C198.372 107.875 199.644 107.251 201.25 107.251C203.071 107.251 204.46 107.97 205.417 109.409V101.836H206.902V121H205.504L205.442 119.203C204.485 120.567 203.08 121.25 201.225 121.25C199.669 121.25 198.413 120.626 197.457 119.378C196.509 118.122 196.035 116.429 196.035 114.3V114.125ZM197.544 114.387C197.544 116.109 197.889 117.469 198.58 118.467C199.27 119.457 200.243 119.952 201.499 119.952C203.337 119.952 204.643 119.141 205.417 117.519V111.181C204.643 109.426 203.346 108.549 201.524 108.549C200.268 108.549 199.291 109.043 198.592 110.033C197.894 111.015 197.544 112.466 197.544 114.387ZM219.353 121C219.203 120.576 219.108 119.948 219.066 119.116C218.542 119.798 217.873 120.326 217.057 120.701C216.251 121.067 215.394 121.25 214.487 121.25C213.19 121.25 212.138 120.888 211.331 120.164C210.532 119.44 210.133 118.526 210.133 117.419C210.133 116.105 210.678 115.065 211.767 114.3C212.865 113.535 214.392 113.152 216.346 113.152H219.054V111.618C219.054 110.653 218.754 109.896 218.155 109.347C217.565 108.79 216.7 108.511 215.56 108.511C214.521 108.511 213.66 108.777 212.978 109.31C212.296 109.842 211.955 110.482 211.955 111.231L210.457 111.218C210.457 110.146 210.956 109.218 211.955 108.436C212.953 107.646 214.18 107.251 215.635 107.251C217.141 107.251 218.326 107.629 219.191 108.386C220.064 109.135 220.513 110.183 220.538 111.53V117.918C220.538 119.224 220.676 120.202 220.95 120.85V121H219.353ZM214.662 119.927C215.66 119.927 216.55 119.686 217.332 119.203C218.122 118.721 218.696 118.076 219.054 117.27V114.3H216.384C214.895 114.317 213.73 114.591 212.89 115.124C212.05 115.648 211.63 116.371 211.63 117.294C211.63 118.051 211.909 118.679 212.466 119.178C213.032 119.677 213.764 119.927 214.662 119.927ZM225.953 107.5L226.003 109.809C226.51 108.977 227.143 108.345 227.899 107.912C228.656 107.471 229.492 107.251 230.407 107.251C231.854 107.251 232.932 107.659 233.639 108.474C234.346 109.289 234.703 110.511 234.712 112.142V121H233.227V112.129C233.219 110.923 232.961 110.025 232.453 109.434C231.954 108.844 231.152 108.549 230.045 108.549C229.122 108.549 228.303 108.84 227.588 109.422C226.881 109.996 226.356 110.773 226.015 111.755V121H224.531V107.5H225.953ZM243.57 119.989C244.61 119.989 245.479 119.698 246.177 119.116C246.884 118.526 247.267 117.764 247.325 116.833H248.76C248.718 117.656 248.461 118.409 247.986 119.091C247.512 119.765 246.88 120.293 246.09 120.676C245.308 121.058 244.468 121.25 243.57 121.25C241.798 121.25 240.392 120.634 239.353 119.403C238.321 118.172 237.806 116.517 237.806 114.437V113.988C237.806 112.657 238.039 111.48 238.504 110.457C238.97 109.434 239.636 108.644 240.501 108.087C241.374 107.53 242.393 107.251 243.557 107.251C245.038 107.251 246.256 107.692 247.213 108.573C248.178 109.455 248.693 110.615 248.76 112.054H247.325C247.259 110.998 246.876 110.146 246.177 109.497C245.487 108.848 244.614 108.524 243.557 108.524C242.21 108.524 241.162 109.01 240.413 109.983C239.673 110.956 239.303 112.321 239.303 114.076V114.512C239.303 116.234 239.673 117.577 240.413 118.542C241.162 119.507 242.214 119.989 243.57 119.989ZM256.982 121.25C255.834 121.25 254.794 120.967 253.863 120.401C252.94 119.836 252.22 119.05 251.704 118.043C251.189 117.028 250.931 115.893 250.931 114.637V114.101C250.931 112.803 251.18 111.634 251.68 110.595C252.187 109.555 252.89 108.74 253.788 108.149C254.686 107.55 255.659 107.251 256.708 107.251C258.346 107.251 259.644 107.812 260.6 108.935C261.565 110.05 262.047 111.576 262.047 113.514V114.35H252.416V114.637C252.416 116.167 252.852 117.444 253.726 118.467C254.607 119.482 255.714 119.989 257.044 119.989C257.843 119.989 258.546 119.844 259.153 119.553C259.768 119.262 260.326 118.796 260.825 118.155L261.76 118.867C260.663 120.455 259.07 121.25 256.982 121.25ZM256.708 108.524C255.585 108.524 254.636 108.935 253.863 109.759C253.098 110.582 252.632 111.688 252.466 113.077H260.563V112.915C260.521 111.618 260.151 110.561 259.452 109.746C258.754 108.931 257.839 108.524 256.708 108.524Z" fill="#EFEFEF"/>
<circle cx="52.8276" cy="111.448" r="9.82759" fill="#FFCF50"/>
<path d="M86.1671 176H84.6325V157.834H86.1671V176ZM92.1808 162.5L92.2307 164.809C92.7381 163.977 93.3702 163.345 94.1271 162.912C94.884 162.471 95.7199 162.251 96.6349 162.251C98.0821 162.251 99.1593 162.659 99.8663 163.474C100.573 164.289 100.931 165.511 100.939 167.142V176H99.4545V167.129C99.4462 165.923 99.1884 165.025 98.681 164.434C98.1819 163.844 97.3793 163.549 96.273 163.549C95.3498 163.549 94.5305 163.84 93.8152 164.422C93.1082 164.996 92.5842 165.773 92.2432 166.755V176H90.7585V162.5H92.1808ZM113.328 176C113.179 175.576 113.083 174.948 113.041 174.116C112.517 174.798 111.848 175.326 111.033 175.701C110.226 176.067 109.369 176.25 108.463 176.25C107.165 176.25 106.113 175.888 105.306 175.164C104.507 174.44 104.108 173.526 104.108 172.419C104.108 171.105 104.653 170.065 105.743 169.3C106.841 168.535 108.367 168.152 110.322 168.152H113.029V166.618C113.029 165.653 112.729 164.896 112.131 164.347C111.54 163.79 110.675 163.511 109.535 163.511C108.496 163.511 107.635 163.777 106.953 164.31C106.271 164.842 105.93 165.482 105.93 166.231L104.433 166.218C104.433 165.146 104.932 164.218 105.93 163.436C106.928 162.646 108.155 162.251 109.61 162.251C111.116 162.251 112.301 162.629 113.166 163.386C114.039 164.135 114.489 165.183 114.514 166.53V172.918C114.514 174.224 114.651 175.202 114.925 175.85V176H113.328ZM108.637 174.927C109.635 174.927 110.525 174.686 111.307 174.203C112.097 173.721 112.671 173.076 113.029 172.27V169.3H110.359C108.87 169.317 107.706 169.591 106.866 170.124C106.025 170.648 105.605 171.371 105.605 172.294C105.605 173.051 105.884 173.679 106.441 174.178C107.007 174.677 107.739 174.927 108.637 174.927ZM123.497 174.989C124.536 174.989 125.406 174.698 126.104 174.116C126.811 173.526 127.194 172.764 127.252 171.833H128.687C128.645 172.656 128.387 173.409 127.913 174.091C127.439 174.765 126.807 175.293 126.017 175.676C125.235 176.058 124.395 176.25 123.497 176.25C121.725 176.25 120.319 175.634 119.28 174.403C118.248 173.172 117.733 171.517 117.733 169.437V168.988C117.733 167.657 117.965 166.48 118.431 165.457C118.897 164.434 119.562 163.644 120.427 163.087C121.301 162.53 122.32 162.251 123.484 162.251C124.965 162.251 126.183 162.692 127.14 163.573C128.105 164.455 128.62 165.615 128.687 167.054H127.252C127.185 165.998 126.803 165.146 126.104 164.497C125.414 163.848 124.54 163.524 123.484 163.524C122.137 163.524 121.089 164.01 120.34 164.983C119.6 165.956 119.23 167.321 119.23 169.076V169.512C119.23 171.234 119.6 172.577 120.34 173.542C121.089 174.507 122.141 174.989 123.497 174.989ZM134.002 159.045V162.5H136.796V163.723H134.002V172.719C134.002 173.467 134.135 174.025 134.401 174.391C134.676 174.757 135.129 174.94 135.761 174.94C136.01 174.94 136.414 174.898 136.971 174.815L137.034 176.037C136.643 176.179 136.11 176.25 135.437 176.25C134.413 176.25 133.669 175.954 133.203 175.364C132.737 174.765 132.505 173.887 132.505 172.731V163.723H130.022V162.5H132.505V159.045H134.002ZM141.562 176H140.065V162.5H141.562V176ZM139.803 158.595C139.803 158.313 139.895 158.076 140.078 157.884C140.261 157.685 140.51 157.585 140.826 157.585C141.142 157.585 141.392 157.685 141.575 157.884C141.766 158.076 141.862 158.313 141.862 158.595C141.862 158.878 141.766 159.115 141.575 159.307C141.392 159.498 141.142 159.593 140.826 159.593C140.51 159.593 140.261 159.498 140.078 159.307C139.895 159.115 139.803 158.878 139.803 158.595ZM149.834 173.941L153.939 162.5H155.474L150.433 176H149.223L144.158 162.5H145.692L149.834 173.941ZM162.985 176.25C161.837 176.25 160.797 175.967 159.865 175.401C158.942 174.836 158.223 174.05 157.707 173.043C157.191 172.028 156.933 170.893 156.933 169.637V169.101C156.933 167.803 157.183 166.634 157.682 165.595C158.189 164.555 158.892 163.74 159.791 163.149C160.689 162.55 161.662 162.251 162.71 162.251C164.349 162.251 165.646 162.812 166.603 163.935C167.568 165.05 168.05 166.576 168.05 168.514V169.35H158.418V169.637C158.418 171.167 158.855 172.444 159.728 173.467C160.61 174.482 161.716 174.989 163.047 174.989C163.845 174.989 164.548 174.844 165.155 174.553C165.771 174.262 166.328 173.796 166.827 173.155L167.763 173.867C166.665 175.455 165.072 176.25 162.985 176.25ZM162.71 163.524C161.587 163.524 160.639 163.935 159.865 164.759C159.1 165.582 158.634 166.688 158.468 168.077H166.565V167.915C166.524 166.618 166.154 165.561 165.455 164.746C164.756 163.931 163.841 163.524 162.71 163.524Z" fill="#EFEFEF"/>
<circle cx="52.8276" cy="166.448" r="9.82759" fill="#D7431E"/>
<rect x="0.5" y="0.5" width="451" height="226" stroke="#EFEFEF"/>
</svg>
