<svg width="452" height="198" viewBox="0 0 452 198" fill="none" xmlns="http://www.w3.org/2000/svg">
<path d="M94.1021 49.9096H85.8552L83.9838 55H82.3743L89.2488 36.8343H90.7086L97.5831 55H95.9861L94.1021 49.9096ZM86.3293 48.5996H93.6156L89.9724 38.7058L86.3293 48.5996ZM104.907 53.9894C105.946 53.9894 106.816 53.6983 107.514 53.1161C108.221 52.5255 108.604 51.7644 108.662 50.8329H110.097C110.055 51.6563 109.797 52.4091 109.323 53.0911C108.849 53.7648 108.217 54.293 107.427 54.6756C106.645 55.0582 105.805 55.2495 104.907 55.2495C103.135 55.2495 101.729 54.634 100.69 53.403C99.6583 52.172 99.1426 50.5168 99.1426 48.4374V47.9882C99.1426 46.6574 99.3755 45.4805 99.8413 44.4574C100.307 43.4343 100.972 42.6442 101.838 42.0869C102.711 41.5296 103.73 41.251 104.894 41.251C106.375 41.251 107.593 41.6918 108.55 42.5735C109.515 43.4551 110.03 44.6154 110.097 46.0544H108.662C108.596 44.9981 108.213 44.1455 107.514 43.4967C106.824 42.848 105.951 42.5236 104.894 42.5236C103.547 42.5236 102.499 43.0101 101.75 43.9833C101.01 44.9565 100.64 46.3206 100.64 48.0756V48.5123C100.64 50.234 101.01 51.5773 101.75 52.5421C102.499 53.507 103.551 53.9894 104.907 53.9894ZM115.412 38.0445V41.5005H118.207V42.7232H115.412V51.7187C115.412 52.4673 115.545 53.0246 115.811 53.3905C116.086 53.7565 116.539 53.9395 117.171 53.9395C117.421 53.9395 117.824 53.8979 118.381 53.8147L118.444 55.0374C118.053 55.1788 117.52 55.2495 116.847 55.2495C115.824 55.2495 115.079 54.9543 114.613 54.3637C114.148 53.7648 113.915 52.8873 113.915 51.7312V42.7232H111.432V41.5005H113.915V38.0445H115.412ZM122.973 55H121.475V41.5005H122.973V55ZM121.213 37.5954C121.213 37.3126 121.305 37.0755 121.488 36.8842C121.671 36.6846 121.92 36.5848 122.236 36.5848C122.553 36.5848 122.802 36.6846 122.985 36.8842C123.176 37.0755 123.272 37.3126 123.272 37.5954C123.272 37.8782 123.176 38.1152 122.985 38.3065C122.802 38.4978 122.553 38.5935 122.236 38.5935C121.92 38.5935 121.671 38.4978 121.488 38.3065C121.305 38.1152 121.213 37.8782 121.213 37.5954ZM131.244 52.9414L135.349 41.5005H136.884L131.843 55H130.633L125.568 41.5005H127.102L131.244 52.9414ZM144.395 55.2495C143.247 55.2495 142.207 54.9667 141.276 54.4011C140.352 53.8355 139.633 53.0495 139.117 52.0431C138.601 51.0283 138.344 49.893 138.344 48.637V48.1005C138.344 46.803 138.593 45.6344 139.092 44.5947C139.6 43.555 140.302 42.7398 141.201 42.1493C142.099 41.5504 143.072 41.251 144.12 41.251C145.759 41.251 147.056 41.8124 148.013 42.9353C148.978 44.0498 149.46 45.5761 149.46 47.5141V48.3501H139.828V48.637C139.828 50.1675 140.265 51.4442 141.138 52.4673C142.02 53.482 143.126 53.9894 144.457 53.9894C145.256 53.9894 145.958 53.8439 146.566 53.5527C147.181 53.2616 147.738 52.7958 148.237 52.1554L149.173 52.8665C148.075 54.4552 146.482 55.2495 144.395 55.2495ZM144.12 42.5236C142.997 42.5236 142.049 42.9353 141.276 43.7587C140.51 44.5822 140.045 45.6884 139.878 47.0775H147.975V46.9153C147.934 45.6177 147.564 44.5614 146.865 43.7463C146.166 42.9311 145.251 42.5236 144.12 42.5236Z" fill="#EFEFEF"/>
<circle cx="52.8276" cy="45.4484" r="9.82759" fill="#27AE60"/>
<path d="M85.8427 106.702H94.8133V108H84.2957V89.8343H85.8427V106.702ZM96.5974 101.051C96.5974 99.7531 96.847 98.5845 97.346 97.5447C97.8534 96.505 98.5645 95.6982 99.4795 95.1243C100.403 94.5421 101.447 94.251 102.611 94.251C104.408 94.251 105.863 94.8831 106.978 96.1474C108.092 97.4033 108.65 99.071 108.65 101.15V101.462C108.65 102.768 108.396 103.945 107.889 104.993C107.39 106.033 106.683 106.836 105.768 107.401C104.853 107.967 103.809 108.25 102.636 108.25C100.848 108.25 99.3921 107.622 98.2693 106.366C97.1547 105.101 96.5974 103.429 96.5974 101.35V101.051ZM98.0946 101.462C98.0946 103.076 98.5105 104.403 99.3422 105.442C100.182 106.474 101.28 106.989 102.636 106.989C103.983 106.989 105.073 106.474 105.905 105.442C106.745 104.403 107.165 103.034 107.165 101.338V101.051C107.165 100.019 106.974 99.0752 106.591 98.2185C106.208 97.3618 105.672 96.7005 104.982 96.2347C104.291 95.7606 103.501 95.5236 102.611 95.5236C101.28 95.5236 100.195 96.0476 99.3547 97.0956C98.5146 98.1353 98.0946 99.4994 98.0946 101.188V101.462ZM114.975 104.893L115.2 106.054L115.499 104.831L118.743 94.5005H120.016L123.222 104.744L123.571 106.166L123.858 104.856L126.628 94.5005H128.175L124.245 108H122.973L119.504 97.2952L119.342 96.5591L119.18 97.3077L115.774 108H114.501L110.584 94.5005H112.118L114.975 104.893ZM147.377 102.91H139.13L137.258 108H135.649L142.523 89.8343H143.983L150.857 108H149.26L147.377 102.91ZM139.604 101.6H146.89L143.247 91.7058L139.604 101.6ZM155.287 91.0445V94.5005H158.081V95.7232H155.287V104.719C155.287 105.467 155.42 106.025 155.686 106.391C155.96 106.757 156.414 106.94 157.046 106.94C157.295 106.94 157.699 106.898 158.256 106.815L158.318 108.037C157.927 108.179 157.395 108.25 156.721 108.25C155.698 108.25 154.954 107.954 154.488 107.364C154.022 106.765 153.789 105.887 153.789 104.731V95.7232H151.307V94.5005H153.789V91.0445H155.287ZM163.496 91.0445V94.5005H166.291V95.7232H163.496V104.719C163.496 105.467 163.629 106.025 163.895 106.391C164.17 106.757 164.623 106.94 165.255 106.94C165.505 106.94 165.908 106.898 166.465 106.815L166.528 108.037C166.137 108.179 165.605 108.25 164.931 108.25C163.908 108.25 163.163 107.954 162.698 107.364C162.232 106.765 161.999 105.887 161.999 104.731V95.7232H159.516V94.5005H161.999V91.0445H163.496ZM174.613 108.25C173.465 108.25 172.425 107.967 171.493 107.401C170.57 106.836 169.851 106.05 169.335 105.043C168.819 104.028 168.562 102.893 168.562 101.637V101.101C168.562 99.803 168.811 98.6344 169.31 97.5947C169.817 96.555 170.52 95.7398 171.419 95.1493C172.317 94.5504 173.29 94.251 174.338 94.251C175.977 94.251 177.274 94.8124 178.231 95.9353C179.196 97.0498 179.678 98.5761 179.678 100.514V101.35H170.046V101.637C170.046 103.167 170.483 104.444 171.356 105.467C172.238 106.482 173.344 106.989 174.675 106.989C175.473 106.989 176.176 106.844 176.783 106.553C177.399 106.262 177.956 105.796 178.455 105.155L179.391 105.867C178.293 107.455 176.7 108.25 174.613 108.25ZM174.338 95.5236C173.215 95.5236 172.267 95.9353 171.493 96.7587C170.728 97.5822 170.262 98.6884 170.096 100.077H178.193V99.9153C178.152 98.6177 177.782 97.5614 177.083 96.7463C176.384 95.9311 175.469 95.5236 174.338 95.5236ZM184.007 94.5005L184.057 96.8086C184.565 95.9769 185.197 95.3447 185.954 94.9122C186.711 94.4714 187.546 94.251 188.461 94.251C189.909 94.251 190.986 94.6585 191.693 95.4737C192.4 96.2888 192.757 97.5115 192.766 99.1417V108H191.281V99.1293C191.273 97.9232 191.015 97.0249 190.508 96.4343C190.008 95.8438 189.206 95.5485 188.1 95.5485C187.176 95.5485 186.357 95.8396 185.642 96.4219C184.935 96.9958 184.411 97.7735 184.07 98.755V108H182.585V94.5005H184.007ZM196.035 101.125C196.035 99.0294 196.5 97.3618 197.432 96.1224C198.372 94.8748 199.644 94.251 201.25 94.251C203.071 94.251 204.46 94.9704 205.417 96.4094V88.8362H206.902V108H205.504L205.442 106.203C204.485 107.567 203.08 108.25 201.225 108.25C199.669 108.25 198.413 107.626 197.457 106.378C196.509 105.122 196.035 103.429 196.035 101.3V101.125ZM197.544 101.387C197.544 103.109 197.889 104.469 198.58 105.467C199.27 106.457 200.243 106.952 201.499 106.952C203.337 106.952 204.643 106.141 205.417 104.519V98.181C204.643 96.426 203.346 95.5485 201.524 95.5485C200.268 95.5485 199.291 96.0434 198.592 97.0332C197.894 98.0147 197.544 99.4661 197.544 101.387ZM219.353 108C219.203 107.576 219.108 106.948 219.066 106.116C218.542 106.798 217.873 107.326 217.057 107.701C216.251 108.067 215.394 108.25 214.487 108.25C213.19 108.25 212.138 107.888 211.331 107.164C210.532 106.44 210.133 105.526 210.133 104.419C210.133 103.105 210.678 102.065 211.767 101.3C212.865 100.535 214.392 100.152 216.346 100.152H219.054V98.6177C219.054 97.6529 218.754 96.896 218.155 96.347C217.565 95.7897 216.7 95.5111 215.56 95.5111C214.521 95.5111 213.66 95.7773 212.978 96.3096C212.296 96.8419 211.955 97.4824 211.955 98.231L210.457 98.2185C210.457 97.1455 210.956 96.2181 211.955 95.4362C212.953 94.6461 214.18 94.251 215.635 94.251C217.141 94.251 218.326 94.6294 219.191 95.3863C220.064 96.1349 220.513 97.1829 220.538 98.5304V104.918C220.538 106.224 220.676 107.202 220.95 107.85V108H219.353ZM214.662 106.927C215.66 106.927 216.55 106.686 217.332 106.203C218.122 105.721 218.696 105.076 219.054 104.27V101.3H216.384C214.895 101.317 213.73 101.591 212.89 102.124C212.05 102.648 211.63 103.371 211.63 104.294C211.63 105.051 211.909 105.679 212.466 106.178C213.032 106.677 213.764 106.927 214.662 106.927ZM225.953 94.5005L226.003 96.8086C226.51 95.9769 227.143 95.3447 227.899 94.9122C228.656 94.4714 229.492 94.251 230.407 94.251C231.854 94.251 232.932 94.6585 233.639 95.4737C234.346 96.2888 234.703 97.5115 234.712 99.1417V108H233.227V99.1293C233.219 97.9232 232.961 97.0249 232.453 96.4343C231.954 95.8438 231.152 95.5485 230.045 95.5485C229.122 95.5485 228.303 95.8396 227.588 96.4219C226.881 96.9958 226.356 97.7735 226.015 98.755V108H224.531V94.5005H225.953ZM243.57 106.989C244.61 106.989 245.479 106.698 246.177 106.116C246.884 105.526 247.267 104.764 247.325 103.833H248.76C248.718 104.656 248.461 105.409 247.986 106.091C247.512 106.765 246.88 107.293 246.09 107.676C245.308 108.058 244.468 108.25 243.57 108.25C241.798 108.25 240.392 107.634 239.353 106.403C238.321 105.172 237.806 103.517 237.806 101.437V100.988C237.806 99.6574 238.039 98.4805 238.504 97.4574C238.97 96.4343 239.636 95.6442 240.501 95.0869C241.374 94.5296 242.393 94.251 243.557 94.251C245.038 94.251 246.256 94.6918 247.213 95.5735C248.178 96.4551 248.693 97.6154 248.76 99.0544H247.325C247.259 97.9981 246.876 97.1455 246.177 96.4967C245.487 95.848 244.614 95.5236 243.557 95.5236C242.21 95.5236 241.162 96.0101 240.413 96.9833C239.673 97.9565 239.303 99.3206 239.303 101.076V101.512C239.303 103.234 239.673 104.577 240.413 105.542C241.162 106.507 242.214 106.989 243.57 106.989ZM256.982 108.25C255.834 108.25 254.794 107.967 253.863 107.401C252.94 106.836 252.22 106.05 251.704 105.043C251.189 104.028 250.931 102.893 250.931 101.637V101.101C250.931 99.803 251.18 98.6344 251.68 97.5947C252.187 96.555 252.89 95.7398 253.788 95.1493C254.686 94.5504 255.659 94.251 256.708 94.251C258.346 94.251 259.644 94.8124 260.6 95.9353C261.565 97.0498 262.047 98.5761 262.047 100.514V101.35H252.416V101.637C252.416 103.167 252.852 104.444 253.726 105.467C254.607 106.482 255.714 106.989 257.044 106.989C257.843 106.989 258.546 106.844 259.153 106.553C259.768 106.262 260.326 105.796 260.825 105.155L261.76 105.867C260.663 107.455 259.07 108.25 256.982 108.25ZM256.708 95.5236C255.585 95.5236 254.636 95.9353 253.863 96.7587C253.098 97.5822 252.632 98.6884 252.466 100.077H260.563V99.9153C260.521 98.6177 260.151 97.5614 259.452 96.7463C258.754 95.9311 257.839 95.5236 256.708 95.5236Z" fill="#EFEFEF"/>
<circle cx="52.8276" cy="98.4484" r="9.82759" fill="#FFCF50"/>
<path d="M86.1671 161H84.6325V142.834H86.1671V161ZM92.1808 147.5L92.2307 149.809C92.7381 148.977 93.3702 148.345 94.1271 147.912C94.884 147.471 95.7199 147.251 96.6349 147.251C98.0821 147.251 99.1593 147.659 99.8663 148.474C100.573 149.289 100.931 150.511 100.939 152.142V161H99.4545V152.129C99.4462 150.923 99.1884 150.025 98.681 149.434C98.1819 148.844 97.3793 148.549 96.273 148.549C95.3498 148.549 94.5305 148.84 93.8152 149.422C93.1082 149.996 92.5842 150.773 92.2432 151.755V161H90.7585V147.5H92.1808ZM113.328 161C113.179 160.576 113.083 159.948 113.041 159.116C112.517 159.798 111.848 160.326 111.033 160.701C110.226 161.067 109.369 161.25 108.463 161.25C107.165 161.25 106.113 160.888 105.306 160.164C104.507 159.44 104.108 158.526 104.108 157.419C104.108 156.105 104.653 155.065 105.743 154.3C106.841 153.535 108.367 153.152 110.322 153.152H113.029V151.618C113.029 150.653 112.729 149.896 112.131 149.347C111.54 148.79 110.675 148.511 109.535 148.511C108.496 148.511 107.635 148.777 106.953 149.31C106.271 149.842 105.93 150.482 105.93 151.231L104.433 151.218C104.433 150.146 104.932 149.218 105.93 148.436C106.928 147.646 108.155 147.251 109.61 147.251C111.116 147.251 112.301 147.629 113.166 148.386C114.039 149.135 114.489 150.183 114.514 151.53V157.918C114.514 159.224 114.651 160.202 114.925 160.85V161H113.328ZM108.637 159.927C109.635 159.927 110.525 159.686 111.307 159.203C112.097 158.721 112.671 158.076 113.029 157.27V154.3H110.359C108.87 154.317 107.706 154.591 106.866 155.124C106.025 155.648 105.605 156.371 105.605 157.294C105.605 158.051 105.884 158.679 106.441 159.178C107.007 159.677 107.739 159.927 108.637 159.927ZM123.497 159.989C124.536 159.989 125.406 159.698 126.104 159.116C126.811 158.526 127.194 157.764 127.252 156.833H128.687C128.645 157.656 128.387 158.409 127.913 159.091C127.439 159.765 126.807 160.293 126.017 160.676C125.235 161.058 124.395 161.25 123.497 161.25C121.725 161.25 120.319 160.634 119.28 159.403C118.248 158.172 117.733 156.517 117.733 154.437V153.988C117.733 152.657 117.965 151.48 118.431 150.457C118.897 149.434 119.562 148.644 120.427 148.087C121.301 147.53 122.32 147.251 123.484 147.251C124.965 147.251 126.183 147.692 127.14 148.573C128.105 149.455 128.62 150.615 128.687 152.054H127.252C127.185 150.998 126.803 150.146 126.104 149.497C125.414 148.848 124.54 148.524 123.484 148.524C122.137 148.524 121.089 149.01 120.34 149.983C119.6 150.956 119.23 152.321 119.23 154.076V154.512C119.23 156.234 119.6 157.577 120.34 158.542C121.089 159.507 122.141 159.989 123.497 159.989ZM134.002 144.045V147.5H136.796V148.723H134.002V157.719C134.002 158.467 134.135 159.025 134.401 159.391C134.676 159.757 135.129 159.94 135.761 159.94C136.01 159.94 136.414 159.898 136.971 159.815L137.034 161.037C136.643 161.179 136.11 161.25 135.437 161.25C134.413 161.25 133.669 160.954 133.203 160.364C132.737 159.765 132.505 158.887 132.505 157.731V148.723H130.022V147.5H132.505V144.045H134.002ZM141.562 161H140.065V147.5H141.562V161ZM139.803 143.595C139.803 143.313 139.895 143.076 140.078 142.884C140.261 142.685 140.51 142.585 140.826 142.585C141.142 142.585 141.392 142.685 141.575 142.884C141.766 143.076 141.862 143.313 141.862 143.595C141.862 143.878 141.766 144.115 141.575 144.307C141.392 144.498 141.142 144.593 140.826 144.593C140.51 144.593 140.261 144.498 140.078 144.307C139.895 144.115 139.803 143.878 139.803 143.595ZM149.834 158.941L153.939 147.5H155.474L150.433 161H149.223L144.158 147.5H145.692L149.834 158.941ZM162.985 161.25C161.837 161.25 160.797 160.967 159.865 160.401C158.942 159.836 158.223 159.05 157.707 158.043C157.191 157.028 156.933 155.893 156.933 154.637V154.101C156.933 152.803 157.183 151.634 157.682 150.595C158.189 149.555 158.892 148.74 159.791 148.149C160.689 147.55 161.662 147.251 162.71 147.251C164.349 147.251 165.646 147.812 166.603 148.935C167.568 150.05 168.05 151.576 168.05 153.514V154.35H158.418V154.637C158.418 156.167 158.855 157.444 159.728 158.467C160.61 159.482 161.716 159.989 163.047 159.989C163.845 159.989 164.548 159.844 165.155 159.553C165.771 159.262 166.328 158.796 166.827 158.155L167.763 158.867C166.665 160.455 165.072 161.25 162.985 161.25ZM162.71 148.524C161.587 148.524 160.639 148.935 159.865 149.759C159.1 150.582 158.634 151.688 158.468 153.077H166.565V152.915C166.524 151.618 166.154 150.561 165.455 149.746C164.756 148.931 163.841 148.524 162.71 148.524Z" fill="#EFEFEF"/>
<circle cx="52.8276" cy="151.448" r="9.82759" fill="#D7431E"/>
<rect x="0.5" y="0.5" width="451" height="197" stroke="#EFEFEF"/>
</svg>
