<svg width="465" height="382" viewBox="0 0 465 382" fill="none" xmlns="http://www.w3.org/2000/svg">
<rect x="0.467863" y="0.467863" width="289.415" height="160.064" fill="white" stroke="#DBDBDB" stroke-width="0.935726"/>
<path d="M17.0462 24.6274V16.0273H22.8241V17.493H18.7178V19.7096H22.1336V21.0663H18.7178V24.6274H17.0462ZM23.8442 17.3961V15.7851H25.4673V17.3961H23.8442ZM23.8442 24.6274V18.2803H25.4673V24.6274H23.8442ZM26.9195 15.7851H28.5426V22.5925C28.5426 22.8913 28.591 23.0891 28.6879 23.186C28.7848 23.2829 28.9181 23.3314 29.0877 23.3314C29.2169 23.3314 29.3501 23.3152 29.4874 23.2829C29.6247 23.2506 29.7458 23.2102 29.8508 23.1618L30.0688 24.3973C29.8508 24.5023 29.5964 24.583 29.3057 24.6396C29.015 24.6961 28.7525 24.7243 28.5184 24.7243C28.0096 24.7243 27.6139 24.5911 27.3313 24.3246C27.0567 24.0501 26.9195 23.6625 26.9195 23.1618V15.7851ZM34.5084 24.3004C34.2904 24.3973 34.0199 24.4942 33.6969 24.5911C33.3819 24.688 33.0549 24.7365 32.7157 24.7365C32.417 24.7365 32.1424 24.684 31.8921 24.579C31.6417 24.474 31.4399 24.3085 31.2864 24.0824C31.1411 23.8482 31.0684 23.5454 31.0684 23.1739V19.5279H30.2326V18.2803H31.0684V16.2211H32.6915V18.2803H34.0239V19.5279H32.6915V22.6288C32.6915 22.8469 32.748 23.0043 32.8611 23.1012C32.9822 23.1981 33.1276 23.2466 33.2972 23.2466C33.4667 23.2466 33.6323 23.2183 33.7938 23.1618C33.9553 23.1053 34.0845 23.0568 34.1814 23.0164L34.5084 24.3004ZM38.2144 24.7486C37.528 24.7486 36.9345 24.5992 36.4338 24.3004C35.9412 24.0016 35.5577 23.6059 35.2831 23.1133C35.0085 22.6127 34.8713 22.0716 34.8713 21.4902C34.8713 20.8926 35.0045 20.3435 35.271 19.8429C35.5455 19.3341 35.9332 18.9304 36.4338 18.6316C36.9345 18.3247 37.532 18.1713 38.2265 18.1713C38.921 18.1713 39.5145 18.3247 40.0071 18.6316C40.4997 18.9304 40.8752 19.3301 41.1336 19.8308C41.4001 20.3233 41.5333 20.8563 41.5333 21.4296C41.5333 21.6396 41.5212 21.8213 41.497 21.9747H36.5913C36.6317 22.4673 36.8134 22.8549 37.1364 23.1376C37.4674 23.4202 37.847 23.5615 38.275 23.5615C38.598 23.5615 38.9008 23.4848 39.1834 23.3314C39.4741 23.1699 39.672 22.9599 39.777 22.7015L41.1699 23.0891C40.9358 23.5736 40.5603 23.9733 40.0434 24.2883C39.5266 24.5951 38.917 24.7486 38.2144 24.7486ZM36.5549 20.9451H39.8739C39.8254 20.4687 39.6437 20.0851 39.3288 19.7944C39.0219 19.4956 38.6464 19.3462 38.2023 19.3462C37.7662 19.3462 37.3907 19.4956 37.0758 19.7944C36.7689 20.0851 36.5953 20.4687 36.5549 20.9451ZM46.3013 19.6854C45.8088 19.6854 45.3687 19.7823 44.981 19.9761C44.5934 20.1618 44.3148 20.4324 44.1453 20.7877V24.6274H42.5221V18.2803H44.012V19.6369C44.23 19.2009 44.5127 18.8577 44.8599 18.6074C45.2152 18.357 45.5867 18.2197 45.9743 18.1955C46.1439 18.1955 46.2529 18.1996 46.3013 18.2076V19.6854ZM53.992 16.0273L47.984 24.6274H46.1913L52.1872 16.0273H53.992ZM60.2356 18.2803C60.1629 18.1996 60.0095 18.0946 59.7753 17.9654C59.5411 17.8281 59.2585 17.707 58.9274 17.602C58.6044 17.4889 58.2693 17.4324 57.922 17.4324C57.0095 17.4324 56.5533 17.7554 56.5533 18.4014C56.5533 18.6356 56.6259 18.8213 56.7713 18.9586C56.9167 19.0959 57.1347 19.213 57.4254 19.3099C57.7161 19.4068 58.0795 19.5118 58.5155 19.6248C59.0808 19.7702 59.5694 19.9398 59.9812 20.1336C60.4011 20.3274 60.7201 20.5858 60.9381 20.9088C61.1642 21.2237 61.2773 21.6436 61.2773 22.1685C61.2773 22.7823 61.1279 23.2789 60.8291 23.6584C60.5384 24.0299 60.1508 24.3004 59.6663 24.47C59.1818 24.6396 58.6569 24.7243 58.0916 24.7243C57.4456 24.7243 56.8036 24.6274 56.1657 24.4336C55.5358 24.2318 54.9746 23.9572 54.482 23.61L55.2209 22.1685C55.2935 22.2412 55.4227 22.3381 55.6085 22.4592C55.7942 22.5723 56.0203 22.6894 56.2868 22.8105C56.5533 22.9236 56.844 23.0205 57.1589 23.1012C57.4738 23.182 57.7928 23.2224 58.1158 23.2224C59.0364 23.2224 59.4967 22.9276 59.4967 22.3381C59.4967 22.0878 59.4038 21.8859 59.2181 21.7325C59.0324 21.579 58.7699 21.4498 58.4308 21.3449C58.0997 21.2399 57.7121 21.1228 57.2679 20.9936C56.7188 20.8402 56.2626 20.6706 55.8992 20.4848C55.5439 20.291 55.2774 20.0528 55.0997 19.7702C54.9221 19.4795 54.8332 19.1121 54.8332 18.6679C54.8332 18.0784 54.9705 17.5858 55.2451 17.1901C55.5277 16.7864 55.9072 16.4836 56.3837 16.2817C56.8601 16.0717 57.3891 15.9668 57.9705 15.9668C58.568 15.9668 59.1252 16.0637 59.642 16.2575C60.1589 16.4513 60.603 16.6733 60.9745 16.9237L60.2356 18.2803ZM65.3143 24.7486C64.6198 24.7486 64.0222 24.5992 63.5216 24.3004C63.029 23.9935 62.6494 23.5898 62.383 23.0891C62.1165 22.5884 61.9832 22.0474 61.9832 21.466C61.9832 20.8765 62.1165 20.3314 62.383 19.8308C62.6575 19.3301 63.0411 18.9304 63.5337 18.6316C64.0343 18.3247 64.6279 18.1713 65.3143 18.1713C66.0007 18.1713 66.5902 18.3247 67.0827 18.6316C67.5834 18.9304 67.967 19.3301 68.2335 19.8308C68.4999 20.3314 68.6332 20.8765 68.6332 21.466C68.6332 22.0474 68.4999 22.5884 68.2335 23.0891C67.967 23.5898 67.5834 23.9935 67.0827 24.3004C66.5902 24.5992 66.0007 24.7486 65.3143 24.7486ZM63.6548 21.466C63.6548 21.8374 63.7275 22.1685 63.8728 22.4592C64.0182 22.7419 64.216 22.9639 64.4664 23.1254C64.7167 23.287 64.9993 23.3677 65.3143 23.3677C65.6211 23.3677 65.8997 23.287 66.1501 23.1254C66.4004 22.9559 66.5982 22.7298 66.7436 22.4471C66.897 22.1564 66.9737 21.8253 66.9737 21.4539C66.9737 21.0905 66.897 20.7675 66.7436 20.4848C66.5982 20.1941 66.4004 19.968 66.1501 19.8065C65.8997 19.6369 65.6211 19.5522 65.3143 19.5522C64.9993 19.5522 64.7167 19.6369 64.4664 19.8065C64.216 19.968 64.0182 20.1941 63.8728 20.4848C63.7275 20.7675 63.6548 21.0945 63.6548 21.466ZM73.5079 19.6854C73.0154 19.6854 72.5753 19.7823 72.1876 19.9761C71.8 20.1618 71.5214 20.4324 71.3519 20.7877V24.6274H69.7287V18.2803H71.2186V19.6369C71.4366 19.2009 71.7193 18.8577 72.0665 18.6074C72.4218 18.357 72.7933 18.2197 73.1809 18.1955C73.3505 18.1955 73.4595 18.1996 73.5079 18.2076V19.6854ZM78.2164 24.3004C77.9984 24.3973 77.7279 24.4942 77.4049 24.5911C77.0899 24.688 76.7629 24.7365 76.4237 24.7365C76.125 24.7365 75.8504 24.684 75.6001 24.579C75.3497 24.474 75.1479 24.3085 74.9944 24.0824C74.8491 23.8482 74.7764 23.5454 74.7764 23.1739V19.5279H73.9406V18.2803H74.7764V16.2211H76.3995V18.2803H77.7319V19.5279H76.3995V22.6288C76.3995 22.8469 76.456 23.0043 76.5691 23.1012C76.6902 23.1981 76.8356 23.2466 77.0052 23.2466C77.1747 23.2466 77.3403 23.2183 77.5018 23.1618C77.6633 23.1053 77.7925 23.0568 77.8894 23.0164L78.2164 24.3004ZM81.6083 20.2668C81.6083 19.7419 81.7012 19.2251 81.8869 18.7164C82.0807 18.2076 82.3593 17.7473 82.7227 17.3355C83.0861 16.9237 83.5302 16.5966 84.0551 16.3544C84.58 16.104 85.1776 15.9789 85.8478 15.9789C86.6311 15.9789 87.3135 16.1525 87.8949 16.4997C88.4763 16.847 88.9083 17.2992 89.191 17.8564L87.907 18.7406C87.7617 18.4176 87.5719 18.1632 87.3377 17.9775C87.1035 17.7918 86.8491 17.6585 86.5746 17.5778C86.3081 17.497 86.0497 17.4566 85.7994 17.4566C85.3795 17.4566 85.012 17.5414 84.6971 17.711C84.3902 17.8806 84.1318 18.1027 83.9219 18.3772C83.7119 18.6518 83.5545 18.9586 83.4495 19.2978C83.3526 19.6369 83.3041 19.9761 83.3041 20.3153C83.3041 20.824 83.4091 21.3004 83.6191 21.7446C83.829 22.1806 84.1238 22.536 84.5033 22.8105C84.8828 23.0851 85.3229 23.2224 85.8236 23.2224C86.082 23.2224 86.3485 23.1779 86.623 23.0891C86.9057 23.0003 87.1641 22.859 87.3983 22.6652C87.6324 22.4714 87.8141 22.221 87.9433 21.9142L89.3121 22.7015C89.1344 23.1295 88.8558 23.4929 88.4763 23.7917C88.0968 24.0824 87.6688 24.3085 87.1923 24.47C86.7159 24.6234 86.2435 24.7001 85.7751 24.7001C85.1614 24.7001 84.6002 24.575 84.0915 24.3246C83.5908 24.0662 83.1547 23.7271 82.7833 23.3071C82.4118 22.8792 82.1211 22.4027 81.9111 21.8778C81.7093 21.3449 81.6083 20.8079 81.6083 20.2668ZM89.8396 22.7499C89.8396 22.3381 89.9526 21.9788 90.1787 21.6719C90.4129 21.357 90.7359 21.1147 91.1478 20.9451C91.5596 20.7756 92.032 20.6908 92.565 20.6908C92.8315 20.6908 93.102 20.715 93.3765 20.7634C93.6511 20.8038 93.8893 20.8644 94.0912 20.9451V20.606C94.0912 20.2022 93.9701 19.8913 93.7278 19.6733C93.4936 19.4553 93.1423 19.3462 92.674 19.3462C92.3267 19.3462 91.9957 19.4068 91.6807 19.5279C91.3658 19.6491 91.0347 19.8267 90.6875 20.0609L90.1666 18.995C90.5865 18.7204 91.0145 18.5145 91.4506 18.3772C91.8947 18.2399 92.359 18.1713 92.8436 18.1713C93.748 18.1713 94.4505 18.3974 94.9512 18.8496C95.4599 19.3018 95.7143 19.9478 95.7143 20.7877V22.8105C95.7143 22.9882 95.7426 23.1133 95.7991 23.186C95.8556 23.2506 95.9566 23.291 96.1019 23.3071V24.6274C95.9566 24.6597 95.8233 24.6799 95.7022 24.688C95.5891 24.7042 95.4922 24.7122 95.4115 24.7122C95.0885 24.7122 94.8422 24.6396 94.6726 24.4942C94.503 24.3488 94.4021 24.1712 94.3698 23.9612L94.3334 23.6342C94.0508 23.9976 93.7036 24.2762 93.2917 24.47C92.888 24.6557 92.4721 24.7486 92.0441 24.7486C91.6161 24.7486 91.2366 24.6638 90.9055 24.4942C90.5744 24.3165 90.312 24.0783 90.1182 23.7795C89.9324 23.4727 89.8396 23.1295 89.8396 22.7499ZM93.7884 23.077C93.9902 22.8832 94.0912 22.6975 94.0912 22.5198V21.8778C93.6713 21.7082 93.2473 21.6235 92.8193 21.6235C92.3914 21.6235 92.0441 21.7163 91.7776 21.902C91.5111 22.0797 91.3779 22.3179 91.3779 22.6167C91.3779 22.859 91.4748 23.077 91.6686 23.2708C91.8624 23.4646 92.141 23.5615 92.5044 23.5615C92.7467 23.5615 92.9808 23.5171 93.2069 23.4283C93.4411 23.3394 93.6349 23.2224 93.7884 23.077ZM100.975 24.3004C100.757 24.3973 100.487 24.4942 100.164 24.5911C99.8489 24.688 99.5218 24.7365 99.1827 24.7365C98.8839 24.7365 98.6093 24.684 98.359 24.579C98.1086 24.474 97.9068 24.3085 97.7533 24.0824C97.608 23.8482 97.5353 23.5454 97.5353 23.1739V19.5279H96.6995V18.2803H97.5353V16.2211H99.1584V18.2803H100.491V19.5279H99.1584V22.6288C99.1584 22.8469 99.215 23.0043 99.328 23.1012C99.4491 23.1981 99.5945 23.2466 99.7641 23.2466C99.9336 23.2466 100.099 23.2183 100.261 23.1618C100.422 23.1053 100.551 23.0568 100.648 23.0164L100.975 24.3004ZM104.681 24.7486C103.995 24.7486 103.401 24.5992 102.901 24.3004C102.408 24.0016 102.025 23.6059 101.75 23.1133C101.475 22.6127 101.338 22.0716 101.338 21.4902C101.338 20.8926 101.471 20.3435 101.738 19.8429C102.012 19.3341 102.4 18.9304 102.901 18.6316C103.401 18.3247 103.999 18.1713 104.693 18.1713C105.388 18.1713 105.981 18.3247 106.474 18.6316C106.967 18.9304 107.342 19.3301 107.601 19.8308C107.867 20.3233 108 20.8563 108 21.4296C108 21.6396 107.988 21.8213 107.964 21.9747H103.058C103.099 22.4673 103.28 22.8549 103.603 23.1376C103.934 23.4202 104.314 23.5615 104.742 23.5615C105.065 23.5615 105.368 23.4848 105.65 23.3314C105.941 23.1699 106.139 22.9599 106.244 22.7015L107.637 23.0891C107.403 23.5736 107.027 23.9733 106.51 24.2883C105.994 24.5951 105.384 24.7486 104.681 24.7486ZM103.022 20.9451H106.341C106.292 20.4687 106.111 20.0851 105.796 19.7944C105.489 19.4956 105.113 19.3462 104.669 19.3462C104.233 19.3462 103.858 19.4956 103.543 19.7944C103.236 20.0851 103.062 20.4687 103.022 20.9451ZM111.472 24.6638C110.907 24.6638 110.41 24.5184 109.982 24.2277C109.554 23.937 109.219 23.5494 108.977 23.0649C108.735 22.5723 108.614 22.0353 108.614 21.4539C108.614 20.8402 108.739 20.287 108.989 19.7944C109.239 19.2937 109.587 18.8981 110.031 18.6074C110.475 18.3166 110.988 18.1713 111.569 18.1713C112.062 18.1713 112.494 18.2843 112.865 18.5105C113.237 18.7285 113.543 19.0232 113.786 19.3947V18.2803H115.203V24.3246C115.203 24.9545 115.05 25.4915 114.743 25.9356C114.444 26.3878 114.028 26.731 113.495 26.9652C112.962 27.2075 112.356 27.3286 111.678 27.3286C110.984 27.3286 110.398 27.2115 109.922 26.9773C109.453 26.7512 109.05 26.4282 108.71 26.0083L109.595 25.1483C109.837 25.4471 110.14 25.6813 110.503 25.8508C110.875 26.0204 111.266 26.1052 111.678 26.1052C112.017 26.1052 112.328 26.0406 112.611 25.9114C112.901 25.7903 113.136 25.5965 113.313 25.33C113.491 25.0716 113.58 24.7365 113.58 24.3246V23.5252C113.37 23.8886 113.071 24.1712 112.683 24.3731C112.304 24.5669 111.9 24.6638 111.472 24.6638ZM112.017 23.3677C112.373 23.3677 112.692 23.2627 112.974 23.0528C113.265 22.8428 113.467 22.5925 113.58 22.3018V20.7877C113.434 20.4162 113.204 20.1174 112.889 19.8913C112.583 19.6652 112.26 19.5522 111.92 19.5522C111.589 19.5522 111.299 19.645 111.048 19.8308C110.806 20.0165 110.616 20.2587 110.479 20.5575C110.342 20.8482 110.273 21.1632 110.273 21.5023C110.273 21.8496 110.35 22.1645 110.503 22.4471C110.657 22.7298 110.863 22.9559 111.121 23.1254C111.387 23.287 111.686 23.3677 112.017 23.3677ZM119.597 24.7486C118.903 24.7486 118.305 24.5992 117.805 24.3004C117.312 23.9935 116.933 23.5898 116.666 23.0891C116.4 22.5884 116.266 22.0474 116.266 21.466C116.266 20.8765 116.4 20.3314 116.666 19.8308C116.941 19.3301 117.324 18.9304 117.817 18.6316C118.317 18.3247 118.911 18.1713 119.597 18.1713C120.284 18.1713 120.873 18.3247 121.366 18.6316C121.866 18.9304 122.25 19.3301 122.517 19.8308C122.783 20.3314 122.916 20.8765 122.916 21.466C122.916 22.0474 122.783 22.5884 122.517 23.0891C122.25 23.5898 121.866 23.9935 121.366 24.3004C120.873 24.5992 120.284 24.7486 119.597 24.7486ZM117.938 21.466C117.938 21.8374 118.011 22.1685 118.156 22.4592C118.301 22.7419 118.499 22.9639 118.749 23.1254C119 23.287 119.282 23.3677 119.597 23.3677C119.904 23.3677 120.183 23.287 120.433 23.1254C120.683 22.9559 120.881 22.7298 121.027 22.4471C121.18 22.1564 121.257 21.8253 121.257 21.4539C121.257 21.0905 121.18 20.7675 121.027 20.4848C120.881 20.1941 120.683 19.968 120.433 19.8065C120.183 19.6369 119.904 19.5522 119.597 19.5522C119.282 19.5522 119 19.6369 118.749 19.8065C118.499 19.968 118.301 20.1941 118.156 20.4848C118.011 20.7675 117.938 21.0945 117.938 21.466ZM127.791 19.6854C127.298 19.6854 126.858 19.7823 126.471 19.9761C126.083 20.1618 125.805 20.4324 125.635 20.7877V24.6274H124.012V18.2803H125.502V19.6369C125.72 19.2009 126.002 18.8577 126.35 18.6074C126.705 18.357 127.076 18.2197 127.464 18.1955C127.634 18.1955 127.743 18.1996 127.791 18.2076V19.6854ZM128.696 17.3961V15.7851H130.319V17.3961H128.696ZM128.696 24.6274V18.2803H130.319V24.6274H128.696ZM134.727 24.7486C134.04 24.7486 133.447 24.5992 132.946 24.3004C132.454 24.0016 132.07 23.6059 131.796 23.1133C131.521 22.6127 131.384 22.0716 131.384 21.4902C131.384 20.8926 131.517 20.3435 131.783 19.8429C132.058 19.3341 132.446 18.9304 132.946 18.6316C133.447 18.3247 134.045 18.1713 134.739 18.1713C135.433 18.1713 136.027 18.3247 136.52 18.6316C137.012 18.9304 137.388 19.3301 137.646 19.8308C137.913 20.3233 138.046 20.8563 138.046 21.4296C138.046 21.6396 138.034 21.8213 138.009 21.9747H133.104C133.144 22.4673 133.326 22.8549 133.649 23.1376C133.98 23.4202 134.359 23.5615 134.787 23.5615C135.11 23.5615 135.413 23.4848 135.696 23.3314C135.987 23.1699 136.184 22.9599 136.289 22.7015L137.682 23.0891C137.448 23.5736 137.073 23.9733 136.556 24.2883C136.039 24.5951 135.429 24.7486 134.727 24.7486ZM133.067 20.9451H136.386C136.338 20.4687 136.156 20.0851 135.841 19.7944C135.534 19.4956 135.159 19.3462 134.715 19.3462C134.279 19.3462 133.903 19.4956 133.588 19.7944C133.281 20.0851 133.108 20.4687 133.067 20.9451ZM141.372 24.7486C140.831 24.7486 140.315 24.6597 139.822 24.4821C139.329 24.3044 138.905 24.042 138.55 23.6948L139.132 22.6409C139.511 22.9478 139.883 23.1739 140.246 23.3193C140.609 23.4646 140.965 23.5373 141.312 23.5373C141.627 23.5373 141.877 23.4808 142.063 23.3677C142.257 23.2547 142.354 23.0851 142.354 22.859C142.354 22.6248 142.236 22.4673 142.002 22.3866C141.768 22.2977 141.441 22.1887 141.021 22.0595C140.553 21.9142 140.161 21.7648 139.846 21.6113C139.531 21.4579 139.293 21.2722 139.132 21.0541C138.978 20.8361 138.901 20.5535 138.901 20.2062C138.901 19.5845 139.136 19.0878 139.604 18.7164C140.072 18.3449 140.694 18.1592 141.469 18.1592C141.922 18.1592 142.349 18.2319 142.753 18.3772C143.157 18.5145 143.524 18.7406 143.856 19.0555L143.201 20.0851C142.58 19.6006 141.978 19.3583 141.397 19.3583C141.138 19.3583 140.908 19.4068 140.706 19.5037C140.512 19.6006 140.415 19.7702 140.415 20.0124C140.415 20.2386 140.508 20.4001 140.694 20.497C140.888 20.5939 141.179 20.6988 141.566 20.8119C142.067 20.9653 142.491 21.1147 142.838 21.2601C143.193 21.4054 143.46 21.5912 143.637 21.8173C143.823 22.0434 143.916 22.3502 143.916 22.7378C143.916 23.3677 143.686 23.8603 143.226 24.2156C142.765 24.5709 142.148 24.7486 141.372 24.7486Z" fill="black"/>
<path d="M47.986 71.8056C47.7841 71.5836 47.5149 71.4019 47.1785 71.2605C46.842 71.1125 46.4584 71.0385 46.0277 71.0385C45.3952 71.0385 44.9342 71.1596 44.6449 71.4019C44.3555 71.6374 44.2108 71.9604 44.2108 72.3709C44.2108 72.6535 44.2815 72.8756 44.4228 73.0371C44.5641 73.1986 44.7794 73.3332 45.0688 73.4409C45.3649 73.5418 45.7417 73.6427 46.1993 73.7437C46.7108 73.8513 47.1515 73.9792 47.5217 74.1272C47.8918 74.2753 48.1778 74.4772 48.3796 74.7329C48.5815 74.9819 48.6825 75.3217 48.6825 75.7524C48.6825 76.1898 48.5714 76.5532 48.3494 76.8425C48.1273 77.1319 47.8211 77.3472 47.4308 77.4886C47.0405 77.6232 46.5964 77.6904 46.0984 77.6904C44.9813 77.6904 44.0224 77.3439 43.2216 76.6508L43.5749 76.0754C43.8306 76.3446 44.1805 76.5767 44.6247 76.7719C45.0755 76.967 45.5735 77.0646 46.1186 77.0646C46.6838 77.0646 47.128 76.9603 47.451 76.7517C47.774 76.5431 47.9355 76.2335 47.9355 75.823C47.9355 75.527 47.8548 75.2914 47.6933 75.1165C47.5317 74.9348 47.2895 74.7867 46.9665 74.6723C46.6435 74.5579 46.2464 74.4469 45.7754 74.3392C45.2774 74.2248 44.8568 74.097 44.5136 73.9557C44.1772 73.8143 43.9214 73.6293 43.7465 73.4005C43.5715 73.1717 43.484 72.8621 43.484 72.4718C43.484 72.0277 43.5917 71.6542 43.807 71.3514C44.0291 71.0418 44.3319 70.8097 44.7155 70.6549C45.0991 70.4934 45.5399 70.4126 46.0378 70.4126C46.5089 70.4126 46.9328 70.4867 47.3097 70.6347C47.6865 70.776 48.0264 70.9779 48.3292 71.2404L47.986 71.8056ZM52.0682 77.7308C51.5568 77.7308 51.1026 77.6063 50.7055 77.3573C50.3085 77.1016 49.9956 76.7685 49.7668 76.358C49.538 75.9408 49.4236 75.4832 49.4236 74.9852C49.4236 74.4873 49.5346 74.0364 49.7567 73.6326C49.9788 73.2222 50.2883 72.8958 50.6853 72.6535C51.0824 72.4045 51.54 72.28 52.0581 72.28C52.5494 72.28 52.9801 72.3944 53.3502 72.6232C53.727 72.8453 54.0097 73.1481 54.1981 73.5317L53.5319 73.7437C53.3838 73.4745 53.1752 73.2659 52.906 73.1178C52.6436 72.9631 52.3509 72.8857 52.0279 72.8857C51.6712 72.8857 51.3482 72.9765 51.0588 73.1582C50.7762 73.3399 50.5474 73.5923 50.3724 73.9153C50.2042 74.2316 50.1201 74.5882 50.1201 74.9852C50.1201 75.3823 50.2076 75.7423 50.3825 76.0653C50.5575 76.3883 50.7897 76.6474 51.079 76.8425C51.3684 77.031 51.688 77.1252 52.0379 77.1252C52.2667 77.1252 52.4888 77.0848 52.7042 77.0041C52.9195 76.9233 53.1046 76.8156 53.2593 76.681C53.4141 76.5397 53.5184 76.3883 53.5722 76.2268L54.2485 76.4287C54.1543 76.6777 53.9996 76.9031 53.7842 77.105C53.5689 77.3001 53.3132 77.4549 53.0171 77.5693C52.721 77.677 52.4047 77.7308 52.0682 77.7308ZM59.7481 77.6299H59.0617V74.6925C59.0617 73.5014 58.6579 72.9059 57.8504 72.9059C57.5879 72.9059 57.3322 72.9732 57.0832 73.1078C56.8342 73.2356 56.6122 73.4139 56.417 73.6427C56.2286 73.8648 56.094 74.1205 56.0133 74.4099V77.6299H55.3269V70.2612H56.0133V73.562C56.2219 73.1717 56.5112 72.8621 56.8814 72.6333C57.2582 72.3978 57.6586 72.28 58.0825 72.28C58.4863 72.28 58.8093 72.3776 59.0516 72.5728C59.2938 72.7612 59.4688 73.027 59.5765 73.3702C59.6909 73.7067 59.7481 74.1003 59.7481 74.5512V77.6299ZM63.4527 77.7308C62.948 77.7308 62.4971 77.6063 62.1001 77.3573C61.7098 77.1084 61.4036 76.7786 61.1815 76.3681C60.9594 75.9509 60.8484 75.5 60.8484 75.0155C60.8484 74.5243 60.9594 74.0734 61.1815 73.6629C61.4103 73.2457 61.7198 72.9126 62.1101 72.6636C62.5072 72.4079 62.9547 72.28 63.4527 72.28C63.9574 72.28 64.4049 72.4079 64.7952 72.6636C65.1922 72.9126 65.5017 73.2457 65.7238 73.6629C65.9526 74.0734 66.067 74.5243 66.067 75.0155C66.067 75.5 65.956 75.9509 65.7339 76.3681C65.5118 76.7786 65.2023 77.1084 64.8053 77.3573C64.415 77.6063 63.9641 77.7308 63.4527 77.7308ZM61.5449 75.0256C61.5449 75.4159 61.629 75.7726 61.7972 76.0956C61.9722 76.4119 62.2044 76.6642 62.4937 76.8526C62.7831 77.0343 63.1027 77.1252 63.4527 77.1252C63.8026 77.1252 64.1222 77.031 64.4116 76.8425C64.701 76.6541 64.9331 76.3984 65.1081 76.0754C65.283 75.7524 65.3705 75.3957 65.3705 75.0054C65.3705 74.6151 65.283 74.2585 65.1081 73.9355C64.9331 73.6125 64.701 73.3567 64.4116 73.1683C64.1222 72.9799 63.8026 72.8857 63.4527 72.8857C63.1095 72.8857 62.7932 72.9833 62.5038 73.1784C62.2145 73.3668 61.9823 73.6225 61.8073 73.9456C61.6324 74.2686 61.5449 74.6286 61.5449 75.0256ZM69.4559 77.7308C68.9511 77.7308 68.5003 77.6063 68.1032 77.3573C67.7129 77.1084 67.4068 76.7786 67.1847 76.3681C66.9626 75.9509 66.8516 75.5 66.8516 75.0155C66.8516 74.5243 66.9626 74.0734 67.1847 73.6629C67.4135 73.2457 67.723 72.9126 68.1133 72.6636C68.5104 72.4079 68.9579 72.28 69.4559 72.28C69.9606 72.28 70.4081 72.4079 70.7984 72.6636C71.1954 72.9126 71.5049 73.2457 71.727 73.6629C71.9558 74.0734 72.0702 74.5243 72.0702 75.0155C72.0702 75.5 71.9592 75.9509 71.7371 76.3681C71.515 76.7786 71.2055 77.1084 70.8085 77.3573C70.4181 77.6063 69.9673 77.7308 69.4559 77.7308ZM67.5481 75.0256C67.5481 75.4159 67.6322 75.7726 67.8004 76.0956C67.9754 76.4119 68.2076 76.6642 68.4969 76.8526C68.7863 77.0343 69.1059 77.1252 69.4559 77.1252C69.8058 77.1252 70.1254 77.031 70.4148 76.8425C70.7041 76.6541 70.9363 76.3984 71.1113 76.0754C71.2862 75.7524 71.3737 75.3957 71.3737 75.0054C71.3737 74.6151 71.2862 74.2585 71.1113 73.9355C70.9363 73.6125 70.7041 73.3567 70.4148 73.1683C70.1254 72.9799 69.8058 72.8857 69.4559 72.8857C69.1127 72.8857 68.7964 72.9833 68.507 73.1784C68.2176 73.3668 67.9855 73.6225 67.8105 73.9456C67.6356 74.2686 67.5481 74.6286 67.5481 75.0256ZM73.2485 70.2612H73.9348V76.4388C73.9348 76.7012 73.9786 76.8728 74.0661 76.9536C74.1603 77.0343 74.278 77.0747 74.4194 77.0747C74.5405 77.0747 74.6616 77.0613 74.7827 77.0343C74.9106 77.0074 75.0149 76.9805 75.0957 76.9536L75.2168 77.5088C75.0889 77.5626 74.9308 77.6063 74.7424 77.64C74.5607 77.6736 74.4025 77.6904 74.268 77.6904C73.9584 77.6904 73.7094 77.5996 73.521 77.4179C73.3393 77.2362 73.2485 76.9872 73.2485 76.6709V70.2612Z" fill="black"/>
<path d="M161.091 70.4631H161.687L164.665 77.6299H163.918L162.989 75.389H159.769L158.85 77.6299H158.093L161.091 70.4631ZM162.828 74.8338L161.384 71.2908L159.92 74.8338H162.828ZM165.581 70.2612H166.267V76.4388C166.267 76.7012 166.311 76.8728 166.399 76.9536C166.493 77.0343 166.611 77.0747 166.752 77.0747C166.873 77.0747 166.994 77.0613 167.115 77.0343C167.243 77.0074 167.347 76.9805 167.428 76.9536L167.549 77.5088C167.421 77.5626 167.263 77.6063 167.075 77.64C166.893 77.6736 166.735 77.6904 166.6 77.6904C166.291 77.6904 166.042 77.5996 165.854 77.4179C165.672 77.2362 165.581 76.9872 165.581 76.6709V70.2612ZM170.986 77.7308C170.549 77.7308 170.155 77.6164 169.805 77.3876C169.462 77.1588 169.189 76.8762 168.987 76.5397V79.7799H168.301V72.3709H168.917V73.3904C169.125 73.0606 169.401 72.7948 169.744 72.593C170.094 72.3843 170.471 72.28 170.875 72.28C171.238 72.28 171.571 72.3574 171.874 72.5122C172.177 72.6602 172.439 72.8621 172.662 73.1178C172.89 73.3736 173.065 73.6663 173.186 73.996C173.308 74.319 173.368 74.6555 173.368 75.0054C173.368 75.4967 173.267 75.9509 173.065 76.3681C172.87 76.7786 172.591 77.1084 172.228 77.3573C171.871 77.6063 171.457 77.7308 170.986 77.7308ZM170.794 77.1252C171.178 77.1252 171.507 77.0242 171.783 76.8224C172.066 76.6137 172.285 76.3479 172.439 76.0249C172.594 75.7019 172.672 75.3621 172.672 75.0054C172.672 74.6286 172.584 74.2787 172.409 73.9557C172.234 73.6326 171.999 73.3736 171.703 73.1784C171.413 72.9833 171.084 72.8857 170.713 72.8857C170.485 72.8857 170.242 72.9462 169.987 73.0674C169.738 73.1818 169.516 73.3399 169.32 73.5418C169.132 73.7369 169.021 73.9523 168.987 74.1878V75.8029C169.142 76.173 169.384 76.4859 169.714 76.7416C170.044 76.9973 170.404 77.1252 170.794 77.1252ZM178.952 77.6299H178.266V74.6925C178.266 73.5014 177.862 72.9059 177.054 72.9059C176.792 72.9059 176.536 72.9732 176.287 73.1078C176.038 73.2356 175.816 73.4139 175.621 73.6427C175.433 73.8648 175.298 74.1205 175.217 74.4099V77.6299H174.531V70.2612H175.217V73.562C175.426 73.1717 175.715 72.8621 176.085 72.6333C176.462 72.3978 176.863 72.28 177.287 72.28C177.69 72.28 178.013 72.3776 178.256 72.5728C178.498 72.7612 178.673 73.027 178.78 73.3702C178.895 73.7067 178.952 74.1003 178.952 74.5512V77.6299ZM179.992 76.1158C179.992 75.7928 180.086 75.5135 180.274 75.278C180.463 75.0357 180.722 74.8473 181.052 74.7127C181.388 74.5781 181.775 74.5108 182.212 74.5108C182.468 74.5108 182.734 74.5344 183.01 74.5815C183.286 74.6219 183.531 74.6791 183.747 74.7531V74.3089C183.747 73.8648 183.616 73.5115 183.353 73.2491C183.091 72.9866 182.727 72.8554 182.263 72.8554C181.987 72.8554 181.711 72.9092 181.435 73.0169C181.159 73.1178 180.873 73.2693 180.577 73.4711L180.315 72.9866C180.658 72.7511 180.994 72.5761 181.324 72.4617C181.654 72.3406 181.99 72.28 182.334 72.28C182.98 72.28 183.491 72.4651 183.868 72.8352C184.245 73.2053 184.433 73.7168 184.433 74.3695V76.8022C184.433 76.9839 184.517 77.0781 184.686 77.0848V77.6299C184.537 77.6501 184.433 77.6568 184.373 77.6501C184.204 77.6433 184.077 77.5895 183.989 77.4886C183.902 77.3876 183.854 77.28 183.848 77.1656L183.838 76.782C183.602 77.0848 183.296 77.3203 182.919 77.4886C182.542 77.6501 182.159 77.7308 181.768 77.7308C181.425 77.7308 181.119 77.6602 180.85 77.5188C180.581 77.3708 180.369 77.1757 180.214 76.9334C180.066 76.6844 179.992 76.4119 179.992 76.1158ZM183.515 76.5195C183.669 76.3378 183.747 76.1696 183.747 76.0148V75.2477C183.282 75.066 182.798 74.9751 182.293 74.9751C181.802 74.9751 181.405 75.0727 181.102 75.2679C180.799 75.463 180.648 75.7288 180.648 76.0653C180.648 76.3547 180.759 76.6171 180.981 76.8526C181.21 77.0882 181.526 77.2059 181.93 77.2059C182.26 77.2059 182.566 77.142 182.848 77.0141C183.138 76.8863 183.36 76.7214 183.515 76.5195ZM188.49 77.7308C188.08 77.7308 187.699 77.6265 187.35 77.4179C187 77.2026 186.727 76.9334 186.532 76.6104V77.6299H185.916V70.2612H186.603V73.4711C186.838 73.1145 187.121 72.8285 187.451 72.6131C187.78 72.3911 188.164 72.28 188.601 72.28C188.971 72.28 189.301 72.3574 189.59 72.5122C189.887 72.667 190.139 72.8756 190.347 73.138C190.556 73.3937 190.714 73.6865 190.822 74.0162C190.93 74.3392 190.983 74.6723 190.983 75.0155C190.983 75.5068 190.872 75.9576 190.65 76.3681C190.435 76.7786 190.139 77.1084 189.762 77.3573C189.385 77.6063 188.961 77.7308 188.49 77.7308ZM188.329 77.1252C188.712 77.1252 189.049 77.0242 189.338 76.8224C189.634 76.6205 189.866 76.3614 190.035 76.0451C190.203 75.7221 190.287 75.3789 190.287 75.0155C190.287 74.6454 190.206 74.2988 190.045 73.9758C189.89 73.6528 189.671 73.3904 189.389 73.1885C189.106 72.9866 188.78 72.8857 188.409 72.8857C187.999 72.8857 187.636 73.0169 187.319 73.2794C187.01 73.5418 186.771 73.848 186.603 74.1979V75.8331C186.636 76.0754 186.747 76.2941 186.936 76.4893C187.124 76.6844 187.346 76.8392 187.602 76.9536C187.858 77.068 188.1 77.1252 188.329 77.1252ZM194.417 77.7308C193.913 77.7308 193.462 77.6063 193.065 77.3573C192.668 77.1084 192.355 76.7753 192.126 76.358C191.897 75.9408 191.783 75.4832 191.783 74.9852C191.783 74.494 191.894 74.0431 192.116 73.6326C192.345 73.2222 192.658 72.8958 193.055 72.6535C193.452 72.4045 193.902 72.28 194.407 72.28C194.925 72.28 195.38 72.4045 195.77 72.6535C196.16 72.9025 196.463 73.2322 196.678 73.6427C196.9 74.0465 197.011 74.4906 197.011 74.9751C197.011 75.0828 197.008 75.1737 197.001 75.2477H192.499C192.533 75.6245 192.641 75.961 192.822 76.2571C193.004 76.5465 193.236 76.7786 193.519 76.9536C193.802 77.1218 194.111 77.2059 194.448 77.2059C194.791 77.2059 195.114 77.1185 195.417 76.9435C195.719 76.7685 195.935 76.5397 196.063 76.2571L196.658 76.4186C196.55 76.6743 196.382 76.9031 196.153 77.105C195.931 77.3001 195.672 77.4549 195.376 77.5693C195.08 77.677 194.76 77.7308 194.417 77.7308ZM192.479 74.7531H196.365C196.339 74.3762 196.234 74.0431 196.053 73.7538C195.871 73.4577 195.639 73.2289 195.356 73.0674C195.073 72.8991 194.76 72.815 194.417 72.815C194.074 72.815 193.761 72.8991 193.479 73.0674C193.196 73.2289 192.964 73.4577 192.782 73.7538C192.607 74.0431 192.506 74.3762 192.479 74.7531ZM200.545 77.3775C200.464 77.4112 200.316 77.4717 200.101 77.5592C199.885 77.6467 199.636 77.6904 199.354 77.6904C199.058 77.6904 198.798 77.6063 198.576 77.4381C198.354 77.2699 198.243 77.0175 198.243 76.681V72.916H197.516V72.3709H198.243V70.5943H198.93V72.3709H200.141V72.916H198.93V76.4893C198.943 76.6844 199.01 76.8291 199.132 76.9233C199.259 77.0108 199.404 77.0545 199.566 77.0545C199.754 77.0545 199.922 77.0242 200.07 76.9637C200.225 76.8964 200.323 76.8493 200.363 76.8224L200.545 77.3775ZM201.402 71.2706V70.2612H202.089V71.2706H201.402ZM201.402 77.6299V72.3709H202.089V77.6299H201.402ZM205.882 77.7308C205.37 77.7308 204.916 77.6063 204.519 77.3573C204.122 77.1016 203.809 76.7685 203.58 76.358C203.352 75.9408 203.237 75.4832 203.237 74.9852C203.237 74.4873 203.348 74.0364 203.57 73.6326C203.792 73.2222 204.102 72.8958 204.499 72.6535C204.896 72.4045 205.354 72.28 205.872 72.28C206.363 72.28 206.794 72.3944 207.164 72.6232C207.541 72.8453 207.823 73.1481 208.012 73.5317L207.345 73.7437C207.197 73.4745 206.989 73.2659 206.72 73.1178C206.457 72.9631 206.164 72.8857 205.841 72.8857C205.485 72.8857 205.162 72.9765 204.872 73.1582C204.59 73.3399 204.361 73.5923 204.186 73.9153C204.018 74.2316 203.934 74.5882 203.934 74.9852C203.934 75.3823 204.021 75.7423 204.196 76.0653C204.371 76.3883 204.603 76.6474 204.893 76.8425C205.182 77.031 205.502 77.1252 205.851 77.1252C206.08 77.1252 206.302 77.0848 206.518 77.0041C206.733 76.9233 206.918 76.8156 207.073 76.681C207.228 76.5397 207.332 76.3883 207.386 76.2268L208.062 76.4287C207.968 76.6777 207.813 76.9031 207.598 77.105C207.382 77.3001 207.127 77.4549 206.831 77.5693C206.535 77.677 206.218 77.7308 205.882 77.7308ZM208.716 76.1158C208.716 75.7928 208.811 75.5135 208.999 75.278C209.188 75.0357 209.447 74.8473 209.776 74.7127C210.113 74.5781 210.5 74.5108 210.937 74.5108C211.193 74.5108 211.459 74.5344 211.735 74.5815C212.01 74.6219 212.256 74.6791 212.471 74.7531V74.3089C212.471 73.8648 212.34 73.5115 212.078 73.2491C211.815 72.9866 211.452 72.8554 210.988 72.8554C210.712 72.8554 210.436 72.9092 210.16 73.0169C209.884 73.1178 209.598 73.2693 209.302 73.4711L209.039 72.9866C209.383 72.7511 209.719 72.5761 210.049 72.4617C210.379 72.3406 210.715 72.28 211.058 72.28C211.704 72.28 212.216 72.4651 212.593 72.8352C212.969 73.2053 213.158 73.7168 213.158 74.3695V76.8022C213.158 76.9839 213.242 77.0781 213.41 77.0848V77.6299C213.262 77.6501 213.158 77.6568 213.097 77.6501C212.929 77.6433 212.801 77.5895 212.714 77.4886C212.626 77.3876 212.579 77.28 212.572 77.1656L212.562 76.782C212.327 77.0848 212.021 77.3203 211.644 77.4886C211.267 77.6501 210.883 77.7308 210.493 77.7308C210.15 77.7308 209.844 77.6602 209.574 77.5188C209.305 77.3708 209.093 77.1757 208.939 76.9334C208.79 76.6844 208.716 76.4119 208.716 76.1158ZM212.239 76.5195C212.394 76.3378 212.471 76.1696 212.471 76.0148V75.2477C212.007 75.066 211.523 74.9751 211.018 74.9751C210.527 74.9751 210.13 75.0727 209.827 75.2679C209.524 75.463 209.373 75.7288 209.373 76.0653C209.373 76.3547 209.484 76.6171 209.706 76.8526C209.934 77.0882 210.251 77.2059 210.655 77.2059C210.984 77.2059 211.29 77.142 211.573 77.0141C211.862 76.8863 212.084 76.7214 212.239 76.5195ZM214.671 70.2612H215.358V76.4388C215.358 76.7012 215.401 76.8728 215.489 76.9536C215.583 77.0343 215.701 77.0747 215.842 77.0747C215.963 77.0747 216.084 77.0613 216.205 77.0343C216.333 77.0074 216.438 76.9805 216.518 76.9536L216.639 77.5088C216.512 77.5626 216.353 77.6063 216.165 77.64C215.983 77.6736 215.825 77.6904 215.691 77.6904C215.381 77.6904 215.132 77.5996 214.944 77.4179C214.762 77.2362 214.671 76.9872 214.671 76.6709V70.2612Z" fill="black"/>
<path d="M21.2373 51.1132C21.0354 50.8912 20.7662 50.7095 20.4298 50.5682C20.0933 50.4201 19.7097 50.3461 19.2791 50.3461C18.6465 50.3461 18.1855 50.4672 17.8962 50.7095C17.6068 50.945 17.4621 51.268 17.4621 51.6785C17.4621 51.9611 17.5328 52.1832 17.6741 52.3447C17.8154 52.5062 18.0308 52.6408 18.3201 52.7485C18.6162 52.8494 18.9931 52.9504 19.4507 53.0513C19.9621 53.159 20.4029 53.2868 20.773 53.4349C21.1431 53.5829 21.4291 53.7848 21.631 54.0405C21.8328 54.2895 21.9338 54.6293 21.9338 55.06C21.9338 55.4974 21.8228 55.8608 21.6007 56.1502C21.3786 56.4395 21.0724 56.6549 20.6821 56.7962C20.2918 56.9308 19.8477 56.9981 19.3497 56.9981C18.2326 56.9981 17.2737 56.6515 16.4729 55.9584L16.8262 55.383C17.0819 55.6522 17.4318 55.8844 17.876 56.0795C18.3268 56.2747 18.8248 56.3722 19.3699 56.3722C19.9352 56.3722 20.3793 56.2679 20.7023 56.0593C21.0253 55.8507 21.1868 55.5412 21.1868 55.1307C21.1868 54.8346 21.1061 54.599 20.9446 54.4241C20.7831 54.2424 20.5408 54.0943 20.2178 53.9799C19.8948 53.8655 19.4978 53.7545 19.0267 53.6468C18.5287 53.5324 18.1081 53.4046 17.7649 53.2633C17.4285 53.122 17.1728 52.9369 16.9978 52.7081C16.8228 52.4793 16.7354 52.1697 16.7354 51.7794C16.7354 51.3353 16.843 50.9618 17.0584 50.659C17.2804 50.3495 17.5833 50.1173 17.9668 49.9625C18.3504 49.801 18.7912 49.7203 19.2891 49.7203C19.7602 49.7203 20.1842 49.7943 20.561 49.9423C20.9378 50.0836 21.2777 50.2855 21.5805 50.548L21.2373 51.1132ZM25.3095 57.0384C24.8048 57.0384 24.3539 56.9139 23.9569 56.665C23.5598 56.416 23.2469 56.0829 23.0181 55.6657C22.7893 55.2484 22.6749 54.7908 22.6749 54.2929C22.6749 53.8016 22.7859 53.3507 23.008 52.9403C23.2368 52.5298 23.5497 52.2034 23.9468 51.9611C24.3438 51.7122 24.7947 51.5877 25.2994 51.5877C25.8175 51.5877 26.2718 51.7122 26.6621 51.9611C27.0524 52.2101 27.3552 52.5399 27.5705 52.9504C27.7926 53.3541 27.9036 53.7983 27.9036 54.2828C27.9036 54.3904 27.9003 54.4813 27.8935 54.5553H23.3916C23.4252 54.9322 23.5329 55.2686 23.7146 55.5647C23.8963 55.8541 24.1285 56.0862 24.4111 56.2612C24.6937 56.4294 25.0033 56.5136 25.3397 56.5136C25.6829 56.5136 26.0059 56.4261 26.3088 56.2511C26.6116 56.0761 26.8269 55.8473 26.9548 55.5647L27.5503 55.7262C27.4427 55.9819 27.2744 56.2107 27.0456 56.4126C26.8236 56.6078 26.5645 56.7625 26.2684 56.8769C25.9723 56.9846 25.6527 57.0384 25.3095 57.0384ZM23.3714 54.0607H27.2576C27.2307 53.6839 27.1264 53.3507 26.9447 53.0614C26.763 52.7653 26.5308 52.5365 26.2482 52.375C25.9656 52.2068 25.6527 52.1226 25.3095 52.1226C24.9663 52.1226 24.6533 52.2068 24.3707 52.375C24.0881 52.5365 23.8559 52.7653 23.6742 53.0614C23.4993 53.3507 23.3983 53.6839 23.3714 54.0607ZM28.9929 49.5688H29.6793V55.7464C29.6793 56.0088 29.723 56.1804 29.8105 56.2612C29.9047 56.342 30.0225 56.3823 30.1638 56.3823C30.2849 56.3823 30.4061 56.3689 30.5272 56.342C30.6551 56.315 30.7594 56.2881 30.8401 56.2612L30.9612 56.8164C30.8334 56.8702 30.6753 56.9139 30.4868 56.9476C30.3051 56.9812 30.147 56.9981 30.0124 56.9981C29.7029 56.9981 29.4539 56.9072 29.2655 56.7255C29.0838 56.5438 28.9929 56.2948 28.9929 55.9786V49.5688ZM33.984 57.0384C33.4793 57.0384 33.0285 56.9139 32.6314 56.665C32.2344 56.416 31.9215 56.0829 31.6927 55.6657C31.4639 55.2484 31.3495 54.7908 31.3495 54.2929C31.3495 53.8016 31.4605 53.3507 31.6826 52.9403C31.9114 52.5298 32.2243 52.2034 32.6213 51.9611C33.0184 51.7122 33.4692 51.5877 33.9739 51.5877C34.4921 51.5877 34.9463 51.7122 35.3366 51.9611C35.7269 52.2101 36.0297 52.5399 36.2451 52.9504C36.4672 53.3541 36.5782 53.7983 36.5782 54.2828C36.5782 54.3904 36.5748 54.4813 36.5681 54.5553H32.0662C32.0998 54.9322 32.2075 55.2686 32.3892 55.5647C32.5709 55.8541 32.803 56.0862 33.0857 56.2612C33.3683 56.4294 33.6778 56.5136 34.0143 56.5136C34.3575 56.5136 34.6805 56.4261 34.9833 56.2511C35.2862 56.0761 35.5015 55.8473 35.6294 55.5647L36.2249 55.7262C36.1172 55.9819 35.949 56.2107 35.7202 56.4126C35.4981 56.6078 35.239 56.7625 34.943 56.8769C34.6469 56.9846 34.3272 57.0384 33.984 57.0384ZM32.046 54.0607H35.9322C35.9053 53.6839 35.8009 53.3507 35.6193 53.0614C35.4376 52.7653 35.2054 52.5365 34.9228 52.375C34.6401 52.2068 34.3272 52.1226 33.984 52.1226C33.6408 52.1226 33.3279 52.2068 33.0453 52.375C32.7626 52.5365 32.5305 52.7653 32.3488 53.0614C32.1738 53.3507 32.0729 53.6839 32.046 54.0607ZM39.9185 57.0384C39.407 57.0384 38.9528 56.9139 38.5558 56.665C38.1587 56.4092 37.8458 56.0761 37.617 55.6657C37.3882 55.2484 37.2738 54.7908 37.2738 54.2929C37.2738 53.7949 37.3848 53.344 37.6069 52.9403C37.829 52.5298 38.1385 52.2034 38.5356 51.9611C38.9326 51.7122 39.3902 51.5877 39.9084 51.5877C40.3996 51.5877 40.8303 51.7021 41.2004 51.9309C41.5772 52.1529 41.8599 52.4557 42.0483 52.8393L41.3821 53.0513C41.234 52.7821 41.0254 52.5735 40.7563 52.4255C40.4938 52.2707 40.2011 52.1933 39.8781 52.1933C39.5214 52.1933 39.1984 52.2841 38.909 52.4658C38.6264 52.6475 38.3976 52.8999 38.2227 53.2229C38.0544 53.5392 37.9703 53.8958 37.9703 54.2929C37.9703 54.6899 38.0578 55.0499 38.2327 55.3729C38.4077 55.6959 38.6399 55.955 38.9292 56.1502C39.2186 56.3386 39.5382 56.4328 39.8882 56.4328C40.117 56.4328 40.339 56.3924 40.5544 56.3117C40.7697 56.2309 40.9548 56.1232 41.1095 55.9887C41.2643 55.8473 41.3686 55.6959 41.4225 55.5344L42.0988 55.7363C42.0046 55.9853 41.8498 56.2107 41.6344 56.4126C41.4191 56.6078 41.1634 56.7625 40.8673 56.8769C40.5712 56.9846 40.2549 57.0384 39.9185 57.0384ZM45.7006 56.6851C45.6199 56.7188 45.4718 56.7794 45.2565 56.8668C45.0411 56.9543 44.7921 56.9981 44.5095 56.9981C44.2134 56.9981 43.9543 56.9139 43.7323 56.7457C43.5102 56.5775 43.3992 56.3251 43.3992 55.9887V52.2236H42.6724V51.6785H43.3992V49.902H44.0856V51.6785H45.2968V52.2236H44.0856V55.7969C44.099 55.992 44.1663 56.1367 44.2874 56.2309C44.4153 56.3184 44.56 56.3621 44.7215 56.3621C44.9099 56.3621 45.0781 56.3319 45.2262 56.2713C45.381 56.204 45.4785 56.1569 45.5189 56.13L45.7006 56.6851ZM49.3834 52.2236H48.6566V51.6785H49.3834V51.5372C49.3834 51.2074 49.4473 50.8844 49.5751 50.5682C49.7097 50.2519 49.9116 49.9894 50.1808 49.7808C50.4567 49.5722 50.81 49.4679 51.2407 49.4679C51.6108 49.4679 51.9271 49.5251 52.1895 49.6395C52.4587 49.7539 52.6505 49.8548 52.7649 49.9423L52.4519 50.4369C52.3375 50.336 52.176 50.2519 51.9674 50.1846C51.7588 50.1106 51.53 50.0736 51.281 50.0736C50.9917 50.0736 50.7595 50.1476 50.5845 50.2956C50.4096 50.4369 50.2784 50.6186 50.1909 50.8407C50.1101 51.0628 50.0697 51.2882 50.0697 51.517V51.6785H52.7043V56.9375H52.0179V52.2236H50.0697V56.9375H49.3834V52.2236ZM54.2477 49.5688H54.9341V55.7464C54.9341 56.0088 54.9779 56.1804 55.0654 56.2612C55.1596 56.342 55.2773 56.3823 55.4186 56.3823C55.5398 56.3823 55.6609 56.3689 55.782 56.342C55.9099 56.315 56.0142 56.2881 56.0949 56.2612L56.2161 56.8164C56.0882 56.8702 55.9301 56.9139 55.7417 56.9476C55.56 56.9812 55.4018 56.9981 55.2672 56.9981C54.9577 56.9981 54.7087 56.9072 54.5203 56.7255C54.3386 56.5438 54.2477 56.2948 54.2477 55.9786V49.5688ZM59.4912 56.6851C59.4104 56.7188 59.2624 56.7794 59.0471 56.8668C58.8317 56.9543 58.5827 56.9981 58.3001 56.9981C58.004 56.9981 57.7449 56.9139 57.5229 56.7457C57.3008 56.5775 57.1898 56.3251 57.1898 55.9887V52.2236H56.463V51.6785H57.1898V49.902H57.8761V51.6785H59.0874V52.2236H57.8761V55.7969C57.8896 55.992 57.9569 56.1367 58.078 56.2309C58.2059 56.3184 58.3506 56.3621 58.5121 56.3621C58.7005 56.3621 58.8687 56.3319 59.0168 56.2713C59.1715 56.204 59.2691 56.1569 59.3095 56.13L59.4912 56.6851ZM62.5312 57.0384C62.0265 57.0384 61.5757 56.9139 61.1786 56.665C60.7816 56.416 60.4687 56.0829 60.2399 55.6657C60.0111 55.2484 59.8967 54.7908 59.8967 54.2929C59.8967 53.8016 60.0077 53.3507 60.2298 52.9403C60.4586 52.5298 60.7715 52.2034 61.1685 51.9611C61.5656 51.7122 62.0164 51.5877 62.5211 51.5877C63.0393 51.5877 63.4935 51.7122 63.8838 51.9611C64.2741 52.2101 64.577 52.5399 64.7923 52.9504C65.0144 53.3541 65.1254 53.7983 65.1254 54.2828C65.1254 54.3904 65.122 54.4813 65.1153 54.5553H60.6134C60.647 54.9322 60.7547 55.2686 60.9364 55.5647C61.1181 55.8541 61.3502 56.0862 61.6329 56.2612C61.9155 56.4294 62.2251 56.5136 62.5615 56.5136C62.9047 56.5136 63.2277 56.4261 63.5305 56.2511C63.8334 56.0761 64.0487 55.8473 64.1766 55.5647L64.7721 55.7262C64.6644 55.9819 64.4962 56.2107 64.2674 56.4126C64.0453 56.6078 63.7863 56.7625 63.4902 56.8769C63.1941 56.9846 62.8744 57.0384 62.5312 57.0384ZM60.5932 54.0607H64.4794C64.4525 53.6839 64.3482 53.3507 64.1665 53.0614C63.9848 52.7653 63.7526 52.5365 63.47 52.375C63.1874 52.2068 62.8744 52.1226 62.5312 52.1226C62.188 52.1226 61.8751 52.2068 61.5925 52.375C61.3099 52.5365 61.0777 52.7653 60.896 53.0614C60.721 53.3507 60.6201 53.6839 60.5932 54.0607ZM68.8089 52.2841C68.3513 52.2976 67.9475 52.4255 67.5976 52.6677C67.2544 52.91 67.0121 53.2431 66.8708 53.667V56.9375H66.1844V51.6785H66.8304V52.9403C67.0121 52.5701 67.251 52.2707 67.5471 52.0419C67.8499 51.8131 68.1696 51.6852 68.506 51.6583C68.5733 51.6516 68.6305 51.6482 68.6776 51.6482C68.7247 51.6482 68.7685 51.6516 68.8089 51.6583V52.2841ZM71.4493 57.0384C71.0186 57.0384 70.6182 56.9678 70.2481 56.8265C69.8847 56.6784 69.5651 56.4631 69.2892 56.1804L69.5718 55.6959C69.8679 55.9718 70.164 56.1737 70.4601 56.3016C70.7629 56.4227 71.0826 56.4833 71.419 56.4833C71.8228 56.4833 72.1525 56.4025 72.4083 56.241C72.6707 56.0728 72.8019 55.8339 72.8019 55.5243C72.8019 55.3157 72.738 55.1576 72.6101 55.0499C72.489 54.9355 72.3107 54.8447 72.0752 54.7774C71.8464 54.7101 71.5705 54.6327 71.2474 54.5452C70.8841 54.4443 70.5779 54.34 70.3289 54.2323C70.0866 54.1179 69.9016 53.9766 69.7737 53.8083C69.6526 53.6334 69.592 53.4079 69.592 53.132C69.592 52.7956 69.6761 52.5129 69.8444 52.2841C70.0193 52.0553 70.2549 51.8837 70.551 51.7693C70.8538 51.6482 71.1902 51.5877 71.5604 51.5877C71.9641 51.5877 72.3208 51.6516 72.6303 51.7794C72.9399 51.9073 73.1922 52.0856 73.3874 52.3144L73.0543 52.7788C72.8726 52.5634 72.6472 52.4053 72.378 52.3043C72.1155 52.1967 71.8295 52.1428 71.52 52.1428C71.3046 52.1428 71.0994 52.1731 70.9042 52.2337C70.7091 52.2875 70.5476 52.3817 70.4197 52.5163C70.2986 52.6442 70.238 52.8225 70.238 53.0513C70.238 53.3339 70.3423 53.5291 70.551 53.6367C70.7596 53.7444 71.0758 53.8588 71.4998 53.9799C71.8968 54.0876 72.2434 54.1953 72.5395 54.303C72.8356 54.4106 73.0644 54.5553 73.2259 54.737C73.3874 54.912 73.4681 55.1576 73.4681 55.4739C73.4681 55.9651 73.2831 56.3487 72.913 56.6246C72.5428 56.9005 72.055 57.0384 71.4493 57.0384Z" fill="black"/>
<path d="M136.31 51.1132C136.108 50.8912 135.839 50.7095 135.502 50.5682C135.166 50.4201 134.782 50.3461 134.351 50.3461C133.719 50.3461 133.258 50.4672 132.969 50.7095C132.679 50.945 132.535 51.268 132.535 51.6785C132.535 51.9611 132.605 52.1832 132.746 52.3447C132.888 52.5062 133.103 52.6408 133.392 52.7485C133.689 52.8494 134.065 52.9504 134.523 53.0513C135.034 53.159 135.475 53.2868 135.845 53.4349C136.215 53.5829 136.501 53.7848 136.703 54.0405C136.905 54.2895 137.006 54.6293 137.006 55.06C137.006 55.4974 136.895 55.8608 136.673 56.1502C136.451 56.4395 136.145 56.6549 135.755 56.7962C135.364 56.9308 134.92 56.9981 134.422 56.9981C133.305 56.9981 132.346 56.6515 131.545 55.9584L131.899 55.383C132.154 55.6522 132.504 55.8844 132.948 56.0795C133.399 56.2747 133.897 56.3722 134.442 56.3722C135.008 56.3722 135.452 56.2679 135.775 56.0593C136.098 55.8507 136.259 55.5412 136.259 55.1307C136.259 54.8346 136.178 54.599 136.017 54.4241C135.855 54.2424 135.613 54.0943 135.29 53.9799C134.967 53.8655 134.57 53.7545 134.099 53.6468C133.601 53.5324 133.181 53.4046 132.837 53.2633C132.501 53.122 132.245 52.9369 132.07 52.7081C131.895 52.4793 131.808 52.1697 131.808 51.7794C131.808 51.3353 131.915 50.9618 132.131 50.659C132.353 50.3495 132.656 50.1173 133.039 49.9625C133.423 49.801 133.864 49.7203 134.362 49.7203C134.833 49.7203 135.257 49.7943 135.633 49.9423C136.01 50.0836 136.35 50.2855 136.653 50.548L136.31 51.1132ZM140.352 57.0384C139.847 57.0384 139.396 56.9139 138.999 56.665C138.609 56.416 138.302 56.0862 138.08 55.6757C137.858 55.2585 137.747 54.8077 137.747 54.3231C137.747 53.8319 137.858 53.381 138.08 52.9705C138.309 52.5533 138.619 52.2202 139.009 51.9712C139.406 51.7155 139.854 51.5877 140.352 51.5877C140.856 51.5877 141.304 51.7155 141.694 51.9712C142.091 52.2202 142.401 52.5533 142.623 52.9705C142.852 53.381 142.966 53.8319 142.966 54.3231C142.966 54.8077 142.855 55.2585 142.633 55.6757C142.411 56.0862 142.101 56.416 141.704 56.665C141.314 56.9139 140.863 57.0384 140.352 57.0384ZM138.444 54.3332C138.444 54.7235 138.528 55.0802 138.696 55.4032C138.871 55.7195 139.103 55.9718 139.393 56.1603C139.682 56.342 140.002 56.4328 140.352 56.4328C140.701 56.4328 141.021 56.3386 141.31 56.1502C141.6 55.9617 141.832 55.706 142.007 55.383C142.182 55.06 142.269 54.7034 142.269 54.313C142.269 53.9227 142.182 53.5661 142.007 53.2431C141.832 52.9201 141.6 52.6644 141.31 52.4759C141.021 52.2875 140.701 52.1933 140.352 52.1933C140.008 52.1933 139.692 52.2909 139.403 52.486C139.113 52.6744 138.881 52.9302 138.706 53.2532C138.531 53.5762 138.444 53.9362 138.444 54.3332ZM146.738 52.2841C146.281 52.2976 145.877 52.4255 145.527 52.6677C145.184 52.91 144.942 53.2431 144.8 53.667V56.9375H144.114V51.6785H144.76V52.9403C144.942 52.5701 145.18 52.2707 145.477 52.0419C145.779 51.8131 146.099 51.6852 146.435 51.6583C146.503 51.6516 146.56 51.6482 146.607 51.6482C146.654 51.6482 146.698 51.6516 146.738 51.6583V52.2841ZM150.176 56.6851C150.095 56.7188 149.947 56.7794 149.732 56.8668C149.517 56.9543 149.268 56.9981 148.985 56.9981C148.689 56.9981 148.43 56.9139 148.208 56.7457C147.986 56.5775 147.875 56.3251 147.875 55.9887V52.2236H147.148V51.6785H147.875V49.902H148.561V51.6785H149.772V52.2236H148.561V55.7969C148.575 55.992 148.642 56.1367 148.763 56.2309C148.891 56.3184 149.036 56.3621 149.197 56.3621C149.386 56.3621 149.554 56.3319 149.702 56.2713C149.857 56.204 149.954 56.1569 149.995 56.13L150.176 56.6851ZM156.181 57.0384C155.77 57.0384 155.39 56.9341 155.04 56.7255C154.69 56.5102 154.417 56.241 154.222 55.918V56.9375H153.607V49.5688H154.293V52.7788C154.529 52.4221 154.811 52.1361 155.141 51.9208C155.471 51.6987 155.854 51.5877 156.292 51.5877C156.662 51.5877 156.991 51.665 157.281 51.8198C157.577 51.9746 157.829 52.1832 158.038 52.4457C158.246 52.7014 158.405 52.9941 158.512 53.3238C158.62 53.6468 158.674 53.9799 158.674 54.3231C158.674 54.8144 158.563 55.2653 158.341 55.6757C158.125 56.0862 157.829 56.416 157.452 56.665C157.076 56.9139 156.652 57.0384 156.181 57.0384ZM156.019 56.4328C156.403 56.4328 156.739 56.3319 157.028 56.13C157.325 55.9281 157.557 55.669 157.725 55.3527C157.893 55.0297 157.977 54.6865 157.977 54.3231C157.977 53.953 157.897 53.6065 157.735 53.2835C157.58 52.9604 157.362 52.698 157.079 52.4961C156.796 52.2942 156.47 52.1933 156.1 52.1933C155.689 52.1933 155.326 52.3245 155.01 52.587C154.7 52.8494 154.461 53.1556 154.293 53.5055V55.1408C154.327 55.383 154.438 55.6017 154.626 55.7969C154.815 55.992 155.037 56.1468 155.292 56.2612C155.548 56.3756 155.79 56.4328 156.019 56.4328ZM159.962 58.5525C160.056 58.5593 160.147 58.5626 160.234 58.5626C160.322 58.5694 160.386 58.566 160.426 58.5525C160.507 58.5458 160.581 58.4987 160.648 58.4112C160.722 58.3305 160.81 58.1757 160.911 57.9469C161.018 57.7248 161.163 57.3884 161.345 56.9375L159.053 51.6785H159.78L161.708 56.2309L163.485 51.6785H164.171L161.446 58.4617C161.372 58.6569 161.247 58.8251 161.072 58.9664C160.897 59.1077 160.665 59.1817 160.376 59.1885C160.315 59.1952 160.251 59.1952 160.184 59.1885C160.117 59.1885 160.043 59.1817 159.962 59.1683V58.5525Z" fill="black"/>
<path d="M46.6738 97.8693C46.1892 97.8693 45.7417 97.7684 45.3312 97.5665C44.9275 97.3579 44.5742 97.0786 44.2714 96.7287C43.9686 96.3788 43.733 95.9885 43.5648 95.5578C43.4033 95.1204 43.3225 94.6762 43.3225 94.2254C43.3225 93.7476 43.4033 93.2934 43.5648 92.8627C43.733 92.4253 43.9652 92.0383 44.2613 91.7019C44.5574 91.3587 44.9073 91.0895 45.3111 90.8943C45.7148 90.6992 46.1556 90.6016 46.6334 90.6016C47.34 90.6016 47.9153 90.7463 48.3595 91.0357C48.8036 91.325 49.1401 91.7019 49.3689 92.1662L48.8238 92.5296C48.595 92.0854 48.2888 91.7591 47.9052 91.5504C47.5217 91.3418 47.0943 91.2375 46.6233 91.2375C46.2263 91.2375 45.8662 91.3216 45.5432 91.4899C45.2269 91.6581 44.9544 91.8836 44.7256 92.1662C44.5035 92.4488 44.3319 92.7685 44.2108 93.1251C44.0897 93.4818 44.0291 93.8519 44.0291 94.2355C44.0291 94.6392 44.0964 95.0228 44.231 95.3862C44.3656 95.7428 44.554 96.0625 44.7963 96.3451C45.0452 96.621 45.3312 96.8397 45.6543 97.0012C45.984 97.156 46.3407 97.2334 46.7242 97.2334C47.1347 97.2334 47.525 97.1358 47.8951 96.9407C48.272 96.7455 48.632 96.4427 48.9752 96.0322V94.8411H47.3803V94.296H49.5707V97.8188H48.9752V96.7691C48.3157 97.5026 47.5486 97.8693 46.6738 97.8693ZM53.5056 93.1655C53.048 93.179 52.6442 93.3068 52.2943 93.5491C51.9511 93.7913 51.7089 94.1244 51.5676 94.5484V97.8188H50.8812V92.5599H51.5272V93.8216C51.7089 93.4515 51.9478 93.152 52.2439 92.9232C52.5467 92.6944 52.8663 92.5666 53.2028 92.5397C53.2701 92.5329 53.3273 92.5296 53.3744 92.5296C53.4215 92.5296 53.4652 92.5329 53.5056 92.5397V93.1655ZM53.9763 96.3047C53.9763 95.9817 54.0705 95.7025 54.259 95.4669C54.4474 95.2247 54.7065 95.0363 55.0362 94.9017C55.3727 94.7671 55.7596 94.6998 56.197 94.6998C56.4527 94.6998 56.7185 94.7233 56.9944 94.7704C57.2703 94.8108 57.516 94.868 57.7313 94.942V94.4979C57.7313 94.0538 57.6001 93.7005 57.3376 93.438C57.0752 93.1756 56.7118 93.0444 56.2475 93.0444C55.9716 93.0444 55.6957 93.0982 55.4198 93.2059C55.1439 93.3068 54.8579 93.4582 54.5618 93.6601L54.2993 93.1756C54.6425 92.9401 54.979 92.7651 55.3087 92.6507C55.6385 92.5296 55.9749 92.469 56.3181 92.469C56.9642 92.469 57.4756 92.6541 57.8524 93.0242C58.2293 93.3943 58.4177 93.9057 58.4177 94.5585V96.9911C58.4177 97.1728 58.5018 97.267 58.6701 97.2738V97.8188C58.522 97.839 58.4177 97.8458 58.3571 97.839C58.1889 97.8323 58.061 97.7785 57.9736 97.6775C57.8861 97.5766 57.839 97.4689 57.8322 97.3545L57.8222 96.9709C57.5866 97.2738 57.2804 97.5093 56.9036 97.6775C56.5267 97.839 56.1432 97.9198 55.7529 97.9198C55.4097 97.9198 55.1035 97.8491 54.8343 97.7078C54.5651 97.5598 54.3532 97.3646 54.1984 97.1224C54.0503 96.8734 53.9763 96.6008 53.9763 96.3047ZM57.4991 96.7085C57.6539 96.5268 57.7313 96.3586 57.7313 96.2038V95.4367C57.267 95.255 56.7825 95.1641 56.2778 95.1641C55.7865 95.1641 55.3895 95.2617 55.0867 95.4568C54.7838 95.652 54.6324 95.9178 54.6324 96.2543C54.6324 96.5436 54.7435 96.8061 54.9655 97.0416C55.1943 97.2771 55.5106 97.3949 55.9144 97.3949C56.2441 97.3949 56.5503 97.331 56.8329 97.2031C57.1223 97.0753 57.3444 96.9104 57.4991 96.7085ZM59.5474 95.2045C59.5474 94.7065 59.6484 94.2523 59.8503 93.8418C60.0589 93.4246 60.3449 93.0915 60.7083 92.8425C61.0716 92.5935 61.4855 92.469 61.9498 92.469C62.3872 92.469 62.7775 92.5868 63.1207 92.8223C63.4707 93.0511 63.7432 93.3304 63.9384 93.6601V90.4502H64.6247V96.9911C64.6247 97.1728 64.7055 97.267 64.867 97.2738V97.8188C64.7324 97.839 64.6281 97.8458 64.5541 97.839C64.406 97.8323 64.2782 97.7785 64.1705 97.6775C64.0696 97.5699 64.0191 97.4487 64.0191 97.3141V96.7993C63.8105 97.1425 63.5279 97.4151 63.1712 97.617C62.8145 97.8188 62.4444 97.9198 62.0609 97.9198C61.6975 97.9198 61.361 97.8458 61.0515 97.6977C60.7419 97.5497 60.4727 97.3478 60.2439 97.0921C60.0219 96.8364 59.8503 96.547 59.7291 96.224C59.608 95.8943 59.5474 95.5544 59.5474 95.2045ZM63.9384 96.012V94.3869C63.8509 94.1446 63.7096 93.9259 63.5144 93.7308C63.3193 93.5289 63.0972 93.3707 62.8482 93.2563C62.6059 93.1352 62.3637 93.0746 62.1214 93.0746C61.7446 93.0746 61.4148 93.179 61.1322 93.3876C60.8563 93.5894 60.641 93.8553 60.4862 94.185C60.3314 94.508 60.254 94.8478 60.254 95.2045C60.254 95.5813 60.3381 95.9313 60.5064 96.2543C60.6813 96.5773 60.9169 96.8364 61.213 97.0315C61.5091 97.2199 61.8422 97.3141 62.2123 97.3141C62.4411 97.3141 62.68 97.2569 62.9289 97.1425C63.1847 97.0214 63.4067 96.8633 63.5952 96.6681C63.7903 96.473 63.9047 96.2543 63.9384 96.012ZM68.4511 97.9198C67.9464 97.9198 67.4955 97.7953 67.0985 97.5463C66.7015 97.2973 66.3886 96.9642 66.1598 96.547C65.931 96.1298 65.8166 95.6722 65.8166 95.1742C65.8166 94.683 65.9276 94.2321 66.1497 93.8216C66.3785 93.4111 66.6914 93.0847 67.0884 92.8425C67.4854 92.5935 67.9363 92.469 68.441 92.469C68.9592 92.469 69.4134 92.5935 69.8037 92.8425C70.194 93.0915 70.4968 93.4212 70.7122 93.8317C70.9342 94.2355 71.0453 94.6796 71.0453 95.1641C71.0453 95.2718 71.0419 95.3626 71.0352 95.4367H66.5332C66.5669 95.8135 66.6745 96.15 66.8562 96.4461C67.0379 96.7354 67.2701 96.9676 67.5527 97.1425C67.8354 97.3108 68.1449 97.3949 68.4814 97.3949C68.8246 97.3949 69.1476 97.3074 69.4504 97.1325C69.7532 96.9575 69.9686 96.7287 70.0964 96.4461L70.692 96.6076C70.5843 96.8633 70.4161 97.0921 70.1873 97.294C69.9652 97.4891 69.7061 97.6439 69.41 97.7583C69.1139 97.866 68.7943 97.9198 68.4511 97.9198ZM66.513 94.942H70.3993C70.3723 94.5652 70.268 94.2321 70.0863 93.9427C69.9046 93.6466 69.6725 93.4178 69.3898 93.2563C69.1072 93.0881 68.7943 93.004 68.4511 93.004C68.1079 93.004 67.795 93.0881 67.5124 93.2563C67.2297 93.4178 66.9976 93.6466 66.8159 93.9427C66.6409 94.2321 66.54 94.5652 66.513 94.942Z" fill="black"/>
<path d="M161.747 97.8693C161.263 97.8693 160.815 97.7684 160.405 97.5665C160.001 97.3579 159.648 97.0786 159.345 96.7287C159.042 96.3788 158.807 95.9885 158.638 95.5578C158.477 95.1204 158.396 94.6762 158.396 94.2254C158.396 93.7476 158.477 93.2934 158.638 92.8627C158.807 92.4253 159.039 92.0383 159.335 91.7019C159.631 91.3587 159.981 91.0895 160.385 90.8943C160.789 90.6992 161.229 90.6016 161.707 90.6016C162.414 90.6016 162.989 90.7463 163.433 91.0357C163.877 91.325 164.214 91.7019 164.443 92.1662L163.897 92.5296C163.669 92.0854 163.362 91.7591 162.979 91.5504C162.595 91.3418 162.168 91.2375 161.697 91.2375C161.3 91.2375 160.94 91.3216 160.617 91.4899C160.301 91.6581 160.028 91.8836 159.799 92.1662C159.577 92.4488 159.406 92.7685 159.285 93.1251C159.163 93.4818 159.103 93.8519 159.103 94.2355C159.103 94.6392 159.17 95.0228 159.305 95.3862C159.439 95.7428 159.628 96.0625 159.87 96.3451C160.119 96.621 160.405 96.8397 160.728 97.0012C161.058 97.156 161.414 97.2334 161.798 97.2334C162.208 97.2334 162.599 97.1358 162.969 96.9407C163.346 96.7455 163.706 96.4427 164.049 96.0322V94.8411H162.454V94.296H164.644V97.8188H164.049V96.7691C163.389 97.5026 162.622 97.8693 161.747 97.8693ZM168.579 93.1655C168.122 93.179 167.718 93.3068 167.368 93.5491C167.025 93.7913 166.783 94.1244 166.641 94.5484V97.8188H165.955V92.5599H166.601V93.8216C166.783 93.4515 167.021 93.152 167.318 92.9232C167.62 92.6944 167.94 92.5666 168.276 92.5397C168.344 92.5329 168.401 92.5296 168.448 92.5296C168.495 92.5296 168.539 92.5329 168.579 92.5397V93.1655ZM169.05 96.3047C169.05 95.9817 169.144 95.7025 169.333 95.4669C169.521 95.2247 169.78 95.0363 170.11 94.9017C170.446 94.7671 170.833 94.6998 171.271 94.6998C171.526 94.6998 171.792 94.7233 172.068 94.7704C172.344 94.8108 172.59 94.868 172.805 94.942V94.4979C172.805 94.0538 172.674 93.7005 172.411 93.438C172.149 93.1756 171.785 93.0444 171.321 93.0444C171.045 93.0444 170.769 93.0982 170.493 93.2059C170.218 93.3068 169.932 93.4582 169.635 93.6601L169.373 93.1756C169.716 92.9401 170.053 92.7651 170.382 92.6507C170.712 92.5296 171.049 92.469 171.392 92.469C172.038 92.469 172.549 92.6541 172.926 93.0242C173.303 93.3943 173.491 93.9057 173.491 94.5585V96.9911C173.491 97.1728 173.576 97.267 173.744 97.2738V97.8188C173.596 97.839 173.491 97.8458 173.431 97.839C173.263 97.8323 173.135 97.7785 173.047 97.6775C172.96 97.5766 172.913 97.4689 172.906 97.3545L172.896 96.9709C172.66 97.2738 172.354 97.5093 171.977 97.6775C171.6 97.839 171.217 97.9198 170.827 97.9198C170.483 97.9198 170.177 97.8491 169.908 97.7078C169.639 97.5598 169.427 97.3646 169.272 97.1224C169.124 96.8734 169.05 96.6008 169.05 96.3047ZM172.573 96.7085C172.728 96.5268 172.805 96.3586 172.805 96.2038V95.4367C172.341 95.255 171.856 95.1641 171.351 95.1641C170.86 95.1641 170.463 95.2617 170.16 95.4568C169.858 95.652 169.706 95.9178 169.706 96.2543C169.706 96.5436 169.817 96.8061 170.039 97.0416C170.268 97.2771 170.584 97.3949 170.988 97.3949C171.318 97.3949 171.624 97.331 171.907 97.2031C172.196 97.0753 172.418 96.9104 172.573 96.7085ZM174.621 95.2045C174.621 94.7065 174.722 94.2523 174.924 93.8418C175.133 93.4246 175.419 93.0915 175.782 92.8425C176.145 92.5935 176.559 92.469 177.024 92.469C177.461 92.469 177.851 92.5868 178.194 92.8223C178.544 93.0511 178.817 93.3304 179.012 93.6601V90.4502H179.698V96.9911C179.698 97.1728 179.779 97.267 179.941 97.2738V97.8188C179.806 97.839 179.702 97.8458 179.628 97.839C179.48 97.8323 179.352 97.7785 179.244 97.6775C179.143 97.5699 179.093 97.4487 179.093 97.3141V96.7993C178.884 97.1425 178.602 97.4151 178.245 97.617C177.888 97.8188 177.518 97.9198 177.135 97.9198C176.771 97.9198 176.435 97.8458 176.125 97.6977C175.816 97.5497 175.546 97.3478 175.318 97.0921C175.096 96.8364 174.924 96.547 174.803 96.224C174.682 95.8943 174.621 95.5544 174.621 95.2045ZM179.012 96.012V94.3869C178.925 94.1446 178.783 93.9259 178.588 93.7308C178.393 93.5289 178.171 93.3707 177.922 93.2563C177.68 93.1352 177.437 93.0746 177.195 93.0746C176.818 93.0746 176.489 93.179 176.206 93.3876C175.93 93.5894 175.715 93.8553 175.56 94.185C175.405 94.508 175.328 94.8478 175.328 95.2045C175.328 95.5813 175.412 95.9313 175.58 96.2543C175.755 96.5773 175.991 96.8364 176.287 97.0315C176.583 97.2199 176.916 97.3141 177.286 97.3141C177.515 97.3141 177.754 97.2569 178.003 97.1425C178.258 97.0214 178.48 96.8633 178.669 96.6681C178.864 96.473 178.978 96.2543 179.012 96.012ZM183.525 97.9198C183.02 97.9198 182.569 97.7953 182.172 97.5463C181.775 97.2973 181.462 96.9642 181.233 96.547C181.005 96.1298 180.89 95.6722 180.89 95.1742C180.89 94.683 181.001 94.2321 181.223 93.8216C181.452 93.4111 181.765 93.0847 182.162 92.8425C182.559 92.5935 183.01 92.469 183.515 92.469C184.033 92.469 184.487 92.5935 184.877 92.8425C185.268 93.0915 185.571 93.4212 185.786 93.8317C186.008 94.2355 186.119 94.6796 186.119 95.1641C186.119 95.2718 186.116 95.3626 186.109 95.4367H181.607C181.641 95.8135 181.748 96.15 181.93 96.4461C182.112 96.7354 182.344 96.9676 182.626 97.1425C182.909 97.3108 183.219 97.3949 183.555 97.3949C183.898 97.3949 184.221 97.3074 184.524 97.1325C184.827 96.9575 185.042 96.7287 185.17 96.4461L185.766 96.6076C185.658 96.8633 185.49 97.0921 185.261 97.294C185.039 97.4891 184.78 97.6439 184.484 97.7583C184.188 97.866 183.868 97.9198 183.525 97.9198ZM181.587 94.942H185.473C185.446 94.5652 185.342 94.2321 185.16 93.9427C184.978 93.6466 184.746 93.4178 184.464 93.2563C184.181 93.0881 183.868 93.004 183.525 93.004C183.182 93.004 182.869 93.0881 182.586 93.2563C182.303 93.4178 182.071 93.6466 181.89 93.9427C181.715 94.2321 181.614 94.5652 181.587 94.942ZM189.438 94.3263C189.438 93.6399 189.576 92.9737 189.852 92.3277C190.128 91.6749 190.461 91.0188 190.851 90.3593L191.376 90.6117C191.241 90.8136 191.097 91.0626 190.942 91.3587C190.794 91.6548 190.653 91.9744 190.518 92.3176C190.39 92.6541 190.286 92.9973 190.205 93.3472C190.124 93.6971 190.084 94.0336 190.084 94.3566C190.084 94.8815 190.198 95.4568 190.427 96.0827C190.656 96.7018 190.969 97.3141 191.366 97.9198L190.851 98.1923C190.427 97.5598 190.084 96.9171 189.821 96.2644C189.566 95.6116 189.438 94.9656 189.438 94.3263ZM192.603 97.8188V90.6521H193.309V97.193H197.448V97.8188H192.603ZM200.479 97.9198C199.974 97.9198 199.523 97.7953 199.126 97.5463C198.736 97.2973 198.43 96.9676 198.208 96.5571C197.986 96.1399 197.875 95.689 197.875 95.2045C197.875 94.7132 197.986 94.2624 198.208 93.8519C198.437 93.4347 198.746 93.1016 199.136 92.8526C199.533 92.5969 199.981 92.469 200.479 92.469C200.984 92.469 201.431 92.5969 201.821 92.8526C202.218 93.1016 202.528 93.4347 202.75 93.8519C202.979 94.2624 203.093 94.7132 203.093 95.2045C203.093 95.689 202.982 96.1399 202.76 96.5571C202.538 96.9676 202.229 97.2973 201.832 97.5463C201.441 97.7953 200.99 97.9198 200.479 97.9198ZM198.571 95.2146C198.571 95.6049 198.655 95.9615 198.823 96.2846C198.998 96.6008 199.231 96.8532 199.52 97.0416C199.809 97.2233 200.129 97.3141 200.479 97.3141C200.829 97.3141 201.148 97.2199 201.438 97.0315C201.727 96.8431 201.959 96.5874 202.134 96.2644C202.309 95.9414 202.397 95.5847 202.397 95.1944C202.397 94.8041 202.309 94.4474 202.134 94.1244C201.959 93.8014 201.727 93.5457 201.438 93.3573C201.148 93.1689 200.829 93.0746 200.479 93.0746C200.136 93.0746 199.819 93.1722 199.53 93.3674C199.241 93.5558 199.009 93.8115 198.834 94.1345C198.659 94.4575 198.571 94.8176 198.571 95.2146ZM210.685 92.5599H211.362L209.101 97.8188H208.505L207.405 95.2045L206.315 97.8188H205.719L203.458 92.5599H204.124L206.042 97.1123L207.011 94.7402L206.123 92.5699H206.739L207.405 94.2758L208.081 92.5699H208.687L207.809 94.7402L208.778 97.1123L210.685 92.5599ZM214.461 95.3862V94.7503H217.409V95.3862H214.461ZM227.187 90.6521V97.8188H226.491V94.4676H222.241V97.8188H221.535V90.6521H222.241V93.8418H226.491V90.6521H227.187ZM228.845 91.4596V90.4502H229.532V91.4596H228.845ZM228.845 97.8188V92.5599H229.532V97.8188H228.845ZM233.153 97.8895C232.79 97.8895 232.457 97.8155 232.154 97.6674C231.858 97.5194 231.599 97.3209 231.377 97.0719C231.161 96.8162 230.993 96.5268 230.872 96.2038C230.751 95.8808 230.69 95.5477 230.69 95.2045C230.69 94.7132 230.795 94.2624 231.003 93.8519C231.212 93.4347 231.498 93.1016 231.861 92.8526C232.231 92.5969 232.655 92.469 233.133 92.469C233.584 92.469 233.974 92.5834 234.304 92.8122C234.641 93.041 234.923 93.3236 235.152 93.6601V92.5599H235.768V97.839C235.768 98.3303 235.65 98.7408 235.414 99.0705C235.179 99.4002 234.866 99.6492 234.476 99.8175C234.085 99.9857 233.658 100.07 233.194 100.07C232.588 100.07 232.1 99.9621 231.73 99.7468C231.367 99.5315 231.067 99.2421 230.832 98.8787L231.256 98.5456C231.464 98.8754 231.74 99.121 232.083 99.2825C232.433 99.444 232.803 99.5247 233.194 99.5247C233.537 99.5247 233.85 99.4608 234.132 99.333C234.422 99.2118 234.651 99.0268 234.819 98.7778C234.994 98.5288 235.081 98.2159 235.081 97.839V96.7993C234.879 97.1291 234.604 97.3949 234.254 97.5968C233.904 97.7919 233.537 97.8895 233.153 97.8895ZM233.345 97.3141C233.621 97.3141 233.883 97.2502 234.132 97.1224C234.381 96.9945 234.59 96.833 234.758 96.6378C234.933 96.436 235.041 96.2274 235.081 96.012V94.3869C234.98 94.1312 234.836 93.9057 234.647 93.7106C234.459 93.5087 234.243 93.3539 234.001 93.2462C233.759 93.1318 233.513 93.0746 233.264 93.0746C232.874 93.0746 232.538 93.1823 232.255 93.3977C231.979 93.6063 231.764 93.8754 231.609 94.2052C231.461 94.5282 231.387 94.8647 231.387 95.2146C231.387 95.5914 231.474 95.9414 231.649 96.2644C231.824 96.5806 232.06 96.8364 232.356 97.0315C232.652 97.2199 232.982 97.3141 233.345 97.3141ZM241.705 97.8188H241.018V94.8815C241.018 93.6904 240.614 93.0948 239.807 93.0948C239.545 93.0948 239.289 93.1621 239.04 93.2967C238.791 93.4246 238.569 93.6029 238.374 93.8317C238.185 94.0538 238.051 94.3095 237.97 94.5988V97.8188H237.283V90.4502H237.97V93.7509C238.178 93.3606 238.468 93.0511 238.838 92.8223C239.215 92.5868 239.615 92.469 240.039 92.469C240.443 92.469 240.766 92.5666 241.008 92.7617C241.25 92.9502 241.425 93.216 241.533 93.5592C241.647 93.8956 241.705 94.2893 241.705 94.7402V97.8188ZM244.672 94.3263C244.672 94.9656 244.545 95.6116 244.289 96.2644C244.033 96.9171 243.69 97.5598 243.259 98.1923L242.755 97.9198C243.152 97.3141 243.464 96.7018 243.693 96.0827C243.922 95.4568 244.036 94.8815 244.036 94.3566C244.036 94.0336 243.993 93.6971 243.905 93.3472C243.824 92.9973 243.72 92.6541 243.592 92.3176C243.464 91.9744 243.323 91.6548 243.168 91.3587C243.02 91.0626 242.876 90.8136 242.734 90.6117L243.269 90.3593C243.66 91.0188 243.989 91.6749 244.259 92.3277C244.534 92.9737 244.672 93.6399 244.672 94.3263Z" fill="black"/>
<path d="M43.797 118.512V111.345H46.2296C46.99 111.345 47.6226 111.506 48.1273 111.829C48.6387 112.146 49.0223 112.576 49.278 113.121C49.5337 113.66 49.6616 114.259 49.6616 114.918C49.6616 115.645 49.5203 116.278 49.2376 116.816C48.955 117.354 48.558 117.771 48.0465 118.068C47.5351 118.364 46.9295 118.512 46.2296 118.512H43.797ZM48.955 114.918C48.955 114.346 48.8473 113.838 48.632 113.394C48.4234 112.95 48.1138 112.603 47.7033 112.354C47.2996 112.099 46.8083 111.971 46.2296 111.971H44.5035V117.886H46.2296C46.8218 117.886 47.3198 117.755 47.7235 117.492C48.1273 117.23 48.4335 116.876 48.6421 116.432C48.8507 115.988 48.955 115.484 48.955 114.918ZM50.8713 112.152V111.143H51.5577V112.152H50.8713ZM50.8713 118.512V113.253H51.5577V118.512H50.8713ZM54.7956 118.613C54.3649 118.613 53.9645 118.542 53.5944 118.401C53.231 118.253 52.9114 118.037 52.6355 117.755L52.9181 117.27C53.2142 117.546 53.5103 117.748 53.8064 117.876C54.1092 117.997 54.4288 118.057 54.7653 118.057C55.1691 118.057 55.4988 117.977 55.7545 117.815C56.017 117.647 56.1482 117.408 56.1482 117.099C56.1482 116.89 56.0843 116.732 55.9564 116.624C55.8353 116.51 55.657 116.419 55.4214 116.352C55.1926 116.284 54.9167 116.207 54.5937 116.119C54.2303 116.018 53.9241 115.914 53.6752 115.807C53.4329 115.692 53.2478 115.551 53.12 115.383C52.9989 115.208 52.9383 114.982 52.9383 114.706C52.9383 114.37 53.0224 114.087 53.1906 113.858C53.3656 113.63 53.6011 113.458 53.8972 113.344C54.2 113.222 54.5365 113.162 54.9066 113.162C55.3104 113.162 55.667 113.226 55.9766 113.354C56.2861 113.482 56.5385 113.66 56.7337 113.889L56.4005 114.353C56.2189 114.138 55.9934 113.979 55.7242 113.879C55.4618 113.771 55.1758 113.717 54.8663 113.717C54.6509 113.717 54.4457 113.747 54.2505 113.808C54.0554 113.862 53.8939 113.956 53.766 114.091C53.6449 114.218 53.5843 114.397 53.5843 114.626C53.5843 114.908 53.6886 115.103 53.8972 115.211C54.1058 115.319 54.4221 115.433 54.8461 115.554C55.2431 115.662 55.5897 115.77 55.8858 115.877C56.1818 115.985 56.4106 116.13 56.5721 116.311C56.7337 116.486 56.8144 116.732 56.8144 117.048C56.8144 117.539 56.6293 117.923 56.2592 118.199C55.8891 118.475 55.4012 118.613 54.7956 118.613ZM60.4725 118.259C60.3917 118.293 60.2437 118.354 60.0283 118.441C59.813 118.529 59.564 118.572 59.2814 118.572C58.9853 118.572 58.7262 118.488 58.5041 118.32C58.2821 118.152 58.171 117.899 58.171 117.563V113.798H57.4443V113.253H58.171V111.476H58.8574V113.253H60.0687V113.798H58.8574V117.371C58.8709 117.566 58.9382 117.711 59.0593 117.805C59.1872 117.893 59.3318 117.936 59.4933 117.936C59.6818 117.936 59.85 117.906 59.998 117.846C60.1528 117.778 60.2504 117.731 60.2908 117.704L60.4725 118.259ZM63.9545 113.858C63.4969 113.872 63.0932 114 62.7432 114.242C62.4 114.484 62.1578 114.817 62.0165 115.241V118.512H61.3301V113.253H61.9761V114.514C62.1578 114.144 62.3967 113.845 62.6928 113.616C62.9956 113.387 63.3152 113.259 63.6517 113.233C63.719 113.226 63.7762 113.222 63.8233 113.222C63.8704 113.222 63.9141 113.226 63.9545 113.233V113.858ZM64.8689 112.152V111.143H65.5553V112.152H64.8689ZM64.8689 118.512V113.253H65.5553V118.512H64.8689ZM69.3484 118.613C68.8369 118.613 68.3827 118.488 67.9857 118.239C67.5886 117.983 67.2757 117.65 67.0469 117.24C66.8181 116.823 66.7037 116.365 66.7037 115.867C66.7037 115.369 66.8148 114.918 67.0368 114.514C67.2589 114.104 67.5684 113.778 67.9655 113.535C68.3625 113.286 68.8201 113.162 69.3383 113.162C69.8295 113.162 70.2602 113.276 70.6303 113.505C71.0072 113.727 71.2898 114.03 71.4782 114.414L70.812 114.626C70.664 114.356 70.4553 114.148 70.1862 114C69.9237 113.845 69.631 113.768 69.308 113.768C68.9513 113.768 68.6283 113.858 68.339 114.04C68.0563 114.222 67.8275 114.474 67.6526 114.797C67.4843 115.113 67.4002 115.47 67.4002 115.867C67.4002 116.264 67.4877 116.624 67.6627 116.947C67.8376 117.27 68.0698 117.529 68.3591 117.724C68.6485 117.913 68.9682 118.007 69.3181 118.007C69.5469 118.007 69.769 117.967 69.9843 117.886C70.1996 117.805 70.3847 117.697 70.5395 117.563C70.6942 117.422 70.7985 117.27 70.8524 117.109L71.5287 117.311C71.4345 117.56 71.2797 117.785 71.0644 117.987C70.849 118.182 70.5933 118.337 70.2972 118.451C70.0011 118.559 69.6848 118.613 69.3484 118.613ZM75.1305 118.259C75.0498 118.293 74.9017 118.354 74.6864 118.441C74.471 118.529 74.2221 118.572 73.9394 118.572C73.6433 118.572 73.3842 118.488 73.1622 118.32C72.9401 118.152 72.8291 117.899 72.8291 117.563V113.798H72.1023V113.253H72.8291V111.476H73.5155V113.253H74.7268V113.798H73.5155V117.371C73.5289 117.566 73.5962 117.711 73.7174 117.805C73.8452 117.893 73.9899 117.936 74.1514 117.936C74.3398 117.936 74.5081 117.906 74.6561 117.846C74.8109 117.778 74.9084 117.731 74.9488 117.704L75.1305 118.259Z" fill="black"/>
<path d="M43.797 139.708V132.542H44.5035V139.083H48.6421V139.708H43.797ZM51.673 139.809C51.1683 139.809 50.7174 139.685 50.3204 139.436C49.9301 139.187 49.6239 138.857 49.4018 138.447C49.1798 138.03 49.0687 137.579 49.0687 137.094C49.0687 136.603 49.1798 136.152 49.4018 135.742C49.6306 135.324 49.9402 134.991 50.3305 134.742C50.7275 134.487 51.175 134.359 51.673 134.359C52.1777 134.359 52.6252 134.487 53.0155 134.742C53.4125 134.991 53.7221 135.324 53.9441 135.742C54.1729 136.152 54.2873 136.603 54.2873 137.094C54.2873 137.579 54.1763 138.03 53.9542 138.447C53.7322 138.857 53.4226 139.187 53.0256 139.436C52.6353 139.685 52.1844 139.809 51.673 139.809ZM49.7652 137.104C49.7652 137.495 49.8493 137.851 50.0176 138.174C50.1925 138.49 50.4247 138.743 50.7141 138.931C51.0034 139.113 51.3231 139.204 51.673 139.204C52.0229 139.204 52.3426 139.11 52.6319 138.921C52.9213 138.733 53.1534 138.477 53.3284 138.154C53.5034 137.831 53.5909 137.474 53.5909 137.084C53.5909 136.694 53.5034 136.337 53.3284 136.014C53.1534 135.691 52.9213 135.435 52.6319 135.247C52.3426 135.059 52.0229 134.964 51.673 134.964C51.3298 134.964 51.0135 135.062 50.7241 135.257C50.4348 135.445 50.2026 135.701 50.0277 136.024C49.8527 136.347 49.7652 136.707 49.7652 137.104ZM61.8796 134.449H62.5559L60.2948 139.708H59.6992L58.599 137.094L57.5088 139.708H56.9133L54.6522 134.449H55.3184L57.2363 139.002L58.2053 136.63L57.3171 134.46H57.9328L58.599 136.165L59.2753 134.46H59.8809L59.0028 136.63L59.9718 139.002L61.8796 134.449ZM65.3321 138.194C65.3321 137.871 65.4263 137.592 65.6148 137.357C65.8032 137.114 66.0623 136.926 66.392 136.791C66.7285 136.657 67.1154 136.589 67.5528 136.589C67.8085 136.589 68.0743 136.613 68.3502 136.66C68.6261 136.7 68.8718 136.758 69.0871 136.832V136.388C69.0871 135.943 68.9559 135.59 68.6934 135.328C68.431 135.065 68.0676 134.934 67.6033 134.934C67.3274 134.934 67.0515 134.988 66.7756 135.096C66.4997 135.196 66.2137 135.348 65.9176 135.55L65.6551 135.065C65.9983 134.83 66.3348 134.655 66.6645 134.54C66.9943 134.419 67.3307 134.359 67.6739 134.359C68.32 134.359 68.8314 134.544 69.2082 134.914C69.5851 135.284 69.7735 135.795 69.7735 136.448V138.881C69.7735 139.062 69.8576 139.157 70.0258 139.163V139.708C69.8778 139.729 69.7735 139.735 69.7129 139.729C69.5447 139.722 69.4168 139.668 69.3294 139.567C69.2419 139.466 69.1948 139.359 69.188 139.244L69.1779 138.861C68.9424 139.163 68.6362 139.399 68.2594 139.567C67.8825 139.729 67.499 139.809 67.1087 139.809C66.7655 139.809 66.4593 139.739 66.1901 139.597C65.9209 139.449 65.709 139.254 65.5542 139.012C65.4061 138.763 65.3321 138.49 65.3321 138.194ZM68.8549 138.598C69.0097 138.416 69.0871 138.248 69.0871 138.093V137.326C68.6228 137.145 68.1383 137.054 67.6336 137.054C67.1423 137.054 66.7453 137.151 66.4425 137.346C66.1396 137.542 65.9882 137.807 65.9882 138.144C65.9882 138.433 66.0993 138.696 66.3213 138.931C66.5501 139.167 66.8664 139.285 67.2702 139.285C67.5999 139.285 67.9061 139.221 68.1887 139.093C68.4781 138.965 68.7002 138.8 68.8549 138.598ZM73.7406 139.456C73.6599 139.49 73.5118 139.55 73.2965 139.638C73.0811 139.725 72.8322 139.769 72.5495 139.769C72.2534 139.769 71.9943 139.685 71.7723 139.517C71.5502 139.348 71.4392 139.096 71.4392 138.76V134.995H70.7124V134.449H71.4392V132.673H72.1256V134.449H73.3369V134.995H72.1256V138.568C72.139 138.763 72.2063 138.908 72.3274 139.002C72.4553 139.089 72.6 139.133 72.7615 139.133C72.9499 139.133 73.1181 139.103 73.2662 139.042C73.421 138.975 73.5185 138.928 73.5589 138.901L73.7406 139.456ZM77.1217 139.456C77.041 139.49 76.8929 139.55 76.6776 139.638C76.4622 139.725 76.2133 139.769 75.9306 139.769C75.6345 139.769 75.3755 139.685 75.1534 139.517C74.9313 139.348 74.8203 139.096 74.8203 138.76V134.995H74.0935V134.449H74.8203V132.673H75.5067V134.449H76.718V134.995H75.5067V138.568C75.5201 138.763 75.5874 138.908 75.7086 139.002C75.8364 139.089 75.9811 139.133 76.1426 139.133C76.331 139.133 76.4993 139.103 76.6473 139.042C76.8021 138.975 76.8997 138.928 76.94 138.901L77.1217 139.456ZM80.1618 139.809C79.6571 139.809 79.2062 139.685 78.8092 139.436C78.4121 139.187 78.0992 138.854 77.8704 138.437C77.6416 138.019 77.5272 137.562 77.5272 137.064C77.5272 136.573 77.6383 136.122 77.8603 135.711C78.0891 135.301 78.402 134.974 78.7991 134.732C79.1961 134.483 79.647 134.359 80.1517 134.359C80.6698 134.359 81.1241 134.483 81.5144 134.732C81.9047 134.981 82.2075 135.311 82.4228 135.721C82.6449 136.125 82.7559 136.569 82.7559 137.054C82.7559 137.161 82.7526 137.252 82.7458 137.326H78.2439C78.2775 137.703 78.3852 138.04 78.5669 138.336C78.7486 138.625 78.9808 138.857 79.2634 139.032C79.546 139.2 79.8556 139.285 80.192 139.285C80.5352 139.285 80.8583 139.197 81.1611 139.022C81.4639 138.847 81.6792 138.618 81.8071 138.336L82.4026 138.497C82.295 138.753 82.1267 138.982 81.8979 139.184C81.6759 139.379 81.4168 139.534 81.1207 139.648C80.8246 139.756 80.505 139.809 80.1618 139.809ZM78.2237 136.832H82.1099C82.083 136.455 81.9787 136.122 81.797 135.832C81.6153 135.536 81.3831 135.307 81.1005 135.146C80.8179 134.978 80.505 134.894 80.1618 134.894C79.8186 134.894 79.5057 134.978 79.223 135.146C78.9404 135.307 78.7082 135.536 78.5265 135.832C78.3516 136.122 78.2506 136.455 78.2237 136.832ZM88.2361 139.708H87.5497V136.771C87.5497 136.152 87.4555 135.701 87.2671 135.419C87.0854 135.129 86.8028 134.984 86.4192 134.984C86.15 134.984 85.8842 135.052 85.6218 135.186C85.3593 135.314 85.1272 135.493 84.9253 135.721C84.7301 135.943 84.5888 136.199 84.5013 136.488V139.708H83.8149V134.449H84.4408V135.641C84.6494 135.257 84.9556 134.947 85.3593 134.712C85.7631 134.476 86.2005 134.359 86.6716 134.359C87.0619 134.359 87.3714 134.453 87.6002 134.641C87.829 134.823 87.9905 135.085 88.0847 135.429C88.1857 135.765 88.2361 136.165 88.2361 136.63V139.708ZM89.3466 137.094C89.3466 136.596 89.4475 136.142 89.6494 135.731C89.858 135.314 90.144 134.981 90.5074 134.732C90.8708 134.483 91.2846 134.359 91.7489 134.359C92.1863 134.359 92.5767 134.476 92.9198 134.712C93.2698 134.941 93.5423 135.22 93.7375 135.55V132.34H94.4239V138.881C94.4239 139.062 94.5046 139.157 94.6661 139.163V139.708C94.5315 139.729 94.4272 139.735 94.3532 139.729C94.2052 139.722 94.0773 139.668 93.9696 139.567C93.8687 139.46 93.8182 139.338 93.8182 139.204V138.689C93.6096 139.032 93.327 139.305 92.9703 139.507C92.6137 139.708 92.2435 139.809 91.86 139.809C91.4966 139.809 91.1601 139.735 90.8506 139.587C90.541 139.439 90.2718 139.237 90.043 138.982C89.821 138.726 89.6494 138.437 89.5282 138.114C89.4071 137.784 89.3466 137.444 89.3466 137.094ZM93.7375 137.902V136.277C93.65 136.034 93.5087 135.816 93.3135 135.62C93.1184 135.419 92.8963 135.26 92.6473 135.146C92.4051 135.025 92.1628 134.964 91.9205 134.964C91.5437 134.964 91.214 135.069 90.9313 135.277C90.6554 135.479 90.4401 135.745 90.2853 136.075C90.1305 136.398 90.0531 136.737 90.0531 137.094C90.0531 137.471 90.1373 137.821 90.3055 138.144C90.4805 138.467 90.716 138.726 91.0121 138.921C91.3082 139.11 91.6413 139.204 92.0114 139.204C92.2402 139.204 92.4791 139.147 92.7281 139.032C92.9838 138.911 93.2058 138.753 93.3943 138.558C93.5894 138.363 93.7038 138.144 93.7375 137.902ZM95.5551 138.194C95.5551 137.871 95.6493 137.592 95.8377 137.357C96.0262 137.114 96.2852 136.926 96.615 136.791C96.9514 136.657 97.3384 136.589 97.7758 136.589C98.0315 136.589 98.2973 136.613 98.5732 136.66C98.8491 136.7 99.0947 136.758 99.3101 136.832V136.388C99.3101 135.943 99.1789 135.59 98.9164 135.328C98.654 135.065 98.2906 134.934 97.8263 134.934C97.5504 134.934 97.2745 134.988 96.9986 135.096C96.7226 135.196 96.4366 135.348 96.1406 135.55L95.8781 135.065C96.2213 134.83 96.5578 134.655 96.8875 134.54C97.2173 134.419 97.5537 134.359 97.8969 134.359C98.5429 134.359 99.0544 134.544 99.4312 134.914C99.8081 135.284 99.9965 135.795 99.9965 136.448V138.881C99.9965 139.062 100.081 139.157 100.249 139.163V139.708C100.101 139.729 99.9965 139.735 99.9359 139.729C99.7677 139.722 99.6398 139.668 99.5523 139.567C99.4649 139.466 99.4178 139.359 99.411 139.244L99.4009 138.861C99.1654 139.163 98.8592 139.399 98.4824 139.567C98.1055 139.729 97.722 139.809 97.3317 139.809C96.9885 139.809 96.6823 139.739 96.4131 139.597C96.1439 139.449 95.9319 139.254 95.7772 139.012C95.6291 138.763 95.5551 138.49 95.5551 138.194ZM99.0779 138.598C99.2327 138.416 99.3101 138.248 99.3101 138.093V137.326C98.8458 137.145 98.3612 137.054 97.8565 137.054C97.3653 137.054 96.9683 137.151 96.6654 137.346C96.3626 137.542 96.2112 137.807 96.2112 138.144C96.2112 138.433 96.3223 138.696 96.5443 138.931C96.7731 139.167 97.0894 139.285 97.4932 139.285C97.8229 139.285 98.1291 139.221 98.4117 139.093C98.7011 138.965 98.9231 138.8 99.0779 138.598ZM105.901 139.708H105.214V136.771C105.214 136.152 105.12 135.701 104.932 135.419C104.75 135.129 104.467 134.984 104.084 134.984C103.815 134.984 103.549 135.052 103.286 135.186C103.024 135.314 102.792 135.493 102.59 135.721C102.395 135.943 102.253 136.199 102.166 136.488V139.708H101.48V134.449H102.105V135.641C102.314 135.257 102.62 134.947 103.024 134.712C103.428 134.476 103.865 134.359 104.336 134.359C104.726 134.359 105.036 134.453 105.265 134.641C105.494 134.823 105.655 135.085 105.749 135.429C105.85 135.765 105.901 136.165 105.901 136.63V139.708ZM109.646 139.809C109.134 139.809 108.68 139.685 108.283 139.436C107.886 139.18 107.573 138.847 107.344 138.437C107.115 138.019 107.001 137.562 107.001 137.064C107.001 136.566 107.112 136.115 107.334 135.711C107.556 135.301 107.866 134.974 108.263 134.732C108.66 134.483 109.117 134.359 109.636 134.359C110.127 134.359 110.558 134.473 110.928 134.702C111.304 134.924 111.587 135.227 111.776 135.61L111.109 135.822C110.961 135.553 110.753 135.345 110.483 135.196C110.221 135.042 109.928 134.964 109.605 134.964C109.249 134.964 108.926 135.055 108.636 135.237C108.354 135.419 108.125 135.671 107.95 135.994C107.782 136.31 107.698 136.667 107.698 137.064C107.698 137.461 107.785 137.821 107.96 138.144C108.135 138.467 108.367 138.726 108.656 138.921C108.946 139.11 109.265 139.204 109.615 139.204C109.844 139.204 110.066 139.163 110.282 139.083C110.497 139.002 110.682 138.894 110.837 138.76C110.992 138.618 111.096 138.467 111.15 138.305L111.826 138.507C111.732 138.756 111.577 138.982 111.362 139.184C111.146 139.379 110.891 139.534 110.595 139.648C110.298 139.756 109.982 139.809 109.646 139.809ZM115.126 139.809C114.621 139.809 114.171 139.685 113.774 139.436C113.377 139.187 113.064 138.854 112.835 138.437C112.606 138.019 112.492 137.562 112.492 137.064C112.492 136.573 112.603 136.122 112.825 135.711C113.054 135.301 113.366 134.974 113.763 134.732C114.161 134.483 114.611 134.359 115.116 134.359C115.634 134.359 116.088 134.483 116.479 134.732C116.869 134.981 117.172 135.311 117.387 135.721C117.609 136.125 117.72 136.569 117.72 137.054C117.72 137.161 117.717 137.252 117.71 137.326H113.208C113.242 137.703 113.35 138.04 113.531 138.336C113.713 138.625 113.945 138.857 114.228 139.032C114.51 139.2 114.82 139.285 115.156 139.285C115.5 139.285 115.823 139.197 116.125 139.022C116.428 138.847 116.644 138.618 116.772 138.336L117.367 138.497C117.259 138.753 117.091 138.982 116.862 139.184C116.64 139.379 116.381 139.534 116.085 139.648C115.789 139.756 115.469 139.809 115.126 139.809ZM113.188 136.832H117.074C117.047 136.455 116.943 136.122 116.761 135.832C116.58 135.536 116.348 135.307 116.065 135.146C115.782 134.978 115.469 134.894 115.126 134.894C114.783 134.894 114.47 134.978 114.187 135.146C113.905 135.307 113.673 135.536 113.491 135.832C113.316 136.122 113.215 136.455 113.188 136.832Z" fill="black"/>
<path d="M161.091 111.345H161.687L164.665 118.512H163.918L162.989 116.271H159.769L158.85 118.512H158.093L161.091 111.345ZM162.828 115.716L161.384 112.173L159.92 115.716H162.828ZM167.857 118.259C167.777 118.293 167.629 118.354 167.413 118.441C167.198 118.529 166.949 118.572 166.666 118.572C166.37 118.572 166.111 118.488 165.889 118.32C165.667 118.152 165.556 117.899 165.556 117.563V113.798H164.829V113.253H165.556V111.476H166.242V113.253H167.454V113.798H166.242V117.371C166.256 117.566 166.323 117.711 166.444 117.805C166.572 117.893 166.717 117.936 166.878 117.936C167.067 117.936 167.235 117.906 167.383 117.846C167.538 117.778 167.635 117.731 167.676 117.704L167.857 118.259ZM171.238 118.259C171.158 118.293 171.01 118.354 170.794 118.441C170.579 118.529 170.33 118.572 170.047 118.572C169.751 118.572 169.492 118.488 169.27 118.32C169.048 118.152 168.937 117.899 168.937 117.563V113.798H168.21V113.253H168.937V111.476H169.623V113.253H170.835V113.798H169.623V117.371C169.637 117.566 169.704 117.711 169.825 117.805C169.953 117.893 170.098 117.936 170.259 117.936C170.448 117.936 170.616 117.906 170.764 117.846C170.919 117.778 171.016 117.731 171.057 117.704L171.238 118.259ZM174.278 118.613C173.774 118.613 173.323 118.488 172.926 118.239C172.529 117.99 172.216 117.657 171.987 117.24C171.758 116.823 171.644 116.365 171.644 115.867C171.644 115.376 171.755 114.925 171.977 114.514C172.206 114.104 172.519 113.778 172.916 113.535C173.313 113.286 173.764 113.162 174.268 113.162C174.787 113.162 175.241 113.286 175.631 113.535C176.021 113.784 176.324 114.114 176.54 114.525C176.762 114.928 176.873 115.372 176.873 115.857C176.873 115.965 176.869 116.056 176.863 116.13H172.361C172.394 116.506 172.502 116.843 172.684 117.139C172.865 117.428 173.097 117.66 173.38 117.835C173.663 118.004 173.972 118.088 174.309 118.088C174.652 118.088 174.975 118 175.278 117.825C175.581 117.65 175.796 117.422 175.924 117.139L176.519 117.3C176.412 117.556 176.243 117.785 176.015 117.987C175.793 118.182 175.534 118.337 175.237 118.451C174.941 118.559 174.622 118.613 174.278 118.613ZM172.34 115.635H176.227C176.2 115.258 176.095 114.925 175.914 114.636C175.732 114.34 175.5 114.111 175.217 113.949C174.935 113.781 174.622 113.697 174.278 113.697C173.935 113.697 173.622 113.781 173.34 113.949C173.057 114.111 172.825 114.34 172.643 114.636C172.468 114.925 172.367 115.258 172.34 115.635ZM182.353 118.512H181.666V115.574C181.666 114.955 181.572 114.504 181.384 114.222C181.202 113.932 180.92 113.788 180.536 113.788C180.267 113.788 180.001 113.855 179.739 113.99C179.476 114.117 179.244 114.296 179.042 114.525C178.847 114.747 178.706 115.002 178.618 115.292V118.512H177.932V113.253H178.557V114.444C178.766 114.06 179.072 113.751 179.476 113.515C179.88 113.28 180.317 113.162 180.788 113.162C181.179 113.162 181.488 113.256 181.717 113.445C181.946 113.626 182.107 113.889 182.201 114.232C182.302 114.568 182.353 114.969 182.353 115.433V118.512ZM183.463 115.897C183.463 115.399 183.564 114.945 183.766 114.535C183.975 114.117 184.261 113.784 184.624 113.535C184.987 113.286 185.401 113.162 185.866 113.162C186.303 113.162 186.693 113.28 187.037 113.515C187.387 113.744 187.659 114.023 187.854 114.353V111.143H188.541V117.684C188.541 117.866 188.621 117.96 188.783 117.967V118.512C188.648 118.532 188.544 118.539 188.47 118.532C188.322 118.525 188.194 118.471 188.086 118.37C187.985 118.263 187.935 118.142 187.935 118.007V117.492C187.726 117.835 187.444 118.108 187.087 118.31C186.73 118.512 186.36 118.613 185.977 118.613C185.613 118.613 185.277 118.539 184.967 118.391C184.658 118.243 184.389 118.041 184.16 117.785C183.938 117.529 183.766 117.24 183.645 116.917C183.524 116.587 183.463 116.247 183.463 115.897ZM187.854 116.705V115.08C187.767 114.837 187.625 114.619 187.43 114.424C187.235 114.222 187.013 114.064 186.764 113.949C186.522 113.828 186.28 113.768 186.037 113.768C185.66 113.768 185.331 113.872 185.048 114.08C184.772 114.282 184.557 114.548 184.402 114.878C184.247 115.201 184.17 115.541 184.17 115.897C184.17 116.274 184.254 116.624 184.422 116.947C184.597 117.27 184.833 117.529 185.129 117.724C185.425 117.913 185.758 118.007 186.128 118.007C186.357 118.007 186.596 117.95 186.845 117.835C187.101 117.714 187.323 117.556 187.511 117.361C187.706 117.166 187.821 116.947 187.854 116.705ZM189.672 116.998C189.672 116.675 189.766 116.395 189.954 116.16C190.143 115.918 190.402 115.729 190.732 115.595C191.068 115.46 191.455 115.393 191.893 115.393C192.148 115.393 192.414 115.416 192.69 115.463C192.966 115.504 193.211 115.561 193.427 115.635V115.191C193.427 114.747 193.296 114.393 193.033 114.131C192.771 113.868 192.407 113.737 191.943 113.737C191.667 113.737 191.391 113.791 191.115 113.899C190.839 114 190.553 114.151 190.257 114.353L189.995 113.868C190.338 113.633 190.675 113.458 191.004 113.344C191.334 113.222 191.67 113.162 192.014 113.162C192.66 113.162 193.171 113.347 193.548 113.717C193.925 114.087 194.113 114.599 194.113 115.251V117.684C194.113 117.866 194.197 117.96 194.366 117.967V118.512C194.218 118.532 194.113 118.539 194.053 118.532C193.884 118.525 193.757 118.471 193.669 118.37C193.582 118.269 193.534 118.162 193.528 118.047L193.518 117.664C193.282 117.967 192.976 118.202 192.599 118.37C192.222 118.532 191.839 118.613 191.448 118.613C191.105 118.613 190.799 118.542 190.53 118.401C190.261 118.253 190.049 118.057 189.894 117.815C189.746 117.566 189.672 117.294 189.672 116.998ZM193.195 117.401C193.349 117.22 193.427 117.051 193.427 116.897V116.13C192.962 115.948 192.478 115.857 191.973 115.857C191.482 115.857 191.085 115.955 190.782 116.15C190.479 116.345 190.328 116.611 190.328 116.947C190.328 117.237 190.439 117.499 190.661 117.734C190.89 117.97 191.206 118.088 191.61 118.088C191.94 118.088 192.246 118.024 192.528 117.896C192.818 117.768 193.04 117.603 193.195 117.401ZM200.017 118.512H199.331V115.574C199.331 114.955 199.237 114.504 199.048 114.222C198.867 113.932 198.584 113.788 198.201 113.788C197.931 113.788 197.666 113.855 197.403 113.99C197.141 114.117 196.908 114.296 196.707 114.525C196.511 114.747 196.37 115.002 196.283 115.292V118.512H195.596V113.253H196.222V114.444C196.431 114.06 196.737 113.751 197.141 113.515C197.544 113.28 197.982 113.162 198.453 113.162C198.843 113.162 199.153 113.256 199.382 113.445C199.61 113.626 199.772 113.889 199.866 114.232C199.967 114.568 200.017 114.969 200.017 115.433V118.512ZM203.762 118.613C203.251 118.613 202.797 118.488 202.4 118.239C202.003 117.983 201.69 117.65 201.461 117.24C201.232 116.823 201.118 116.365 201.118 115.867C201.118 115.369 201.229 114.918 201.451 114.514C201.673 114.104 201.982 113.778 202.38 113.535C202.777 113.286 203.234 113.162 203.752 113.162C204.244 113.162 204.674 113.276 205.044 113.505C205.421 113.727 205.704 114.03 205.892 114.414L205.226 114.626C205.078 114.356 204.869 114.148 204.6 114C204.338 113.845 204.045 113.768 203.722 113.768C203.365 113.768 203.042 113.858 202.753 114.04C202.47 114.222 202.242 114.474 202.067 114.797C201.898 115.113 201.814 115.47 201.814 115.867C201.814 116.264 201.902 116.624 202.077 116.947C202.252 117.27 202.484 117.529 202.773 117.724C203.063 117.913 203.382 118.007 203.732 118.007C203.961 118.007 204.183 117.967 204.398 117.886C204.614 117.805 204.799 117.697 204.953 117.563C205.108 117.422 205.213 117.27 205.266 117.109L205.943 117.311C205.849 117.56 205.694 117.785 205.478 117.987C205.263 118.182 205.007 118.337 204.711 118.451C204.415 118.559 204.099 118.613 203.762 118.613ZM209.243 118.613C208.738 118.613 208.287 118.488 207.89 118.239C207.493 117.99 207.18 117.657 206.952 117.24C206.723 116.823 206.608 116.365 206.608 115.867C206.608 115.376 206.719 114.925 206.941 114.514C207.17 114.104 207.483 113.778 207.88 113.535C208.277 113.286 208.728 113.162 209.233 113.162C209.751 113.162 210.205 113.286 210.596 113.535C210.986 113.784 211.289 114.114 211.504 114.525C211.726 114.928 211.837 115.372 211.837 115.857C211.837 115.965 211.834 116.056 211.827 116.13H207.325C207.359 116.506 207.466 116.843 207.648 117.139C207.83 117.428 208.062 117.66 208.345 117.835C208.627 118.004 208.937 118.088 209.273 118.088C209.616 118.088 209.939 118 210.242 117.825C210.545 117.65 210.76 117.422 210.888 117.139L211.484 117.3C211.376 117.556 211.208 117.785 210.979 117.987C210.757 118.182 210.498 118.337 210.202 118.451C209.906 118.559 209.586 118.613 209.243 118.613ZM207.305 115.635H211.191C211.164 115.258 211.06 114.925 210.878 114.636C210.696 114.34 210.464 114.111 210.182 113.949C209.899 113.781 209.586 113.697 209.243 113.697C208.9 113.697 208.587 113.781 208.304 113.949C208.022 114.111 207.789 114.34 207.608 114.636C207.433 114.925 207.332 115.258 207.305 115.635ZM215.156 115.019C215.156 114.333 215.294 113.667 215.57 113.021C215.846 112.368 216.179 111.712 216.569 111.052L217.094 111.305C216.959 111.506 216.815 111.755 216.66 112.052C216.512 112.348 216.371 112.667 216.236 113.01C216.108 113.347 216.004 113.69 215.923 114.04C215.842 114.39 215.802 114.726 215.802 115.049C215.802 115.574 215.916 116.15 216.145 116.776C216.374 117.395 216.687 118.007 217.084 118.613L216.569 118.885C216.145 118.253 215.802 117.61 215.54 116.957C215.284 116.304 215.156 115.658 215.156 115.019ZM218.321 118.512V111.345H219.028V117.886H223.166V118.512H218.321ZM226.197 118.613C225.692 118.613 225.241 118.488 224.844 118.239C224.454 117.99 224.148 117.66 223.926 117.25C223.704 116.833 223.593 116.382 223.593 115.897C223.593 115.406 223.704 114.955 223.926 114.545C224.155 114.128 224.464 113.794 224.855 113.545C225.252 113.29 225.699 113.162 226.197 113.162C226.702 113.162 227.149 113.29 227.54 113.545C227.937 113.794 228.246 114.128 228.468 114.545C228.697 114.955 228.811 115.406 228.811 115.897C228.811 116.382 228.7 116.833 228.478 117.25C228.256 117.66 227.947 117.99 227.55 118.239C227.159 118.488 226.708 118.613 226.197 118.613ZM224.289 115.907C224.289 116.298 224.373 116.654 224.542 116.977C224.717 117.294 224.949 117.546 225.238 117.734C225.527 117.916 225.847 118.007 226.197 118.007C226.547 118.007 226.867 117.913 227.156 117.724C227.445 117.536 227.678 117.28 227.852 116.957C228.027 116.634 228.115 116.278 228.115 115.887C228.115 115.497 228.027 115.14 227.852 114.817C227.678 114.494 227.445 114.239 227.156 114.05C226.867 113.862 226.547 113.768 226.197 113.768C225.854 113.768 225.538 113.865 225.248 114.06C224.959 114.249 224.727 114.504 224.552 114.827C224.377 115.15 224.289 115.51 224.289 115.907ZM236.404 113.253H237.08L234.819 118.512H234.223L233.123 115.897L232.033 118.512H231.437L229.176 113.253H229.842L231.76 117.805L232.729 115.433L231.841 113.263H232.457L233.123 114.969L233.799 113.263H234.405L233.527 115.433L234.496 117.805L236.404 113.253ZM240.179 116.079V115.443H243.127V116.079H240.179ZM252.905 111.345V118.512H252.209V115.16H247.959V118.512H247.253V111.345H247.959V114.535H252.209V111.345H252.905ZM254.564 112.152V111.143H255.25V112.152H254.564ZM254.564 118.512V113.253H255.25V118.512H254.564ZM258.871 118.582C258.508 118.582 258.175 118.508 257.872 118.36C257.576 118.212 257.317 118.014 257.095 117.765C256.88 117.509 256.711 117.22 256.59 116.897C256.469 116.574 256.409 116.241 256.409 115.897C256.409 115.406 256.513 114.955 256.721 114.545C256.93 114.128 257.216 113.794 257.579 113.545C257.95 113.29 258.373 113.162 258.851 113.162C259.302 113.162 259.692 113.276 260.022 113.505C260.359 113.734 260.641 114.017 260.87 114.353V113.253H261.486V118.532C261.486 119.023 261.368 119.434 261.133 119.763C260.897 120.093 260.584 120.342 260.194 120.51C259.803 120.679 259.376 120.763 258.912 120.763C258.306 120.763 257.818 120.655 257.448 120.44C257.085 120.224 256.785 119.935 256.55 119.572L256.974 119.238C257.182 119.568 257.458 119.814 257.801 119.975C258.151 120.137 258.522 120.218 258.912 120.218C259.255 120.218 259.568 120.154 259.851 120.026C260.14 119.905 260.369 119.72 260.537 119.471C260.712 119.222 260.799 118.909 260.799 118.532V117.492C260.598 117.822 260.322 118.088 259.972 118.29C259.622 118.485 259.255 118.582 258.871 118.582ZM259.063 118.007C259.339 118.007 259.602 117.943 259.851 117.815C260.1 117.687 260.308 117.526 260.476 117.331C260.651 117.129 260.759 116.92 260.799 116.705V115.08C260.698 114.824 260.554 114.599 260.365 114.403C260.177 114.202 259.962 114.047 259.719 113.939C259.477 113.825 259.231 113.768 258.982 113.768C258.592 113.768 258.256 113.875 257.973 114.091C257.697 114.299 257.482 114.568 257.327 114.898C257.179 115.221 257.105 115.558 257.105 115.907C257.105 116.284 257.192 116.634 257.367 116.957C257.542 117.274 257.778 117.529 258.074 117.724C258.37 117.913 258.7 118.007 259.063 118.007ZM267.423 118.512H266.736V115.574C266.736 114.383 266.333 113.788 265.525 113.788C265.263 113.788 265.007 113.855 264.758 113.99C264.509 114.117 264.287 114.296 264.092 114.525C263.903 114.747 263.769 115.002 263.688 115.292V118.512H263.002V111.143H263.688V114.444C263.897 114.054 264.186 113.744 264.556 113.515C264.933 113.28 265.333 113.162 265.757 113.162C266.161 113.162 266.484 113.259 266.726 113.455C266.969 113.643 267.143 113.909 267.251 114.252C267.366 114.589 267.423 114.982 267.423 115.433V118.512ZM270.39 115.019C270.39 115.658 270.263 116.304 270.007 116.957C269.751 117.61 269.408 118.253 268.977 118.885L268.473 118.613C268.87 118.007 269.183 117.395 269.411 116.776C269.64 116.15 269.755 115.574 269.755 115.049C269.755 114.726 269.711 114.39 269.623 114.04C269.543 113.69 269.438 113.347 269.31 113.01C269.183 112.667 269.041 112.348 268.886 112.052C268.738 111.755 268.594 111.506 268.452 111.305L268.987 111.052C269.378 111.712 269.707 112.368 269.977 113.021C270.253 113.667 270.39 114.333 270.39 115.019Z" fill="black"/>
<rect x="20.9443" y="67.8822" width="11.6082" height="11.6082" fill="#EFEFEF" stroke="#BDBDBD" stroke-width="0.504702"/>
<rect x="136.018" y="67.8822" width="11.6082" height="11.6082" fill="#EFEFEF" stroke="#BDBDBD" stroke-width="0.504702"/>
<rect x="20.9443" y="88.0712" width="11.6082" height="11.6082" fill="#EFEFEF" stroke="#BDBDBD" stroke-width="0.504702"/>
<rect x="136.018" y="88.0712" width="11.6082" height="11.6082" fill="#EFEFEF" stroke="#BDBDBD" stroke-width="0.504702"/>
<rect x="20.9443" y="108.764" width="11.6082" height="11.6082" fill="#EFEFEF" stroke="#BDBDBD" stroke-width="0.504702"/>
<rect x="20.9443" y="129.961" width="11.6082" height="11.6082" fill="#EFEFEF" stroke="#BDBDBD" stroke-width="0.504702"/>
<rect x="136.018" y="108.764" width="11.6082" height="11.6082" fill="#EFEFEF" stroke="#BDBDBD" stroke-width="0.504702"/>
<rect x="106" y="178" width="48.3107" height="28.7808" fill="#6FCF97"/>
<rect x="158.423" y="178" width="48.3107" height="28.7808" fill="#E0E0E0"/>
<rect x="210.846" y="178" width="48.3107" height="28.7808" fill="#6FCF97"/>
<rect x="263.267" y="178" width="48.3107" height="28.7808" fill="#6FCF97"/>
<rect x="315.69" y="178" width="48.3107" height="28.7808" fill="#E0E0E0"/>
<rect x="106" y="215.005" width="48.3107" height="28.7808" fill="#6FCF97"/>
<rect x="158.422" y="215.004" width="48.3107" height="28.7808" fill="#6FCF97"/>
<rect x="210.845" y="215.004" width="48.3107" height="28.7808" fill="#6FCF97"/>
<rect x="263.266" y="215.004" width="48.3107" height="28.7808" fill="#E0E0E0"/>
<rect x="315.689" y="215.004" width="48.3107" height="28.7808" fill="#E0E0E0"/>
<rect x="106" y="252.008" width="48.3107" height="28.7808" fill="#E0E0E0"/>
<rect x="158.422" y="252.008" width="48.3107" height="28.7808" fill="#E0E0E0"/>
<rect x="210.845" y="252.008" width="48.3107" height="28.7808" fill="#6FCF97"/>
<rect x="263.266" y="252.008" width="48.3107" height="28.7808" fill="#6FCF97"/>
<rect x="315.689" y="252.008" width="48.3107" height="28.7808" fill="#E0E0E0"/>
<rect x="106" y="289.013" width="48.3107" height="28.7808" fill="#E0E0E0"/>
<rect x="158.422" y="289.012" width="48.3107" height="28.7808" fill="#E0E0E0"/>
<rect x="210.845" y="289.012" width="48.3107" height="28.7808" fill="#E0E0E0"/>
<rect x="263.266" y="289.012" width="48.3107" height="28.7808" fill="#E0E0E0"/>
<rect x="315.689" y="289.012" width="48.3107" height="28.7808" fill="#E0E0E0"/>
<rect x="106" y="326.016" width="48.3107" height="28.7808" fill="#6FCF97"/>
<rect x="158.422" y="326.016" width="48.3107" height="28.7808" fill="#E0E0E0"/>
<rect x="210.845" y="326.016" width="48.3107" height="28.7808" fill="#6FCF97"/>
<rect x="263.266" y="326.016" width="48.3107" height="28.7808" fill="#6FCF97"/>
<rect x="315.689" y="326.016" width="48.3107" height="28.7808" fill="#E0E0E0"/>
</svg>
